%TF.GenerationSoftware,KiCad,Pcbnew,(5.1.6-dirty)*%
%TF.CreationDate,2020-08-28T22:36:31+02:00*%
%TF.ProjectId,FD,46442e6b-6963-4616-945f-706362585858,rev?*%
%TF.SameCoordinates,Original*%
%TF.FileFunction,Copper,L6,Bot*%
%TF.FilePolarity,Positive*%
%FSLAX46Y46*%
G04 Gerber Fmt 4.6, Leading zero omitted, Abs format (unit mm)*
G04 Created by KiCad (PCBNEW (5.1.6-dirty)) date 2020-08-28 22:36:31*
%MOMM*%
%LPD*%
G01*
G04 APERTURE LIST*
%TA.AperFunction,ComponentPad*%
%ADD10O,3.300000X2.700000*%
%TD*%
%TA.AperFunction,ComponentPad*%
%ADD11R,1.700000X1.700000*%
%TD*%
%TA.AperFunction,ComponentPad*%
%ADD12O,1.700000X1.700000*%
%TD*%
%TA.AperFunction,ComponentPad*%
%ADD13C,10.160000*%
%TD*%
%TA.AperFunction,ViaPad*%
%ADD14C,0.500000*%
%TD*%
%TA.AperFunction,Conductor*%
%ADD15R,1.800000X2.500000*%
%TD*%
%TA.AperFunction,ViaPad*%
%ADD16C,0.450000*%
%TD*%
%TA.AperFunction,ViaPad*%
%ADD17C,0.800000*%
%TD*%
%TA.AperFunction,Conductor*%
%ADD18C,0.090000*%
%TD*%
%TA.AperFunction,Conductor*%
%ADD19C,0.250000*%
%TD*%
G04 APERTURE END LIST*
%TO.P,J2,1*%
%TO.N,+3.3V*%
%TA.AperFunction,ComponentPad*%
G36*
G01*
X146400001Y-100950000D02*
X149199999Y-100950000D01*
G75*
G02*
X149450000Y-101200001I0J-250001D01*
G01*
X149450000Y-103399999D01*
G75*
G02*
X149199999Y-103650000I-250001J0D01*
G01*
X146400001Y-103650000D01*
G75*
G02*
X146150000Y-103399999I0J250001D01*
G01*
X146150000Y-101200001D01*
G75*
G02*
X146400001Y-100950000I250001J0D01*
G01*
G37*
%TD.AperFunction*%
D10*
%TO.P,J2,2*%
X147800000Y-106500000D03*
%TO.P,J2,3*%
%TO.N,GND*%
X147800000Y-110700000D03*
%TO.P,J2,4*%
%TO.N,+5V*%
X147800000Y-114900000D03*
%TO.P,J2,5*%
%TO.N,GND*%
X147800000Y-119100000D03*
%TO.P,J2,6*%
%TO.N,+5V*%
X147800000Y-123300000D03*
%TO.P,J2,7*%
%TO.N,GND*%
X147800000Y-127500000D03*
%TO.P,J2,8*%
%TO.N,ATX_POWEROK*%
X147800000Y-131700000D03*
%TO.P,J2,9*%
%TO.N,Net-(J2-Pad9)*%
X147800000Y-135900000D03*
%TO.P,J2,10*%
%TO.N,+12V*%
X147800000Y-140100000D03*
%TO.P,J2,11*%
X147800000Y-144300000D03*
%TO.P,J2,12*%
%TO.N,+3.3V*%
X147800000Y-148500000D03*
%TO.P,J2,13*%
X142300000Y-102300000D03*
%TO.P,J2,14*%
%TO.N,-12V*%
X142300000Y-106500000D03*
%TO.P,J2,15*%
%TO.N,GND*%
X142300000Y-110700000D03*
%TO.P,J2,16*%
%TO.N,Net-(J2-Pad16)*%
X142300000Y-114900000D03*
%TO.P,J2,17*%
%TO.N,GND*%
X142300000Y-119100000D03*
%TO.P,J2,18*%
X142300000Y-123300000D03*
%TO.P,J2,19*%
X142300000Y-127500000D03*
%TO.P,J2,20*%
%TO.N,Net-(J2-Pad20)*%
X142300000Y-131700000D03*
%TO.P,J2,21*%
%TO.N,+5V*%
X142300000Y-135900000D03*
%TO.P,J2,22*%
X142300000Y-140100000D03*
%TO.P,J2,23*%
X142300000Y-144300000D03*
%TO.P,J2,24*%
%TO.N,GND*%
X142300000Y-148500000D03*
%TD*%
D11*
%TO.P,J3,1*%
%TO.N,Net-(J3-Pad1)*%
X166000000Y-108000000D03*
D12*
%TO.P,J3,2*%
X163460000Y-108000000D03*
%TO.P,J3,3*%
X166000000Y-105460000D03*
%TO.P,J3,4*%
X163460000Y-105460000D03*
%TO.P,J3,5*%
%TO.N,VCCBRAM*%
X166000000Y-102920000D03*
%TO.P,J3,6*%
%TO.N,VCCFPGA_S1_1.2V*%
X163460000Y-102920000D03*
%TO.P,J3,7*%
%TO.N,VCCAUX*%
X166000000Y-100380000D03*
%TO.P,J3,8*%
%TO.N,+3.3V*%
X163460000Y-100380000D03*
%TD*%
%TO.P,J4,8*%
%TO.N,+3.3V*%
X179460000Y-100380000D03*
%TO.P,J4,7*%
%TO.N,VCCAUX*%
X182000000Y-100380000D03*
%TO.P,J4,6*%
%TO.N,VCCFPGA_S1_1.2V*%
X179460000Y-102920000D03*
%TO.P,J4,5*%
%TO.N,VCCBRAM*%
X182000000Y-102920000D03*
%TO.P,J4,4*%
%TO.N,Net-(J4-Pad1)*%
X179460000Y-105460000D03*
%TO.P,J4,3*%
X182000000Y-105460000D03*
%TO.P,J4,2*%
X179460000Y-108000000D03*
D11*
%TO.P,J4,1*%
X182000000Y-108000000D03*
%TD*%
D12*
%TO.P,J5,8*%
%TO.N,+3.3V*%
X155460000Y-100380000D03*
%TO.P,J5,7*%
%TO.N,VCCAUX*%
X158000000Y-100380000D03*
%TO.P,J5,6*%
%TO.N,VCCFPGA_S1_1.2V*%
X155460000Y-102920000D03*
%TO.P,J5,5*%
%TO.N,VCCBRAM*%
X158000000Y-102920000D03*
%TO.P,J5,4*%
%TO.N,Net-(J5-Pad1)*%
X155460000Y-105460000D03*
%TO.P,J5,3*%
X158000000Y-105460000D03*
%TO.P,J5,2*%
X155460000Y-108000000D03*
D11*
%TO.P,J5,1*%
X158000000Y-108000000D03*
%TD*%
%TO.P,J6,1*%
%TO.N,Net-(J6-Pad1)*%
X174000000Y-108000000D03*
D12*
%TO.P,J6,2*%
X171460000Y-108000000D03*
%TO.P,J6,3*%
X174000000Y-105460000D03*
%TO.P,J6,4*%
X171460000Y-105460000D03*
%TO.P,J6,5*%
%TO.N,VCCBRAM*%
X174000000Y-102920000D03*
%TO.P,J6,6*%
%TO.N,VCCFPGA_S1_1.2V*%
X171460000Y-102920000D03*
%TO.P,J6,7*%
%TO.N,VCCAUX*%
X174000000Y-100380000D03*
%TO.P,J6,8*%
%TO.N,+3.3V*%
X171460000Y-100380000D03*
%TD*%
D11*
%TO.P,J7,1*%
%TO.N,VCCFPGA_S1_VREF_V1*%
X166000000Y-114000000D03*
D12*
%TO.P,J7,2*%
%TO.N,Net-(J7-Pad2)*%
X163460000Y-114000000D03*
%TD*%
%TO.P,J8,2*%
%TO.N,Net-(J8-Pad2)*%
X179460000Y-114000000D03*
D11*
%TO.P,J8,1*%
%TO.N,VCCFPGA_S1_VREF_V2*%
X182000000Y-114000000D03*
%TD*%
D12*
%TO.P,J9,2*%
%TO.N,Net-(J9-Pad2)*%
X155460000Y-114000000D03*
D11*
%TO.P,J9,1*%
%TO.N,VCCFPGA_S1_VREF_V3*%
X158000000Y-114000000D03*
%TD*%
%TO.P,J10,1*%
%TO.N,VCCFPGA_S1_VREF_V4*%
X174000000Y-114000000D03*
D12*
%TO.P,J10,2*%
%TO.N,Net-(J10-Pad2)*%
X171460000Y-114000000D03*
%TD*%
D13*
%TO.P,J11,1*%
%TO.N,-12V*%
X156800000Y-170700000D03*
%TD*%
%TO.P,J12,1*%
%TO.N,+5V*%
X196250000Y-170700000D03*
%TD*%
%TO.P,J13,1*%
%TO.N,+12V*%
X209400000Y-170700000D03*
%TD*%
D12*
%TO.P,J14,5*%
%TO.N,-12V*%
X156900000Y-147540000D03*
%TO.P,J14,4*%
X156900000Y-150080000D03*
%TO.P,J14,3*%
X156900000Y-152620000D03*
%TO.P,J14,2*%
X156900000Y-155160000D03*
D11*
%TO.P,J14,1*%
X156900000Y-157700000D03*
%TD*%
D12*
%TO.P,J15,5*%
%TO.N,+5V*%
X196200000Y-147540000D03*
%TO.P,J15,4*%
X196200000Y-150080000D03*
%TO.P,J15,3*%
X196200000Y-152620000D03*
%TO.P,J15,2*%
X196200000Y-155160000D03*
D11*
%TO.P,J15,1*%
X196200000Y-157700000D03*
%TD*%
D12*
%TO.P,J16,5*%
%TO.N,+12V*%
X210600000Y-147540000D03*
%TO.P,J16,4*%
X210600000Y-150080000D03*
%TO.P,J16,3*%
X210600000Y-152620000D03*
%TO.P,J16,2*%
X210600000Y-155160000D03*
D11*
%TO.P,J16,1*%
X210600000Y-157700000D03*
%TD*%
%TO.P,J17,1*%
%TO.N,VCCFPGA_S1_1.2V*%
X196800000Y-111600000D03*
D12*
%TO.P,J17,2*%
X196800000Y-109060000D03*
%TO.P,J17,3*%
X196800000Y-106520000D03*
%TO.P,J17,4*%
X196800000Y-103980000D03*
%TO.P,J17,5*%
X196800000Y-101440000D03*
%TD*%
%TO.P,J18,5*%
%TO.N,VCCBRAM*%
X191000000Y-101440000D03*
%TO.P,J18,4*%
X191000000Y-103980000D03*
%TO.P,J18,3*%
X191000000Y-106520000D03*
%TO.P,J18,2*%
X191000000Y-109060000D03*
D11*
%TO.P,J18,1*%
X191000000Y-111600000D03*
%TD*%
D13*
%TO.P,J19,1*%
%TO.N,+3.3V*%
X183100000Y-170700000D03*
%TD*%
%TO.P,J20,1*%
%TO.N,GND*%
X169950000Y-170700000D03*
%TD*%
D11*
%TO.P,J21,1*%
%TO.N,+3.3V*%
X182700000Y-157700000D03*
D12*
%TO.P,J21,2*%
X182700000Y-155160000D03*
%TO.P,J21,3*%
X182700000Y-152620000D03*
%TO.P,J21,4*%
X182700000Y-150080000D03*
%TO.P,J21,5*%
X182700000Y-147540000D03*
%TD*%
%TO.P,J22,5*%
%TO.N,GND*%
X169900000Y-147540000D03*
%TO.P,J22,4*%
X169900000Y-150080000D03*
%TO.P,J22,3*%
X169900000Y-152620000D03*
%TO.P,J22,2*%
X169900000Y-155160000D03*
D11*
%TO.P,J22,1*%
X169900000Y-157700000D03*
%TD*%
%TO.P,J23,1*%
%TO.N,VCCAUX*%
X202600000Y-111600000D03*
D12*
%TO.P,J23,2*%
X202600000Y-109060000D03*
%TO.P,J23,3*%
X202600000Y-106520000D03*
%TO.P,J23,4*%
X202600000Y-103980000D03*
%TO.P,J23,5*%
X202600000Y-101440000D03*
%TD*%
D11*
%TO.P,J24,1*%
%TO.N,VCCDDR_1.35V*%
X208400000Y-111600000D03*
D12*
%TO.P,J24,2*%
X208400000Y-109060000D03*
%TO.P,J24,3*%
X208400000Y-106520000D03*
%TO.P,J24,4*%
X208400000Y-103980000D03*
%TO.P,J24,5*%
X208400000Y-101440000D03*
%TD*%
D11*
%TO.P,J26,1*%
%TO.N,VCCFPGA_S1_VREF_V1*%
X94905001Y-66965001D03*
D12*
%TO.P,J26,2*%
%TO.N,VCCFPGA_S1_VREF_V2*%
X94905001Y-69505001D03*
%TO.P,J26,3*%
%TO.N,VCCFPGA_S1_VREF_V3*%
X94905001Y-72045001D03*
%TO.P,J26,4*%
%TO.N,VCCFPGA_S1_VREF_V4*%
X94905001Y-74585001D03*
%TD*%
D11*
%TO.P,J30,1*%
%TO.N,Net-(J30-Pad1)*%
X243700000Y-38800000D03*
D12*
%TO.P,J30,2*%
X243700000Y-41340000D03*
%TO.P,J30,3*%
X243700000Y-43880000D03*
%TO.P,J30,4*%
X243700000Y-46420000D03*
%TO.P,J30,5*%
X243700000Y-48960000D03*
%TD*%
D11*
%TO.P,J31,1*%
%TO.N,Net-(J31-Pad1)*%
X226700000Y-26680000D03*
D12*
%TO.P,J31,2*%
%TO.N,Net-(J31-Pad2)*%
X229240000Y-26680000D03*
%TO.P,J31,3*%
%TO.N,Net-(J31-Pad3)*%
X226700000Y-29220000D03*
%TO.P,J31,4*%
%TO.N,Net-(J31-Pad4)*%
X229240000Y-29220000D03*
%TO.P,J31,5*%
%TO.N,Net-(J31-Pad5)*%
X226700000Y-31760000D03*
%TO.P,J31,6*%
%TO.N,Net-(J31-Pad6)*%
X229240000Y-31760000D03*
%TO.P,J31,7*%
%TO.N,Net-(J31-Pad7)*%
X226700000Y-34300000D03*
%TO.P,J31,8*%
%TO.N,Net-(J31-Pad8)*%
X229240000Y-34300000D03*
%TO.P,J31,9*%
%TO.N,Net-(J31-Pad9)*%
X226700000Y-36840000D03*
%TO.P,J31,10*%
%TO.N,Net-(J31-Pad10)*%
X229240000Y-36840000D03*
%TO.P,J31,11*%
%TO.N,Net-(J31-Pad11)*%
X226700000Y-39380000D03*
%TO.P,J31,12*%
%TO.N,Net-(J31-Pad12)*%
X229240000Y-39380000D03*
%TO.P,J31,13*%
%TO.N,Net-(J31-Pad13)*%
X226700000Y-41920000D03*
%TO.P,J31,14*%
%TO.N,Net-(J31-Pad14)*%
X229240000Y-41920000D03*
%TO.P,J31,15*%
%TO.N,Net-(J31-Pad15)*%
X226700000Y-44460000D03*
%TO.P,J31,16*%
%TO.N,Net-(J31-Pad16)*%
X229240000Y-44460000D03*
%TO.P,J31,17*%
%TO.N,Net-(J31-Pad17)*%
X226700000Y-47000000D03*
%TO.P,J31,18*%
%TO.N,Net-(J31-Pad18)*%
X229240000Y-47000000D03*
%TO.P,J31,19*%
%TO.N,Net-(J31-Pad19)*%
X226700000Y-49540000D03*
%TO.P,J31,20*%
%TO.N,Net-(J31-Pad20)*%
X229240000Y-49540000D03*
%TO.P,J31,21*%
%TO.N,Net-(J31-Pad21)*%
X226700000Y-52080000D03*
%TO.P,J31,22*%
%TO.N,Net-(J31-Pad22)*%
X229240000Y-52080000D03*
%TO.P,J31,23*%
%TO.N,Net-(J31-Pad23)*%
X226700000Y-54620000D03*
%TO.P,J31,24*%
%TO.N,Net-(J31-Pad24)*%
X229240000Y-54620000D03*
%TO.P,J31,25*%
%TO.N,Net-(J31-Pad25)*%
X226700000Y-57160000D03*
%TO.P,J31,26*%
%TO.N,Net-(J31-Pad26)*%
X229240000Y-57160000D03*
%TO.P,J31,27*%
%TO.N,Net-(J31-Pad27)*%
X226700000Y-59700000D03*
%TO.P,J31,28*%
%TO.N,Net-(J31-Pad28)*%
X229240000Y-59700000D03*
%TO.P,J31,29*%
%TO.N,Net-(J31-Pad29)*%
X226700000Y-62240000D03*
%TO.P,J31,30*%
%TO.N,Net-(J31-Pad30)*%
X229240000Y-62240000D03*
%TO.P,J31,31*%
%TO.N,Net-(J31-Pad31)*%
X226700000Y-64780000D03*
%TO.P,J31,32*%
%TO.N,Net-(J31-Pad32)*%
X229240000Y-64780000D03*
%TD*%
D11*
%TO.P,J32,1*%
%TO.N,Net-(D8-Pad1)*%
X233440000Y-136400000D03*
D12*
%TO.P,J32,2*%
%TO.N,Net-(D7-Pad1)*%
X235980000Y-136400000D03*
%TO.P,J32,3*%
%TO.N,Net-(D6-Pad1)*%
X238520000Y-136400000D03*
%TO.P,J32,4*%
%TO.N,Net-(D5-Pad1)*%
X241060000Y-136400000D03*
%TO.P,J32,5*%
%TO.N,VCCFPGA_S1_VCCO_CONFIG*%
X243600000Y-136400000D03*
%TO.P,J32,6*%
%TO.N,GND*%
X246140000Y-136400000D03*
%TD*%
D11*
%TO.P,J33,1*%
%TO.N,Net-(J33-Pad1)*%
X173000000Y-93000000D03*
D12*
%TO.P,J33,2*%
%TO.N,Net-(J33-Pad2)*%
X170460000Y-93000000D03*
%TO.P,J33,3*%
%TO.N,Net-(J33-Pad3)*%
X173000000Y-90460000D03*
%TO.P,J33,4*%
%TO.N,GND*%
X170460000Y-90460000D03*
%TO.P,J33,5*%
X173000000Y-87920000D03*
%TO.P,J33,6*%
X170460000Y-87920000D03*
%TD*%
D11*
%TO.P,J34,1*%
%TO.N,FLASH_CONFIG_IO_0*%
X217540000Y-116540000D03*
D12*
%TO.P,J34,2*%
%TO.N,FLASH_CONFIG_IO_1*%
X215000000Y-116540000D03*
%TO.P,J34,3*%
%TO.N,FLASH_CONFIG_IO_2*%
X217540000Y-114000000D03*
%TO.P,J34,4*%
%TO.N,FLASH_CONFIG_IO_3*%
X215000000Y-114000000D03*
%TO.P,J34,5*%
%TO.N,FLASH_CONFIG_CLK*%
X217540000Y-111460000D03*
%TO.P,J34,6*%
%TO.N,FLASH_CONFIG_CS*%
X215000000Y-111460000D03*
%TO.P,J34,7*%
%TO.N,GND*%
X217540000Y-108920000D03*
%TO.P,J34,8*%
%TO.N,Net-(J34-Pad8)*%
X215000000Y-108920000D03*
%TO.P,J34,9*%
%TO.N,Net-(J34-Pad9)*%
X217540000Y-106380000D03*
%TO.P,J34,10*%
%TO.N,Net-(J34-Pad10)*%
X215000000Y-106380000D03*
%TO.P,J34,11*%
%TO.N,Net-(J34-Pad11)*%
X217540000Y-103840000D03*
%TO.P,J34,12*%
%TO.N,Net-(J34-Pad12)*%
X215000000Y-103840000D03*
%TO.P,J34,13*%
%TO.N,Net-(J34-Pad13)*%
X217540000Y-101300000D03*
%TO.P,J34,14*%
%TO.N,Net-(J34-Pad14)*%
X215000000Y-101300000D03*
%TD*%
D14*
%TO.N,GND*%
%TO.C,U10*%
X232650000Y-105000000D03*
X231350000Y-105000000D03*
X232650000Y-104000000D03*
X231350000Y-104000000D03*
X232650000Y-103000000D03*
X231350000Y-103000000D03*
D15*
X232000000Y-104000000D03*
%TD*%
D16*
%TO.N,GND*%
X199930000Y-60680000D03*
D17*
X234200000Y-145000000D03*
X220700000Y-35854990D03*
X220500000Y-56354990D03*
X234000000Y-34945010D03*
X235400000Y-55300000D03*
X224000000Y-137200000D03*
X237300000Y-145100000D03*
D16*
%TO.N,Net-(C1-Pad1)*%
X238700000Y-151100000D03*
X238700000Y-149600000D03*
%TO.N,Net-(C4-Pad1)*%
X232800000Y-151850000D03*
X232790000Y-149490000D03*
%TO.N,Net-(C7-Pad1)*%
X231500000Y-152500000D03*
X225304566Y-141695434D03*
%TO.N,Net-(C8-Pad1)*%
X231200000Y-152000000D03*
X222900000Y-141900000D03*
%TO.N,Net-(C9-Pad1)*%
X231000000Y-154100000D03*
X223100000Y-155300000D03*
D17*
%TO.N,+3.3V*%
X229100000Y-144900000D03*
X226420000Y-156548245D03*
X221000000Y-150500000D03*
D16*
%TO.N,VCCDDR_1.35V_VREF*%
X229490000Y-89659984D03*
%TO.N,VCCFPGA_S1_VCCO_CONFIG*%
X215500000Y-55800000D03*
D17*
%TO.N,Net-(D1-Pad1)*%
X234900000Y-157000000D03*
X224551989Y-155369998D03*
%TO.N,Net-(D2-Pad1)*%
X235300000Y-160000000D03*
X225500000Y-155800000D03*
D16*
%TO.N,/fpga-io/b35_15_P*%
X179330000Y-72240000D03*
%TO.N,/fpga-io/b35_15_N*%
X178790012Y-72244900D03*
%TO.N,/fpga-io/b35_7_N*%
X176740000Y-72237838D03*
%TO.N,/fpga-io/b35_7_P*%
X177280000Y-72237838D03*
%TO.N,Net-(J30-Pad1)*%
X236700000Y-55800000D03*
X221600000Y-35800000D03*
X236399996Y-35799996D03*
%TO.N,Net-(R5-Pad1)*%
X237300000Y-149500000D03*
X237300000Y-151000000D03*
%TD*%
D18*
%TO.N,Net-(C1-Pad1)*%
X238700000Y-150367198D02*
X238700000Y-149600000D01*
X238700000Y-151100000D02*
X238700000Y-150367198D01*
%TO.N,Net-(C4-Pad1)*%
X232800000Y-149500000D02*
X232790000Y-149490000D01*
X232800000Y-151850000D02*
X232800000Y-149500000D01*
%TO.N,Net-(C7-Pad1)*%
X232300000Y-150800000D02*
X225304566Y-143804566D01*
X232300000Y-151700000D02*
X232300000Y-150800000D01*
X231500000Y-152500000D02*
X232300000Y-151700000D01*
X225304566Y-143804566D02*
X225304566Y-141695434D01*
%TO.N,Net-(C8-Pad1)*%
X222900000Y-142000000D02*
X222900000Y-141900000D01*
X231900000Y-151000000D02*
X222900000Y-142000000D01*
X231900000Y-151300000D02*
X231900000Y-151000000D01*
X231200000Y-152000000D02*
X231900000Y-151300000D01*
%TO.N,Net-(C9-Pad1)*%
X224300000Y-154100000D02*
X223100000Y-155300000D01*
X231000000Y-154100000D02*
X224300000Y-154100000D01*
D19*
%TO.N,Net-(D1-Pad1)*%
X224951988Y-154969999D02*
X224551989Y-155369998D01*
X232869999Y-154969999D02*
X224951988Y-154969999D01*
X234900000Y-157000000D02*
X232869999Y-154969999D01*
%TO.N,Net-(D2-Pad1)*%
X232600000Y-155800000D02*
X225500000Y-155800000D01*
X235300000Y-158500000D02*
X232600000Y-155800000D01*
X235300000Y-160000000D02*
X235300000Y-158500000D01*
D18*
%TO.N,Net-(J30-Pad1)*%
X236700000Y-55800000D02*
X243540000Y-48960000D01*
X236399992Y-35800000D02*
X236399996Y-35799996D01*
X221600000Y-35800000D02*
X236300000Y-35800000D01*
X239400000Y-38800000D02*
X236399996Y-35799996D01*
X243700000Y-38800000D02*
X239400000Y-38800000D01*
X236300000Y-35800000D02*
X236399992Y-35800000D01*
%TO.N,Net-(R5-Pad1)*%
X237300000Y-149500000D02*
X237300000Y-151000000D01*
%TD*%
M02*
