%TF.GenerationSoftware,KiCad,Pcbnew,(5.1.6-dirty)*%
%TF.CreationDate,2020-08-28T22:36:31+02:00*%
%TF.ProjectId,FD,46442e6b-6963-4616-945f-706362585858,rev?*%
%TF.SameCoordinates,Original*%
%TF.FileFunction,Paste,Top*%
%TF.FilePolarity,Positive*%
%FSLAX46Y46*%
G04 Gerber Fmt 4.6, Leading zero omitted, Abs format (unit mm)*
G04 Created by KiCad (PCBNEW (5.1.6-dirty)) date 2020-08-28 22:36:31*
%MOMM*%
%LPD*%
G01*
G04 APERTURE LIST*
%ADD10C,0.100000*%
%ADD11C,0.500000*%
%ADD12C,0.399500*%
%ADD13R,1.380000X0.450000*%
%ADD14R,1.550000X1.425000*%
%ADD15R,1.300000X1.650000*%
%ADD16R,1.900000X1.800000*%
%ADD17R,1.900000X1.000000*%
%ADD18R,0.800000X0.900000*%
%ADD19R,1.200000X2.750000*%
%ADD20R,0.300000X1.550000*%
%ADD21R,1.550000X0.300000*%
%ADD22R,2.750000X1.200000*%
%ADD23R,0.900000X0.800000*%
%ADD24R,0.200000X0.200000*%
%ADD25R,1.250000X2.500000*%
%ADD26R,1.260000X0.840000*%
%ADD27R,3.660000X3.660000*%
%ADD28R,0.162000X0.510000*%
%ADD29R,0.510000X0.162000*%
%ADD30R,1.060000X0.650000*%
%ADD31R,1.200000X2.500000*%
%ADD32R,0.780000X0.220000*%
%ADD33R,0.880000X0.220000*%
%ADD34R,1.300000X1.100000*%
%ADD35R,4.500000X2.000000*%
G04 APERTURE END LIST*
D10*
%TO.C,U2*%
G36*
X228237510Y-152170000D02*
G01*
X224370000Y-152170000D01*
X224370000Y-148302490D01*
X228237510Y-148302490D01*
X228237510Y-152170000D01*
G37*
%TD*%
D11*
%TO.C,U11*%
X168510000Y-71520000D03*
X168510000Y-70520000D03*
X168510000Y-69520000D03*
X168510000Y-68520000D03*
X168510000Y-67520000D03*
X168510000Y-66520000D03*
X168510000Y-65520000D03*
X168510000Y-64520000D03*
X168510000Y-63520000D03*
X168510000Y-62520000D03*
X168510000Y-61520000D03*
X168510000Y-60520000D03*
X168510000Y-59520000D03*
X168510000Y-58520000D03*
X168510000Y-57520000D03*
X168510000Y-56520000D03*
X168510000Y-55520000D03*
X168510000Y-54520000D03*
X168510000Y-53520000D03*
X168510000Y-52520000D03*
X168510000Y-51520000D03*
X168510000Y-50520000D03*
X169510000Y-71520000D03*
X169510000Y-70520000D03*
X169510000Y-69520000D03*
X169510000Y-68520000D03*
X169510000Y-67520000D03*
X169510000Y-66520000D03*
X169510000Y-65520000D03*
X169510000Y-64520000D03*
X169510000Y-63520000D03*
X169510000Y-62520000D03*
X169510000Y-61520000D03*
X169510000Y-60520000D03*
X169510000Y-59520000D03*
X169510000Y-58520000D03*
X169510000Y-57520000D03*
X169510000Y-56520000D03*
X169510000Y-55520000D03*
X169510000Y-54520000D03*
X169510000Y-53520000D03*
X169510000Y-52520000D03*
X169510000Y-51520000D03*
X169510000Y-50520000D03*
X170510000Y-71520000D03*
X170510000Y-70520000D03*
X170510000Y-69520000D03*
X170510000Y-68520000D03*
X170510000Y-67520000D03*
X170510000Y-66520000D03*
X170510000Y-65520000D03*
X170510000Y-64520000D03*
X170510000Y-63520000D03*
X170510000Y-62520000D03*
X170510000Y-61520000D03*
X170510000Y-60520000D03*
X170510000Y-59520000D03*
X170510000Y-58520000D03*
X170510000Y-57520000D03*
X170510000Y-56520000D03*
X170510000Y-55520000D03*
X170510000Y-54520000D03*
X170510000Y-53520000D03*
X170510000Y-52520000D03*
X170510000Y-51520000D03*
X170510000Y-50520000D03*
X171510000Y-71520000D03*
X171510000Y-70520000D03*
X171510000Y-69520000D03*
X171510000Y-68520000D03*
X171510000Y-67520000D03*
X171510000Y-66520000D03*
X171510000Y-65520000D03*
X171510000Y-64520000D03*
X171510000Y-63520000D03*
X171510000Y-62520000D03*
X171510000Y-61520000D03*
X171510000Y-60520000D03*
X171510000Y-59520000D03*
X171510000Y-58520000D03*
X171510000Y-57520000D03*
X171510000Y-56520000D03*
X171510000Y-55520000D03*
X171510000Y-54520000D03*
X171510000Y-53520000D03*
X171510000Y-52520000D03*
X171510000Y-51520000D03*
X171510000Y-50520000D03*
X172510000Y-71520000D03*
X172510000Y-70520000D03*
X172510000Y-69520000D03*
X172510000Y-68520000D03*
X172510000Y-67520000D03*
X172510000Y-66520000D03*
X172510000Y-65520000D03*
X172510000Y-64520000D03*
X172510000Y-63520000D03*
X172510000Y-62520000D03*
X172510000Y-61520000D03*
X172510000Y-60520000D03*
X172510000Y-59520000D03*
X172510000Y-58520000D03*
X172510000Y-57520000D03*
X172510000Y-56520000D03*
X172510000Y-55520000D03*
X172510000Y-54520000D03*
X172510000Y-53520000D03*
X172510000Y-52520000D03*
X172510000Y-51520000D03*
X172510000Y-50520000D03*
X173510000Y-71520000D03*
X173510000Y-70520000D03*
X173510000Y-69520000D03*
X173510000Y-68520000D03*
X173510000Y-67520000D03*
X173510000Y-66520000D03*
X173510000Y-65520000D03*
X173510000Y-64520000D03*
X173510000Y-63520000D03*
X173510000Y-62520000D03*
X173510000Y-61520000D03*
X173510000Y-60520000D03*
X173510000Y-59520000D03*
X173510000Y-58520000D03*
X173510000Y-57520000D03*
X173510000Y-56520000D03*
X173510000Y-55520000D03*
X173510000Y-54520000D03*
X173510000Y-53520000D03*
X173510000Y-52520000D03*
X173510000Y-51520000D03*
X173510000Y-50520000D03*
X174510000Y-71520000D03*
X174510000Y-70520000D03*
X174510000Y-69520000D03*
X174510000Y-68520000D03*
X174510000Y-67520000D03*
X174510000Y-66520000D03*
X174510000Y-65520000D03*
X174510000Y-64520000D03*
X174510000Y-63520000D03*
X174510000Y-62520000D03*
X174510000Y-61520000D03*
X174510000Y-60520000D03*
X174510000Y-59520000D03*
X174510000Y-58520000D03*
X174510000Y-57520000D03*
X174510000Y-56520000D03*
X174510000Y-55520000D03*
X174510000Y-54520000D03*
X174510000Y-53520000D03*
X174510000Y-52520000D03*
X174510000Y-51520000D03*
X174510000Y-50520000D03*
X175510000Y-71520000D03*
X175510000Y-70520000D03*
X175510000Y-69520000D03*
X175510000Y-68520000D03*
X175510000Y-67520000D03*
X175510000Y-66520000D03*
X175510000Y-65520000D03*
X175510000Y-64520000D03*
X175510000Y-63520000D03*
X175510000Y-62520000D03*
X175510000Y-61520000D03*
X175510000Y-60520000D03*
X175510000Y-59520000D03*
X175510000Y-58520000D03*
X175510000Y-57520000D03*
X175510000Y-56520000D03*
X175510000Y-55520000D03*
X175510000Y-54520000D03*
X175510000Y-53520000D03*
X175510000Y-52520000D03*
X175510000Y-51520000D03*
X175510000Y-50520000D03*
X176510000Y-71520000D03*
X176510000Y-70520000D03*
X176510000Y-69520000D03*
X176510000Y-68520000D03*
X176510000Y-67520000D03*
X176510000Y-66520000D03*
X176510000Y-65520000D03*
X176510000Y-64520000D03*
X176510000Y-63520000D03*
X176510000Y-62520000D03*
X176510000Y-61520000D03*
X176510000Y-60520000D03*
X176510000Y-59520000D03*
X176510000Y-58520000D03*
X176510000Y-57520000D03*
X176510000Y-56520000D03*
X176510000Y-55520000D03*
X176510000Y-54520000D03*
X176510000Y-53520000D03*
X176510000Y-52520000D03*
X176510000Y-51520000D03*
X176510000Y-50520000D03*
X177510000Y-71520000D03*
X177510000Y-70520000D03*
X177510000Y-69520000D03*
X177510000Y-68520000D03*
X177510000Y-67520000D03*
X177510000Y-66520000D03*
X177510000Y-65520000D03*
X177510000Y-64520000D03*
X177510000Y-63520000D03*
X177510000Y-62520000D03*
X177510000Y-61520000D03*
X177510000Y-60520000D03*
X177510000Y-59520000D03*
X177510000Y-58520000D03*
X177510000Y-57520000D03*
X177510000Y-56520000D03*
X177510000Y-55520000D03*
X177510000Y-54520000D03*
X177510000Y-53520000D03*
X177510000Y-52520000D03*
X177510000Y-51520000D03*
X177510000Y-50520000D03*
X178510000Y-71520000D03*
X178510000Y-70520000D03*
X178510000Y-69520000D03*
X178510000Y-68520000D03*
X178510000Y-67520000D03*
X178510000Y-66520000D03*
X178510000Y-65520000D03*
X178510000Y-64520000D03*
X178510000Y-63520000D03*
X178510000Y-62520000D03*
X178510000Y-61520000D03*
X178510000Y-60520000D03*
X178510000Y-59520000D03*
X178510000Y-58520000D03*
X178510000Y-57520000D03*
X178510000Y-56520000D03*
X178510000Y-55520000D03*
X178510000Y-54520000D03*
X178510000Y-53520000D03*
X178510000Y-52520000D03*
X178510000Y-51520000D03*
X178510000Y-50520000D03*
X179510000Y-71520000D03*
X179510000Y-70520000D03*
X179510000Y-69520000D03*
X179510000Y-68520000D03*
X179510000Y-67520000D03*
X179510000Y-66520000D03*
X179510000Y-65520000D03*
X179510000Y-64520000D03*
X179510000Y-63520000D03*
X179510000Y-62520000D03*
X179510000Y-61520000D03*
X179510000Y-60520000D03*
X179510000Y-59520000D03*
X179510000Y-58520000D03*
X179510000Y-57520000D03*
X179510000Y-56520000D03*
X179510000Y-55520000D03*
X179510000Y-54520000D03*
X179510000Y-53520000D03*
X179510000Y-52520000D03*
X179510000Y-51520000D03*
X179510000Y-50520000D03*
X180510000Y-71520000D03*
X180510000Y-70520000D03*
X180510000Y-69520000D03*
X180510000Y-68520000D03*
X180510000Y-67520000D03*
X180510000Y-66520000D03*
X180510000Y-65520000D03*
X180510000Y-64520000D03*
X180510000Y-63520000D03*
X180510000Y-62520000D03*
X180510000Y-61520000D03*
X180510000Y-60520000D03*
X180510000Y-59520000D03*
X180510000Y-58520000D03*
X180510000Y-57520000D03*
X180510000Y-56520000D03*
X180510000Y-55520000D03*
X180510000Y-54520000D03*
X180510000Y-53520000D03*
X180510000Y-52520000D03*
X180510000Y-51520000D03*
X180510000Y-50520000D03*
X181510000Y-71520000D03*
X181510000Y-70520000D03*
X181510000Y-69520000D03*
X181510000Y-68520000D03*
X181510000Y-67520000D03*
X181510000Y-66520000D03*
X181510000Y-65520000D03*
X181510000Y-64520000D03*
X181510000Y-63520000D03*
X181510000Y-62520000D03*
X181510000Y-61520000D03*
X181510000Y-60520000D03*
X181510000Y-59520000D03*
X181510000Y-58520000D03*
X181510000Y-57520000D03*
X181510000Y-56520000D03*
X181510000Y-55520000D03*
X181510000Y-54520000D03*
X181510000Y-53520000D03*
X181510000Y-52520000D03*
X181510000Y-51520000D03*
X181510000Y-50520000D03*
X182510000Y-71520000D03*
X182510000Y-70520000D03*
X182510000Y-69520000D03*
X182510000Y-68520000D03*
X182510000Y-67520000D03*
X182510000Y-66520000D03*
X182510000Y-65520000D03*
X182510000Y-64520000D03*
X182510000Y-63520000D03*
X182510000Y-62520000D03*
X182510000Y-61520000D03*
X182510000Y-60520000D03*
X182510000Y-59520000D03*
X182510000Y-58520000D03*
X182510000Y-57520000D03*
X182510000Y-56520000D03*
X182510000Y-55520000D03*
X182510000Y-54520000D03*
X182510000Y-53520000D03*
X182510000Y-52520000D03*
X182510000Y-51520000D03*
X182510000Y-50520000D03*
X183510000Y-71520000D03*
X183510000Y-70520000D03*
X183510000Y-69520000D03*
X183510000Y-68520000D03*
X183510000Y-67520000D03*
X183510000Y-66520000D03*
X183510000Y-65520000D03*
X183510000Y-64520000D03*
X183510000Y-63520000D03*
X183510000Y-62520000D03*
X183510000Y-61520000D03*
X183510000Y-60520000D03*
X183510000Y-59520000D03*
X183510000Y-58520000D03*
X183510000Y-57520000D03*
X183510000Y-56520000D03*
X183510000Y-55520000D03*
X183510000Y-54520000D03*
X183510000Y-53520000D03*
X183510000Y-52520000D03*
X183510000Y-51520000D03*
X183510000Y-50520000D03*
X184510000Y-71520000D03*
X184510000Y-70520000D03*
X184510000Y-69520000D03*
X184510000Y-68520000D03*
X184510000Y-67520000D03*
X184510000Y-66520000D03*
X184510000Y-65520000D03*
X184510000Y-64520000D03*
X184510000Y-63520000D03*
X184510000Y-62520000D03*
X184510000Y-61520000D03*
X184510000Y-60520000D03*
X184510000Y-59520000D03*
X184510000Y-58520000D03*
X184510000Y-57520000D03*
X184510000Y-56520000D03*
X184510000Y-55520000D03*
X184510000Y-54520000D03*
X184510000Y-53520000D03*
X184510000Y-52520000D03*
X184510000Y-51520000D03*
X184510000Y-50520000D03*
X185510000Y-71520000D03*
X185510000Y-70520000D03*
X185510000Y-69520000D03*
X185510000Y-68520000D03*
X185510000Y-67520000D03*
X185510000Y-66520000D03*
X185510000Y-65520000D03*
X185510000Y-64520000D03*
X185510000Y-63520000D03*
X185510000Y-62520000D03*
X185510000Y-61520000D03*
X185510000Y-60520000D03*
X185510000Y-59520000D03*
X185510000Y-58520000D03*
X185510000Y-57520000D03*
X185510000Y-56520000D03*
X185510000Y-55520000D03*
X185510000Y-54520000D03*
X185510000Y-53520000D03*
X185510000Y-52520000D03*
X185510000Y-51520000D03*
X185510000Y-50520000D03*
X186510000Y-71520000D03*
X186510000Y-70520000D03*
X186510000Y-69520000D03*
X186510000Y-68520000D03*
X186510000Y-67520000D03*
X186510000Y-66520000D03*
X186510000Y-65520000D03*
X186510000Y-64520000D03*
X186510000Y-63520000D03*
X186510000Y-62520000D03*
X186510000Y-61520000D03*
X186510000Y-60520000D03*
X186510000Y-59520000D03*
X186510000Y-58520000D03*
X186510000Y-57520000D03*
X186510000Y-56520000D03*
X186510000Y-55520000D03*
X186510000Y-54520000D03*
X186510000Y-53520000D03*
X186510000Y-52520000D03*
X186510000Y-51520000D03*
X186510000Y-50520000D03*
X187510000Y-71520000D03*
X187510000Y-70520000D03*
X187510000Y-69520000D03*
X187510000Y-68520000D03*
X187510000Y-67520000D03*
X187510000Y-66520000D03*
X187510000Y-65520000D03*
X187510000Y-64520000D03*
X187510000Y-63520000D03*
X187510000Y-62520000D03*
X187510000Y-61520000D03*
X187510000Y-60520000D03*
X187510000Y-59520000D03*
X187510000Y-58520000D03*
X187510000Y-57520000D03*
X187510000Y-56520000D03*
X187510000Y-55520000D03*
X187510000Y-54520000D03*
X187510000Y-53520000D03*
X187510000Y-52520000D03*
X187510000Y-51520000D03*
X187510000Y-50520000D03*
X188510000Y-71520000D03*
X188510000Y-70520000D03*
X188510000Y-69520000D03*
X188510000Y-68520000D03*
X188510000Y-67520000D03*
X188510000Y-66520000D03*
X188510000Y-65520000D03*
X188510000Y-64520000D03*
X188510000Y-63520000D03*
X188510000Y-62520000D03*
X188510000Y-61520000D03*
X188510000Y-60520000D03*
X188510000Y-59520000D03*
X188510000Y-58520000D03*
X188510000Y-57520000D03*
X188510000Y-56520000D03*
X188510000Y-55520000D03*
X188510000Y-54520000D03*
X188510000Y-53520000D03*
X188510000Y-52520000D03*
X188510000Y-51520000D03*
X188510000Y-50520000D03*
X189510000Y-71520000D03*
X189510000Y-70520000D03*
X189510000Y-69520000D03*
X189510000Y-68520000D03*
X189510000Y-67520000D03*
X189510000Y-66520000D03*
X189510000Y-65520000D03*
X189510000Y-64520000D03*
X189510000Y-63520000D03*
X189510000Y-62520000D03*
X189510000Y-61520000D03*
X189510000Y-60520000D03*
X189510000Y-59520000D03*
X189510000Y-58520000D03*
X189510000Y-57520000D03*
X189510000Y-56520000D03*
X189510000Y-55520000D03*
X189510000Y-54520000D03*
X189510000Y-53520000D03*
X189510000Y-52520000D03*
X189510000Y-51520000D03*
X189510000Y-50520000D03*
%TD*%
D12*
%TO.C,U17*%
X205030000Y-62010000D03*
X205830000Y-62010000D03*
X206630000Y-62010000D03*
X209830000Y-62010000D03*
X210630000Y-62010000D03*
X211430000Y-62010000D03*
X205030000Y-62810000D03*
X205830000Y-62810000D03*
X206630000Y-62810000D03*
X209830000Y-62810000D03*
X210630000Y-62810000D03*
X211430000Y-62810000D03*
X205030000Y-63610000D03*
X205830000Y-63610000D03*
X206630000Y-63610000D03*
X209830000Y-63610000D03*
X210630000Y-63610000D03*
X211430000Y-63610000D03*
X205030000Y-64410000D03*
X205830000Y-64410000D03*
X206630000Y-64410000D03*
X209830000Y-64410000D03*
X210630000Y-64410000D03*
X211430000Y-64410000D03*
X205030000Y-65210000D03*
X205830000Y-65210000D03*
X206630000Y-65210000D03*
X209830000Y-65210000D03*
X210630000Y-65210000D03*
X211430000Y-65210000D03*
X205030000Y-66010000D03*
X205830000Y-66010000D03*
X206630000Y-66010000D03*
X209830000Y-66010000D03*
X210630000Y-66010000D03*
X211430000Y-66010000D03*
X205030000Y-66810000D03*
X205830000Y-66810000D03*
X206630000Y-66810000D03*
X209830000Y-66810000D03*
X210630000Y-66810000D03*
X211430000Y-66810000D03*
X205030000Y-67610000D03*
X205830000Y-67610000D03*
X206630000Y-67610000D03*
X209830000Y-67610000D03*
X210630000Y-67610000D03*
X211430000Y-67610000D03*
X205030000Y-68410000D03*
X205830000Y-68410000D03*
X206630000Y-68410000D03*
X209830000Y-68410000D03*
X210630000Y-68410000D03*
X211430000Y-68410000D03*
X205030000Y-69210000D03*
X205830000Y-69210000D03*
X206630000Y-69210000D03*
X209830000Y-69210000D03*
X210630000Y-69210000D03*
X211430000Y-69210000D03*
X205030000Y-70010000D03*
X205830000Y-70010000D03*
X206630000Y-70010000D03*
X209830000Y-70010000D03*
X210630000Y-70010000D03*
X211430000Y-70010000D03*
X205030000Y-70810000D03*
X205830000Y-70810000D03*
X206630000Y-70810000D03*
X209830000Y-70810000D03*
X210630000Y-70810000D03*
X211430000Y-70810000D03*
X205030000Y-71610000D03*
X205830000Y-71610000D03*
X206630000Y-71610000D03*
X209830000Y-71610000D03*
X210630000Y-71610000D03*
X211430000Y-71610000D03*
%TD*%
D13*
%TO.C,J1*%
X243340000Y-151350000D03*
X243340000Y-150700000D03*
X243340000Y-150050000D03*
X243340000Y-149400000D03*
X243340000Y-148750000D03*
D14*
X243425000Y-152537500D03*
X243425000Y-147562500D03*
D15*
X246000000Y-153425000D03*
X246000000Y-146675000D03*
D16*
X246000000Y-151200000D03*
D17*
X246000000Y-148500000D03*
%TD*%
%TO.C,C1*%
G36*
G01*
X240043750Y-154050000D02*
X240556250Y-154050000D01*
G75*
G02*
X240775000Y-154268750I0J-218750D01*
G01*
X240775000Y-154706250D01*
G75*
G02*
X240556250Y-154925000I-218750J0D01*
G01*
X240043750Y-154925000D01*
G75*
G02*
X239825000Y-154706250I0J218750D01*
G01*
X239825000Y-154268750D01*
G75*
G02*
X240043750Y-154050000I218750J0D01*
G01*
G37*
G36*
G01*
X240043750Y-152475000D02*
X240556250Y-152475000D01*
G75*
G02*
X240775000Y-152693750I0J-218750D01*
G01*
X240775000Y-153131250D01*
G75*
G02*
X240556250Y-153350000I-218750J0D01*
G01*
X240043750Y-153350000D01*
G75*
G02*
X239825000Y-153131250I0J218750D01*
G01*
X239825000Y-152693750D01*
G75*
G02*
X240043750Y-152475000I218750J0D01*
G01*
G37*
%TD*%
%TO.C,C2*%
G36*
G01*
X238543750Y-152475000D02*
X239056250Y-152475000D01*
G75*
G02*
X239275000Y-152693750I0J-218750D01*
G01*
X239275000Y-153131250D01*
G75*
G02*
X239056250Y-153350000I-218750J0D01*
G01*
X238543750Y-153350000D01*
G75*
G02*
X238325000Y-153131250I0J218750D01*
G01*
X238325000Y-152693750D01*
G75*
G02*
X238543750Y-152475000I218750J0D01*
G01*
G37*
G36*
G01*
X238543750Y-154050000D02*
X239056250Y-154050000D01*
G75*
G02*
X239275000Y-154268750I0J-218750D01*
G01*
X239275000Y-154706250D01*
G75*
G02*
X239056250Y-154925000I-218750J0D01*
G01*
X238543750Y-154925000D01*
G75*
G02*
X238325000Y-154706250I0J218750D01*
G01*
X238325000Y-154268750D01*
G75*
G02*
X238543750Y-154050000I218750J0D01*
G01*
G37*
%TD*%
%TO.C,C3*%
G36*
G01*
X237043750Y-154050000D02*
X237556250Y-154050000D01*
G75*
G02*
X237775000Y-154268750I0J-218750D01*
G01*
X237775000Y-154706250D01*
G75*
G02*
X237556250Y-154925000I-218750J0D01*
G01*
X237043750Y-154925000D01*
G75*
G02*
X236825000Y-154706250I0J218750D01*
G01*
X236825000Y-154268750D01*
G75*
G02*
X237043750Y-154050000I218750J0D01*
G01*
G37*
G36*
G01*
X237043750Y-152475000D02*
X237556250Y-152475000D01*
G75*
G02*
X237775000Y-152693750I0J-218750D01*
G01*
X237775000Y-153131250D01*
G75*
G02*
X237556250Y-153350000I-218750J0D01*
G01*
X237043750Y-153350000D01*
G75*
G02*
X236825000Y-153131250I0J218750D01*
G01*
X236825000Y-152693750D01*
G75*
G02*
X237043750Y-152475000I218750J0D01*
G01*
G37*
%TD*%
%TO.C,C4*%
G36*
G01*
X234556250Y-148425000D02*
X234043750Y-148425000D01*
G75*
G02*
X233825000Y-148206250I0J218750D01*
G01*
X233825000Y-147768750D01*
G75*
G02*
X234043750Y-147550000I218750J0D01*
G01*
X234556250Y-147550000D01*
G75*
G02*
X234775000Y-147768750I0J-218750D01*
G01*
X234775000Y-148206250D01*
G75*
G02*
X234556250Y-148425000I-218750J0D01*
G01*
G37*
G36*
G01*
X234556250Y-146850000D02*
X234043750Y-146850000D01*
G75*
G02*
X233825000Y-146631250I0J218750D01*
G01*
X233825000Y-146193750D01*
G75*
G02*
X234043750Y-145975000I218750J0D01*
G01*
X234556250Y-145975000D01*
G75*
G02*
X234775000Y-146193750I0J-218750D01*
G01*
X234775000Y-146631250D01*
G75*
G02*
X234556250Y-146850000I-218750J0D01*
G01*
G37*
%TD*%
%TO.C,C5*%
G36*
G01*
X234043750Y-154050000D02*
X234556250Y-154050000D01*
G75*
G02*
X234775000Y-154268750I0J-218750D01*
G01*
X234775000Y-154706250D01*
G75*
G02*
X234556250Y-154925000I-218750J0D01*
G01*
X234043750Y-154925000D01*
G75*
G02*
X233825000Y-154706250I0J218750D01*
G01*
X233825000Y-154268750D01*
G75*
G02*
X234043750Y-154050000I218750J0D01*
G01*
G37*
G36*
G01*
X234043750Y-152475000D02*
X234556250Y-152475000D01*
G75*
G02*
X234775000Y-152693750I0J-218750D01*
G01*
X234775000Y-153131250D01*
G75*
G02*
X234556250Y-153350000I-218750J0D01*
G01*
X234043750Y-153350000D01*
G75*
G02*
X233825000Y-153131250I0J218750D01*
G01*
X233825000Y-152693750D01*
G75*
G02*
X234043750Y-152475000I218750J0D01*
G01*
G37*
%TD*%
%TO.C,C6*%
G36*
G01*
X232543750Y-152475000D02*
X233056250Y-152475000D01*
G75*
G02*
X233275000Y-152693750I0J-218750D01*
G01*
X233275000Y-153131250D01*
G75*
G02*
X233056250Y-153350000I-218750J0D01*
G01*
X232543750Y-153350000D01*
G75*
G02*
X232325000Y-153131250I0J218750D01*
G01*
X232325000Y-152693750D01*
G75*
G02*
X232543750Y-152475000I218750J0D01*
G01*
G37*
G36*
G01*
X232543750Y-154050000D02*
X233056250Y-154050000D01*
G75*
G02*
X233275000Y-154268750I0J-218750D01*
G01*
X233275000Y-154706250D01*
G75*
G02*
X233056250Y-154925000I-218750J0D01*
G01*
X232543750Y-154925000D01*
G75*
G02*
X232325000Y-154706250I0J218750D01*
G01*
X232325000Y-154268750D01*
G75*
G02*
X232543750Y-154050000I218750J0D01*
G01*
G37*
%TD*%
%TO.C,C7*%
G36*
G01*
X226950000Y-136943750D02*
X226950000Y-137456250D01*
G75*
G02*
X226731250Y-137675000I-218750J0D01*
G01*
X226293750Y-137675000D01*
G75*
G02*
X226075000Y-137456250I0J218750D01*
G01*
X226075000Y-136943750D01*
G75*
G02*
X226293750Y-136725000I218750J0D01*
G01*
X226731250Y-136725000D01*
G75*
G02*
X226950000Y-136943750I0J-218750D01*
G01*
G37*
G36*
G01*
X228525000Y-136943750D02*
X228525000Y-137456250D01*
G75*
G02*
X228306250Y-137675000I-218750J0D01*
G01*
X227868750Y-137675000D01*
G75*
G02*
X227650000Y-137456250I0J218750D01*
G01*
X227650000Y-136943750D01*
G75*
G02*
X227868750Y-136725000I218750J0D01*
G01*
X228306250Y-136725000D01*
G75*
G02*
X228525000Y-136943750I0J-218750D01*
G01*
G37*
%TD*%
%TO.C,C8*%
G36*
G01*
X219787500Y-137456250D02*
X219787500Y-136943750D01*
G75*
G02*
X220006250Y-136725000I218750J0D01*
G01*
X220443750Y-136725000D01*
G75*
G02*
X220662500Y-136943750I0J-218750D01*
G01*
X220662500Y-137456250D01*
G75*
G02*
X220443750Y-137675000I-218750J0D01*
G01*
X220006250Y-137675000D01*
G75*
G02*
X219787500Y-137456250I0J218750D01*
G01*
G37*
G36*
G01*
X221362500Y-137456250D02*
X221362500Y-136943750D01*
G75*
G02*
X221581250Y-136725000I218750J0D01*
G01*
X222018750Y-136725000D01*
G75*
G02*
X222237500Y-136943750I0J-218750D01*
G01*
X222237500Y-137456250D01*
G75*
G02*
X222018750Y-137675000I-218750J0D01*
G01*
X221581250Y-137675000D01*
G75*
G02*
X221362500Y-137456250I0J218750D01*
G01*
G37*
%TD*%
%TO.C,C9*%
G36*
G01*
X235543750Y-154050000D02*
X236056250Y-154050000D01*
G75*
G02*
X236275000Y-154268750I0J-218750D01*
G01*
X236275000Y-154706250D01*
G75*
G02*
X236056250Y-154925000I-218750J0D01*
G01*
X235543750Y-154925000D01*
G75*
G02*
X235325000Y-154706250I0J218750D01*
G01*
X235325000Y-154268750D01*
G75*
G02*
X235543750Y-154050000I218750J0D01*
G01*
G37*
G36*
G01*
X235543750Y-152475000D02*
X236056250Y-152475000D01*
G75*
G02*
X236275000Y-152693750I0J-218750D01*
G01*
X236275000Y-153131250D01*
G75*
G02*
X236056250Y-153350000I-218750J0D01*
G01*
X235543750Y-153350000D01*
G75*
G02*
X235325000Y-153131250I0J218750D01*
G01*
X235325000Y-152693750D01*
G75*
G02*
X235543750Y-152475000I218750J0D01*
G01*
G37*
%TD*%
%TO.C,C10*%
G36*
G01*
X26284999Y-117888749D02*
X26284999Y-118401249D01*
G75*
G02*
X26066249Y-118619999I-218750J0D01*
G01*
X25628749Y-118619999D01*
G75*
G02*
X25409999Y-118401249I0J218750D01*
G01*
X25409999Y-117888749D01*
G75*
G02*
X25628749Y-117669999I218750J0D01*
G01*
X26066249Y-117669999D01*
G75*
G02*
X26284999Y-117888749I0J-218750D01*
G01*
G37*
G36*
G01*
X27859999Y-117888749D02*
X27859999Y-118401249D01*
G75*
G02*
X27641249Y-118619999I-218750J0D01*
G01*
X27203749Y-118619999D01*
G75*
G02*
X26984999Y-118401249I0J218750D01*
G01*
X26984999Y-117888749D01*
G75*
G02*
X27203749Y-117669999I218750J0D01*
G01*
X27641249Y-117669999D01*
G75*
G02*
X27859999Y-117888749I0J-218750D01*
G01*
G37*
%TD*%
%TO.C,C11*%
G36*
G01*
X60874999Y-82778749D02*
X60874999Y-83291249D01*
G75*
G02*
X60656249Y-83509999I-218750J0D01*
G01*
X60218749Y-83509999D01*
G75*
G02*
X59999999Y-83291249I0J218750D01*
G01*
X59999999Y-82778749D01*
G75*
G02*
X60218749Y-82559999I218750J0D01*
G01*
X60656249Y-82559999D01*
G75*
G02*
X60874999Y-82778749I0J-218750D01*
G01*
G37*
G36*
G01*
X62449999Y-82778749D02*
X62449999Y-83291249D01*
G75*
G02*
X62231249Y-83509999I-218750J0D01*
G01*
X61793749Y-83509999D01*
G75*
G02*
X61574999Y-83291249I0J218750D01*
G01*
X61574999Y-82778749D01*
G75*
G02*
X61793749Y-82559999I218750J0D01*
G01*
X62231249Y-82559999D01*
G75*
G02*
X62449999Y-82778749I0J-218750D01*
G01*
G37*
%TD*%
%TO.C,C12*%
G36*
G01*
X41834999Y-102888749D02*
X41834999Y-103401249D01*
G75*
G02*
X41616249Y-103619999I-218750J0D01*
G01*
X41178749Y-103619999D01*
G75*
G02*
X40959999Y-103401249I0J218750D01*
G01*
X40959999Y-102888749D01*
G75*
G02*
X41178749Y-102669999I218750J0D01*
G01*
X41616249Y-102669999D01*
G75*
G02*
X41834999Y-102888749I0J-218750D01*
G01*
G37*
G36*
G01*
X43409999Y-102888749D02*
X43409999Y-103401249D01*
G75*
G02*
X43191249Y-103619999I-218750J0D01*
G01*
X42753749Y-103619999D01*
G75*
G02*
X42534999Y-103401249I0J218750D01*
G01*
X42534999Y-102888749D01*
G75*
G02*
X42753749Y-102669999I218750J0D01*
G01*
X43191249Y-102669999D01*
G75*
G02*
X43409999Y-102888749I0J-218750D01*
G01*
G37*
%TD*%
%TO.C,C13*%
G36*
G01*
X56679999Y-92818749D02*
X56679999Y-93331249D01*
G75*
G02*
X56461249Y-93549999I-218750J0D01*
G01*
X56023749Y-93549999D01*
G75*
G02*
X55804999Y-93331249I0J218750D01*
G01*
X55804999Y-92818749D01*
G75*
G02*
X56023749Y-92599999I218750J0D01*
G01*
X56461249Y-92599999D01*
G75*
G02*
X56679999Y-92818749I0J-218750D01*
G01*
G37*
G36*
G01*
X55104999Y-92818749D02*
X55104999Y-93331249D01*
G75*
G02*
X54886249Y-93549999I-218750J0D01*
G01*
X54448749Y-93549999D01*
G75*
G02*
X54229999Y-93331249I0J218750D01*
G01*
X54229999Y-92818749D01*
G75*
G02*
X54448749Y-92599999I218750J0D01*
G01*
X54886249Y-92599999D01*
G75*
G02*
X55104999Y-92818749I0J-218750D01*
G01*
G37*
%TD*%
%TO.C,C14*%
G36*
G01*
X31869999Y-117888749D02*
X31869999Y-118401249D01*
G75*
G02*
X31651249Y-118619999I-218750J0D01*
G01*
X31213749Y-118619999D01*
G75*
G02*
X30994999Y-118401249I0J218750D01*
G01*
X30994999Y-117888749D01*
G75*
G02*
X31213749Y-117669999I218750J0D01*
G01*
X31651249Y-117669999D01*
G75*
G02*
X31869999Y-117888749I0J-218750D01*
G01*
G37*
G36*
G01*
X30294999Y-117888749D02*
X30294999Y-118401249D01*
G75*
G02*
X30076249Y-118619999I-218750J0D01*
G01*
X29638749Y-118619999D01*
G75*
G02*
X29419999Y-118401249I0J218750D01*
G01*
X29419999Y-117888749D01*
G75*
G02*
X29638749Y-117669999I218750J0D01*
G01*
X30076249Y-117669999D01*
G75*
G02*
X30294999Y-117888749I0J-218750D01*
G01*
G37*
%TD*%
%TO.C,C15*%
G36*
G01*
X39889999Y-120158749D02*
X39889999Y-120671249D01*
G75*
G02*
X39671249Y-120889999I-218750J0D01*
G01*
X39233749Y-120889999D01*
G75*
G02*
X39014999Y-120671249I0J218750D01*
G01*
X39014999Y-120158749D01*
G75*
G02*
X39233749Y-119939999I218750J0D01*
G01*
X39671249Y-119939999D01*
G75*
G02*
X39889999Y-120158749I0J-218750D01*
G01*
G37*
G36*
G01*
X38314999Y-120158749D02*
X38314999Y-120671249D01*
G75*
G02*
X38096249Y-120889999I-218750J0D01*
G01*
X37658749Y-120889999D01*
G75*
G02*
X37439999Y-120671249I0J218750D01*
G01*
X37439999Y-120158749D01*
G75*
G02*
X37658749Y-119939999I218750J0D01*
G01*
X38096249Y-119939999D01*
G75*
G02*
X38314999Y-120158749I0J-218750D01*
G01*
G37*
%TD*%
%TO.C,C16*%
G36*
G01*
X83339999Y-83458749D02*
X83339999Y-83971249D01*
G75*
G02*
X83121249Y-84189999I-218750J0D01*
G01*
X82683749Y-84189999D01*
G75*
G02*
X82464999Y-83971249I0J218750D01*
G01*
X82464999Y-83458749D01*
G75*
G02*
X82683749Y-83239999I218750J0D01*
G01*
X83121249Y-83239999D01*
G75*
G02*
X83339999Y-83458749I0J-218750D01*
G01*
G37*
G36*
G01*
X81764999Y-83458749D02*
X81764999Y-83971249D01*
G75*
G02*
X81546249Y-84189999I-218750J0D01*
G01*
X81108749Y-84189999D01*
G75*
G02*
X80889999Y-83971249I0J218750D01*
G01*
X80889999Y-83458749D01*
G75*
G02*
X81108749Y-83239999I218750J0D01*
G01*
X81546249Y-83239999D01*
G75*
G02*
X81764999Y-83458749I0J-218750D01*
G01*
G37*
%TD*%
%TO.C,C17*%
G36*
G01*
X74479999Y-82868749D02*
X74479999Y-83381249D01*
G75*
G02*
X74261249Y-83599999I-218750J0D01*
G01*
X73823749Y-83599999D01*
G75*
G02*
X73604999Y-83381249I0J218750D01*
G01*
X73604999Y-82868749D01*
G75*
G02*
X73823749Y-82649999I218750J0D01*
G01*
X74261249Y-82649999D01*
G75*
G02*
X74479999Y-82868749I0J-218750D01*
G01*
G37*
G36*
G01*
X72904999Y-82868749D02*
X72904999Y-83381249D01*
G75*
G02*
X72686249Y-83599999I-218750J0D01*
G01*
X72248749Y-83599999D01*
G75*
G02*
X72029999Y-83381249I0J218750D01*
G01*
X72029999Y-82868749D01*
G75*
G02*
X72248749Y-82649999I218750J0D01*
G01*
X72686249Y-82649999D01*
G75*
G02*
X72904999Y-82868749I0J-218750D01*
G01*
G37*
%TD*%
%TO.C,C18*%
G36*
G01*
X48659999Y-97868749D02*
X48659999Y-98381249D01*
G75*
G02*
X48441249Y-98599999I-218750J0D01*
G01*
X48003749Y-98599999D01*
G75*
G02*
X47784999Y-98381249I0J218750D01*
G01*
X47784999Y-97868749D01*
G75*
G02*
X48003749Y-97649999I218750J0D01*
G01*
X48441249Y-97649999D01*
G75*
G02*
X48659999Y-97868749I0J-218750D01*
G01*
G37*
G36*
G01*
X47084999Y-97868749D02*
X47084999Y-98381249D01*
G75*
G02*
X46866249Y-98599999I-218750J0D01*
G01*
X46428749Y-98599999D01*
G75*
G02*
X46209999Y-98381249I0J218750D01*
G01*
X46209999Y-97868749D01*
G75*
G02*
X46428749Y-97649999I218750J0D01*
G01*
X46866249Y-97649999D01*
G75*
G02*
X47084999Y-97868749I0J-218750D01*
G01*
G37*
%TD*%
%TO.C,C19*%
G36*
G01*
X27859999Y-112868749D02*
X27859999Y-113381249D01*
G75*
G02*
X27641249Y-113599999I-218750J0D01*
G01*
X27203749Y-113599999D01*
G75*
G02*
X26984999Y-113381249I0J218750D01*
G01*
X26984999Y-112868749D01*
G75*
G02*
X27203749Y-112649999I218750J0D01*
G01*
X27641249Y-112649999D01*
G75*
G02*
X27859999Y-112868749I0J-218750D01*
G01*
G37*
G36*
G01*
X26284999Y-112868749D02*
X26284999Y-113381249D01*
G75*
G02*
X26066249Y-113599999I-218750J0D01*
G01*
X25628749Y-113599999D01*
G75*
G02*
X25409999Y-113381249I0J218750D01*
G01*
X25409999Y-112868749D01*
G75*
G02*
X25628749Y-112649999I218750J0D01*
G01*
X26066249Y-112649999D01*
G75*
G02*
X26284999Y-112868749I0J-218750D01*
G01*
G37*
%TD*%
%TO.C,C20*%
G36*
G01*
X59554999Y-87798749D02*
X59554999Y-88311249D01*
G75*
G02*
X59336249Y-88529999I-218750J0D01*
G01*
X58898749Y-88529999D01*
G75*
G02*
X58679999Y-88311249I0J218750D01*
G01*
X58679999Y-87798749D01*
G75*
G02*
X58898749Y-87579999I218750J0D01*
G01*
X59336249Y-87579999D01*
G75*
G02*
X59554999Y-87798749I0J-218750D01*
G01*
G37*
G36*
G01*
X61129999Y-87798749D02*
X61129999Y-88311249D01*
G75*
G02*
X60911249Y-88529999I-218750J0D01*
G01*
X60473749Y-88529999D01*
G75*
G02*
X60254999Y-88311249I0J218750D01*
G01*
X60254999Y-87798749D01*
G75*
G02*
X60473749Y-87579999I218750J0D01*
G01*
X60911249Y-87579999D01*
G75*
G02*
X61129999Y-87798749I0J-218750D01*
G01*
G37*
%TD*%
%TO.C,C21*%
G36*
G01*
X43074999Y-95358749D02*
X43074999Y-95871249D01*
G75*
G02*
X42856249Y-96089999I-218750J0D01*
G01*
X42418749Y-96089999D01*
G75*
G02*
X42199999Y-95871249I0J218750D01*
G01*
X42199999Y-95358749D01*
G75*
G02*
X42418749Y-95139999I218750J0D01*
G01*
X42856249Y-95139999D01*
G75*
G02*
X43074999Y-95358749I0J-218750D01*
G01*
G37*
G36*
G01*
X44649999Y-95358749D02*
X44649999Y-95871249D01*
G75*
G02*
X44431249Y-96089999I-218750J0D01*
G01*
X43993749Y-96089999D01*
G75*
G02*
X43774999Y-95871249I0J218750D01*
G01*
X43774999Y-95358749D01*
G75*
G02*
X43993749Y-95139999I218750J0D01*
G01*
X44431249Y-95139999D01*
G75*
G02*
X44649999Y-95358749I0J-218750D01*
G01*
G37*
%TD*%
%TO.C,C22*%
G36*
G01*
X60394999Y-85288749D02*
X60394999Y-85801249D01*
G75*
G02*
X60176249Y-86019999I-218750J0D01*
G01*
X59738749Y-86019999D01*
G75*
G02*
X59519999Y-85801249I0J218750D01*
G01*
X59519999Y-85288749D01*
G75*
G02*
X59738749Y-85069999I218750J0D01*
G01*
X60176249Y-85069999D01*
G75*
G02*
X60394999Y-85288749I0J-218750D01*
G01*
G37*
G36*
G01*
X61969999Y-85288749D02*
X61969999Y-85801249D01*
G75*
G02*
X61751249Y-86019999I-218750J0D01*
G01*
X61313749Y-86019999D01*
G75*
G02*
X61094999Y-85801249I0J218750D01*
G01*
X61094999Y-85288749D01*
G75*
G02*
X61313749Y-85069999I218750J0D01*
G01*
X61751249Y-85069999D01*
G75*
G02*
X61969999Y-85288749I0J-218750D01*
G01*
G37*
%TD*%
%TO.C,C23*%
G36*
G01*
X35394999Y-110118749D02*
X35394999Y-110631249D01*
G75*
G02*
X35176249Y-110849999I-218750J0D01*
G01*
X34738749Y-110849999D01*
G75*
G02*
X34519999Y-110631249I0J218750D01*
G01*
X34519999Y-110118749D01*
G75*
G02*
X34738749Y-109899999I218750J0D01*
G01*
X35176249Y-109899999D01*
G75*
G02*
X35394999Y-110118749I0J-218750D01*
G01*
G37*
G36*
G01*
X36969999Y-110118749D02*
X36969999Y-110631249D01*
G75*
G02*
X36751249Y-110849999I-218750J0D01*
G01*
X36313749Y-110849999D01*
G75*
G02*
X36094999Y-110631249I0J218750D01*
G01*
X36094999Y-110118749D01*
G75*
G02*
X36313749Y-109899999I218750J0D01*
G01*
X36751249Y-109899999D01*
G75*
G02*
X36969999Y-110118749I0J-218750D01*
G01*
G37*
%TD*%
%TO.C,C24*%
G36*
G01*
X55544999Y-87798749D02*
X55544999Y-88311249D01*
G75*
G02*
X55326249Y-88529999I-218750J0D01*
G01*
X54888749Y-88529999D01*
G75*
G02*
X54669999Y-88311249I0J218750D01*
G01*
X54669999Y-87798749D01*
G75*
G02*
X54888749Y-87579999I218750J0D01*
G01*
X55326249Y-87579999D01*
G75*
G02*
X55544999Y-87798749I0J-218750D01*
G01*
G37*
G36*
G01*
X57119999Y-87798749D02*
X57119999Y-88311249D01*
G75*
G02*
X56901249Y-88529999I-218750J0D01*
G01*
X56463749Y-88529999D01*
G75*
G02*
X56244999Y-88311249I0J218750D01*
G01*
X56244999Y-87798749D01*
G75*
G02*
X56463749Y-87579999I218750J0D01*
G01*
X56901249Y-87579999D01*
G75*
G02*
X57119999Y-87798749I0J-218750D01*
G01*
G37*
%TD*%
%TO.C,C25*%
G36*
G01*
X52669999Y-92818749D02*
X52669999Y-93331249D01*
G75*
G02*
X52451249Y-93549999I-218750J0D01*
G01*
X52013749Y-93549999D01*
G75*
G02*
X51794999Y-93331249I0J218750D01*
G01*
X51794999Y-92818749D01*
G75*
G02*
X52013749Y-92599999I218750J0D01*
G01*
X52451249Y-92599999D01*
G75*
G02*
X52669999Y-92818749I0J-218750D01*
G01*
G37*
G36*
G01*
X51094999Y-92818749D02*
X51094999Y-93331249D01*
G75*
G02*
X50876249Y-93549999I-218750J0D01*
G01*
X50438749Y-93549999D01*
G75*
G02*
X50219999Y-93331249I0J218750D01*
G01*
X50219999Y-92818749D01*
G75*
G02*
X50438749Y-92599999I218750J0D01*
G01*
X50876249Y-92599999D01*
G75*
G02*
X51094999Y-92818749I0J-218750D01*
G01*
G37*
%TD*%
%TO.C,C26*%
G36*
G01*
X31869999Y-115378749D02*
X31869999Y-115891249D01*
G75*
G02*
X31651249Y-116109999I-218750J0D01*
G01*
X31213749Y-116109999D01*
G75*
G02*
X30994999Y-115891249I0J218750D01*
G01*
X30994999Y-115378749D01*
G75*
G02*
X31213749Y-115159999I218750J0D01*
G01*
X31651249Y-115159999D01*
G75*
G02*
X31869999Y-115378749I0J-218750D01*
G01*
G37*
G36*
G01*
X30294999Y-115378749D02*
X30294999Y-115891249D01*
G75*
G02*
X30076249Y-116109999I-218750J0D01*
G01*
X29638749Y-116109999D01*
G75*
G02*
X29419999Y-115891249I0J218750D01*
G01*
X29419999Y-115378749D01*
G75*
G02*
X29638749Y-115159999I218750J0D01*
G01*
X30076249Y-115159999D01*
G75*
G02*
X30294999Y-115378749I0J-218750D01*
G01*
G37*
%TD*%
%TO.C,C27*%
G36*
G01*
X21914999Y-127608749D02*
X21914999Y-128121249D01*
G75*
G02*
X21696249Y-128339999I-218750J0D01*
G01*
X21258749Y-128339999D01*
G75*
G02*
X21039999Y-128121249I0J218750D01*
G01*
X21039999Y-127608749D01*
G75*
G02*
X21258749Y-127389999I218750J0D01*
G01*
X21696249Y-127389999D01*
G75*
G02*
X21914999Y-127608749I0J-218750D01*
G01*
G37*
G36*
G01*
X23489999Y-127608749D02*
X23489999Y-128121249D01*
G75*
G02*
X23271249Y-128339999I-218750J0D01*
G01*
X22833749Y-128339999D01*
G75*
G02*
X22614999Y-128121249I0J218750D01*
G01*
X22614999Y-127608749D01*
G75*
G02*
X22833749Y-127389999I218750J0D01*
G01*
X23271249Y-127389999D01*
G75*
G02*
X23489999Y-127608749I0J-218750D01*
G01*
G37*
%TD*%
%TO.C,C28*%
G36*
G01*
X61129999Y-90308749D02*
X61129999Y-90821249D01*
G75*
G02*
X60911249Y-91039999I-218750J0D01*
G01*
X60473749Y-91039999D01*
G75*
G02*
X60254999Y-90821249I0J218750D01*
G01*
X60254999Y-90308749D01*
G75*
G02*
X60473749Y-90089999I218750J0D01*
G01*
X60911249Y-90089999D01*
G75*
G02*
X61129999Y-90308749I0J-218750D01*
G01*
G37*
G36*
G01*
X59554999Y-90308749D02*
X59554999Y-90821249D01*
G75*
G02*
X59336249Y-91039999I-218750J0D01*
G01*
X58898749Y-91039999D01*
G75*
G02*
X58679999Y-90821249I0J218750D01*
G01*
X58679999Y-90308749D01*
G75*
G02*
X58898749Y-90089999I218750J0D01*
G01*
X59336249Y-90089999D01*
G75*
G02*
X59554999Y-90308749I0J-218750D01*
G01*
G37*
%TD*%
%TO.C,C29*%
G36*
G01*
X56679999Y-95328749D02*
X56679999Y-95841249D01*
G75*
G02*
X56461249Y-96059999I-218750J0D01*
G01*
X56023749Y-96059999D01*
G75*
G02*
X55804999Y-95841249I0J218750D01*
G01*
X55804999Y-95328749D01*
G75*
G02*
X56023749Y-95109999I218750J0D01*
G01*
X56461249Y-95109999D01*
G75*
G02*
X56679999Y-95328749I0J-218750D01*
G01*
G37*
G36*
G01*
X55104999Y-95328749D02*
X55104999Y-95841249D01*
G75*
G02*
X54886249Y-96059999I-218750J0D01*
G01*
X54448749Y-96059999D01*
G75*
G02*
X54229999Y-95841249I0J218750D01*
G01*
X54229999Y-95328749D01*
G75*
G02*
X54448749Y-95109999I218750J0D01*
G01*
X54886249Y-95109999D01*
G75*
G02*
X55104999Y-95328749I0J-218750D01*
G01*
G37*
%TD*%
%TO.C,C30*%
G36*
G01*
X35879999Y-117648749D02*
X35879999Y-118161249D01*
G75*
G02*
X35661249Y-118379999I-218750J0D01*
G01*
X35223749Y-118379999D01*
G75*
G02*
X35004999Y-118161249I0J218750D01*
G01*
X35004999Y-117648749D01*
G75*
G02*
X35223749Y-117429999I218750J0D01*
G01*
X35661249Y-117429999D01*
G75*
G02*
X35879999Y-117648749I0J-218750D01*
G01*
G37*
G36*
G01*
X34304999Y-117648749D02*
X34304999Y-118161249D01*
G75*
G02*
X34086249Y-118379999I-218750J0D01*
G01*
X33648749Y-118379999D01*
G75*
G02*
X33429999Y-118161249I0J218750D01*
G01*
X33429999Y-117648749D01*
G75*
G02*
X33648749Y-117429999I218750J0D01*
G01*
X34086249Y-117429999D01*
G75*
G02*
X34304999Y-117648749I0J-218750D01*
G01*
G37*
%TD*%
%TO.C,C31*%
G36*
G01*
X49854999Y-103258749D02*
X49854999Y-103771249D01*
G75*
G02*
X49636249Y-103989999I-218750J0D01*
G01*
X49198749Y-103989999D01*
G75*
G02*
X48979999Y-103771249I0J218750D01*
G01*
X48979999Y-103258749D01*
G75*
G02*
X49198749Y-103039999I218750J0D01*
G01*
X49636249Y-103039999D01*
G75*
G02*
X49854999Y-103258749I0J-218750D01*
G01*
G37*
G36*
G01*
X51429999Y-103258749D02*
X51429999Y-103771249D01*
G75*
G02*
X51211249Y-103989999I-218750J0D01*
G01*
X50773749Y-103989999D01*
G75*
G02*
X50554999Y-103771249I0J218750D01*
G01*
X50554999Y-103258749D01*
G75*
G02*
X50773749Y-103039999I218750J0D01*
G01*
X51211249Y-103039999D01*
G75*
G02*
X51429999Y-103258749I0J-218750D01*
G01*
G37*
%TD*%
%TO.C,C32*%
G36*
G01*
X38314999Y-115138749D02*
X38314999Y-115651249D01*
G75*
G02*
X38096249Y-115869999I-218750J0D01*
G01*
X37658749Y-115869999D01*
G75*
G02*
X37439999Y-115651249I0J218750D01*
G01*
X37439999Y-115138749D01*
G75*
G02*
X37658749Y-114919999I218750J0D01*
G01*
X38096249Y-114919999D01*
G75*
G02*
X38314999Y-115138749I0J-218750D01*
G01*
G37*
G36*
G01*
X39889999Y-115138749D02*
X39889999Y-115651249D01*
G75*
G02*
X39671249Y-115869999I-218750J0D01*
G01*
X39233749Y-115869999D01*
G75*
G02*
X39014999Y-115651249I0J218750D01*
G01*
X39014999Y-115138749D01*
G75*
G02*
X39233749Y-114919999I218750J0D01*
G01*
X39671249Y-114919999D01*
G75*
G02*
X39889999Y-115138749I0J-218750D01*
G01*
G37*
%TD*%
%TO.C,C33*%
G36*
G01*
X35879999Y-115138749D02*
X35879999Y-115651249D01*
G75*
G02*
X35661249Y-115869999I-218750J0D01*
G01*
X35223749Y-115869999D01*
G75*
G02*
X35004999Y-115651249I0J218750D01*
G01*
X35004999Y-115138749D01*
G75*
G02*
X35223749Y-114919999I218750J0D01*
G01*
X35661249Y-114919999D01*
G75*
G02*
X35879999Y-115138749I0J-218750D01*
G01*
G37*
G36*
G01*
X34304999Y-115138749D02*
X34304999Y-115651249D01*
G75*
G02*
X34086249Y-115869999I-218750J0D01*
G01*
X33648749Y-115869999D01*
G75*
G02*
X33429999Y-115651249I0J218750D01*
G01*
X33429999Y-115138749D01*
G75*
G02*
X33648749Y-114919999I218750J0D01*
G01*
X34086249Y-114919999D01*
G75*
G02*
X34304999Y-115138749I0J-218750D01*
G01*
G37*
%TD*%
%TO.C,C34*%
G36*
G01*
X30529999Y-122908749D02*
X30529999Y-123421249D01*
G75*
G02*
X30311249Y-123639999I-218750J0D01*
G01*
X29873749Y-123639999D01*
G75*
G02*
X29654999Y-123421249I0J218750D01*
G01*
X29654999Y-122908749D01*
G75*
G02*
X29873749Y-122689999I218750J0D01*
G01*
X30311249Y-122689999D01*
G75*
G02*
X30529999Y-122908749I0J-218750D01*
G01*
G37*
G36*
G01*
X28954999Y-122908749D02*
X28954999Y-123421249D01*
G75*
G02*
X28736249Y-123639999I-218750J0D01*
G01*
X28298749Y-123639999D01*
G75*
G02*
X28079999Y-123421249I0J218750D01*
G01*
X28079999Y-122908749D01*
G75*
G02*
X28298749Y-122689999I218750J0D01*
G01*
X28736249Y-122689999D01*
G75*
G02*
X28954999Y-122908749I0J-218750D01*
G01*
G37*
%TD*%
%TO.C,C35*%
G36*
G01*
X69989999Y-85458749D02*
X69989999Y-85971249D01*
G75*
G02*
X69771249Y-86189999I-218750J0D01*
G01*
X69333749Y-86189999D01*
G75*
G02*
X69114999Y-85971249I0J218750D01*
G01*
X69114999Y-85458749D01*
G75*
G02*
X69333749Y-85239999I218750J0D01*
G01*
X69771249Y-85239999D01*
G75*
G02*
X69989999Y-85458749I0J-218750D01*
G01*
G37*
G36*
G01*
X68414999Y-85458749D02*
X68414999Y-85971249D01*
G75*
G02*
X68196249Y-86189999I-218750J0D01*
G01*
X67758749Y-86189999D01*
G75*
G02*
X67539999Y-85971249I0J218750D01*
G01*
X67539999Y-85458749D01*
G75*
G02*
X67758749Y-85239999I218750J0D01*
G01*
X68196249Y-85239999D01*
G75*
G02*
X68414999Y-85458749I0J-218750D01*
G01*
G37*
%TD*%
%TO.C,C36*%
G36*
G01*
X23489999Y-130118749D02*
X23489999Y-130631249D01*
G75*
G02*
X23271249Y-130849999I-218750J0D01*
G01*
X22833749Y-130849999D01*
G75*
G02*
X22614999Y-130631249I0J218750D01*
G01*
X22614999Y-130118749D01*
G75*
G02*
X22833749Y-129899999I218750J0D01*
G01*
X23271249Y-129899999D01*
G75*
G02*
X23489999Y-130118749I0J-218750D01*
G01*
G37*
G36*
G01*
X21914999Y-130118749D02*
X21914999Y-130631249D01*
G75*
G02*
X21696249Y-130849999I-218750J0D01*
G01*
X21258749Y-130849999D01*
G75*
G02*
X21039999Y-130631249I0J218750D01*
G01*
X21039999Y-130118749D01*
G75*
G02*
X21258749Y-129899999I218750J0D01*
G01*
X21696249Y-129899999D01*
G75*
G02*
X21914999Y-130118749I0J-218750D01*
G01*
G37*
%TD*%
%TO.C,C37*%
G36*
G01*
X63564999Y-90308749D02*
X63564999Y-90821249D01*
G75*
G02*
X63346249Y-91039999I-218750J0D01*
G01*
X62908749Y-91039999D01*
G75*
G02*
X62689999Y-90821249I0J218750D01*
G01*
X62689999Y-90308749D01*
G75*
G02*
X62908749Y-90089999I218750J0D01*
G01*
X63346249Y-90089999D01*
G75*
G02*
X63564999Y-90308749I0J-218750D01*
G01*
G37*
G36*
G01*
X65139999Y-90308749D02*
X65139999Y-90821249D01*
G75*
G02*
X64921249Y-91039999I-218750J0D01*
G01*
X64483749Y-91039999D01*
G75*
G02*
X64264999Y-90821249I0J218750D01*
G01*
X64264999Y-90308749D01*
G75*
G02*
X64483749Y-90089999I218750J0D01*
G01*
X64921249Y-90089999D01*
G75*
G02*
X65139999Y-90308749I0J-218750D01*
G01*
G37*
%TD*%
%TO.C,C38*%
G36*
G01*
X65139999Y-87798749D02*
X65139999Y-88311249D01*
G75*
G02*
X64921249Y-88529999I-218750J0D01*
G01*
X64483749Y-88529999D01*
G75*
G02*
X64264999Y-88311249I0J218750D01*
G01*
X64264999Y-87798749D01*
G75*
G02*
X64483749Y-87579999I218750J0D01*
G01*
X64921249Y-87579999D01*
G75*
G02*
X65139999Y-87798749I0J-218750D01*
G01*
G37*
G36*
G01*
X63564999Y-87798749D02*
X63564999Y-88311249D01*
G75*
G02*
X63346249Y-88529999I-218750J0D01*
G01*
X62908749Y-88529999D01*
G75*
G02*
X62689999Y-88311249I0J218750D01*
G01*
X62689999Y-87798749D01*
G75*
G02*
X62908749Y-87579999I218750J0D01*
G01*
X63346249Y-87579999D01*
G75*
G02*
X63564999Y-87798749I0J-218750D01*
G01*
G37*
%TD*%
%TO.C,C39*%
G36*
G01*
X49854999Y-100748749D02*
X49854999Y-101261249D01*
G75*
G02*
X49636249Y-101479999I-218750J0D01*
G01*
X49198749Y-101479999D01*
G75*
G02*
X48979999Y-101261249I0J218750D01*
G01*
X48979999Y-100748749D01*
G75*
G02*
X49198749Y-100529999I218750J0D01*
G01*
X49636249Y-100529999D01*
G75*
G02*
X49854999Y-100748749I0J-218750D01*
G01*
G37*
G36*
G01*
X51429999Y-100748749D02*
X51429999Y-101261249D01*
G75*
G02*
X51211249Y-101479999I-218750J0D01*
G01*
X50773749Y-101479999D01*
G75*
G02*
X50554999Y-101261249I0J218750D01*
G01*
X50554999Y-100748749D01*
G75*
G02*
X50773749Y-100529999I218750J0D01*
G01*
X51211249Y-100529999D01*
G75*
G02*
X51429999Y-100748749I0J-218750D01*
G01*
G37*
%TD*%
%TO.C,C40*%
G36*
G01*
X59114999Y-95398749D02*
X59114999Y-95911249D01*
G75*
G02*
X58896249Y-96129999I-218750J0D01*
G01*
X58458749Y-96129999D01*
G75*
G02*
X58239999Y-95911249I0J218750D01*
G01*
X58239999Y-95398749D01*
G75*
G02*
X58458749Y-95179999I218750J0D01*
G01*
X58896249Y-95179999D01*
G75*
G02*
X59114999Y-95398749I0J-218750D01*
G01*
G37*
G36*
G01*
X60689999Y-95398749D02*
X60689999Y-95911249D01*
G75*
G02*
X60471249Y-96129999I-218750J0D01*
G01*
X60033749Y-96129999D01*
G75*
G02*
X59814999Y-95911249I0J218750D01*
G01*
X59814999Y-95398749D01*
G75*
G02*
X60033749Y-95179999I218750J0D01*
G01*
X60471249Y-95179999D01*
G75*
G02*
X60689999Y-95398749I0J-218750D01*
G01*
G37*
%TD*%
%TO.C,C41*%
G36*
G01*
X31869999Y-120398749D02*
X31869999Y-120911249D01*
G75*
G02*
X31651249Y-121129999I-218750J0D01*
G01*
X31213749Y-121129999D01*
G75*
G02*
X30994999Y-120911249I0J218750D01*
G01*
X30994999Y-120398749D01*
G75*
G02*
X31213749Y-120179999I218750J0D01*
G01*
X31651249Y-120179999D01*
G75*
G02*
X31869999Y-120398749I0J-218750D01*
G01*
G37*
G36*
G01*
X30294999Y-120398749D02*
X30294999Y-120911249D01*
G75*
G02*
X30076249Y-121129999I-218750J0D01*
G01*
X29638749Y-121129999D01*
G75*
G02*
X29419999Y-120911249I0J218750D01*
G01*
X29419999Y-120398749D01*
G75*
G02*
X29638749Y-120179999I218750J0D01*
G01*
X30076249Y-120179999D01*
G75*
G02*
X30294999Y-120398749I0J-218750D01*
G01*
G37*
%TD*%
%TO.C,C42*%
G36*
G01*
X44989999Y-105398749D02*
X44989999Y-105911249D01*
G75*
G02*
X44771249Y-106129999I-218750J0D01*
G01*
X44333749Y-106129999D01*
G75*
G02*
X44114999Y-105911249I0J218750D01*
G01*
X44114999Y-105398749D01*
G75*
G02*
X44333749Y-105179999I218750J0D01*
G01*
X44771249Y-105179999D01*
G75*
G02*
X44989999Y-105398749I0J-218750D01*
G01*
G37*
G36*
G01*
X43414999Y-105398749D02*
X43414999Y-105911249D01*
G75*
G02*
X43196249Y-106129999I-218750J0D01*
G01*
X42758749Y-106129999D01*
G75*
G02*
X42539999Y-105911249I0J218750D01*
G01*
X42539999Y-105398749D01*
G75*
G02*
X42758749Y-105179999I218750J0D01*
G01*
X43196249Y-105179999D01*
G75*
G02*
X43414999Y-105398749I0J-218750D01*
G01*
G37*
%TD*%
%TO.C,C43*%
G36*
G01*
X65979999Y-85288749D02*
X65979999Y-85801249D01*
G75*
G02*
X65761249Y-86019999I-218750J0D01*
G01*
X65323749Y-86019999D01*
G75*
G02*
X65104999Y-85801249I0J218750D01*
G01*
X65104999Y-85288749D01*
G75*
G02*
X65323749Y-85069999I218750J0D01*
G01*
X65761249Y-85069999D01*
G75*
G02*
X65979999Y-85288749I0J-218750D01*
G01*
G37*
G36*
G01*
X64404999Y-85288749D02*
X64404999Y-85801249D01*
G75*
G02*
X64186249Y-86019999I-218750J0D01*
G01*
X63748749Y-86019999D01*
G75*
G02*
X63529999Y-85801249I0J218750D01*
G01*
X63529999Y-85288749D01*
G75*
G02*
X63748749Y-85069999I218750J0D01*
G01*
X64186249Y-85069999D01*
G75*
G02*
X64404999Y-85288749I0J-218750D01*
G01*
G37*
%TD*%
%TO.C,C44*%
G36*
G01*
X57874999Y-102458749D02*
X57874999Y-102971249D01*
G75*
G02*
X57656249Y-103189999I-218750J0D01*
G01*
X57218749Y-103189999D01*
G75*
G02*
X56999999Y-102971249I0J218750D01*
G01*
X56999999Y-102458749D01*
G75*
G02*
X57218749Y-102239999I218750J0D01*
G01*
X57656249Y-102239999D01*
G75*
G02*
X57874999Y-102458749I0J-218750D01*
G01*
G37*
G36*
G01*
X59449999Y-102458749D02*
X59449999Y-102971249D01*
G75*
G02*
X59231249Y-103189999I-218750J0D01*
G01*
X58793749Y-103189999D01*
G75*
G02*
X58574999Y-102971249I0J218750D01*
G01*
X58574999Y-102458749D01*
G75*
G02*
X58793749Y-102239999I218750J0D01*
G01*
X59231249Y-102239999D01*
G75*
G02*
X59449999Y-102458749I0J-218750D01*
G01*
G37*
%TD*%
%TO.C,C45*%
G36*
G01*
X63164999Y-97908749D02*
X63164999Y-98421249D01*
G75*
G02*
X62946249Y-98639999I-218750J0D01*
G01*
X62508749Y-98639999D01*
G75*
G02*
X62289999Y-98421249I0J218750D01*
G01*
X62289999Y-97908749D01*
G75*
G02*
X62508749Y-97689999I218750J0D01*
G01*
X62946249Y-97689999D01*
G75*
G02*
X63164999Y-97908749I0J-218750D01*
G01*
G37*
G36*
G01*
X64739999Y-97908749D02*
X64739999Y-98421249D01*
G75*
G02*
X64521249Y-98639999I-218750J0D01*
G01*
X64083749Y-98639999D01*
G75*
G02*
X63864999Y-98421249I0J218750D01*
G01*
X63864999Y-97908749D01*
G75*
G02*
X64083749Y-97689999I218750J0D01*
G01*
X64521249Y-97689999D01*
G75*
G02*
X64739999Y-97908749I0J-218750D01*
G01*
G37*
%TD*%
%TO.C,C46*%
G36*
G01*
X34539999Y-122908749D02*
X34539999Y-123421249D01*
G75*
G02*
X34321249Y-123639999I-218750J0D01*
G01*
X33883749Y-123639999D01*
G75*
G02*
X33664999Y-123421249I0J218750D01*
G01*
X33664999Y-122908749D01*
G75*
G02*
X33883749Y-122689999I218750J0D01*
G01*
X34321249Y-122689999D01*
G75*
G02*
X34539999Y-122908749I0J-218750D01*
G01*
G37*
G36*
G01*
X32964999Y-122908749D02*
X32964999Y-123421249D01*
G75*
G02*
X32746249Y-123639999I-218750J0D01*
G01*
X32308749Y-123639999D01*
G75*
G02*
X32089999Y-123421249I0J218750D01*
G01*
X32089999Y-122908749D01*
G75*
G02*
X32308749Y-122689999I218750J0D01*
G01*
X32746249Y-122689999D01*
G75*
G02*
X32964999Y-122908749I0J-218750D01*
G01*
G37*
%TD*%
%TO.C,C47*%
G36*
G01*
X59154999Y-97908749D02*
X59154999Y-98421249D01*
G75*
G02*
X58936249Y-98639999I-218750J0D01*
G01*
X58498749Y-98639999D01*
G75*
G02*
X58279999Y-98421249I0J218750D01*
G01*
X58279999Y-97908749D01*
G75*
G02*
X58498749Y-97689999I218750J0D01*
G01*
X58936249Y-97689999D01*
G75*
G02*
X59154999Y-97908749I0J-218750D01*
G01*
G37*
G36*
G01*
X60729999Y-97908749D02*
X60729999Y-98421249D01*
G75*
G02*
X60511249Y-98639999I-218750J0D01*
G01*
X60073749Y-98639999D01*
G75*
G02*
X59854999Y-98421249I0J218750D01*
G01*
X59854999Y-97908749D01*
G75*
G02*
X60073749Y-97689999I218750J0D01*
G01*
X60511249Y-97689999D01*
G75*
G02*
X60729999Y-97908749I0J-218750D01*
G01*
G37*
%TD*%
%TO.C,C48*%
G36*
G01*
X55439999Y-102858749D02*
X55439999Y-103371249D01*
G75*
G02*
X55221249Y-103589999I-218750J0D01*
G01*
X54783749Y-103589999D01*
G75*
G02*
X54564999Y-103371249I0J218750D01*
G01*
X54564999Y-102858749D01*
G75*
G02*
X54783749Y-102639999I218750J0D01*
G01*
X55221249Y-102639999D01*
G75*
G02*
X55439999Y-102858749I0J-218750D01*
G01*
G37*
G36*
G01*
X53864999Y-102858749D02*
X53864999Y-103371249D01*
G75*
G02*
X53646249Y-103589999I-218750J0D01*
G01*
X53208749Y-103589999D01*
G75*
G02*
X52989999Y-103371249I0J218750D01*
G01*
X52989999Y-102858749D01*
G75*
G02*
X53208749Y-102639999I218750J0D01*
G01*
X53646249Y-102639999D01*
G75*
G02*
X53864999Y-102858749I0J-218750D01*
G01*
G37*
%TD*%
%TO.C,C49*%
G36*
G01*
X76914999Y-83558749D02*
X76914999Y-84071249D01*
G75*
G02*
X76696249Y-84289999I-218750J0D01*
G01*
X76258749Y-84289999D01*
G75*
G02*
X76039999Y-84071249I0J218750D01*
G01*
X76039999Y-83558749D01*
G75*
G02*
X76258749Y-83339999I218750J0D01*
G01*
X76696249Y-83339999D01*
G75*
G02*
X76914999Y-83558749I0J-218750D01*
G01*
G37*
G36*
G01*
X78489999Y-83558749D02*
X78489999Y-84071249D01*
G75*
G02*
X78271249Y-84289999I-218750J0D01*
G01*
X77833749Y-84289999D01*
G75*
G02*
X77614999Y-84071249I0J218750D01*
G01*
X77614999Y-83558749D01*
G75*
G02*
X77833749Y-83339999I218750J0D01*
G01*
X78271249Y-83339999D01*
G75*
G02*
X78489999Y-83558749I0J-218750D01*
G01*
G37*
%TD*%
%TO.C,C50*%
G36*
G01*
X34304999Y-120158749D02*
X34304999Y-120671249D01*
G75*
G02*
X34086249Y-120889999I-218750J0D01*
G01*
X33648749Y-120889999D01*
G75*
G02*
X33429999Y-120671249I0J218750D01*
G01*
X33429999Y-120158749D01*
G75*
G02*
X33648749Y-119939999I218750J0D01*
G01*
X34086249Y-119939999D01*
G75*
G02*
X34304999Y-120158749I0J-218750D01*
G01*
G37*
G36*
G01*
X35879999Y-120158749D02*
X35879999Y-120671249D01*
G75*
G02*
X35661249Y-120889999I-218750J0D01*
G01*
X35223749Y-120889999D01*
G75*
G02*
X35004999Y-120671249I0J218750D01*
G01*
X35004999Y-120158749D01*
G75*
G02*
X35223749Y-119939999I218750J0D01*
G01*
X35661249Y-119939999D01*
G75*
G02*
X35879999Y-120158749I0J-218750D01*
G01*
G37*
%TD*%
%TO.C,C51*%
G36*
G01*
X38314999Y-117648749D02*
X38314999Y-118161249D01*
G75*
G02*
X38096249Y-118379999I-218750J0D01*
G01*
X37658749Y-118379999D01*
G75*
G02*
X37439999Y-118161249I0J218750D01*
G01*
X37439999Y-117648749D01*
G75*
G02*
X37658749Y-117429999I218750J0D01*
G01*
X38096249Y-117429999D01*
G75*
G02*
X38314999Y-117648749I0J-218750D01*
G01*
G37*
G36*
G01*
X39889999Y-117648749D02*
X39889999Y-118161249D01*
G75*
G02*
X39671249Y-118379999I-218750J0D01*
G01*
X39233749Y-118379999D01*
G75*
G02*
X39014999Y-118161249I0J218750D01*
G01*
X39014999Y-117648749D01*
G75*
G02*
X39233749Y-117429999I218750J0D01*
G01*
X39671249Y-117429999D01*
G75*
G02*
X39889999Y-117648749I0J-218750D01*
G01*
G37*
%TD*%
%TO.C,C52*%
G36*
G01*
X55439999Y-100348749D02*
X55439999Y-100861249D01*
G75*
G02*
X55221249Y-101079999I-218750J0D01*
G01*
X54783749Y-101079999D01*
G75*
G02*
X54564999Y-100861249I0J218750D01*
G01*
X54564999Y-100348749D01*
G75*
G02*
X54783749Y-100129999I218750J0D01*
G01*
X55221249Y-100129999D01*
G75*
G02*
X55439999Y-100348749I0J-218750D01*
G01*
G37*
G36*
G01*
X53864999Y-100348749D02*
X53864999Y-100861249D01*
G75*
G02*
X53646249Y-101079999I-218750J0D01*
G01*
X53208749Y-101079999D01*
G75*
G02*
X52989999Y-100861249I0J218750D01*
G01*
X52989999Y-100348749D01*
G75*
G02*
X53208749Y-100129999I218750J0D01*
G01*
X53646249Y-100129999D01*
G75*
G02*
X53864999Y-100348749I0J-218750D01*
G01*
G37*
%TD*%
%TO.C,C53*%
G36*
G01*
X92660001Y-49601251D02*
X92660001Y-49088751D01*
G75*
G02*
X92878751Y-48870001I218750J0D01*
G01*
X93316251Y-48870001D01*
G75*
G02*
X93535001Y-49088751I0J-218750D01*
G01*
X93535001Y-49601251D01*
G75*
G02*
X93316251Y-49820001I-218750J0D01*
G01*
X92878751Y-49820001D01*
G75*
G02*
X92660001Y-49601251I0J218750D01*
G01*
G37*
G36*
G01*
X94235001Y-49601251D02*
X94235001Y-49088751D01*
G75*
G02*
X94453751Y-48870001I218750J0D01*
G01*
X94891251Y-48870001D01*
G75*
G02*
X95110001Y-49088751I0J-218750D01*
G01*
X95110001Y-49601251D01*
G75*
G02*
X94891251Y-49820001I-218750J0D01*
G01*
X94453751Y-49820001D01*
G75*
G02*
X94235001Y-49601251I0J218750D01*
G01*
G37*
%TD*%
%TO.C,C54*%
G36*
G01*
X98010001Y-66151251D02*
X98010001Y-65638751D01*
G75*
G02*
X98228751Y-65420001I218750J0D01*
G01*
X98666251Y-65420001D01*
G75*
G02*
X98885001Y-65638751I0J-218750D01*
G01*
X98885001Y-66151251D01*
G75*
G02*
X98666251Y-66370001I-218750J0D01*
G01*
X98228751Y-66370001D01*
G75*
G02*
X98010001Y-66151251I0J218750D01*
G01*
G37*
G36*
G01*
X99585001Y-66151251D02*
X99585001Y-65638751D01*
G75*
G02*
X99803751Y-65420001I218750J0D01*
G01*
X100241251Y-65420001D01*
G75*
G02*
X100460001Y-65638751I0J-218750D01*
G01*
X100460001Y-66151251D01*
G75*
G02*
X100241251Y-66370001I-218750J0D01*
G01*
X99803751Y-66370001D01*
G75*
G02*
X99585001Y-66151251I0J218750D01*
G01*
G37*
%TD*%
%TO.C,C55*%
G36*
G01*
X89500001Y-55861251D02*
X89500001Y-55348751D01*
G75*
G02*
X89718751Y-55130001I218750J0D01*
G01*
X90156251Y-55130001D01*
G75*
G02*
X90375001Y-55348751I0J-218750D01*
G01*
X90375001Y-55861251D01*
G75*
G02*
X90156251Y-56080001I-218750J0D01*
G01*
X89718751Y-56080001D01*
G75*
G02*
X89500001Y-55861251I0J218750D01*
G01*
G37*
G36*
G01*
X91075001Y-55861251D02*
X91075001Y-55348751D01*
G75*
G02*
X91293751Y-55130001I218750J0D01*
G01*
X91731251Y-55130001D01*
G75*
G02*
X91950001Y-55348751I0J-218750D01*
G01*
X91950001Y-55861251D01*
G75*
G02*
X91731251Y-56080001I-218750J0D01*
G01*
X91293751Y-56080001D01*
G75*
G02*
X91075001Y-55861251I0J218750D01*
G01*
G37*
%TD*%
%TO.C,C56*%
G36*
G01*
X85490001Y-55861251D02*
X85490001Y-55348751D01*
G75*
G02*
X85708751Y-55130001I218750J0D01*
G01*
X86146251Y-55130001D01*
G75*
G02*
X86365001Y-55348751I0J-218750D01*
G01*
X86365001Y-55861251D01*
G75*
G02*
X86146251Y-56080001I-218750J0D01*
G01*
X85708751Y-56080001D01*
G75*
G02*
X85490001Y-55861251I0J218750D01*
G01*
G37*
G36*
G01*
X87065001Y-55861251D02*
X87065001Y-55348751D01*
G75*
G02*
X87283751Y-55130001I218750J0D01*
G01*
X87721251Y-55130001D01*
G75*
G02*
X87940001Y-55348751I0J-218750D01*
G01*
X87940001Y-55861251D01*
G75*
G02*
X87721251Y-56080001I-218750J0D01*
G01*
X87283751Y-56080001D01*
G75*
G02*
X87065001Y-55861251I0J218750D01*
G01*
G37*
%TD*%
%TO.C,C57*%
G36*
G01*
X91075001Y-53351251D02*
X91075001Y-52838751D01*
G75*
G02*
X91293751Y-52620001I218750J0D01*
G01*
X91731251Y-52620001D01*
G75*
G02*
X91950001Y-52838751I0J-218750D01*
G01*
X91950001Y-53351251D01*
G75*
G02*
X91731251Y-53570001I-218750J0D01*
G01*
X91293751Y-53570001D01*
G75*
G02*
X91075001Y-53351251I0J218750D01*
G01*
G37*
G36*
G01*
X89500001Y-53351251D02*
X89500001Y-52838751D01*
G75*
G02*
X89718751Y-52620001I218750J0D01*
G01*
X90156251Y-52620001D01*
G75*
G02*
X90375001Y-52838751I0J-218750D01*
G01*
X90375001Y-53351251D01*
G75*
G02*
X90156251Y-53570001I-218750J0D01*
G01*
X89718751Y-53570001D01*
G75*
G02*
X89500001Y-53351251I0J218750D01*
G01*
G37*
%TD*%
%TO.C,C58*%
G36*
G01*
X87065001Y-53351251D02*
X87065001Y-52838751D01*
G75*
G02*
X87283751Y-52620001I218750J0D01*
G01*
X87721251Y-52620001D01*
G75*
G02*
X87940001Y-52838751I0J-218750D01*
G01*
X87940001Y-53351251D01*
G75*
G02*
X87721251Y-53570001I-218750J0D01*
G01*
X87283751Y-53570001D01*
G75*
G02*
X87065001Y-53351251I0J218750D01*
G01*
G37*
G36*
G01*
X85490001Y-53351251D02*
X85490001Y-52838751D01*
G75*
G02*
X85708751Y-52620001I218750J0D01*
G01*
X86146251Y-52620001D01*
G75*
G02*
X86365001Y-52838751I0J-218750D01*
G01*
X86365001Y-53351251D01*
G75*
G02*
X86146251Y-53570001I-218750J0D01*
G01*
X85708751Y-53570001D01*
G75*
G02*
X85490001Y-53351251I0J218750D01*
G01*
G37*
%TD*%
%TO.C,C59*%
G36*
G01*
X87045001Y-59071251D02*
X87045001Y-58558751D01*
G75*
G02*
X87263751Y-58340001I218750J0D01*
G01*
X87701251Y-58340001D01*
G75*
G02*
X87920001Y-58558751I0J-218750D01*
G01*
X87920001Y-59071251D01*
G75*
G02*
X87701251Y-59290001I-218750J0D01*
G01*
X87263751Y-59290001D01*
G75*
G02*
X87045001Y-59071251I0J218750D01*
G01*
G37*
G36*
G01*
X85470001Y-59071251D02*
X85470001Y-58558751D01*
G75*
G02*
X85688751Y-58340001I218750J0D01*
G01*
X86126251Y-58340001D01*
G75*
G02*
X86345001Y-58558751I0J-218750D01*
G01*
X86345001Y-59071251D01*
G75*
G02*
X86126251Y-59290001I-218750J0D01*
G01*
X85688751Y-59290001D01*
G75*
G02*
X85470001Y-59071251I0J218750D01*
G01*
G37*
%TD*%
%TO.C,C60*%
G36*
G01*
X83035001Y-59071251D02*
X83035001Y-58558751D01*
G75*
G02*
X83253751Y-58340001I218750J0D01*
G01*
X83691251Y-58340001D01*
G75*
G02*
X83910001Y-58558751I0J-218750D01*
G01*
X83910001Y-59071251D01*
G75*
G02*
X83691251Y-59290001I-218750J0D01*
G01*
X83253751Y-59290001D01*
G75*
G02*
X83035001Y-59071251I0J218750D01*
G01*
G37*
G36*
G01*
X81460001Y-59071251D02*
X81460001Y-58558751D01*
G75*
G02*
X81678751Y-58340001I218750J0D01*
G01*
X82116251Y-58340001D01*
G75*
G02*
X82335001Y-58558751I0J-218750D01*
G01*
X82335001Y-59071251D01*
G75*
G02*
X82116251Y-59290001I-218750J0D01*
G01*
X81678751Y-59290001D01*
G75*
G02*
X81460001Y-59071251I0J218750D01*
G01*
G37*
%TD*%
%TO.C,C61*%
G36*
G01*
X79025001Y-59071251D02*
X79025001Y-58558751D01*
G75*
G02*
X79243751Y-58340001I218750J0D01*
G01*
X79681251Y-58340001D01*
G75*
G02*
X79900001Y-58558751I0J-218750D01*
G01*
X79900001Y-59071251D01*
G75*
G02*
X79681251Y-59290001I-218750J0D01*
G01*
X79243751Y-59290001D01*
G75*
G02*
X79025001Y-59071251I0J218750D01*
G01*
G37*
G36*
G01*
X77450001Y-59071251D02*
X77450001Y-58558751D01*
G75*
G02*
X77668751Y-58340001I218750J0D01*
G01*
X78106251Y-58340001D01*
G75*
G02*
X78325001Y-58558751I0J-218750D01*
G01*
X78325001Y-59071251D01*
G75*
G02*
X78106251Y-59290001I-218750J0D01*
G01*
X77668751Y-59290001D01*
G75*
G02*
X77450001Y-59071251I0J218750D01*
G01*
G37*
%TD*%
%TO.C,C62*%
G36*
G01*
X75015001Y-59071251D02*
X75015001Y-58558751D01*
G75*
G02*
X75233751Y-58340001I218750J0D01*
G01*
X75671251Y-58340001D01*
G75*
G02*
X75890001Y-58558751I0J-218750D01*
G01*
X75890001Y-59071251D01*
G75*
G02*
X75671251Y-59290001I-218750J0D01*
G01*
X75233751Y-59290001D01*
G75*
G02*
X75015001Y-59071251I0J218750D01*
G01*
G37*
G36*
G01*
X73440001Y-59071251D02*
X73440001Y-58558751D01*
G75*
G02*
X73658751Y-58340001I218750J0D01*
G01*
X74096251Y-58340001D01*
G75*
G02*
X74315001Y-58558751I0J-218750D01*
G01*
X74315001Y-59071251D01*
G75*
G02*
X74096251Y-59290001I-218750J0D01*
G01*
X73658751Y-59290001D01*
G75*
G02*
X73440001Y-59071251I0J218750D01*
G01*
G37*
%TD*%
%TO.C,C63*%
G36*
G01*
X69430001Y-59071251D02*
X69430001Y-58558751D01*
G75*
G02*
X69648751Y-58340001I218750J0D01*
G01*
X70086251Y-58340001D01*
G75*
G02*
X70305001Y-58558751I0J-218750D01*
G01*
X70305001Y-59071251D01*
G75*
G02*
X70086251Y-59290001I-218750J0D01*
G01*
X69648751Y-59290001D01*
G75*
G02*
X69430001Y-59071251I0J218750D01*
G01*
G37*
G36*
G01*
X71005001Y-59071251D02*
X71005001Y-58558751D01*
G75*
G02*
X71223751Y-58340001I218750J0D01*
G01*
X71661251Y-58340001D01*
G75*
G02*
X71880001Y-58558751I0J-218750D01*
G01*
X71880001Y-59071251D01*
G75*
G02*
X71661251Y-59290001I-218750J0D01*
G01*
X71223751Y-59290001D01*
G75*
G02*
X71005001Y-59071251I0J218750D01*
G01*
G37*
%TD*%
%TO.C,C64*%
G36*
G01*
X65420001Y-59071251D02*
X65420001Y-58558751D01*
G75*
G02*
X65638751Y-58340001I218750J0D01*
G01*
X66076251Y-58340001D01*
G75*
G02*
X66295001Y-58558751I0J-218750D01*
G01*
X66295001Y-59071251D01*
G75*
G02*
X66076251Y-59290001I-218750J0D01*
G01*
X65638751Y-59290001D01*
G75*
G02*
X65420001Y-59071251I0J218750D01*
G01*
G37*
G36*
G01*
X66995001Y-59071251D02*
X66995001Y-58558751D01*
G75*
G02*
X67213751Y-58340001I218750J0D01*
G01*
X67651251Y-58340001D01*
G75*
G02*
X67870001Y-58558751I0J-218750D01*
G01*
X67870001Y-59071251D01*
G75*
G02*
X67651251Y-59290001I-218750J0D01*
G01*
X67213751Y-59290001D01*
G75*
G02*
X66995001Y-59071251I0J218750D01*
G01*
G37*
%TD*%
%TO.C,C65*%
G36*
G01*
X-33740001Y-132708749D02*
X-33740001Y-133221249D01*
G75*
G02*
X-33958751Y-133439999I-218750J0D01*
G01*
X-34396251Y-133439999D01*
G75*
G02*
X-34615001Y-133221249I0J218750D01*
G01*
X-34615001Y-132708749D01*
G75*
G02*
X-34396251Y-132489999I218750J0D01*
G01*
X-33958751Y-132489999D01*
G75*
G02*
X-33740001Y-132708749I0J-218750D01*
G01*
G37*
G36*
G01*
X-35315001Y-132708749D02*
X-35315001Y-133221249D01*
G75*
G02*
X-35533751Y-133439999I-218750J0D01*
G01*
X-35971251Y-133439999D01*
G75*
G02*
X-36190001Y-133221249I0J218750D01*
G01*
X-36190001Y-132708749D01*
G75*
G02*
X-35971251Y-132489999I218750J0D01*
G01*
X-35533751Y-132489999D01*
G75*
G02*
X-35315001Y-132708749I0J-218750D01*
G01*
G37*
%TD*%
%TO.C,C66*%
G36*
G01*
X-31305001Y-132708749D02*
X-31305001Y-133221249D01*
G75*
G02*
X-31523751Y-133439999I-218750J0D01*
G01*
X-31961251Y-133439999D01*
G75*
G02*
X-32180001Y-133221249I0J218750D01*
G01*
X-32180001Y-132708749D01*
G75*
G02*
X-31961251Y-132489999I218750J0D01*
G01*
X-31523751Y-132489999D01*
G75*
G02*
X-31305001Y-132708749I0J-218750D01*
G01*
G37*
G36*
G01*
X-29730001Y-132708749D02*
X-29730001Y-133221249D01*
G75*
G02*
X-29948751Y-133439999I-218750J0D01*
G01*
X-30386251Y-133439999D01*
G75*
G02*
X-30605001Y-133221249I0J218750D01*
G01*
X-30605001Y-132708749D01*
G75*
G02*
X-30386251Y-132489999I218750J0D01*
G01*
X-29948751Y-132489999D01*
G75*
G02*
X-29730001Y-132708749I0J-218750D01*
G01*
G37*
%TD*%
%TO.C,C67*%
G36*
G01*
X-14185001Y-112968749D02*
X-14185001Y-113481249D01*
G75*
G02*
X-14403751Y-113699999I-218750J0D01*
G01*
X-14841251Y-113699999D01*
G75*
G02*
X-15060001Y-113481249I0J218750D01*
G01*
X-15060001Y-112968749D01*
G75*
G02*
X-14841251Y-112749999I218750J0D01*
G01*
X-14403751Y-112749999D01*
G75*
G02*
X-14185001Y-112968749I0J-218750D01*
G01*
G37*
G36*
G01*
X-12610001Y-112968749D02*
X-12610001Y-113481249D01*
G75*
G02*
X-12828751Y-113699999I-218750J0D01*
G01*
X-13266251Y-113699999D01*
G75*
G02*
X-13485001Y-113481249I0J218750D01*
G01*
X-13485001Y-112968749D01*
G75*
G02*
X-13266251Y-112749999I218750J0D01*
G01*
X-12828751Y-112749999D01*
G75*
G02*
X-12610001Y-112968749I0J-218750D01*
G01*
G37*
%TD*%
%TO.C,C68*%
G36*
G01*
X-20975001Y-120158749D02*
X-20975001Y-120671249D01*
G75*
G02*
X-21193751Y-120889999I-218750J0D01*
G01*
X-21631251Y-120889999D01*
G75*
G02*
X-21850001Y-120671249I0J218750D01*
G01*
X-21850001Y-120158749D01*
G75*
G02*
X-21631251Y-119939999I218750J0D01*
G01*
X-21193751Y-119939999D01*
G75*
G02*
X-20975001Y-120158749I0J-218750D01*
G01*
G37*
G36*
G01*
X-19400001Y-120158749D02*
X-19400001Y-120671249D01*
G75*
G02*
X-19618751Y-120889999I-218750J0D01*
G01*
X-20056251Y-120889999D01*
G75*
G02*
X-20275001Y-120671249I0J218750D01*
G01*
X-20275001Y-120158749D01*
G75*
G02*
X-20056251Y-119939999I218750J0D01*
G01*
X-19618751Y-119939999D01*
G75*
G02*
X-19400001Y-120158749I0J-218750D01*
G01*
G37*
%TD*%
%TO.C,C69*%
G36*
G01*
X234326250Y-83797500D02*
X233813750Y-83797500D01*
G75*
G02*
X233595000Y-83578750I0J218750D01*
G01*
X233595000Y-83141250D01*
G75*
G02*
X233813750Y-82922500I218750J0D01*
G01*
X234326250Y-82922500D01*
G75*
G02*
X234545000Y-83141250I0J-218750D01*
G01*
X234545000Y-83578750D01*
G75*
G02*
X234326250Y-83797500I-218750J0D01*
G01*
G37*
G36*
G01*
X234326250Y-82222500D02*
X233813750Y-82222500D01*
G75*
G02*
X233595000Y-82003750I0J218750D01*
G01*
X233595000Y-81566250D01*
G75*
G02*
X233813750Y-81347500I218750J0D01*
G01*
X234326250Y-81347500D01*
G75*
G02*
X234545000Y-81566250I0J-218750D01*
G01*
X234545000Y-82003750D01*
G75*
G02*
X234326250Y-82222500I-218750J0D01*
G01*
G37*
%TD*%
%TO.C,C70*%
G36*
G01*
X235826250Y-82222500D02*
X235313750Y-82222500D01*
G75*
G02*
X235095000Y-82003750I0J218750D01*
G01*
X235095000Y-81566250D01*
G75*
G02*
X235313750Y-81347500I218750J0D01*
G01*
X235826250Y-81347500D01*
G75*
G02*
X236045000Y-81566250I0J-218750D01*
G01*
X236045000Y-82003750D01*
G75*
G02*
X235826250Y-82222500I-218750J0D01*
G01*
G37*
G36*
G01*
X235826250Y-83797500D02*
X235313750Y-83797500D01*
G75*
G02*
X235095000Y-83578750I0J218750D01*
G01*
X235095000Y-83141250D01*
G75*
G02*
X235313750Y-82922500I218750J0D01*
G01*
X235826250Y-82922500D01*
G75*
G02*
X236045000Y-83141250I0J-218750D01*
G01*
X236045000Y-83578750D01*
G75*
G02*
X235826250Y-83797500I-218750J0D01*
G01*
G37*
%TD*%
%TO.C,C71*%
G36*
G01*
X229256250Y-91107500D02*
X228743750Y-91107500D01*
G75*
G02*
X228525000Y-90888750I0J218750D01*
G01*
X228525000Y-90451250D01*
G75*
G02*
X228743750Y-90232500I218750J0D01*
G01*
X229256250Y-90232500D01*
G75*
G02*
X229475000Y-90451250I0J-218750D01*
G01*
X229475000Y-90888750D01*
G75*
G02*
X229256250Y-91107500I-218750J0D01*
G01*
G37*
G36*
G01*
X229256250Y-92682500D02*
X228743750Y-92682500D01*
G75*
G02*
X228525000Y-92463750I0J218750D01*
G01*
X228525000Y-92026250D01*
G75*
G02*
X228743750Y-91807500I218750J0D01*
G01*
X229256250Y-91807500D01*
G75*
G02*
X229475000Y-92026250I0J-218750D01*
G01*
X229475000Y-92463750D01*
G75*
G02*
X229256250Y-92682500I-218750J0D01*
G01*
G37*
%TD*%
%TO.C,C72*%
G36*
G01*
X238906250Y-83792500D02*
X238393750Y-83792500D01*
G75*
G02*
X238175000Y-83573750I0J218750D01*
G01*
X238175000Y-83136250D01*
G75*
G02*
X238393750Y-82917500I218750J0D01*
G01*
X238906250Y-82917500D01*
G75*
G02*
X239125000Y-83136250I0J-218750D01*
G01*
X239125000Y-83573750D01*
G75*
G02*
X238906250Y-83792500I-218750J0D01*
G01*
G37*
G36*
G01*
X238906250Y-82217500D02*
X238393750Y-82217500D01*
G75*
G02*
X238175000Y-81998750I0J218750D01*
G01*
X238175000Y-81561250D01*
G75*
G02*
X238393750Y-81342500I218750J0D01*
G01*
X238906250Y-81342500D01*
G75*
G02*
X239125000Y-81561250I0J-218750D01*
G01*
X239125000Y-81998750D01*
G75*
G02*
X238906250Y-82217500I-218750J0D01*
G01*
G37*
%TD*%
%TO.C,C73*%
G36*
G01*
X227746250Y-91097500D02*
X227233750Y-91097500D01*
G75*
G02*
X227015000Y-90878750I0J218750D01*
G01*
X227015000Y-90441250D01*
G75*
G02*
X227233750Y-90222500I218750J0D01*
G01*
X227746250Y-90222500D01*
G75*
G02*
X227965000Y-90441250I0J-218750D01*
G01*
X227965000Y-90878750D01*
G75*
G02*
X227746250Y-91097500I-218750J0D01*
G01*
G37*
G36*
G01*
X227746250Y-92672500D02*
X227233750Y-92672500D01*
G75*
G02*
X227015000Y-92453750I0J218750D01*
G01*
X227015000Y-92016250D01*
G75*
G02*
X227233750Y-91797500I218750J0D01*
G01*
X227746250Y-91797500D01*
G75*
G02*
X227965000Y-92016250I0J-218750D01*
G01*
X227965000Y-92453750D01*
G75*
G02*
X227746250Y-92672500I-218750J0D01*
G01*
G37*
%TD*%
%TO.C,C74*%
G36*
G01*
X237406250Y-83792500D02*
X236893750Y-83792500D01*
G75*
G02*
X236675000Y-83573750I0J218750D01*
G01*
X236675000Y-83136250D01*
G75*
G02*
X236893750Y-82917500I218750J0D01*
G01*
X237406250Y-82917500D01*
G75*
G02*
X237625000Y-83136250I0J-218750D01*
G01*
X237625000Y-83573750D01*
G75*
G02*
X237406250Y-83792500I-218750J0D01*
G01*
G37*
G36*
G01*
X237406250Y-82217500D02*
X236893750Y-82217500D01*
G75*
G02*
X236675000Y-81998750I0J218750D01*
G01*
X236675000Y-81561250D01*
G75*
G02*
X236893750Y-81342500I218750J0D01*
G01*
X237406250Y-81342500D01*
G75*
G02*
X237625000Y-81561250I0J-218750D01*
G01*
X237625000Y-81998750D01*
G75*
G02*
X237406250Y-82217500I-218750J0D01*
G01*
G37*
%TD*%
%TO.C,C75*%
G36*
G01*
X233983750Y-89472500D02*
X234496250Y-89472500D01*
G75*
G02*
X234715000Y-89691250I0J-218750D01*
G01*
X234715000Y-90128750D01*
G75*
G02*
X234496250Y-90347500I-218750J0D01*
G01*
X233983750Y-90347500D01*
G75*
G02*
X233765000Y-90128750I0J218750D01*
G01*
X233765000Y-89691250D01*
G75*
G02*
X233983750Y-89472500I218750J0D01*
G01*
G37*
G36*
G01*
X233983750Y-87897500D02*
X234496250Y-87897500D01*
G75*
G02*
X234715000Y-88116250I0J-218750D01*
G01*
X234715000Y-88553750D01*
G75*
G02*
X234496250Y-88772500I-218750J0D01*
G01*
X233983750Y-88772500D01*
G75*
G02*
X233765000Y-88553750I0J218750D01*
G01*
X233765000Y-88116250D01*
G75*
G02*
X233983750Y-87897500I218750J0D01*
G01*
G37*
%TD*%
%TO.C,C76*%
G36*
G01*
X230983750Y-87897500D02*
X231496250Y-87897500D01*
G75*
G02*
X231715000Y-88116250I0J-218750D01*
G01*
X231715000Y-88553750D01*
G75*
G02*
X231496250Y-88772500I-218750J0D01*
G01*
X230983750Y-88772500D01*
G75*
G02*
X230765000Y-88553750I0J218750D01*
G01*
X230765000Y-88116250D01*
G75*
G02*
X230983750Y-87897500I218750J0D01*
G01*
G37*
G36*
G01*
X230983750Y-89472500D02*
X231496250Y-89472500D01*
G75*
G02*
X231715000Y-89691250I0J-218750D01*
G01*
X231715000Y-90128750D01*
G75*
G02*
X231496250Y-90347500I-218750J0D01*
G01*
X230983750Y-90347500D01*
G75*
G02*
X230765000Y-90128750I0J218750D01*
G01*
X230765000Y-89691250D01*
G75*
G02*
X230983750Y-89472500I218750J0D01*
G01*
G37*
%TD*%
%TO.C,C77*%
G36*
G01*
X232940000Y-79933750D02*
X232940000Y-80446250D01*
G75*
G02*
X232721250Y-80665000I-218750J0D01*
G01*
X232283750Y-80665000D01*
G75*
G02*
X232065000Y-80446250I0J218750D01*
G01*
X232065000Y-79933750D01*
G75*
G02*
X232283750Y-79715000I218750J0D01*
G01*
X232721250Y-79715000D01*
G75*
G02*
X232940000Y-79933750I0J-218750D01*
G01*
G37*
G36*
G01*
X234515000Y-79933750D02*
X234515000Y-80446250D01*
G75*
G02*
X234296250Y-80665000I-218750J0D01*
G01*
X233858750Y-80665000D01*
G75*
G02*
X233640000Y-80446250I0J218750D01*
G01*
X233640000Y-79933750D01*
G75*
G02*
X233858750Y-79715000I218750J0D01*
G01*
X234296250Y-79715000D01*
G75*
G02*
X234515000Y-79933750I0J-218750D01*
G01*
G37*
%TD*%
%TO.C,C78*%
G36*
G01*
X292993750Y-83525000D02*
X293506250Y-83525000D01*
G75*
G02*
X293725000Y-83743750I0J-218750D01*
G01*
X293725000Y-84181250D01*
G75*
G02*
X293506250Y-84400000I-218750J0D01*
G01*
X292993750Y-84400000D01*
G75*
G02*
X292775000Y-84181250I0J218750D01*
G01*
X292775000Y-83743750D01*
G75*
G02*
X292993750Y-83525000I218750J0D01*
G01*
G37*
G36*
G01*
X292993750Y-85100000D02*
X293506250Y-85100000D01*
G75*
G02*
X293725000Y-85318750I0J-218750D01*
G01*
X293725000Y-85756250D01*
G75*
G02*
X293506250Y-85975000I-218750J0D01*
G01*
X292993750Y-85975000D01*
G75*
G02*
X292775000Y-85756250I0J218750D01*
G01*
X292775000Y-85318750D01*
G75*
G02*
X292993750Y-85100000I218750J0D01*
G01*
G37*
%TD*%
%TO.C,C79*%
G36*
G01*
X231246250Y-82207500D02*
X230733750Y-82207500D01*
G75*
G02*
X230515000Y-81988750I0J218750D01*
G01*
X230515000Y-81551250D01*
G75*
G02*
X230733750Y-81332500I218750J0D01*
G01*
X231246250Y-81332500D01*
G75*
G02*
X231465000Y-81551250I0J-218750D01*
G01*
X231465000Y-81988750D01*
G75*
G02*
X231246250Y-82207500I-218750J0D01*
G01*
G37*
G36*
G01*
X231246250Y-83782500D02*
X230733750Y-83782500D01*
G75*
G02*
X230515000Y-83563750I0J218750D01*
G01*
X230515000Y-83126250D01*
G75*
G02*
X230733750Y-82907500I218750J0D01*
G01*
X231246250Y-82907500D01*
G75*
G02*
X231465000Y-83126250I0J-218750D01*
G01*
X231465000Y-83563750D01*
G75*
G02*
X231246250Y-83782500I-218750J0D01*
G01*
G37*
%TD*%
%TO.C,C80*%
G36*
G01*
X291993750Y-76062500D02*
X292506250Y-76062500D01*
G75*
G02*
X292725000Y-76281250I0J-218750D01*
G01*
X292725000Y-76718750D01*
G75*
G02*
X292506250Y-76937500I-218750J0D01*
G01*
X291993750Y-76937500D01*
G75*
G02*
X291775000Y-76718750I0J218750D01*
G01*
X291775000Y-76281250D01*
G75*
G02*
X291993750Y-76062500I218750J0D01*
G01*
G37*
G36*
G01*
X291993750Y-77637500D02*
X292506250Y-77637500D01*
G75*
G02*
X292725000Y-77856250I0J-218750D01*
G01*
X292725000Y-78293750D01*
G75*
G02*
X292506250Y-78512500I-218750J0D01*
G01*
X291993750Y-78512500D01*
G75*
G02*
X291775000Y-78293750I0J218750D01*
G01*
X291775000Y-77856250D01*
G75*
G02*
X291993750Y-77637500I218750J0D01*
G01*
G37*
%TD*%
%TO.C,C81*%
G36*
G01*
X294493750Y-87812500D02*
X295006250Y-87812500D01*
G75*
G02*
X295225000Y-88031250I0J-218750D01*
G01*
X295225000Y-88468750D01*
G75*
G02*
X295006250Y-88687500I-218750J0D01*
G01*
X294493750Y-88687500D01*
G75*
G02*
X294275000Y-88468750I0J218750D01*
G01*
X294275000Y-88031250D01*
G75*
G02*
X294493750Y-87812500I218750J0D01*
G01*
G37*
G36*
G01*
X294493750Y-89387500D02*
X295006250Y-89387500D01*
G75*
G02*
X295225000Y-89606250I0J-218750D01*
G01*
X295225000Y-90043750D01*
G75*
G02*
X295006250Y-90262500I-218750J0D01*
G01*
X294493750Y-90262500D01*
G75*
G02*
X294275000Y-90043750I0J218750D01*
G01*
X294275000Y-89606250D01*
G75*
G02*
X294493750Y-89387500I218750J0D01*
G01*
G37*
%TD*%
%TO.C,C82*%
G36*
G01*
X232483750Y-87897500D02*
X232996250Y-87897500D01*
G75*
G02*
X233215000Y-88116250I0J-218750D01*
G01*
X233215000Y-88553750D01*
G75*
G02*
X232996250Y-88772500I-218750J0D01*
G01*
X232483750Y-88772500D01*
G75*
G02*
X232265000Y-88553750I0J218750D01*
G01*
X232265000Y-88116250D01*
G75*
G02*
X232483750Y-87897500I218750J0D01*
G01*
G37*
G36*
G01*
X232483750Y-89472500D02*
X232996250Y-89472500D01*
G75*
G02*
X233215000Y-89691250I0J-218750D01*
G01*
X233215000Y-90128750D01*
G75*
G02*
X232996250Y-90347500I-218750J0D01*
G01*
X232483750Y-90347500D01*
G75*
G02*
X232265000Y-90128750I0J218750D01*
G01*
X232265000Y-89691250D01*
G75*
G02*
X232483750Y-89472500I218750J0D01*
G01*
G37*
%TD*%
%TO.C,C83*%
G36*
G01*
X232746250Y-82207500D02*
X232233750Y-82207500D01*
G75*
G02*
X232015000Y-81988750I0J218750D01*
G01*
X232015000Y-81551250D01*
G75*
G02*
X232233750Y-81332500I218750J0D01*
G01*
X232746250Y-81332500D01*
G75*
G02*
X232965000Y-81551250I0J-218750D01*
G01*
X232965000Y-81988750D01*
G75*
G02*
X232746250Y-82207500I-218750J0D01*
G01*
G37*
G36*
G01*
X232746250Y-83782500D02*
X232233750Y-83782500D01*
G75*
G02*
X232015000Y-83563750I0J218750D01*
G01*
X232015000Y-83126250D01*
G75*
G02*
X232233750Y-82907500I218750J0D01*
G01*
X232746250Y-82907500D01*
G75*
G02*
X232965000Y-83126250I0J-218750D01*
G01*
X232965000Y-83563750D01*
G75*
G02*
X232746250Y-83782500I-218750J0D01*
G01*
G37*
%TD*%
%TO.C,D1*%
G36*
G01*
X236387500Y-157356250D02*
X236387500Y-156843750D01*
G75*
G02*
X236606250Y-156625000I218750J0D01*
G01*
X237043750Y-156625000D01*
G75*
G02*
X237262500Y-156843750I0J-218750D01*
G01*
X237262500Y-157356250D01*
G75*
G02*
X237043750Y-157575000I-218750J0D01*
G01*
X236606250Y-157575000D01*
G75*
G02*
X236387500Y-157356250I0J218750D01*
G01*
G37*
G36*
G01*
X237962500Y-157356250D02*
X237962500Y-156843750D01*
G75*
G02*
X238181250Y-156625000I218750J0D01*
G01*
X238618750Y-156625000D01*
G75*
G02*
X238837500Y-156843750I0J-218750D01*
G01*
X238837500Y-157356250D01*
G75*
G02*
X238618750Y-157575000I-218750J0D01*
G01*
X238181250Y-157575000D01*
G75*
G02*
X237962500Y-157356250I0J218750D01*
G01*
G37*
%TD*%
%TO.C,D2*%
G36*
G01*
X237962500Y-161356250D02*
X237962500Y-160843750D01*
G75*
G02*
X238181250Y-160625000I218750J0D01*
G01*
X238618750Y-160625000D01*
G75*
G02*
X238837500Y-160843750I0J-218750D01*
G01*
X238837500Y-161356250D01*
G75*
G02*
X238618750Y-161575000I-218750J0D01*
G01*
X238181250Y-161575000D01*
G75*
G02*
X237962500Y-161356250I0J218750D01*
G01*
G37*
G36*
G01*
X236387500Y-161356250D02*
X236387500Y-160843750D01*
G75*
G02*
X236606250Y-160625000I218750J0D01*
G01*
X237043750Y-160625000D01*
G75*
G02*
X237262500Y-160843750I0J-218750D01*
G01*
X237262500Y-161356250D01*
G75*
G02*
X237043750Y-161575000I-218750J0D01*
G01*
X236606250Y-161575000D01*
G75*
G02*
X236387500Y-161356250I0J218750D01*
G01*
G37*
%TD*%
%TO.C,D3*%
G36*
G01*
X72424999Y-85418749D02*
X72424999Y-85931249D01*
G75*
G02*
X72206249Y-86149999I-218750J0D01*
G01*
X71768749Y-86149999D01*
G75*
G02*
X71549999Y-85931249I0J218750D01*
G01*
X71549999Y-85418749D01*
G75*
G02*
X71768749Y-85199999I218750J0D01*
G01*
X72206249Y-85199999D01*
G75*
G02*
X72424999Y-85418749I0J-218750D01*
G01*
G37*
G36*
G01*
X73999999Y-85418749D02*
X73999999Y-85931249D01*
G75*
G02*
X73781249Y-86149999I-218750J0D01*
G01*
X73343749Y-86149999D01*
G75*
G02*
X73124999Y-85931249I0J218750D01*
G01*
X73124999Y-85418749D01*
G75*
G02*
X73343749Y-85199999I218750J0D01*
G01*
X73781249Y-85199999D01*
G75*
G02*
X73999999Y-85418749I0J-218750D01*
G01*
G37*
%TD*%
%TO.C,D4*%
G36*
G01*
X23449999Y-132668749D02*
X23449999Y-133181249D01*
G75*
G02*
X23231249Y-133399999I-218750J0D01*
G01*
X22793749Y-133399999D01*
G75*
G02*
X22574999Y-133181249I0J218750D01*
G01*
X22574999Y-132668749D01*
G75*
G02*
X22793749Y-132449999I218750J0D01*
G01*
X23231249Y-132449999D01*
G75*
G02*
X23449999Y-132668749I0J-218750D01*
G01*
G37*
G36*
G01*
X21874999Y-132668749D02*
X21874999Y-133181249D01*
G75*
G02*
X21656249Y-133399999I-218750J0D01*
G01*
X21218749Y-133399999D01*
G75*
G02*
X20999999Y-133181249I0J218750D01*
G01*
X20999999Y-132668749D01*
G75*
G02*
X21218749Y-132449999I218750J0D01*
G01*
X21656249Y-132449999D01*
G75*
G02*
X21874999Y-132668749I0J-218750D01*
G01*
G37*
%TD*%
D18*
%TO.C,D5*%
X245150000Y-131100000D03*
X243250000Y-131100000D03*
X244200000Y-133100000D03*
%TD*%
%TO.C,D6*%
X240600000Y-133100000D03*
X239650000Y-131100000D03*
X241550000Y-131100000D03*
%TD*%
%TO.C,D7*%
X237950000Y-131100000D03*
X236050000Y-131100000D03*
X237000000Y-133100000D03*
%TD*%
%TO.C,D8*%
X233400000Y-133100000D03*
X232450000Y-131100000D03*
X234350000Y-131100000D03*
%TD*%
%TO.C,D9*%
G36*
G01*
X11933999Y-113344499D02*
X11933999Y-113545499D01*
G75*
G02*
X11854499Y-113624999I-79500J0D01*
G01*
X11695499Y-113624999D01*
G75*
G02*
X11615999Y-113545499I0J79500D01*
G01*
X11615999Y-113344499D01*
G75*
G02*
X11695499Y-113264999I79500J0D01*
G01*
X11854499Y-113264999D01*
G75*
G02*
X11933999Y-113344499I0J-79500D01*
G01*
G37*
G36*
G01*
X11243999Y-113344499D02*
X11243999Y-113545499D01*
G75*
G02*
X11164499Y-113624999I-79500J0D01*
G01*
X11005499Y-113624999D01*
G75*
G02*
X10925999Y-113545499I0J79500D01*
G01*
X10925999Y-113344499D01*
G75*
G02*
X11005499Y-113264999I79500J0D01*
G01*
X11164499Y-113264999D01*
G75*
G02*
X11243999Y-113344499I0J-79500D01*
G01*
G37*
%TD*%
D19*
%TO.C,J25*%
X179950000Y-24800000D03*
X200650000Y-24800000D03*
D20*
X199550000Y-24025000D03*
X199300000Y-31575000D03*
X199050000Y-24025000D03*
X198800000Y-31575000D03*
X198550000Y-24025000D03*
X198300000Y-31575000D03*
X198050000Y-24025000D03*
X197800000Y-31575000D03*
X197550000Y-24025000D03*
X197300000Y-31575000D03*
X197050000Y-24025000D03*
X196800000Y-31575000D03*
X196550000Y-24025000D03*
X196300000Y-31575000D03*
X196050000Y-24025000D03*
X195800000Y-31575000D03*
X195550000Y-24025000D03*
X195300000Y-31575000D03*
X195050000Y-24025000D03*
X194800000Y-31575000D03*
X194550000Y-24025000D03*
X194300000Y-31575000D03*
X194050000Y-24025000D03*
X193800000Y-31575000D03*
X193550000Y-24025000D03*
X193300000Y-31575000D03*
X193050000Y-24025000D03*
X192800000Y-31575000D03*
X192550000Y-24025000D03*
X192300000Y-31575000D03*
X192050000Y-24025000D03*
X191800000Y-31575000D03*
X191550000Y-24025000D03*
X191300000Y-31575000D03*
X191050000Y-24025000D03*
X190800000Y-31575000D03*
X190550000Y-24025000D03*
X190300000Y-31575000D03*
X190050000Y-24025000D03*
X189800000Y-31575000D03*
X189550000Y-24025000D03*
X189300000Y-31575000D03*
X189050000Y-24025000D03*
X188800000Y-31575000D03*
X188550000Y-24025000D03*
X188300000Y-31575000D03*
X188050000Y-24025000D03*
X187800000Y-31575000D03*
X187550000Y-24025000D03*
X187300000Y-31575000D03*
X187050000Y-24025000D03*
X186800000Y-31575000D03*
X186550000Y-24025000D03*
X186300000Y-31575000D03*
X186050000Y-24025000D03*
X185800000Y-31575000D03*
X185550000Y-24025000D03*
X185300000Y-31575000D03*
X185050000Y-24025000D03*
X184800000Y-31575000D03*
X184550000Y-24025000D03*
X184300000Y-31575000D03*
X184050000Y-24025000D03*
X183800000Y-31575000D03*
X183550000Y-24025000D03*
X183300000Y-31575000D03*
X183050000Y-24025000D03*
X182800000Y-31575000D03*
X182550000Y-24025000D03*
X182300000Y-31575000D03*
X182050000Y-24025000D03*
X181800000Y-31575000D03*
X181550000Y-24025000D03*
X181300000Y-31575000D03*
X181050000Y-24025000D03*
%TD*%
D21*
%TO.C,J27*%
X140225000Y-80150000D03*
X147775000Y-79900000D03*
X140225000Y-79650000D03*
X147775000Y-79400000D03*
X140225000Y-79150000D03*
X147775000Y-78900000D03*
X140225000Y-78650000D03*
X147775000Y-78400000D03*
X140225000Y-78150000D03*
X147775000Y-77900000D03*
X140225000Y-77650000D03*
X147775000Y-77400000D03*
X140225000Y-77150000D03*
X147775000Y-76900000D03*
X140225000Y-76650000D03*
X147775000Y-76400000D03*
X140225000Y-76150000D03*
X147775000Y-75900000D03*
X140225000Y-75650000D03*
X147775000Y-75400000D03*
X140225000Y-75150000D03*
X147775000Y-74900000D03*
X140225000Y-74650000D03*
X147775000Y-74400000D03*
X140225000Y-74150000D03*
X147775000Y-73900000D03*
X140225000Y-73650000D03*
X147775000Y-73400000D03*
X140225000Y-73150000D03*
X147775000Y-72900000D03*
X140225000Y-72650000D03*
X147775000Y-72400000D03*
X140225000Y-72150000D03*
X147775000Y-71900000D03*
X140225000Y-71650000D03*
X147775000Y-71400000D03*
X140225000Y-71150000D03*
X147775000Y-70900000D03*
X140225000Y-70650000D03*
X147775000Y-70400000D03*
X140225000Y-70150000D03*
X147775000Y-69900000D03*
X140225000Y-69650000D03*
X147775000Y-69400000D03*
X140225000Y-69150000D03*
X147775000Y-68900000D03*
X140225000Y-68650000D03*
X147775000Y-68400000D03*
X140225000Y-68150000D03*
X147775000Y-67900000D03*
X140225000Y-67650000D03*
X147775000Y-67400000D03*
X140225000Y-67150000D03*
X147775000Y-66900000D03*
X140225000Y-66650000D03*
X147775000Y-66400000D03*
X140225000Y-66150000D03*
X147775000Y-65900000D03*
X140225000Y-65650000D03*
X147775000Y-65400000D03*
X140225000Y-65150000D03*
X147775000Y-64900000D03*
X140225000Y-64650000D03*
X147775000Y-64400000D03*
X140225000Y-64150000D03*
X147775000Y-63900000D03*
X140225000Y-63650000D03*
X147775000Y-63400000D03*
X140225000Y-63150000D03*
X147775000Y-62900000D03*
X140225000Y-62650000D03*
X147775000Y-62400000D03*
X140225000Y-62150000D03*
X147775000Y-61900000D03*
X140225000Y-61650000D03*
D22*
X141000000Y-60550000D03*
X141000000Y-81250000D03*
%TD*%
D19*
%TO.C,J28*%
X152350000Y-24700000D03*
X173050000Y-24700000D03*
D20*
X171950000Y-23925000D03*
X171700000Y-31475000D03*
X171450000Y-23925000D03*
X171200000Y-31475000D03*
X170950000Y-23925000D03*
X170700000Y-31475000D03*
X170450000Y-23925000D03*
X170200000Y-31475000D03*
X169950000Y-23925000D03*
X169700000Y-31475000D03*
X169450000Y-23925000D03*
X169200000Y-31475000D03*
X168950000Y-23925000D03*
X168700000Y-31475000D03*
X168450000Y-23925000D03*
X168200000Y-31475000D03*
X167950000Y-23925000D03*
X167700000Y-31475000D03*
X167450000Y-23925000D03*
X167200000Y-31475000D03*
X166950000Y-23925000D03*
X166700000Y-31475000D03*
X166450000Y-23925000D03*
X166200000Y-31475000D03*
X165950000Y-23925000D03*
X165700000Y-31475000D03*
X165450000Y-23925000D03*
X165200000Y-31475000D03*
X164950000Y-23925000D03*
X164700000Y-31475000D03*
X164450000Y-23925000D03*
X164200000Y-31475000D03*
X163950000Y-23925000D03*
X163700000Y-31475000D03*
X163450000Y-23925000D03*
X163200000Y-31475000D03*
X162950000Y-23925000D03*
X162700000Y-31475000D03*
X162450000Y-23925000D03*
X162200000Y-31475000D03*
X161950000Y-23925000D03*
X161700000Y-31475000D03*
X161450000Y-23925000D03*
X161200000Y-31475000D03*
X160950000Y-23925000D03*
X160700000Y-31475000D03*
X160450000Y-23925000D03*
X160200000Y-31475000D03*
X159950000Y-23925000D03*
X159700000Y-31475000D03*
X159450000Y-23925000D03*
X159200000Y-31475000D03*
X158950000Y-23925000D03*
X158700000Y-31475000D03*
X158450000Y-23925000D03*
X158200000Y-31475000D03*
X157950000Y-23925000D03*
X157700000Y-31475000D03*
X157450000Y-23925000D03*
X157200000Y-31475000D03*
X156950000Y-23925000D03*
X156700000Y-31475000D03*
X156450000Y-23925000D03*
X156200000Y-31475000D03*
X155950000Y-23925000D03*
X155700000Y-31475000D03*
X155450000Y-23925000D03*
X155200000Y-31475000D03*
X154950000Y-23925000D03*
X154700000Y-31475000D03*
X154450000Y-23925000D03*
X154200000Y-31475000D03*
X153950000Y-23925000D03*
X153700000Y-31475000D03*
X153450000Y-23925000D03*
%TD*%
D21*
%TO.C,J29*%
X140125000Y-54550000D03*
X147675000Y-54300000D03*
X140125000Y-54050000D03*
X147675000Y-53800000D03*
X140125000Y-53550000D03*
X147675000Y-53300000D03*
X140125000Y-53050000D03*
X147675000Y-52800000D03*
X140125000Y-52550000D03*
X147675000Y-52300000D03*
X140125000Y-52050000D03*
X147675000Y-51800000D03*
X140125000Y-51550000D03*
X147675000Y-51300000D03*
X140125000Y-51050000D03*
X147675000Y-50800000D03*
X140125000Y-50550000D03*
X147675000Y-50300000D03*
X140125000Y-50050000D03*
X147675000Y-49800000D03*
X140125000Y-49550000D03*
X147675000Y-49300000D03*
X140125000Y-49050000D03*
X147675000Y-48800000D03*
X140125000Y-48550000D03*
X147675000Y-48300000D03*
X140125000Y-48050000D03*
X147675000Y-47800000D03*
X140125000Y-47550000D03*
X147675000Y-47300000D03*
X140125000Y-47050000D03*
X147675000Y-46800000D03*
X140125000Y-46550000D03*
X147675000Y-46300000D03*
X140125000Y-46050000D03*
X147675000Y-45800000D03*
X140125000Y-45550000D03*
X147675000Y-45300000D03*
X140125000Y-45050000D03*
X147675000Y-44800000D03*
X140125000Y-44550000D03*
X147675000Y-44300000D03*
X140125000Y-44050000D03*
X147675000Y-43800000D03*
X140125000Y-43550000D03*
X147675000Y-43300000D03*
X140125000Y-43050000D03*
X147675000Y-42800000D03*
X140125000Y-42550000D03*
X147675000Y-42300000D03*
X140125000Y-42050000D03*
X147675000Y-41800000D03*
X140125000Y-41550000D03*
X147675000Y-41300000D03*
X140125000Y-41050000D03*
X147675000Y-40800000D03*
X140125000Y-40550000D03*
X147675000Y-40300000D03*
X140125000Y-40050000D03*
X147675000Y-39800000D03*
X140125000Y-39550000D03*
X147675000Y-39300000D03*
X140125000Y-39050000D03*
X147675000Y-38800000D03*
X140125000Y-38550000D03*
X147675000Y-38300000D03*
X140125000Y-38050000D03*
X147675000Y-37800000D03*
X140125000Y-37550000D03*
X147675000Y-37300000D03*
X140125000Y-37050000D03*
X147675000Y-36800000D03*
X140125000Y-36550000D03*
X147675000Y-36300000D03*
X140125000Y-36050000D03*
D22*
X140900000Y-34950000D03*
X140900000Y-55650000D03*
%TD*%
%TO.C,L1*%
G36*
G01*
X235543750Y-147550000D02*
X236056250Y-147550000D01*
G75*
G02*
X236275000Y-147768750I0J-218750D01*
G01*
X236275000Y-148206250D01*
G75*
G02*
X236056250Y-148425000I-218750J0D01*
G01*
X235543750Y-148425000D01*
G75*
G02*
X235325000Y-148206250I0J218750D01*
G01*
X235325000Y-147768750D01*
G75*
G02*
X235543750Y-147550000I218750J0D01*
G01*
G37*
G36*
G01*
X235543750Y-145975000D02*
X236056250Y-145975000D01*
G75*
G02*
X236275000Y-146193750I0J-218750D01*
G01*
X236275000Y-146631250D01*
G75*
G02*
X236056250Y-146850000I-218750J0D01*
G01*
X235543750Y-146850000D01*
G75*
G02*
X235325000Y-146631250I0J218750D01*
G01*
X235325000Y-146193750D01*
G75*
G02*
X235543750Y-145975000I218750J0D01*
G01*
G37*
%TD*%
%TO.C,L2*%
G36*
G01*
X238543750Y-145975000D02*
X239056250Y-145975000D01*
G75*
G02*
X239275000Y-146193750I0J-218750D01*
G01*
X239275000Y-146631250D01*
G75*
G02*
X239056250Y-146850000I-218750J0D01*
G01*
X238543750Y-146850000D01*
G75*
G02*
X238325000Y-146631250I0J218750D01*
G01*
X238325000Y-146193750D01*
G75*
G02*
X238543750Y-145975000I218750J0D01*
G01*
G37*
G36*
G01*
X238543750Y-147550000D02*
X239056250Y-147550000D01*
G75*
G02*
X239275000Y-147768750I0J-218750D01*
G01*
X239275000Y-148206250D01*
G75*
G02*
X239056250Y-148425000I-218750J0D01*
G01*
X238543750Y-148425000D01*
G75*
G02*
X238325000Y-148206250I0J218750D01*
G01*
X238325000Y-147768750D01*
G75*
G02*
X238543750Y-147550000I218750J0D01*
G01*
G37*
%TD*%
D23*
%TO.C,Q1*%
X64694999Y-95044999D03*
X64694999Y-93144999D03*
X62694999Y-94094999D03*
%TD*%
%TO.C,Q2*%
X69144999Y-95044999D03*
X69144999Y-93144999D03*
X67144999Y-94094999D03*
%TD*%
%TO.C,Q3*%
X76044999Y-87344999D03*
X78044999Y-86394999D03*
X78044999Y-88294999D03*
%TD*%
%TO.C,Q4*%
X67144999Y-89544999D03*
X69144999Y-88594999D03*
X69144999Y-90494999D03*
%TD*%
%TO.C,Q5*%
X73594999Y-90194999D03*
X73594999Y-88294999D03*
X71594999Y-89244999D03*
%TD*%
%TO.C,R1*%
G36*
G01*
X232750000Y-158243750D02*
X232750000Y-158756250D01*
G75*
G02*
X232531250Y-158975000I-218750J0D01*
G01*
X232093750Y-158975000D01*
G75*
G02*
X231875000Y-158756250I0J218750D01*
G01*
X231875000Y-158243750D01*
G75*
G02*
X232093750Y-158025000I218750J0D01*
G01*
X232531250Y-158025000D01*
G75*
G02*
X232750000Y-158243750I0J-218750D01*
G01*
G37*
G36*
G01*
X234325000Y-158243750D02*
X234325000Y-158756250D01*
G75*
G02*
X234106250Y-158975000I-218750J0D01*
G01*
X233668750Y-158975000D01*
G75*
G02*
X233450000Y-158756250I0J218750D01*
G01*
X233450000Y-158243750D01*
G75*
G02*
X233668750Y-158025000I218750J0D01*
G01*
X234106250Y-158025000D01*
G75*
G02*
X234325000Y-158243750I0J-218750D01*
G01*
G37*
%TD*%
%TO.C,R2*%
G36*
G01*
X234325000Y-159743750D02*
X234325000Y-160256250D01*
G75*
G02*
X234106250Y-160475000I-218750J0D01*
G01*
X233668750Y-160475000D01*
G75*
G02*
X233450000Y-160256250I0J218750D01*
G01*
X233450000Y-159743750D01*
G75*
G02*
X233668750Y-159525000I218750J0D01*
G01*
X234106250Y-159525000D01*
G75*
G02*
X234325000Y-159743750I0J-218750D01*
G01*
G37*
G36*
G01*
X232750000Y-159743750D02*
X232750000Y-160256250D01*
G75*
G02*
X232531250Y-160475000I-218750J0D01*
G01*
X232093750Y-160475000D01*
G75*
G02*
X231875000Y-160256250I0J218750D01*
G01*
X231875000Y-159743750D01*
G75*
G02*
X232093750Y-159525000I218750J0D01*
G01*
X232531250Y-159525000D01*
G75*
G02*
X232750000Y-159743750I0J-218750D01*
G01*
G37*
%TD*%
%TO.C,R3*%
G36*
G01*
X232750000Y-162743750D02*
X232750000Y-163256250D01*
G75*
G02*
X232531250Y-163475000I-218750J0D01*
G01*
X232093750Y-163475000D01*
G75*
G02*
X231875000Y-163256250I0J218750D01*
G01*
X231875000Y-162743750D01*
G75*
G02*
X232093750Y-162525000I218750J0D01*
G01*
X232531250Y-162525000D01*
G75*
G02*
X232750000Y-162743750I0J-218750D01*
G01*
G37*
G36*
G01*
X234325000Y-162743750D02*
X234325000Y-163256250D01*
G75*
G02*
X234106250Y-163475000I-218750J0D01*
G01*
X233668750Y-163475000D01*
G75*
G02*
X233450000Y-163256250I0J218750D01*
G01*
X233450000Y-162743750D01*
G75*
G02*
X233668750Y-162525000I218750J0D01*
G01*
X234106250Y-162525000D01*
G75*
G02*
X234325000Y-162743750I0J-218750D01*
G01*
G37*
%TD*%
%TO.C,R4*%
G36*
G01*
X233437500Y-161756250D02*
X233437500Y-161243750D01*
G75*
G02*
X233656250Y-161025000I218750J0D01*
G01*
X234093750Y-161025000D01*
G75*
G02*
X234312500Y-161243750I0J-218750D01*
G01*
X234312500Y-161756250D01*
G75*
G02*
X234093750Y-161975000I-218750J0D01*
G01*
X233656250Y-161975000D01*
G75*
G02*
X233437500Y-161756250I0J218750D01*
G01*
G37*
G36*
G01*
X231862500Y-161756250D02*
X231862500Y-161243750D01*
G75*
G02*
X232081250Y-161025000I218750J0D01*
G01*
X232518750Y-161025000D01*
G75*
G02*
X232737500Y-161243750I0J-218750D01*
G01*
X232737500Y-161756250D01*
G75*
G02*
X232518750Y-161975000I-218750J0D01*
G01*
X232081250Y-161975000D01*
G75*
G02*
X231862500Y-161756250I0J218750D01*
G01*
G37*
%TD*%
%TO.C,R5*%
G36*
G01*
X237556250Y-146850000D02*
X237043750Y-146850000D01*
G75*
G02*
X236825000Y-146631250I0J218750D01*
G01*
X236825000Y-146193750D01*
G75*
G02*
X237043750Y-145975000I218750J0D01*
G01*
X237556250Y-145975000D01*
G75*
G02*
X237775000Y-146193750I0J-218750D01*
G01*
X237775000Y-146631250D01*
G75*
G02*
X237556250Y-146850000I-218750J0D01*
G01*
G37*
G36*
G01*
X237556250Y-148425000D02*
X237043750Y-148425000D01*
G75*
G02*
X236825000Y-148206250I0J218750D01*
G01*
X236825000Y-147768750D01*
G75*
G02*
X237043750Y-147550000I218750J0D01*
G01*
X237556250Y-147550000D01*
G75*
G02*
X237775000Y-147768750I0J-218750D01*
G01*
X237775000Y-148206250D01*
G75*
G02*
X237556250Y-148425000I-218750J0D01*
G01*
G37*
%TD*%
%TO.C,R6*%
G36*
G01*
X233056250Y-148425000D02*
X232543750Y-148425000D01*
G75*
G02*
X232325000Y-148206250I0J218750D01*
G01*
X232325000Y-147768750D01*
G75*
G02*
X232543750Y-147550000I218750J0D01*
G01*
X233056250Y-147550000D01*
G75*
G02*
X233275000Y-147768750I0J-218750D01*
G01*
X233275000Y-148206250D01*
G75*
G02*
X233056250Y-148425000I-218750J0D01*
G01*
G37*
G36*
G01*
X233056250Y-146850000D02*
X232543750Y-146850000D01*
G75*
G02*
X232325000Y-146631250I0J218750D01*
G01*
X232325000Y-146193750D01*
G75*
G02*
X232543750Y-145975000I218750J0D01*
G01*
X233056250Y-145975000D01*
G75*
G02*
X233275000Y-146193750I0J-218750D01*
G01*
X233275000Y-146631250D01*
G75*
G02*
X233056250Y-146850000I-218750J0D01*
G01*
G37*
%TD*%
%TO.C,R7*%
G36*
G01*
X236387500Y-159356250D02*
X236387500Y-158843750D01*
G75*
G02*
X236606250Y-158625000I218750J0D01*
G01*
X237043750Y-158625000D01*
G75*
G02*
X237262500Y-158843750I0J-218750D01*
G01*
X237262500Y-159356250D01*
G75*
G02*
X237043750Y-159575000I-218750J0D01*
G01*
X236606250Y-159575000D01*
G75*
G02*
X236387500Y-159356250I0J218750D01*
G01*
G37*
G36*
G01*
X237962500Y-159356250D02*
X237962500Y-158843750D01*
G75*
G02*
X238181250Y-158625000I218750J0D01*
G01*
X238618750Y-158625000D01*
G75*
G02*
X238837500Y-158843750I0J-218750D01*
G01*
X238837500Y-159356250D01*
G75*
G02*
X238618750Y-159575000I-218750J0D01*
G01*
X238181250Y-159575000D01*
G75*
G02*
X237962500Y-159356250I0J218750D01*
G01*
G37*
%TD*%
%TO.C,R8*%
G36*
G01*
X237962500Y-163356250D02*
X237962500Y-162843750D01*
G75*
G02*
X238181250Y-162625000I218750J0D01*
G01*
X238618750Y-162625000D01*
G75*
G02*
X238837500Y-162843750I0J-218750D01*
G01*
X238837500Y-163356250D01*
G75*
G02*
X238618750Y-163575000I-218750J0D01*
G01*
X238181250Y-163575000D01*
G75*
G02*
X237962500Y-163356250I0J218750D01*
G01*
G37*
G36*
G01*
X236387500Y-163356250D02*
X236387500Y-162843750D01*
G75*
G02*
X236606250Y-162625000I218750J0D01*
G01*
X237043750Y-162625000D01*
G75*
G02*
X237262500Y-162843750I0J-218750D01*
G01*
X237262500Y-163356250D01*
G75*
G02*
X237043750Y-163575000I-218750J0D01*
G01*
X236606250Y-163575000D01*
G75*
G02*
X236387500Y-163356250I0J218750D01*
G01*
G37*
%TD*%
%TO.C,R9*%
G36*
G01*
X39889999Y-112628749D02*
X39889999Y-113141249D01*
G75*
G02*
X39671249Y-113359999I-218750J0D01*
G01*
X39233749Y-113359999D01*
G75*
G02*
X39014999Y-113141249I0J218750D01*
G01*
X39014999Y-112628749D01*
G75*
G02*
X39233749Y-112409999I218750J0D01*
G01*
X39671249Y-112409999D01*
G75*
G02*
X39889999Y-112628749I0J-218750D01*
G01*
G37*
G36*
G01*
X38314999Y-112628749D02*
X38314999Y-113141249D01*
G75*
G02*
X38096249Y-113359999I-218750J0D01*
G01*
X37658749Y-113359999D01*
G75*
G02*
X37439999Y-113141249I0J218750D01*
G01*
X37439999Y-112628749D01*
G75*
G02*
X37658749Y-112409999I218750J0D01*
G01*
X38096249Y-112409999D01*
G75*
G02*
X38314999Y-112628749I0J-218750D01*
G01*
G37*
%TD*%
%TO.C,R10*%
G36*
G01*
X57119999Y-90308749D02*
X57119999Y-90821249D01*
G75*
G02*
X56901249Y-91039999I-218750J0D01*
G01*
X56463749Y-91039999D01*
G75*
G02*
X56244999Y-90821249I0J218750D01*
G01*
X56244999Y-90308749D01*
G75*
G02*
X56463749Y-90089999I218750J0D01*
G01*
X56901249Y-90089999D01*
G75*
G02*
X57119999Y-90308749I0J-218750D01*
G01*
G37*
G36*
G01*
X55544999Y-90308749D02*
X55544999Y-90821249D01*
G75*
G02*
X55326249Y-91039999I-218750J0D01*
G01*
X54888749Y-91039999D01*
G75*
G02*
X54669999Y-90821249I0J218750D01*
G01*
X54669999Y-90308749D01*
G75*
G02*
X54888749Y-90089999I218750J0D01*
G01*
X55326249Y-90089999D01*
G75*
G02*
X55544999Y-90308749I0J-218750D01*
G01*
G37*
%TD*%
%TO.C,R11*%
G36*
G01*
X41834999Y-100378749D02*
X41834999Y-100891249D01*
G75*
G02*
X41616249Y-101109999I-218750J0D01*
G01*
X41178749Y-101109999D01*
G75*
G02*
X40959999Y-100891249I0J218750D01*
G01*
X40959999Y-100378749D01*
G75*
G02*
X41178749Y-100159999I218750J0D01*
G01*
X41616249Y-100159999D01*
G75*
G02*
X41834999Y-100378749I0J-218750D01*
G01*
G37*
G36*
G01*
X43409999Y-100378749D02*
X43409999Y-100891249D01*
G75*
G02*
X43191249Y-101109999I-218750J0D01*
G01*
X42753749Y-101109999D01*
G75*
G02*
X42534999Y-100891249I0J218750D01*
G01*
X42534999Y-100378749D01*
G75*
G02*
X42753749Y-100159999I218750J0D01*
G01*
X43191249Y-100159999D01*
G75*
G02*
X43409999Y-100378749I0J-218750D01*
G01*
G37*
%TD*%
%TO.C,R12*%
G36*
G01*
X52669999Y-97838749D02*
X52669999Y-98351249D01*
G75*
G02*
X52451249Y-98569999I-218750J0D01*
G01*
X52013749Y-98569999D01*
G75*
G02*
X51794999Y-98351249I0J218750D01*
G01*
X51794999Y-97838749D01*
G75*
G02*
X52013749Y-97619999I218750J0D01*
G01*
X52451249Y-97619999D01*
G75*
G02*
X52669999Y-97838749I0J-218750D01*
G01*
G37*
G36*
G01*
X51094999Y-97838749D02*
X51094999Y-98351249D01*
G75*
G02*
X50876249Y-98569999I-218750J0D01*
G01*
X50438749Y-98569999D01*
G75*
G02*
X50219999Y-98351249I0J218750D01*
G01*
X50219999Y-97838749D01*
G75*
G02*
X50438749Y-97619999I218750J0D01*
G01*
X50876249Y-97619999D01*
G75*
G02*
X51094999Y-97838749I0J-218750D01*
G01*
G37*
%TD*%
%TO.C,R13*%
G36*
G01*
X40979999Y-105398749D02*
X40979999Y-105911249D01*
G75*
G02*
X40761249Y-106129999I-218750J0D01*
G01*
X40323749Y-106129999D01*
G75*
G02*
X40104999Y-105911249I0J218750D01*
G01*
X40104999Y-105398749D01*
G75*
G02*
X40323749Y-105179999I218750J0D01*
G01*
X40761249Y-105179999D01*
G75*
G02*
X40979999Y-105398749I0J-218750D01*
G01*
G37*
G36*
G01*
X39404999Y-105398749D02*
X39404999Y-105911249D01*
G75*
G02*
X39186249Y-106129999I-218750J0D01*
G01*
X38748749Y-106129999D01*
G75*
G02*
X38529999Y-105911249I0J218750D01*
G01*
X38529999Y-105398749D01*
G75*
G02*
X38748749Y-105179999I218750J0D01*
G01*
X39186249Y-105179999D01*
G75*
G02*
X39404999Y-105398749I0J-218750D01*
G01*
G37*
%TD*%
%TO.C,R14*%
G36*
G01*
X52669999Y-95328749D02*
X52669999Y-95841249D01*
G75*
G02*
X52451249Y-96059999I-218750J0D01*
G01*
X52013749Y-96059999D01*
G75*
G02*
X51794999Y-95841249I0J218750D01*
G01*
X51794999Y-95328749D01*
G75*
G02*
X52013749Y-95109999I218750J0D01*
G01*
X52451249Y-95109999D01*
G75*
G02*
X52669999Y-95328749I0J-218750D01*
G01*
G37*
G36*
G01*
X51094999Y-95328749D02*
X51094999Y-95841249D01*
G75*
G02*
X50876249Y-96059999I-218750J0D01*
G01*
X50438749Y-96059999D01*
G75*
G02*
X50219999Y-95841249I0J218750D01*
G01*
X50219999Y-95328749D01*
G75*
G02*
X50438749Y-95109999I218750J0D01*
G01*
X50876249Y-95109999D01*
G75*
G02*
X51094999Y-95328749I0J-218750D01*
G01*
G37*
%TD*%
%TO.C,R15*%
G36*
G01*
X27859999Y-120398749D02*
X27859999Y-120911249D01*
G75*
G02*
X27641249Y-121129999I-218750J0D01*
G01*
X27203749Y-121129999D01*
G75*
G02*
X26984999Y-120911249I0J218750D01*
G01*
X26984999Y-120398749D01*
G75*
G02*
X27203749Y-120179999I218750J0D01*
G01*
X27641249Y-120179999D01*
G75*
G02*
X27859999Y-120398749I0J-218750D01*
G01*
G37*
G36*
G01*
X26284999Y-120398749D02*
X26284999Y-120911249D01*
G75*
G02*
X26066249Y-121129999I-218750J0D01*
G01*
X25628749Y-121129999D01*
G75*
G02*
X25409999Y-120911249I0J218750D01*
G01*
X25409999Y-120398749D01*
G75*
G02*
X25628749Y-120179999I218750J0D01*
G01*
X26066249Y-120179999D01*
G75*
G02*
X26284999Y-120398749I0J-218750D01*
G01*
G37*
%TD*%
%TO.C,R16*%
G36*
G01*
X66459999Y-82778749D02*
X66459999Y-83291249D01*
G75*
G02*
X66241249Y-83509999I-218750J0D01*
G01*
X65803749Y-83509999D01*
G75*
G02*
X65584999Y-83291249I0J218750D01*
G01*
X65584999Y-82778749D01*
G75*
G02*
X65803749Y-82559999I218750J0D01*
G01*
X66241249Y-82559999D01*
G75*
G02*
X66459999Y-82778749I0J-218750D01*
G01*
G37*
G36*
G01*
X64884999Y-82778749D02*
X64884999Y-83291249D01*
G75*
G02*
X64666249Y-83509999I-218750J0D01*
G01*
X64228749Y-83509999D01*
G75*
G02*
X64009999Y-83291249I0J218750D01*
G01*
X64009999Y-82778749D01*
G75*
G02*
X64228749Y-82559999I218750J0D01*
G01*
X64666249Y-82559999D01*
G75*
G02*
X64884999Y-82778749I0J-218750D01*
G01*
G37*
%TD*%
%TO.C,R17*%
G36*
G01*
X34304999Y-112628749D02*
X34304999Y-113141249D01*
G75*
G02*
X34086249Y-113359999I-218750J0D01*
G01*
X33648749Y-113359999D01*
G75*
G02*
X33429999Y-113141249I0J218750D01*
G01*
X33429999Y-112628749D01*
G75*
G02*
X33648749Y-112409999I218750J0D01*
G01*
X34086249Y-112409999D01*
G75*
G02*
X34304999Y-112628749I0J-218750D01*
G01*
G37*
G36*
G01*
X35879999Y-112628749D02*
X35879999Y-113141249D01*
G75*
G02*
X35661249Y-113359999I-218750J0D01*
G01*
X35223749Y-113359999D01*
G75*
G02*
X35004999Y-113141249I0J218750D01*
G01*
X35004999Y-112628749D01*
G75*
G02*
X35223749Y-112409999I218750J0D01*
G01*
X35661249Y-112409999D01*
G75*
G02*
X35879999Y-112628749I0J-218750D01*
G01*
G37*
%TD*%
%TO.C,R18*%
G36*
G01*
X47419999Y-102888749D02*
X47419999Y-103401249D01*
G75*
G02*
X47201249Y-103619999I-218750J0D01*
G01*
X46763749Y-103619999D01*
G75*
G02*
X46544999Y-103401249I0J218750D01*
G01*
X46544999Y-102888749D01*
G75*
G02*
X46763749Y-102669999I218750J0D01*
G01*
X47201249Y-102669999D01*
G75*
G02*
X47419999Y-102888749I0J-218750D01*
G01*
G37*
G36*
G01*
X45844999Y-102888749D02*
X45844999Y-103401249D01*
G75*
G02*
X45626249Y-103619999I-218750J0D01*
G01*
X45188749Y-103619999D01*
G75*
G02*
X44969999Y-103401249I0J218750D01*
G01*
X44969999Y-102888749D01*
G75*
G02*
X45188749Y-102669999I218750J0D01*
G01*
X45626249Y-102669999D01*
G75*
G02*
X45844999Y-102888749I0J-218750D01*
G01*
G37*
%TD*%
%TO.C,R19*%
G36*
G01*
X24944999Y-122908749D02*
X24944999Y-123421249D01*
G75*
G02*
X24726249Y-123639999I-218750J0D01*
G01*
X24288749Y-123639999D01*
G75*
G02*
X24069999Y-123421249I0J218750D01*
G01*
X24069999Y-122908749D01*
G75*
G02*
X24288749Y-122689999I218750J0D01*
G01*
X24726249Y-122689999D01*
G75*
G02*
X24944999Y-122908749I0J-218750D01*
G01*
G37*
G36*
G01*
X26519999Y-122908749D02*
X26519999Y-123421249D01*
G75*
G02*
X26301249Y-123639999I-218750J0D01*
G01*
X25863749Y-123639999D01*
G75*
G02*
X25644999Y-123421249I0J218750D01*
G01*
X25644999Y-122908749D01*
G75*
G02*
X25863749Y-122689999I218750J0D01*
G01*
X26301249Y-122689999D01*
G75*
G02*
X26519999Y-122908749I0J-218750D01*
G01*
G37*
%TD*%
%TO.C,R20*%
G36*
G01*
X35394999Y-105098749D02*
X35394999Y-105611249D01*
G75*
G02*
X35176249Y-105829999I-218750J0D01*
G01*
X34738749Y-105829999D01*
G75*
G02*
X34519999Y-105611249I0J218750D01*
G01*
X34519999Y-105098749D01*
G75*
G02*
X34738749Y-104879999I218750J0D01*
G01*
X35176249Y-104879999D01*
G75*
G02*
X35394999Y-105098749I0J-218750D01*
G01*
G37*
G36*
G01*
X36969999Y-105098749D02*
X36969999Y-105611249D01*
G75*
G02*
X36751249Y-105829999I-218750J0D01*
G01*
X36313749Y-105829999D01*
G75*
G02*
X36094999Y-105611249I0J218750D01*
G01*
X36094999Y-105098749D01*
G75*
G02*
X36313749Y-104879999I218750J0D01*
G01*
X36751249Y-104879999D01*
G75*
G02*
X36969999Y-105098749I0J-218750D01*
G01*
G37*
%TD*%
%TO.C,R21*%
G36*
G01*
X30294999Y-112868749D02*
X30294999Y-113381249D01*
G75*
G02*
X30076249Y-113599999I-218750J0D01*
G01*
X29638749Y-113599999D01*
G75*
G02*
X29419999Y-113381249I0J218750D01*
G01*
X29419999Y-112868749D01*
G75*
G02*
X29638749Y-112649999I218750J0D01*
G01*
X30076249Y-112649999D01*
G75*
G02*
X30294999Y-112868749I0J-218750D01*
G01*
G37*
G36*
G01*
X31869999Y-112868749D02*
X31869999Y-113381249D01*
G75*
G02*
X31651249Y-113599999I-218750J0D01*
G01*
X31213749Y-113599999D01*
G75*
G02*
X30994999Y-113381249I0J218750D01*
G01*
X30994999Y-112868749D01*
G75*
G02*
X31213749Y-112649999I218750J0D01*
G01*
X31651249Y-112649999D01*
G75*
G02*
X31869999Y-112868749I0J-218750D01*
G01*
G37*
%TD*%
%TO.C,R22*%
G36*
G01*
X47084999Y-92848749D02*
X47084999Y-93361249D01*
G75*
G02*
X46866249Y-93579999I-218750J0D01*
G01*
X46428749Y-93579999D01*
G75*
G02*
X46209999Y-93361249I0J218750D01*
G01*
X46209999Y-92848749D01*
G75*
G02*
X46428749Y-92629999I218750J0D01*
G01*
X46866249Y-92629999D01*
G75*
G02*
X47084999Y-92848749I0J-218750D01*
G01*
G37*
G36*
G01*
X48659999Y-92848749D02*
X48659999Y-93361249D01*
G75*
G02*
X48441249Y-93579999I-218750J0D01*
G01*
X48003749Y-93579999D01*
G75*
G02*
X47784999Y-93361249I0J218750D01*
G01*
X47784999Y-92848749D01*
G75*
G02*
X48003749Y-92629999I218750J0D01*
G01*
X48441249Y-92629999D01*
G75*
G02*
X48659999Y-92848749I0J-218750D01*
G01*
G37*
%TD*%
%TO.C,R23*%
G36*
G01*
X53109999Y-87798749D02*
X53109999Y-88311249D01*
G75*
G02*
X52891249Y-88529999I-218750J0D01*
G01*
X52453749Y-88529999D01*
G75*
G02*
X52234999Y-88311249I0J218750D01*
G01*
X52234999Y-87798749D01*
G75*
G02*
X52453749Y-87579999I218750J0D01*
G01*
X52891249Y-87579999D01*
G75*
G02*
X53109999Y-87798749I0J-218750D01*
G01*
G37*
G36*
G01*
X51534999Y-87798749D02*
X51534999Y-88311249D01*
G75*
G02*
X51316249Y-88529999I-218750J0D01*
G01*
X50878749Y-88529999D01*
G75*
G02*
X50659999Y-88311249I0J218750D01*
G01*
X50659999Y-87798749D01*
G75*
G02*
X50878749Y-87579999I218750J0D01*
G01*
X51316249Y-87579999D01*
G75*
G02*
X51534999Y-87798749I0J-218750D01*
G01*
G37*
%TD*%
%TO.C,R24*%
G36*
G01*
X44649999Y-97868749D02*
X44649999Y-98381249D01*
G75*
G02*
X44431249Y-98599999I-218750J0D01*
G01*
X43993749Y-98599999D01*
G75*
G02*
X43774999Y-98381249I0J218750D01*
G01*
X43774999Y-97868749D01*
G75*
G02*
X43993749Y-97649999I218750J0D01*
G01*
X44431249Y-97649999D01*
G75*
G02*
X44649999Y-97868749I0J-218750D01*
G01*
G37*
G36*
G01*
X43074999Y-97868749D02*
X43074999Y-98381249D01*
G75*
G02*
X42856249Y-98599999I-218750J0D01*
G01*
X42418749Y-98599999D01*
G75*
G02*
X42199999Y-98381249I0J218750D01*
G01*
X42199999Y-97868749D01*
G75*
G02*
X42418749Y-97649999I218750J0D01*
G01*
X42856249Y-97649999D01*
G75*
G02*
X43074999Y-97868749I0J-218750D01*
G01*
G37*
%TD*%
%TO.C,R25*%
G36*
G01*
X31384999Y-110118749D02*
X31384999Y-110631249D01*
G75*
G02*
X31166249Y-110849999I-218750J0D01*
G01*
X30728749Y-110849999D01*
G75*
G02*
X30509999Y-110631249I0J218750D01*
G01*
X30509999Y-110118749D01*
G75*
G02*
X30728749Y-109899999I218750J0D01*
G01*
X31166249Y-109899999D01*
G75*
G02*
X31384999Y-110118749I0J-218750D01*
G01*
G37*
G36*
G01*
X32959999Y-110118749D02*
X32959999Y-110631249D01*
G75*
G02*
X32741249Y-110849999I-218750J0D01*
G01*
X32303749Y-110849999D01*
G75*
G02*
X32084999Y-110631249I0J218750D01*
G01*
X32084999Y-110118749D01*
G75*
G02*
X32303749Y-109899999I218750J0D01*
G01*
X32741249Y-109899999D01*
G75*
G02*
X32959999Y-110118749I0J-218750D01*
G01*
G37*
%TD*%
%TO.C,R26*%
G36*
G01*
X56384999Y-85288749D02*
X56384999Y-85801249D01*
G75*
G02*
X56166249Y-86019999I-218750J0D01*
G01*
X55728749Y-86019999D01*
G75*
G02*
X55509999Y-85801249I0J218750D01*
G01*
X55509999Y-85288749D01*
G75*
G02*
X55728749Y-85069999I218750J0D01*
G01*
X56166249Y-85069999D01*
G75*
G02*
X56384999Y-85288749I0J-218750D01*
G01*
G37*
G36*
G01*
X57959999Y-85288749D02*
X57959999Y-85801249D01*
G75*
G02*
X57741249Y-86019999I-218750J0D01*
G01*
X57303749Y-86019999D01*
G75*
G02*
X57084999Y-85801249I0J218750D01*
G01*
X57084999Y-85288749D01*
G75*
G02*
X57303749Y-85069999I218750J0D01*
G01*
X57741249Y-85069999D01*
G75*
G02*
X57959999Y-85288749I0J-218750D01*
G01*
G37*
%TD*%
%TO.C,R27*%
G36*
G01*
X51534999Y-90308749D02*
X51534999Y-90821249D01*
G75*
G02*
X51316249Y-91039999I-218750J0D01*
G01*
X50878749Y-91039999D01*
G75*
G02*
X50659999Y-90821249I0J218750D01*
G01*
X50659999Y-90308749D01*
G75*
G02*
X50878749Y-90089999I218750J0D01*
G01*
X51316249Y-90089999D01*
G75*
G02*
X51534999Y-90308749I0J-218750D01*
G01*
G37*
G36*
G01*
X53109999Y-90308749D02*
X53109999Y-90821249D01*
G75*
G02*
X52891249Y-91039999I-218750J0D01*
G01*
X52453749Y-91039999D01*
G75*
G02*
X52234999Y-90821249I0J218750D01*
G01*
X52234999Y-90308749D01*
G75*
G02*
X52453749Y-90089999I218750J0D01*
G01*
X52891249Y-90089999D01*
G75*
G02*
X53109999Y-90308749I0J-218750D01*
G01*
G37*
%TD*%
%TO.C,R28*%
G36*
G01*
X27859999Y-115378749D02*
X27859999Y-115891249D01*
G75*
G02*
X27641249Y-116109999I-218750J0D01*
G01*
X27203749Y-116109999D01*
G75*
G02*
X26984999Y-115891249I0J218750D01*
G01*
X26984999Y-115378749D01*
G75*
G02*
X27203749Y-115159999I218750J0D01*
G01*
X27641249Y-115159999D01*
G75*
G02*
X27859999Y-115378749I0J-218750D01*
G01*
G37*
G36*
G01*
X26284999Y-115378749D02*
X26284999Y-115891249D01*
G75*
G02*
X26066249Y-116109999I-218750J0D01*
G01*
X25628749Y-116109999D01*
G75*
G02*
X25409999Y-115891249I0J218750D01*
G01*
X25409999Y-115378749D01*
G75*
G02*
X25628749Y-115159999I218750J0D01*
G01*
X26066249Y-115159999D01*
G75*
G02*
X26284999Y-115378749I0J-218750D01*
G01*
G37*
%TD*%
%TO.C,R29*%
G36*
G01*
X58439999Y-82778749D02*
X58439999Y-83291249D01*
G75*
G02*
X58221249Y-83509999I-218750J0D01*
G01*
X57783749Y-83509999D01*
G75*
G02*
X57564999Y-83291249I0J218750D01*
G01*
X57564999Y-82778749D01*
G75*
G02*
X57783749Y-82559999I218750J0D01*
G01*
X58221249Y-82559999D01*
G75*
G02*
X58439999Y-82778749I0J-218750D01*
G01*
G37*
G36*
G01*
X56864999Y-82778749D02*
X56864999Y-83291249D01*
G75*
G02*
X56646249Y-83509999I-218750J0D01*
G01*
X56208749Y-83509999D01*
G75*
G02*
X55989999Y-83291249I0J218750D01*
G01*
X55989999Y-82778749D01*
G75*
G02*
X56208749Y-82559999I218750J0D01*
G01*
X56646249Y-82559999D01*
G75*
G02*
X56864999Y-82778749I0J-218750D01*
G01*
G37*
%TD*%
%TO.C,R30*%
G36*
G01*
X47084999Y-95358749D02*
X47084999Y-95871249D01*
G75*
G02*
X46866249Y-96089999I-218750J0D01*
G01*
X46428749Y-96089999D01*
G75*
G02*
X46209999Y-95871249I0J218750D01*
G01*
X46209999Y-95358749D01*
G75*
G02*
X46428749Y-95139999I218750J0D01*
G01*
X46866249Y-95139999D01*
G75*
G02*
X47084999Y-95358749I0J-218750D01*
G01*
G37*
G36*
G01*
X48659999Y-95358749D02*
X48659999Y-95871249D01*
G75*
G02*
X48441249Y-96089999I-218750J0D01*
G01*
X48003749Y-96089999D01*
G75*
G02*
X47784999Y-95871249I0J218750D01*
G01*
X47784999Y-95358749D01*
G75*
G02*
X48003749Y-95139999I218750J0D01*
G01*
X48441249Y-95139999D01*
G75*
G02*
X48659999Y-95358749I0J-218750D01*
G01*
G37*
%TD*%
%TO.C,R31*%
G36*
G01*
X22274999Y-120398749D02*
X22274999Y-120911249D01*
G75*
G02*
X22056249Y-121129999I-218750J0D01*
G01*
X21618749Y-121129999D01*
G75*
G02*
X21399999Y-120911249I0J218750D01*
G01*
X21399999Y-120398749D01*
G75*
G02*
X21618749Y-120179999I218750J0D01*
G01*
X22056249Y-120179999D01*
G75*
G02*
X22274999Y-120398749I0J-218750D01*
G01*
G37*
G36*
G01*
X23849999Y-120398749D02*
X23849999Y-120911249D01*
G75*
G02*
X23631249Y-121129999I-218750J0D01*
G01*
X23193749Y-121129999D01*
G75*
G02*
X22974999Y-120911249I0J218750D01*
G01*
X22974999Y-120398749D01*
G75*
G02*
X23193749Y-120179999I218750J0D01*
G01*
X23631249Y-120179999D01*
G75*
G02*
X23849999Y-120398749I0J-218750D01*
G01*
G37*
%TD*%
%TO.C,R32*%
G36*
G01*
X36969999Y-107608749D02*
X36969999Y-108121249D01*
G75*
G02*
X36751249Y-108339999I-218750J0D01*
G01*
X36313749Y-108339999D01*
G75*
G02*
X36094999Y-108121249I0J218750D01*
G01*
X36094999Y-107608749D01*
G75*
G02*
X36313749Y-107389999I218750J0D01*
G01*
X36751249Y-107389999D01*
G75*
G02*
X36969999Y-107608749I0J-218750D01*
G01*
G37*
G36*
G01*
X35394999Y-107608749D02*
X35394999Y-108121249D01*
G75*
G02*
X35176249Y-108339999I-218750J0D01*
G01*
X34738749Y-108339999D01*
G75*
G02*
X34519999Y-108121249I0J218750D01*
G01*
X34519999Y-107608749D01*
G75*
G02*
X34738749Y-107389999I218750J0D01*
G01*
X35176249Y-107389999D01*
G75*
G02*
X35394999Y-107608749I0J-218750D01*
G01*
G37*
%TD*%
%TO.C,R33*%
G36*
G01*
X22274999Y-117888749D02*
X22274999Y-118401249D01*
G75*
G02*
X22056249Y-118619999I-218750J0D01*
G01*
X21618749Y-118619999D01*
G75*
G02*
X21399999Y-118401249I0J218750D01*
G01*
X21399999Y-117888749D01*
G75*
G02*
X21618749Y-117669999I218750J0D01*
G01*
X22056249Y-117669999D01*
G75*
G02*
X22274999Y-117888749I0J-218750D01*
G01*
G37*
G36*
G01*
X23849999Y-117888749D02*
X23849999Y-118401249D01*
G75*
G02*
X23631249Y-118619999I-218750J0D01*
G01*
X23193749Y-118619999D01*
G75*
G02*
X22974999Y-118401249I0J218750D01*
G01*
X22974999Y-117888749D01*
G75*
G02*
X23193749Y-117669999I218750J0D01*
G01*
X23631249Y-117669999D01*
G75*
G02*
X23849999Y-117888749I0J-218750D01*
G01*
G37*
%TD*%
%TO.C,R34*%
G36*
G01*
X56679999Y-97838749D02*
X56679999Y-98351249D01*
G75*
G02*
X56461249Y-98569999I-218750J0D01*
G01*
X56023749Y-98569999D01*
G75*
G02*
X55804999Y-98351249I0J218750D01*
G01*
X55804999Y-97838749D01*
G75*
G02*
X56023749Y-97619999I218750J0D01*
G01*
X56461249Y-97619999D01*
G75*
G02*
X56679999Y-97838749I0J-218750D01*
G01*
G37*
G36*
G01*
X55104999Y-97838749D02*
X55104999Y-98351249D01*
G75*
G02*
X54886249Y-98569999I-218750J0D01*
G01*
X54448749Y-98569999D01*
G75*
G02*
X54229999Y-98351249I0J218750D01*
G01*
X54229999Y-97838749D01*
G75*
G02*
X54448749Y-97619999I218750J0D01*
G01*
X54886249Y-97619999D01*
G75*
G02*
X55104999Y-97838749I0J-218750D01*
G01*
G37*
%TD*%
%TO.C,R35*%
G36*
G01*
X68894999Y-82868749D02*
X68894999Y-83381249D01*
G75*
G02*
X68676249Y-83599999I-218750J0D01*
G01*
X68238749Y-83599999D01*
G75*
G02*
X68019999Y-83381249I0J218750D01*
G01*
X68019999Y-82868749D01*
G75*
G02*
X68238749Y-82649999I218750J0D01*
G01*
X68676249Y-82649999D01*
G75*
G02*
X68894999Y-82868749I0J-218750D01*
G01*
G37*
G36*
G01*
X70469999Y-82868749D02*
X70469999Y-83381249D01*
G75*
G02*
X70251249Y-83599999I-218750J0D01*
G01*
X69813749Y-83599999D01*
G75*
G02*
X69594999Y-83381249I0J218750D01*
G01*
X69594999Y-82868749D01*
G75*
G02*
X69813749Y-82649999I218750J0D01*
G01*
X70251249Y-82649999D01*
G75*
G02*
X70469999Y-82868749I0J-218750D01*
G01*
G37*
%TD*%
%TO.C,R36*%
G36*
G01*
X59114999Y-92888749D02*
X59114999Y-93401249D01*
G75*
G02*
X58896249Y-93619999I-218750J0D01*
G01*
X58458749Y-93619999D01*
G75*
G02*
X58239999Y-93401249I0J218750D01*
G01*
X58239999Y-92888749D01*
G75*
G02*
X58458749Y-92669999I218750J0D01*
G01*
X58896249Y-92669999D01*
G75*
G02*
X59114999Y-92888749I0J-218750D01*
G01*
G37*
G36*
G01*
X60689999Y-92888749D02*
X60689999Y-93401249D01*
G75*
G02*
X60471249Y-93619999I-218750J0D01*
G01*
X60033749Y-93619999D01*
G75*
G02*
X59814999Y-93401249I0J218750D01*
G01*
X59814999Y-92888749D01*
G75*
G02*
X60033749Y-92669999I218750J0D01*
G01*
X60471249Y-92669999D01*
G75*
G02*
X60689999Y-92888749I0J-218750D01*
G01*
G37*
%TD*%
%TO.C,R37*%
G36*
G01*
X44989999Y-107908749D02*
X44989999Y-108421249D01*
G75*
G02*
X44771249Y-108639999I-218750J0D01*
G01*
X44333749Y-108639999D01*
G75*
G02*
X44114999Y-108421249I0J218750D01*
G01*
X44114999Y-107908749D01*
G75*
G02*
X44333749Y-107689999I218750J0D01*
G01*
X44771249Y-107689999D01*
G75*
G02*
X44989999Y-107908749I0J-218750D01*
G01*
G37*
G36*
G01*
X43414999Y-107908749D02*
X43414999Y-108421249D01*
G75*
G02*
X43196249Y-108639999I-218750J0D01*
G01*
X42758749Y-108639999D01*
G75*
G02*
X42539999Y-108421249I0J218750D01*
G01*
X42539999Y-107908749D01*
G75*
G02*
X42758749Y-107689999I218750J0D01*
G01*
X43196249Y-107689999D01*
G75*
G02*
X43414999Y-107908749I0J-218750D01*
G01*
G37*
%TD*%
%TO.C,R38*%
G36*
G01*
X32959999Y-107608749D02*
X32959999Y-108121249D01*
G75*
G02*
X32741249Y-108339999I-218750J0D01*
G01*
X32303749Y-108339999D01*
G75*
G02*
X32084999Y-108121249I0J218750D01*
G01*
X32084999Y-107608749D01*
G75*
G02*
X32303749Y-107389999I218750J0D01*
G01*
X32741249Y-107389999D01*
G75*
G02*
X32959999Y-107608749I0J-218750D01*
G01*
G37*
G36*
G01*
X31384999Y-107608749D02*
X31384999Y-108121249D01*
G75*
G02*
X31166249Y-108339999I-218750J0D01*
G01*
X30728749Y-108339999D01*
G75*
G02*
X30509999Y-108121249I0J218750D01*
G01*
X30509999Y-107608749D01*
G75*
G02*
X30728749Y-107389999I218750J0D01*
G01*
X31166249Y-107389999D01*
G75*
G02*
X31384999Y-107608749I0J-218750D01*
G01*
G37*
%TD*%
%TO.C,R39*%
G36*
G01*
X39404999Y-107908749D02*
X39404999Y-108421249D01*
G75*
G02*
X39186249Y-108639999I-218750J0D01*
G01*
X38748749Y-108639999D01*
G75*
G02*
X38529999Y-108421249I0J218750D01*
G01*
X38529999Y-107908749D01*
G75*
G02*
X38748749Y-107689999I218750J0D01*
G01*
X39186249Y-107689999D01*
G75*
G02*
X39404999Y-107908749I0J-218750D01*
G01*
G37*
G36*
G01*
X40979999Y-107908749D02*
X40979999Y-108421249D01*
G75*
G02*
X40761249Y-108639999I-218750J0D01*
G01*
X40323749Y-108639999D01*
G75*
G02*
X40104999Y-108421249I0J218750D01*
G01*
X40104999Y-107908749D01*
G75*
G02*
X40323749Y-107689999I218750J0D01*
G01*
X40761249Y-107689999D01*
G75*
G02*
X40979999Y-107908749I0J-218750D01*
G01*
G37*
%TD*%
%TO.C,R40*%
G36*
G01*
X47419999Y-100378749D02*
X47419999Y-100891249D01*
G75*
G02*
X47201249Y-101109999I-218750J0D01*
G01*
X46763749Y-101109999D01*
G75*
G02*
X46544999Y-100891249I0J218750D01*
G01*
X46544999Y-100378749D01*
G75*
G02*
X46763749Y-100159999I218750J0D01*
G01*
X47201249Y-100159999D01*
G75*
G02*
X47419999Y-100378749I0J-218750D01*
G01*
G37*
G36*
G01*
X45844999Y-100378749D02*
X45844999Y-100891249D01*
G75*
G02*
X45626249Y-101109999I-218750J0D01*
G01*
X45188749Y-101109999D01*
G75*
G02*
X44969999Y-100891249I0J218750D01*
G01*
X44969999Y-100378749D01*
G75*
G02*
X45188749Y-100159999I218750J0D01*
G01*
X45626249Y-100159999D01*
G75*
G02*
X45844999Y-100378749I0J-218750D01*
G01*
G37*
%TD*%
%TO.C,R41*%
G36*
G01*
X49099999Y-90308749D02*
X49099999Y-90821249D01*
G75*
G02*
X48881249Y-91039999I-218750J0D01*
G01*
X48443749Y-91039999D01*
G75*
G02*
X48224999Y-90821249I0J218750D01*
G01*
X48224999Y-90308749D01*
G75*
G02*
X48443749Y-90089999I218750J0D01*
G01*
X48881249Y-90089999D01*
G75*
G02*
X49099999Y-90308749I0J-218750D01*
G01*
G37*
G36*
G01*
X47524999Y-90308749D02*
X47524999Y-90821249D01*
G75*
G02*
X47306249Y-91039999I-218750J0D01*
G01*
X46868749Y-91039999D01*
G75*
G02*
X46649999Y-90821249I0J218750D01*
G01*
X46649999Y-90308749D01*
G75*
G02*
X46868749Y-90089999I218750J0D01*
G01*
X47306249Y-90089999D01*
G75*
G02*
X47524999Y-90308749I0J-218750D01*
G01*
G37*
%TD*%
%TO.C,R42*%
G36*
G01*
X53949999Y-85288749D02*
X53949999Y-85801249D01*
G75*
G02*
X53731249Y-86019999I-218750J0D01*
G01*
X53293749Y-86019999D01*
G75*
G02*
X53074999Y-85801249I0J218750D01*
G01*
X53074999Y-85288749D01*
G75*
G02*
X53293749Y-85069999I218750J0D01*
G01*
X53731249Y-85069999D01*
G75*
G02*
X53949999Y-85288749I0J-218750D01*
G01*
G37*
G36*
G01*
X52374999Y-85288749D02*
X52374999Y-85801249D01*
G75*
G02*
X52156249Y-86019999I-218750J0D01*
G01*
X51718749Y-86019999D01*
G75*
G02*
X51499999Y-85801249I0J218750D01*
G01*
X51499999Y-85288749D01*
G75*
G02*
X51718749Y-85069999I218750J0D01*
G01*
X52156249Y-85069999D01*
G75*
G02*
X52374999Y-85288749I0J-218750D01*
G01*
G37*
%TD*%
%TO.C,R43*%
G36*
G01*
X37824999Y-100078749D02*
X37824999Y-100591249D01*
G75*
G02*
X37606249Y-100809999I-218750J0D01*
G01*
X37168749Y-100809999D01*
G75*
G02*
X36949999Y-100591249I0J218750D01*
G01*
X36949999Y-100078749D01*
G75*
G02*
X37168749Y-99859999I218750J0D01*
G01*
X37606249Y-99859999D01*
G75*
G02*
X37824999Y-100078749I0J-218750D01*
G01*
G37*
G36*
G01*
X39399999Y-100078749D02*
X39399999Y-100591249D01*
G75*
G02*
X39181249Y-100809999I-218750J0D01*
G01*
X38743749Y-100809999D01*
G75*
G02*
X38524999Y-100591249I0J218750D01*
G01*
X38524999Y-100078749D01*
G75*
G02*
X38743749Y-99859999I218750J0D01*
G01*
X39181249Y-99859999D01*
G75*
G02*
X39399999Y-100078749I0J-218750D01*
G01*
G37*
%TD*%
%TO.C,R44*%
G36*
G01*
X22274999Y-115378749D02*
X22274999Y-115891249D01*
G75*
G02*
X22056249Y-116109999I-218750J0D01*
G01*
X21618749Y-116109999D01*
G75*
G02*
X21399999Y-115891249I0J218750D01*
G01*
X21399999Y-115378749D01*
G75*
G02*
X21618749Y-115159999I218750J0D01*
G01*
X22056249Y-115159999D01*
G75*
G02*
X22274999Y-115378749I0J-218750D01*
G01*
G37*
G36*
G01*
X23849999Y-115378749D02*
X23849999Y-115891249D01*
G75*
G02*
X23631249Y-116109999I-218750J0D01*
G01*
X23193749Y-116109999D01*
G75*
G02*
X22974999Y-115891249I0J218750D01*
G01*
X22974999Y-115378749D01*
G75*
G02*
X23193749Y-115159999I218750J0D01*
G01*
X23631249Y-115159999D01*
G75*
G02*
X23849999Y-115378749I0J-218750D01*
G01*
G37*
%TD*%
%TO.C,R45*%
G36*
G01*
X39399999Y-102588749D02*
X39399999Y-103101249D01*
G75*
G02*
X39181249Y-103319999I-218750J0D01*
G01*
X38743749Y-103319999D01*
G75*
G02*
X38524999Y-103101249I0J218750D01*
G01*
X38524999Y-102588749D01*
G75*
G02*
X38743749Y-102369999I218750J0D01*
G01*
X39181249Y-102369999D01*
G75*
G02*
X39399999Y-102588749I0J-218750D01*
G01*
G37*
G36*
G01*
X37824999Y-102588749D02*
X37824999Y-103101249D01*
G75*
G02*
X37606249Y-103319999I-218750J0D01*
G01*
X37168749Y-103319999D01*
G75*
G02*
X36949999Y-103101249I0J218750D01*
G01*
X36949999Y-102588749D01*
G75*
G02*
X37168749Y-102369999I218750J0D01*
G01*
X37606249Y-102369999D01*
G75*
G02*
X37824999Y-102588749I0J-218750D01*
G01*
G37*
%TD*%
%TO.C,R46*%
G36*
G01*
X90285001Y-80951251D02*
X90285001Y-80438751D01*
G75*
G02*
X90503751Y-80220001I218750J0D01*
G01*
X90941251Y-80220001D01*
G75*
G02*
X91160001Y-80438751I0J-218750D01*
G01*
X91160001Y-80951251D01*
G75*
G02*
X90941251Y-81170001I-218750J0D01*
G01*
X90503751Y-81170001D01*
G75*
G02*
X90285001Y-80951251I0J218750D01*
G01*
G37*
G36*
G01*
X88710001Y-80951251D02*
X88710001Y-80438751D01*
G75*
G02*
X88928751Y-80220001I218750J0D01*
G01*
X89366251Y-80220001D01*
G75*
G02*
X89585001Y-80438751I0J-218750D01*
G01*
X89585001Y-80951251D01*
G75*
G02*
X89366251Y-81170001I-218750J0D01*
G01*
X88928751Y-81170001D01*
G75*
G02*
X88710001Y-80951251I0J218750D01*
G01*
G37*
%TD*%
%TO.C,R47*%
G36*
G01*
X218537500Y-45643750D02*
X218537500Y-46156250D01*
G75*
G02*
X218318750Y-46375000I-218750J0D01*
G01*
X217881250Y-46375000D01*
G75*
G02*
X217662500Y-46156250I0J218750D01*
G01*
X217662500Y-45643750D01*
G75*
G02*
X217881250Y-45425000I218750J0D01*
G01*
X218318750Y-45425000D01*
G75*
G02*
X218537500Y-45643750I0J-218750D01*
G01*
G37*
G36*
G01*
X216962500Y-45643750D02*
X216962500Y-46156250D01*
G75*
G02*
X216743750Y-46375000I-218750J0D01*
G01*
X216306250Y-46375000D01*
G75*
G02*
X216087500Y-46156250I0J218750D01*
G01*
X216087500Y-45643750D01*
G75*
G02*
X216306250Y-45425000I218750J0D01*
G01*
X216743750Y-45425000D01*
G75*
G02*
X216962500Y-45643750I0J-218750D01*
G01*
G37*
%TD*%
%TO.C,R48*%
G36*
G01*
X62985001Y-58901251D02*
X62985001Y-58388751D01*
G75*
G02*
X63203751Y-58170001I218750J0D01*
G01*
X63641251Y-58170001D01*
G75*
G02*
X63860001Y-58388751I0J-218750D01*
G01*
X63860001Y-58901251D01*
G75*
G02*
X63641251Y-59120001I-218750J0D01*
G01*
X63203751Y-59120001D01*
G75*
G02*
X62985001Y-58901251I0J218750D01*
G01*
G37*
G36*
G01*
X61410001Y-58901251D02*
X61410001Y-58388751D01*
G75*
G02*
X61628751Y-58170001I218750J0D01*
G01*
X62066251Y-58170001D01*
G75*
G02*
X62285001Y-58388751I0J-218750D01*
G01*
X62285001Y-58901251D01*
G75*
G02*
X62066251Y-59120001I-218750J0D01*
G01*
X61628751Y-59120001D01*
G75*
G02*
X61410001Y-58901251I0J218750D01*
G01*
G37*
%TD*%
%TO.C,R49*%
G36*
G01*
X235856250Y-141350000D02*
X235343750Y-141350000D01*
G75*
G02*
X235125000Y-141131250I0J218750D01*
G01*
X235125000Y-140693750D01*
G75*
G02*
X235343750Y-140475000I218750J0D01*
G01*
X235856250Y-140475000D01*
G75*
G02*
X236075000Y-140693750I0J-218750D01*
G01*
X236075000Y-141131250D01*
G75*
G02*
X235856250Y-141350000I-218750J0D01*
G01*
G37*
G36*
G01*
X235856250Y-142925000D02*
X235343750Y-142925000D01*
G75*
G02*
X235125000Y-142706250I0J218750D01*
G01*
X235125000Y-142268750D01*
G75*
G02*
X235343750Y-142050000I218750J0D01*
G01*
X235856250Y-142050000D01*
G75*
G02*
X236075000Y-142268750I0J-218750D01*
G01*
X236075000Y-142706250D01*
G75*
G02*
X235856250Y-142925000I-218750J0D01*
G01*
G37*
%TD*%
%TO.C,R50*%
G36*
G01*
X-11380001Y-120498749D02*
X-11380001Y-121011249D01*
G75*
G02*
X-11598751Y-121229999I-218750J0D01*
G01*
X-12036251Y-121229999D01*
G75*
G02*
X-12255001Y-121011249I0J218750D01*
G01*
X-12255001Y-120498749D01*
G75*
G02*
X-12036251Y-120279999I218750J0D01*
G01*
X-11598751Y-120279999D01*
G75*
G02*
X-11380001Y-120498749I0J-218750D01*
G01*
G37*
G36*
G01*
X-12955001Y-120498749D02*
X-12955001Y-121011249D01*
G75*
G02*
X-13173751Y-121229999I-218750J0D01*
G01*
X-13611251Y-121229999D01*
G75*
G02*
X-13830001Y-121011249I0J218750D01*
G01*
X-13830001Y-120498749D01*
G75*
G02*
X-13611251Y-120279999I218750J0D01*
G01*
X-13173751Y-120279999D01*
G75*
G02*
X-12955001Y-120498749I0J-218750D01*
G01*
G37*
%TD*%
%TO.C,R51*%
G36*
G01*
X-17415001Y-123138749D02*
X-17415001Y-123651249D01*
G75*
G02*
X-17633751Y-123869999I-218750J0D01*
G01*
X-18071251Y-123869999D01*
G75*
G02*
X-18290001Y-123651249I0J218750D01*
G01*
X-18290001Y-123138749D01*
G75*
G02*
X-18071251Y-122919999I218750J0D01*
G01*
X-17633751Y-122919999D01*
G75*
G02*
X-17415001Y-123138749I0J-218750D01*
G01*
G37*
G36*
G01*
X-15840001Y-123138749D02*
X-15840001Y-123651249D01*
G75*
G02*
X-16058751Y-123869999I-218750J0D01*
G01*
X-16496251Y-123869999D01*
G75*
G02*
X-16715001Y-123651249I0J218750D01*
G01*
X-16715001Y-123138749D01*
G75*
G02*
X-16496251Y-122919999I218750J0D01*
G01*
X-16058751Y-122919999D01*
G75*
G02*
X-15840001Y-123138749I0J-218750D01*
G01*
G37*
%TD*%
%TO.C,R52*%
G36*
G01*
X-21425001Y-127688749D02*
X-21425001Y-128201249D01*
G75*
G02*
X-21643751Y-128419999I-218750J0D01*
G01*
X-22081251Y-128419999D01*
G75*
G02*
X-22300001Y-128201249I0J218750D01*
G01*
X-22300001Y-127688749D01*
G75*
G02*
X-22081251Y-127469999I218750J0D01*
G01*
X-21643751Y-127469999D01*
G75*
G02*
X-21425001Y-127688749I0J-218750D01*
G01*
G37*
G36*
G01*
X-19850001Y-127688749D02*
X-19850001Y-128201249D01*
G75*
G02*
X-20068751Y-128419999I-218750J0D01*
G01*
X-20506251Y-128419999D01*
G75*
G02*
X-20725001Y-128201249I0J218750D01*
G01*
X-20725001Y-127688749D01*
G75*
G02*
X-20506251Y-127469999I218750J0D01*
G01*
X-20068751Y-127469999D01*
G75*
G02*
X-19850001Y-127688749I0J-218750D01*
G01*
G37*
%TD*%
%TO.C,R53*%
G36*
G01*
X-15390001Y-115608749D02*
X-15390001Y-116121249D01*
G75*
G02*
X-15608751Y-116339999I-218750J0D01*
G01*
X-16046251Y-116339999D01*
G75*
G02*
X-16265001Y-116121249I0J218750D01*
G01*
X-16265001Y-115608749D01*
G75*
G02*
X-16046251Y-115389999I218750J0D01*
G01*
X-15608751Y-115389999D01*
G75*
G02*
X-15390001Y-115608749I0J-218750D01*
G01*
G37*
G36*
G01*
X-16965001Y-115608749D02*
X-16965001Y-116121249D01*
G75*
G02*
X-17183751Y-116339999I-218750J0D01*
G01*
X-17621251Y-116339999D01*
G75*
G02*
X-17840001Y-116121249I0J218750D01*
G01*
X-17840001Y-115608749D01*
G75*
G02*
X-17621251Y-115389999I218750J0D01*
G01*
X-17183751Y-115389999D01*
G75*
G02*
X-16965001Y-115608749I0J-218750D01*
G01*
G37*
%TD*%
%TO.C,R54*%
G36*
G01*
X234356250Y-142925000D02*
X233843750Y-142925000D01*
G75*
G02*
X233625000Y-142706250I0J218750D01*
G01*
X233625000Y-142268750D01*
G75*
G02*
X233843750Y-142050000I218750J0D01*
G01*
X234356250Y-142050000D01*
G75*
G02*
X234575000Y-142268750I0J-218750D01*
G01*
X234575000Y-142706250D01*
G75*
G02*
X234356250Y-142925000I-218750J0D01*
G01*
G37*
G36*
G01*
X234356250Y-141350000D02*
X233843750Y-141350000D01*
G75*
G02*
X233625000Y-141131250I0J218750D01*
G01*
X233625000Y-140693750D01*
G75*
G02*
X233843750Y-140475000I218750J0D01*
G01*
X234356250Y-140475000D01*
G75*
G02*
X234575000Y-140693750I0J-218750D01*
G01*
X234575000Y-141131250D01*
G75*
G02*
X234356250Y-141350000I-218750J0D01*
G01*
G37*
%TD*%
%TO.C,R55*%
G36*
G01*
X232856250Y-141350000D02*
X232343750Y-141350000D01*
G75*
G02*
X232125000Y-141131250I0J218750D01*
G01*
X232125000Y-140693750D01*
G75*
G02*
X232343750Y-140475000I218750J0D01*
G01*
X232856250Y-140475000D01*
G75*
G02*
X233075000Y-140693750I0J-218750D01*
G01*
X233075000Y-141131250D01*
G75*
G02*
X232856250Y-141350000I-218750J0D01*
G01*
G37*
G36*
G01*
X232856250Y-142925000D02*
X232343750Y-142925000D01*
G75*
G02*
X232125000Y-142706250I0J218750D01*
G01*
X232125000Y-142268750D01*
G75*
G02*
X232343750Y-142050000I218750J0D01*
G01*
X232856250Y-142050000D01*
G75*
G02*
X233075000Y-142268750I0J-218750D01*
G01*
X233075000Y-142706250D01*
G75*
G02*
X232856250Y-142925000I-218750J0D01*
G01*
G37*
%TD*%
%TO.C,R56*%
G36*
G01*
X237356250Y-142912500D02*
X236843750Y-142912500D01*
G75*
G02*
X236625000Y-142693750I0J218750D01*
G01*
X236625000Y-142256250D01*
G75*
G02*
X236843750Y-142037500I218750J0D01*
G01*
X237356250Y-142037500D01*
G75*
G02*
X237575000Y-142256250I0J-218750D01*
G01*
X237575000Y-142693750D01*
G75*
G02*
X237356250Y-142912500I-218750J0D01*
G01*
G37*
G36*
G01*
X237356250Y-141337500D02*
X236843750Y-141337500D01*
G75*
G02*
X236625000Y-141118750I0J218750D01*
G01*
X236625000Y-140681250D01*
G75*
G02*
X236843750Y-140462500I218750J0D01*
G01*
X237356250Y-140462500D01*
G75*
G02*
X237575000Y-140681250I0J-218750D01*
G01*
X237575000Y-141118750D01*
G75*
G02*
X237356250Y-141337500I-218750J0D01*
G01*
G37*
%TD*%
%TO.C,R57*%
G36*
G01*
X-19850001Y-125178749D02*
X-19850001Y-125691249D01*
G75*
G02*
X-20068751Y-125909999I-218750J0D01*
G01*
X-20506251Y-125909999D01*
G75*
G02*
X-20725001Y-125691249I0J218750D01*
G01*
X-20725001Y-125178749D01*
G75*
G02*
X-20506251Y-124959999I218750J0D01*
G01*
X-20068751Y-124959999D01*
G75*
G02*
X-19850001Y-125178749I0J-218750D01*
G01*
G37*
G36*
G01*
X-21425001Y-125178749D02*
X-21425001Y-125691249D01*
G75*
G02*
X-21643751Y-125909999I-218750J0D01*
G01*
X-22081251Y-125909999D01*
G75*
G02*
X-22300001Y-125691249I0J218750D01*
G01*
X-22300001Y-125178749D01*
G75*
G02*
X-22081251Y-124959999I218750J0D01*
G01*
X-21643751Y-124959999D01*
G75*
G02*
X-21425001Y-125178749I0J-218750D01*
G01*
G37*
%TD*%
%TO.C,R58*%
G36*
G01*
X-16965001Y-120628749D02*
X-16965001Y-121141249D01*
G75*
G02*
X-17183751Y-121359999I-218750J0D01*
G01*
X-17621251Y-121359999D01*
G75*
G02*
X-17840001Y-121141249I0J218750D01*
G01*
X-17840001Y-120628749D01*
G75*
G02*
X-17621251Y-120409999I218750J0D01*
G01*
X-17183751Y-120409999D01*
G75*
G02*
X-16965001Y-120628749I0J-218750D01*
G01*
G37*
G36*
G01*
X-15390001Y-120628749D02*
X-15390001Y-121141249D01*
G75*
G02*
X-15608751Y-121359999I-218750J0D01*
G01*
X-16046251Y-121359999D01*
G75*
G02*
X-16265001Y-121141249I0J218750D01*
G01*
X-16265001Y-120628749D01*
G75*
G02*
X-16046251Y-120409999I218750J0D01*
G01*
X-15608751Y-120409999D01*
G75*
G02*
X-15390001Y-120628749I0J-218750D01*
G01*
G37*
%TD*%
%TO.C,R59*%
G36*
G01*
X-11380001Y-117988749D02*
X-11380001Y-118501249D01*
G75*
G02*
X-11598751Y-118719999I-218750J0D01*
G01*
X-12036251Y-118719999D01*
G75*
G02*
X-12255001Y-118501249I0J218750D01*
G01*
X-12255001Y-117988749D01*
G75*
G02*
X-12036251Y-117769999I218750J0D01*
G01*
X-11598751Y-117769999D01*
G75*
G02*
X-11380001Y-117988749I0J-218750D01*
G01*
G37*
G36*
G01*
X-12955001Y-117988749D02*
X-12955001Y-118501249D01*
G75*
G02*
X-13173751Y-118719999I-218750J0D01*
G01*
X-13611251Y-118719999D01*
G75*
G02*
X-13830001Y-118501249I0J218750D01*
G01*
X-13830001Y-117988749D01*
G75*
G02*
X-13611251Y-117769999I218750J0D01*
G01*
X-13173751Y-117769999D01*
G75*
G02*
X-12955001Y-117988749I0J-218750D01*
G01*
G37*
%TD*%
%TO.C,R60*%
G36*
G01*
X16119999Y-112808749D02*
X16119999Y-113321249D01*
G75*
G02*
X15901249Y-113539999I-218750J0D01*
G01*
X15463749Y-113539999D01*
G75*
G02*
X15244999Y-113321249I0J218750D01*
G01*
X15244999Y-112808749D01*
G75*
G02*
X15463749Y-112589999I218750J0D01*
G01*
X15901249Y-112589999D01*
G75*
G02*
X16119999Y-112808749I0J-218750D01*
G01*
G37*
G36*
G01*
X14544999Y-112808749D02*
X14544999Y-113321249D01*
G75*
G02*
X14326249Y-113539999I-218750J0D01*
G01*
X13888749Y-113539999D01*
G75*
G02*
X13669999Y-113321249I0J218750D01*
G01*
X13669999Y-112808749D01*
G75*
G02*
X13888749Y-112589999I218750J0D01*
G01*
X14326249Y-112589999D01*
G75*
G02*
X14544999Y-112808749I0J-218750D01*
G01*
G37*
%TD*%
%TO.C,R61*%
G36*
G01*
X-17415001Y-128158749D02*
X-17415001Y-128671249D01*
G75*
G02*
X-17633751Y-128889999I-218750J0D01*
G01*
X-18071251Y-128889999D01*
G75*
G02*
X-18290001Y-128671249I0J218750D01*
G01*
X-18290001Y-128158749D01*
G75*
G02*
X-18071251Y-127939999I218750J0D01*
G01*
X-17633751Y-127939999D01*
G75*
G02*
X-17415001Y-128158749I0J-218750D01*
G01*
G37*
G36*
G01*
X-15840001Y-128158749D02*
X-15840001Y-128671249D01*
G75*
G02*
X-16058751Y-128889999I-218750J0D01*
G01*
X-16496251Y-128889999D01*
G75*
G02*
X-16715001Y-128671249I0J218750D01*
G01*
X-16715001Y-128158749D01*
G75*
G02*
X-16496251Y-127939999I218750J0D01*
G01*
X-16058751Y-127939999D01*
G75*
G02*
X-15840001Y-128158749I0J-218750D01*
G01*
G37*
%TD*%
%TO.C,R62*%
G36*
G01*
X-580001Y-113958749D02*
X-580001Y-114471249D01*
G75*
G02*
X-798751Y-114689999I-218750J0D01*
G01*
X-1236251Y-114689999D01*
G75*
G02*
X-1455001Y-114471249I0J218750D01*
G01*
X-1455001Y-113958749D01*
G75*
G02*
X-1236251Y-113739999I218750J0D01*
G01*
X-798751Y-113739999D01*
G75*
G02*
X-580001Y-113958749I0J-218750D01*
G01*
G37*
G36*
G01*
X-2155001Y-113958749D02*
X-2155001Y-114471249D01*
G75*
G02*
X-2373751Y-114689999I-218750J0D01*
G01*
X-2811251Y-114689999D01*
G75*
G02*
X-3030001Y-114471249I0J218750D01*
G01*
X-3030001Y-113958749D01*
G75*
G02*
X-2811251Y-113739999I218750J0D01*
G01*
X-2373751Y-113739999D01*
G75*
G02*
X-2155001Y-113958749I0J-218750D01*
G01*
G37*
%TD*%
%TO.C,R63*%
G36*
G01*
X-15390001Y-118118749D02*
X-15390001Y-118631249D01*
G75*
G02*
X-15608751Y-118849999I-218750J0D01*
G01*
X-16046251Y-118849999D01*
G75*
G02*
X-16265001Y-118631249I0J218750D01*
G01*
X-16265001Y-118118749D01*
G75*
G02*
X-16046251Y-117899999I218750J0D01*
G01*
X-15608751Y-117899999D01*
G75*
G02*
X-15390001Y-118118749I0J-218750D01*
G01*
G37*
G36*
G01*
X-16965001Y-118118749D02*
X-16965001Y-118631249D01*
G75*
G02*
X-17183751Y-118849999I-218750J0D01*
G01*
X-17621251Y-118849999D01*
G75*
G02*
X-17840001Y-118631249I0J218750D01*
G01*
X-17840001Y-118118749D01*
G75*
G02*
X-17621251Y-117899999I218750J0D01*
G01*
X-17183751Y-117899999D01*
G75*
G02*
X-16965001Y-118118749I0J-218750D01*
G01*
G37*
%TD*%
%TO.C,R64*%
G36*
G01*
X-12955001Y-123008749D02*
X-12955001Y-123521249D01*
G75*
G02*
X-13173751Y-123739999I-218750J0D01*
G01*
X-13611251Y-123739999D01*
G75*
G02*
X-13830001Y-123521249I0J218750D01*
G01*
X-13830001Y-123008749D01*
G75*
G02*
X-13611251Y-122789999I218750J0D01*
G01*
X-13173751Y-122789999D01*
G75*
G02*
X-12955001Y-123008749I0J-218750D01*
G01*
G37*
G36*
G01*
X-11380001Y-123008749D02*
X-11380001Y-123521249D01*
G75*
G02*
X-11598751Y-123739999I-218750J0D01*
G01*
X-12036251Y-123739999D01*
G75*
G02*
X-12255001Y-123521249I0J218750D01*
G01*
X-12255001Y-123008749D01*
G75*
G02*
X-12036251Y-122789999I218750J0D01*
G01*
X-11598751Y-122789999D01*
G75*
G02*
X-11380001Y-123008749I0J-218750D01*
G01*
G37*
%TD*%
%TO.C,R65*%
G36*
G01*
X-580001Y-111448749D02*
X-580001Y-111961249D01*
G75*
G02*
X-798751Y-112179999I-218750J0D01*
G01*
X-1236251Y-112179999D01*
G75*
G02*
X-1455001Y-111961249I0J218750D01*
G01*
X-1455001Y-111448749D01*
G75*
G02*
X-1236251Y-111229999I218750J0D01*
G01*
X-798751Y-111229999D01*
G75*
G02*
X-580001Y-111448749I0J-218750D01*
G01*
G37*
G36*
G01*
X-2155001Y-111448749D02*
X-2155001Y-111961249D01*
G75*
G02*
X-2373751Y-112179999I-218750J0D01*
G01*
X-2811251Y-112179999D01*
G75*
G02*
X-3030001Y-111961249I0J218750D01*
G01*
X-3030001Y-111448749D01*
G75*
G02*
X-2811251Y-111229999I218750J0D01*
G01*
X-2373751Y-111229999D01*
G75*
G02*
X-2155001Y-111448749I0J-218750D01*
G01*
G37*
%TD*%
%TO.C,R66*%
G36*
G01*
X-17415001Y-125648749D02*
X-17415001Y-126161249D01*
G75*
G02*
X-17633751Y-126379999I-218750J0D01*
G01*
X-18071251Y-126379999D01*
G75*
G02*
X-18290001Y-126161249I0J218750D01*
G01*
X-18290001Y-125648749D01*
G75*
G02*
X-18071251Y-125429999I218750J0D01*
G01*
X-17633751Y-125429999D01*
G75*
G02*
X-17415001Y-125648749I0J-218750D01*
G01*
G37*
G36*
G01*
X-15840001Y-125648749D02*
X-15840001Y-126161249D01*
G75*
G02*
X-16058751Y-126379999I-218750J0D01*
G01*
X-16496251Y-126379999D01*
G75*
G02*
X-16715001Y-126161249I0J218750D01*
G01*
X-16715001Y-125648749D01*
G75*
G02*
X-16496251Y-125429999I218750J0D01*
G01*
X-16058751Y-125429999D01*
G75*
G02*
X-15840001Y-125648749I0J-218750D01*
G01*
G37*
%TD*%
%TO.C,R67*%
G36*
G01*
X-20290001Y-130198749D02*
X-20290001Y-130711249D01*
G75*
G02*
X-20508751Y-130929999I-218750J0D01*
G01*
X-20946251Y-130929999D01*
G75*
G02*
X-21165001Y-130711249I0J218750D01*
G01*
X-21165001Y-130198749D01*
G75*
G02*
X-20946251Y-129979999I218750J0D01*
G01*
X-20508751Y-129979999D01*
G75*
G02*
X-20290001Y-130198749I0J-218750D01*
G01*
G37*
G36*
G01*
X-21865001Y-130198749D02*
X-21865001Y-130711249D01*
G75*
G02*
X-22083751Y-130929999I-218750J0D01*
G01*
X-22521251Y-130929999D01*
G75*
G02*
X-22740001Y-130711249I0J218750D01*
G01*
X-22740001Y-130198749D01*
G75*
G02*
X-22521251Y-129979999I218750J0D01*
G01*
X-22083751Y-129979999D01*
G75*
G02*
X-21865001Y-130198749I0J-218750D01*
G01*
G37*
%TD*%
%TO.C,R68*%
G36*
G01*
X-6165001Y-111758749D02*
X-6165001Y-112271249D01*
G75*
G02*
X-6383751Y-112489999I-218750J0D01*
G01*
X-6821251Y-112489999D01*
G75*
G02*
X-7040001Y-112271249I0J218750D01*
G01*
X-7040001Y-111758749D01*
G75*
G02*
X-6821251Y-111539999I218750J0D01*
G01*
X-6383751Y-111539999D01*
G75*
G02*
X-6165001Y-111758749I0J-218750D01*
G01*
G37*
G36*
G01*
X-4590001Y-111758749D02*
X-4590001Y-112271249D01*
G75*
G02*
X-4808751Y-112489999I-218750J0D01*
G01*
X-5246251Y-112489999D01*
G75*
G02*
X-5465001Y-112271249I0J218750D01*
G01*
X-5465001Y-111758749D01*
G75*
G02*
X-5246251Y-111539999I218750J0D01*
G01*
X-4808751Y-111539999D01*
G75*
G02*
X-4590001Y-111758749I0J-218750D01*
G01*
G37*
%TD*%
%TO.C,R69*%
G36*
G01*
X266562500Y-66256250D02*
X266562500Y-65743750D01*
G75*
G02*
X266781250Y-65525000I218750J0D01*
G01*
X267218750Y-65525000D01*
G75*
G02*
X267437500Y-65743750I0J-218750D01*
G01*
X267437500Y-66256250D01*
G75*
G02*
X267218750Y-66475000I-218750J0D01*
G01*
X266781250Y-66475000D01*
G75*
G02*
X266562500Y-66256250I0J218750D01*
G01*
G37*
G36*
G01*
X264987500Y-66256250D02*
X264987500Y-65743750D01*
G75*
G02*
X265206250Y-65525000I218750J0D01*
G01*
X265643750Y-65525000D01*
G75*
G02*
X265862500Y-65743750I0J-218750D01*
G01*
X265862500Y-66256250D01*
G75*
G02*
X265643750Y-66475000I-218750J0D01*
G01*
X265206250Y-66475000D01*
G75*
G02*
X264987500Y-66256250I0J218750D01*
G01*
G37*
%TD*%
%TO.C,R70*%
G36*
G01*
X265000001Y-76721251D02*
X265000001Y-76208751D01*
G75*
G02*
X265218751Y-75990001I218750J0D01*
G01*
X265656251Y-75990001D01*
G75*
G02*
X265875001Y-76208751I0J-218750D01*
G01*
X265875001Y-76721251D01*
G75*
G02*
X265656251Y-76940001I-218750J0D01*
G01*
X265218751Y-76940001D01*
G75*
G02*
X265000001Y-76721251I0J218750D01*
G01*
G37*
G36*
G01*
X266575001Y-76721251D02*
X266575001Y-76208751D01*
G75*
G02*
X266793751Y-75990001I218750J0D01*
G01*
X267231251Y-75990001D01*
G75*
G02*
X267450001Y-76208751I0J-218750D01*
G01*
X267450001Y-76721251D01*
G75*
G02*
X267231251Y-76940001I-218750J0D01*
G01*
X266793751Y-76940001D01*
G75*
G02*
X266575001Y-76721251I0J218750D01*
G01*
G37*
%TD*%
%TO.C,R71*%
G36*
G01*
X270562500Y-66256250D02*
X270562500Y-65743750D01*
G75*
G02*
X270781250Y-65525000I218750J0D01*
G01*
X271218750Y-65525000D01*
G75*
G02*
X271437500Y-65743750I0J-218750D01*
G01*
X271437500Y-66256250D01*
G75*
G02*
X271218750Y-66475000I-218750J0D01*
G01*
X270781250Y-66475000D01*
G75*
G02*
X270562500Y-66256250I0J218750D01*
G01*
G37*
G36*
G01*
X268987500Y-66256250D02*
X268987500Y-65743750D01*
G75*
G02*
X269206250Y-65525000I218750J0D01*
G01*
X269643750Y-65525000D01*
G75*
G02*
X269862500Y-65743750I0J-218750D01*
G01*
X269862500Y-66256250D01*
G75*
G02*
X269643750Y-66475000I-218750J0D01*
G01*
X269206250Y-66475000D01*
G75*
G02*
X268987500Y-66256250I0J218750D01*
G01*
G37*
%TD*%
%TO.C,R72*%
G36*
G01*
X281562500Y-67256250D02*
X281562500Y-66743750D01*
G75*
G02*
X281781250Y-66525000I218750J0D01*
G01*
X282218750Y-66525000D01*
G75*
G02*
X282437500Y-66743750I0J-218750D01*
G01*
X282437500Y-67256250D01*
G75*
G02*
X282218750Y-67475000I-218750J0D01*
G01*
X281781250Y-67475000D01*
G75*
G02*
X281562500Y-67256250I0J218750D01*
G01*
G37*
G36*
G01*
X279987500Y-67256250D02*
X279987500Y-66743750D01*
G75*
G02*
X280206250Y-66525000I218750J0D01*
G01*
X280643750Y-66525000D01*
G75*
G02*
X280862500Y-66743750I0J-218750D01*
G01*
X280862500Y-67256250D01*
G75*
G02*
X280643750Y-67475000I-218750J0D01*
G01*
X280206250Y-67475000D01*
G75*
G02*
X279987500Y-67256250I0J218750D01*
G01*
G37*
%TD*%
%TO.C,R73*%
G36*
G01*
X257280001Y-100301251D02*
X257280001Y-99788751D01*
G75*
G02*
X257498751Y-99570001I218750J0D01*
G01*
X257936251Y-99570001D01*
G75*
G02*
X258155001Y-99788751I0J-218750D01*
G01*
X258155001Y-100301251D01*
G75*
G02*
X257936251Y-100520001I-218750J0D01*
G01*
X257498751Y-100520001D01*
G75*
G02*
X257280001Y-100301251I0J218750D01*
G01*
G37*
G36*
G01*
X258855001Y-100301251D02*
X258855001Y-99788751D01*
G75*
G02*
X259073751Y-99570001I218750J0D01*
G01*
X259511251Y-99570001D01*
G75*
G02*
X259730001Y-99788751I0J-218750D01*
G01*
X259730001Y-100301251D01*
G75*
G02*
X259511251Y-100520001I-218750J0D01*
G01*
X259073751Y-100520001D01*
G75*
G02*
X258855001Y-100301251I0J218750D01*
G01*
G37*
%TD*%
%TO.C,R74*%
G36*
G01*
X258855001Y-102811251D02*
X258855001Y-102298751D01*
G75*
G02*
X259073751Y-102080001I218750J0D01*
G01*
X259511251Y-102080001D01*
G75*
G02*
X259730001Y-102298751I0J-218750D01*
G01*
X259730001Y-102811251D01*
G75*
G02*
X259511251Y-103030001I-218750J0D01*
G01*
X259073751Y-103030001D01*
G75*
G02*
X258855001Y-102811251I0J218750D01*
G01*
G37*
G36*
G01*
X257280001Y-102811251D02*
X257280001Y-102298751D01*
G75*
G02*
X257498751Y-102080001I218750J0D01*
G01*
X257936251Y-102080001D01*
G75*
G02*
X258155001Y-102298751I0J-218750D01*
G01*
X258155001Y-102811251D01*
G75*
G02*
X257936251Y-103030001I-218750J0D01*
G01*
X257498751Y-103030001D01*
G75*
G02*
X257280001Y-102811251I0J218750D01*
G01*
G37*
%TD*%
%TO.C,R75*%
G36*
G01*
X260990001Y-71701251D02*
X260990001Y-71188751D01*
G75*
G02*
X261208751Y-70970001I218750J0D01*
G01*
X261646251Y-70970001D01*
G75*
G02*
X261865001Y-71188751I0J-218750D01*
G01*
X261865001Y-71701251D01*
G75*
G02*
X261646251Y-71920001I-218750J0D01*
G01*
X261208751Y-71920001D01*
G75*
G02*
X260990001Y-71701251I0J218750D01*
G01*
G37*
G36*
G01*
X262565001Y-71701251D02*
X262565001Y-71188751D01*
G75*
G02*
X262783751Y-70970001I218750J0D01*
G01*
X263221251Y-70970001D01*
G75*
G02*
X263440001Y-71188751I0J-218750D01*
G01*
X263440001Y-71701251D01*
G75*
G02*
X263221251Y-71920001I-218750J0D01*
G01*
X262783751Y-71920001D01*
G75*
G02*
X262565001Y-71701251I0J218750D01*
G01*
G37*
%TD*%
%TO.C,R76*%
G36*
G01*
X258555001Y-74211251D02*
X258555001Y-73698751D01*
G75*
G02*
X258773751Y-73480001I218750J0D01*
G01*
X259211251Y-73480001D01*
G75*
G02*
X259430001Y-73698751I0J-218750D01*
G01*
X259430001Y-74211251D01*
G75*
G02*
X259211251Y-74430001I-218750J0D01*
G01*
X258773751Y-74430001D01*
G75*
G02*
X258555001Y-74211251I0J218750D01*
G01*
G37*
G36*
G01*
X256980001Y-74211251D02*
X256980001Y-73698751D01*
G75*
G02*
X257198751Y-73480001I218750J0D01*
G01*
X257636251Y-73480001D01*
G75*
G02*
X257855001Y-73698751I0J-218750D01*
G01*
X257855001Y-74211251D01*
G75*
G02*
X257636251Y-74430001I-218750J0D01*
G01*
X257198751Y-74430001D01*
G75*
G02*
X256980001Y-74211251I0J218750D01*
G01*
G37*
%TD*%
%TO.C,R77*%
G36*
G01*
X261290001Y-100301251D02*
X261290001Y-99788751D01*
G75*
G02*
X261508751Y-99570001I218750J0D01*
G01*
X261946251Y-99570001D01*
G75*
G02*
X262165001Y-99788751I0J-218750D01*
G01*
X262165001Y-100301251D01*
G75*
G02*
X261946251Y-100520001I-218750J0D01*
G01*
X261508751Y-100520001D01*
G75*
G02*
X261290001Y-100301251I0J218750D01*
G01*
G37*
G36*
G01*
X262865001Y-100301251D02*
X262865001Y-99788751D01*
G75*
G02*
X263083751Y-99570001I218750J0D01*
G01*
X263521251Y-99570001D01*
G75*
G02*
X263740001Y-99788751I0J-218750D01*
G01*
X263740001Y-100301251D01*
G75*
G02*
X263521251Y-100520001I-218750J0D01*
G01*
X263083751Y-100520001D01*
G75*
G02*
X262865001Y-100301251I0J218750D01*
G01*
G37*
%TD*%
%TO.C,R78*%
G36*
G01*
X270585001Y-74211251D02*
X270585001Y-73698751D01*
G75*
G02*
X270803751Y-73480001I218750J0D01*
G01*
X271241251Y-73480001D01*
G75*
G02*
X271460001Y-73698751I0J-218750D01*
G01*
X271460001Y-74211251D01*
G75*
G02*
X271241251Y-74430001I-218750J0D01*
G01*
X270803751Y-74430001D01*
G75*
G02*
X270585001Y-74211251I0J218750D01*
G01*
G37*
G36*
G01*
X269010001Y-74211251D02*
X269010001Y-73698751D01*
G75*
G02*
X269228751Y-73480001I218750J0D01*
G01*
X269666251Y-73480001D01*
G75*
G02*
X269885001Y-73698751I0J-218750D01*
G01*
X269885001Y-74211251D01*
G75*
G02*
X269666251Y-74430001I-218750J0D01*
G01*
X269228751Y-74430001D01*
G75*
G02*
X269010001Y-74211251I0J218750D01*
G01*
G37*
%TD*%
%TO.C,R79*%
G36*
G01*
X260990001Y-74211251D02*
X260990001Y-73698751D01*
G75*
G02*
X261208751Y-73480001I218750J0D01*
G01*
X261646251Y-73480001D01*
G75*
G02*
X261865001Y-73698751I0J-218750D01*
G01*
X261865001Y-74211251D01*
G75*
G02*
X261646251Y-74430001I-218750J0D01*
G01*
X261208751Y-74430001D01*
G75*
G02*
X260990001Y-74211251I0J218750D01*
G01*
G37*
G36*
G01*
X262565001Y-74211251D02*
X262565001Y-73698751D01*
G75*
G02*
X262783751Y-73480001I218750J0D01*
G01*
X263221251Y-73480001D01*
G75*
G02*
X263440001Y-73698751I0J-218750D01*
G01*
X263440001Y-74211251D01*
G75*
G02*
X263221251Y-74430001I-218750J0D01*
G01*
X262783751Y-74430001D01*
G75*
G02*
X262565001Y-74211251I0J218750D01*
G01*
G37*
%TD*%
%TO.C,R80*%
G36*
G01*
X261290001Y-102811251D02*
X261290001Y-102298751D01*
G75*
G02*
X261508751Y-102080001I218750J0D01*
G01*
X261946251Y-102080001D01*
G75*
G02*
X262165001Y-102298751I0J-218750D01*
G01*
X262165001Y-102811251D01*
G75*
G02*
X261946251Y-103030001I-218750J0D01*
G01*
X261508751Y-103030001D01*
G75*
G02*
X261290001Y-102811251I0J218750D01*
G01*
G37*
G36*
G01*
X262865001Y-102811251D02*
X262865001Y-102298751D01*
G75*
G02*
X263083751Y-102080001I218750J0D01*
G01*
X263521251Y-102080001D01*
G75*
G02*
X263740001Y-102298751I0J-218750D01*
G01*
X263740001Y-102811251D01*
G75*
G02*
X263521251Y-103030001I-218750J0D01*
G01*
X263083751Y-103030001D01*
G75*
G02*
X262865001Y-102811251I0J218750D01*
G01*
G37*
%TD*%
%TO.C,R81*%
G36*
G01*
X258555001Y-79231251D02*
X258555001Y-78718751D01*
G75*
G02*
X258773751Y-78500001I218750J0D01*
G01*
X259211251Y-78500001D01*
G75*
G02*
X259430001Y-78718751I0J-218750D01*
G01*
X259430001Y-79231251D01*
G75*
G02*
X259211251Y-79450001I-218750J0D01*
G01*
X258773751Y-79450001D01*
G75*
G02*
X258555001Y-79231251I0J218750D01*
G01*
G37*
G36*
G01*
X256980001Y-79231251D02*
X256980001Y-78718751D01*
G75*
G02*
X257198751Y-78500001I218750J0D01*
G01*
X257636251Y-78500001D01*
G75*
G02*
X257855001Y-78718751I0J-218750D01*
G01*
X257855001Y-79231251D01*
G75*
G02*
X257636251Y-79450001I-218750J0D01*
G01*
X257198751Y-79450001D01*
G75*
G02*
X256980001Y-79231251I0J218750D01*
G01*
G37*
%TD*%
%TO.C,R82*%
G36*
G01*
X265000001Y-71701251D02*
X265000001Y-71188751D01*
G75*
G02*
X265218751Y-70970001I218750J0D01*
G01*
X265656251Y-70970001D01*
G75*
G02*
X265875001Y-71188751I0J-218750D01*
G01*
X265875001Y-71701251D01*
G75*
G02*
X265656251Y-71920001I-218750J0D01*
G01*
X265218751Y-71920001D01*
G75*
G02*
X265000001Y-71701251I0J218750D01*
G01*
G37*
G36*
G01*
X266575001Y-71701251D02*
X266575001Y-71188751D01*
G75*
G02*
X266793751Y-70970001I218750J0D01*
G01*
X267231251Y-70970001D01*
G75*
G02*
X267450001Y-71188751I0J-218750D01*
G01*
X267450001Y-71701251D01*
G75*
G02*
X267231251Y-71920001I-218750J0D01*
G01*
X266793751Y-71920001D01*
G75*
G02*
X266575001Y-71701251I0J218750D01*
G01*
G37*
%TD*%
%TO.C,R83*%
G36*
G01*
X266875001Y-100301251D02*
X266875001Y-99788751D01*
G75*
G02*
X267093751Y-99570001I218750J0D01*
G01*
X267531251Y-99570001D01*
G75*
G02*
X267750001Y-99788751I0J-218750D01*
G01*
X267750001Y-100301251D01*
G75*
G02*
X267531251Y-100520001I-218750J0D01*
G01*
X267093751Y-100520001D01*
G75*
G02*
X266875001Y-100301251I0J218750D01*
G01*
G37*
G36*
G01*
X265300001Y-100301251D02*
X265300001Y-99788751D01*
G75*
G02*
X265518751Y-99570001I218750J0D01*
G01*
X265956251Y-99570001D01*
G75*
G02*
X266175001Y-99788751I0J-218750D01*
G01*
X266175001Y-100301251D01*
G75*
G02*
X265956251Y-100520001I-218750J0D01*
G01*
X265518751Y-100520001D01*
G75*
G02*
X265300001Y-100301251I0J218750D01*
G01*
G37*
%TD*%
%TO.C,R84*%
G36*
G01*
X260990001Y-76721251D02*
X260990001Y-76208751D01*
G75*
G02*
X261208751Y-75990001I218750J0D01*
G01*
X261646251Y-75990001D01*
G75*
G02*
X261865001Y-76208751I0J-218750D01*
G01*
X261865001Y-76721251D01*
G75*
G02*
X261646251Y-76940001I-218750J0D01*
G01*
X261208751Y-76940001D01*
G75*
G02*
X260990001Y-76721251I0J218750D01*
G01*
G37*
G36*
G01*
X262565001Y-76721251D02*
X262565001Y-76208751D01*
G75*
G02*
X262783751Y-75990001I218750J0D01*
G01*
X263221251Y-75990001D01*
G75*
G02*
X263440001Y-76208751I0J-218750D01*
G01*
X263440001Y-76721251D01*
G75*
G02*
X263221251Y-76940001I-218750J0D01*
G01*
X262783751Y-76940001D01*
G75*
G02*
X262565001Y-76721251I0J218750D01*
G01*
G37*
%TD*%
%TO.C,R85*%
G36*
G01*
X266575001Y-74211251D02*
X266575001Y-73698751D01*
G75*
G02*
X266793751Y-73480001I218750J0D01*
G01*
X267231251Y-73480001D01*
G75*
G02*
X267450001Y-73698751I0J-218750D01*
G01*
X267450001Y-74211251D01*
G75*
G02*
X267231251Y-74430001I-218750J0D01*
G01*
X266793751Y-74430001D01*
G75*
G02*
X266575001Y-74211251I0J218750D01*
G01*
G37*
G36*
G01*
X265000001Y-74211251D02*
X265000001Y-73698751D01*
G75*
G02*
X265218751Y-73480001I218750J0D01*
G01*
X265656251Y-73480001D01*
G75*
G02*
X265875001Y-73698751I0J-218750D01*
G01*
X265875001Y-74211251D01*
G75*
G02*
X265656251Y-74430001I-218750J0D01*
G01*
X265218751Y-74430001D01*
G75*
G02*
X265000001Y-74211251I0J218750D01*
G01*
G37*
%TD*%
%TO.C,R86*%
G36*
G01*
X256980001Y-81741251D02*
X256980001Y-81228751D01*
G75*
G02*
X257198751Y-81010001I218750J0D01*
G01*
X257636251Y-81010001D01*
G75*
G02*
X257855001Y-81228751I0J-218750D01*
G01*
X257855001Y-81741251D01*
G75*
G02*
X257636251Y-81960001I-218750J0D01*
G01*
X257198751Y-81960001D01*
G75*
G02*
X256980001Y-81741251I0J218750D01*
G01*
G37*
G36*
G01*
X258555001Y-81741251D02*
X258555001Y-81228751D01*
G75*
G02*
X258773751Y-81010001I218750J0D01*
G01*
X259211251Y-81010001D01*
G75*
G02*
X259430001Y-81228751I0J-218750D01*
G01*
X259430001Y-81741251D01*
G75*
G02*
X259211251Y-81960001I-218750J0D01*
G01*
X258773751Y-81960001D01*
G75*
G02*
X258555001Y-81741251I0J218750D01*
G01*
G37*
%TD*%
%TO.C,R87*%
G36*
G01*
X266875001Y-102811251D02*
X266875001Y-102298751D01*
G75*
G02*
X267093751Y-102080001I218750J0D01*
G01*
X267531251Y-102080001D01*
G75*
G02*
X267750001Y-102298751I0J-218750D01*
G01*
X267750001Y-102811251D01*
G75*
G02*
X267531251Y-103030001I-218750J0D01*
G01*
X267093751Y-103030001D01*
G75*
G02*
X266875001Y-102811251I0J218750D01*
G01*
G37*
G36*
G01*
X265300001Y-102811251D02*
X265300001Y-102298751D01*
G75*
G02*
X265518751Y-102080001I218750J0D01*
G01*
X265956251Y-102080001D01*
G75*
G02*
X266175001Y-102298751I0J-218750D01*
G01*
X266175001Y-102811251D01*
G75*
G02*
X265956251Y-103030001I-218750J0D01*
G01*
X265518751Y-103030001D01*
G75*
G02*
X265300001Y-102811251I0J218750D01*
G01*
G37*
%TD*%
%TO.C,R88*%
G36*
G01*
X262565001Y-79231251D02*
X262565001Y-78718751D01*
G75*
G02*
X262783751Y-78500001I218750J0D01*
G01*
X263221251Y-78500001D01*
G75*
G02*
X263440001Y-78718751I0J-218750D01*
G01*
X263440001Y-79231251D01*
G75*
G02*
X263221251Y-79450001I-218750J0D01*
G01*
X262783751Y-79450001D01*
G75*
G02*
X262565001Y-79231251I0J218750D01*
G01*
G37*
G36*
G01*
X260990001Y-79231251D02*
X260990001Y-78718751D01*
G75*
G02*
X261208751Y-78500001I218750J0D01*
G01*
X261646251Y-78500001D01*
G75*
G02*
X261865001Y-78718751I0J-218750D01*
G01*
X261865001Y-79231251D01*
G75*
G02*
X261646251Y-79450001I-218750J0D01*
G01*
X261208751Y-79450001D01*
G75*
G02*
X260990001Y-79231251I0J218750D01*
G01*
G37*
%TD*%
%TO.C,R89*%
G36*
G01*
X269010001Y-71701251D02*
X269010001Y-71188751D01*
G75*
G02*
X269228751Y-70970001I218750J0D01*
G01*
X269666251Y-70970001D01*
G75*
G02*
X269885001Y-71188751I0J-218750D01*
G01*
X269885001Y-71701251D01*
G75*
G02*
X269666251Y-71920001I-218750J0D01*
G01*
X269228751Y-71920001D01*
G75*
G02*
X269010001Y-71701251I0J218750D01*
G01*
G37*
G36*
G01*
X270585001Y-71701251D02*
X270585001Y-71188751D01*
G75*
G02*
X270803751Y-70970001I218750J0D01*
G01*
X271241251Y-70970001D01*
G75*
G02*
X271460001Y-71188751I0J-218750D01*
G01*
X271460001Y-71701251D01*
G75*
G02*
X271241251Y-71920001I-218750J0D01*
G01*
X270803751Y-71920001D01*
G75*
G02*
X270585001Y-71701251I0J218750D01*
G01*
G37*
%TD*%
%TO.C,R90*%
G36*
G01*
X274562500Y-66256250D02*
X274562500Y-65743750D01*
G75*
G02*
X274781250Y-65525000I218750J0D01*
G01*
X275218750Y-65525000D01*
G75*
G02*
X275437500Y-65743750I0J-218750D01*
G01*
X275437500Y-66256250D01*
G75*
G02*
X275218750Y-66475000I-218750J0D01*
G01*
X274781250Y-66475000D01*
G75*
G02*
X274562500Y-66256250I0J218750D01*
G01*
G37*
G36*
G01*
X272987500Y-66256250D02*
X272987500Y-65743750D01*
G75*
G02*
X273206250Y-65525000I218750J0D01*
G01*
X273643750Y-65525000D01*
G75*
G02*
X273862500Y-65743750I0J-218750D01*
G01*
X273862500Y-66256250D01*
G75*
G02*
X273643750Y-66475000I-218750J0D01*
G01*
X273206250Y-66475000D01*
G75*
G02*
X272987500Y-66256250I0J218750D01*
G01*
G37*
%TD*%
%TO.C,R91*%
G36*
G01*
X256980001Y-71701251D02*
X256980001Y-71188751D01*
G75*
G02*
X257198751Y-70970001I218750J0D01*
G01*
X257636251Y-70970001D01*
G75*
G02*
X257855001Y-71188751I0J-218750D01*
G01*
X257855001Y-71701251D01*
G75*
G02*
X257636251Y-71920001I-218750J0D01*
G01*
X257198751Y-71920001D01*
G75*
G02*
X256980001Y-71701251I0J218750D01*
G01*
G37*
G36*
G01*
X258555001Y-71701251D02*
X258555001Y-71188751D01*
G75*
G02*
X258773751Y-70970001I218750J0D01*
G01*
X259211251Y-70970001D01*
G75*
G02*
X259430001Y-71188751I0J-218750D01*
G01*
X259430001Y-71701251D01*
G75*
G02*
X259211251Y-71920001I-218750J0D01*
G01*
X258773751Y-71920001D01*
G75*
G02*
X258555001Y-71701251I0J218750D01*
G01*
G37*
%TD*%
%TO.C,R92*%
G36*
G01*
X258555001Y-76721251D02*
X258555001Y-76208751D01*
G75*
G02*
X258773751Y-75990001I218750J0D01*
G01*
X259211251Y-75990001D01*
G75*
G02*
X259430001Y-76208751I0J-218750D01*
G01*
X259430001Y-76721251D01*
G75*
G02*
X259211251Y-76940001I-218750J0D01*
G01*
X258773751Y-76940001D01*
G75*
G02*
X258555001Y-76721251I0J218750D01*
G01*
G37*
G36*
G01*
X256980001Y-76721251D02*
X256980001Y-76208751D01*
G75*
G02*
X257198751Y-75990001I218750J0D01*
G01*
X257636251Y-75990001D01*
G75*
G02*
X257855001Y-76208751I0J-218750D01*
G01*
X257855001Y-76721251D01*
G75*
G02*
X257636251Y-76940001I-218750J0D01*
G01*
X257198751Y-76940001D01*
G75*
G02*
X256980001Y-76721251I0J218750D01*
G01*
G37*
%TD*%
D24*
%TO.C,RN1*%
X215500000Y-57600000D03*
X215100000Y-58000000D03*
X215500000Y-57200000D03*
X215500000Y-56800000D03*
X215100000Y-57200000D03*
X215100000Y-56800000D03*
X215500000Y-58000000D03*
X215100000Y-57600000D03*
%TD*%
%TO.C,RN2*%
X215100000Y-54900000D03*
X215500000Y-55300000D03*
X215100000Y-54100000D03*
X215100000Y-54500000D03*
X215500000Y-54100000D03*
X215500000Y-54500000D03*
X215100000Y-55300000D03*
X215500000Y-54900000D03*
%TD*%
%TO.C,RN3*%
X240500000Y-54000000D03*
X240900000Y-53600000D03*
X240500000Y-54400000D03*
X240500000Y-54800000D03*
X240900000Y-54400000D03*
X240900000Y-54800000D03*
X240500000Y-53600000D03*
X240900000Y-54000000D03*
%TD*%
%TO.C,RN4*%
X240900000Y-56600000D03*
X240500000Y-56200000D03*
X240900000Y-57400000D03*
X240900000Y-57000000D03*
X240500000Y-57400000D03*
X240500000Y-57000000D03*
X240900000Y-56200000D03*
X240500000Y-56600000D03*
%TD*%
%TO.C,RN5*%
X240600000Y-34000000D03*
X241000000Y-33600000D03*
X240600000Y-34400000D03*
X240600000Y-34800000D03*
X241000000Y-34400000D03*
X241000000Y-34800000D03*
X240600000Y-33600000D03*
X241000000Y-34000000D03*
%TD*%
%TO.C,RN6*%
X240600000Y-36700000D03*
X241000000Y-36300000D03*
X240600000Y-37100000D03*
X240600000Y-37500000D03*
X241000000Y-37100000D03*
X241000000Y-37500000D03*
X240600000Y-36300000D03*
X241000000Y-36700000D03*
%TD*%
%TO.C,RN7*%
X214900000Y-37100000D03*
X215300000Y-37500000D03*
X214900000Y-36300000D03*
X214900000Y-36700000D03*
X215300000Y-36300000D03*
X215300000Y-36700000D03*
X214900000Y-37500000D03*
X215300000Y-37100000D03*
%TD*%
%TO.C,RN8*%
X214900000Y-34400000D03*
X215300000Y-34800000D03*
X214900000Y-33600000D03*
X214900000Y-34000000D03*
X215300000Y-33600000D03*
X215300000Y-34000000D03*
X214900000Y-34800000D03*
X215300000Y-34400000D03*
%TD*%
%TO.C,RN9*%
X236400000Y-34000000D03*
X236800000Y-33600000D03*
X236400000Y-34400000D03*
X236400000Y-34800000D03*
X236800000Y-34400000D03*
X236800000Y-34800000D03*
X236400000Y-33600000D03*
X236800000Y-34000000D03*
%TD*%
%TO.C,RN10*%
X236800000Y-36700000D03*
X236400000Y-36300000D03*
X236800000Y-37500000D03*
X236800000Y-37100000D03*
X236400000Y-37500000D03*
X236400000Y-37100000D03*
X236800000Y-36300000D03*
X236400000Y-36700000D03*
%TD*%
%TO.C,RN11*%
X236500000Y-54000000D03*
X236900000Y-53600000D03*
X236500000Y-54400000D03*
X236500000Y-54800000D03*
X236900000Y-54400000D03*
X236900000Y-54800000D03*
X236500000Y-53600000D03*
X236900000Y-54000000D03*
%TD*%
%TO.C,RN12*%
X236900000Y-56600000D03*
X236500000Y-56200000D03*
X236900000Y-57400000D03*
X236900000Y-57000000D03*
X236500000Y-57400000D03*
X236500000Y-57000000D03*
X236900000Y-56200000D03*
X236500000Y-56600000D03*
%TD*%
%TO.C,RN13*%
X219000000Y-34000000D03*
X219400000Y-33600000D03*
X219000000Y-34400000D03*
X219000000Y-34800000D03*
X219400000Y-34400000D03*
X219400000Y-34800000D03*
X219000000Y-33600000D03*
X219400000Y-34000000D03*
%TD*%
%TO.C,RN14*%
X219400000Y-36700000D03*
X219000000Y-36300000D03*
X219400000Y-37500000D03*
X219400000Y-37100000D03*
X219000000Y-37500000D03*
X219000000Y-37100000D03*
X219400000Y-36300000D03*
X219000000Y-36700000D03*
%TD*%
%TO.C,RN15*%
X219200000Y-54500000D03*
X219600000Y-54100000D03*
X219200000Y-54900000D03*
X219200000Y-55300000D03*
X219600000Y-54900000D03*
X219600000Y-55300000D03*
X219200000Y-54100000D03*
X219600000Y-54500000D03*
%TD*%
%TO.C,RN16*%
X219600000Y-57200000D03*
X219200000Y-56800000D03*
X219600000Y-58000000D03*
X219600000Y-57600000D03*
X219200000Y-58000000D03*
X219200000Y-57600000D03*
X219600000Y-56800000D03*
X219200000Y-57200000D03*
%TD*%
D25*
%TO.C,SW1*%
X146500000Y-164750000D03*
X144000000Y-164750000D03*
X141500000Y-164750000D03*
%TD*%
D26*
%TO.C,SW2*%
X155950000Y-88500000D03*
X164050000Y-88500000D03*
X164000000Y-93000000D03*
X155950000Y-93000000D03*
%TD*%
%TO.C,U1*%
G36*
G01*
X229455000Y-157150000D02*
X229755000Y-157150000D01*
G75*
G02*
X229905000Y-157300000I0J-150000D01*
G01*
X229905000Y-158950000D01*
G75*
G02*
X229755000Y-159100000I-150000J0D01*
G01*
X229455000Y-159100000D01*
G75*
G02*
X229305000Y-158950000I0J150000D01*
G01*
X229305000Y-157300000D01*
G75*
G02*
X229455000Y-157150000I150000J0D01*
G01*
G37*
G36*
G01*
X228185000Y-157150000D02*
X228485000Y-157150000D01*
G75*
G02*
X228635000Y-157300000I0J-150000D01*
G01*
X228635000Y-158950000D01*
G75*
G02*
X228485000Y-159100000I-150000J0D01*
G01*
X228185000Y-159100000D01*
G75*
G02*
X228035000Y-158950000I0J150000D01*
G01*
X228035000Y-157300000D01*
G75*
G02*
X228185000Y-157150000I150000J0D01*
G01*
G37*
G36*
G01*
X226915000Y-157150000D02*
X227215000Y-157150000D01*
G75*
G02*
X227365000Y-157300000I0J-150000D01*
G01*
X227365000Y-158950000D01*
G75*
G02*
X227215000Y-159100000I-150000J0D01*
G01*
X226915000Y-159100000D01*
G75*
G02*
X226765000Y-158950000I0J150000D01*
G01*
X226765000Y-157300000D01*
G75*
G02*
X226915000Y-157150000I150000J0D01*
G01*
G37*
G36*
G01*
X225645000Y-157150000D02*
X225945000Y-157150000D01*
G75*
G02*
X226095000Y-157300000I0J-150000D01*
G01*
X226095000Y-158950000D01*
G75*
G02*
X225945000Y-159100000I-150000J0D01*
G01*
X225645000Y-159100000D01*
G75*
G02*
X225495000Y-158950000I0J150000D01*
G01*
X225495000Y-157300000D01*
G75*
G02*
X225645000Y-157150000I150000J0D01*
G01*
G37*
G36*
G01*
X225645000Y-162100000D02*
X225945000Y-162100000D01*
G75*
G02*
X226095000Y-162250000I0J-150000D01*
G01*
X226095000Y-163900000D01*
G75*
G02*
X225945000Y-164050000I-150000J0D01*
G01*
X225645000Y-164050000D01*
G75*
G02*
X225495000Y-163900000I0J150000D01*
G01*
X225495000Y-162250000D01*
G75*
G02*
X225645000Y-162100000I150000J0D01*
G01*
G37*
G36*
G01*
X226915000Y-162100000D02*
X227215000Y-162100000D01*
G75*
G02*
X227365000Y-162250000I0J-150000D01*
G01*
X227365000Y-163900000D01*
G75*
G02*
X227215000Y-164050000I-150000J0D01*
G01*
X226915000Y-164050000D01*
G75*
G02*
X226765000Y-163900000I0J150000D01*
G01*
X226765000Y-162250000D01*
G75*
G02*
X226915000Y-162100000I150000J0D01*
G01*
G37*
G36*
G01*
X228185000Y-162100000D02*
X228485000Y-162100000D01*
G75*
G02*
X228635000Y-162250000I0J-150000D01*
G01*
X228635000Y-163900000D01*
G75*
G02*
X228485000Y-164050000I-150000J0D01*
G01*
X228185000Y-164050000D01*
G75*
G02*
X228035000Y-163900000I0J150000D01*
G01*
X228035000Y-162250000D01*
G75*
G02*
X228185000Y-162100000I150000J0D01*
G01*
G37*
G36*
G01*
X229455000Y-162100000D02*
X229755000Y-162100000D01*
G75*
G02*
X229905000Y-162250000I0J-150000D01*
G01*
X229905000Y-163900000D01*
G75*
G02*
X229755000Y-164050000I-150000J0D01*
G01*
X229455000Y-164050000D01*
G75*
G02*
X229305000Y-163900000I0J150000D01*
G01*
X229305000Y-162250000D01*
G75*
G02*
X229455000Y-162100000I150000J0D01*
G01*
G37*
%TD*%
D27*
%TO.C,U2*%
X226300000Y-150240000D03*
D28*
X229550000Y-154175000D03*
X229050000Y-154175000D03*
X228550000Y-154175000D03*
X228050000Y-154175000D03*
X227550000Y-154175000D03*
X227050000Y-154175000D03*
X226550000Y-154175000D03*
X226050000Y-154175000D03*
X225550000Y-154175000D03*
X225050000Y-154175000D03*
X224550000Y-154175000D03*
X224050000Y-154175000D03*
X223550000Y-154175000D03*
X223050000Y-154175000D03*
D29*
X222365000Y-153490000D03*
X222365000Y-152990000D03*
X222365000Y-152490000D03*
X222365000Y-151990000D03*
X222365000Y-151490000D03*
X222365000Y-150990000D03*
X222365000Y-150490000D03*
X222365000Y-149990000D03*
X222365000Y-149490000D03*
X222365000Y-148990000D03*
X222365000Y-148490000D03*
X222365000Y-147990000D03*
X222365000Y-147490000D03*
X222365000Y-146990000D03*
D28*
X223050000Y-146305000D03*
X223550000Y-146305000D03*
X224050000Y-146305000D03*
X224550000Y-146305000D03*
X225050000Y-146305000D03*
X225550000Y-146305000D03*
X226050000Y-146305000D03*
X226550000Y-146305000D03*
X227050000Y-146305000D03*
X227550000Y-146305000D03*
X228050000Y-146305000D03*
X228550000Y-146305000D03*
X229050000Y-146305000D03*
X229550000Y-146305000D03*
D29*
X230235000Y-146990000D03*
X230235000Y-147490000D03*
X230235000Y-147990000D03*
X230235000Y-148490000D03*
X230235000Y-148990000D03*
X230235000Y-149490000D03*
X230235000Y-149990000D03*
X230235000Y-150490000D03*
X230235000Y-150990000D03*
X230235000Y-151490000D03*
X230235000Y-151990000D03*
X230235000Y-152490000D03*
X230235000Y-152990000D03*
X230235000Y-153490000D03*
%TD*%
%TO.C,U3*%
G36*
G01*
X191875000Y-124937500D02*
X191875000Y-125062500D01*
G75*
G02*
X191812500Y-125125000I-62500J0D01*
G01*
X191112500Y-125125000D01*
G75*
G02*
X191050000Y-125062500I0J62500D01*
G01*
X191050000Y-124937500D01*
G75*
G02*
X191112500Y-124875000I62500J0D01*
G01*
X191812500Y-124875000D01*
G75*
G02*
X191875000Y-124937500I0J-62500D01*
G01*
G37*
G36*
G01*
X191875000Y-124437500D02*
X191875000Y-124562500D01*
G75*
G02*
X191812500Y-124625000I-62500J0D01*
G01*
X191112500Y-124625000D01*
G75*
G02*
X191050000Y-124562500I0J62500D01*
G01*
X191050000Y-124437500D01*
G75*
G02*
X191112500Y-124375000I62500J0D01*
G01*
X191812500Y-124375000D01*
G75*
G02*
X191875000Y-124437500I0J-62500D01*
G01*
G37*
G36*
G01*
X191875000Y-123937500D02*
X191875000Y-124062500D01*
G75*
G02*
X191812500Y-124125000I-62500J0D01*
G01*
X191112500Y-124125000D01*
G75*
G02*
X191050000Y-124062500I0J62500D01*
G01*
X191050000Y-123937500D01*
G75*
G02*
X191112500Y-123875000I62500J0D01*
G01*
X191812500Y-123875000D01*
G75*
G02*
X191875000Y-123937500I0J-62500D01*
G01*
G37*
G36*
G01*
X191875000Y-123437500D02*
X191875000Y-123562500D01*
G75*
G02*
X191812500Y-123625000I-62500J0D01*
G01*
X191112500Y-123625000D01*
G75*
G02*
X191050000Y-123562500I0J62500D01*
G01*
X191050000Y-123437500D01*
G75*
G02*
X191112500Y-123375000I62500J0D01*
G01*
X191812500Y-123375000D01*
G75*
G02*
X191875000Y-123437500I0J-62500D01*
G01*
G37*
G36*
G01*
X191875000Y-122937500D02*
X191875000Y-123062500D01*
G75*
G02*
X191812500Y-123125000I-62500J0D01*
G01*
X191112500Y-123125000D01*
G75*
G02*
X191050000Y-123062500I0J62500D01*
G01*
X191050000Y-122937500D01*
G75*
G02*
X191112500Y-122875000I62500J0D01*
G01*
X191812500Y-122875000D01*
G75*
G02*
X191875000Y-122937500I0J-62500D01*
G01*
G37*
G36*
G01*
X188950000Y-122937500D02*
X188950000Y-123062500D01*
G75*
G02*
X188887500Y-123125000I-62500J0D01*
G01*
X188187500Y-123125000D01*
G75*
G02*
X188125000Y-123062500I0J62500D01*
G01*
X188125000Y-122937500D01*
G75*
G02*
X188187500Y-122875000I62500J0D01*
G01*
X188887500Y-122875000D01*
G75*
G02*
X188950000Y-122937500I0J-62500D01*
G01*
G37*
G36*
G01*
X188950000Y-123437500D02*
X188950000Y-123562500D01*
G75*
G02*
X188887500Y-123625000I-62500J0D01*
G01*
X188187500Y-123625000D01*
G75*
G02*
X188125000Y-123562500I0J62500D01*
G01*
X188125000Y-123437500D01*
G75*
G02*
X188187500Y-123375000I62500J0D01*
G01*
X188887500Y-123375000D01*
G75*
G02*
X188950000Y-123437500I0J-62500D01*
G01*
G37*
G36*
G01*
X188950000Y-123937500D02*
X188950000Y-124062500D01*
G75*
G02*
X188887500Y-124125000I-62500J0D01*
G01*
X188187500Y-124125000D01*
G75*
G02*
X188125000Y-124062500I0J62500D01*
G01*
X188125000Y-123937500D01*
G75*
G02*
X188187500Y-123875000I62500J0D01*
G01*
X188887500Y-123875000D01*
G75*
G02*
X188950000Y-123937500I0J-62500D01*
G01*
G37*
G36*
G01*
X188950000Y-124437500D02*
X188950000Y-124562500D01*
G75*
G02*
X188887500Y-124625000I-62500J0D01*
G01*
X188187500Y-124625000D01*
G75*
G02*
X188125000Y-124562500I0J62500D01*
G01*
X188125000Y-124437500D01*
G75*
G02*
X188187500Y-124375000I62500J0D01*
G01*
X188887500Y-124375000D01*
G75*
G02*
X188950000Y-124437500I0J-62500D01*
G01*
G37*
G36*
G01*
X188950000Y-124937500D02*
X188950000Y-125062500D01*
G75*
G02*
X188887500Y-125125000I-62500J0D01*
G01*
X188187500Y-125125000D01*
G75*
G02*
X188125000Y-125062500I0J62500D01*
G01*
X188125000Y-124937500D01*
G75*
G02*
X188187500Y-124875000I62500J0D01*
G01*
X188887500Y-124875000D01*
G75*
G02*
X188950000Y-124937500I0J-62500D01*
G01*
G37*
G36*
G01*
X190770000Y-124292500D02*
X190770000Y-124957500D01*
G75*
G02*
X190597500Y-125130000I-172500J0D01*
G01*
X190252500Y-125130000D01*
G75*
G02*
X190080000Y-124957500I0J172500D01*
G01*
X190080000Y-124292500D01*
G75*
G02*
X190252500Y-124120000I172500J0D01*
G01*
X190597500Y-124120000D01*
G75*
G02*
X190770000Y-124292500I0J-172500D01*
G01*
G37*
G36*
G01*
X190770000Y-123042500D02*
X190770000Y-123707500D01*
G75*
G02*
X190597500Y-123880000I-172500J0D01*
G01*
X190252500Y-123880000D01*
G75*
G02*
X190080000Y-123707500I0J172500D01*
G01*
X190080000Y-123042500D01*
G75*
G02*
X190252500Y-122870000I172500J0D01*
G01*
X190597500Y-122870000D01*
G75*
G02*
X190770000Y-123042500I0J-172500D01*
G01*
G37*
G36*
G01*
X189920000Y-124292500D02*
X189920000Y-124957500D01*
G75*
G02*
X189747500Y-125130000I-172500J0D01*
G01*
X189402500Y-125130000D01*
G75*
G02*
X189230000Y-124957500I0J172500D01*
G01*
X189230000Y-124292500D01*
G75*
G02*
X189402500Y-124120000I172500J0D01*
G01*
X189747500Y-124120000D01*
G75*
G02*
X189920000Y-124292500I0J-172500D01*
G01*
G37*
G36*
G01*
X189920000Y-123042500D02*
X189920000Y-123707500D01*
G75*
G02*
X189747500Y-123880000I-172500J0D01*
G01*
X189402500Y-123880000D01*
G75*
G02*
X189230000Y-123707500I0J172500D01*
G01*
X189230000Y-123042500D01*
G75*
G02*
X189402500Y-122870000I172500J0D01*
G01*
X189747500Y-122870000D01*
G75*
G02*
X189920000Y-123042500I0J-172500D01*
G01*
G37*
%TD*%
D30*
%TO.C,U4*%
X82794999Y-88244999D03*
X82794999Y-87294999D03*
X82794999Y-86344999D03*
X80594999Y-86344999D03*
X80594999Y-88244999D03*
%TD*%
D31*
%TO.C,U5*%
X238700000Y-175925000D03*
X240700000Y-175925000D03*
X245900000Y-175925000D03*
X247900000Y-175900000D03*
X245900000Y-170525000D03*
X238700000Y-170525000D03*
X247900000Y-170500000D03*
X240700000Y-170525000D03*
%TD*%
%TO.C,U7*%
G36*
G01*
X205920000Y-123042500D02*
X205920000Y-123707500D01*
G75*
G02*
X205747500Y-123880000I-172500J0D01*
G01*
X205402500Y-123880000D01*
G75*
G02*
X205230000Y-123707500I0J172500D01*
G01*
X205230000Y-123042500D01*
G75*
G02*
X205402500Y-122870000I172500J0D01*
G01*
X205747500Y-122870000D01*
G75*
G02*
X205920000Y-123042500I0J-172500D01*
G01*
G37*
G36*
G01*
X205920000Y-124292500D02*
X205920000Y-124957500D01*
G75*
G02*
X205747500Y-125130000I-172500J0D01*
G01*
X205402500Y-125130000D01*
G75*
G02*
X205230000Y-124957500I0J172500D01*
G01*
X205230000Y-124292500D01*
G75*
G02*
X205402500Y-124120000I172500J0D01*
G01*
X205747500Y-124120000D01*
G75*
G02*
X205920000Y-124292500I0J-172500D01*
G01*
G37*
G36*
G01*
X206770000Y-123042500D02*
X206770000Y-123707500D01*
G75*
G02*
X206597500Y-123880000I-172500J0D01*
G01*
X206252500Y-123880000D01*
G75*
G02*
X206080000Y-123707500I0J172500D01*
G01*
X206080000Y-123042500D01*
G75*
G02*
X206252500Y-122870000I172500J0D01*
G01*
X206597500Y-122870000D01*
G75*
G02*
X206770000Y-123042500I0J-172500D01*
G01*
G37*
G36*
G01*
X206770000Y-124292500D02*
X206770000Y-124957500D01*
G75*
G02*
X206597500Y-125130000I-172500J0D01*
G01*
X206252500Y-125130000D01*
G75*
G02*
X206080000Y-124957500I0J172500D01*
G01*
X206080000Y-124292500D01*
G75*
G02*
X206252500Y-124120000I172500J0D01*
G01*
X206597500Y-124120000D01*
G75*
G02*
X206770000Y-124292500I0J-172500D01*
G01*
G37*
G36*
G01*
X204950000Y-124937500D02*
X204950000Y-125062500D01*
G75*
G02*
X204887500Y-125125000I-62500J0D01*
G01*
X204187500Y-125125000D01*
G75*
G02*
X204125000Y-125062500I0J62500D01*
G01*
X204125000Y-124937500D01*
G75*
G02*
X204187500Y-124875000I62500J0D01*
G01*
X204887500Y-124875000D01*
G75*
G02*
X204950000Y-124937500I0J-62500D01*
G01*
G37*
G36*
G01*
X204950000Y-124437500D02*
X204950000Y-124562500D01*
G75*
G02*
X204887500Y-124625000I-62500J0D01*
G01*
X204187500Y-124625000D01*
G75*
G02*
X204125000Y-124562500I0J62500D01*
G01*
X204125000Y-124437500D01*
G75*
G02*
X204187500Y-124375000I62500J0D01*
G01*
X204887500Y-124375000D01*
G75*
G02*
X204950000Y-124437500I0J-62500D01*
G01*
G37*
G36*
G01*
X204950000Y-123937500D02*
X204950000Y-124062500D01*
G75*
G02*
X204887500Y-124125000I-62500J0D01*
G01*
X204187500Y-124125000D01*
G75*
G02*
X204125000Y-124062500I0J62500D01*
G01*
X204125000Y-123937500D01*
G75*
G02*
X204187500Y-123875000I62500J0D01*
G01*
X204887500Y-123875000D01*
G75*
G02*
X204950000Y-123937500I0J-62500D01*
G01*
G37*
G36*
G01*
X204950000Y-123437500D02*
X204950000Y-123562500D01*
G75*
G02*
X204887500Y-123625000I-62500J0D01*
G01*
X204187500Y-123625000D01*
G75*
G02*
X204125000Y-123562500I0J62500D01*
G01*
X204125000Y-123437500D01*
G75*
G02*
X204187500Y-123375000I62500J0D01*
G01*
X204887500Y-123375000D01*
G75*
G02*
X204950000Y-123437500I0J-62500D01*
G01*
G37*
G36*
G01*
X204950000Y-122937500D02*
X204950000Y-123062500D01*
G75*
G02*
X204887500Y-123125000I-62500J0D01*
G01*
X204187500Y-123125000D01*
G75*
G02*
X204125000Y-123062500I0J62500D01*
G01*
X204125000Y-122937500D01*
G75*
G02*
X204187500Y-122875000I62500J0D01*
G01*
X204887500Y-122875000D01*
G75*
G02*
X204950000Y-122937500I0J-62500D01*
G01*
G37*
G36*
G01*
X207875000Y-122937500D02*
X207875000Y-123062500D01*
G75*
G02*
X207812500Y-123125000I-62500J0D01*
G01*
X207112500Y-123125000D01*
G75*
G02*
X207050000Y-123062500I0J62500D01*
G01*
X207050000Y-122937500D01*
G75*
G02*
X207112500Y-122875000I62500J0D01*
G01*
X207812500Y-122875000D01*
G75*
G02*
X207875000Y-122937500I0J-62500D01*
G01*
G37*
G36*
G01*
X207875000Y-123437500D02*
X207875000Y-123562500D01*
G75*
G02*
X207812500Y-123625000I-62500J0D01*
G01*
X207112500Y-123625000D01*
G75*
G02*
X207050000Y-123562500I0J62500D01*
G01*
X207050000Y-123437500D01*
G75*
G02*
X207112500Y-123375000I62500J0D01*
G01*
X207812500Y-123375000D01*
G75*
G02*
X207875000Y-123437500I0J-62500D01*
G01*
G37*
G36*
G01*
X207875000Y-123937500D02*
X207875000Y-124062500D01*
G75*
G02*
X207812500Y-124125000I-62500J0D01*
G01*
X207112500Y-124125000D01*
G75*
G02*
X207050000Y-124062500I0J62500D01*
G01*
X207050000Y-123937500D01*
G75*
G02*
X207112500Y-123875000I62500J0D01*
G01*
X207812500Y-123875000D01*
G75*
G02*
X207875000Y-123937500I0J-62500D01*
G01*
G37*
G36*
G01*
X207875000Y-124437500D02*
X207875000Y-124562500D01*
G75*
G02*
X207812500Y-124625000I-62500J0D01*
G01*
X207112500Y-124625000D01*
G75*
G02*
X207050000Y-124562500I0J62500D01*
G01*
X207050000Y-124437500D01*
G75*
G02*
X207112500Y-124375000I62500J0D01*
G01*
X207812500Y-124375000D01*
G75*
G02*
X207875000Y-124437500I0J-62500D01*
G01*
G37*
G36*
G01*
X207875000Y-124937500D02*
X207875000Y-125062500D01*
G75*
G02*
X207812500Y-125125000I-62500J0D01*
G01*
X207112500Y-125125000D01*
G75*
G02*
X207050000Y-125062500I0J62500D01*
G01*
X207050000Y-124937500D01*
G75*
G02*
X207112500Y-124875000I62500J0D01*
G01*
X207812500Y-124875000D01*
G75*
G02*
X207875000Y-124937500I0J-62500D01*
G01*
G37*
%TD*%
%TO.C,U8*%
G36*
G01*
X216875000Y-124937500D02*
X216875000Y-125062500D01*
G75*
G02*
X216812500Y-125125000I-62500J0D01*
G01*
X216112500Y-125125000D01*
G75*
G02*
X216050000Y-125062500I0J62500D01*
G01*
X216050000Y-124937500D01*
G75*
G02*
X216112500Y-124875000I62500J0D01*
G01*
X216812500Y-124875000D01*
G75*
G02*
X216875000Y-124937500I0J-62500D01*
G01*
G37*
G36*
G01*
X216875000Y-124437500D02*
X216875000Y-124562500D01*
G75*
G02*
X216812500Y-124625000I-62500J0D01*
G01*
X216112500Y-124625000D01*
G75*
G02*
X216050000Y-124562500I0J62500D01*
G01*
X216050000Y-124437500D01*
G75*
G02*
X216112500Y-124375000I62500J0D01*
G01*
X216812500Y-124375000D01*
G75*
G02*
X216875000Y-124437500I0J-62500D01*
G01*
G37*
G36*
G01*
X216875000Y-123937500D02*
X216875000Y-124062500D01*
G75*
G02*
X216812500Y-124125000I-62500J0D01*
G01*
X216112500Y-124125000D01*
G75*
G02*
X216050000Y-124062500I0J62500D01*
G01*
X216050000Y-123937500D01*
G75*
G02*
X216112500Y-123875000I62500J0D01*
G01*
X216812500Y-123875000D01*
G75*
G02*
X216875000Y-123937500I0J-62500D01*
G01*
G37*
G36*
G01*
X216875000Y-123437500D02*
X216875000Y-123562500D01*
G75*
G02*
X216812500Y-123625000I-62500J0D01*
G01*
X216112500Y-123625000D01*
G75*
G02*
X216050000Y-123562500I0J62500D01*
G01*
X216050000Y-123437500D01*
G75*
G02*
X216112500Y-123375000I62500J0D01*
G01*
X216812500Y-123375000D01*
G75*
G02*
X216875000Y-123437500I0J-62500D01*
G01*
G37*
G36*
G01*
X216875000Y-122937500D02*
X216875000Y-123062500D01*
G75*
G02*
X216812500Y-123125000I-62500J0D01*
G01*
X216112500Y-123125000D01*
G75*
G02*
X216050000Y-123062500I0J62500D01*
G01*
X216050000Y-122937500D01*
G75*
G02*
X216112500Y-122875000I62500J0D01*
G01*
X216812500Y-122875000D01*
G75*
G02*
X216875000Y-122937500I0J-62500D01*
G01*
G37*
G36*
G01*
X213950000Y-122937500D02*
X213950000Y-123062500D01*
G75*
G02*
X213887500Y-123125000I-62500J0D01*
G01*
X213187500Y-123125000D01*
G75*
G02*
X213125000Y-123062500I0J62500D01*
G01*
X213125000Y-122937500D01*
G75*
G02*
X213187500Y-122875000I62500J0D01*
G01*
X213887500Y-122875000D01*
G75*
G02*
X213950000Y-122937500I0J-62500D01*
G01*
G37*
G36*
G01*
X213950000Y-123437500D02*
X213950000Y-123562500D01*
G75*
G02*
X213887500Y-123625000I-62500J0D01*
G01*
X213187500Y-123625000D01*
G75*
G02*
X213125000Y-123562500I0J62500D01*
G01*
X213125000Y-123437500D01*
G75*
G02*
X213187500Y-123375000I62500J0D01*
G01*
X213887500Y-123375000D01*
G75*
G02*
X213950000Y-123437500I0J-62500D01*
G01*
G37*
G36*
G01*
X213950000Y-123937500D02*
X213950000Y-124062500D01*
G75*
G02*
X213887500Y-124125000I-62500J0D01*
G01*
X213187500Y-124125000D01*
G75*
G02*
X213125000Y-124062500I0J62500D01*
G01*
X213125000Y-123937500D01*
G75*
G02*
X213187500Y-123875000I62500J0D01*
G01*
X213887500Y-123875000D01*
G75*
G02*
X213950000Y-123937500I0J-62500D01*
G01*
G37*
G36*
G01*
X213950000Y-124437500D02*
X213950000Y-124562500D01*
G75*
G02*
X213887500Y-124625000I-62500J0D01*
G01*
X213187500Y-124625000D01*
G75*
G02*
X213125000Y-124562500I0J62500D01*
G01*
X213125000Y-124437500D01*
G75*
G02*
X213187500Y-124375000I62500J0D01*
G01*
X213887500Y-124375000D01*
G75*
G02*
X213950000Y-124437500I0J-62500D01*
G01*
G37*
G36*
G01*
X213950000Y-124937500D02*
X213950000Y-125062500D01*
G75*
G02*
X213887500Y-125125000I-62500J0D01*
G01*
X213187500Y-125125000D01*
G75*
G02*
X213125000Y-125062500I0J62500D01*
G01*
X213125000Y-124937500D01*
G75*
G02*
X213187500Y-124875000I62500J0D01*
G01*
X213887500Y-124875000D01*
G75*
G02*
X213950000Y-124937500I0J-62500D01*
G01*
G37*
G36*
G01*
X215770000Y-124292500D02*
X215770000Y-124957500D01*
G75*
G02*
X215597500Y-125130000I-172500J0D01*
G01*
X215252500Y-125130000D01*
G75*
G02*
X215080000Y-124957500I0J172500D01*
G01*
X215080000Y-124292500D01*
G75*
G02*
X215252500Y-124120000I172500J0D01*
G01*
X215597500Y-124120000D01*
G75*
G02*
X215770000Y-124292500I0J-172500D01*
G01*
G37*
G36*
G01*
X215770000Y-123042500D02*
X215770000Y-123707500D01*
G75*
G02*
X215597500Y-123880000I-172500J0D01*
G01*
X215252500Y-123880000D01*
G75*
G02*
X215080000Y-123707500I0J172500D01*
G01*
X215080000Y-123042500D01*
G75*
G02*
X215252500Y-122870000I172500J0D01*
G01*
X215597500Y-122870000D01*
G75*
G02*
X215770000Y-123042500I0J-172500D01*
G01*
G37*
G36*
G01*
X214920000Y-124292500D02*
X214920000Y-124957500D01*
G75*
G02*
X214747500Y-125130000I-172500J0D01*
G01*
X214402500Y-125130000D01*
G75*
G02*
X214230000Y-124957500I0J172500D01*
G01*
X214230000Y-124292500D01*
G75*
G02*
X214402500Y-124120000I172500J0D01*
G01*
X214747500Y-124120000D01*
G75*
G02*
X214920000Y-124292500I0J-172500D01*
G01*
G37*
G36*
G01*
X214920000Y-123042500D02*
X214920000Y-123707500D01*
G75*
G02*
X214747500Y-123880000I-172500J0D01*
G01*
X214402500Y-123880000D01*
G75*
G02*
X214230000Y-123707500I0J172500D01*
G01*
X214230000Y-123042500D01*
G75*
G02*
X214402500Y-122870000I172500J0D01*
G01*
X214747500Y-122870000D01*
G75*
G02*
X214920000Y-123042500I0J-172500D01*
G01*
G37*
%TD*%
%TO.C,U9*%
G36*
G01*
X233412500Y-112437500D02*
X233412500Y-112562500D01*
G75*
G02*
X233350000Y-112625000I-62500J0D01*
G01*
X232650000Y-112625000D01*
G75*
G02*
X232587500Y-112562500I0J62500D01*
G01*
X232587500Y-112437500D01*
G75*
G02*
X232650000Y-112375000I62500J0D01*
G01*
X233350000Y-112375000D01*
G75*
G02*
X233412500Y-112437500I0J-62500D01*
G01*
G37*
G36*
G01*
X233412500Y-111937500D02*
X233412500Y-112062500D01*
G75*
G02*
X233350000Y-112125000I-62500J0D01*
G01*
X232650000Y-112125000D01*
G75*
G02*
X232587500Y-112062500I0J62500D01*
G01*
X232587500Y-111937500D01*
G75*
G02*
X232650000Y-111875000I62500J0D01*
G01*
X233350000Y-111875000D01*
G75*
G02*
X233412500Y-111937500I0J-62500D01*
G01*
G37*
G36*
G01*
X233412500Y-111437500D02*
X233412500Y-111562500D01*
G75*
G02*
X233350000Y-111625000I-62500J0D01*
G01*
X232650000Y-111625000D01*
G75*
G02*
X232587500Y-111562500I0J62500D01*
G01*
X232587500Y-111437500D01*
G75*
G02*
X232650000Y-111375000I62500J0D01*
G01*
X233350000Y-111375000D01*
G75*
G02*
X233412500Y-111437500I0J-62500D01*
G01*
G37*
G36*
G01*
X233412500Y-110937500D02*
X233412500Y-111062500D01*
G75*
G02*
X233350000Y-111125000I-62500J0D01*
G01*
X232650000Y-111125000D01*
G75*
G02*
X232587500Y-111062500I0J62500D01*
G01*
X232587500Y-110937500D01*
G75*
G02*
X232650000Y-110875000I62500J0D01*
G01*
X233350000Y-110875000D01*
G75*
G02*
X233412500Y-110937500I0J-62500D01*
G01*
G37*
G36*
G01*
X233412500Y-110437500D02*
X233412500Y-110562500D01*
G75*
G02*
X233350000Y-110625000I-62500J0D01*
G01*
X232650000Y-110625000D01*
G75*
G02*
X232587500Y-110562500I0J62500D01*
G01*
X232587500Y-110437500D01*
G75*
G02*
X232650000Y-110375000I62500J0D01*
G01*
X233350000Y-110375000D01*
G75*
G02*
X233412500Y-110437500I0J-62500D01*
G01*
G37*
G36*
G01*
X230487500Y-110437500D02*
X230487500Y-110562500D01*
G75*
G02*
X230425000Y-110625000I-62500J0D01*
G01*
X229725000Y-110625000D01*
G75*
G02*
X229662500Y-110562500I0J62500D01*
G01*
X229662500Y-110437500D01*
G75*
G02*
X229725000Y-110375000I62500J0D01*
G01*
X230425000Y-110375000D01*
G75*
G02*
X230487500Y-110437500I0J-62500D01*
G01*
G37*
G36*
G01*
X230487500Y-110937500D02*
X230487500Y-111062500D01*
G75*
G02*
X230425000Y-111125000I-62500J0D01*
G01*
X229725000Y-111125000D01*
G75*
G02*
X229662500Y-111062500I0J62500D01*
G01*
X229662500Y-110937500D01*
G75*
G02*
X229725000Y-110875000I62500J0D01*
G01*
X230425000Y-110875000D01*
G75*
G02*
X230487500Y-110937500I0J-62500D01*
G01*
G37*
G36*
G01*
X230487500Y-111437500D02*
X230487500Y-111562500D01*
G75*
G02*
X230425000Y-111625000I-62500J0D01*
G01*
X229725000Y-111625000D01*
G75*
G02*
X229662500Y-111562500I0J62500D01*
G01*
X229662500Y-111437500D01*
G75*
G02*
X229725000Y-111375000I62500J0D01*
G01*
X230425000Y-111375000D01*
G75*
G02*
X230487500Y-111437500I0J-62500D01*
G01*
G37*
G36*
G01*
X230487500Y-111937500D02*
X230487500Y-112062500D01*
G75*
G02*
X230425000Y-112125000I-62500J0D01*
G01*
X229725000Y-112125000D01*
G75*
G02*
X229662500Y-112062500I0J62500D01*
G01*
X229662500Y-111937500D01*
G75*
G02*
X229725000Y-111875000I62500J0D01*
G01*
X230425000Y-111875000D01*
G75*
G02*
X230487500Y-111937500I0J-62500D01*
G01*
G37*
G36*
G01*
X230487500Y-112437500D02*
X230487500Y-112562500D01*
G75*
G02*
X230425000Y-112625000I-62500J0D01*
G01*
X229725000Y-112625000D01*
G75*
G02*
X229662500Y-112562500I0J62500D01*
G01*
X229662500Y-112437500D01*
G75*
G02*
X229725000Y-112375000I62500J0D01*
G01*
X230425000Y-112375000D01*
G75*
G02*
X230487500Y-112437500I0J-62500D01*
G01*
G37*
G36*
G01*
X232307500Y-111792500D02*
X232307500Y-112457500D01*
G75*
G02*
X232135000Y-112630000I-172500J0D01*
G01*
X231790000Y-112630000D01*
G75*
G02*
X231617500Y-112457500I0J172500D01*
G01*
X231617500Y-111792500D01*
G75*
G02*
X231790000Y-111620000I172500J0D01*
G01*
X232135000Y-111620000D01*
G75*
G02*
X232307500Y-111792500I0J-172500D01*
G01*
G37*
G36*
G01*
X232307500Y-110542500D02*
X232307500Y-111207500D01*
G75*
G02*
X232135000Y-111380000I-172500J0D01*
G01*
X231790000Y-111380000D01*
G75*
G02*
X231617500Y-111207500I0J172500D01*
G01*
X231617500Y-110542500D01*
G75*
G02*
X231790000Y-110370000I172500J0D01*
G01*
X232135000Y-110370000D01*
G75*
G02*
X232307500Y-110542500I0J-172500D01*
G01*
G37*
G36*
G01*
X231457500Y-111792500D02*
X231457500Y-112457500D01*
G75*
G02*
X231285000Y-112630000I-172500J0D01*
G01*
X230940000Y-112630000D01*
G75*
G02*
X230767500Y-112457500I0J172500D01*
G01*
X230767500Y-111792500D01*
G75*
G02*
X230940000Y-111620000I172500J0D01*
G01*
X231285000Y-111620000D01*
G75*
G02*
X231457500Y-111792500I0J-172500D01*
G01*
G37*
G36*
G01*
X231457500Y-110542500D02*
X231457500Y-111207500D01*
G75*
G02*
X231285000Y-111380000I-172500J0D01*
G01*
X230940000Y-111380000D01*
G75*
G02*
X230767500Y-111207500I0J172500D01*
G01*
X230767500Y-110542500D01*
G75*
G02*
X230940000Y-110370000I172500J0D01*
G01*
X231285000Y-110370000D01*
G75*
G02*
X231457500Y-110542500I0J-172500D01*
G01*
G37*
%TD*%
%TO.C,U10*%
G36*
G01*
X235450000Y-105755000D02*
X235450000Y-106055000D01*
G75*
G02*
X235300000Y-106205000I-150000J0D01*
G01*
X233650000Y-106205000D01*
G75*
G02*
X233500000Y-106055000I0J150000D01*
G01*
X233500000Y-105755000D01*
G75*
G02*
X233650000Y-105605000I150000J0D01*
G01*
X235300000Y-105605000D01*
G75*
G02*
X235450000Y-105755000I0J-150000D01*
G01*
G37*
G36*
G01*
X235450000Y-104485000D02*
X235450000Y-104785000D01*
G75*
G02*
X235300000Y-104935000I-150000J0D01*
G01*
X233650000Y-104935000D01*
G75*
G02*
X233500000Y-104785000I0J150000D01*
G01*
X233500000Y-104485000D01*
G75*
G02*
X233650000Y-104335000I150000J0D01*
G01*
X235300000Y-104335000D01*
G75*
G02*
X235450000Y-104485000I0J-150000D01*
G01*
G37*
G36*
G01*
X235450000Y-103215000D02*
X235450000Y-103515000D01*
G75*
G02*
X235300000Y-103665000I-150000J0D01*
G01*
X233650000Y-103665000D01*
G75*
G02*
X233500000Y-103515000I0J150000D01*
G01*
X233500000Y-103215000D01*
G75*
G02*
X233650000Y-103065000I150000J0D01*
G01*
X235300000Y-103065000D01*
G75*
G02*
X235450000Y-103215000I0J-150000D01*
G01*
G37*
G36*
G01*
X235450000Y-101945000D02*
X235450000Y-102245000D01*
G75*
G02*
X235300000Y-102395000I-150000J0D01*
G01*
X233650000Y-102395000D01*
G75*
G02*
X233500000Y-102245000I0J150000D01*
G01*
X233500000Y-101945000D01*
G75*
G02*
X233650000Y-101795000I150000J0D01*
G01*
X235300000Y-101795000D01*
G75*
G02*
X235450000Y-101945000I0J-150000D01*
G01*
G37*
G36*
G01*
X230500000Y-101945000D02*
X230500000Y-102245000D01*
G75*
G02*
X230350000Y-102395000I-150000J0D01*
G01*
X228700000Y-102395000D01*
G75*
G02*
X228550000Y-102245000I0J150000D01*
G01*
X228550000Y-101945000D01*
G75*
G02*
X228700000Y-101795000I150000J0D01*
G01*
X230350000Y-101795000D01*
G75*
G02*
X230500000Y-101945000I0J-150000D01*
G01*
G37*
G36*
G01*
X230500000Y-103215000D02*
X230500000Y-103515000D01*
G75*
G02*
X230350000Y-103665000I-150000J0D01*
G01*
X228700000Y-103665000D01*
G75*
G02*
X228550000Y-103515000I0J150000D01*
G01*
X228550000Y-103215000D01*
G75*
G02*
X228700000Y-103065000I150000J0D01*
G01*
X230350000Y-103065000D01*
G75*
G02*
X230500000Y-103215000I0J-150000D01*
G01*
G37*
G36*
G01*
X230500000Y-104485000D02*
X230500000Y-104785000D01*
G75*
G02*
X230350000Y-104935000I-150000J0D01*
G01*
X228700000Y-104935000D01*
G75*
G02*
X228550000Y-104785000I0J150000D01*
G01*
X228550000Y-104485000D01*
G75*
G02*
X228700000Y-104335000I150000J0D01*
G01*
X230350000Y-104335000D01*
G75*
G02*
X230500000Y-104485000I0J-150000D01*
G01*
G37*
G36*
G01*
X230500000Y-105755000D02*
X230500000Y-106055000D01*
G75*
G02*
X230350000Y-106205000I-150000J0D01*
G01*
X228700000Y-106205000D01*
G75*
G02*
X228550000Y-106055000I0J150000D01*
G01*
X228550000Y-105755000D01*
G75*
G02*
X228700000Y-105605000I150000J0D01*
G01*
X230350000Y-105605000D01*
G75*
G02*
X230500000Y-105755000I0J-150000D01*
G01*
G37*
G36*
G01*
X233050000Y-104365000D02*
X233050000Y-105135000D01*
G75*
G02*
X232810000Y-105375000I-240000J0D01*
G01*
X232330000Y-105375000D01*
G75*
G02*
X232090000Y-105135000I0J240000D01*
G01*
X232090000Y-104365000D01*
G75*
G02*
X232330000Y-104125000I240000J0D01*
G01*
X232810000Y-104125000D01*
G75*
G02*
X233050000Y-104365000I0J-240000D01*
G01*
G37*
G36*
G01*
X233050000Y-102865000D02*
X233050000Y-103635000D01*
G75*
G02*
X232810000Y-103875000I-240000J0D01*
G01*
X232330000Y-103875000D01*
G75*
G02*
X232090000Y-103635000I0J240000D01*
G01*
X232090000Y-102865000D01*
G75*
G02*
X232330000Y-102625000I240000J0D01*
G01*
X232810000Y-102625000D01*
G75*
G02*
X233050000Y-102865000I0J-240000D01*
G01*
G37*
G36*
G01*
X231910000Y-104365000D02*
X231910000Y-105135000D01*
G75*
G02*
X231670000Y-105375000I-240000J0D01*
G01*
X231190000Y-105375000D01*
G75*
G02*
X230950000Y-105135000I0J240000D01*
G01*
X230950000Y-104365000D01*
G75*
G02*
X231190000Y-104125000I240000J0D01*
G01*
X231670000Y-104125000D01*
G75*
G02*
X231910000Y-104365000I0J-240000D01*
G01*
G37*
G36*
G01*
X231910000Y-102865000D02*
X231910000Y-103635000D01*
G75*
G02*
X231670000Y-103875000I-240000J0D01*
G01*
X231190000Y-103875000D01*
G75*
G02*
X230950000Y-103635000I0J240000D01*
G01*
X230950000Y-102865000D01*
G75*
G02*
X231190000Y-102625000I240000J0D01*
G01*
X231670000Y-102625000D01*
G75*
G02*
X231910000Y-102865000I0J-240000D01*
G01*
G37*
%TD*%
D32*
%TO.C,U12*%
X218100000Y-54200000D03*
X218100000Y-54600000D03*
X218100000Y-55000000D03*
X218100000Y-55400000D03*
X218100000Y-55800000D03*
X218100000Y-56200000D03*
X218100000Y-56600000D03*
X218100000Y-57000000D03*
X218100000Y-57400000D03*
X218100000Y-57800000D03*
X216580001Y-57800000D03*
X216580001Y-57400000D03*
X216580001Y-57000000D03*
X216580001Y-56600000D03*
X216580001Y-56200000D03*
X216580001Y-55800000D03*
X216580001Y-55400000D03*
X216580001Y-55000000D03*
X216580001Y-54600000D03*
D33*
X216630001Y-54200000D03*
%TD*%
D32*
%TO.C,U13*%
X237940000Y-57300000D03*
X237940000Y-56900000D03*
X237940000Y-56500000D03*
X237940000Y-56100000D03*
X237940000Y-55700000D03*
X237940000Y-55300000D03*
X237940000Y-54900000D03*
X237940000Y-54500000D03*
X237940000Y-54100000D03*
X237940000Y-53700000D03*
X239459999Y-53700000D03*
X239459999Y-54100000D03*
X239459999Y-54500000D03*
X239459999Y-54900000D03*
X239459999Y-55300000D03*
X239459999Y-55700000D03*
X239459999Y-56100000D03*
X239459999Y-56500000D03*
X239459999Y-56900000D03*
D33*
X239409999Y-57300000D03*
%TD*%
%TO.C,U14*%
X239404998Y-37299999D03*
D32*
X239454998Y-36899999D03*
X239454998Y-36499999D03*
X239454998Y-36099999D03*
X239454998Y-35699999D03*
X239454998Y-35299999D03*
X239454998Y-34899999D03*
X239454998Y-34499999D03*
X239454998Y-34099999D03*
X239454998Y-33699999D03*
X237934999Y-33699999D03*
X237934999Y-34099999D03*
X237934999Y-34499999D03*
X237934999Y-34899999D03*
X237934999Y-35299999D03*
X237934999Y-35699999D03*
X237934999Y-36099999D03*
X237934999Y-36499999D03*
X237934999Y-36899999D03*
X237934999Y-37299999D03*
%TD*%
D33*
%TO.C,U15*%
X216450000Y-33700000D03*
D32*
X216400000Y-34100000D03*
X216400000Y-34500000D03*
X216400000Y-34900000D03*
X216400000Y-35300000D03*
X216400000Y-35700000D03*
X216400000Y-36100000D03*
X216400000Y-36500000D03*
X216400000Y-36900000D03*
X216400000Y-37300000D03*
X217919999Y-37300000D03*
X217919999Y-36900000D03*
X217919999Y-36500000D03*
X217919999Y-36100000D03*
X217919999Y-35700000D03*
X217919999Y-35300000D03*
X217919999Y-34900000D03*
X217919999Y-34500000D03*
X217919999Y-34100000D03*
X217919999Y-33700000D03*
%TD*%
%TO.C,U16*%
G36*
G01*
X150675000Y-93295000D02*
X150675000Y-93595000D01*
G75*
G02*
X150525000Y-93745000I-150000J0D01*
G01*
X148775000Y-93745000D01*
G75*
G02*
X148625000Y-93595000I0J150000D01*
G01*
X148625000Y-93295000D01*
G75*
G02*
X148775000Y-93145000I150000J0D01*
G01*
X150525000Y-93145000D01*
G75*
G02*
X150675000Y-93295000I0J-150000D01*
G01*
G37*
G36*
G01*
X150675000Y-92025000D02*
X150675000Y-92325000D01*
G75*
G02*
X150525000Y-92475000I-150000J0D01*
G01*
X148775000Y-92475000D01*
G75*
G02*
X148625000Y-92325000I0J150000D01*
G01*
X148625000Y-92025000D01*
G75*
G02*
X148775000Y-91875000I150000J0D01*
G01*
X150525000Y-91875000D01*
G75*
G02*
X150675000Y-92025000I0J-150000D01*
G01*
G37*
G36*
G01*
X150675000Y-90755000D02*
X150675000Y-91055000D01*
G75*
G02*
X150525000Y-91205000I-150000J0D01*
G01*
X148775000Y-91205000D01*
G75*
G02*
X148625000Y-91055000I0J150000D01*
G01*
X148625000Y-90755000D01*
G75*
G02*
X148775000Y-90605000I150000J0D01*
G01*
X150525000Y-90605000D01*
G75*
G02*
X150675000Y-90755000I0J-150000D01*
G01*
G37*
G36*
G01*
X150675000Y-89485000D02*
X150675000Y-89785000D01*
G75*
G02*
X150525000Y-89935000I-150000J0D01*
G01*
X148775000Y-89935000D01*
G75*
G02*
X148625000Y-89785000I0J150000D01*
G01*
X148625000Y-89485000D01*
G75*
G02*
X148775000Y-89335000I150000J0D01*
G01*
X150525000Y-89335000D01*
G75*
G02*
X150675000Y-89485000I0J-150000D01*
G01*
G37*
G36*
G01*
X150675000Y-88215000D02*
X150675000Y-88515000D01*
G75*
G02*
X150525000Y-88665000I-150000J0D01*
G01*
X148775000Y-88665000D01*
G75*
G02*
X148625000Y-88515000I0J150000D01*
G01*
X148625000Y-88215000D01*
G75*
G02*
X148775000Y-88065000I150000J0D01*
G01*
X150525000Y-88065000D01*
G75*
G02*
X150675000Y-88215000I0J-150000D01*
G01*
G37*
G36*
G01*
X150675000Y-86945000D02*
X150675000Y-87245000D01*
G75*
G02*
X150525000Y-87395000I-150000J0D01*
G01*
X148775000Y-87395000D01*
G75*
G02*
X148625000Y-87245000I0J150000D01*
G01*
X148625000Y-86945000D01*
G75*
G02*
X148775000Y-86795000I150000J0D01*
G01*
X150525000Y-86795000D01*
G75*
G02*
X150675000Y-86945000I0J-150000D01*
G01*
G37*
G36*
G01*
X150675000Y-85675000D02*
X150675000Y-85975000D01*
G75*
G02*
X150525000Y-86125000I-150000J0D01*
G01*
X148775000Y-86125000D01*
G75*
G02*
X148625000Y-85975000I0J150000D01*
G01*
X148625000Y-85675000D01*
G75*
G02*
X148775000Y-85525000I150000J0D01*
G01*
X150525000Y-85525000D01*
G75*
G02*
X150675000Y-85675000I0J-150000D01*
G01*
G37*
G36*
G01*
X150675000Y-84405000D02*
X150675000Y-84705000D01*
G75*
G02*
X150525000Y-84855000I-150000J0D01*
G01*
X148775000Y-84855000D01*
G75*
G02*
X148625000Y-84705000I0J150000D01*
G01*
X148625000Y-84405000D01*
G75*
G02*
X148775000Y-84255000I150000J0D01*
G01*
X150525000Y-84255000D01*
G75*
G02*
X150675000Y-84405000I0J-150000D01*
G01*
G37*
G36*
G01*
X141375000Y-84405000D02*
X141375000Y-84705000D01*
G75*
G02*
X141225000Y-84855000I-150000J0D01*
G01*
X139475000Y-84855000D01*
G75*
G02*
X139325000Y-84705000I0J150000D01*
G01*
X139325000Y-84405000D01*
G75*
G02*
X139475000Y-84255000I150000J0D01*
G01*
X141225000Y-84255000D01*
G75*
G02*
X141375000Y-84405000I0J-150000D01*
G01*
G37*
G36*
G01*
X141375000Y-85675000D02*
X141375000Y-85975000D01*
G75*
G02*
X141225000Y-86125000I-150000J0D01*
G01*
X139475000Y-86125000D01*
G75*
G02*
X139325000Y-85975000I0J150000D01*
G01*
X139325000Y-85675000D01*
G75*
G02*
X139475000Y-85525000I150000J0D01*
G01*
X141225000Y-85525000D01*
G75*
G02*
X141375000Y-85675000I0J-150000D01*
G01*
G37*
G36*
G01*
X141375000Y-86945000D02*
X141375000Y-87245000D01*
G75*
G02*
X141225000Y-87395000I-150000J0D01*
G01*
X139475000Y-87395000D01*
G75*
G02*
X139325000Y-87245000I0J150000D01*
G01*
X139325000Y-86945000D01*
G75*
G02*
X139475000Y-86795000I150000J0D01*
G01*
X141225000Y-86795000D01*
G75*
G02*
X141375000Y-86945000I0J-150000D01*
G01*
G37*
G36*
G01*
X141375000Y-88215000D02*
X141375000Y-88515000D01*
G75*
G02*
X141225000Y-88665000I-150000J0D01*
G01*
X139475000Y-88665000D01*
G75*
G02*
X139325000Y-88515000I0J150000D01*
G01*
X139325000Y-88215000D01*
G75*
G02*
X139475000Y-88065000I150000J0D01*
G01*
X141225000Y-88065000D01*
G75*
G02*
X141375000Y-88215000I0J-150000D01*
G01*
G37*
G36*
G01*
X141375000Y-89485000D02*
X141375000Y-89785000D01*
G75*
G02*
X141225000Y-89935000I-150000J0D01*
G01*
X139475000Y-89935000D01*
G75*
G02*
X139325000Y-89785000I0J150000D01*
G01*
X139325000Y-89485000D01*
G75*
G02*
X139475000Y-89335000I150000J0D01*
G01*
X141225000Y-89335000D01*
G75*
G02*
X141375000Y-89485000I0J-150000D01*
G01*
G37*
G36*
G01*
X141375000Y-90755000D02*
X141375000Y-91055000D01*
G75*
G02*
X141225000Y-91205000I-150000J0D01*
G01*
X139475000Y-91205000D01*
G75*
G02*
X139325000Y-91055000I0J150000D01*
G01*
X139325000Y-90755000D01*
G75*
G02*
X139475000Y-90605000I150000J0D01*
G01*
X141225000Y-90605000D01*
G75*
G02*
X141375000Y-90755000I0J-150000D01*
G01*
G37*
G36*
G01*
X141375000Y-92025000D02*
X141375000Y-92325000D01*
G75*
G02*
X141225000Y-92475000I-150000J0D01*
G01*
X139475000Y-92475000D01*
G75*
G02*
X139325000Y-92325000I0J150000D01*
G01*
X139325000Y-92025000D01*
G75*
G02*
X139475000Y-91875000I150000J0D01*
G01*
X141225000Y-91875000D01*
G75*
G02*
X141375000Y-92025000I0J-150000D01*
G01*
G37*
G36*
G01*
X141375000Y-93295000D02*
X141375000Y-93595000D01*
G75*
G02*
X141225000Y-93745000I-150000J0D01*
G01*
X139475000Y-93745000D01*
G75*
G02*
X139325000Y-93595000I0J150000D01*
G01*
X139325000Y-93295000D01*
G75*
G02*
X139475000Y-93145000I150000J0D01*
G01*
X141225000Y-93145000D01*
G75*
G02*
X141375000Y-93295000I0J-150000D01*
G01*
G37*
%TD*%
D34*
%TO.C,X1*%
X8224999Y-112419999D03*
X6124999Y-112419999D03*
X6124999Y-114069999D03*
X8224999Y-114069999D03*
%TD*%
D35*
%TO.C,Y1*%
X228550000Y-141700000D03*
X220050000Y-141700000D03*
%TD*%
%TO.C,U6*%
G36*
G01*
X199875000Y-124937500D02*
X199875000Y-125062500D01*
G75*
G02*
X199812500Y-125125000I-62500J0D01*
G01*
X199112500Y-125125000D01*
G75*
G02*
X199050000Y-125062500I0J62500D01*
G01*
X199050000Y-124937500D01*
G75*
G02*
X199112500Y-124875000I62500J0D01*
G01*
X199812500Y-124875000D01*
G75*
G02*
X199875000Y-124937500I0J-62500D01*
G01*
G37*
G36*
G01*
X199875000Y-124437500D02*
X199875000Y-124562500D01*
G75*
G02*
X199812500Y-124625000I-62500J0D01*
G01*
X199112500Y-124625000D01*
G75*
G02*
X199050000Y-124562500I0J62500D01*
G01*
X199050000Y-124437500D01*
G75*
G02*
X199112500Y-124375000I62500J0D01*
G01*
X199812500Y-124375000D01*
G75*
G02*
X199875000Y-124437500I0J-62500D01*
G01*
G37*
G36*
G01*
X199875000Y-123937500D02*
X199875000Y-124062500D01*
G75*
G02*
X199812500Y-124125000I-62500J0D01*
G01*
X199112500Y-124125000D01*
G75*
G02*
X199050000Y-124062500I0J62500D01*
G01*
X199050000Y-123937500D01*
G75*
G02*
X199112500Y-123875000I62500J0D01*
G01*
X199812500Y-123875000D01*
G75*
G02*
X199875000Y-123937500I0J-62500D01*
G01*
G37*
G36*
G01*
X199875000Y-123437500D02*
X199875000Y-123562500D01*
G75*
G02*
X199812500Y-123625000I-62500J0D01*
G01*
X199112500Y-123625000D01*
G75*
G02*
X199050000Y-123562500I0J62500D01*
G01*
X199050000Y-123437500D01*
G75*
G02*
X199112500Y-123375000I62500J0D01*
G01*
X199812500Y-123375000D01*
G75*
G02*
X199875000Y-123437500I0J-62500D01*
G01*
G37*
G36*
G01*
X199875000Y-122937500D02*
X199875000Y-123062500D01*
G75*
G02*
X199812500Y-123125000I-62500J0D01*
G01*
X199112500Y-123125000D01*
G75*
G02*
X199050000Y-123062500I0J62500D01*
G01*
X199050000Y-122937500D01*
G75*
G02*
X199112500Y-122875000I62500J0D01*
G01*
X199812500Y-122875000D01*
G75*
G02*
X199875000Y-122937500I0J-62500D01*
G01*
G37*
G36*
G01*
X196950000Y-122937500D02*
X196950000Y-123062500D01*
G75*
G02*
X196887500Y-123125000I-62500J0D01*
G01*
X196187500Y-123125000D01*
G75*
G02*
X196125000Y-123062500I0J62500D01*
G01*
X196125000Y-122937500D01*
G75*
G02*
X196187500Y-122875000I62500J0D01*
G01*
X196887500Y-122875000D01*
G75*
G02*
X196950000Y-122937500I0J-62500D01*
G01*
G37*
G36*
G01*
X196950000Y-123437500D02*
X196950000Y-123562500D01*
G75*
G02*
X196887500Y-123625000I-62500J0D01*
G01*
X196187500Y-123625000D01*
G75*
G02*
X196125000Y-123562500I0J62500D01*
G01*
X196125000Y-123437500D01*
G75*
G02*
X196187500Y-123375000I62500J0D01*
G01*
X196887500Y-123375000D01*
G75*
G02*
X196950000Y-123437500I0J-62500D01*
G01*
G37*
G36*
G01*
X196950000Y-123937500D02*
X196950000Y-124062500D01*
G75*
G02*
X196887500Y-124125000I-62500J0D01*
G01*
X196187500Y-124125000D01*
G75*
G02*
X196125000Y-124062500I0J62500D01*
G01*
X196125000Y-123937500D01*
G75*
G02*
X196187500Y-123875000I62500J0D01*
G01*
X196887500Y-123875000D01*
G75*
G02*
X196950000Y-123937500I0J-62500D01*
G01*
G37*
G36*
G01*
X196950000Y-124437500D02*
X196950000Y-124562500D01*
G75*
G02*
X196887500Y-124625000I-62500J0D01*
G01*
X196187500Y-124625000D01*
G75*
G02*
X196125000Y-124562500I0J62500D01*
G01*
X196125000Y-124437500D01*
G75*
G02*
X196187500Y-124375000I62500J0D01*
G01*
X196887500Y-124375000D01*
G75*
G02*
X196950000Y-124437500I0J-62500D01*
G01*
G37*
G36*
G01*
X196950000Y-124937500D02*
X196950000Y-125062500D01*
G75*
G02*
X196887500Y-125125000I-62500J0D01*
G01*
X196187500Y-125125000D01*
G75*
G02*
X196125000Y-125062500I0J62500D01*
G01*
X196125000Y-124937500D01*
G75*
G02*
X196187500Y-124875000I62500J0D01*
G01*
X196887500Y-124875000D01*
G75*
G02*
X196950000Y-124937500I0J-62500D01*
G01*
G37*
G36*
G01*
X198770000Y-124292500D02*
X198770000Y-124957500D01*
G75*
G02*
X198597500Y-125130000I-172500J0D01*
G01*
X198252500Y-125130000D01*
G75*
G02*
X198080000Y-124957500I0J172500D01*
G01*
X198080000Y-124292500D01*
G75*
G02*
X198252500Y-124120000I172500J0D01*
G01*
X198597500Y-124120000D01*
G75*
G02*
X198770000Y-124292500I0J-172500D01*
G01*
G37*
G36*
G01*
X198770000Y-123042500D02*
X198770000Y-123707500D01*
G75*
G02*
X198597500Y-123880000I-172500J0D01*
G01*
X198252500Y-123880000D01*
G75*
G02*
X198080000Y-123707500I0J172500D01*
G01*
X198080000Y-123042500D01*
G75*
G02*
X198252500Y-122870000I172500J0D01*
G01*
X198597500Y-122870000D01*
G75*
G02*
X198770000Y-123042500I0J-172500D01*
G01*
G37*
G36*
G01*
X197920000Y-124292500D02*
X197920000Y-124957500D01*
G75*
G02*
X197747500Y-125130000I-172500J0D01*
G01*
X197402500Y-125130000D01*
G75*
G02*
X197230000Y-124957500I0J172500D01*
G01*
X197230000Y-124292500D01*
G75*
G02*
X197402500Y-124120000I172500J0D01*
G01*
X197747500Y-124120000D01*
G75*
G02*
X197920000Y-124292500I0J-172500D01*
G01*
G37*
G36*
G01*
X197920000Y-123042500D02*
X197920000Y-123707500D01*
G75*
G02*
X197747500Y-123880000I-172500J0D01*
G01*
X197402500Y-123880000D01*
G75*
G02*
X197230000Y-123707500I0J172500D01*
G01*
X197230000Y-123042500D01*
G75*
G02*
X197402500Y-122870000I172500J0D01*
G01*
X197747500Y-122870000D01*
G75*
G02*
X197920000Y-123042500I0J-172500D01*
G01*
G37*
%TD*%
M02*
