G04 #@! TF.GenerationSoftware,KiCad,Pcbnew,(5.0.0-rc2-100-g6d77e594b)*
G04 #@! TF.CreationDate,2018-10-18T22:19:02+02:00*
G04 #@! TF.ProjectId,fuzzyduckv1,66757A7A796475636B76312E6B696361,rev?*
G04 #@! TF.SameCoordinates,Original*
G04 #@! TF.FileFunction,Soldermask,Bot*
G04 #@! TF.FilePolarity,Negative*
%FSLAX46Y46*%
G04 Gerber Fmt 4.6, Leading zero omitted, Abs format (unit mm)*
G04 Created by KiCad (PCBNEW (5.0.0-rc2-100-g6d77e594b)) date Thu Oct 18 22:19:02 2018*
%MOMM*%
%LPD*%
G01*
G04 APERTURE LIST*
%ADD10R,3.700000X3.100000*%
%ADD11O,3.700000X3.100000*%
%ADD12C,3.400000*%
%ADD13C,10.560000*%
%ADD14R,2.100000X2.100000*%
%ADD15O,2.100000X2.100000*%
%ADD16C,1.300000*%
G04 APERTURE END LIST*
D10*
G04 #@! TO.C,J1*
X61000000Y-51800000D03*
D11*
X61000000Y-56000000D03*
X61000000Y-60200000D03*
X61000000Y-64400000D03*
X61000000Y-68600000D03*
X61000000Y-72800000D03*
X61000000Y-77000000D03*
X61000000Y-81200000D03*
X61000000Y-85400000D03*
X61000000Y-89600000D03*
X61000000Y-93800000D03*
X61000000Y-98000000D03*
X55500000Y-51800000D03*
X55500000Y-56000000D03*
X55500000Y-60200000D03*
X55500000Y-64400000D03*
X55500000Y-68600000D03*
X55500000Y-72800000D03*
X55500000Y-77000000D03*
X55500000Y-81200000D03*
X55500000Y-85400000D03*
X55500000Y-89600000D03*
X55500000Y-93800000D03*
X55500000Y-98000000D03*
D12*
X55960000Y-47100000D03*
X55960000Y-102700000D03*
G04 #@! TD*
D13*
G04 #@! TO.C,J2*
X91375000Y-41000000D03*
G04 #@! TD*
G04 #@! TO.C,J4*
X76000000Y-41000000D03*
G04 #@! TD*
G04 #@! TO.C,J5*
X106750000Y-41000000D03*
G04 #@! TD*
G04 #@! TO.C,J8*
X122125000Y-41000000D03*
G04 #@! TD*
G04 #@! TO.C,J9*
X137500000Y-41000000D03*
G04 #@! TD*
D14*
G04 #@! TO.C,J17*
X141000000Y-101404492D03*
D15*
X141000000Y-98864492D03*
X141000000Y-96324492D03*
G04 #@! TD*
D16*
G04 #@! TO.C,SW1*
X51000000Y-34100000D03*
X51000000Y-40900000D03*
G04 #@! TD*
D14*
G04 #@! TO.C,J3*
X91250000Y-55750000D03*
D15*
X91250000Y-58290000D03*
X91250000Y-60830000D03*
X91250000Y-63370000D03*
X91250000Y-65910000D03*
G04 #@! TD*
D14*
G04 #@! TO.C,J6*
X75750000Y-55750000D03*
D15*
X75750000Y-58290000D03*
X75750000Y-60830000D03*
X75750000Y-63370000D03*
X75750000Y-65910000D03*
G04 #@! TD*
G04 #@! TO.C,J7*
X106750000Y-65910000D03*
X106750000Y-63370000D03*
X106750000Y-60830000D03*
X106750000Y-58290000D03*
D14*
X106750000Y-55750000D03*
G04 #@! TD*
D15*
G04 #@! TO.C,J10*
X122500000Y-65830000D03*
X122500000Y-63290000D03*
X122500000Y-60750000D03*
X122500000Y-58210000D03*
D14*
X122500000Y-55670000D03*
G04 #@! TD*
G04 #@! TO.C,J11*
X137250000Y-56420000D03*
D15*
X137250000Y-58960000D03*
X137250000Y-61500000D03*
X137250000Y-64040000D03*
X137250000Y-66580000D03*
G04 #@! TD*
G04 #@! TO.C,J20*
X77750000Y-114660000D03*
X77750000Y-112120000D03*
X77750000Y-109580000D03*
X77750000Y-107040000D03*
D14*
X77750000Y-104500000D03*
G04 #@! TD*
G04 #@! TO.C,J21*
X97250000Y-104500000D03*
D15*
X97250000Y-107040000D03*
X97250000Y-109580000D03*
X97250000Y-112120000D03*
X97250000Y-114660000D03*
G04 #@! TD*
D14*
G04 #@! TO.C,J24*
X117750000Y-104500000D03*
D15*
X117750000Y-107040000D03*
X117750000Y-109580000D03*
X117750000Y-112120000D03*
X117750000Y-114660000D03*
G04 #@! TD*
G04 #@! TO.C,J25*
X137500000Y-114660000D03*
X137500000Y-112120000D03*
X137500000Y-109580000D03*
X137500000Y-107040000D03*
D14*
X137500000Y-104500000D03*
G04 #@! TD*
M02*
