M48
; DRILL file {KiCad (5.99.0-3304-gcc86630f1-dirty)} date Fri Jan 15 17:35:21 2021
; FORMAT={-:-/ absolute / inch / decimal}
; #@! TF.CreationDate,2021-01-15T17:35:21+01:00
; #@! TF.GenerationSoftware,Kicad,Pcbnew,(5.99.0-3304-gcc86630f1-dirty)
; #@! TF.FileFunction,Plated,1,6,PTH
FMAT,2
INCH
T1C0.0079
T2C0.0394
T3C0.0551
T4C0.0866
T5C0.2402
%
G90
G05
T1
X5.5461Y-2.0898
X5.5461Y-2.5791
X5.5465Y-1.9008
X5.5598Y-2.1972
X5.5598Y-2.239
X5.6161Y-2.0413
X5.7224Y-2.2016
X5.8484Y-3.4819
X5.8555Y-3.5969
X5.913Y-3.6244
X5.9173Y-2.4685
X5.9791Y-3.1705
X6.0157Y-3.748
X6.063Y-2.6811
X6.0657Y-4.1224
X6.0776Y-1.9038
X6.0776Y-1.9455
X6.0778Y-2.2687
X6.0778Y-2.3104
X6.0789Y-2.1516
X6.0789Y-2.1933
X6.0827Y-3.6339
X6.0831Y-2.0268
X6.0831Y-2.0685
X6.1236Y-3.402
X6.2165Y-1.815
X6.252Y-3.2598
X6.2634Y-2.3331
X6.2634Y-2.3748
X6.2637Y-1.9652
X6.2637Y-2.0069
X6.2642Y-2.2102
X6.2642Y-2.252
X6.2646Y-2.085
X6.2646Y-2.1268
X6.2693Y-3.5035
X6.2756Y-2.9252
X6.2799Y-2.6035
X6.3075Y-4.0909
X6.3118Y-3.5752
X6.3307Y-2.4016
X6.352Y-3.6547
X6.3535Y-3.574
X6.3661Y-2.2402
X6.3898Y-2.1181
X6.3906Y-2.7433
X6.3929Y-3.289
X6.3953Y-2.6803
X6.4301Y-2.4909
X6.437Y-2.3189
X6.4543Y-3.4024
X6.4596Y-2.4614
X6.4646Y-2.063
X6.4657Y-3.1642
X6.4764Y-2.2047
X6.4882Y-2.9732
X6.522Y-2.9248
X6.5346Y-2.265
X6.5394Y-3.622
X6.5398Y-3.2406
X6.5445Y-3.4827
X6.5472Y-3.7323
X6.5776Y-2.2972
X6.5776Y-2.3366
X6.578Y-2.4504
X6.578Y-2.4898
X6.578Y-3.4315
X6.5783Y-2.2169
X6.5783Y-2.2563
X6.5787Y-1.863
X6.5787Y-2.374
X6.5787Y-2.4134
X6.5799Y-3.1362
X6.5803Y-3.1969
X6.5815Y-2.1774
X6.5854Y-1.7012
X6.5992Y-3.7713
X6.613Y-3.3654
X6.6163Y-1.678
X6.6177Y-2.4134
X6.6185Y-1.8618
X6.6205Y-2.3744
X6.6276Y-1.715
X6.6382Y-2.6146
X6.6539Y-2.4878
X6.6567Y-2.2555
X6.6567Y-2.2949
X6.6571Y-2.3346
X6.6571Y-2.374
X6.6571Y-2.413
X6.6571Y-2.4524
X6.6583Y-1.9811
X6.6594Y-1.6957
X6.663Y-0.9854
X6.676Y-2.6325
X6.685Y-1.3819
X6.6965Y-2.2157
X6.6965Y-2.3343
X6.6969Y-2.413
X6.6972Y-2.2583
X6.698Y-2.1772
X6.698Y-2.1413
X6.7059Y-1.687
X6.7165Y-3.6535
X6.7177Y-2.6325
X6.7197Y-2.7839
X6.7343Y-2.0193
X6.7354Y-2.4917
X6.7374Y-2.4132
X6.7382Y-1.9406
X6.7487Y-1.6891
X6.7496Y-1.7252
X6.774Y-3.3138
X6.7744Y-2.1386
X6.7751Y-2.2564
X6.7754Y-2.3717
X6.7756Y-2.5709
X6.7831Y-3.0764
X6.7937Y-1.7224
X6.8051Y-1.8653
X6.8051Y-1.9047
X6.8051Y-3.6913
X6.8072Y-2.1853
X6.813Y-2.0602
X6.813Y-2.0984
X6.8142Y-2.137
X6.8154Y-2.4941
X6.8161Y-1.8209
X6.8165Y-2.2543
X6.8169Y-2.0185
X6.8177Y-1.6163
X6.8189Y-1.3819
X6.8291Y-3.4953
X6.8315Y-3.0122
X6.834Y-3.2536
X6.8354Y-2.6157
X6.8449Y-2.7197
X6.8476Y-1.6163
X6.8508Y-1.8626
X6.8519Y-2.5334
X6.8528Y-2.0205
X6.8538Y-2.3779
X6.8543Y-2.0591
X6.8547Y-1.785
X6.8547Y-1.9031
X6.8547Y-1.9815
X6.8551Y-1.9417
X6.8551Y-2.0976
X6.8559Y-1.8232
X6.8886Y-1.9461
X6.889Y-2.0213
X6.8891Y-1.8622
X6.8891Y-1.9016
X6.8902Y-1.9823
X6.8927Y-2.2156
X6.8941Y-2.4528
X6.9248Y-1.6124
X6.9304Y-2.1371
X6.9315Y-2.2965
X6.9319Y-2.0543
X6.9323Y-3.5882
X6.9335Y-2.0185
X6.9335Y-2.3728
X6.9339Y-1.9815
X6.935Y-1.9437
X6.9358Y-1.8638
X6.9362Y-2.2567
X6.937Y-2.1732
X6.9374Y-2.085
X6.9547Y-1.6124
X6.9559Y-3.461
X6.9602Y-2.7169
X6.9638Y-1.6768
X6.9657Y-1.8602
X6.9679Y-2.5315
X6.9701Y-1.9028
X6.9701Y-2.2563
X6.9705Y-1.9409
X6.972Y-2.0591
X6.9728Y-2.2933
X6.9807Y-2.0264
X6.9862Y-1.4744
X7.0059Y-2.6189
X7.0059Y-2.7122
X7.0086Y-2.176
X7.0098Y-2.2162
X7.0102Y-2.0976
X7.0114Y-2.0201
X7.0134Y-2.9575
X7.0134Y-3.5
X7.0161Y-1.4744
X7.0429Y-1.6106
X7.0469Y-1.8201
X7.0476Y-1.9417
X7.0492Y-1.9
X7.0492Y-2.0992
X7.0496Y-1.9811
X7.05Y-1.8622
X7.0501Y-2.2565
X7.0504Y-2.4122
X7.0524Y-2.1752
X7.0535Y-1.0421
X7.0661Y-3.2311
X7.0709Y-1.7362
X7.0728Y-1.6106
X7.0835Y-1.0421
X7.0858Y-1.9453
X7.0866Y-2.2913
X7.0866Y-3.111
X7.0882Y-1.9028
X7.089Y-2.0606
X7.0894Y-1.8224
X7.0894Y-1.8606
X7.0906Y-2.0972
X7.0906Y-2.5315
X7.0925Y-1.7862
X7.0972Y-2.4063
X7.0972Y-2.4839
X7.1039Y-1.4728
X7.1122Y-1.7358
X7.1175Y-3.1195
X7.1276Y-1.8646
X7.1291Y-1.9031
X7.1299Y-2.0984
X7.1299Y-2.1382
X7.1299Y-2.374
X7.1299Y-2.4921
X7.1299Y-2.5319
X7.1303Y-3.1996
X7.1307Y-1.9429
X7.1339Y-1.4728
X7.1358Y-2.4063
X7.1496Y-2.6185
X7.1618Y-1.6094
X7.1642Y-1.7283
X7.165Y-1.9031
X7.1673Y-1.8236
X7.1677Y-1.7839
X7.1685Y-1.863
X7.1693Y-2.4921
X7.1697Y-2.0988
X7.172Y-2.8059
X7.1748Y-2.4465
X7.176Y-2.5642
X7.1772Y-3.6496
X7.1878Y-1.076
X7.189Y-2.6087
X7.1894Y-3.3715
X7.1917Y-1.6094
X7.1961Y-3.061
X7.1965Y-1.037
X7.1972Y-1.8296
X7.2Y-2.4055
X7.2012Y-2.524
X7.2043Y-1.8756
X7.206Y-1.9436
X7.2063Y-1.9035
X7.2067Y-1.7827
X7.2083Y-2.2945
X7.2087Y-2.449
X7.2138Y-1.8496
X7.2142Y-2.3795
X7.2197Y-1.474
X7.2283Y-1.7354
X7.2394Y-2.3264
X7.2402Y-2.4846
X7.2406Y-2.3661
X7.2406Y-2.4461
X7.2409Y-2.5646
X7.2433Y-1.8756
X7.2437Y-2.5276
X7.2465Y-1.9421
X7.2476Y-1.9035
X7.248Y-1.7843
X7.2484Y-2.1382
X7.2496Y-1.474
X7.2496Y-3.0811
X7.2551Y-2.4067
X7.2677Y-2.6083
X7.2685Y-1.7346
X7.2783Y-2.4846
X7.2787Y-2.563
X7.2803Y-3.3504
X7.2827Y-2.1059
X7.2827Y-2.4193
X7.2835Y-1.6102
X7.2843Y-1.8594
X7.2843Y-1.8972
X7.2848Y-3.2089
X7.2862Y-1.9398
X7.2866Y-1.7831
X7.2874Y-2.3358
X7.2874Y-2.5315
X7.2894Y-2.3732
X7.2965Y-1.0697
X7.3075Y-2.6083
X7.3079Y-1.737
X7.3134Y-1.6102
X7.3193Y-2.3406
X7.3201Y-2.3016
X7.3201Y-2.5642
X7.3205Y-2.4031
X7.3244Y-1.9406
X7.3248Y-1.863
X7.3258Y-1.9047
X7.326Y-1.7839
X7.326Y-2.2165
X7.3268Y-3.311
X7.3284Y-2.4886
X7.3335Y-2.524
X7.3339Y-2.3791
X7.3366Y-1.4724
X7.3465Y-2.6083
X7.3583Y-2.563
X7.3587Y-2.4185
X7.3614Y-3.9213
X7.3628Y-1.8689
X7.3654Y-1.9047
X7.3661Y-1.8224
X7.3665Y-1.4724
X7.3665Y-1.7835
X7.3667Y-2.3745
X7.398Y-2.6028
X7.4004Y-2.3093
X7.4008Y-2.3543
X7.4012Y-2.5512
X7.4028Y-2.4283
X7.4039Y-2.5118
X7.4047Y-0.9854
X7.4071Y-1.9067
X7.4083Y-1.7453
X7.4142Y-2.2142
X7.4146Y-2.252
X7.4154Y-2.1402
X7.4189Y-1.8402
X7.426Y-1.9925
X7.4449Y-2.2512
X7.45Y-2.1079
X7.4563Y-1.7925
X7.4598Y-1.9146
X7.4699Y-3.3663
X7.4886Y-2.1106
X7.5354Y-1.3976
X7.5433Y-3.2559
X7.55Y-2.1484
X7.5528Y-3.4402
X7.5591Y-1.5591
X7.5669Y-3.1614
X7.5685Y-3.0941
X7.5709Y-2.2476
X7.5825Y-2.6514
X7.5945Y-3.6102
X7.6017Y-2.1484
X7.6028Y-1.0957
X7.6067Y-2.2295
X7.6118Y-3.1819
X7.628Y-2.0276
X7.6433Y-3.1827
X7.6449Y-2.8142
X7.6449Y-2.9067
X7.6484Y-1.2035
X7.6559Y-3.1524
X7.665Y-2.9437
X7.6657Y-2.7559
X7.6697Y-2.1248
X7.6744Y-3.1819
X7.6768Y-2.8138
X7.6787Y-2.8915
X7.6969Y-2.9445
X7.7055Y-2.8915
X7.7063Y-3.1823
X7.7185Y-1.4803
X7.7244Y-2.1146
X7.7264Y-2.8118
X7.7283Y-2.7551
X7.737Y-2.0264
X7.7394Y-2.9055
X7.7622Y-1.5492
X7.7701Y-2.9071
X7.7732Y-2.8305
X7.7756Y-2.1205
X7.7835Y-1.4843
X7.785Y-3.2535
X7.7921Y-2.9764
X7.8Y-2.8305
X7.802Y-2.9071
X7.8024Y-2.7201
X7.8031Y-2.4264
X7.8039Y-3.0472
X7.8165Y-3.2531
X7.822Y-2.9358
X7.8224Y-2.9669
X7.8264Y-2.8114
X7.8307Y-1.6598
X7.8307Y-2.3339
X7.837Y-3.0795
X7.8382Y-3.1689
X7.848Y-3.2543
X7.8516Y-2.1795
X7.8539Y-1.4858
X7.8543Y-2.7874
X7.8547Y-1.5457
X7.8551Y-2.9457
X7.865Y-2.9063
X7.8661Y-1.3228
X7.878Y-2.8465
X7.8787Y-3.2551
X7.8846Y-2.9677
X7.8862Y-2.7555
X7.8921Y-2.322
X7.8969Y-2.8138
X7.9087Y-2.9363
X7.9106Y-3.0634
X7.9122Y-4.1689
X7.9165Y-2.9668
X7.9177Y-2.787
X7.9205Y-2.3472
X7.9217Y-2.7569
X7.922Y-3.1488
X7.9228Y-4.3886
X7.9272Y-2.9075
X7.9331Y-3.2559
X7.9618Y-2.813
X7.9669Y-2.9091
X7.9685Y-2.4724
X7.9713Y-2.7551
X7.9713Y-2.9665
X7.9768Y-3.1728
X7.9783Y-2.3957
X7.9906Y-3.2563
X7.9961Y-2.6181
X8.0031Y-2.8071
X8.0055Y-2.965
X8.0071Y-2.9232
X8.0075Y-2.7673
X8.0224Y-3.2559
X8.0244Y-2.45
X8.0535Y-3.2535
X8.0591Y-3.2165
X8.0669Y-3.0236
X8.0677Y-2.4902
X8.0776Y-1.4539
X8.0854Y-3.7898
X8.0858Y-3.2543
X8.1Y-3.4358
X8.1Y-3.7339
X8.1012Y-2.5374
X8.1028Y-2.4579
X8.1068Y-2.6085
X8.1167Y-2.8598
X8.1228Y-2.5598
X8.1378Y-2.9331
X8.1461Y-2.5831
X8.1622Y-2.9874
X8.1654Y-3.2008
X8.1685Y-2.6059
X8.1732Y-2.7563
X8.1823Y-2.8028
X8.1823Y-2.8346
X8.1827Y-2.8972
X8.1835Y-2.8661
X8.1843Y-3.7921
X8.1957Y-2.6406
X8.1992Y-2.9417
X8.2043Y-2.0051
X8.2087Y-2.9882
X8.215Y-3.1157
X8.2154Y-3.1783
X8.2169Y-3.1472
X8.2252Y-2.6776
X8.2252Y-2.7094
X8.2256Y-2.7413
X8.3028Y-3.8012
X8.3228Y-1.874
X8.3644Y-3.563
X8.372Y-2.678
X8.3723Y-4.0906
X8.3724Y-3.1138
X8.374Y-2.8094
X8.3756Y-2.7445
X8.4047Y-1.361
X8.4047Y-1.4551
X8.4051Y-1.5811
X8.4051Y-1.3342
X8.4051Y-1.4283
X8.4054Y-2.262
X8.4055Y-1.6757
X8.4055Y-1.5543
X8.4058Y-2.1675
X8.4058Y-2.2352
X8.4059Y-1.6489
X8.4062Y-2.4711
X8.4062Y-2.1407
X8.4066Y-2.3766
X8.4066Y-2.4443
X8.407Y-2.3498
X8.4209Y-3.7996
X8.4269Y-1.3774
X8.4269Y-1.4715
X8.4273Y-1.5974
X8.4276Y-2.2783
X8.4277Y-1.692
X8.428Y-2.1839
X8.4283Y-2.4874
X8.4285Y-1.323
X8.4285Y-1.4171
X8.4287Y-2.3929
X8.4289Y-1.543
X8.4292Y-2.2239
X8.4293Y-1.6376
X8.4295Y-4.0933
X8.4296Y-2.1295
X8.43Y-2.433
X8.4304Y-2.3385
X8.4567Y-1.9685
X8.4591Y-3.5549
X8.4668Y-4.1102
X8.4681Y-4.6449
X8.4744Y-1.811
X8.4752Y-3.2362
X8.4976Y-3.9945
X8.503Y-4.1397
X8.5366Y-3.7827
X8.5376Y-3.2835
X8.5638Y-4.098
X8.5984Y-3.0748
X8.6085Y-3.6811
X8.6732Y-1.3784
X8.6737Y-1.5987
X8.6741Y-1.4721
X8.6742Y-2.1857
X8.6742Y-2.394
X8.6746Y-1.6924
X8.6748Y-1.324
X8.6751Y-2.2794
X8.6751Y-2.4876
X8.6754Y-1.5443
X8.6757Y-1.4177
X8.6758Y-2.1313
X8.6758Y-2.3396
X8.6763Y-1.638
X8.6767Y-2.2249
X8.6767Y-2.4332
X8.6833Y-4.0433
X8.6912Y-3.9606
X8.6966Y-1.3672
X8.697Y-1.3404
X8.6971Y-1.5875
X8.6972Y-3.9859
X8.6975Y-1.4608
X8.6975Y-1.5607
X8.6976Y-2.1744
X8.6976Y-2.3827
X8.6979Y-1.434
X8.698Y-2.1476
X8.698Y-2.3559
X8.698Y-1.6811
X8.6984Y-1.6543
X8.6985Y-2.2681
X8.6985Y-2.4764
X8.6989Y-2.2413
X8.6989Y-2.4496
X8.7535Y-3.8618
X8.7539Y-3.9551
X8.7677Y-1.8898
X8.7677Y-3.685
X8.7835Y-2.9016
X8.8059Y-4.4575
X8.8093Y-3.685
X8.8369Y-4.1575
X8.8394Y-5.4091
X8.8526Y-4.2756
X8.9043Y-5.5524
X8.9313Y-3.8622
X8.9313Y-3.9213
X8.9858Y-3.9256
X8.9866Y-3.8661
X9.1398Y-4.1043
X9.1488Y-4.0504
X9.1732Y-1.7953
X9.2266Y-3.8839
X7.4069Y-3.1872
X7.4069Y-3.2384
X7.4463Y-3.1872
X7.4463Y-3.2384
X7.4856Y-3.1872
X7.4856Y-3.2384
T2
X7.4126Y-4.8173
X7.4126Y-4.9173
X7.4126Y-5.0173
X7.4126Y-5.1173
X7.4126Y-5.2173
X6.1882Y-4.2878
X6.1882Y-4.3878
X6.1882Y-4.4878
X6.1882Y-4.5878
X6.2882Y-4.2878
X6.2882Y-4.3878
X6.2882Y-4.4878
X6.2882Y-4.5878
X7.0949Y-3.8654
X7.1949Y-3.8654
X7.9244Y-4.8173
X7.9244Y-4.9173
X7.9244Y-5.0173
X7.9244Y-5.1173
X7.9244Y-5.2173
X8.7165Y-3.3543
X8.8165Y-3.3543
X8.9165Y-3.3543
X9.0165Y-3.3543
X9.1165Y-3.3543
X9.2165Y-3.3543
X6.4892Y-4.2878
X6.4892Y-4.3878
X6.4892Y-4.4878
X6.4892Y-4.5878
X6.5892Y-4.2878
X6.5892Y-4.3878
X6.5892Y-4.4878
X6.5892Y-4.5878
X6.192Y-3.8654
X6.292Y-3.8654
X6.8018Y-3.8654
X6.9018Y-3.8654
X8.9252Y-1.0504
X8.9252Y-1.1504
X8.9252Y-1.2504
X8.9252Y-1.3504
X8.9252Y-1.4504
X8.9252Y-1.5504
X8.9252Y-1.6504
X8.9252Y-1.7504
X8.9252Y-1.8504
X8.9252Y-1.9504
X8.9252Y-2.0504
X8.9252Y-2.1504
X8.9252Y-2.2504
X8.9252Y-2.3504
X8.9252Y-2.4504
X8.9252Y-2.5504
X9.0252Y-1.0504
X9.0252Y-1.1504
X9.0252Y-1.2504
X9.0252Y-1.3504
X9.0252Y-1.4504
X9.0252Y-1.5504
X9.0252Y-1.6504
X9.0252Y-1.7504
X9.0252Y-1.8504
X9.0252Y-1.9504
X9.0252Y-2.0504
X9.0252Y-2.1504
X9.0252Y-2.2504
X9.0252Y-2.3504
X9.0252Y-2.4504
X9.0252Y-2.5504
X8.626Y-2.7244
X8.726Y-2.7244
X8.826Y-2.7244
X8.926Y-2.7244
X9.026Y-2.7244
X6.7901Y-4.2878
X6.7901Y-4.3878
X6.7901Y-4.4878
X6.7901Y-4.5878
X6.8901Y-4.2878
X6.8901Y-4.3878
X6.8901Y-4.4878
X6.8901Y-4.5878
X8.452Y-4.8173
X8.452Y-4.9173
X8.452Y-5.0173
X8.452Y-5.1173
X8.452Y-5.2173
X6.493Y-3.8654
X6.593Y-3.8654
X7.0911Y-4.2878
X7.0911Y-4.3878
X7.0911Y-4.4878
X7.0911Y-4.5878
X7.1911Y-4.2878
X7.1911Y-4.3878
X7.1911Y-4.4878
X7.1911Y-4.5878
X6.3772Y-4.8173
X6.3772Y-4.9173
X6.3772Y-5.0173
X6.3772Y-5.1173
X6.3772Y-5.2173
X6.889Y-4.8173
X6.889Y-4.9173
X6.889Y-5.0173
X6.889Y-5.1173
X6.889Y-5.2173
X7.8303Y-3.4894
X7.8303Y-3.5894
X7.8303Y-3.6894
X7.9303Y-3.4894
X7.9303Y-3.5894
X7.9303Y-3.6894
T3
X5.6024Y-4.0276
X5.6024Y-4.1929
X5.6024Y-4.3583
X5.6024Y-4.5236
X5.6024Y-4.689
X5.6024Y-4.8543
X5.6024Y-5.0197
X5.6024Y-5.185
X5.6024Y-5.3504
X5.6024Y-5.5157
X5.6024Y-5.6811
X5.6024Y-5.8465
X5.8189Y-4.0276
X5.8189Y-4.1929
X5.8189Y-4.3583
X5.8189Y-4.5236
X5.8189Y-4.689
X5.8189Y-4.8543
X5.8189Y-5.0197
X5.8189Y-5.185
X5.8189Y-5.3504
X5.8189Y-5.5157
X5.8189Y-5.6811
X5.8189Y-5.8465
T4
X9.1957Y-1.0018
X9.1957Y-2.6496
X5.4925Y-1.0002
X5.4925Y-3.6189
X8.6787Y-1.0018
X9.1957Y-6.0925
X5.4925Y-6.2346
T5
X7.9264Y-5.7291
X6.3732Y-5.7291
X6.8909Y-5.7291
X7.4087Y-5.7291
X8.4441Y-5.7291
T0
M30
