M48
; DRILL file {KiCad (5.99.0-8510-g4da28cf8f4)} date Mon Mar  1 14:47:12 2021
; FORMAT={-:-/ absolute / inch / decimal}
; #@! TF.CreationDate,2021-03-01T14:47:12+00:00
; #@! TF.GenerationSoftware,Kicad,Pcbnew,(5.99.0-8510-g4da28cf8f4)
; #@! TF.FileFunction,Plated,1,6,PTH
FMAT,2
INCH
T1C0.0394
%
G90
G05
T1
X1.8898Y3.4252
X1.8898Y3.2047
X1.8898Y3.1047
X1.8898Y3.0047
X1.8898Y2.9047
X1.8898Y2.8047
X1.8898Y2.7047
X1.8898Y2.6047
X1.8898Y2.5047
X1.8898Y2.4047
X1.8898Y2.3047
X1.8898Y2.2047
X1.8898Y2.1047
X1.8898Y2.0047
X1.8898Y1.9047
X1.8898Y1.8047
X1.8898Y1.7047
X1.8898Y1.4567
X1.8898Y1.2362
X1.8898Y1.1362
X1.8898Y1.0362
X1.8898Y0.9362
X1.8898Y0.8362
X1.8898Y0.7362
X1.8898Y0.6362
X1.8898Y0.5362
X1.8898Y0.4362
X1.8898Y0.3362
X1.8898Y0.2362
X1.8898Y0.1362
X1.8898Y0.0362
X1.8898Y-0.0638
X1.8898Y-0.1638
X1.8898Y-0.2638
X1.9898Y3.4252
X1.9898Y3.2047
X1.9898Y3.1047
X1.9898Y3.0047
X1.9898Y2.9047
X1.9898Y2.8047
X1.9898Y2.7047
X1.9898Y2.6047
X1.9898Y2.5047
X1.9898Y2.4047
X1.9898Y2.3047
X1.9898Y2.2047
X1.9898Y2.1047
X1.9898Y2.0047
X1.9898Y1.9047
X1.9898Y1.8047
X1.9898Y1.7047
X1.9898Y1.4567
X1.9898Y1.2362
X1.9898Y1.1362
X1.9898Y1.0362
X1.9898Y0.9362
X1.9898Y0.8362
X1.9898Y0.7362
X1.9898Y0.6362
X1.9898Y0.5362
X1.9898Y0.4362
X1.9898Y0.3362
X1.9898Y0.2362
X1.9898Y0.1362
X1.9898Y0.0362
X1.9898Y-0.0638
X1.9898Y-0.1638
X1.9898Y-0.2638
X2.874Y3.4252
X2.874Y3.2047
X2.874Y3.1047
X2.874Y3.0047
X2.874Y2.9047
X2.874Y2.8047
X2.874Y2.7047
X2.874Y2.6047
X2.874Y2.5047
X2.874Y2.4047
X2.874Y2.3047
X2.874Y2.2047
X2.874Y2.1047
X2.874Y2.0047
X2.874Y1.9047
X2.874Y1.8047
X2.874Y1.7047
X2.874Y1.4567
X2.874Y1.2362
X2.874Y1.1362
X2.874Y1.0362
X2.874Y0.9362
X2.874Y0.8362
X2.874Y0.7362
X2.874Y0.6362
X2.874Y0.5362
X2.874Y0.4362
X2.874Y0.3362
X2.874Y0.2362
X2.874Y0.1362
X2.874Y0.0362
X2.874Y-0.0638
X2.874Y-0.1638
X2.874Y-0.2638
X2.974Y3.4252
X2.974Y3.2047
X2.974Y3.1047
X2.974Y3.0047
X2.974Y2.9047
X2.974Y2.8047
X2.974Y2.7047
X2.974Y2.6047
X2.974Y2.5047
X2.974Y2.4047
X2.974Y2.3047
X2.974Y2.2047
X2.974Y2.1047
X2.974Y2.0047
X2.974Y1.9047
X2.974Y1.8047
X2.974Y1.7047
X2.974Y1.4567
X2.974Y1.2362
X2.974Y1.1362
X2.974Y1.0362
X2.974Y0.9362
X2.974Y0.8362
X2.974Y0.7362
X2.974Y0.6362
X2.974Y0.5362
X2.974Y0.4362
X2.974Y0.3362
X2.974Y0.2362
X2.974Y0.1362
X2.974Y0.0362
X2.974Y-0.0638
X2.974Y-0.1638
X2.974Y-0.2638
X3.8583Y3.4252
X3.8583Y3.2047
X3.8583Y3.1047
X3.8583Y3.0047
X3.8583Y2.9047
X3.8583Y2.8047
X3.8583Y2.7047
X3.8583Y2.6047
X3.8583Y2.5047
X3.8583Y2.4047
X3.8583Y2.3047
X3.8583Y2.2047
X3.8583Y2.1047
X3.8583Y2.0047
X3.8583Y1.9047
X3.8583Y1.8047
X3.8583Y1.7047
X3.8583Y1.4567
X3.8583Y1.2362
X3.8583Y1.1362
X3.8583Y1.0362
X3.8583Y0.9362
X3.8583Y0.8362
X3.8583Y0.7362
X3.8583Y0.6362
X3.8583Y0.5362
X3.8583Y0.4362
X3.8583Y0.3362
X3.8583Y0.2362
X3.8583Y0.1362
X3.8583Y0.0362
X3.8583Y-0.0638
X3.8583Y-0.1638
X3.8583Y-0.2638
X3.9583Y3.4252
X3.9583Y3.2047
X3.9583Y3.1047
X3.9583Y3.0047
X3.9583Y2.9047
X3.9583Y2.8047
X3.9583Y2.7047
X3.9583Y2.6047
X3.9583Y2.5047
X3.9583Y2.4047
X3.9583Y2.3047
X3.9583Y2.2047
X3.9583Y2.1047
X3.9583Y2.0047
X3.9583Y1.9047
X3.9583Y1.8047
X3.9583Y1.7047
X3.9583Y1.4567
X3.9583Y1.2362
X3.9583Y1.1362
X3.9583Y1.0362
X3.9583Y0.9362
X3.9583Y0.8362
X3.9583Y0.7362
X3.9583Y0.6362
X3.9583Y0.5362
X3.9583Y0.4362
X3.9583Y0.3362
X3.9583Y0.2362
X3.9583Y0.1362
X3.9583Y0.0362
X3.9583Y-0.0638
X3.9583Y-0.1638
X3.9583Y-0.2638
X4.8425Y3.4252
X4.8425Y3.2047
X4.8425Y3.1047
X4.8425Y3.0047
X4.8425Y2.9047
X4.8425Y2.8047
X4.8425Y2.7047
X4.8425Y2.6047
X4.8425Y2.5047
X4.8425Y2.4047
X4.8425Y2.3047
X4.8425Y2.2047
X4.8425Y2.1047
X4.8425Y2.0047
X4.8425Y1.9047
X4.8425Y1.8047
X4.8425Y1.7047
X4.8425Y1.4567
X4.8425Y1.2362
X4.8425Y1.1362
X4.8425Y1.0362
X4.8425Y0.9362
X4.8425Y0.8362
X4.8425Y0.7362
X4.8425Y0.6362
X4.8425Y0.5362
X4.8425Y0.4362
X4.8425Y0.3362
X4.8425Y0.2362
X4.8425Y0.1362
X4.8425Y0.0362
X4.8425Y-0.0638
X4.8425Y-0.1638
X4.8425Y-0.2638
X4.9425Y3.4252
X4.9425Y3.2047
X4.9425Y3.1047
X4.9425Y3.0047
X4.9425Y2.9047
X4.9425Y2.8047
X4.9425Y2.7047
X4.9425Y2.6047
X4.9425Y2.5047
X4.9425Y2.4047
X4.9425Y2.3047
X4.9425Y2.2047
X4.9425Y2.1047
X4.9425Y2.0047
X4.9425Y1.9047
X4.9425Y1.8047
X4.9425Y1.7047
X4.9425Y1.4567
X4.9425Y1.2362
X4.9425Y1.1362
X4.9425Y1.0362
X4.9425Y0.9362
X4.9425Y0.8362
X4.9425Y0.7362
X4.9425Y0.6362
X4.9425Y0.5362
X4.9425Y0.4362
X4.9425Y0.3362
X4.9425Y0.2362
X4.9425Y0.1362
X4.9425Y0.0362
X4.9425Y-0.0638
X4.9425Y-0.1638
X4.9425Y-0.2638
T0
M30
