M48
;DRILL file {KiCad (5.0.0-rc2-100-g6d77e594b)} date Thu Oct 18 22:19:03 2018
;FORMAT={-:-/ absolute / inch / decimal}
FMAT,2
INCH,TZ
T1C0.0157
T2C0.0394
T3C0.0551
T4C0.2402
%
G90
G05
M72
T1
X2.6358Y-3.2054
X2.7244Y-2.1732
X2.7244Y-2.2323
X2.752Y-2.2047
X2.7618Y-3.1988
X2.7795Y-2.1732
X2.7835Y-2.2323
X2.9567Y-3.437
X2.9567Y-3.4902
X2.9567Y-3.5433
X2.9567Y-3.5965
X2.9567Y-3.6496
X3.0185Y-3.437
X3.0185Y-3.4902
X3.0185Y-3.5433
X3.0185Y-3.5965
X3.0185Y-3.6496
X3.0803Y-3.437
X3.0803Y-3.4902
X3.0803Y-3.5433
X3.0803Y-3.5965
X3.0803Y-3.6496
X3.1421Y-3.437
X3.1421Y-3.4902
X3.1421Y-3.5433
X3.1421Y-3.5965
X3.1421Y-3.6496
X3.2039Y-3.437
X3.2039Y-3.4902
X3.2039Y-3.5433
X3.2039Y-3.5965
X3.2039Y-3.6496
X3.3071Y-2.9528
X3.3563Y-2.9528
X3.4055Y-2.9528
X3.4646Y-3.2087
X3.7205Y-3.1693
X3.7441Y-3.437
X3.7441Y-3.4902
X3.7441Y-3.5433
X3.7441Y-3.5965
X3.7441Y-3.6496
X3.8059Y-3.437
X3.8059Y-3.4902
X3.8059Y-3.5433
X3.8059Y-3.5965
X3.8059Y-3.6496
X3.8677Y-3.437
X3.8677Y-3.4902
X3.8677Y-3.5433
X3.8677Y-3.5965
X3.8677Y-3.6496
X3.8976Y-2.7362
X3.8976Y-2.9528
X3.9295Y-3.437
X3.9295Y-3.4902
X3.9295Y-3.5433
X3.9295Y-3.5965
X3.9295Y-3.6496
X3.9469Y-2.7362
X3.9469Y-2.9528
X3.9913Y-3.437
X3.9913Y-3.4902
X3.9913Y-3.5433
X3.9913Y-3.5965
X3.9913Y-3.6496
X3.9961Y-2.7362
X3.9961Y-2.9528
X4.2126Y-3.1693
X4.2323Y-2.7362
X4.2815Y-2.7362
X4.3307Y-2.7362
X4.4882Y-2.9528
X4.5079Y-3.1693
X4.5315Y-3.437
X4.5315Y-3.4902
X4.5315Y-3.5433
X4.5315Y-3.5965
X4.5315Y-3.6496
X4.5374Y-2.9528
X4.5866Y-2.9528
X4.5933Y-3.437
X4.5933Y-3.4902
X4.5933Y-3.5433
X4.5933Y-3.5965
X4.5933Y-3.6496
X4.6551Y-3.437
X4.6551Y-3.4902
X4.6551Y-3.5433
X4.6551Y-3.5965
X4.6551Y-3.6496
X4.7169Y-3.437
X4.7169Y-3.4902
X4.7169Y-3.5433
X4.7169Y-3.5965
X4.7169Y-3.6496
X4.7787Y-3.437
X4.7787Y-3.4902
X4.7787Y-3.5433
X4.7787Y-3.5965
X4.7787Y-3.6496
X5.0689Y-2.9528
X5.1181Y-2.9528
X5.1673Y-2.9528
X5.2953Y-3.1791
X5.3189Y-3.437
X5.3189Y-3.4902
X5.3189Y-3.5433
X5.3189Y-3.5965
X5.3189Y-3.6496
X5.3807Y-3.437
X5.3807Y-3.4902
X5.3807Y-3.5433
X5.3807Y-3.5965
X5.3807Y-3.6496
X5.4425Y-3.437
X5.4425Y-3.4902
X5.4425Y-3.5433
X5.4425Y-3.5965
X5.4425Y-3.6496
X5.5043Y-3.437
X5.5043Y-3.4902
X5.5043Y-3.5433
X5.5043Y-3.5965
X5.5043Y-3.6496
X5.5661Y-3.437
X5.5661Y-3.4902
X5.5661Y-3.5433
X5.5661Y-3.5965
X5.5661Y-3.6496
T2
X5.5512Y-3.7923
X5.5512Y-3.8923
X5.5512Y-3.9923
X3.8287Y-4.1142
X3.8287Y-4.2142
X3.8287Y-4.3142
X3.8287Y-4.4142
X3.8287Y-4.5142
X4.6358Y-4.1142
X4.6358Y-4.2142
X4.6358Y-4.3142
X4.6358Y-4.4142
X4.6358Y-4.5142
X3.5925Y-2.1949
X3.5925Y-2.2949
X3.5925Y-2.3949
X3.5925Y-2.4949
X3.5925Y-2.5949
X3.061Y-4.1142
X3.061Y-4.2142
X3.061Y-4.3142
X3.061Y-4.4142
X3.061Y-4.5142
X5.4134Y-4.1142
X5.4134Y-4.2142
X5.4134Y-4.3142
X5.4134Y-4.4142
X5.4134Y-4.5142
X4.8228Y-2.1917
X4.8228Y-2.2917
X4.8228Y-2.3917
X4.8228Y-2.4917
X4.8228Y-2.5917
X4.2028Y-2.1949
X4.2028Y-2.2949
X4.2028Y-2.3949
X4.2028Y-2.4949
X4.2028Y-2.5949
X2.9823Y-2.1949
X2.9823Y-2.2949
X2.9823Y-2.3949
X2.9823Y-2.4949
X2.9823Y-2.5949
X5.4035Y-2.2213
X5.4035Y-2.3213
X5.4035Y-2.4213
X5.4035Y-2.5213
X5.4035Y-2.6213
T3
X2.185Y-2.0394
X2.185Y-2.2047
X2.185Y-2.3701
X2.185Y-2.5354
X2.185Y-2.7008
X2.185Y-2.8661
X2.185Y-3.0315
X2.185Y-3.1969
X2.185Y-3.3622
X2.185Y-3.5276
X2.185Y-3.6929
X2.185Y-3.8583
X2.4016Y-2.0394
X2.4016Y-2.2047
X2.4016Y-2.3701
X2.4016Y-2.5354
X2.4016Y-2.7008
X2.4016Y-2.8661
X2.4016Y-3.0315
X2.4016Y-3.1969
X2.4016Y-3.3622
X2.4016Y-3.5276
X2.4016Y-3.6929
X2.4016Y-3.8583
T4
X4.8081Y-1.6142
X5.4134Y-1.6142
X4.2028Y-1.6142
X2.9921Y-1.6142
X3.5974Y-1.6142
T0
M30
