M48
; DRILL file {KiCad (5.99.0-3097-g8601b1e63)} date Thu Sep  3 20:39:09 2020
; FORMAT={-:-/ absolute / inch / decimal}
; #@! TF.CreationDate,2020-09-03T20:39:09+02:00
; #@! TF.GenerationSoftware,Kicad,Pcbnew,(5.99.0-3097-g8601b1e63)
; #@! TF.FileFunction,Plated,1,6,PTH
FMAT,2
INCH
T1C0.0079
T2C0.0394
%
G90
G05
T1
X6.8925Y-2.4146
X6.9307Y-2.3736
X7.0921Y-2.415
X7.0945Y-2.5693
X7.1256Y-2.6091
X7.128Y-2.5331
X7.1287Y-2.4539
X7.1299Y-2.4953
X7.1303Y-2.4146
X7.1681Y-2.4539
X7.1693Y-2.5331
X7.1697Y-2.5705
X7.1894Y-2.6161
X7.2071Y-2.376
X7.2079Y-2.4933
X7.2087Y-2.5276
X7.2091Y-2.3339
X7.2091Y-2.4138
X7.228Y-2.6146
X7.2469Y-2.5705
X7.248Y-2.3343
X7.248Y-2.4091
X7.248Y-2.4909
X7.2492Y-2.5331
X7.252Y-2.374
X7.2677Y-2.6157
X7.2862Y-2.572
X7.2874Y-2.3339
X7.2874Y-2.4094
X7.2878Y-2.5319
X7.2882Y-2.4929
X7.3071Y-2.6165
X7.3264Y-2.374
X7.3264Y-2.5283
X7.3268Y-2.4094
X7.3272Y-2.335
X7.3272Y-2.4921
X7.3272Y-2.5713
X7.3465Y-2.6161
X7.3657Y-2.4913
X7.3661Y-2.3728
X7.3661Y-2.4091
X7.3819Y-3.1417
X7.4031Y-2.4921
X7.4047Y-2.5327
X7.4055Y-2.5728
X7.4067Y-2.4118
X7.4071Y-2.3732
X7.4094Y-2.6028
X7.4173Y-2.3374
X7.4205Y-2.6295
X7.4262Y-3.1437
X7.4803Y-2.126
X7.5484Y-3.4498
X7.5878Y-3.4498
X7.5886Y-3.2933
X7.5894Y-2.7673
X7.5898Y-2.7343
X7.5913Y-2.9563
X7.5984Y-3.185
X7.6102Y-3.3701
X7.6272Y-3.4498
X7.6291Y-2.7819
X7.6295Y-2.8134
X7.6368Y-3.2785
X7.6445Y-2.9075
X7.6594Y-3.3701
X7.6606Y-2.9709
X7.6618Y-2.8134
X7.663Y-2.7799
X7.6665Y-3.4498
X7.676Y-2.9075
X7.6764Y-3.0087
X7.689Y-3.122
X7.6909Y-3.2785
X7.6921Y-2.9709
X7.6939Y-3.0285
X7.7059Y-3.4498
X7.7075Y-2.9075
X7.7087Y-3.0083
X7.7195Y-3.3691
X7.7228Y-2.7193
X7.7228Y-2.7512
X7.7236Y-2.7827
X7.7236Y-2.9709
X7.724Y-2.8173
X7.7248Y-2.8484
X7.7352Y-3.124
X7.739Y-2.9075
X7.7453Y-3.4498
X7.748Y-3.2785
X7.7705Y-2.8201
X7.7705Y-2.9075
X7.7756Y-3.3701
X7.7823Y-3.2791
X7.7846Y-3.4498
X7.7864Y-3.124
X7.802Y-2.9075
X7.8024Y-2.7126
X7.8079Y-2.8197
X7.8181Y-2.9709
X7.8185Y-2.7823
X7.824Y-3.4498
X7.8307Y-3.2785
X7.8335Y-2.9075
X7.8346Y-2.8197
X7.8386Y-3.3681
X7.8396Y-3.1831
X7.8535Y-2.9673
X7.8632Y-3.0443
X7.8634Y-3.4498
X7.8646Y-2.8197
X7.865Y-2.9075
X7.8701Y-3.2785
X7.8803Y-2.7508
X7.8811Y-2.9394
X7.8907Y-3.0797
X7.8947Y-3.185
X7.8957Y-3.3691
X7.8965Y-2.9075
X7.8969Y-2.7138
X7.8972Y-2.8197
X7.9028Y-3.4498
X7.9035Y-3.1142
X7.9045Y-3.2785
X7.9122Y-2.9398
X7.9126Y-2.7823
X7.9252Y-3.0433
X7.928Y-2.9075
X7.9283Y-2.7138
X7.94Y-3.2785
X7.9421Y-3.4498
X7.9429Y-3.1142
X7.9441Y-2.7508
X7.9441Y-2.7823
X7.9441Y-2.9394
X7.9547Y-3.372
X7.9594Y-2.9075
X7.9598Y-2.7138
X7.9598Y-3.0079
X7.9752Y-2.8161
X7.9813Y-3.2785
X7.9815Y-3.4498
X7.9852Y-3.1841
X7.9909Y-2.9075
X7.9949Y-2.7102
X8.0064Y-2.7514
X8.0108Y-2.7805
X8.0108Y-2.7805
X8.0128Y-3.3691
X8.0209Y-3.4498
X8.0266Y-3.2785
X8.0602Y-3.4498
X8.0659Y-3.2785
X8.0719Y-3.3701
X8.0935Y-3.1841
X8.0996Y-3.4498
X8.1053Y-3.2785
X8.1299Y-3.3681
X8.139Y-3.4498
X8.1634Y-3.2785
X8.1693Y-3.1831
X8.1784Y-3.4498
X8.185Y-3.3691
X8.2156Y-3.2785
X8.2177Y-3.4498
X8.2185Y-3.185
X8.2451Y-3.3681
X8.2571Y-3.4498
X8.2638Y-3.2785
X8.2965Y-3.4498
X8.3031Y-3.2785
X8.3358Y-3.4498
X8.3425Y-3.2785
X8.3595Y-3.3396
X8.3752Y-3.4498
X8.4146Y-3.4498
X8.488Y-2.936
X8.5117Y-2.9665
X8.5169Y-3.1545
X8.5323Y-3.003
X8.685Y-3.3386
X8.4874Y-3.2766
X8.4874Y-3.3159
X8.4874Y-3.3553
X8.5386Y-3.2766
X8.5386Y-3.3159
X8.5386Y-3.3553
T2
X6.7997Y-2.9173
X6.7997Y-3.0173
X6.7997Y-3.1173
X6.8997Y-2.9173
X6.8997Y-3.0173
X6.8997Y-3.1173
T0
M30
