%TF.GenerationSoftware,KiCad,Pcbnew,(5.99.0-3097-g8601b1e63)*%
%TF.CreationDate,2020-09-03T20:39:06+02:00*%
%TF.ProjectId,FD3,4644332e-6b69-4636-9164-5f7063625858,rev?*%
%TF.SameCoordinates,Original*%
%TF.FileFunction,Copper,L1,Top*%
%TF.FilePolarity,Positive*%
%FSLAX46Y46*%
G04 Gerber Fmt 4.6, Leading zero omitted, Abs format (unit mm)*
G04 Created by KiCad (PCBNEW (5.99.0-3097-g8601b1e63)) date 2020-09-03 20:39:06*
%MOMM*%
%LPD*%
G01*
G04 APERTURE LIST*
%TA.AperFunction,ComponentPad*%
%ADD10R,1.700000X1.700000*%
%TD*%
%TA.AperFunction,ComponentPad*%
%ADD11O,1.700000X1.700000*%
%TD*%
%TA.AperFunction,SMDPad,CuDef*%
%ADD12R,1.700000X2.500000*%
%TD*%
%TA.AperFunction,ComponentPad*%
%ADD13C,0.500000*%
%TD*%
%TA.AperFunction,SMDPad,CuDef*%
%ADD14R,2.290000X3.000000*%
%TD*%
%TA.AperFunction,SMDPad,CuDef*%
%ADD15C,0.399500*%
%TD*%
%TA.AperFunction,SMDPad,CuDef*%
%ADD16C,0.500000*%
%TD*%
%TA.AperFunction,ViaPad*%
%ADD17C,0.560000*%
%TD*%
%TA.AperFunction,Conductor*%
%ADD18C,0.250000*%
%TD*%
%TA.AperFunction,Conductor*%
%ADD19C,0.200000*%
%TD*%
%TA.AperFunction,Conductor*%
%ADD20C,0.560000*%
%TD*%
%TA.AperFunction,Conductor*%
%ADD21C,0.244000*%
%TD*%
%TA.AperFunction,Conductor*%
%ADD22C,0.160000*%
%TD*%
G04 APERTURE END LIST*
%TO.P,C48,1*%
%TO.N,VCCDDR_1.35V_VREF*%
%TA.AperFunction,SMDPad,CuDef*%
G36*
G01*
X191937500Y-85243750D02*
X191937500Y-85756250D01*
G75*
G02*
X191718750Y-85975000I-218750J0D01*
G01*
X191281250Y-85975000D01*
G75*
G02*
X191062500Y-85756250I0J218750D01*
G01*
X191062500Y-85243750D01*
G75*
G02*
X191281250Y-85025000I218750J0D01*
G01*
X191718750Y-85025000D01*
G75*
G02*
X191937500Y-85243750I0J-218750D01*
G01*
G37*
%TD.AperFunction*%
%TO.P,C48,2*%
%TO.N,GND*%
%TA.AperFunction,SMDPad,CuDef*%
G36*
G01*
X190362500Y-85243750D02*
X190362500Y-85756250D01*
G75*
G02*
X190143750Y-85975000I-218750J0D01*
G01*
X189706250Y-85975000D01*
G75*
G02*
X189487500Y-85756250I0J218750D01*
G01*
X189487500Y-85243750D01*
G75*
G02*
X189706250Y-85025000I218750J0D01*
G01*
X190143750Y-85025000D01*
G75*
G02*
X190362500Y-85243750I0J-218750D01*
G01*
G37*
%TD.AperFunction*%
%TD*%
%TO.P,C49,1*%
%TO.N,VCCDDR_1.35V_VREF*%
%TA.AperFunction,SMDPad,CuDef*%
G36*
G01*
X213973852Y-88787500D02*
X214486352Y-88787500D01*
G75*
G02*
X214705102Y-89006250I0J-218750D01*
G01*
X214705102Y-89443750D01*
G75*
G02*
X214486352Y-89662500I-218750J0D01*
G01*
X213973852Y-89662500D01*
G75*
G02*
X213755102Y-89443750I0J218750D01*
G01*
X213755102Y-89006250D01*
G75*
G02*
X213973852Y-88787500I218750J0D01*
G01*
G37*
%TD.AperFunction*%
%TO.P,C49,2*%
%TO.N,GND*%
%TA.AperFunction,SMDPad,CuDef*%
G36*
G01*
X213973852Y-90362500D02*
X214486352Y-90362500D01*
G75*
G02*
X214705102Y-90581250I0J-218750D01*
G01*
X214705102Y-91018750D01*
G75*
G02*
X214486352Y-91237500I-218750J0D01*
G01*
X213973852Y-91237500D01*
G75*
G02*
X213755102Y-91018750I0J218750D01*
G01*
X213755102Y-90581250D01*
G75*
G02*
X213973852Y-90362500I218750J0D01*
G01*
G37*
%TD.AperFunction*%
%TD*%
%TO.P,C51,1*%
%TO.N,Net-(C51-Pad1)*%
%TA.AperFunction,SMDPad,CuDef*%
G36*
G01*
X212856250Y-74925000D02*
X212343750Y-74925000D01*
G75*
G02*
X212125000Y-74706250I0J218750D01*
G01*
X212125000Y-74268750D01*
G75*
G02*
X212343750Y-74050000I218750J0D01*
G01*
X212856250Y-74050000D01*
G75*
G02*
X213075000Y-74268750I0J-218750D01*
G01*
X213075000Y-74706250D01*
G75*
G02*
X212856250Y-74925000I-218750J0D01*
G01*
G37*
%TD.AperFunction*%
%TO.P,C51,2*%
%TO.N,GND*%
%TA.AperFunction,SMDPad,CuDef*%
G36*
G01*
X212856250Y-73350000D02*
X212343750Y-73350000D01*
G75*
G02*
X212125000Y-73131250I0J218750D01*
G01*
X212125000Y-72693750D01*
G75*
G02*
X212343750Y-72475000I218750J0D01*
G01*
X212856250Y-72475000D01*
G75*
G02*
X213075000Y-72693750I0J-218750D01*
G01*
X213075000Y-73131250D01*
G75*
G02*
X212856250Y-73350000I-218750J0D01*
G01*
G37*
%TD.AperFunction*%
%TD*%
%TO.P,C69,1*%
%TO.N,VCCDDR_1.35V*%
%TA.AperFunction,SMDPad,CuDef*%
G36*
G01*
X190217500Y-65936250D02*
X190217500Y-65423750D01*
G75*
G02*
X190436250Y-65205000I218750J0D01*
G01*
X190873750Y-65205000D01*
G75*
G02*
X191092500Y-65423750I0J-218750D01*
G01*
X191092500Y-65936250D01*
G75*
G02*
X190873750Y-66155000I-218750J0D01*
G01*
X190436250Y-66155000D01*
G75*
G02*
X190217500Y-65936250I0J218750D01*
G01*
G37*
%TD.AperFunction*%
%TO.P,C69,2*%
%TO.N,GND*%
%TA.AperFunction,SMDPad,CuDef*%
G36*
G01*
X191792500Y-65936250D02*
X191792500Y-65423750D01*
G75*
G02*
X192011250Y-65205000I218750J0D01*
G01*
X192448750Y-65205000D01*
G75*
G02*
X192667500Y-65423750I0J-218750D01*
G01*
X192667500Y-65936250D01*
G75*
G02*
X192448750Y-66155000I-218750J0D01*
G01*
X192011250Y-66155000D01*
G75*
G02*
X191792500Y-65936250I0J218750D01*
G01*
G37*
%TD.AperFunction*%
%TD*%
%TO.P,C70,1*%
%TO.N,VCCDDR_1.35V*%
%TA.AperFunction,SMDPad,CuDef*%
G36*
G01*
X202692500Y-67043750D02*
X202692500Y-67556250D01*
G75*
G02*
X202473750Y-67775000I-218750J0D01*
G01*
X202036250Y-67775000D01*
G75*
G02*
X201817500Y-67556250I0J218750D01*
G01*
X201817500Y-67043750D01*
G75*
G02*
X202036250Y-66825000I218750J0D01*
G01*
X202473750Y-66825000D01*
G75*
G02*
X202692500Y-67043750I0J-218750D01*
G01*
G37*
%TD.AperFunction*%
%TO.P,C70,2*%
%TO.N,GND*%
%TA.AperFunction,SMDPad,CuDef*%
G36*
G01*
X201117500Y-67043750D02*
X201117500Y-67556250D01*
G75*
G02*
X200898750Y-67775000I-218750J0D01*
G01*
X200461250Y-67775000D01*
G75*
G02*
X200242500Y-67556250I0J218750D01*
G01*
X200242500Y-67043750D01*
G75*
G02*
X200461250Y-66825000I218750J0D01*
G01*
X200898750Y-66825000D01*
G75*
G02*
X201117500Y-67043750I0J-218750D01*
G01*
G37*
%TD.AperFunction*%
%TD*%
%TO.P,C71,1*%
%TO.N,VCCDDR_1.35V*%
%TA.AperFunction,SMDPad,CuDef*%
G36*
G01*
X191482500Y-67476250D02*
X191482500Y-66963750D01*
G75*
G02*
X191701250Y-66745000I218750J0D01*
G01*
X192138750Y-66745000D01*
G75*
G02*
X192357500Y-66963750I0J-218750D01*
G01*
X192357500Y-67476250D01*
G75*
G02*
X192138750Y-67695000I-218750J0D01*
G01*
X191701250Y-67695000D01*
G75*
G02*
X191482500Y-67476250I0J218750D01*
G01*
G37*
%TD.AperFunction*%
%TO.P,C71,2*%
%TO.N,GND*%
%TA.AperFunction,SMDPad,CuDef*%
G36*
G01*
X193057500Y-67476250D02*
X193057500Y-66963750D01*
G75*
G02*
X193276250Y-66745000I218750J0D01*
G01*
X193713750Y-66745000D01*
G75*
G02*
X193932500Y-66963750I0J-218750D01*
G01*
X193932500Y-67476250D01*
G75*
G02*
X193713750Y-67695000I-218750J0D01*
G01*
X193276250Y-67695000D01*
G75*
G02*
X193057500Y-67476250I0J218750D01*
G01*
G37*
%TD.AperFunction*%
%TD*%
%TO.P,C72,1*%
%TO.N,VCCDDR_1.35V*%
%TA.AperFunction,SMDPad,CuDef*%
G36*
G01*
X203162500Y-78456250D02*
X203162500Y-77943750D01*
G75*
G02*
X203381250Y-77725000I218750J0D01*
G01*
X203818750Y-77725000D01*
G75*
G02*
X204037500Y-77943750I0J-218750D01*
G01*
X204037500Y-78456250D01*
G75*
G02*
X203818750Y-78675000I-218750J0D01*
G01*
X203381250Y-78675000D01*
G75*
G02*
X203162500Y-78456250I0J218750D01*
G01*
G37*
%TD.AperFunction*%
%TO.P,C72,2*%
%TO.N,GND*%
%TA.AperFunction,SMDPad,CuDef*%
G36*
G01*
X204737500Y-78456250D02*
X204737500Y-77943750D01*
G75*
G02*
X204956250Y-77725000I218750J0D01*
G01*
X205393750Y-77725000D01*
G75*
G02*
X205612500Y-77943750I0J-218750D01*
G01*
X205612500Y-78456250D01*
G75*
G02*
X205393750Y-78675000I-218750J0D01*
G01*
X204956250Y-78675000D01*
G75*
G02*
X204737500Y-78456250I0J218750D01*
G01*
G37*
%TD.AperFunction*%
%TD*%
%TO.P,C75,1*%
%TO.N,VCCDDR_1.35V_VREF*%
%TA.AperFunction,SMDPad,CuDef*%
G36*
G01*
X200187500Y-65956250D02*
X200187500Y-65443750D01*
G75*
G02*
X200406250Y-65225000I218750J0D01*
G01*
X200843750Y-65225000D01*
G75*
G02*
X201062500Y-65443750I0J-218750D01*
G01*
X201062500Y-65956250D01*
G75*
G02*
X200843750Y-66175000I-218750J0D01*
G01*
X200406250Y-66175000D01*
G75*
G02*
X200187500Y-65956250I0J218750D01*
G01*
G37*
%TD.AperFunction*%
%TO.P,C75,2*%
%TO.N,GND*%
%TA.AperFunction,SMDPad,CuDef*%
G36*
G01*
X201762500Y-65956250D02*
X201762500Y-65443750D01*
G75*
G02*
X201981250Y-65225000I218750J0D01*
G01*
X202418750Y-65225000D01*
G75*
G02*
X202637500Y-65443750I0J-218750D01*
G01*
X202637500Y-65956250D01*
G75*
G02*
X202418750Y-66175000I-218750J0D01*
G01*
X201981250Y-66175000D01*
G75*
G02*
X201762500Y-65956250I0J218750D01*
G01*
G37*
%TD.AperFunction*%
%TD*%
%TO.P,C76,1*%
%TO.N,VCCDDR_1.35V_VREF*%
%TA.AperFunction,SMDPad,CuDef*%
G36*
G01*
X192112500Y-79643750D02*
X192112500Y-80156250D01*
G75*
G02*
X191893750Y-80375000I-218750J0D01*
G01*
X191456250Y-80375000D01*
G75*
G02*
X191237500Y-80156250I0J218750D01*
G01*
X191237500Y-79643750D01*
G75*
G02*
X191456250Y-79425000I218750J0D01*
G01*
X191893750Y-79425000D01*
G75*
G02*
X192112500Y-79643750I0J-218750D01*
G01*
G37*
%TD.AperFunction*%
%TO.P,C76,2*%
%TO.N,GND*%
%TA.AperFunction,SMDPad,CuDef*%
G36*
G01*
X190537500Y-79643750D02*
X190537500Y-80156250D01*
G75*
G02*
X190318750Y-80375000I-218750J0D01*
G01*
X189881250Y-80375000D01*
G75*
G02*
X189662500Y-80156250I0J218750D01*
G01*
X189662500Y-79643750D01*
G75*
G02*
X189881250Y-79425000I218750J0D01*
G01*
X190318750Y-79425000D01*
G75*
G02*
X190537500Y-79643750I0J-218750D01*
G01*
G37*
%TD.AperFunction*%
%TD*%
%TO.P,C77,1*%
%TO.N,VCCDDR_1.35V*%
%TA.AperFunction,SMDPad,CuDef*%
G36*
G01*
X199737500Y-77943750D02*
X199737500Y-78456250D01*
G75*
G02*
X199518750Y-78675000I-218750J0D01*
G01*
X199081250Y-78675000D01*
G75*
G02*
X198862500Y-78456250I0J218750D01*
G01*
X198862500Y-77943750D01*
G75*
G02*
X199081250Y-77725000I218750J0D01*
G01*
X199518750Y-77725000D01*
G75*
G02*
X199737500Y-77943750I0J-218750D01*
G01*
G37*
%TD.AperFunction*%
%TO.P,C77,2*%
%TO.N,VCCDDR_1.35V_VREF*%
%TA.AperFunction,SMDPad,CuDef*%
G36*
G01*
X198162500Y-77943750D02*
X198162500Y-78456250D01*
G75*
G02*
X197943750Y-78675000I-218750J0D01*
G01*
X197506250Y-78675000D01*
G75*
G02*
X197287500Y-78456250I0J218750D01*
G01*
X197287500Y-77943750D01*
G75*
G02*
X197506250Y-77725000I218750J0D01*
G01*
X197943750Y-77725000D01*
G75*
G02*
X198162500Y-77943750I0J-218750D01*
G01*
G37*
%TD.AperFunction*%
%TD*%
%TO.P,C78,1*%
%TO.N,VCCDDR_1.35V_VREF*%
%TA.AperFunction,SMDPad,CuDef*%
G36*
G01*
X292993750Y-83525000D02*
X293506250Y-83525000D01*
G75*
G02*
X293725000Y-83743750I0J-218750D01*
G01*
X293725000Y-84181250D01*
G75*
G02*
X293506250Y-84400000I-218750J0D01*
G01*
X292993750Y-84400000D01*
G75*
G02*
X292775000Y-84181250I0J218750D01*
G01*
X292775000Y-83743750D01*
G75*
G02*
X292993750Y-83525000I218750J0D01*
G01*
G37*
%TD.AperFunction*%
%TO.P,C78,2*%
%TO.N,GND*%
%TA.AperFunction,SMDPad,CuDef*%
G36*
G01*
X292993750Y-85100000D02*
X293506250Y-85100000D01*
G75*
G02*
X293725000Y-85318750I0J-218750D01*
G01*
X293725000Y-85756250D01*
G75*
G02*
X293506250Y-85975000I-218750J0D01*
G01*
X292993750Y-85975000D01*
G75*
G02*
X292775000Y-85756250I0J218750D01*
G01*
X292775000Y-85318750D01*
G75*
G02*
X292993750Y-85100000I218750J0D01*
G01*
G37*
%TD.AperFunction*%
%TD*%
%TO.P,C79,1*%
%TO.N,GND*%
%TA.AperFunction,SMDPad,CuDef*%
G36*
G01*
X189662500Y-78656250D02*
X189662500Y-78143750D01*
G75*
G02*
X189881250Y-77925000I218750J0D01*
G01*
X190318750Y-77925000D01*
G75*
G02*
X190537500Y-78143750I0J-218750D01*
G01*
X190537500Y-78656250D01*
G75*
G02*
X190318750Y-78875000I-218750J0D01*
G01*
X189881250Y-78875000D01*
G75*
G02*
X189662500Y-78656250I0J218750D01*
G01*
G37*
%TD.AperFunction*%
%TO.P,C79,2*%
%TO.N,VCCDDR_1.35V_VREF*%
%TA.AperFunction,SMDPad,CuDef*%
G36*
G01*
X191237500Y-78656250D02*
X191237500Y-78143750D01*
G75*
G02*
X191456250Y-77925000I218750J0D01*
G01*
X191893750Y-77925000D01*
G75*
G02*
X192112500Y-78143750I0J-218750D01*
G01*
X192112500Y-78656250D01*
G75*
G02*
X191893750Y-78875000I-218750J0D01*
G01*
X191456250Y-78875000D01*
G75*
G02*
X191237500Y-78656250I0J218750D01*
G01*
G37*
%TD.AperFunction*%
%TD*%
%TO.P,C80,1*%
%TO.N,VCCDDR_1.35V_VREF*%
%TA.AperFunction,SMDPad,CuDef*%
G36*
G01*
X291993750Y-76062500D02*
X292506250Y-76062500D01*
G75*
G02*
X292725000Y-76281250I0J-218750D01*
G01*
X292725000Y-76718750D01*
G75*
G02*
X292506250Y-76937500I-218750J0D01*
G01*
X291993750Y-76937500D01*
G75*
G02*
X291775000Y-76718750I0J218750D01*
G01*
X291775000Y-76281250D01*
G75*
G02*
X291993750Y-76062500I218750J0D01*
G01*
G37*
%TD.AperFunction*%
%TO.P,C80,2*%
%TO.N,GND*%
%TA.AperFunction,SMDPad,CuDef*%
G36*
G01*
X291993750Y-77637500D02*
X292506250Y-77637500D01*
G75*
G02*
X292725000Y-77856250I0J-218750D01*
G01*
X292725000Y-78293750D01*
G75*
G02*
X292506250Y-78512500I-218750J0D01*
G01*
X291993750Y-78512500D01*
G75*
G02*
X291775000Y-78293750I0J218750D01*
G01*
X291775000Y-77856250D01*
G75*
G02*
X291993750Y-77637500I218750J0D01*
G01*
G37*
%TD.AperFunction*%
%TD*%
%TO.P,C82,1*%
%TO.N,VCCDDR_1.35V_VREF*%
%TA.AperFunction,SMDPad,CuDef*%
G36*
G01*
X192112500Y-81143750D02*
X192112500Y-81656250D01*
G75*
G02*
X191893750Y-81875000I-218750J0D01*
G01*
X191456250Y-81875000D01*
G75*
G02*
X191237500Y-81656250I0J218750D01*
G01*
X191237500Y-81143750D01*
G75*
G02*
X191456250Y-80925000I218750J0D01*
G01*
X191893750Y-80925000D01*
G75*
G02*
X192112500Y-81143750I0J-218750D01*
G01*
G37*
%TD.AperFunction*%
%TO.P,C82,2*%
%TO.N,GND*%
%TA.AperFunction,SMDPad,CuDef*%
G36*
G01*
X190537500Y-81143750D02*
X190537500Y-81656250D01*
G75*
G02*
X190318750Y-81875000I-218750J0D01*
G01*
X189881250Y-81875000D01*
G75*
G02*
X189662500Y-81656250I0J218750D01*
G01*
X189662500Y-81143750D01*
G75*
G02*
X189881250Y-80925000I218750J0D01*
G01*
X190318750Y-80925000D01*
G75*
G02*
X190537500Y-81143750I0J-218750D01*
G01*
G37*
%TD.AperFunction*%
%TD*%
D10*
%TO.P,J33,1,Pin_1*%
%TO.N,/fgpa-logic/m0*%
X172712500Y-74100000D03*
D11*
%TO.P,J33,2,Pin_2*%
%TO.N,GND*%
X175252500Y-74100000D03*
%TO.P,J33,3,Pin_3*%
%TO.N,/fgpa-logic/m1*%
X172712500Y-76640000D03*
%TO.P,J33,4,Pin_4*%
%TO.N,GND*%
X175252500Y-76640000D03*
%TO.P,J33,5,Pin_5*%
%TO.N,/fgpa-logic/m2*%
X172712500Y-79180000D03*
%TO.P,J33,6,Pin_6*%
%TO.N,GND*%
X175252500Y-79180000D03*
%TD*%
%TO.P,R42,1*%
%TO.N,Net-(R42-Pad1)*%
%TA.AperFunction,SMDPad,CuDef*%
G36*
G01*
X215273852Y-78900000D02*
X215786352Y-78900000D01*
G75*
G02*
X216005102Y-79118750I0J-218750D01*
G01*
X216005102Y-79556250D01*
G75*
G02*
X215786352Y-79775000I-218750J0D01*
G01*
X215273852Y-79775000D01*
G75*
G02*
X215055102Y-79556250I0J218750D01*
G01*
X215055102Y-79118750D01*
G75*
G02*
X215273852Y-78900000I218750J0D01*
G01*
G37*
%TD.AperFunction*%
%TO.P,R42,2*%
%TO.N,GND*%
%TA.AperFunction,SMDPad,CuDef*%
G36*
G01*
X215273852Y-80475000D02*
X215786352Y-80475000D01*
G75*
G02*
X216005102Y-80693750I0J-218750D01*
G01*
X216005102Y-81131250D01*
G75*
G02*
X215786352Y-81350000I-218750J0D01*
G01*
X215273852Y-81350000D01*
G75*
G02*
X215055102Y-81131250I0J218750D01*
G01*
X215055102Y-80693750D01*
G75*
G02*
X215273852Y-80475000I218750J0D01*
G01*
G37*
%TD.AperFunction*%
%TD*%
%TO.P,R43,1*%
%TO.N,+5V*%
%TA.AperFunction,SMDPad,CuDef*%
G36*
G01*
X217486352Y-81350000D02*
X216973852Y-81350000D01*
G75*
G02*
X216755102Y-81131250I0J218750D01*
G01*
X216755102Y-80693750D01*
G75*
G02*
X216973852Y-80475000I218750J0D01*
G01*
X217486352Y-80475000D01*
G75*
G02*
X217705102Y-80693750I0J-218750D01*
G01*
X217705102Y-81131250D01*
G75*
G02*
X217486352Y-81350000I-218750J0D01*
G01*
G37*
%TD.AperFunction*%
%TO.P,R43,2*%
%TO.N,Net-(R42-Pad1)*%
%TA.AperFunction,SMDPad,CuDef*%
G36*
G01*
X217486352Y-79775000D02*
X216973852Y-79775000D01*
G75*
G02*
X216755102Y-79556250I0J218750D01*
G01*
X216755102Y-79118750D01*
G75*
G02*
X216973852Y-78900000I218750J0D01*
G01*
X217486352Y-78900000D01*
G75*
G02*
X217705102Y-79118750I0J-218750D01*
G01*
X217705102Y-79556250D01*
G75*
G02*
X217486352Y-79775000I-218750J0D01*
G01*
G37*
%TD.AperFunction*%
%TD*%
%TO.P,R44,1*%
%TO.N,GND*%
%TA.AperFunction,SMDPad,CuDef*%
G36*
G01*
X210543750Y-73375000D02*
X211056250Y-73375000D01*
G75*
G02*
X211275000Y-73593750I0J-218750D01*
G01*
X211275000Y-74031250D01*
G75*
G02*
X211056250Y-74250000I-218750J0D01*
G01*
X210543750Y-74250000D01*
G75*
G02*
X210325000Y-74031250I0J218750D01*
G01*
X210325000Y-73593750D01*
G75*
G02*
X210543750Y-73375000I218750J0D01*
G01*
G37*
%TD.AperFunction*%
%TO.P,R44,2*%
%TO.N,Net-(R44-Pad2)*%
%TA.AperFunction,SMDPad,CuDef*%
G36*
G01*
X210543750Y-74950000D02*
X211056250Y-74950000D01*
G75*
G02*
X211275000Y-75168750I0J-218750D01*
G01*
X211275000Y-75606250D01*
G75*
G02*
X211056250Y-75825000I-218750J0D01*
G01*
X210543750Y-75825000D01*
G75*
G02*
X210325000Y-75606250I0J218750D01*
G01*
X210325000Y-75168750D01*
G75*
G02*
X210543750Y-74950000I218750J0D01*
G01*
G37*
%TD.AperFunction*%
%TD*%
%TO.P,R45,1*%
%TO.N,Net-(R44-Pad2)*%
%TA.AperFunction,SMDPad,CuDef*%
G36*
G01*
X210543750Y-76475000D02*
X211056250Y-76475000D01*
G75*
G02*
X211275000Y-76693750I0J-218750D01*
G01*
X211275000Y-77131250D01*
G75*
G02*
X211056250Y-77350000I-218750J0D01*
G01*
X210543750Y-77350000D01*
G75*
G02*
X210325000Y-77131250I0J218750D01*
G01*
X210325000Y-76693750D01*
G75*
G02*
X210543750Y-76475000I218750J0D01*
G01*
G37*
%TD.AperFunction*%
%TO.P,R45,2*%
%TO.N,VCCDDR_1.35V*%
%TA.AperFunction,SMDPad,CuDef*%
G36*
G01*
X210543750Y-78050000D02*
X211056250Y-78050000D01*
G75*
G02*
X211275000Y-78268750I0J-218750D01*
G01*
X211275000Y-78706250D01*
G75*
G02*
X211056250Y-78925000I-218750J0D01*
G01*
X210543750Y-78925000D01*
G75*
G02*
X210325000Y-78706250I0J218750D01*
G01*
X210325000Y-78268750D01*
G75*
G02*
X210543750Y-78050000I218750J0D01*
G01*
G37*
%TD.AperFunction*%
%TD*%
%TO.P,R57,1*%
%TO.N,/fgpa-logic/m0*%
%TA.AperFunction,SMDPad,CuDef*%
G36*
G01*
X170425000Y-73843750D02*
X170425000Y-74356250D01*
G75*
G02*
X170206250Y-74575000I-218750J0D01*
G01*
X169768750Y-74575000D01*
G75*
G02*
X169550000Y-74356250I0J218750D01*
G01*
X169550000Y-73843750D01*
G75*
G02*
X169768750Y-73625000I218750J0D01*
G01*
X170206250Y-73625000D01*
G75*
G02*
X170425000Y-73843750I0J-218750D01*
G01*
G37*
%TD.AperFunction*%
%TO.P,R57,2*%
%TO.N,VCCFPGA_S1_VCCO_CONFIG*%
%TA.AperFunction,SMDPad,CuDef*%
G36*
G01*
X168850000Y-73843750D02*
X168850000Y-74356250D01*
G75*
G02*
X168631250Y-74575000I-218750J0D01*
G01*
X168193750Y-74575000D01*
G75*
G02*
X167975000Y-74356250I0J218750D01*
G01*
X167975000Y-73843750D01*
G75*
G02*
X168193750Y-73625000I218750J0D01*
G01*
X168631250Y-73625000D01*
G75*
G02*
X168850000Y-73843750I0J-218750D01*
G01*
G37*
%TD.AperFunction*%
%TD*%
%TO.P,R58,1*%
%TO.N,/fgpa-logic/m1*%
%TA.AperFunction,SMDPad,CuDef*%
G36*
G01*
X170425000Y-76343750D02*
X170425000Y-76856250D01*
G75*
G02*
X170206250Y-77075000I-218750J0D01*
G01*
X169768750Y-77075000D01*
G75*
G02*
X169550000Y-76856250I0J218750D01*
G01*
X169550000Y-76343750D01*
G75*
G02*
X169768750Y-76125000I218750J0D01*
G01*
X170206250Y-76125000D01*
G75*
G02*
X170425000Y-76343750I0J-218750D01*
G01*
G37*
%TD.AperFunction*%
%TO.P,R58,2*%
%TO.N,VCCFPGA_S1_VCCO_CONFIG*%
%TA.AperFunction,SMDPad,CuDef*%
G36*
G01*
X168850000Y-76343750D02*
X168850000Y-76856250D01*
G75*
G02*
X168631250Y-77075000I-218750J0D01*
G01*
X168193750Y-77075000D01*
G75*
G02*
X167975000Y-76856250I0J218750D01*
G01*
X167975000Y-76343750D01*
G75*
G02*
X168193750Y-76125000I218750J0D01*
G01*
X168631250Y-76125000D01*
G75*
G02*
X168850000Y-76343750I0J-218750D01*
G01*
G37*
%TD.AperFunction*%
%TD*%
%TO.P,R59,1*%
%TO.N,/fgpa-logic/m2*%
%TA.AperFunction,SMDPad,CuDef*%
G36*
G01*
X170425000Y-79043750D02*
X170425000Y-79556250D01*
G75*
G02*
X170206250Y-79775000I-218750J0D01*
G01*
X169768750Y-79775000D01*
G75*
G02*
X169550000Y-79556250I0J218750D01*
G01*
X169550000Y-79043750D01*
G75*
G02*
X169768750Y-78825000I218750J0D01*
G01*
X170206250Y-78825000D01*
G75*
G02*
X170425000Y-79043750I0J-218750D01*
G01*
G37*
%TD.AperFunction*%
%TO.P,R59,2*%
%TO.N,VCCFPGA_S1_VCCO_CONFIG*%
%TA.AperFunction,SMDPad,CuDef*%
G36*
G01*
X168850000Y-79043750D02*
X168850000Y-79556250D01*
G75*
G02*
X168631250Y-79775000I-218750J0D01*
G01*
X168193750Y-79775000D01*
G75*
G02*
X167975000Y-79556250I0J218750D01*
G01*
X167975000Y-79043750D01*
G75*
G02*
X168193750Y-78825000I218750J0D01*
G01*
X168631250Y-78825000D01*
G75*
G02*
X168850000Y-79043750I0J-218750D01*
G01*
G37*
%TD.AperFunction*%
%TD*%
%TO.P,R69,1*%
%TO.N,Net-(R69-Pad1)*%
%TA.AperFunction,SMDPad,CuDef*%
G36*
G01*
X199256250Y-67712500D02*
X198743750Y-67712500D01*
G75*
G02*
X198525000Y-67493750I0J218750D01*
G01*
X198525000Y-67056250D01*
G75*
G02*
X198743750Y-66837500I218750J0D01*
G01*
X199256250Y-66837500D01*
G75*
G02*
X199475000Y-67056250I0J-218750D01*
G01*
X199475000Y-67493750D01*
G75*
G02*
X199256250Y-67712500I-218750J0D01*
G01*
G37*
%TD.AperFunction*%
%TO.P,R69,2*%
%TO.N,GND*%
%TA.AperFunction,SMDPad,CuDef*%
G36*
G01*
X199256250Y-66137500D02*
X198743750Y-66137500D01*
G75*
G02*
X198525000Y-65918750I0J218750D01*
G01*
X198525000Y-65481250D01*
G75*
G02*
X198743750Y-65262500I218750J0D01*
G01*
X199256250Y-65262500D01*
G75*
G02*
X199475000Y-65481250I0J-218750D01*
G01*
X199475000Y-65918750D01*
G75*
G02*
X199256250Y-66137500I-218750J0D01*
G01*
G37*
%TD.AperFunction*%
%TD*%
%TO.P,R70,1*%
%TO.N,DDR_NRST*%
%TA.AperFunction,SMDPad,CuDef*%
G36*
G01*
X210718750Y-79650000D02*
X211231250Y-79650000D01*
G75*
G02*
X211450000Y-79868750I0J-218750D01*
G01*
X211450000Y-80306250D01*
G75*
G02*
X211231250Y-80525000I-218750J0D01*
G01*
X210718750Y-80525000D01*
G75*
G02*
X210500000Y-80306250I0J218750D01*
G01*
X210500000Y-79868750D01*
G75*
G02*
X210718750Y-79650000I218750J0D01*
G01*
G37*
%TD.AperFunction*%
%TO.P,R70,2*%
%TO.N,VCCDDR_1.35V_VREF*%
%TA.AperFunction,SMDPad,CuDef*%
G36*
G01*
X210718750Y-81225000D02*
X211231250Y-81225000D01*
G75*
G02*
X211450000Y-81443750I0J-218750D01*
G01*
X211450000Y-81881250D01*
G75*
G02*
X211231250Y-82100000I-218750J0D01*
G01*
X210718750Y-82100000D01*
G75*
G02*
X210500000Y-81881250I0J218750D01*
G01*
X210500000Y-81443750D01*
G75*
G02*
X210718750Y-81225000I218750J0D01*
G01*
G37*
%TD.AperFunction*%
%TD*%
%TO.P,R71,1*%
%TO.N,VCCDDR_1.35V_VREF*%
%TA.AperFunction,SMDPad,CuDef*%
G36*
G01*
X194856250Y-82125000D02*
X194343750Y-82125000D01*
G75*
G02*
X194125000Y-81906250I0J218750D01*
G01*
X194125000Y-81468750D01*
G75*
G02*
X194343750Y-81250000I218750J0D01*
G01*
X194856250Y-81250000D01*
G75*
G02*
X195075000Y-81468750I0J-218750D01*
G01*
X195075000Y-81906250D01*
G75*
G02*
X194856250Y-82125000I-218750J0D01*
G01*
G37*
%TD.AperFunction*%
%TO.P,R71,2*%
%TO.N,DDR_NRAS*%
%TA.AperFunction,SMDPad,CuDef*%
G36*
G01*
X194856250Y-80550000D02*
X194343750Y-80550000D01*
G75*
G02*
X194125000Y-80331250I0J218750D01*
G01*
X194125000Y-79893750D01*
G75*
G02*
X194343750Y-79675000I218750J0D01*
G01*
X194856250Y-79675000D01*
G75*
G02*
X195075000Y-79893750I0J-218750D01*
G01*
X195075000Y-80331250D01*
G75*
G02*
X194856250Y-80550000I-218750J0D01*
G01*
G37*
%TD.AperFunction*%
%TD*%
%TO.P,R72,1*%
%TO.N,VCCDDR_1.35V_VREF*%
%TA.AperFunction,SMDPad,CuDef*%
G36*
G01*
X199356250Y-86825000D02*
X198843750Y-86825000D01*
G75*
G02*
X198625000Y-86606250I0J218750D01*
G01*
X198625000Y-86168750D01*
G75*
G02*
X198843750Y-85950000I218750J0D01*
G01*
X199356250Y-85950000D01*
G75*
G02*
X199575000Y-86168750I0J-218750D01*
G01*
X199575000Y-86606250D01*
G75*
G02*
X199356250Y-86825000I-218750J0D01*
G01*
G37*
%TD.AperFunction*%
%TO.P,R72,2*%
%TO.N,DDR_A0*%
%TA.AperFunction,SMDPad,CuDef*%
G36*
G01*
X199356250Y-85250000D02*
X198843750Y-85250000D01*
G75*
G02*
X198625000Y-85031250I0J218750D01*
G01*
X198625000Y-84593750D01*
G75*
G02*
X198843750Y-84375000I218750J0D01*
G01*
X199356250Y-84375000D01*
G75*
G02*
X199575000Y-84593750I0J-218750D01*
G01*
X199575000Y-85031250D01*
G75*
G02*
X199356250Y-85250000I-218750J0D01*
G01*
G37*
%TD.AperFunction*%
%TD*%
%TO.P,R73,1*%
%TO.N,VCCDDR_1.35V_VREF*%
%TA.AperFunction,SMDPad,CuDef*%
G36*
G01*
X206781250Y-82112500D02*
X206268750Y-82112500D01*
G75*
G02*
X206050000Y-81893750I0J218750D01*
G01*
X206050000Y-81456250D01*
G75*
G02*
X206268750Y-81237500I218750J0D01*
G01*
X206781250Y-81237500D01*
G75*
G02*
X207000000Y-81456250I0J-218750D01*
G01*
X207000000Y-81893750D01*
G75*
G02*
X206781250Y-82112500I-218750J0D01*
G01*
G37*
%TD.AperFunction*%
%TO.P,R73,2*%
%TO.N,DDR_A1*%
%TA.AperFunction,SMDPad,CuDef*%
G36*
G01*
X206781250Y-80537500D02*
X206268750Y-80537500D01*
G75*
G02*
X206050000Y-80318750I0J218750D01*
G01*
X206050000Y-79881250D01*
G75*
G02*
X206268750Y-79662500I218750J0D01*
G01*
X206781250Y-79662500D01*
G75*
G02*
X207000000Y-79881250I0J-218750D01*
G01*
X207000000Y-80318750D01*
G75*
G02*
X206781250Y-80537500I-218750J0D01*
G01*
G37*
%TD.AperFunction*%
%TD*%
%TO.P,R74,1*%
%TO.N,VCCDDR_1.35V_VREF*%
%TA.AperFunction,SMDPad,CuDef*%
G36*
G01*
X203806250Y-82112500D02*
X203293750Y-82112500D01*
G75*
G02*
X203075000Y-81893750I0J218750D01*
G01*
X203075000Y-81456250D01*
G75*
G02*
X203293750Y-81237500I218750J0D01*
G01*
X203806250Y-81237500D01*
G75*
G02*
X204025000Y-81456250I0J-218750D01*
G01*
X204025000Y-81893750D01*
G75*
G02*
X203806250Y-82112500I-218750J0D01*
G01*
G37*
%TD.AperFunction*%
%TO.P,R74,2*%
%TO.N,DDR_A2*%
%TA.AperFunction,SMDPad,CuDef*%
G36*
G01*
X203806250Y-80537500D02*
X203293750Y-80537500D01*
G75*
G02*
X203075000Y-80318750I0J218750D01*
G01*
X203075000Y-79881250D01*
G75*
G02*
X203293750Y-79662500I218750J0D01*
G01*
X203806250Y-79662500D01*
G75*
G02*
X204025000Y-79881250I0J-218750D01*
G01*
X204025000Y-80318750D01*
G75*
G02*
X203806250Y-80537500I-218750J0D01*
G01*
G37*
%TD.AperFunction*%
%TD*%
%TO.P,R75,1*%
%TO.N,VCCDDR_1.35V_VREF*%
%TA.AperFunction,SMDPad,CuDef*%
G36*
G01*
X202331250Y-82125000D02*
X201818750Y-82125000D01*
G75*
G02*
X201600000Y-81906250I0J218750D01*
G01*
X201600000Y-81468750D01*
G75*
G02*
X201818750Y-81250000I218750J0D01*
G01*
X202331250Y-81250000D01*
G75*
G02*
X202550000Y-81468750I0J-218750D01*
G01*
X202550000Y-81906250D01*
G75*
G02*
X202331250Y-82125000I-218750J0D01*
G01*
G37*
%TD.AperFunction*%
%TO.P,R75,2*%
%TO.N,DDR_A3*%
%TA.AperFunction,SMDPad,CuDef*%
G36*
G01*
X202331250Y-80550000D02*
X201818750Y-80550000D01*
G75*
G02*
X201600000Y-80331250I0J218750D01*
G01*
X201600000Y-79893750D01*
G75*
G02*
X201818750Y-79675000I218750J0D01*
G01*
X202331250Y-79675000D01*
G75*
G02*
X202550000Y-79893750I0J-218750D01*
G01*
X202550000Y-80331250D01*
G75*
G02*
X202331250Y-80550000I-218750J0D01*
G01*
G37*
%TD.AperFunction*%
%TD*%
%TO.P,R76,1*%
%TO.N,VCCDDR_1.35V_VREF*%
%TA.AperFunction,SMDPad,CuDef*%
G36*
G01*
X206756250Y-86800000D02*
X206243750Y-86800000D01*
G75*
G02*
X206025000Y-86581250I0J218750D01*
G01*
X206025000Y-86143750D01*
G75*
G02*
X206243750Y-85925000I218750J0D01*
G01*
X206756250Y-85925000D01*
G75*
G02*
X206975000Y-86143750I0J-218750D01*
G01*
X206975000Y-86581250D01*
G75*
G02*
X206756250Y-86800000I-218750J0D01*
G01*
G37*
%TD.AperFunction*%
%TO.P,R76,2*%
%TO.N,DDR_A4*%
%TA.AperFunction,SMDPad,CuDef*%
G36*
G01*
X206756250Y-85225000D02*
X206243750Y-85225000D01*
G75*
G02*
X206025000Y-85006250I0J218750D01*
G01*
X206025000Y-84568750D01*
G75*
G02*
X206243750Y-84350000I218750J0D01*
G01*
X206756250Y-84350000D01*
G75*
G02*
X206975000Y-84568750I0J-218750D01*
G01*
X206975000Y-85006250D01*
G75*
G02*
X206756250Y-85225000I-218750J0D01*
G01*
G37*
%TD.AperFunction*%
%TD*%
%TO.P,R77,1*%
%TO.N,VCCDDR_1.35V_VREF*%
%TA.AperFunction,SMDPad,CuDef*%
G36*
G01*
X202331250Y-86812500D02*
X201818750Y-86812500D01*
G75*
G02*
X201600000Y-86593750I0J218750D01*
G01*
X201600000Y-86156250D01*
G75*
G02*
X201818750Y-85937500I218750J0D01*
G01*
X202331250Y-85937500D01*
G75*
G02*
X202550000Y-86156250I0J-218750D01*
G01*
X202550000Y-86593750D01*
G75*
G02*
X202331250Y-86812500I-218750J0D01*
G01*
G37*
%TD.AperFunction*%
%TO.P,R77,2*%
%TO.N,DDR_A5*%
%TA.AperFunction,SMDPad,CuDef*%
G36*
G01*
X202331250Y-85237500D02*
X201818750Y-85237500D01*
G75*
G02*
X201600000Y-85018750I0J218750D01*
G01*
X201600000Y-84581250D01*
G75*
G02*
X201818750Y-84362500I218750J0D01*
G01*
X202331250Y-84362500D01*
G75*
G02*
X202550000Y-84581250I0J-218750D01*
G01*
X202550000Y-85018750D01*
G75*
G02*
X202331250Y-85237500I-218750J0D01*
G01*
G37*
%TD.AperFunction*%
%TD*%
%TO.P,R78,1*%
%TO.N,VCCDDR_1.35V_VREF*%
%TA.AperFunction,SMDPad,CuDef*%
G36*
G01*
X208256250Y-82100000D02*
X207743750Y-82100000D01*
G75*
G02*
X207525000Y-81881250I0J218750D01*
G01*
X207525000Y-81443750D01*
G75*
G02*
X207743750Y-81225000I218750J0D01*
G01*
X208256250Y-81225000D01*
G75*
G02*
X208475000Y-81443750I0J-218750D01*
G01*
X208475000Y-81881250D01*
G75*
G02*
X208256250Y-82100000I-218750J0D01*
G01*
G37*
%TD.AperFunction*%
%TO.P,R78,2*%
%TO.N,DDR_A6*%
%TA.AperFunction,SMDPad,CuDef*%
G36*
G01*
X208256250Y-80525000D02*
X207743750Y-80525000D01*
G75*
G02*
X207525000Y-80306250I0J218750D01*
G01*
X207525000Y-79868750D01*
G75*
G02*
X207743750Y-79650000I218750J0D01*
G01*
X208256250Y-79650000D01*
G75*
G02*
X208475000Y-79868750I0J-218750D01*
G01*
X208475000Y-80306250D01*
G75*
G02*
X208256250Y-80525000I-218750J0D01*
G01*
G37*
%TD.AperFunction*%
%TD*%
%TO.P,R79,1*%
%TO.N,VCCDDR_1.35V_VREF*%
%TA.AperFunction,SMDPad,CuDef*%
G36*
G01*
X203806250Y-86812500D02*
X203293750Y-86812500D01*
G75*
G02*
X203075000Y-86593750I0J218750D01*
G01*
X203075000Y-86156250D01*
G75*
G02*
X203293750Y-85937500I218750J0D01*
G01*
X203806250Y-85937500D01*
G75*
G02*
X204025000Y-86156250I0J-218750D01*
G01*
X204025000Y-86593750D01*
G75*
G02*
X203806250Y-86812500I-218750J0D01*
G01*
G37*
%TD.AperFunction*%
%TO.P,R79,2*%
%TO.N,DDR_A7*%
%TA.AperFunction,SMDPad,CuDef*%
G36*
G01*
X203806250Y-85237500D02*
X203293750Y-85237500D01*
G75*
G02*
X203075000Y-85018750I0J218750D01*
G01*
X203075000Y-84581250D01*
G75*
G02*
X203293750Y-84362500I218750J0D01*
G01*
X203806250Y-84362500D01*
G75*
G02*
X204025000Y-84581250I0J-218750D01*
G01*
X204025000Y-85018750D01*
G75*
G02*
X203806250Y-85237500I-218750J0D01*
G01*
G37*
%TD.AperFunction*%
%TD*%
%TO.P,R80,1*%
%TO.N,VCCDDR_1.35V_VREF*%
%TA.AperFunction,SMDPad,CuDef*%
G36*
G01*
X209706250Y-86800000D02*
X209193750Y-86800000D01*
G75*
G02*
X208975000Y-86581250I0J218750D01*
G01*
X208975000Y-86143750D01*
G75*
G02*
X209193750Y-85925000I218750J0D01*
G01*
X209706250Y-85925000D01*
G75*
G02*
X209925000Y-86143750I0J-218750D01*
G01*
X209925000Y-86581250D01*
G75*
G02*
X209706250Y-86800000I-218750J0D01*
G01*
G37*
%TD.AperFunction*%
%TO.P,R80,2*%
%TO.N,DDR_A8*%
%TA.AperFunction,SMDPad,CuDef*%
G36*
G01*
X209706250Y-85225000D02*
X209193750Y-85225000D01*
G75*
G02*
X208975000Y-85006250I0J218750D01*
G01*
X208975000Y-84568750D01*
G75*
G02*
X209193750Y-84350000I218750J0D01*
G01*
X209706250Y-84350000D01*
G75*
G02*
X209925000Y-84568750I0J-218750D01*
G01*
X209925000Y-85006250D01*
G75*
G02*
X209706250Y-85225000I-218750J0D01*
G01*
G37*
%TD.AperFunction*%
%TD*%
%TO.P,R81,1*%
%TO.N,VCCDDR_1.35V_VREF*%
%TA.AperFunction,SMDPad,CuDef*%
G36*
G01*
X205306250Y-82112500D02*
X204793750Y-82112500D01*
G75*
G02*
X204575000Y-81893750I0J218750D01*
G01*
X204575000Y-81456250D01*
G75*
G02*
X204793750Y-81237500I218750J0D01*
G01*
X205306250Y-81237500D01*
G75*
G02*
X205525000Y-81456250I0J-218750D01*
G01*
X205525000Y-81893750D01*
G75*
G02*
X205306250Y-82112500I-218750J0D01*
G01*
G37*
%TD.AperFunction*%
%TO.P,R81,2*%
%TO.N,DDR_A9*%
%TA.AperFunction,SMDPad,CuDef*%
G36*
G01*
X205306250Y-80537500D02*
X204793750Y-80537500D01*
G75*
G02*
X204575000Y-80318750I0J218750D01*
G01*
X204575000Y-79881250D01*
G75*
G02*
X204793750Y-79662500I218750J0D01*
G01*
X205306250Y-79662500D01*
G75*
G02*
X205525000Y-79881250I0J-218750D01*
G01*
X205525000Y-80318750D01*
G75*
G02*
X205306250Y-80537500I-218750J0D01*
G01*
G37*
%TD.AperFunction*%
%TD*%
%TO.P,R82,1*%
%TO.N,VCCDDR_1.35V_VREF*%
%TA.AperFunction,SMDPad,CuDef*%
G36*
G01*
X196356250Y-82112500D02*
X195843750Y-82112500D01*
G75*
G02*
X195625000Y-81893750I0J218750D01*
G01*
X195625000Y-81456250D01*
G75*
G02*
X195843750Y-81237500I218750J0D01*
G01*
X196356250Y-81237500D01*
G75*
G02*
X196575000Y-81456250I0J-218750D01*
G01*
X196575000Y-81893750D01*
G75*
G02*
X196356250Y-82112500I-218750J0D01*
G01*
G37*
%TD.AperFunction*%
%TO.P,R82,2*%
%TO.N,DDR_A10*%
%TA.AperFunction,SMDPad,CuDef*%
G36*
G01*
X196356250Y-80537500D02*
X195843750Y-80537500D01*
G75*
G02*
X195625000Y-80318750I0J218750D01*
G01*
X195625000Y-79881250D01*
G75*
G02*
X195843750Y-79662500I218750J0D01*
G01*
X196356250Y-79662500D01*
G75*
G02*
X196575000Y-79881250I0J-218750D01*
G01*
X196575000Y-80318750D01*
G75*
G02*
X196356250Y-80537500I-218750J0D01*
G01*
G37*
%TD.AperFunction*%
%TD*%
%TO.P,R83,1*%
%TO.N,VCCDDR_1.35V_VREF*%
%TA.AperFunction,SMDPad,CuDef*%
G36*
G01*
X208231250Y-86800000D02*
X207718750Y-86800000D01*
G75*
G02*
X207500000Y-86581250I0J218750D01*
G01*
X207500000Y-86143750D01*
G75*
G02*
X207718750Y-85925000I218750J0D01*
G01*
X208231250Y-85925000D01*
G75*
G02*
X208450000Y-86143750I0J-218750D01*
G01*
X208450000Y-86581250D01*
G75*
G02*
X208231250Y-86800000I-218750J0D01*
G01*
G37*
%TD.AperFunction*%
%TO.P,R83,2*%
%TO.N,DDR_A11*%
%TA.AperFunction,SMDPad,CuDef*%
G36*
G01*
X208231250Y-85225000D02*
X207718750Y-85225000D01*
G75*
G02*
X207500000Y-85006250I0J218750D01*
G01*
X207500000Y-84568750D01*
G75*
G02*
X207718750Y-84350000I218750J0D01*
G01*
X208231250Y-84350000D01*
G75*
G02*
X208450000Y-84568750I0J-218750D01*
G01*
X208450000Y-85006250D01*
G75*
G02*
X208231250Y-85225000I-218750J0D01*
G01*
G37*
%TD.AperFunction*%
%TD*%
%TO.P,R84,1*%
%TO.N,VCCDDR_1.35V_VREF*%
%TA.AperFunction,SMDPad,CuDef*%
G36*
G01*
X199356250Y-82112500D02*
X198843750Y-82112500D01*
G75*
G02*
X198625000Y-81893750I0J218750D01*
G01*
X198625000Y-81456250D01*
G75*
G02*
X198843750Y-81237500I218750J0D01*
G01*
X199356250Y-81237500D01*
G75*
G02*
X199575000Y-81456250I0J-218750D01*
G01*
X199575000Y-81893750D01*
G75*
G02*
X199356250Y-82112500I-218750J0D01*
G01*
G37*
%TD.AperFunction*%
%TO.P,R84,2*%
%TO.N,DDR_A12*%
%TA.AperFunction,SMDPad,CuDef*%
G36*
G01*
X199356250Y-80537500D02*
X198843750Y-80537500D01*
G75*
G02*
X198625000Y-80318750I0J218750D01*
G01*
X198625000Y-79881250D01*
G75*
G02*
X198843750Y-79662500I218750J0D01*
G01*
X199356250Y-79662500D01*
G75*
G02*
X199575000Y-79881250I0J-218750D01*
G01*
X199575000Y-80318750D01*
G75*
G02*
X199356250Y-80537500I-218750J0D01*
G01*
G37*
%TD.AperFunction*%
%TD*%
%TO.P,R85,1*%
%TO.N,VCCDDR_1.35V_VREF*%
%TA.AperFunction,SMDPad,CuDef*%
G36*
G01*
X205281250Y-86800000D02*
X204768750Y-86800000D01*
G75*
G02*
X204550000Y-86581250I0J218750D01*
G01*
X204550000Y-86143750D01*
G75*
G02*
X204768750Y-85925000I218750J0D01*
G01*
X205281250Y-85925000D01*
G75*
G02*
X205500000Y-86143750I0J-218750D01*
G01*
X205500000Y-86581250D01*
G75*
G02*
X205281250Y-86800000I-218750J0D01*
G01*
G37*
%TD.AperFunction*%
%TO.P,R85,2*%
%TO.N,DDR_A13*%
%TA.AperFunction,SMDPad,CuDef*%
G36*
G01*
X205281250Y-85225000D02*
X204768750Y-85225000D01*
G75*
G02*
X204550000Y-85006250I0J218750D01*
G01*
X204550000Y-84568750D01*
G75*
G02*
X204768750Y-84350000I218750J0D01*
G01*
X205281250Y-84350000D01*
G75*
G02*
X205500000Y-84568750I0J-218750D01*
G01*
X205500000Y-85006250D01*
G75*
G02*
X205281250Y-85225000I-218750J0D01*
G01*
G37*
%TD.AperFunction*%
%TD*%
%TO.P,R86,1*%
%TO.N,VCCDDR_1.35V_VREF*%
%TA.AperFunction,SMDPad,CuDef*%
G36*
G01*
X209756250Y-82100000D02*
X209243750Y-82100000D01*
G75*
G02*
X209025000Y-81881250I0J218750D01*
G01*
X209025000Y-81443750D01*
G75*
G02*
X209243750Y-81225000I218750J0D01*
G01*
X209756250Y-81225000D01*
G75*
G02*
X209975000Y-81443750I0J-218750D01*
G01*
X209975000Y-81881250D01*
G75*
G02*
X209756250Y-82100000I-218750J0D01*
G01*
G37*
%TD.AperFunction*%
%TO.P,R86,2*%
%TO.N,DDR_A14*%
%TA.AperFunction,SMDPad,CuDef*%
G36*
G01*
X209756250Y-80525000D02*
X209243750Y-80525000D01*
G75*
G02*
X209025000Y-80306250I0J218750D01*
G01*
X209025000Y-79868750D01*
G75*
G02*
X209243750Y-79650000I218750J0D01*
G01*
X209756250Y-79650000D01*
G75*
G02*
X209975000Y-79868750I0J-218750D01*
G01*
X209975000Y-80306250D01*
G75*
G02*
X209756250Y-80525000I-218750J0D01*
G01*
G37*
%TD.AperFunction*%
%TD*%
%TO.P,R87,1*%
%TO.N,VCCDDR_1.35V_VREF*%
%TA.AperFunction,SMDPad,CuDef*%
G36*
G01*
X196356250Y-86812500D02*
X195843750Y-86812500D01*
G75*
G02*
X195625000Y-86593750I0J218750D01*
G01*
X195625000Y-86156250D01*
G75*
G02*
X195843750Y-85937500I218750J0D01*
G01*
X196356250Y-85937500D01*
G75*
G02*
X196575000Y-86156250I0J-218750D01*
G01*
X196575000Y-86593750D01*
G75*
G02*
X196356250Y-86812500I-218750J0D01*
G01*
G37*
%TD.AperFunction*%
%TO.P,R87,2*%
%TO.N,DDR_A15*%
%TA.AperFunction,SMDPad,CuDef*%
G36*
G01*
X196356250Y-85237500D02*
X195843750Y-85237500D01*
G75*
G02*
X195625000Y-85018750I0J218750D01*
G01*
X195625000Y-84581250D01*
G75*
G02*
X195843750Y-84362500I218750J0D01*
G01*
X196356250Y-84362500D01*
G75*
G02*
X196575000Y-84581250I0J-218750D01*
G01*
X196575000Y-85018750D01*
G75*
G02*
X196356250Y-85237500I-218750J0D01*
G01*
G37*
%TD.AperFunction*%
%TD*%
%TO.P,R89,1*%
%TO.N,VCCDDR_1.35V_VREF*%
%TA.AperFunction,SMDPad,CuDef*%
G36*
G01*
X188856250Y-82825000D02*
X188343750Y-82825000D01*
G75*
G02*
X188125000Y-82606250I0J218750D01*
G01*
X188125000Y-82168750D01*
G75*
G02*
X188343750Y-81950000I218750J0D01*
G01*
X188856250Y-81950000D01*
G75*
G02*
X189075000Y-82168750I0J-218750D01*
G01*
X189075000Y-82606250D01*
G75*
G02*
X188856250Y-82825000I-218750J0D01*
G01*
G37*
%TD.AperFunction*%
%TO.P,R89,2*%
%TO.N,DDR_ODT*%
%TA.AperFunction,SMDPad,CuDef*%
G36*
G01*
X188856250Y-81250000D02*
X188343750Y-81250000D01*
G75*
G02*
X188125000Y-81031250I0J218750D01*
G01*
X188125000Y-80593750D01*
G75*
G02*
X188343750Y-80375000I218750J0D01*
G01*
X188856250Y-80375000D01*
G75*
G02*
X189075000Y-80593750I0J-218750D01*
G01*
X189075000Y-81031250D01*
G75*
G02*
X188856250Y-81250000I-218750J0D01*
G01*
G37*
%TD.AperFunction*%
%TD*%
%TO.P,R90,1*%
%TO.N,VCCDDR_1.35V_VREF*%
%TA.AperFunction,SMDPad,CuDef*%
G36*
G01*
X193381250Y-86812500D02*
X192868750Y-86812500D01*
G75*
G02*
X192650000Y-86593750I0J218750D01*
G01*
X192650000Y-86156250D01*
G75*
G02*
X192868750Y-85937500I218750J0D01*
G01*
X193381250Y-85937500D01*
G75*
G02*
X193600000Y-86156250I0J-218750D01*
G01*
X193600000Y-86593750D01*
G75*
G02*
X193381250Y-86812500I-218750J0D01*
G01*
G37*
%TD.AperFunction*%
%TO.P,R90,2*%
%TO.N,DDR_CKE*%
%TA.AperFunction,SMDPad,CuDef*%
G36*
G01*
X193381250Y-85237500D02*
X192868750Y-85237500D01*
G75*
G02*
X192650000Y-85018750I0J218750D01*
G01*
X192650000Y-84581250D01*
G75*
G02*
X192868750Y-84362500I218750J0D01*
G01*
X193381250Y-84362500D01*
G75*
G02*
X193600000Y-84581250I0J-218750D01*
G01*
X193600000Y-85018750D01*
G75*
G02*
X193381250Y-85237500I-218750J0D01*
G01*
G37*
%TD.AperFunction*%
%TD*%
%TO.P,R92,1*%
%TO.N,VCCDDR_1.35V_VREF*%
%TA.AperFunction,SMDPad,CuDef*%
G36*
G01*
X194856250Y-86825000D02*
X194343750Y-86825000D01*
G75*
G02*
X194125000Y-86606250I0J218750D01*
G01*
X194125000Y-86168750D01*
G75*
G02*
X194343750Y-85950000I218750J0D01*
G01*
X194856250Y-85950000D01*
G75*
G02*
X195075000Y-86168750I0J-218750D01*
G01*
X195075000Y-86606250D01*
G75*
G02*
X194856250Y-86825000I-218750J0D01*
G01*
G37*
%TD.AperFunction*%
%TO.P,R92,2*%
%TO.N,DDR_NCAS*%
%TA.AperFunction,SMDPad,CuDef*%
G36*
G01*
X194856250Y-85250000D02*
X194343750Y-85250000D01*
G75*
G02*
X194125000Y-85031250I0J218750D01*
G01*
X194125000Y-84593750D01*
G75*
G02*
X194343750Y-84375000I218750J0D01*
G01*
X194856250Y-84375000D01*
G75*
G02*
X195075000Y-84593750I0J-218750D01*
G01*
X195075000Y-85031250D01*
G75*
G02*
X194856250Y-85250000I-218750J0D01*
G01*
G37*
%TD.AperFunction*%
%TD*%
%TO.P,U9,1,IN*%
%TO.N,+5V*%
%TA.AperFunction,SMDPad,CuDef*%
G36*
G01*
X218043750Y-76300000D02*
X218043750Y-76425000D01*
G75*
G02*
X217981250Y-76487500I-62500J0D01*
G01*
X217281250Y-76487500D01*
G75*
G02*
X217218750Y-76425000I0J62500D01*
G01*
X217218750Y-76300000D01*
G75*
G02*
X217281250Y-76237500I62500J0D01*
G01*
X217981250Y-76237500D01*
G75*
G02*
X218043750Y-76300000I0J-62500D01*
G01*
G37*
%TD.AperFunction*%
%TO.P,U9,2,IN*%
%TA.AperFunction,SMDPad,CuDef*%
G36*
G01*
X218043750Y-75800000D02*
X218043750Y-75925000D01*
G75*
G02*
X217981250Y-75987500I-62500J0D01*
G01*
X217281250Y-75987500D01*
G75*
G02*
X217218750Y-75925000I0J62500D01*
G01*
X217218750Y-75800000D01*
G75*
G02*
X217281250Y-75737500I62500J0D01*
G01*
X217981250Y-75737500D01*
G75*
G02*
X218043750Y-75800000I0J-62500D01*
G01*
G37*
%TD.AperFunction*%
%TO.P,U9,3,PG*%
%TO.N,Net-(R42-Pad1)*%
%TA.AperFunction,SMDPad,CuDef*%
G36*
G01*
X218043750Y-75300000D02*
X218043750Y-75425000D01*
G75*
G02*
X217981250Y-75487500I-62500J0D01*
G01*
X217281250Y-75487500D01*
G75*
G02*
X217218750Y-75425000I0J62500D01*
G01*
X217218750Y-75300000D01*
G75*
G02*
X217281250Y-75237500I62500J0D01*
G01*
X217981250Y-75237500D01*
G75*
G02*
X218043750Y-75300000I0J-62500D01*
G01*
G37*
%TD.AperFunction*%
%TO.P,U9,4,BIAS*%
%TO.N,+5V*%
%TA.AperFunction,SMDPad,CuDef*%
G36*
G01*
X218043750Y-74800000D02*
X218043750Y-74925000D01*
G75*
G02*
X217981250Y-74987500I-62500J0D01*
G01*
X217281250Y-74987500D01*
G75*
G02*
X217218750Y-74925000I0J62500D01*
G01*
X217218750Y-74800000D01*
G75*
G02*
X217281250Y-74737500I62500J0D01*
G01*
X217981250Y-74737500D01*
G75*
G02*
X218043750Y-74800000I0J-62500D01*
G01*
G37*
%TD.AperFunction*%
%TO.P,U9,5,EN*%
%TO.N,VCCFPGA_S0_PG*%
%TA.AperFunction,SMDPad,CuDef*%
G36*
G01*
X218043750Y-74300000D02*
X218043750Y-74425000D01*
G75*
G02*
X217981250Y-74487500I-62500J0D01*
G01*
X217281250Y-74487500D01*
G75*
G02*
X217218750Y-74425000I0J62500D01*
G01*
X217218750Y-74300000D01*
G75*
G02*
X217281250Y-74237500I62500J0D01*
G01*
X217981250Y-74237500D01*
G75*
G02*
X218043750Y-74300000I0J-62500D01*
G01*
G37*
%TD.AperFunction*%
%TO.P,U9,6,GND*%
%TO.N,GND*%
%TA.AperFunction,SMDPad,CuDef*%
G36*
G01*
X215118750Y-74300000D02*
X215118750Y-74425000D01*
G75*
G02*
X215056250Y-74487500I-62500J0D01*
G01*
X214356250Y-74487500D01*
G75*
G02*
X214293750Y-74425000I0J62500D01*
G01*
X214293750Y-74300000D01*
G75*
G02*
X214356250Y-74237500I62500J0D01*
G01*
X215056250Y-74237500D01*
G75*
G02*
X215118750Y-74300000I0J-62500D01*
G01*
G37*
%TD.AperFunction*%
%TO.P,U9,7,SS*%
%TO.N,Net-(C51-Pad1)*%
%TA.AperFunction,SMDPad,CuDef*%
G36*
G01*
X215118750Y-74800000D02*
X215118750Y-74925000D01*
G75*
G02*
X215056250Y-74987500I-62500J0D01*
G01*
X214356250Y-74987500D01*
G75*
G02*
X214293750Y-74925000I0J62500D01*
G01*
X214293750Y-74800000D01*
G75*
G02*
X214356250Y-74737500I62500J0D01*
G01*
X215056250Y-74737500D01*
G75*
G02*
X215118750Y-74800000I0J-62500D01*
G01*
G37*
%TD.AperFunction*%
%TO.P,U9,8,FB*%
%TO.N,Net-(R44-Pad2)*%
%TA.AperFunction,SMDPad,CuDef*%
G36*
G01*
X215118750Y-75300000D02*
X215118750Y-75425000D01*
G75*
G02*
X215056250Y-75487500I-62500J0D01*
G01*
X214356250Y-75487500D01*
G75*
G02*
X214293750Y-75425000I0J62500D01*
G01*
X214293750Y-75300000D01*
G75*
G02*
X214356250Y-75237500I62500J0D01*
G01*
X215056250Y-75237500D01*
G75*
G02*
X215118750Y-75300000I0J-62500D01*
G01*
G37*
%TD.AperFunction*%
%TO.P,U9,9,OUT*%
%TO.N,VCCDDR_1.35V*%
%TA.AperFunction,SMDPad,CuDef*%
G36*
G01*
X215118750Y-75800000D02*
X215118750Y-75925000D01*
G75*
G02*
X215056250Y-75987500I-62500J0D01*
G01*
X214356250Y-75987500D01*
G75*
G02*
X214293750Y-75925000I0J62500D01*
G01*
X214293750Y-75800000D01*
G75*
G02*
X214356250Y-75737500I62500J0D01*
G01*
X215056250Y-75737500D01*
G75*
G02*
X215118750Y-75800000I0J-62500D01*
G01*
G37*
%TD.AperFunction*%
%TO.P,U9,10,OUT*%
%TA.AperFunction,SMDPad,CuDef*%
G36*
G01*
X215118750Y-76300000D02*
X215118750Y-76425000D01*
G75*
G02*
X215056250Y-76487500I-62500J0D01*
G01*
X214356250Y-76487500D01*
G75*
G02*
X214293750Y-76425000I0J62500D01*
G01*
X214293750Y-76300000D01*
G75*
G02*
X214356250Y-76237500I62500J0D01*
G01*
X215056250Y-76237500D01*
G75*
G02*
X215118750Y-76300000I0J-62500D01*
G01*
G37*
%TD.AperFunction*%
D12*
%TO.P,U9,11*%
%TO.N,N/C*%
X216168750Y-75362500D03*
%TD*%
%TO.P,U10,1,VIN*%
%TO.N,VCCDDR_1.35V*%
%TA.AperFunction,SMDPad,CuDef*%
G36*
G01*
X212780102Y-82470000D02*
X212780102Y-82170000D01*
G75*
G02*
X212930102Y-82020000I150000J0D01*
G01*
X214580102Y-82020000D01*
G75*
G02*
X214730102Y-82170000I0J-150000D01*
G01*
X214730102Y-82470000D01*
G75*
G02*
X214580102Y-82620000I-150000J0D01*
G01*
X212930102Y-82620000D01*
G75*
G02*
X212780102Y-82470000I0J150000D01*
G01*
G37*
%TD.AperFunction*%
%TO.P,U10,2,GND*%
%TO.N,GND*%
%TA.AperFunction,SMDPad,CuDef*%
G36*
G01*
X212780102Y-83740000D02*
X212780102Y-83440000D01*
G75*
G02*
X212930102Y-83290000I150000J0D01*
G01*
X214580102Y-83290000D01*
G75*
G02*
X214730102Y-83440000I0J-150000D01*
G01*
X214730102Y-83740000D01*
G75*
G02*
X214580102Y-83890000I-150000J0D01*
G01*
X212930102Y-83890000D01*
G75*
G02*
X212780102Y-83740000I0J150000D01*
G01*
G37*
%TD.AperFunction*%
%TO.P,U10,3,VREFEN*%
%TO.N,Net-(R42-Pad1)*%
%TA.AperFunction,SMDPad,CuDef*%
G36*
G01*
X212780102Y-85010000D02*
X212780102Y-84710000D01*
G75*
G02*
X212930102Y-84560000I150000J0D01*
G01*
X214580102Y-84560000D01*
G75*
G02*
X214730102Y-84710000I0J-150000D01*
G01*
X214730102Y-85010000D01*
G75*
G02*
X214580102Y-85160000I-150000J0D01*
G01*
X212930102Y-85160000D01*
G75*
G02*
X212780102Y-85010000I0J150000D01*
G01*
G37*
%TD.AperFunction*%
%TO.P,U10,4,VOUT*%
%TO.N,VCCDDR_1.35V_VREF*%
%TA.AperFunction,SMDPad,CuDef*%
G36*
G01*
X212780102Y-86280000D02*
X212780102Y-85980000D01*
G75*
G02*
X212930102Y-85830000I150000J0D01*
G01*
X214580102Y-85830000D01*
G75*
G02*
X214730102Y-85980000I0J-150000D01*
G01*
X214730102Y-86280000D01*
G75*
G02*
X214580102Y-86430000I-150000J0D01*
G01*
X212930102Y-86430000D01*
G75*
G02*
X212780102Y-86280000I0J150000D01*
G01*
G37*
%TD.AperFunction*%
%TO.P,U10,5,NC*%
%TO.N,Net-(U10-Pad5)*%
%TA.AperFunction,SMDPad,CuDef*%
G36*
G01*
X217730102Y-86280000D02*
X217730102Y-85980000D01*
G75*
G02*
X217880102Y-85830000I150000J0D01*
G01*
X219530102Y-85830000D01*
G75*
G02*
X219680102Y-85980000I0J-150000D01*
G01*
X219680102Y-86280000D01*
G75*
G02*
X219530102Y-86430000I-150000J0D01*
G01*
X217880102Y-86430000D01*
G75*
G02*
X217730102Y-86280000I0J150000D01*
G01*
G37*
%TD.AperFunction*%
%TO.P,U10,6,VCNTL*%
%TO.N,+5V*%
%TA.AperFunction,SMDPad,CuDef*%
G36*
G01*
X217730102Y-85010000D02*
X217730102Y-84710000D01*
G75*
G02*
X217880102Y-84560000I150000J0D01*
G01*
X219530102Y-84560000D01*
G75*
G02*
X219680102Y-84710000I0J-150000D01*
G01*
X219680102Y-85010000D01*
G75*
G02*
X219530102Y-85160000I-150000J0D01*
G01*
X217880102Y-85160000D01*
G75*
G02*
X217730102Y-85010000I0J150000D01*
G01*
G37*
%TD.AperFunction*%
%TO.P,U10,7,NC*%
%TO.N,Net-(U10-Pad7)*%
%TA.AperFunction,SMDPad,CuDef*%
G36*
G01*
X217730102Y-83740000D02*
X217730102Y-83440000D01*
G75*
G02*
X217880102Y-83290000I150000J0D01*
G01*
X219530102Y-83290000D01*
G75*
G02*
X219680102Y-83440000I0J-150000D01*
G01*
X219680102Y-83740000D01*
G75*
G02*
X219530102Y-83890000I-150000J0D01*
G01*
X217880102Y-83890000D01*
G75*
G02*
X217730102Y-83740000I0J150000D01*
G01*
G37*
%TD.AperFunction*%
%TO.P,U10,8,NC*%
%TO.N,Net-(U10-Pad8)*%
%TA.AperFunction,SMDPad,CuDef*%
G36*
G01*
X217730102Y-82470000D02*
X217730102Y-82170000D01*
G75*
G02*
X217880102Y-82020000I150000J0D01*
G01*
X219530102Y-82020000D01*
G75*
G02*
X219680102Y-82170000I0J-150000D01*
G01*
X219680102Y-82470000D01*
G75*
G02*
X219530102Y-82620000I-150000J0D01*
G01*
X217880102Y-82620000D01*
G75*
G02*
X217730102Y-82470000I0J150000D01*
G01*
G37*
%TD.AperFunction*%
D13*
%TO.P,U10,9,GND/TPAD*%
%TO.N,GND*%
X215580102Y-83225000D03*
X216880102Y-85225000D03*
X216880102Y-84225000D03*
X215580102Y-84225000D03*
X216880102Y-83225000D03*
D14*
X216230102Y-84225000D03*
D13*
X215580102Y-85225000D03*
%TD*%
D15*
%TO.P,U17,A1,VSS*%
%TO.N,GND*%
X193380000Y-75870000D03*
%TO.P,U17,A2,VDD*%
%TO.N,VCCDDR_1.35V*%
X193380000Y-75070000D03*
%TO.P,U17,A3,NC*%
%TO.N,Net-(U17-PadA3)*%
X193380000Y-74270000D03*
%TO.P,U17,A7,NF/~TDQS~*%
%TO.N,DDR_TDQS_N*%
X193380000Y-71070000D03*
%TO.P,U17,A8,VSS*%
%TO.N,GND*%
X193380000Y-70270000D03*
%TO.P,U17,A9,VDD*%
%TO.N,VCCDDR_1.35V*%
X193380000Y-69470000D03*
%TO.P,U17,B1,VSS*%
%TO.N,GND*%
X194180000Y-75870000D03*
%TO.P,U17,B2,VSSQ*%
X194180000Y-75070000D03*
%TO.P,U17,B3,DQ0*%
%TO.N,DDR_DQ0*%
X194180000Y-74270000D03*
%TO.P,U17,B7,DM/TDQS*%
%TO.N,DDR_TDQS_P*%
X194180000Y-71070000D03*
%TO.P,U17,B8,VSSQ*%
%TO.N,GND*%
X194180000Y-70270000D03*
%TO.P,U17,B9,VDDQ*%
%TO.N,VCCDDR_1.35V*%
X194180000Y-69470000D03*
%TO.P,U17,C1,VDDQ*%
X194980000Y-75870000D03*
%TO.P,U17,C2,DQ2*%
%TO.N,DDR_DQ2*%
X194980000Y-75070000D03*
%TO.P,U17,C3,DQS*%
%TO.N,DDR_DQS_P*%
X194980000Y-74270000D03*
%TO.P,U17,C7,DQ1*%
%TO.N,DDR_DQ1*%
X194980000Y-71070000D03*
%TO.P,U17,C8,DQ3*%
%TO.N,DDR_DQ3*%
X194980000Y-70270000D03*
%TO.P,U17,C9,VSSQ*%
%TO.N,GND*%
X194980000Y-69470000D03*
%TO.P,U17,D1,VSSQ*%
X195780000Y-75870000D03*
%TO.P,U17,D2,DQ6*%
%TO.N,DDR_DQ6*%
X195780000Y-75070000D03*
%TO.P,U17,D3,~DQS~*%
%TO.N,DDR_DQS_N*%
X195780000Y-74270000D03*
%TO.P,U17,D7,VDD*%
%TO.N,VCCDDR_1.35V*%
X195780000Y-71070000D03*
%TO.P,U17,D8,VSS*%
%TO.N,GND*%
X195780000Y-70270000D03*
%TO.P,U17,D9,VSSQ*%
X195780000Y-69470000D03*
%TO.P,U17,E1,VREFDQ*%
%TO.N,VCCDDR_1.35V_VREF*%
X196580000Y-75870000D03*
%TO.P,U17,E2,VDDQ*%
%TO.N,VCCDDR_1.35V*%
X196580000Y-75070000D03*
%TO.P,U17,E3,DQ4*%
%TO.N,DDR_DQ4*%
X196580000Y-74270000D03*
%TO.P,U17,E7,DQ7*%
%TO.N,DDR_DQ7*%
X196580000Y-71070000D03*
%TO.P,U17,E8,DQ5*%
%TO.N,DDR_DQ5*%
X196580000Y-70270000D03*
%TO.P,U17,E9,VDDQ*%
%TO.N,VCCDDR_1.35V*%
X196580000Y-69470000D03*
%TO.P,U17,F1,NC*%
%TO.N,Net-(U17-PadF1)*%
X197380000Y-75870000D03*
%TO.P,U17,F2,VSS*%
%TO.N,GND*%
X197380000Y-75070000D03*
%TO.P,U17,F3,~RAS~*%
%TO.N,DDR_NRAS*%
X197380000Y-74270000D03*
%TO.P,U17,F7,CK*%
%TO.N,DDR_CK_P*%
X197380000Y-71070000D03*
%TO.P,U17,F8,VSS*%
%TO.N,GND*%
X197380000Y-70270000D03*
%TO.P,U17,F9,NC*%
%TO.N,Net-(U17-PadF9)*%
X197380000Y-69470000D03*
%TO.P,U17,G1,ODT*%
%TO.N,DDR_ODT*%
X198180000Y-75870000D03*
%TO.P,U17,G2,VDD*%
%TO.N,VCCDDR_1.35V*%
X198180000Y-75070000D03*
%TO.P,U17,G3,~CAS~*%
%TO.N,DDR_NCAS*%
X198180000Y-74270000D03*
%TO.P,U17,G7,~CK~*%
%TO.N,DDR_CK_N*%
X198180000Y-71070000D03*
%TO.P,U17,G8,VDD*%
%TO.N,VCCDDR_1.35V*%
X198180000Y-70270000D03*
%TO.P,U17,G9,CKE*%
%TO.N,DDR_CKE*%
X198180000Y-69470000D03*
%TO.P,U17,H1,NC*%
%TO.N,Net-(U17-PadH1)*%
X198980000Y-75870000D03*
%TO.P,U17,H2,~CS~*%
%TO.N,DDR_NCS*%
X198980000Y-75070000D03*
%TO.P,U17,H3,~WE~*%
%TO.N,DDR_NWE*%
X198980000Y-74270000D03*
%TO.P,U17,H7,A10/AP*%
%TO.N,DDR_A10*%
X198980000Y-71070000D03*
%TO.P,U17,H8,ZQ*%
%TO.N,Net-(R69-Pad1)*%
X198980000Y-70270000D03*
%TO.P,U17,H9,NC*%
%TO.N,Net-(U17-PadH9)*%
X198980000Y-69470000D03*
%TO.P,U17,J1,VSS*%
%TO.N,GND*%
X199780000Y-75870000D03*
%TO.P,U17,J2,BA0*%
%TO.N,DDR_BA0*%
X199780000Y-75070000D03*
%TO.P,U17,J3,BA2*%
%TO.N,DDR_BA2*%
X199780000Y-74270000D03*
%TO.P,U17,J7,A15*%
%TO.N,DDR_A15*%
X199780000Y-71070000D03*
%TO.P,U17,J8,VREFCA*%
%TO.N,VCCDDR_1.35V_VREF*%
X199780000Y-70270000D03*
%TO.P,U17,J9,VSS*%
%TO.N,GND*%
X199780000Y-69470000D03*
%TO.P,U17,K1,VDD*%
%TO.N,VCCDDR_1.35V*%
X200580000Y-75870000D03*
%TO.P,U17,K2,A3*%
%TO.N,DDR_A3*%
X200580000Y-75070000D03*
%TO.P,U17,K3,A0*%
%TO.N,DDR_A0*%
X200580000Y-74270000D03*
%TO.P,U17,K7,A12/~BC~*%
%TO.N,DDR_A12*%
X200580000Y-71070000D03*
%TO.P,U17,K8,BA1*%
%TO.N,DDR_BA1*%
X200580000Y-70270000D03*
%TO.P,U17,K9,VDD*%
%TO.N,VCCDDR_1.35V*%
X200580000Y-69470000D03*
%TO.P,U17,L1,VSS*%
%TO.N,GND*%
X201380000Y-75870000D03*
%TO.P,U17,L2,A5*%
%TO.N,DDR_A5*%
X201380000Y-75070000D03*
%TO.P,U17,L3,A2*%
%TO.N,DDR_A2*%
X201380000Y-74270000D03*
%TO.P,U17,L7,A1*%
%TO.N,DDR_A1*%
X201380000Y-71070000D03*
%TO.P,U17,L8,A4*%
%TO.N,DDR_A4*%
X201380000Y-70270000D03*
%TO.P,U17,L9,VSS*%
%TO.N,GND*%
X201380000Y-69470000D03*
%TO.P,U17,M1,VDD*%
%TO.N,VCCDDR_1.35V*%
X202180000Y-75870000D03*
%TO.P,U17,M2,A7*%
%TO.N,DDR_A7*%
X202180000Y-75070000D03*
%TO.P,U17,M3,A9*%
%TO.N,DDR_A9*%
X202180000Y-74270000D03*
%TO.P,U17,M7,A11*%
%TO.N,DDR_A11*%
X202180000Y-71070000D03*
%TO.P,U17,M8,A6*%
%TO.N,DDR_A6*%
X202180000Y-70270000D03*
%TO.P,U17,M9,VDD*%
%TO.N,VCCDDR_1.35V*%
X202180000Y-69470000D03*
%TO.P,U17,N1,VSS*%
%TO.N,GND*%
X202980000Y-75870000D03*
%TO.P,U17,N2,~RESET~*%
%TO.N,DDR_NRST*%
X202980000Y-75070000D03*
%TO.P,U17,N3,A13*%
%TO.N,DDR_A13*%
X202980000Y-74270000D03*
%TO.P,U17,N7,A14*%
%TO.N,DDR_A14*%
X202980000Y-71070000D03*
%TO.P,U17,N8,A8*%
%TO.N,DDR_A8*%
X202980000Y-70270000D03*
%TO.P,U17,N9,VSS*%
%TO.N,GND*%
X202980000Y-69470000D03*
%TD*%
%TO.P,R91,1*%
%TO.N,VCCDDR_1.35V_VREF*%
%TA.AperFunction,SMDPad,CuDef*%
G36*
G01*
X197856250Y-82112500D02*
X197343750Y-82112500D01*
G75*
G02*
X197125000Y-81893750I0J218750D01*
G01*
X197125000Y-81456250D01*
G75*
G02*
X197343750Y-81237500I218750J0D01*
G01*
X197856250Y-81237500D01*
G75*
G02*
X198075000Y-81456250I0J-218750D01*
G01*
X198075000Y-81893750D01*
G75*
G02*
X197856250Y-82112500I-218750J0D01*
G01*
G37*
%TD.AperFunction*%
%TO.P,R91,2*%
%TO.N,DDR_NCS*%
%TA.AperFunction,SMDPad,CuDef*%
G36*
G01*
X197856250Y-80537500D02*
X197343750Y-80537500D01*
G75*
G02*
X197125000Y-80318750I0J218750D01*
G01*
X197125000Y-79881250D01*
G75*
G02*
X197343750Y-79662500I218750J0D01*
G01*
X197856250Y-79662500D01*
G75*
G02*
X198075000Y-79881250I0J-218750D01*
G01*
X198075000Y-80318750D01*
G75*
G02*
X197856250Y-80537500I-218750J0D01*
G01*
G37*
%TD.AperFunction*%
%TD*%
%TO.P,R93,1*%
%TO.N,VCCDDR_1.35V_VREF*%
%TA.AperFunction,SMDPad,CuDef*%
G36*
G01*
X193331250Y-82150000D02*
X192818750Y-82150000D01*
G75*
G02*
X192600000Y-81931250I0J218750D01*
G01*
X192600000Y-81493750D01*
G75*
G02*
X192818750Y-81275000I218750J0D01*
G01*
X193331250Y-81275000D01*
G75*
G02*
X193550000Y-81493750I0J-218750D01*
G01*
X193550000Y-81931250D01*
G75*
G02*
X193331250Y-82150000I-218750J0D01*
G01*
G37*
%TD.AperFunction*%
%TO.P,R93,2*%
%TO.N,DDR_NWE*%
%TA.AperFunction,SMDPad,CuDef*%
G36*
G01*
X193331250Y-80575000D02*
X192818750Y-80575000D01*
G75*
G02*
X192600000Y-80356250I0J218750D01*
G01*
X192600000Y-79918750D01*
G75*
G02*
X192818750Y-79700000I218750J0D01*
G01*
X193331250Y-79700000D01*
G75*
G02*
X193550000Y-79918750I0J-218750D01*
G01*
X193550000Y-80356250D01*
G75*
G02*
X193331250Y-80575000I-218750J0D01*
G01*
G37*
%TD.AperFunction*%
%TD*%
%TO.P,R94,1*%
%TO.N,VCCDDR_1.35V_VREF*%
%TA.AperFunction,SMDPad,CuDef*%
G36*
G01*
X200831250Y-86812500D02*
X200318750Y-86812500D01*
G75*
G02*
X200100000Y-86593750I0J218750D01*
G01*
X200100000Y-86156250D01*
G75*
G02*
X200318750Y-85937500I218750J0D01*
G01*
X200831250Y-85937500D01*
G75*
G02*
X201050000Y-86156250I0J-218750D01*
G01*
X201050000Y-86593750D01*
G75*
G02*
X200831250Y-86812500I-218750J0D01*
G01*
G37*
%TD.AperFunction*%
%TO.P,R94,2*%
%TO.N,DDR_BA0*%
%TA.AperFunction,SMDPad,CuDef*%
G36*
G01*
X200831250Y-85237500D02*
X200318750Y-85237500D01*
G75*
G02*
X200100000Y-85018750I0J218750D01*
G01*
X200100000Y-84581250D01*
G75*
G02*
X200318750Y-84362500I218750J0D01*
G01*
X200831250Y-84362500D01*
G75*
G02*
X201050000Y-84581250I0J-218750D01*
G01*
X201050000Y-85018750D01*
G75*
G02*
X200831250Y-85237500I-218750J0D01*
G01*
G37*
%TD.AperFunction*%
%TD*%
%TO.P,R95,1*%
%TO.N,VCCDDR_1.35V_VREF*%
%TA.AperFunction,SMDPad,CuDef*%
G36*
G01*
X197856250Y-86812500D02*
X197343750Y-86812500D01*
G75*
G02*
X197125000Y-86593750I0J218750D01*
G01*
X197125000Y-86156250D01*
G75*
G02*
X197343750Y-85937500I218750J0D01*
G01*
X197856250Y-85937500D01*
G75*
G02*
X198075000Y-86156250I0J-218750D01*
G01*
X198075000Y-86593750D01*
G75*
G02*
X197856250Y-86812500I-218750J0D01*
G01*
G37*
%TD.AperFunction*%
%TO.P,R95,2*%
%TO.N,DDR_BA1*%
%TA.AperFunction,SMDPad,CuDef*%
G36*
G01*
X197856250Y-85237500D02*
X197343750Y-85237500D01*
G75*
G02*
X197125000Y-85018750I0J218750D01*
G01*
X197125000Y-84581250D01*
G75*
G02*
X197343750Y-84362500I218750J0D01*
G01*
X197856250Y-84362500D01*
G75*
G02*
X198075000Y-84581250I0J-218750D01*
G01*
X198075000Y-85018750D01*
G75*
G02*
X197856250Y-85237500I-218750J0D01*
G01*
G37*
%TD.AperFunction*%
%TD*%
%TO.P,R96,1*%
%TO.N,VCCDDR_1.35V_VREF*%
%TA.AperFunction,SMDPad,CuDef*%
G36*
G01*
X200856250Y-82112500D02*
X200343750Y-82112500D01*
G75*
G02*
X200125000Y-81893750I0J218750D01*
G01*
X200125000Y-81456250D01*
G75*
G02*
X200343750Y-81237500I218750J0D01*
G01*
X200856250Y-81237500D01*
G75*
G02*
X201075000Y-81456250I0J-218750D01*
G01*
X201075000Y-81893750D01*
G75*
G02*
X200856250Y-82112500I-218750J0D01*
G01*
G37*
%TD.AperFunction*%
%TO.P,R96,2*%
%TO.N,DDR_BA2*%
%TA.AperFunction,SMDPad,CuDef*%
G36*
G01*
X200856250Y-80537500D02*
X200343750Y-80537500D01*
G75*
G02*
X200125000Y-80318750I0J218750D01*
G01*
X200125000Y-79881250D01*
G75*
G02*
X200343750Y-79662500I218750J0D01*
G01*
X200856250Y-79662500D01*
G75*
G02*
X201075000Y-79881250I0J-218750D01*
G01*
X201075000Y-80318750D01*
G75*
G02*
X200856250Y-80537500I-218750J0D01*
G01*
G37*
%TD.AperFunction*%
%TD*%
D16*
%TO.P,U11,A1,IO_L1N_T0_AD4N_35*%
%TO.N,Net-(U11-PadA1)*%
X166600000Y-65800000D03*
%TO.P,U11,A2,GND*%
%TO.N,GND*%
X166600000Y-64800000D03*
%TO.P,U11,A3,GND*%
X166600000Y-63800000D03*
%TO.P,U11,A4,MGTPTXN0_216*%
%TO.N,Net-(C59-Pad1)*%
X166600000Y-62800000D03*
%TO.P,U11,A5,GND*%
%TO.N,GND*%
X166600000Y-61800000D03*
%TO.P,U11,A6,MGTPTXN2_216*%
%TO.N,Net-(C61-Pad1)*%
X166600000Y-60800000D03*
%TO.P,U11,A7,GND*%
%TO.N,GND*%
X166600000Y-59800000D03*
%TO.P,U11,A8,MGTPRXN0_216*%
%TO.N,MGTPRX0_N*%
X166600000Y-58800000D03*
%TO.P,U11,A9,GND*%
%TO.N,GND*%
X166600000Y-57800000D03*
%TO.P,U11,A10,MGTPRXN2_216*%
%TO.N,MGTPRX2_N*%
X166600000Y-56800000D03*
%TO.P,U11,A11,GND*%
%TO.N,GND*%
X166600000Y-55800000D03*
%TO.P,U11,A12,GND*%
X166600000Y-54800000D03*
%TO.P,U11,A13,IO_L10P_T1_16*%
%TO.N,/fpga-io/b16_10_P*%
X166600000Y-53800000D03*
%TO.P,U11,A14,IO_L10N_T1_16*%
%TO.N,/fpga-io/b16_10_N*%
X166600000Y-52800000D03*
%TO.P,U11,A15,IO_L9P_T1_DQS_16*%
%TO.N,/fpga-io/b16_9_P*%
X166600000Y-51800000D03*
%TO.P,U11,A16,IO_L9N_T1_DQS_16*%
%TO.N,/fpga-io/b16_9_N*%
X166600000Y-50800000D03*
%TO.P,U11,A17,VCCO_16*%
%TO.N,VCCFPGA_S1_VARIABLE_V2*%
X166600000Y-49800000D03*
%TO.P,U11,A18,IO_L17P_T2_16*%
%TO.N,/fpga-io/b16_17_P*%
X166600000Y-48800000D03*
%TO.P,U11,A19,IO_L17N_T2_16*%
%TO.N,/fpga-io/b16_17_N*%
X166600000Y-47800000D03*
%TO.P,U11,A20,IO_L16N_T2_16*%
%TO.N,/fpga-io/b16_16_N*%
X166600000Y-46800000D03*
%TO.P,U11,A21,IO_L21N_T3_DQS_16*%
%TO.N,/fpga-io/b16_21_N*%
X166600000Y-45800000D03*
%TO.P,U11,A22,GND*%
%TO.N,GND*%
X166600000Y-44800000D03*
%TO.P,U11,AA1,IO_L7P_T1_34*%
%TO.N,DDR_A10*%
X186600000Y-65800000D03*
%TO.P,U11,AA2,GND*%
%TO.N,GND*%
X186600000Y-64800000D03*
%TO.P,U11,AA3,IO_L9N_T1_DQS_34*%
%TO.N,DDR_TDQS_N*%
X186600000Y-63800000D03*
%TO.P,U11,AA4,IO_L11N_T1_SRCC_34*%
%TO.N,DDR_A1*%
X186600000Y-62800000D03*
%TO.P,U11,AA5,IO_L10P_T1_34*%
%TO.N,DDR_A4*%
X186600000Y-61800000D03*
%TO.P,U11,AA6,IO_L18N_T2_34*%
%TO.N,DDR_A0*%
X186600000Y-60800000D03*
%TO.P,U11,AA7,VCCO_34*%
%TO.N,VCCDDR_1.35V*%
X186600000Y-59800000D03*
%TO.P,U11,AA8,IO_L22P_T3_34*%
%TO.N,DDR_NRST*%
X186600000Y-58800000D03*
%TO.P,U11,AA9,IO_L8P_T1_13*%
%TO.N,Net-(U11-PadAA9)*%
X186600000Y-57800000D03*
%TO.P,U11,AA10,IO_L9P_T1_DQS_13*%
%TO.N,Net-(U11-PadAA10)*%
X186600000Y-56800000D03*
%TO.P,U11,AA11,IO_L9N_T1_DQS_13*%
%TO.N,Net-(U11-PadAA11)*%
X186600000Y-55800000D03*
%TO.P,U11,AA12,GND*%
%TO.N,GND*%
X186600000Y-54800000D03*
%TO.P,U11,AA13,IO_L3P_T0_DQS_13*%
%TO.N,Net-(U11-PadAA13)*%
X186600000Y-53800000D03*
%TO.P,U11,AA14,IO_L5N_T0_13*%
%TO.N,Net-(U11-PadAA14)*%
X186600000Y-52800000D03*
%TO.P,U11,AA15,IO_L4P_T0_13*%
%TO.N,Net-(U11-PadAA15)*%
X186600000Y-51800000D03*
%TO.P,U11,AA16,IO_L1N_T0_13*%
%TO.N,Net-(U11-PadAA16)*%
X186600000Y-50800000D03*
%TO.P,U11,AA17,VCCO_13*%
%TO.N,VCCFPGA_S1_VARIABLE_V1*%
X186600000Y-49800000D03*
%TO.P,U11,AA18,IO_L17P_T2_A14_D30_14*%
%TO.N,Net-(RN4-Pad6)*%
X186600000Y-48800000D03*
%TO.P,U11,AA19,IO_L15P_T2_DQS_RDWR_B_14*%
%TO.N,Net-(RN3-Pad6)*%
X186600000Y-47800000D03*
%TO.P,U11,AA20,IO_L8P_T1_D11_14*%
%TO.N,Net-(RN8-Pad7)*%
X186600000Y-46800000D03*
%TO.P,U11,AA21,IO_L8N_T1_D12_14*%
%TO.N,Net-(RN8-Pad6)*%
X186600000Y-45800000D03*
%TO.P,U11,AA22,GND*%
%TO.N,GND*%
X186600000Y-44800000D03*
%TO.P,U11,AB1,IO_L7N_T1_34*%
%TO.N,DDR_A15*%
X187600000Y-65800000D03*
%TO.P,U11,AB2,IO_L8N_T1_34*%
%TO.N,DDR_A12*%
X187600000Y-64800000D03*
%TO.P,U11,AB3,IO_L8P_T1_34*%
%TO.N,DDR_BA0*%
X187600000Y-63800000D03*
%TO.P,U11,AB4,VCCO_34*%
%TO.N,VCCDDR_1.35V*%
X187600000Y-62800000D03*
%TO.P,U11,AB5,IO_L10N_T1_34*%
%TO.N,DDR_A6*%
X187600000Y-61800000D03*
%TO.P,U11,AB6,IO_L20N_T3_34*%
%TO.N,DDR_A14*%
X187600000Y-60800000D03*
%TO.P,U11,AB7,IO_L20P_T3_34*%
%TO.N,DDR_A2*%
X187600000Y-59800000D03*
%TO.P,U11,AB8,IO_L22N_T3_34*%
%TO.N,DDR_CKE*%
X187600000Y-58800000D03*
%TO.P,U11,AB9,GND*%
%TO.N,GND*%
X187600000Y-57800000D03*
%TO.P,U11,AB10,IO_L8N_T1_13*%
%TO.N,Net-(U11-PadAB10)*%
X187600000Y-56800000D03*
%TO.P,U11,AB11,IO_L7P_T1_13*%
%TO.N,Net-(U11-PadAB11)*%
X187600000Y-55800000D03*
%TO.P,U11,AB12,IO_L7N_T1_13*%
%TO.N,Net-(U11-PadAB12)*%
X187600000Y-54800000D03*
%TO.P,U11,AB13,IO_L3N_T0_DQS_13*%
%TO.N,Net-(U11-PadAB13)*%
X187600000Y-53800000D03*
%TO.P,U11,AB14,VCCO_13*%
%TO.N,VCCFPGA_S1_VARIABLE_V1*%
X187600000Y-52800000D03*
%TO.P,U11,AB15,IO_L4N_T0_13*%
%TO.N,Net-(U11-PadAB15)*%
X187600000Y-51800000D03*
%TO.P,U11,AB16,IO_L2P_T0_13*%
%TO.N,Net-(U11-PadAB16)*%
X187600000Y-50800000D03*
%TO.P,U11,AB17,IO_L2N_T0_13*%
%TO.N,Net-(U11-PadAB17)*%
X187600000Y-49800000D03*
%TO.P,U11,AB18,IO_L17N_T2_A13_D29_14*%
%TO.N,Net-(RN4-Pad5)*%
X187600000Y-48800000D03*
%TO.P,U11,AB19,GND*%
%TO.N,GND*%
X187600000Y-47800000D03*
%TO.P,U11,AB20,IO_L15N_T2_DQS_DOUT_CSO_B_14*%
%TO.N,Net-(RN3-Pad5)*%
X187600000Y-46800000D03*
%TO.P,U11,AB21,IO_L10P_T1_D14_14*%
%TO.N,Net-(RN1-Pad7)*%
X187600000Y-45800000D03*
%TO.P,U11,AB22,IO_L10N_T1_D15_14*%
%TO.N,Net-(RN1-Pad6)*%
X187600000Y-44800000D03*
%TO.P,U11,B1,IO_L1P_T0_AD4P_35*%
%TO.N,Net-(U11-PadB1)*%
X167600000Y-65800000D03*
%TO.P,U11,B2,IO_L2N_T0_AD12N_35*%
%TO.N,Net-(U11-PadB2)*%
X167600000Y-64800000D03*
%TO.P,U11,B3,GND*%
%TO.N,GND*%
X167600000Y-63800000D03*
%TO.P,U11,B4,MGTPTXP0_216*%
%TO.N,Net-(C53-Pad1)*%
X167600000Y-62800000D03*
%TO.P,U11,B5,MGTAVTT*%
%TO.N,VCCFPGA_S1_MGT*%
X167600000Y-61800000D03*
%TO.P,U11,B6,MGTPTXP2_216*%
%TO.N,Net-(C55-Pad1)*%
X167600000Y-60800000D03*
%TO.P,U11,B7,MGTAVTT*%
%TO.N,VCCFPGA_S1_MGT*%
X167600000Y-59800000D03*
%TO.P,U11,B8,MGTPRXP0_216*%
%TO.N,MGTPRX0_P*%
X167600000Y-58800000D03*
%TO.P,U11,B9,MGTAVTT*%
%TO.N,VCCFPGA_S1_MGT*%
X167600000Y-57800000D03*
%TO.P,U11,B10,MGTPRXP2_216*%
%TO.N,MGTPRX2_P*%
X167600000Y-56800000D03*
%TO.P,U11,B11,MGTAVTT*%
%TO.N,VCCFPGA_S1_MGT*%
X167600000Y-55800000D03*
%TO.P,U11,B12,GND*%
%TO.N,GND*%
X167600000Y-54800000D03*
%TO.P,U11,B13,IO_L8N_T1_16*%
%TO.N,/fpga-io/b16_8_N*%
X167600000Y-53800000D03*
%TO.P,U11,B14,VCCO_16*%
%TO.N,VCCFPGA_S1_VARIABLE_V2*%
X167600000Y-52800000D03*
%TO.P,U11,B15,IO_L7P_T1_16*%
%TO.N,/fpga-io/b16_7_P*%
X167600000Y-51800000D03*
%TO.P,U11,B16,IO_L7N_T1_16*%
%TO.N,/fpga-io/b16_7_N*%
X167600000Y-50800000D03*
%TO.P,U11,B17,IO_L11P_T1_SRCC_16*%
%TO.N,/fpga-io/b16_11_P*%
X167600000Y-49800000D03*
%TO.P,U11,B18,IO_L11N_T1_SRCC_16*%
%TO.N,/fpga-io/b16_11_N*%
X167600000Y-48800000D03*
%TO.P,U11,B19,GND*%
%TO.N,GND*%
X167600000Y-47800000D03*
%TO.P,U11,B20,IO_L16P_T2_16*%
%TO.N,/fpga-io/b16_16_P*%
X167600000Y-46800000D03*
%TO.P,U11,B21,IO_L21P_T3_DQS_16*%
%TO.N,/fpga-io/b16_21_P*%
X167600000Y-45800000D03*
%TO.P,U11,B22,IO_L20N_T3_16*%
%TO.N,/fpga-io/b16_20_N*%
X167600000Y-44800000D03*
%TO.P,U11,C1,VCCO_35*%
%TO.N,VCCFPGA_S1_VARIABLE_V4*%
X168600000Y-65800000D03*
%TO.P,U11,C2,IO_L2P_T0_AD12P_35*%
%TO.N,Net-(U11-PadC2)*%
X168600000Y-64800000D03*
%TO.P,U11,C3,GND*%
%TO.N,GND*%
X168600000Y-63800000D03*
%TO.P,U11,C4,MGTAVTT*%
%TO.N,VCCFPGA_S1_MGT*%
X168600000Y-62800000D03*
%TO.P,U11,C5,MGTPTXN1_216*%
%TO.N,Net-(C60-Pad1)*%
X168600000Y-61800000D03*
%TO.P,U11,C6,GND*%
%TO.N,GND*%
X168600000Y-60800000D03*
%TO.P,U11,C7,MGTPTXN3_216*%
%TO.N,Net-(C62-Pad1)*%
X168600000Y-59800000D03*
%TO.P,U11,C8,MGTAVTT*%
%TO.N,VCCFPGA_S1_MGT*%
X168600000Y-58800000D03*
%TO.P,U11,C9,MGTPRXN3_216*%
%TO.N,MGTPRX3_N*%
X168600000Y-57800000D03*
%TO.P,U11,C10,GND*%
%TO.N,GND*%
X168600000Y-56800000D03*
%TO.P,U11,C11,MGTPRXN1_216*%
%TO.N,MGTPRX1_N*%
X168600000Y-55800000D03*
%TO.P,U11,C12,GND*%
%TO.N,GND*%
X168600000Y-54800000D03*
%TO.P,U11,C13,IO_L8P_T1_16*%
%TO.N,/fpga-io/b16_8_P*%
X168600000Y-53800000D03*
%TO.P,U11,C14,IO_L3P_T0_DQS_16*%
%TO.N,/fpga-io/b16_3_P*%
X168600000Y-52800000D03*
%TO.P,U11,C15,IO_L3N_T0_DQS_16*%
%TO.N,/fpga-io/b16_3_N*%
X168600000Y-51800000D03*
%TO.P,U11,C16,GND*%
%TO.N,GND*%
X168600000Y-50800000D03*
%TO.P,U11,C17,IO_L12N_T1_MRCC_16*%
%TO.N,/fpga-io/b16_12_N*%
X168600000Y-49800000D03*
%TO.P,U11,C18,IO_L13P_T2_MRCC_16*%
%TO.N,/fpga-io/b16_13_P*%
X168600000Y-48800000D03*
%TO.P,U11,C19,IO_L13N_T2_MRCC_16*%
%TO.N,/fpga-io/b16_13_N*%
X168600000Y-47800000D03*
%TO.P,U11,C20,IO_L19N_T3_VREF_16*%
%TO.N,VCCFPGA_S1_VREF_V2*%
X168600000Y-46800000D03*
%TO.P,U11,C21,VCCO_16*%
%TO.N,VCCFPGA_S1_VARIABLE_V2*%
X168600000Y-45800000D03*
%TO.P,U11,C22,IO_L20P_T3_16*%
%TO.N,/fpga-io/b16_20_P*%
X168600000Y-44800000D03*
%TO.P,U11,D1,IO_L3N_T0_DQS_AD5N_35*%
%TO.N,Net-(U11-PadD1)*%
X169600000Y-65800000D03*
%TO.P,U11,D2,IO_L4N_T0_35*%
%TO.N,Net-(U11-PadD2)*%
X169600000Y-64800000D03*
%TO.P,U11,D3,GND*%
%TO.N,GND*%
X169600000Y-63800000D03*
%TO.P,U11,D4,GND*%
X169600000Y-62800000D03*
%TO.P,U11,D5,MGTPTXP1_216*%
%TO.N,Net-(C54-Pad1)*%
X169600000Y-61800000D03*
%TO.P,U11,D6,MGTAVCC*%
%TO.N,VCCBRAM*%
X169600000Y-60800000D03*
%TO.P,U11,D7,MGTPTXP3_216*%
%TO.N,Net-(C56-Pad1)*%
X169600000Y-59800000D03*
%TO.P,U11,D8,GND*%
%TO.N,GND*%
X169600000Y-58800000D03*
%TO.P,U11,D9,MGTPRXP3_216*%
%TO.N,MGTPRX3_P*%
X169600000Y-57800000D03*
%TO.P,U11,D10,MGTAVCC*%
%TO.N,VCCBRAM*%
X169600000Y-56800000D03*
%TO.P,U11,D11,MGTPRXP1_216*%
%TO.N,MGTPRX1_P*%
X169600000Y-55800000D03*
%TO.P,U11,D12,GND*%
%TO.N,GND*%
X169600000Y-54800000D03*
%TO.P,U11,D13,GND*%
X169600000Y-53800000D03*
%TO.P,U11,D14,IO_L6P_T0_16*%
%TO.N,Net-(J28-Pad35)*%
X169600000Y-52800000D03*
%TO.P,U11,D15,IO_L6N_T0_VREF_16*%
%TO.N,VCCFPGA_S1_VREF_V2*%
X169600000Y-51800000D03*
%TO.P,U11,D16,IO_L5N_T0_16*%
%TO.N,/fpga-io/b16_5_N*%
X169600000Y-50800000D03*
%TO.P,U11,D17,IO_L12P_T1_MRCC_16*%
%TO.N,/fpga-io/b16_12_P*%
X169600000Y-49800000D03*
%TO.P,U11,D18,VCCO_16*%
%TO.N,VCCFPGA_S1_VARIABLE_V2*%
X169600000Y-48800000D03*
%TO.P,U11,D19,IO_L14N_T2_SRCC_16*%
%TO.N,/fpga-io/b16_14_N*%
X169600000Y-47800000D03*
%TO.P,U11,D20,IO_L19P_T3_16*%
%TO.N,Net-(J28-Pad45)*%
X169600000Y-46800000D03*
%TO.P,U11,D21,IO_L23N_T3_16*%
%TO.N,/fpga-io/b16_23_N*%
X169600000Y-45800000D03*
%TO.P,U11,D22,IO_L22N_T3_16*%
%TO.N,/fpga-io/b16_22_N*%
X169600000Y-44800000D03*
%TO.P,U11,E1,IO_L3P_T0_DQS_AD5P_35*%
%TO.N,Net-(U11-PadE1)*%
X170600000Y-65800000D03*
%TO.P,U11,E2,IO_L4P_T0_35*%
%TO.N,Net-(U11-PadE2)*%
X170600000Y-64800000D03*
%TO.P,U11,E3,IO_L6N_T0_VREF_35*%
%TO.N,Net-(U11-PadE3)*%
X170600000Y-63800000D03*
%TO.P,U11,E4,GND*%
%TO.N,GND*%
X170600000Y-62800000D03*
%TO.P,U11,E5,GND*%
X170600000Y-61800000D03*
%TO.P,U11,E6,MGTREFCLK0N_216*%
%TO.N,Net-(C63-Pad1)*%
X170600000Y-60800000D03*
%TO.P,U11,E7,GND*%
%TO.N,GND*%
X170600000Y-59800000D03*
%TO.P,U11,E8,MGTAVCC*%
%TO.N,VCCBRAM*%
X170600000Y-58800000D03*
%TO.P,U11,E9,GND*%
%TO.N,GND*%
X170600000Y-57800000D03*
%TO.P,U11,E10,MGTREFCLK1N_216*%
%TO.N,Net-(C64-Pad1)*%
X170600000Y-56800000D03*
%TO.P,U11,E11,GND*%
%TO.N,GND*%
X170600000Y-55800000D03*
%TO.P,U11,E12,VCCBATT_0*%
%TO.N,VCCAUX*%
X170600000Y-54800000D03*
%TO.P,U11,E13,IO_L4P_T0_16*%
%TO.N,/fpga-io/b16_4_P*%
X170600000Y-53800000D03*
%TO.P,U11,E14,IO_L4N_T0_16*%
%TO.N,/fpga-io/b16_4_N*%
X170600000Y-52800000D03*
%TO.P,U11,E15,VCCO_16*%
%TO.N,VCCFPGA_S1_VARIABLE_V2*%
X170600000Y-51800000D03*
%TO.P,U11,E16,IO_L5P_T0_16*%
%TO.N,/fpga-io/b16_5_P*%
X170600000Y-50800000D03*
%TO.P,U11,E17,IO_L2N_T0_16*%
%TO.N,/fpga-io/b16_2_N*%
X170600000Y-49800000D03*
%TO.P,U11,E18,IO_L15N_T2_DQS_16*%
%TO.N,/fpga-io/b16_15_N*%
X170600000Y-48800000D03*
%TO.P,U11,E19,IO_L14P_T2_SRCC_16*%
%TO.N,/fpga-io/b16_14_P*%
X170600000Y-47800000D03*
%TO.P,U11,E20,GND*%
%TO.N,GND*%
X170600000Y-46800000D03*
%TO.P,U11,E21,IO_L23P_T3_16*%
%TO.N,/fpga-io/b16_23_P*%
X170600000Y-45800000D03*
%TO.P,U11,E22,IO_L22P_T3_16*%
%TO.N,/fpga-io/b16_22_P*%
X170600000Y-44800000D03*
%TO.P,U11,F1,IO_L5N_T0_AD13N_35*%
%TO.N,Net-(U11-PadF1)*%
X171600000Y-65800000D03*
%TO.P,U11,F2,VCCO_35*%
%TO.N,VCCFPGA_S1_VARIABLE_V4*%
X171600000Y-64800000D03*
%TO.P,U11,F3,IO_L6P_T0_35*%
%TO.N,Net-(U11-PadF3)*%
X171600000Y-63800000D03*
%TO.P,U11,F4,IO_0_35*%
%TO.N,Net-(U11-PadF4)*%
X171600000Y-62800000D03*
%TO.P,U11,F5,GND*%
%TO.N,GND*%
X171600000Y-61800000D03*
%TO.P,U11,F6,MGTREFCLK0P_216*%
%TO.N,Net-(C57-Pad1)*%
X171600000Y-60800000D03*
%TO.P,U11,F7,MGTAVCC*%
%TO.N,VCCBRAM*%
X171600000Y-59800000D03*
%TO.P,U11,F8,MGTRREF_216*%
%TO.N,Net-(R48-Pad2)*%
X171600000Y-58800000D03*
%TO.P,U11,F9,MGTAVCC*%
%TO.N,VCCBRAM*%
X171600000Y-57800000D03*
%TO.P,U11,F10,MGTREFCLK1P_216*%
%TO.N,Net-(C58-Pad1)*%
X171600000Y-56800000D03*
%TO.P,U11,F11,GND*%
%TO.N,GND*%
X171600000Y-55800000D03*
%TO.P,U11,F12,VCCO_0*%
%TO.N,VCCFPGA_S1_VCCO_CONFIG*%
X171600000Y-54800000D03*
%TO.P,U11,F13,IO_L1P_T0_16*%
%TO.N,/fpga-io/b16_1_P*%
X171600000Y-53800000D03*
%TO.P,U11,F14,IO_L1N_T0_16*%
%TO.N,/fpga-io/b16_1_N*%
X171600000Y-52800000D03*
%TO.P,U11,F15,IO_0_16*%
%TO.N,Net-(J28-Pad70)*%
X171600000Y-51800000D03*
%TO.P,U11,F16,IO_L2P_T0_16*%
%TO.N,/fpga-io/b16_2_P*%
X171600000Y-50800000D03*
%TO.P,U11,F17,GND*%
%TO.N,GND*%
X171600000Y-49800000D03*
%TO.P,U11,F18,IO_L15P_T2_DQS_16*%
%TO.N,/fpga-io/b16_15_P*%
X171600000Y-48800000D03*
%TO.P,U11,F19,IO_L18P_T2_16*%
%TO.N,/fpga-io/b16_18_P*%
X171600000Y-47800000D03*
%TO.P,U11,F20,IO_L18N_T2_16*%
%TO.N,/fpga-io/b16_18_N*%
X171600000Y-46800000D03*
%TO.P,U11,F21,IO_25_16*%
%TO.N,Net-(J28-Pad38)*%
X171600000Y-45800000D03*
%TO.P,U11,F22,VCCO_16*%
%TO.N,VCCFPGA_S1_VARIABLE_V2*%
X171600000Y-44800000D03*
%TO.P,U11,G1,IO_L5P_T0_AD13P_35*%
%TO.N,Net-(U11-PadG1)*%
X172600000Y-65800000D03*
%TO.P,U11,G2,IO_L8N_T1_AD14N_35*%
%TO.N,Net-(U11-PadG2)*%
X172600000Y-64800000D03*
%TO.P,U11,G3,IO_L11N_T1_SRCC_35*%
%TO.N,sys_clk_N*%
X172600000Y-63800000D03*
%TO.P,U11,G4,IO_L12N_T1_MRCC_35*%
X172600000Y-62800000D03*
%TO.P,U11,G5,GND*%
%TO.N,GND*%
X172600000Y-61800000D03*
%TO.P,U11,G6,GND*%
X172600000Y-60800000D03*
%TO.P,U11,G7,GND*%
X172600000Y-59800000D03*
%TO.P,U11,G8,GND*%
X172600000Y-58800000D03*
%TO.P,U11,G9,GND*%
X172600000Y-57800000D03*
%TO.P,U11,G10,GND*%
X172600000Y-56800000D03*
%TO.P,U11,G11,DONE_0*%
%TO.N,Net-(R61-Pad2)*%
X172600000Y-55800000D03*
%TO.P,U11,G12,GND*%
%TO.N,GND*%
X172600000Y-54800000D03*
%TO.P,U11,G13,IO_L1N_T0_AD0N_15*%
%TO.N,/fpga-io/b15_1_N*%
X172600000Y-53800000D03*
%TO.P,U11,G14,GND*%
%TO.N,GND*%
X172600000Y-52800000D03*
%TO.P,U11,G15,IO_L2P_T0_AD8P_15*%
%TO.N,/fpga-io/b15_2_P*%
X172600000Y-51800000D03*
%TO.P,U11,G16,IO_L2N_T0_AD8N_15*%
%TO.N,/fpga-io/b15_2_N*%
X172600000Y-50800000D03*
%TO.P,U11,G17,IO_L4P_T0_15*%
%TO.N,/fpga-io/b15_4_P*%
X172600000Y-49800000D03*
%TO.P,U11,G18,IO_L4N_T0_15*%
%TO.N,/fpga-io/b15_4_N*%
X172600000Y-48800000D03*
%TO.P,U11,G19,VCCO_15*%
%TO.N,VCCFPGA_S1_VARIABLE_V3*%
X172600000Y-47800000D03*
%TO.P,U11,G20,IO_L8N_T1_AD10N_15*%
%TO.N,/fpga-io/b15_8_N*%
X172600000Y-46800000D03*
%TO.P,U11,G21,IO_L24P_T3_16*%
%TO.N,Net-(U11-PadG21)*%
X172600000Y-45800000D03*
%TO.P,U11,G22,IO_L24N_T3_16*%
%TO.N,Net-(U11-PadG22)*%
X172600000Y-44800000D03*
%TO.P,U11,H1,GND*%
%TO.N,GND*%
X173600000Y-65800000D03*
%TO.P,U11,H2,IO_L8P_T1_AD14P_35*%
%TO.N,Net-(U11-PadH2)*%
X173600000Y-64800000D03*
%TO.P,U11,H3,IO_L11P_T1_SRCC_35*%
%TO.N,sys_clk_P*%
X173600000Y-63800000D03*
%TO.P,U11,H4,IO_L12P_T1_MRCC_35*%
%TO.N,clk_ref_P*%
X173600000Y-62800000D03*
%TO.P,U11,H5,IO_L10N_T1_AD15N_35*%
%TO.N,Net-(U11-PadH5)*%
X173600000Y-61800000D03*
%TO.P,U11,H6,VCCO_35*%
%TO.N,VCCFPGA_S1_VARIABLE_V4*%
X173600000Y-60800000D03*
%TO.P,U11,H7,GND*%
%TO.N,GND*%
X173600000Y-59800000D03*
%TO.P,U11,H8,VCCINT*%
%TO.N,VCCBRAM*%
X173600000Y-58800000D03*
%TO.P,U11,H9,GND*%
%TO.N,GND*%
X173600000Y-57800000D03*
%TO.P,U11,H10,VCCINT*%
%TO.N,VCCBRAM*%
X173600000Y-56800000D03*
%TO.P,U11,H11,GND*%
%TO.N,GND*%
X173600000Y-55800000D03*
%TO.P,U11,H12,VCCAUX*%
%TO.N,VCCAUX*%
X173600000Y-54800000D03*
%TO.P,U11,H13,IO_L1P_T0_AD0P_15*%
%TO.N,/fpga-io/b15_1_P*%
X173600000Y-53800000D03*
%TO.P,U11,H14,IO_L3N_T0_DQS_AD1N_15*%
%TO.N,/fpga-io/b15_3_N*%
X173600000Y-52800000D03*
%TO.P,U11,H15,IO_L5N_T0_AD9N_15*%
%TO.N,/fpga-io/b15_5_N*%
X173600000Y-51800000D03*
%TO.P,U11,H16,VCCO_15*%
%TO.N,VCCFPGA_S1_VARIABLE_V3*%
X173600000Y-50800000D03*
%TO.P,U11,H17,IO_L6P_T0_15*%
%TO.N,Net-(J25-Pad35)*%
X173600000Y-49800000D03*
%TO.P,U11,H18,IO_L6N_T0_VREF_15*%
%TO.N,VCCFPGA_S1_VREF_V3*%
X173600000Y-48800000D03*
%TO.P,U11,H19,IO_L12N_T1_MRCC_15*%
%TO.N,/fpga-io/b15_12_N*%
X173600000Y-47800000D03*
%TO.P,U11,H20,IO_L8P_T1_AD10P_15*%
%TO.N,/fpga-io/b15_8_P*%
X173600000Y-46800000D03*
%TO.P,U11,H21,GND*%
%TO.N,GND*%
X173600000Y-45800000D03*
%TO.P,U11,H22,IO_L7N_T1_AD2N_15*%
%TO.N,/fpga-io/b15_7_N*%
X173600000Y-44800000D03*
%TO.P,U11,J1,IO_L7N_T1_AD6N_35*%
%TO.N,Net-(U11-PadJ1)*%
X174600000Y-65800000D03*
%TO.P,U11,J2,IO_L9N_T1_DQS_AD7N_35*%
%TO.N,Net-(U11-PadJ2)*%
X174600000Y-64800000D03*
%TO.P,U11,J3,VCCO_35*%
%TO.N,VCCFPGA_S1_VARIABLE_V4*%
X174600000Y-63800000D03*
%TO.P,U11,J4,IO_L13N_T2_MRCC_35*%
%TO.N,Net-(U11-PadJ4)*%
X174600000Y-62800000D03*
%TO.P,U11,J5,IO_L10P_T1_AD15P_35*%
%TO.N,Net-(U11-PadJ5)*%
X174600000Y-61800000D03*
%TO.P,U11,J6,IO_L17N_T2_35*%
%TO.N,Net-(U11-PadJ6)*%
X174600000Y-60800000D03*
%TO.P,U11,J7,VCCINT*%
%TO.N,VCCBRAM*%
X174600000Y-59800000D03*
%TO.P,U11,J8,GND*%
%TO.N,GND*%
X174600000Y-58800000D03*
%TO.P,U11,J9,VCCINT*%
%TO.N,VCCBRAM*%
X174600000Y-57800000D03*
%TO.P,U11,J10,GND*%
%TO.N,GND*%
X174600000Y-56800000D03*
%TO.P,U11,J11,VCCBRAM*%
%TO.N,VCCBRAM*%
X174600000Y-55800000D03*
%TO.P,U11,J12,GND*%
%TO.N,GND*%
X174600000Y-54800000D03*
%TO.P,U11,J13,VCCO_15*%
%TO.N,VCCFPGA_S1_VARIABLE_V3*%
X174600000Y-53800000D03*
%TO.P,U11,J14,IO_L3P_T0_DQS_AD1P_15*%
%TO.N,/fpga-io/b15_3_P*%
X174600000Y-52800000D03*
%TO.P,U11,J15,IO_L5P_T0_AD9P_15*%
%TO.N,/fpga-io/b15_5_P*%
X174600000Y-51800000D03*
%TO.P,U11,J16,IO_0_15*%
%TO.N,Net-(J25-Pad70)*%
X174600000Y-50800000D03*
%TO.P,U11,J17,IO_L21N_T3_DQS_A18_15*%
%TO.N,/fpga-io/b15_21_N*%
X174600000Y-49800000D03*
%TO.P,U11,J18,GND*%
%TO.N,GND*%
X174600000Y-48800000D03*
%TO.P,U11,J19,IO_L12P_T1_MRCC_15*%
%TO.N,/fpga-io/b15_12_P*%
X174600000Y-47800000D03*
%TO.P,U11,J20,IO_L11P_T1_SRCC_15*%
%TO.N,/fpga-io/b15_11_P*%
X174600000Y-46800000D03*
%TO.P,U11,J21,IO_L11N_T1_SRCC_15*%
%TO.N,/fpga-io/b15_11_N*%
X174600000Y-45800000D03*
%TO.P,U11,J22,IO_L7P_T1_AD2P_15*%
%TO.N,/fpga-io/b15_7_P*%
X174600000Y-44800000D03*
%TO.P,U11,K1,IO_L7P_T1_AD6P_35*%
%TO.N,Net-(U11-PadK1)*%
X175600000Y-65800000D03*
%TO.P,U11,K2,IO_L9P_T1_DQS_AD7P_35*%
%TO.N,Net-(U11-PadK2)*%
X175600000Y-64800000D03*
%TO.P,U11,K3,IO_L14N_T2_SRCC_35*%
%TO.N,Net-(U11-PadK3)*%
X175600000Y-63800000D03*
%TO.P,U11,K4,IO_L13P_T2_MRCC_35*%
%TO.N,Net-(U11-PadK4)*%
X175600000Y-62800000D03*
%TO.P,U11,K5,GND*%
%TO.N,GND*%
X175600000Y-61800000D03*
%TO.P,U11,K6,IO_L17P_T2_35*%
%TO.N,Net-(U11-PadK6)*%
X175600000Y-60800000D03*
%TO.P,U11,K7,GND*%
%TO.N,GND*%
X175600000Y-59800000D03*
%TO.P,U11,K8,VCCINT*%
%TO.N,VCCBRAM*%
X175600000Y-58800000D03*
%TO.P,U11,K9,GNDADC_0*%
%TO.N,GND*%
X175600000Y-57800000D03*
%TO.P,U11,K10,VCCADC_0*%
%TO.N,VCCAUX*%
X175600000Y-56800000D03*
%TO.P,U11,K11,GND*%
%TO.N,GND*%
X175600000Y-55800000D03*
%TO.P,U11,K12,VCCAUX*%
%TO.N,VCCAUX*%
X175600000Y-54800000D03*
%TO.P,U11,K13,IO_L19P_T3_A22_15*%
%TO.N,Net-(J25-Pad45)*%
X175600000Y-53800000D03*
%TO.P,U11,K14,IO_L19N_T3_A21_VREF_15*%
%TO.N,VCCFPGA_S1_VREF_V3*%
X175600000Y-52800000D03*
%TO.P,U11,K15,GND*%
%TO.N,GND*%
X175600000Y-51800000D03*
%TO.P,U11,K16,IO_L23N_T3_FWE_B_15*%
%TO.N,/fpga-io/b15_23_N*%
X175600000Y-50800000D03*
%TO.P,U11,K17,IO_L21P_T3_DQS_15*%
%TO.N,/fpga-io/b15_21_P*%
X175600000Y-49800000D03*
%TO.P,U11,K18,IO_L13P_T2_MRCC_15*%
%TO.N,/fpga-io/b15_13_P*%
X175600000Y-48800000D03*
%TO.P,U11,K19,IO_L13N_T2_MRCC_15*%
%TO.N,/fpga-io/b15_13_N*%
X175600000Y-47800000D03*
%TO.P,U11,K20,VCCO_15*%
%TO.N,VCCFPGA_S1_VARIABLE_V3*%
X175600000Y-46800000D03*
%TO.P,U11,K21,IO_L9P_T1_DQS_AD3P_15*%
%TO.N,/fpga-io/b15_9_P*%
X175600000Y-45800000D03*
%TO.P,U11,K22,IO_L9N_T1_DQS_AD3N_15*%
%TO.N,/fpga-io/b15_9_N*%
X175600000Y-44800000D03*
%TO.P,U11,L1,IO_L15N_T2_DQS_35*%
%TO.N,Net-(U11-PadL1)*%
X176600000Y-65800000D03*
%TO.P,U11,L2,GND*%
%TO.N,GND*%
X176600000Y-64800000D03*
%TO.P,U11,L3,IO_L14P_T2_SRCC_35*%
%TO.N,Net-(U11-PadL3)*%
X176600000Y-63800000D03*
%TO.P,U11,L4,IO_L18N_T2_35*%
%TO.N,Net-(U11-PadL4)*%
X176600000Y-62800000D03*
%TO.P,U11,L5,IO_L18P_T2_35*%
%TO.N,Net-(U11-PadL5)*%
X176600000Y-61800000D03*
%TO.P,U11,L6,IO_25_35*%
%TO.N,Net-(U11-PadL6)*%
X176600000Y-60800000D03*
%TO.P,U11,L7,VCCINT*%
%TO.N,VCCBRAM*%
X176600000Y-59800000D03*
%TO.P,U11,L8,GND*%
%TO.N,GND*%
X176600000Y-58800000D03*
%TO.P,U11,L9,VREFN_0*%
X176600000Y-57800000D03*
%TO.P,U11,L10,VP_0*%
%TO.N,Net-(R52-Pad2)*%
X176600000Y-56800000D03*
%TO.P,U11,L11,VCCBRAM*%
%TO.N,VCCBRAM*%
X176600000Y-55800000D03*
%TO.P,U11,L12,CCLK_0*%
%TO.N,FLASH_CONFIG_CLK*%
X176600000Y-54800000D03*
%TO.P,U11,L13,IO_L20N_T3_A19_15*%
%TO.N,/fpga-io/b15_20_N*%
X176600000Y-53800000D03*
%TO.P,U11,L14,IO_L22P_T3_A17_15*%
%TO.N,/fpga-io/b15_22_P*%
X176600000Y-52800000D03*
%TO.P,U11,L15,IO_L22N_T3_A16_15*%
%TO.N,/fpga-io/b15_22_N*%
X176600000Y-51800000D03*
%TO.P,U11,L16,IO_L23P_T3_FOE_B_15*%
%TO.N,/fpga-io/b15_23_P*%
X176600000Y-50800000D03*
%TO.P,U11,L17,VCCO_15*%
%TO.N,VCCFPGA_S1_VARIABLE_V3*%
X176600000Y-49800000D03*
%TO.P,U11,L18,IO_L16N_T2_A27_15*%
%TO.N,/fpga-io/b15_16_N*%
X176600000Y-48800000D03*
%TO.P,U11,L19,IO_L14P_T2_SRCC_15*%
%TO.N,/fpga-io/b15_14_P*%
X176600000Y-47800000D03*
%TO.P,U11,L20,IO_L14N_T2_SRCC_15*%
%TO.N,/fpga-io/b15_14_N*%
X176600000Y-46800000D03*
%TO.P,U11,L21,IO_L10N_T1_AD11N_15*%
%TO.N,/fpga-io/b15_10_N*%
X176600000Y-45800000D03*
%TO.P,U11,L22,GND*%
%TO.N,GND*%
X176600000Y-44800000D03*
%TO.P,U11,M1,IO_L15P_T2_DQS_35*%
%TO.N,Net-(U11-PadM1)*%
X177600000Y-65800000D03*
%TO.P,U11,M2,IO_L16N_T2_35*%
%TO.N,Net-(U11-PadM2)*%
X177600000Y-64800000D03*
%TO.P,U11,M3,IO_L16P_T2_35*%
%TO.N,Net-(U11-PadM3)*%
X177600000Y-63800000D03*
%TO.P,U11,M4,VCCO_35*%
%TO.N,VCCFPGA_S1_VARIABLE_V4*%
X177600000Y-62800000D03*
%TO.P,U11,M5,IO_L23N_T3_35*%
%TO.N,Net-(U11-PadM5)*%
X177600000Y-61800000D03*
%TO.P,U11,M6,IO_L23P_T3_35*%
%TO.N,Net-(U11-PadM6)*%
X177600000Y-60800000D03*
%TO.P,U11,M7,GND*%
%TO.N,GND*%
X177600000Y-59800000D03*
%TO.P,U11,M8,VCCINT*%
%TO.N,VCCBRAM*%
X177600000Y-58800000D03*
%TO.P,U11,M9,VN_0*%
%TO.N,Net-(R53-Pad2)*%
X177600000Y-57800000D03*
%TO.P,U11,M10,VREFP_0*%
%TO.N,GND*%
X177600000Y-56800000D03*
%TO.P,U11,M11,GND*%
X177600000Y-55800000D03*
%TO.P,U11,M12,VCCAUX*%
%TO.N,VCCAUX*%
X177600000Y-54800000D03*
%TO.P,U11,M13,IO_L20P_T3_A20_15*%
%TO.N,/fpga-io/b15_20_P*%
X177600000Y-53800000D03*
%TO.P,U11,M14,VCCO_14*%
%TO.N,VCCFPGA_S1_VCCO_CONFIG*%
X177600000Y-52800000D03*
%TO.P,U11,M15,IO_L24P_T3_RS1_15*%
%TO.N,Net-(U11-PadM15)*%
X177600000Y-51800000D03*
%TO.P,U11,M16,IO_L24N_T3_RS0_15*%
%TO.N,Net-(U11-PadM16)*%
X177600000Y-50800000D03*
%TO.P,U11,M17,IO_25_15*%
%TO.N,Net-(J25-Pad38)*%
X177600000Y-49800000D03*
%TO.P,U11,M18,IO_L16P_T2_A28_15*%
%TO.N,/fpga-io/b15_16_P*%
X177600000Y-48800000D03*
%TO.P,U11,M19,GND*%
%TO.N,GND*%
X177600000Y-47800000D03*
%TO.P,U11,M20,IO_L18N_T2_A23_15*%
%TO.N,/fpga-io/b15_18_N*%
X177600000Y-46800000D03*
%TO.P,U11,M21,IO_L10P_T1_AD11P_15*%
%TO.N,/fpga-io/b15_10_P*%
X177600000Y-45800000D03*
%TO.P,U11,M22,IO_L15N_T2_DQS_ADV_B_15*%
%TO.N,/fpga-io/b15_15_N*%
X177600000Y-44800000D03*
%TO.P,U11,N1,VCCO_35*%
%TO.N,VCCFPGA_S1_VARIABLE_V4*%
X178600000Y-65800000D03*
%TO.P,U11,N2,IO_L22N_T3_35*%
%TO.N,Net-(U11-PadN2)*%
X178600000Y-64800000D03*
%TO.P,U11,N3,IO_L19N_T3_VREF_35*%
%TO.N,VCCFPGA_S1_VREF_V4*%
X178600000Y-63800000D03*
%TO.P,U11,N4,IO_L19P_T3_35*%
%TO.N,Net-(U11-PadN4)*%
X178600000Y-62800000D03*
%TO.P,U11,N5,IO_L24N_T3_35*%
%TO.N,FPGA_SER_RX*%
X178600000Y-61800000D03*
%TO.P,U11,N6,GND*%
%TO.N,GND*%
X178600000Y-60800000D03*
%TO.P,U11,N7,VCCINT*%
%TO.N,VCCBRAM*%
X178600000Y-59800000D03*
%TO.P,U11,N8,GND*%
%TO.N,GND*%
X178600000Y-58800000D03*
%TO.P,U11,N9,DXN_0*%
%TO.N,Net-(U11-PadN9)*%
X178600000Y-57800000D03*
%TO.P,U11,N10,DXP_0*%
%TO.N,Net-(U11-PadN10)*%
X178600000Y-56800000D03*
%TO.P,U11,N11,VCCBRAM*%
%TO.N,VCCBRAM*%
X178600000Y-55800000D03*
%TO.P,U11,N12,PROGRAM_B_0*%
%TO.N,Net-(R51-Pad2)*%
X178600000Y-54800000D03*
%TO.P,U11,N13,IO_L23P_T3_A03_D19_14*%
%TO.N,PE_DAS_MGT*%
X178600000Y-53800000D03*
%TO.P,U11,N14,IO_L23N_T3_A02_D18_14*%
%TO.N,PE_NCLKREQ_MGT*%
X178600000Y-52800000D03*
%TO.P,U11,N15,IO_25_14*%
%TO.N,PE_PEDET_MGT*%
X178600000Y-51800000D03*
%TO.P,U11,N16,GND*%
%TO.N,GND*%
X178600000Y-50800000D03*
%TO.P,U11,N17,IO_L21P_T3_DQS_14*%
%TO.N,Net-(RN6-Pad7)*%
X178600000Y-49800000D03*
%TO.P,U11,N18,IO_L17P_T2_A26_15*%
%TO.N,/fpga-io/b15_17_P*%
X178600000Y-48800000D03*
%TO.P,U11,N19,IO_L17N_T2_A25_15*%
%TO.N,/fpga-io/b15_17_N*%
X178600000Y-47800000D03*
%TO.P,U11,N20,IO_L18P_T2_A24_15*%
%TO.N,/fpga-io/b15_18_P*%
X178600000Y-46800000D03*
%TO.P,U11,N21,VCCO_15*%
%TO.N,VCCFPGA_S1_VARIABLE_V3*%
X178600000Y-45800000D03*
%TO.P,U11,N22,IO_L15P_T2_DQS_15*%
%TO.N,/fpga-io/b15_15_P*%
X178600000Y-44800000D03*
%TO.P,U11,P1,IO_L20N_T3_35*%
%TO.N,Net-(U11-PadP1)*%
X179600000Y-65800000D03*
%TO.P,U11,P2,IO_L22P_T3_35*%
%TO.N,Net-(U11-PadP2)*%
X179600000Y-64800000D03*
%TO.P,U11,P3,GND*%
%TO.N,GND*%
X179600000Y-63800000D03*
%TO.P,U11,P4,IO_L21N_T3_DQS_35*%
%TO.N,Net-(U11-PadP4)*%
X179600000Y-62800000D03*
%TO.P,U11,P5,IO_L21P_T3_DQS_35*%
%TO.N,Net-(U11-PadP5)*%
X179600000Y-61800000D03*
%TO.P,U11,P6,IO_L24P_T3_35*%
%TO.N,FPGA_SER_TX*%
X179600000Y-60800000D03*
%TO.P,U11,P7,GND*%
%TO.N,GND*%
X179600000Y-59800000D03*
%TO.P,U11,P8,VCCINT*%
%TO.N,VCCBRAM*%
X179600000Y-58800000D03*
%TO.P,U11,P9,GND*%
%TO.N,GND*%
X179600000Y-57800000D03*
%TO.P,U11,P10,VCCINT*%
%TO.N,VCCBRAM*%
X179600000Y-56800000D03*
%TO.P,U11,P11,GND*%
%TO.N,GND*%
X179600000Y-55800000D03*
%TO.P,U11,P12,VCCAUX*%
%TO.N,VCCAUX*%
X179600000Y-54800000D03*
%TO.P,U11,P13,GND*%
%TO.N,GND*%
X179600000Y-53800000D03*
%TO.P,U11,P14,IO_L19P_T3_A10_D26_14*%
%TO.N,Net-(RN5-Pad6)*%
X179600000Y-52800000D03*
%TO.P,U11,P15,IO_L22P_T3_A05_D21_14*%
%TO.N,Net-(RN6-Pad5)*%
X179600000Y-51800000D03*
%TO.P,U11,P16,IO_L24P_T3_A01_D17_14*%
%TO.N,PE_DEVSLP_MGT*%
X179600000Y-50800000D03*
%TO.P,U11,P17,IO_L21N_T3_DQS_A06_D22_14*%
%TO.N,Net-(RN6-Pad6)*%
X179600000Y-49800000D03*
%TO.P,U11,P18,VCCO_14*%
%TO.N,VCCFPGA_S1_VCCO_CONFIG*%
X179600000Y-48800000D03*
%TO.P,U11,P19,IO_L5P_T0_D06_14*%
%TO.N,Net-(RN7-Pad7)*%
X179600000Y-47800000D03*
%TO.P,U11,P20,IO_0_14*%
%TO.N,PE_SUSCLK_MGT*%
X179600000Y-46800000D03*
%TO.P,U11,P21,IO_L2P_T0_D02_14*%
%TO.N,FLASH_CONFIG_IO_2*%
X179600000Y-45800000D03*
%TO.P,U11,P22,IO_L1P_T0_D00_MOSI_14*%
%TO.N,FLASH_CONFIG_IO_0*%
X179600000Y-44800000D03*
%TO.P,U11,R1,IO_L20P_T3_35*%
%TO.N,Net-(U11-PadR1)*%
X180600000Y-65800000D03*
%TO.P,U11,R2,IO_L3N_T0_DQS_34*%
%TO.N,DDR_DQS_N*%
X180600000Y-64800000D03*
%TO.P,U11,R3,IO_L3P_T0_DQS_34*%
%TO.N,DDR_DQS_P*%
X180600000Y-63800000D03*
%TO.P,U11,R4,IO_L13P_T2_MRCC_34*%
%TO.N,DDR_A11*%
X180600000Y-62800000D03*
%TO.P,U11,R5,VCCO_34*%
%TO.N,VCCDDR_1.35V*%
X180600000Y-61800000D03*
%TO.P,U11,R6,IO_L17P_T2_34*%
%TO.N,Net-(U11-PadR6)*%
X180600000Y-60800000D03*
%TO.P,U11,R7,VCCINT*%
%TO.N,VCCBRAM*%
X180600000Y-59800000D03*
%TO.P,U11,R8,GND*%
%TO.N,GND*%
X180600000Y-58800000D03*
%TO.P,U11,R9,VCCINT*%
%TO.N,VCCBRAM*%
X180600000Y-57800000D03*
%TO.P,U11,R10,GND*%
%TO.N,GND*%
X180600000Y-56800000D03*
%TO.P,U11,R11,VCCAUX*%
%TO.N,VCCAUX*%
X180600000Y-55800000D03*
%TO.P,U11,R12,GND*%
%TO.N,GND*%
X180600000Y-54800000D03*
%TO.P,U11,R13,TDI_0*%
%TO.N,Net-(D5-Pad1)*%
X180600000Y-53800000D03*
%TO.P,U11,R14,IO_L19N_T3_A09_D25_VREF_14*%
%TO.N,VCCFPGA_S1_VCCO_1.8v*%
X180600000Y-52800000D03*
%TO.P,U11,R15,VCCO_14*%
%TO.N,VCCFPGA_S1_VCCO_CONFIG*%
X180600000Y-51800000D03*
%TO.P,U11,R16,IO_L22N_T3_A04_D20_14*%
%TO.N,PE_NWAKE_MGT*%
X180600000Y-50800000D03*
%TO.P,U11,R17,IO_L24N_T3_A00_D16_14*%
%TO.N,PE_NRST_MGT*%
X180600000Y-49800000D03*
%TO.P,U11,R18,IO_L20P_T3_A08_D24_14*%
%TO.N,Net-(RN5-Pad5)*%
X180600000Y-48800000D03*
%TO.P,U11,R19,IO_L5N_T0_D07_14*%
%TO.N,Net-(RN7-Pad6)*%
X180600000Y-47800000D03*
%TO.P,U11,R20,GND*%
%TO.N,GND*%
X180600000Y-46800000D03*
%TO.P,U11,R21,IO_L2N_T0_D03_14*%
%TO.N,FLASH_CONFIG_IO_3*%
X180600000Y-45800000D03*
%TO.P,U11,R22,IO_L1N_T0_D01_DIN_14*%
%TO.N,FLASH_CONFIG_IO_1*%
X180600000Y-44800000D03*
%TO.P,U11,T1,IO_L1P_T0_34*%
%TO.N,DDR_NRAS*%
X181600000Y-65800000D03*
%TO.P,U11,T2,VCCO_34*%
%TO.N,VCCDDR_1.35V*%
X181600000Y-64800000D03*
%TO.P,U11,T3,IO_0_34*%
%TO.N,DDR_NCAS*%
X181600000Y-63800000D03*
%TO.P,U11,T4,IO_L13N_T2_MRCC_34*%
%TO.N,DDR_A8*%
X181600000Y-62800000D03*
%TO.P,U11,T5,IO_L14P_T2_SRCC_34*%
%TO.N,DDR_NCS*%
X181600000Y-61800000D03*
%TO.P,U11,T6,IO_L17N_T2_34*%
%TO.N,Net-(U11-PadT6)*%
X181600000Y-60800000D03*
%TO.P,U11,T7,GND*%
%TO.N,GND*%
X181600000Y-59800000D03*
%TO.P,U11,T8,VCCINT*%
%TO.N,VCCBRAM*%
X181600000Y-58800000D03*
%TO.P,U11,T9,GND*%
%TO.N,GND*%
X181600000Y-57800000D03*
%TO.P,U11,T10,VCCINT*%
%TO.N,VCCBRAM*%
X181600000Y-56800000D03*
%TO.P,U11,T11,GND*%
%TO.N,GND*%
X181600000Y-55800000D03*
%TO.P,U11,T12,VCCO_0*%
%TO.N,VCCFPGA_S1_VCCO_CONFIG*%
X181600000Y-54800000D03*
%TO.P,U11,T13,TMS_0*%
%TO.N,Net-(D7-Pad1)*%
X181600000Y-53800000D03*
%TO.P,U11,T14,IO_L15P_T2_DQS_13*%
%TO.N,Net-(U11-PadT14)*%
X181600000Y-52800000D03*
%TO.P,U11,T15,IO_L15N_T2_DQS_13*%
%TO.N,Net-(U11-PadT15)*%
X181600000Y-51800000D03*
%TO.P,U11,T16,IO_L17P_T2_13*%
%TO.N,Net-(U11-PadT16)*%
X181600000Y-50800000D03*
%TO.P,U11,T17,GND*%
%TO.N,GND*%
X181600000Y-49800000D03*
%TO.P,U11,T18,IO_L20N_T3_A07_D23_14*%
%TO.N,Net-(RN6-Pad8)*%
X181600000Y-48800000D03*
%TO.P,U11,T19,IO_L6P_T0_FCS_B_14*%
%TO.N,FLASH_CONFIG_CS*%
X181600000Y-47800000D03*
%TO.P,U11,T20,IO_L6N_T0_D08_VREF_14*%
%TO.N,VCCFPGA_S1_VCCO_1.8v*%
X181600000Y-46800000D03*
%TO.P,U11,T21,IO_L4P_T0_D04_14*%
%TO.N,VTRANS_OE*%
X181600000Y-45800000D03*
%TO.P,U11,T22,VCCO_14*%
%TO.N,VCCFPGA_S1_VCCO_CONFIG*%
X181600000Y-44800000D03*
%TO.P,U11,U1,IO_L1N_T0_34*%
%TO.N,DDR_DQ2*%
X182600000Y-65800000D03*
%TO.P,U11,U2,IO_L2P_T0_34*%
%TO.N,DDR_DQ6*%
X182600000Y-64800000D03*
%TO.P,U11,U3,IO_L6P_T0_34*%
%TO.N,DDR_DQ4*%
X182600000Y-63800000D03*
%TO.P,U11,U4,GND*%
%TO.N,GND*%
X182600000Y-62800000D03*
%TO.P,U11,U5,IO_L14N_T2_SRCC_34*%
%TO.N,DDR_NWE*%
X182600000Y-61800000D03*
%TO.P,U11,U6,IO_L16P_T2_34*%
%TO.N,Net-(U11-PadU6)*%
X182600000Y-60800000D03*
%TO.P,U11,U7,IO_25_34*%
%TO.N,DDR_A3*%
X182600000Y-59800000D03*
%TO.P,U11,U8,CFGBVS_0*%
%TO.N,GND*%
X182600000Y-58800000D03*
%TO.P,U11,U9,M2_0*%
%TO.N,/fgpa-logic/m2*%
X182600000Y-57800000D03*
%TO.P,U11,U10,M1_0*%
%TO.N,/fgpa-logic/m1*%
X182600000Y-56800000D03*
%TO.P,U11,U11,M0_0*%
%TO.N,/fgpa-logic/m0*%
X182600000Y-55800000D03*
%TO.P,U11,U12,INIT_B_0*%
%TO.N,Net-(R50-Pad2)*%
X182600000Y-54800000D03*
%TO.P,U11,U13,TDO_0*%
%TO.N,Net-(D6-Pad1)*%
X182600000Y-53800000D03*
%TO.P,U11,U14,GND*%
%TO.N,GND*%
X182600000Y-52800000D03*
%TO.P,U11,U15,IO_L14P_T2_SRCC_13*%
%TO.N,Net-(U11-PadU15)*%
X182600000Y-51800000D03*
%TO.P,U11,U16,IO_L17N_T2_13*%
%TO.N,Net-(U11-PadU16)*%
X182600000Y-50800000D03*
%TO.P,U11,U17,IO_L18P_T2_A12_D28_14*%
%TO.N,Net-(RN5-Pad8)*%
X182600000Y-49800000D03*
%TO.P,U11,U18,IO_L18N_T2_A11_D27_14*%
%TO.N,Net-(RN5-Pad7)*%
X182600000Y-48800000D03*
%TO.P,U11,U19,VCCO_14*%
%TO.N,VCCFPGA_S1_VCCO_CONFIG*%
X182600000Y-47800000D03*
%TO.P,U11,U20,IO_L11P_T1_SRCC_14*%
%TO.N,Net-(RN1-Pad5)*%
X182600000Y-46800000D03*
%TO.P,U11,U21,IO_L4N_T0_D05_14*%
%TO.N,Net-(RN7-Pad8)*%
X182600000Y-45800000D03*
%TO.P,U11,U22,IO_L3P_T0_DQS_PUDC_B_14*%
%TO.N,VCCFPGA_S1_VCCO_1.8v*%
X182600000Y-44800000D03*
%TO.P,U11,V1,GND*%
%TO.N,GND*%
X183600000Y-65800000D03*
%TO.P,U11,V2,IO_L2N_T0_34*%
%TO.N,DDR_DQ0*%
X183600000Y-64800000D03*
%TO.P,U11,V3,IO_L6N_T0_VREF_34*%
%TO.N,DDR_ODT*%
X183600000Y-63800000D03*
%TO.P,U11,V4,IO_L12P_T1_MRCC_34*%
%TO.N,DDR_BA2*%
X183600000Y-62800000D03*
%TO.P,U11,V5,IO_L16N_T2_34*%
%TO.N,Net-(U11-PadV5)*%
X183600000Y-61800000D03*
%TO.P,U11,V6,VCCO_34*%
%TO.N,VCCDDR_1.35V*%
X183600000Y-60800000D03*
%TO.P,U11,V7,IO_L19P_T3_34*%
%TO.N,DDR_A5*%
X183600000Y-59800000D03*
%TO.P,U11,V8,IO_L21N_T3_DQS_34*%
%TO.N,Net-(U11-PadV8)*%
X183600000Y-58800000D03*
%TO.P,U11,V9,IO_L21P_T3_DQS_34*%
%TO.N,Net-(U11-PadV9)*%
X183600000Y-57800000D03*
%TO.P,U11,V10,IO_L10P_T1_13*%
%TO.N,Net-(U11-PadV10)*%
X183600000Y-56800000D03*
%TO.P,U11,V11,GND*%
%TO.N,GND*%
X183600000Y-55800000D03*
%TO.P,U11,V12,TCK_0*%
%TO.N,Net-(D8-Pad1)*%
X183600000Y-54800000D03*
%TO.P,U11,V13,IO_L13P_T2_MRCC_13*%
%TO.N,Net-(U11-PadV13)*%
X183600000Y-53800000D03*
%TO.P,U11,V14,IO_L13N_T2_MRCC_13*%
%TO.N,Net-(U11-PadV14)*%
X183600000Y-52800000D03*
%TO.P,U11,V15,IO_L14N_T2_SRCC_13*%
%TO.N,Net-(U11-PadV15)*%
X183600000Y-51800000D03*
%TO.P,U11,V16,VCCO_13*%
%TO.N,VCCFPGA_S1_VARIABLE_V1*%
X183600000Y-50800000D03*
%TO.P,U11,V17,IO_L16P_T2_CSI_B_14*%
%TO.N,Net-(RN4-Pad8)*%
X183600000Y-49800000D03*
%TO.P,U11,V18,IO_L14P_T2_SRCC_14*%
%TO.N,Net-(RN3-Pad8)*%
X183600000Y-48800000D03*
%TO.P,U11,V19,IO_L14N_T2_SRCC_14*%
%TO.N,Net-(RN3-Pad7)*%
X183600000Y-47800000D03*
%TO.P,U11,V20,IO_L11N_T1_SRCC_14*%
%TO.N,Net-(RN2-Pad8)*%
X183600000Y-46800000D03*
%TO.P,U11,V21,GND*%
%TO.N,GND*%
X183600000Y-45800000D03*
%TO.P,U11,V22,IO_L3N_T0_DQS_EMCCLK_14*%
%TO.N,Net-(R46-Pad2)*%
X183600000Y-44800000D03*
%TO.P,U11,W1,IO_L5P_T0_34*%
%TO.N,DDR_DQ7*%
X184600000Y-65800000D03*
%TO.P,U11,W2,IO_L4P_T0_34*%
%TO.N,DDR_DQ5*%
X184600000Y-64800000D03*
%TO.P,U11,W3,VCCO_34*%
%TO.N,VCCDDR_1.35V*%
X184600000Y-63800000D03*
%TO.P,U11,W4,IO_L12N_T1_MRCC_34*%
%TO.N,DDR_BA1*%
X184600000Y-62800000D03*
%TO.P,U11,W5,IO_L15N_T2_DQS_34*%
%TO.N,DDR_CK_N*%
X184600000Y-61800000D03*
%TO.P,U11,W6,IO_L15P_T2_DQS_34*%
%TO.N,DDR_CK_P*%
X184600000Y-60800000D03*
%TO.P,U11,W7,IO_L19N_T3_VREF_34*%
%TO.N,DDR_A7*%
X184600000Y-59800000D03*
%TO.P,U11,W8,GND*%
%TO.N,GND*%
X184600000Y-58800000D03*
%TO.P,U11,W9,IO_L24P_T3_34*%
%TO.N,Net-(U11-PadW9)*%
X184600000Y-57800000D03*
%TO.P,U11,W10,IO_L10N_T1_13*%
%TO.N,Net-(U11-PadW10)*%
X184600000Y-56800000D03*
%TO.P,U11,W11,IO_L12P_T1_MRCC_13*%
%TO.N,Net-(U11-PadW11)*%
X184600000Y-55800000D03*
%TO.P,U11,W12,IO_L12N_T1_MRCC_13*%
%TO.N,Net-(U11-PadW12)*%
X184600000Y-54800000D03*
%TO.P,U11,W13,VCCO_13*%
%TO.N,VCCFPGA_S1_VARIABLE_V1*%
X184600000Y-53800000D03*
%TO.P,U11,W14,IO_L6P_T0_13*%
%TO.N,Net-(U11-PadW14)*%
X184600000Y-52800000D03*
%TO.P,U11,W15,IO_L16P_T2_13*%
%TO.N,Net-(U11-PadW15)*%
X184600000Y-51800000D03*
%TO.P,U11,W16,IO_L16N_T2_13*%
%TO.N,Net-(U11-PadW16)*%
X184600000Y-50800000D03*
%TO.P,U11,W17,IO_L16N_T2_A15_D31_14*%
%TO.N,Net-(RN4-Pad7)*%
X184600000Y-49800000D03*
%TO.P,U11,W18,GND*%
%TO.N,GND*%
X184600000Y-48800000D03*
%TO.P,U11,W19,IO_L12P_T1_MRCC_14*%
%TO.N,FPGA-CLK-100*%
X184600000Y-47800000D03*
%TO.P,U11,W20,IO_L12N_T1_MRCC_14*%
%TO.N,Net-(RN2-Pad7)*%
X184600000Y-46800000D03*
%TO.P,U11,W21,IO_L7P_T1_D09_14*%
%TO.N,Net-(RN7-Pad5)*%
X184600000Y-45800000D03*
%TO.P,U11,W22,IO_L7N_T1_D10_14*%
%TO.N,Net-(RN8-Pad8)*%
X184600000Y-44800000D03*
%TO.P,U11,Y1,IO_L5N_T0_34*%
%TO.N,DDR_DQ1*%
X185600000Y-65800000D03*
%TO.P,U11,Y2,IO_L4N_T0_34*%
%TO.N,DDR_DQ3*%
X185600000Y-64800000D03*
%TO.P,U11,Y3,IO_L9P_T1_DQS_34*%
%TO.N,DDR_TDQS_P*%
X185600000Y-63800000D03*
%TO.P,U11,Y4,IO_L11P_T1_SRCC_34*%
%TO.N,Net-(U11-PadY4)*%
X185600000Y-62800000D03*
%TO.P,U11,Y5,GND*%
%TO.N,GND*%
X185600000Y-61800000D03*
%TO.P,U11,Y6,IO_L18P_T2_34*%
%TO.N,DDR_A9*%
X185600000Y-60800000D03*
%TO.P,U11,Y7,IO_L23N_T3_34*%
%TO.N,DDR_A13*%
X185600000Y-59800000D03*
%TO.P,U11,Y8,IO_L23P_T3_34*%
%TO.N,Net-(U11-PadY8)*%
X185600000Y-58800000D03*
%TO.P,U11,Y9,IO_L24N_T3_34*%
%TO.N,Net-(U11-PadY9)*%
X185600000Y-57800000D03*
%TO.P,U11,Y10,VCCO_13*%
%TO.N,VCCFPGA_S1_VARIABLE_V1*%
X185600000Y-56800000D03*
%TO.P,U11,Y11,IO_L11P_T1_SRCC_13*%
%TO.N,Net-(U11-PadY11)*%
X185600000Y-55800000D03*
%TO.P,U11,Y12,IO_L11N_T1_SRCC_13*%
%TO.N,Net-(U11-PadY12)*%
X185600000Y-54800000D03*
%TO.P,U11,Y13,IO_L5P_T0_13*%
%TO.N,Net-(U11-PadY13)*%
X185600000Y-53800000D03*
%TO.P,U11,Y14,IO_L6N_T0_VREF_13*%
%TO.N,VCCFPGA_S1_VREF_V1*%
X185600000Y-52800000D03*
%TO.P,U11,Y15,GND*%
%TO.N,GND*%
X185600000Y-51800000D03*
%TO.P,U11,Y16,IO_L1P_T0_13*%
%TO.N,Net-(U11-PadY16)*%
X185600000Y-50800000D03*
%TO.P,U11,Y17,IO_0_13*%
%TO.N,Net-(U11-PadY17)*%
X185600000Y-49800000D03*
%TO.P,U11,Y18,IO_L13P_T2_MRCC_14*%
%TO.N,Net-(RN2-Pad6)*%
X185600000Y-48800000D03*
%TO.P,U11,Y19,IO_L13N_T2_MRCC_14*%
%TO.N,Net-(RN2-Pad5)*%
X185600000Y-47800000D03*
%TO.P,U11,Y20,VCCO_14*%
%TO.N,VCCFPGA_S1_VCCO_CONFIG*%
X185600000Y-46800000D03*
%TO.P,U11,Y21,IO_L9P_T1_DQS_14*%
%TO.N,Net-(RN8-Pad5)*%
X185600000Y-45800000D03*
%TO.P,U11,Y22,IO_L9N_T1_DQS_D13_14*%
%TO.N,Net-(RN1-Pad8)*%
X185600000Y-44800000D03*
%TD*%
D17*
%TO.N,GND*%
X188480000Y-66790000D03*
X183080000Y-63330000D03*
X176040000Y-60290000D03*
X201380000Y-68930000D03*
X203070000Y-68840000D03*
X187500000Y-79800000D03*
X216721033Y-76275000D03*
X199725000Y-77325000D03*
X192770000Y-70290000D03*
X215596033Y-74575000D03*
X196160000Y-69880000D03*
X216196033Y-75350000D03*
X186100000Y-61200000D03*
X195800000Y-76410000D03*
X190000000Y-54000000D03*
X201300000Y-77300000D03*
X183590000Y-66410000D03*
X175070000Y-61330000D03*
%TO.N,VCCDDR_1.35V*%
X202180000Y-76400000D03*
X196210000Y-72350000D03*
X196180000Y-75460000D03*
X200580000Y-68930000D03*
X185110000Y-64310000D03*
X202180000Y-68930000D03*
X180140000Y-61340000D03*
X196160000Y-69070000D03*
X192820000Y-75090000D03*
X200425000Y-78225000D03*
X198590000Y-70670000D03*
X194980000Y-76420000D03*
X188040000Y-63300000D03*
X192780000Y-69450000D03*
X182110000Y-65290000D03*
X184200000Y-60300000D03*
%TO.N,+5V*%
X220600000Y-84800000D03*
%TO.N,VCCDDR_1.35V_VREF*%
X196800000Y-83275000D03*
X192730102Y-87625000D03*
X194730102Y-87625000D03*
X203730102Y-87625000D03*
X210900000Y-83275000D03*
X197670000Y-83290000D03*
X199900000Y-83275000D03*
X213730102Y-87625000D03*
X200730102Y-87625000D03*
X196730102Y-87625000D03*
X198730102Y-87625000D03*
X192750000Y-83650000D03*
X201730102Y-87625000D03*
X210730102Y-87625000D03*
X195730102Y-87625000D03*
X209900000Y-83275000D03*
X212730102Y-87625000D03*
X208730102Y-87625000D03*
X204875000Y-83275000D03*
X193975000Y-83275000D03*
X199730102Y-87625000D03*
X204730102Y-87625000D03*
X211730102Y-87625000D03*
X195350000Y-83275000D03*
X206730102Y-87625000D03*
X203875000Y-83275000D03*
X208675000Y-83275000D03*
X205730102Y-87625000D03*
X207730102Y-87625000D03*
X205875000Y-83275000D03*
X201675000Y-83275000D03*
X211900000Y-83275000D03*
X198900000Y-83275000D03*
X202730102Y-87625000D03*
X200775000Y-83275000D03*
X209730102Y-87625000D03*
X207350000Y-83275000D03*
X197730102Y-87625000D03*
X191730102Y-87625000D03*
X193730102Y-87625000D03*
X202725000Y-83275000D03*
%TO.N,Net-(R42-Pad1)*%
X212330102Y-84825000D03*
X216330102Y-80125000D03*
%TO.N,DDR_NWE*%
X183110000Y-61310000D03*
X198970000Y-73850000D03*
X193000000Y-80900000D03*
%TO.N,DDR_NRAS*%
X197370000Y-73850000D03*
X180990000Y-66270000D03*
X195300000Y-79300000D03*
%TO.N,DDR_A0*%
X199100000Y-85550000D03*
X200570000Y-73850000D03*
X187100000Y-60270000D03*
%TO.N,DDR_A1*%
X205575000Y-80875000D03*
X200980000Y-70670000D03*
X187090000Y-63280000D03*
%TO.N,DDR_A2*%
X188400000Y-59369999D03*
X201750000Y-79100000D03*
X201370000Y-73850000D03*
%TO.N,DDR_A3*%
X200180000Y-74660000D03*
X200750000Y-79100000D03*
X183110000Y-59280000D03*
%TO.N,DDR_A4*%
X201780000Y-69870000D03*
X206500000Y-85550000D03*
X187100000Y-61190000D03*
%TO.N,DDR_A5*%
X184100000Y-59290000D03*
X200970000Y-74670000D03*
X202050000Y-85650000D03*
%TO.N,DDR_A6*%
X207500000Y-80850000D03*
X201780000Y-70670000D03*
X188130000Y-61260000D03*
%TO.N,DDR_A7*%
X185100000Y-59280000D03*
X203525000Y-85575000D03*
X201780000Y-74660000D03*
%TO.N,DDR_A8*%
X209425000Y-85550000D03*
X203361851Y-69885802D03*
X182070000Y-62330000D03*
%TO.N,DDR_A9*%
X202170000Y-73850000D03*
X186090000Y-60300000D03*
X202825000Y-80875000D03*
%TO.N,DDR_A10*%
X199000000Y-71620000D03*
X186600000Y-66450000D03*
X196475000Y-79350000D03*
%TO.N,DDR_A11*%
X202570000Y-71530000D03*
X207900000Y-85575000D03*
X181070000Y-62330000D03*
%TO.N,DDR_A12*%
X188100000Y-65350000D03*
X199125000Y-80850000D03*
X200590000Y-71620000D03*
%TO.N,DDR_A13*%
X202970000Y-73850000D03*
X205025000Y-85600000D03*
X186110000Y-59310000D03*
%TO.N,DDR_A14*%
X188140000Y-60280000D03*
X203475000Y-70625000D03*
X203475000Y-70625000D03*
X208750000Y-80900000D03*
%TO.N,DDR_A15*%
X199760000Y-71620000D03*
X188200000Y-66110000D03*
X196075000Y-85575000D03*
%TO.N,DDR_ODT*%
X195425000Y-76925000D03*
X184130000Y-64340000D03*
X188625000Y-79850000D03*
%TO.N,DDR_CKE*%
X198180000Y-68900000D03*
X193300000Y-85600000D03*
%TO.N,DDR_NCS*%
X181110000Y-61330000D03*
X197775000Y-79350000D03*
X198580000Y-75460000D03*
%TO.N,DDR_NCAS*%
X181100000Y-63380000D03*
X194550000Y-85600000D03*
X198170000Y-73850000D03*
%TO.N,DDR_DQ5*%
X196180000Y-70680000D03*
X185070000Y-65330000D03*
%TO.N,DDR_DQ6*%
X182100000Y-64340000D03*
X195380000Y-75460000D03*
%TO.N,DDR_DQ0*%
X184070000Y-65290000D03*
X194170000Y-73850000D03*
%TO.N,DDR_DQ3*%
X194640000Y-70610000D03*
X186110000Y-65310000D03*
%TO.N,DDR_BA1*%
X185120000Y-63320000D03*
X200160000Y-69870000D03*
X197500000Y-85600000D03*
%TO.N,DDR_DQ4*%
X183100000Y-64200000D03*
X196570000Y-73850000D03*
%TO.N,DDR_BA2*%
X200525000Y-80900000D03*
X184100000Y-63270000D03*
X199770000Y-73850000D03*
%TO.N,DDR_DQ2*%
X194580000Y-75460000D03*
X182610000Y-66450000D03*
%TO.N,DDR_DQ1*%
X194610000Y-71460000D03*
X185600000Y-66460000D03*
%TO.N,DDR_DQ7*%
X196190000Y-71560000D03*
X184600000Y-66440000D03*
%TO.N,DDR_BA0*%
X188080000Y-64330000D03*
X199480000Y-75370000D03*
X200550000Y-85575000D03*
%TO.N,DDR_CK_P*%
X184100000Y-61190000D03*
X197370000Y-71630000D03*
%TO.N,DDR_CK_N*%
X198320000Y-71620000D03*
X185100000Y-61200000D03*
%TO.N,DDR_DQS_P*%
X181050000Y-64340000D03*
X194970000Y-73850000D03*
%TO.N,DDR_DQS_N*%
X195770000Y-73850000D03*
X180200000Y-65260000D03*
%TO.N,Net-(U11-PadU6)*%
X183060000Y-60350000D03*
%TO.N,DDR_TDQS_N*%
X193790000Y-71460000D03*
X186090000Y-64220000D03*
%TO.N,DDR_TDQS_P*%
X186110000Y-63300000D03*
X193780000Y-70660000D03*
%TD*%
D18*
%TO.N,GND*%
X166600000Y-54800000D02*
X169600000Y-54800000D01*
X172600000Y-56800000D02*
X172600000Y-61800000D01*
X175130000Y-61330000D02*
X175600000Y-61800000D01*
X169600000Y-63800000D02*
X169600000Y-62800000D01*
X171600000Y-61800000D02*
X172600000Y-61800000D01*
X214706250Y-74362500D02*
X215168750Y-74362500D01*
X173600000Y-59800000D02*
X174600000Y-58800000D01*
X166600000Y-63800000D02*
X169600000Y-63800000D01*
D19*
X210800000Y-73812500D02*
X211700000Y-73812500D01*
D18*
X173600000Y-55800000D02*
X174600000Y-54800000D01*
D20*
X216230102Y-81612500D02*
X215530102Y-80912500D01*
D18*
X177600000Y-56800000D02*
X176600000Y-57800000D01*
X170600000Y-61800000D02*
X171600000Y-61800000D01*
X173600000Y-55800000D02*
X172600000Y-54800000D01*
X166600000Y-54800000D02*
X166600000Y-55800000D01*
X169600000Y-58800000D02*
X170600000Y-57800000D01*
D19*
X211700000Y-73812500D02*
X212600000Y-72912500D01*
D18*
X170600000Y-59800000D02*
X169600000Y-58800000D01*
X166600000Y-64800000D02*
X166600000Y-63800000D01*
X176600000Y-58800000D02*
X176600000Y-57800000D01*
X172600000Y-57800000D02*
X173600000Y-57800000D01*
D19*
X213256250Y-72912500D02*
X214706250Y-74362500D01*
X212600000Y-72912500D02*
X213256250Y-72912500D01*
D20*
X216230102Y-84225000D02*
X216230102Y-81612500D01*
D18*
X177600000Y-55800000D02*
X177600000Y-56800000D01*
X169600000Y-62800000D02*
X170600000Y-62800000D01*
D20*
X215595102Y-83590000D02*
X216230102Y-84225000D01*
D18*
X175070000Y-61330000D02*
X175130000Y-61330000D01*
D20*
X213755102Y-83590000D02*
X215595102Y-83590000D01*
D18*
X169600000Y-53800000D02*
X169600000Y-54800000D01*
X215168750Y-74362500D02*
X216168750Y-75362500D01*
X175600000Y-59850000D02*
X176040000Y-60290000D01*
X175600000Y-59800000D02*
X175600000Y-59850000D01*
X175600000Y-57800000D02*
X176600000Y-57800000D01*
X170600000Y-55800000D02*
X171600000Y-55800000D01*
X169600000Y-54800000D02*
X170600000Y-55800000D01*
X172600000Y-59800000D02*
X173600000Y-59800000D01*
X170600000Y-61800000D02*
X170600000Y-62800000D01*
X171600000Y-55800000D02*
X172600000Y-54800000D01*
%TO.N,VCCBRAM*%
X176300000Y-55800000D02*
X176600000Y-55800000D01*
X176600000Y-59800000D02*
X177600000Y-58800000D01*
X175600000Y-58800000D02*
X176600000Y-59800000D01*
X174600000Y-55800000D02*
X173600000Y-56800000D01*
X175600000Y-58800000D02*
X174600000Y-57800000D01*
X173600000Y-58800000D02*
X174600000Y-57800000D01*
X174600000Y-55800000D02*
X175075001Y-56275001D01*
X174600000Y-59800000D02*
X175600000Y-58800000D01*
X174600000Y-57800000D02*
X173600000Y-56800000D01*
X177600000Y-58800000D02*
X178600000Y-59800000D01*
X175824999Y-56275001D02*
X176300000Y-55800000D01*
X175075001Y-56275001D02*
X175824999Y-56275001D01*
%TO.N,VCCAUX*%
X176314988Y-56280000D02*
X176823002Y-56280000D01*
X177600000Y-54800000D02*
X178124999Y-54275001D01*
X177120000Y-55983002D02*
X177120000Y-55280000D01*
X177120000Y-55280000D02*
X177600000Y-54800000D01*
X175794988Y-56800000D02*
X176314988Y-56280000D01*
X177124999Y-54324999D02*
X176075001Y-54324999D01*
X176823002Y-56280000D02*
X177120000Y-55983002D01*
X175600000Y-56800000D02*
X175794988Y-56800000D01*
X179075001Y-54275001D02*
X179600000Y-54800000D01*
X174075001Y-54324999D02*
X173600000Y-54800000D01*
X175124999Y-54324999D02*
X174075001Y-54324999D01*
X178124999Y-54275001D02*
X179075001Y-54275001D01*
X177600000Y-54800000D02*
X177124999Y-54324999D01*
X175600000Y-54800000D02*
X175124999Y-54324999D01*
X176075001Y-54324999D02*
X175600000Y-54800000D01*
D21*
%TO.N,VCCDDR_1.35V*%
X183700000Y-60800000D02*
X184200000Y-60300000D01*
D20*
X210800000Y-78487500D02*
X211712500Y-78487500D01*
D21*
X183600000Y-60800000D02*
X183700000Y-60800000D01*
D20*
X213755102Y-82320000D02*
X213755102Y-78611352D01*
D21*
X185110000Y-64310000D02*
X184600000Y-63800000D01*
D20*
X211725000Y-78500000D02*
X213643750Y-78500000D01*
X213755102Y-78611352D02*
X213643750Y-78500000D01*
X214731250Y-77412500D02*
X214731250Y-76012500D01*
D21*
X187600000Y-62860000D02*
X188040000Y-63300000D01*
X180600000Y-61800000D02*
X180140000Y-61340000D01*
D20*
X211712500Y-78487500D02*
X211725000Y-78500000D01*
X213643750Y-78500000D02*
X214731250Y-77412500D01*
D21*
X187600000Y-62800000D02*
X187600000Y-62860000D01*
D20*
%TO.N,+5V*%
X220600000Y-84800000D02*
X218765102Y-84800000D01*
X219617602Y-80912500D02*
X220060112Y-81355010D01*
X218387500Y-80912500D02*
X218387500Y-78287500D01*
X217600000Y-77500000D02*
X217600000Y-76000000D01*
X218387500Y-78287500D02*
X217600000Y-77500000D01*
X219680102Y-84860000D02*
X218705102Y-84860000D01*
X220060112Y-84479990D02*
X219680102Y-84860000D01*
X218387500Y-80912500D02*
X219617602Y-80912500D01*
X220060112Y-81355010D02*
X220060112Y-84479990D01*
X218765102Y-84800000D02*
X218705102Y-84860000D01*
X217230102Y-80912500D02*
X218387500Y-80912500D01*
D22*
%TO.N,VCCDDR_1.35V_VREF*%
X192762500Y-81400000D02*
X193075000Y-81712500D01*
X191675000Y-81400000D02*
X192762500Y-81400000D01*
D19*
X214230102Y-88837500D02*
X214230102Y-87525000D01*
D22*
X191675000Y-82575000D02*
X192750000Y-83650000D01*
D19*
%TO.N,Net-(C51-Pad1)*%
X212975000Y-74862500D02*
X214706250Y-74862500D01*
X212600000Y-74487500D02*
X212975000Y-74862500D01*
D18*
%TO.N,VCCFPGA_S1_VCCO_CONFIG*%
X168412500Y-79300000D02*
X168412500Y-74100000D01*
D19*
%TO.N,Net-(R42-Pad1)*%
X215530102Y-79337500D02*
X217230102Y-79337500D01*
D18*
X212365102Y-84860000D02*
X212330102Y-84825000D01*
X213755102Y-84860000D02*
X212365102Y-84860000D01*
X216330102Y-80125000D02*
X216442602Y-80125000D01*
X216442602Y-80125000D02*
X217230102Y-79337500D01*
D20*
%TO.N,Net-(R44-Pad2)*%
X210800000Y-76912500D02*
X210800000Y-75387500D01*
D19*
X212731250Y-75400000D02*
X212718750Y-75387500D01*
X212718750Y-75387500D02*
X210800000Y-75387500D01*
X212731250Y-75400000D02*
X214668750Y-75400000D01*
X214668750Y-75400000D02*
X214706250Y-75362500D01*
D21*
%TO.N,DDR_NWE*%
X183090000Y-61310000D02*
X182600000Y-61800000D01*
X198980000Y-74270000D02*
X198980000Y-73860000D01*
X183110000Y-61310000D02*
X183090000Y-61310000D01*
D22*
X193075000Y-80825000D02*
X193000000Y-80900000D01*
X193075000Y-80137500D02*
X193075000Y-80825000D01*
D21*
%TO.N,DDR_NRAS*%
X197380000Y-74270000D02*
X197380000Y-73860000D01*
X180990000Y-66270000D02*
X181130000Y-66270000D01*
X181130000Y-66270000D02*
X181600000Y-65800000D01*
%TO.N,DDR_A0*%
X187100000Y-60300000D02*
X186600000Y-60800000D01*
D22*
X199100000Y-84812500D02*
X199100000Y-85550000D01*
D21*
X187100000Y-60270000D02*
X187100000Y-60300000D01*
X200580000Y-74270000D02*
X200580000Y-73860000D01*
%TO.N,DDR_A1*%
X187080000Y-63280000D02*
X186600000Y-62800000D01*
D22*
X205750000Y-80875000D02*
X206525000Y-80100000D01*
D21*
X187090000Y-63280000D02*
X187080000Y-63280000D01*
D22*
X205575000Y-80875000D02*
X205750000Y-80875000D01*
D21*
%TO.N,DDR_A2*%
X188400000Y-59369999D02*
X188030001Y-59369999D01*
X188030001Y-59369999D02*
X187600000Y-59800000D01*
X201380000Y-74270000D02*
X201380000Y-73860000D01*
%TO.N,DDR_A3*%
X182600000Y-59790000D02*
X183110000Y-59280000D01*
X182600000Y-59800000D02*
X182600000Y-59790000D01*
D19*
%TO.N,DDR_A4*%
X206500000Y-84787500D02*
X206500000Y-85550000D01*
D21*
X187100000Y-61300000D02*
X186600000Y-61800000D01*
X187100000Y-61190000D02*
X187100000Y-61300000D01*
%TO.N,DDR_A5*%
X183600000Y-59790000D02*
X184100000Y-59290000D01*
D22*
X202075000Y-84800000D02*
X202075000Y-85625000D01*
X202075000Y-85625000D02*
X202025000Y-85675000D01*
D21*
X183600000Y-59800000D02*
X183600000Y-59790000D01*
D22*
%TO.N,DDR_A6*%
X207500000Y-80587500D02*
X208000000Y-80087500D01*
D21*
X188130000Y-61270000D02*
X187600000Y-61800000D01*
X188130000Y-61260000D02*
X188130000Y-61270000D01*
D22*
X207500000Y-80850000D02*
X207500000Y-80587500D01*
D21*
%TO.N,DDR_A7*%
X184600000Y-59800000D02*
X184600000Y-59780000D01*
D22*
X203550000Y-84800000D02*
X203550000Y-85550000D01*
X203550000Y-85550000D02*
X203525000Y-85575000D01*
D21*
X184600000Y-59780000D02*
X185100000Y-59280000D01*
%TO.N,DDR_A8*%
X182070000Y-62330000D02*
X181600000Y-62800000D01*
D22*
X209425000Y-84812500D02*
X209450000Y-84787500D01*
X209425000Y-85550000D02*
X209425000Y-84812500D01*
D21*
%TO.N,DDR_A9*%
X185600000Y-60790000D02*
X186090000Y-60300000D01*
D22*
X205050000Y-80100000D02*
X205050000Y-80850000D01*
D21*
X202180000Y-74270000D02*
X202180000Y-73860000D01*
D22*
X205025000Y-80875000D02*
X202825000Y-80875000D01*
D21*
X185600000Y-60800000D02*
X185600000Y-60790000D01*
D22*
X205050000Y-80850000D02*
X205025000Y-80875000D01*
D21*
%TO.N,DDR_A10*%
X186600000Y-66450000D02*
X186600000Y-65800000D01*
D22*
%TO.N,DDR_A11*%
X207975000Y-85500000D02*
X207900000Y-85575000D01*
D21*
X181070000Y-62330000D02*
X180600000Y-62800000D01*
D22*
X207975000Y-84787500D02*
X207975000Y-85500000D01*
%TO.N,DDR_A12*%
X199125000Y-80850000D02*
X199125000Y-80125000D01*
D21*
X188100000Y-65350000D02*
X188100000Y-65300000D01*
X188100000Y-65300000D02*
X187600000Y-64800000D01*
%TO.N,DDR_A13*%
X186090000Y-59310000D02*
X185600000Y-59800000D01*
X186110000Y-59310000D02*
X186090000Y-59310000D01*
D22*
X205025000Y-84800000D02*
X205025000Y-85600000D01*
D21*
X202980000Y-74270000D02*
X202980000Y-73860000D01*
D22*
X205025000Y-84787500D02*
X205025000Y-84800000D01*
%TO.N,DDR_A14*%
X208750000Y-80837500D02*
X209500000Y-80087500D01*
D21*
X187600000Y-60800000D02*
X187620000Y-60800000D01*
D22*
X208750000Y-80900000D02*
X208750000Y-80837500D01*
D21*
X187620000Y-60800000D02*
X188140000Y-60280000D01*
D22*
%TO.N,DDR_A15*%
X196100000Y-85550000D02*
X196075000Y-85575000D01*
X196100000Y-84800000D02*
X196100000Y-85550000D01*
D21*
X188200000Y-66110000D02*
X187910000Y-66110000D01*
X187910000Y-66110000D02*
X187600000Y-65800000D01*
D22*
%TO.N,DDR_ODT*%
X188600000Y-80812500D02*
X188600000Y-79875000D01*
D21*
X183600000Y-63810000D02*
X184130000Y-64340000D01*
X183600000Y-63800000D02*
X183600000Y-63810000D01*
D22*
%TO.N,DDR_CKE*%
X193300000Y-84975000D02*
X193125000Y-84800000D01*
X193300000Y-85600000D02*
X193300000Y-84975000D01*
D21*
%TO.N,DDR_NCS*%
X181130000Y-61330000D02*
X181600000Y-61800000D01*
X181110000Y-61330000D02*
X181130000Y-61330000D01*
%TO.N,DDR_NCAS*%
X198180000Y-74270000D02*
X198180000Y-73860000D01*
D22*
X194600000Y-84812500D02*
X194600000Y-85550000D01*
D21*
X181600000Y-63800000D02*
X181520000Y-63800000D01*
X181520000Y-63800000D02*
X181100000Y-63380000D01*
D22*
X194600000Y-85550000D02*
X194550000Y-85600000D01*
D21*
%TO.N,DDR_DQ5*%
X184600000Y-64860000D02*
X185070000Y-65330000D01*
X184600000Y-64800000D02*
X184600000Y-64860000D01*
%TO.N,DDR_DQ6*%
X182560000Y-64800000D02*
X182100000Y-64340000D01*
X182600000Y-64800000D02*
X182560000Y-64800000D01*
%TO.N,DDR_DQ0*%
X194180000Y-74270000D02*
X194180000Y-73860000D01*
X184070000Y-65270000D02*
X183600000Y-64800000D01*
X184070000Y-65290000D02*
X184070000Y-65270000D01*
X194180000Y-73860000D02*
X194170000Y-73850000D01*
%TO.N,DDR_DQ3*%
X185600000Y-64800000D02*
X186110000Y-65310000D01*
D22*
%TO.N,DDR_BA1*%
X197500000Y-84900000D02*
X197600000Y-84800000D01*
D21*
X184600000Y-62800000D02*
X185120000Y-63320000D01*
D22*
X197500000Y-85600000D02*
X197500000Y-84900000D01*
D21*
%TO.N,DDR_DQ4*%
X182600000Y-63800000D02*
X182700000Y-63800000D01*
X196580000Y-74270000D02*
X196580000Y-73860000D01*
X182700000Y-63800000D02*
X183100000Y-64200000D01*
%TO.N,DDR_BA2*%
X199780000Y-74270000D02*
X199780000Y-73860000D01*
D22*
X200525000Y-80900000D02*
X200525000Y-80175000D01*
D21*
X184100000Y-63270000D02*
X184070000Y-63270000D01*
X184070000Y-63270000D02*
X183600000Y-62800000D01*
%TO.N,DDR_DQ2*%
X182610000Y-66450000D02*
X182610000Y-65810000D01*
X182610000Y-65810000D02*
X182600000Y-65800000D01*
%TO.N,DDR_DQ1*%
X185600000Y-66460000D02*
X185600000Y-65800000D01*
%TO.N,DDR_DQ7*%
X184600000Y-66440000D02*
X184600000Y-65800000D01*
%TO.N,DDR_BA0*%
X188080000Y-64280000D02*
X187600000Y-63800000D01*
X199480000Y-75370000D02*
X199780000Y-75070000D01*
X188080000Y-64330000D02*
X188080000Y-64280000D01*
D22*
X200550000Y-84825000D02*
X200575000Y-84800000D01*
X200550000Y-85575000D02*
X200550000Y-84825000D01*
D21*
%TO.N,DDR_CK_P*%
X184490000Y-60800000D02*
X184100000Y-61190000D01*
X184600000Y-60800000D02*
X184490000Y-60800000D01*
%TO.N,DDR_CK_N*%
X185100000Y-61300000D02*
X184600000Y-61800000D01*
X185100000Y-61200000D02*
X185100000Y-61300000D01*
%TO.N,DDR_DQS_P*%
X181050000Y-64340000D02*
X181050000Y-64250000D01*
X181050000Y-64250000D02*
X180600000Y-63800000D01*
X194980000Y-74270000D02*
X194980000Y-73860000D01*
%TO.N,DDR_DQS_N*%
X195780000Y-74270000D02*
X195780000Y-73860000D01*
X180600000Y-64860000D02*
X180200000Y-65260000D01*
X180600000Y-64800000D02*
X180600000Y-64860000D01*
%TO.N,Net-(U11-PadU6)*%
X182600000Y-60800000D02*
X182610000Y-60800000D01*
X182610000Y-60800000D02*
X183060000Y-60350000D01*
D18*
%TO.N,/fgpa-logic/m0*%
X169987500Y-74100000D02*
X172712500Y-74100000D01*
%TO.N,/fgpa-logic/m1*%
X169987500Y-76600000D02*
X172672500Y-76600000D01*
X172672500Y-76600000D02*
X172712500Y-76640000D01*
%TO.N,/fgpa-logic/m2*%
X169987500Y-79300000D02*
X172592500Y-79300000D01*
X172592500Y-79300000D02*
X172712500Y-79180000D01*
D21*
%TO.N,DDR_TDQS_N*%
X186090000Y-64220000D02*
X186180000Y-64220000D01*
X186180000Y-64220000D02*
X186600000Y-63800000D01*
%TO.N,DDR_TDQS_P*%
X186110000Y-63300000D02*
X186100000Y-63300000D01*
X186100000Y-63300000D02*
X185600000Y-63800000D01*
%TD*%
%TA.AperFunction,Conductor*%
%TO.N,VCCDDR_1.35V_VREF*%
G36*
X191928999Y-80377000D02*
G01*
X191929000Y-80377000D01*
X191928999Y-81146001D01*
X191929000Y-81146001D01*
X191928999Y-82387617D01*
X192204450Y-82327696D01*
X192260403Y-82414758D01*
X192419966Y-82553020D01*
X192612020Y-82640728D01*
X192768484Y-82663224D01*
X192821000Y-82663224D01*
X193328999Y-82663224D01*
X193363710Y-82663224D01*
X193637145Y-82603741D01*
X193864057Y-82457914D01*
X193944965Y-82528019D01*
X194137020Y-82615728D01*
X194293484Y-82638224D01*
X194346000Y-82638224D01*
X194853999Y-82638224D01*
X194888710Y-82638224D01*
X195162145Y-82578741D01*
X195366419Y-82447463D01*
X195444965Y-82515519D01*
X195637020Y-82603228D01*
X195793484Y-82625724D01*
X195846000Y-82625724D01*
X196353999Y-82625724D01*
X196388710Y-82625724D01*
X196662144Y-82566242D01*
X196858140Y-82440283D01*
X196944966Y-82515520D01*
X197137020Y-82603228D01*
X197293484Y-82625724D01*
X197346000Y-82625724D01*
X197853999Y-82625724D01*
X197888710Y-82625724D01*
X198162144Y-82566242D01*
X198358140Y-82440283D01*
X198444966Y-82515520D01*
X198637020Y-82603228D01*
X198793484Y-82625724D01*
X198846000Y-82625724D01*
X199353999Y-82625724D01*
X199388710Y-82625724D01*
X199662144Y-82566242D01*
X199858140Y-82440283D01*
X199944966Y-82515520D01*
X200137020Y-82603228D01*
X200293484Y-82625724D01*
X200346000Y-82625724D01*
X200853999Y-82625724D01*
X200888709Y-82625724D01*
X201162145Y-82566241D01*
X201335500Y-82454833D01*
X201419965Y-82528019D01*
X201612020Y-82615728D01*
X201768484Y-82638224D01*
X201821000Y-82638224D01*
X202328999Y-82638224D01*
X202363710Y-82638224D01*
X202637145Y-82578741D01*
X202827072Y-82456684D01*
X202894967Y-82515520D01*
X203087020Y-82603228D01*
X203243484Y-82625724D01*
X203296000Y-82625724D01*
X203803999Y-82625724D01*
X203838710Y-82625724D01*
X204112144Y-82566242D01*
X204308140Y-82440283D01*
X204394966Y-82515520D01*
X204587020Y-82603228D01*
X204743484Y-82625724D01*
X204796000Y-82625724D01*
X205303999Y-82625724D01*
X205338710Y-82625724D01*
X205612143Y-82566242D01*
X205793783Y-82449509D01*
X205869965Y-82515519D01*
X206062020Y-82603228D01*
X206218484Y-82625724D01*
X206271000Y-82625724D01*
X206778999Y-82625724D01*
X206813710Y-82625724D01*
X207087145Y-82566241D01*
X207277072Y-82444184D01*
X207344967Y-82503020D01*
X207537020Y-82590728D01*
X207693484Y-82613224D01*
X207746000Y-82613224D01*
X208253999Y-82613224D01*
X208288710Y-82613224D01*
X208562144Y-82553742D01*
X208758140Y-82427783D01*
X208844966Y-82503020D01*
X209037020Y-82590728D01*
X209193484Y-82613224D01*
X209246000Y-82613224D01*
X209753999Y-82613224D01*
X209788710Y-82613224D01*
X210062143Y-82553742D01*
X210243783Y-82437009D01*
X210319965Y-82503019D01*
X210512020Y-82590728D01*
X210668484Y-82613224D01*
X210721000Y-82613224D01*
X211228999Y-82613224D01*
X211263710Y-82613224D01*
X211537145Y-82553741D01*
X211714758Y-82439597D01*
X211853020Y-82280034D01*
X211940728Y-82087980D01*
X211963224Y-81931516D01*
X211963224Y-81916500D01*
X211229000Y-81916499D01*
X211228999Y-82613224D01*
X210721000Y-82613224D01*
X210721001Y-81916500D01*
X210523000Y-81916499D01*
X210523000Y-81916500D01*
X209754000Y-81916499D01*
X209753999Y-82613224D01*
X209246000Y-82613224D01*
X209246001Y-81916500D01*
X209023000Y-81916499D01*
X209023000Y-81916500D01*
X208254000Y-81916499D01*
X208253999Y-82613224D01*
X207746000Y-82613224D01*
X207746001Y-81916500D01*
X207548000Y-81916499D01*
X207548000Y-81929000D01*
X206779000Y-81928999D01*
X206778999Y-82625724D01*
X206271000Y-82625724D01*
X206271001Y-81929000D01*
X206073000Y-81928999D01*
X206073000Y-81929000D01*
X205304000Y-81928999D01*
X205303999Y-82625724D01*
X204796000Y-82625724D01*
X204796001Y-81929000D01*
X204573000Y-81928999D01*
X204573000Y-81929000D01*
X203804000Y-81928999D01*
X203803999Y-82625724D01*
X203296000Y-82625724D01*
X203296001Y-81929000D01*
X203098000Y-81928999D01*
X203098000Y-81941500D01*
X202329000Y-81941499D01*
X202328999Y-82638224D01*
X201821000Y-82638224D01*
X201821001Y-81941500D01*
X201052000Y-81941499D01*
X201052000Y-81929000D01*
X200854000Y-81928999D01*
X200853999Y-82625724D01*
X200346000Y-82625724D01*
X200346001Y-81929000D01*
X200123000Y-81928999D01*
X200123000Y-81929000D01*
X199354000Y-81928999D01*
X199353999Y-82625724D01*
X198846000Y-82625724D01*
X198846001Y-81929000D01*
X198623000Y-81928999D01*
X198623000Y-81929000D01*
X197854000Y-81928999D01*
X197853999Y-82625724D01*
X197346000Y-82625724D01*
X197346001Y-81929000D01*
X197123000Y-81928999D01*
X197123000Y-81929000D01*
X196354000Y-81928999D01*
X196353999Y-82625724D01*
X195846000Y-82625724D01*
X195846001Y-81929000D01*
X195623000Y-81928999D01*
X195623000Y-81941500D01*
X194854000Y-81941499D01*
X194853999Y-82638224D01*
X194346000Y-82638224D01*
X194346001Y-81941500D01*
X194098000Y-81941499D01*
X194098000Y-81966500D01*
X193329000Y-81966499D01*
X193328999Y-82663224D01*
X192821000Y-82663224D01*
X192821001Y-81966499D01*
X192821000Y-81966499D01*
X192821001Y-81458500D01*
X193577000Y-81458501D01*
X193577000Y-81433500D01*
X194346001Y-81433501D01*
X194346001Y-81433500D01*
X195077000Y-81433501D01*
X195077000Y-81421000D01*
X195846001Y-81421001D01*
X195846001Y-81421000D01*
X196577000Y-81421001D01*
X196577000Y-81421000D01*
X197346001Y-81421001D01*
X197346001Y-81421000D01*
X198077000Y-81421001D01*
X198077000Y-81421000D01*
X198846001Y-81421001D01*
X198846001Y-81421000D01*
X199577000Y-81421001D01*
X199577000Y-81421000D01*
X200346001Y-81421001D01*
X200346001Y-81421000D01*
X201623000Y-81421001D01*
X201623000Y-81433500D01*
X201821001Y-81433501D01*
X201821001Y-81433500D01*
X202527000Y-81433501D01*
X202527000Y-81421000D01*
X203296001Y-81421001D01*
X203296001Y-81421000D01*
X204027000Y-81421001D01*
X204027000Y-81421000D01*
X204796001Y-81421001D01*
X204796001Y-81421000D01*
X205502000Y-81421001D01*
X205502000Y-81421000D01*
X206271001Y-81421001D01*
X206271001Y-81421000D01*
X206977000Y-81421001D01*
X206977000Y-81408500D01*
X207746001Y-81408501D01*
X207746001Y-81408500D01*
X208477000Y-81408501D01*
X208477000Y-81408500D01*
X209246001Y-81408501D01*
X209246001Y-81408500D01*
X209952000Y-81408501D01*
X209952000Y-81408500D01*
X210721001Y-81408501D01*
X210721001Y-81408500D01*
X211965374Y-81408501D01*
X211969756Y-81347220D01*
X212012303Y-81290384D01*
X212078823Y-81265573D01*
X212148197Y-81280664D01*
X212195855Y-81326425D01*
X212602699Y-82004498D01*
X212596891Y-82033698D01*
X212596889Y-82033700D01*
X212576184Y-82137792D01*
X212576184Y-82502208D01*
X212596889Y-82606300D01*
X212675762Y-82724340D01*
X212793802Y-82803213D01*
X212897894Y-82823918D01*
X213094347Y-82823918D01*
X213137151Y-82895251D01*
X213155050Y-82963954D01*
X213132964Y-83031428D01*
X213077905Y-83076250D01*
X213029110Y-83086082D01*
X212897894Y-83086082D01*
X212793802Y-83106787D01*
X212675762Y-83185660D01*
X212596889Y-83303700D01*
X212576184Y-83407792D01*
X212576184Y-83772208D01*
X212596889Y-83876300D01*
X212675762Y-83994340D01*
X212793802Y-84073213D01*
X212897894Y-84093918D01*
X213856347Y-84093918D01*
X213899151Y-84165251D01*
X213917050Y-84233954D01*
X213894964Y-84301428D01*
X213839905Y-84346250D01*
X213791110Y-84356082D01*
X212897894Y-84356082D01*
X212793802Y-84376787D01*
X212793800Y-84376788D01*
X212793801Y-84376788D01*
X212664926Y-84462900D01*
X212497152Y-84366035D01*
X212330102Y-84336580D01*
X212163052Y-84366035D01*
X212016152Y-84450848D01*
X211965028Y-84511776D01*
X211907118Y-84580790D01*
X211849102Y-84740187D01*
X211849102Y-84909813D01*
X211907118Y-85069210D01*
X211925389Y-85090984D01*
X212016152Y-85199152D01*
X212163052Y-85283965D01*
X212330102Y-85313420D01*
X212336210Y-85312343D01*
X212406768Y-85320212D01*
X212461872Y-85364979D01*
X212484026Y-85432431D01*
X212450453Y-85522131D01*
X212375780Y-85602609D01*
X212288746Y-85783338D01*
X212274779Y-85876000D01*
X214009102Y-85876000D01*
X214009102Y-86943738D01*
X214618132Y-86943738D01*
X214824265Y-86904736D01*
X215000000Y-86803278D01*
X215000000Y-88436937D01*
X214693082Y-88296772D01*
X214536618Y-88274276D01*
X214484102Y-88274276D01*
X214484101Y-89000000D01*
X213976102Y-89000000D01*
X213976103Y-88274276D01*
X213941392Y-88274276D01*
X213667957Y-88333759D01*
X213490344Y-88447903D01*
X213352082Y-88607466D01*
X213264374Y-88799520D01*
X213235549Y-89000000D01*
X190712500Y-89000000D01*
X190712500Y-86300399D01*
X191074520Y-86465728D01*
X191230984Y-86488224D01*
X191246000Y-86488224D01*
X191246001Y-85753999D01*
X191246000Y-85753999D01*
X191246000Y-85246001D01*
X191753999Y-85246001D01*
X191754000Y-85246001D01*
X191753999Y-86487617D01*
X192136776Y-86404348D01*
X192136776Y-86626210D01*
X192196259Y-86899645D01*
X192310403Y-87077258D01*
X192469966Y-87215520D01*
X192662020Y-87303228D01*
X192818484Y-87325724D01*
X192871000Y-87325724D01*
X193378999Y-87325724D01*
X193413709Y-87325724D01*
X193687145Y-87266241D01*
X193860500Y-87154833D01*
X193944965Y-87228019D01*
X194137020Y-87315728D01*
X194293484Y-87338224D01*
X194346000Y-87338224D01*
X194853999Y-87338224D01*
X194888710Y-87338224D01*
X195162145Y-87278741D01*
X195366419Y-87147463D01*
X195444965Y-87215519D01*
X195637020Y-87303228D01*
X195793484Y-87325724D01*
X195846000Y-87325724D01*
X196353999Y-87325724D01*
X196388710Y-87325724D01*
X196662144Y-87266242D01*
X196858140Y-87140283D01*
X196944966Y-87215520D01*
X197137020Y-87303228D01*
X197293484Y-87325724D01*
X197346000Y-87325724D01*
X197853999Y-87325724D01*
X197888710Y-87325724D01*
X198162144Y-87266242D01*
X198349857Y-87145606D01*
X198444966Y-87228020D01*
X198637020Y-87315728D01*
X198793484Y-87338224D01*
X198846000Y-87338224D01*
X199353999Y-87338224D01*
X199388710Y-87338224D01*
X199662145Y-87278741D01*
X199852072Y-87156684D01*
X199919967Y-87215520D01*
X200112020Y-87303228D01*
X200268484Y-87325724D01*
X200321000Y-87325724D01*
X200828999Y-87325724D01*
X200863710Y-87325724D01*
X201137144Y-87266242D01*
X201333140Y-87140283D01*
X201419966Y-87215520D01*
X201612020Y-87303228D01*
X201768484Y-87325724D01*
X201821000Y-87325724D01*
X202328999Y-87325724D01*
X202363710Y-87325724D01*
X202637143Y-87266242D01*
X202818783Y-87149509D01*
X202894965Y-87215519D01*
X203087020Y-87303228D01*
X203243484Y-87325724D01*
X203296000Y-87325724D01*
X203803999Y-87325724D01*
X203838710Y-87325724D01*
X204112145Y-87266241D01*
X204302072Y-87144184D01*
X204369967Y-87203020D01*
X204562020Y-87290728D01*
X204718484Y-87313224D01*
X204771000Y-87313224D01*
X205278999Y-87313224D01*
X205313710Y-87313224D01*
X205587143Y-87253742D01*
X205768783Y-87137009D01*
X205844965Y-87203019D01*
X206037020Y-87290728D01*
X206193484Y-87313224D01*
X206246000Y-87313224D01*
X206753999Y-87313224D01*
X206788710Y-87313224D01*
X207062143Y-87253742D01*
X207243783Y-87137009D01*
X207319965Y-87203019D01*
X207512020Y-87290728D01*
X207668484Y-87313224D01*
X207721000Y-87313224D01*
X208228999Y-87313224D01*
X208263710Y-87313224D01*
X208537143Y-87253742D01*
X208718783Y-87137009D01*
X208794965Y-87203019D01*
X208987020Y-87290728D01*
X209143484Y-87313224D01*
X209196000Y-87313224D01*
X209703999Y-87313224D01*
X209738710Y-87313224D01*
X210012145Y-87253741D01*
X210189758Y-87139597D01*
X210328020Y-86980034D01*
X210415728Y-86787980D01*
X210438224Y-86631516D01*
X210438224Y-86616500D01*
X209704000Y-86616499D01*
X209703999Y-87313224D01*
X209196000Y-87313224D01*
X209196001Y-86616500D01*
X208998000Y-86616499D01*
X208998000Y-86616500D01*
X208229000Y-86616499D01*
X208228999Y-87313224D01*
X207721000Y-87313224D01*
X207721001Y-86616500D01*
X207523000Y-86616499D01*
X207523000Y-86616500D01*
X206754000Y-86616499D01*
X206753999Y-87313224D01*
X206246000Y-87313224D01*
X206246001Y-86616500D01*
X206048000Y-86616499D01*
X206048000Y-86616500D01*
X205279000Y-86616499D01*
X205278999Y-87313224D01*
X204771000Y-87313224D01*
X204771001Y-86616500D01*
X204573000Y-86616499D01*
X204573000Y-86629000D01*
X203804000Y-86628999D01*
X203803999Y-87325724D01*
X203296000Y-87325724D01*
X203296001Y-86629000D01*
X203098000Y-86628999D01*
X203098000Y-86629000D01*
X202329000Y-86628999D01*
X202328999Y-87325724D01*
X201821000Y-87325724D01*
X201821001Y-86629000D01*
X201598000Y-86628999D01*
X201598000Y-86629000D01*
X200829000Y-86628999D01*
X200828999Y-87325724D01*
X200321000Y-87325724D01*
X200321001Y-86629000D01*
X200123000Y-86628999D01*
X200123000Y-86641500D01*
X199354000Y-86641499D01*
X199353999Y-87338224D01*
X198846000Y-87338224D01*
X198846001Y-86641500D01*
X198077000Y-86641499D01*
X198077000Y-86629000D01*
X197854000Y-86628999D01*
X197853999Y-87325724D01*
X197346000Y-87325724D01*
X197346001Y-86629000D01*
X197123000Y-86628999D01*
X197123000Y-86629000D01*
X196354000Y-86628999D01*
X196353999Y-87325724D01*
X195846000Y-87325724D01*
X195846001Y-86629000D01*
X195623000Y-86628999D01*
X195623000Y-86641500D01*
X194854000Y-86641499D01*
X194853999Y-87338224D01*
X194346000Y-87338224D01*
X194346001Y-86641500D01*
X193577000Y-86641499D01*
X193577000Y-86629000D01*
X193379000Y-86628999D01*
X193378999Y-87325724D01*
X192871000Y-87325724D01*
X192871001Y-86628999D01*
X192871000Y-86628999D01*
X192871000Y-86384000D01*
X212278846Y-86384000D01*
X212305366Y-86524161D01*
X212405664Y-86697882D01*
X212552711Y-86834322D01*
X212733439Y-86921356D01*
X212881932Y-86943738D01*
X213501102Y-86943738D01*
X213501102Y-86384000D01*
X212278846Y-86384000D01*
X192871000Y-86384000D01*
X192871001Y-86121000D01*
X194148000Y-86121001D01*
X194148000Y-86133500D01*
X194346001Y-86133501D01*
X194346001Y-86133500D01*
X195077000Y-86133501D01*
X195077000Y-86121000D01*
X195846001Y-86121001D01*
X195846001Y-86121000D01*
X196577000Y-86121001D01*
X196577000Y-86121000D01*
X197346001Y-86121001D01*
X197346001Y-86121000D01*
X198623000Y-86121001D01*
X198623000Y-86133500D01*
X198846001Y-86133501D01*
X198846001Y-86133500D01*
X199552000Y-86133501D01*
X199552000Y-86121000D01*
X200321001Y-86121001D01*
X200321001Y-86121000D01*
X201052000Y-86121001D01*
X201052000Y-86121000D01*
X201951211Y-86121001D01*
X202050000Y-86138420D01*
X202148795Y-86121000D01*
X202527000Y-86121001D01*
X202527000Y-86121000D01*
X203296001Y-86121001D01*
X203296001Y-86121000D01*
X204002000Y-86121001D01*
X204002000Y-86108500D01*
X204771001Y-86108501D01*
X204771001Y-86108500D01*
X205477000Y-86108501D01*
X205477000Y-86108500D01*
X206246001Y-86108501D01*
X206246001Y-86108500D01*
X206952000Y-86108501D01*
X206952000Y-86108500D01*
X207721001Y-86108501D01*
X207721001Y-86108500D01*
X208427000Y-86108501D01*
X208427000Y-86108500D01*
X209196001Y-86108501D01*
X209196001Y-86108500D01*
X210437617Y-86108501D01*
X210378741Y-85837854D01*
X210264597Y-85660242D01*
X210105034Y-85521980D01*
X209891113Y-85424286D01*
X209882415Y-85400389D01*
X209895629Y-85390410D01*
X209895635Y-85390409D01*
X210022734Y-85294428D01*
X210022735Y-85294427D01*
X210106578Y-85159017D01*
X210123365Y-85069210D01*
X210128464Y-85041935D01*
X210128464Y-84541166D01*
X210126369Y-84532256D01*
X210090409Y-84379365D01*
X209994428Y-84252266D01*
X209859017Y-84168422D01*
X209808805Y-84159036D01*
X209741935Y-84146536D01*
X209166165Y-84146536D01*
X209004365Y-84184591D01*
X208877266Y-84280572D01*
X208725680Y-84525388D01*
X208605343Y-84366035D01*
X208519428Y-84252266D01*
X208430318Y-84197091D01*
X208384017Y-84168422D01*
X208333805Y-84159036D01*
X208266935Y-84146536D01*
X207691165Y-84146536D01*
X207529365Y-84184591D01*
X207402266Y-84280572D01*
X207250680Y-84525388D01*
X207130343Y-84366035D01*
X207044428Y-84252266D01*
X206955318Y-84197091D01*
X206909017Y-84168422D01*
X206858805Y-84159036D01*
X206791935Y-84146536D01*
X206216165Y-84146536D01*
X206054365Y-84184591D01*
X205927266Y-84280572D01*
X205775680Y-84525388D01*
X205655343Y-84366035D01*
X205569428Y-84252266D01*
X205480318Y-84197091D01*
X205434017Y-84168422D01*
X205383805Y-84159036D01*
X205316935Y-84146536D01*
X204741165Y-84146536D01*
X204579365Y-84184591D01*
X204452266Y-84280572D01*
X204296429Y-84532256D01*
X204094428Y-84264766D01*
X203959017Y-84180922D01*
X203908805Y-84171536D01*
X203841935Y-84159036D01*
X203266165Y-84159036D01*
X203104365Y-84197091D01*
X202977266Y-84293072D01*
X202825680Y-84537888D01*
X202704023Y-84376787D01*
X202619428Y-84264766D01*
X202599240Y-84252266D01*
X202484017Y-84180922D01*
X202433805Y-84171536D01*
X202366935Y-84159036D01*
X201791165Y-84159036D01*
X201629365Y-84197091D01*
X201502266Y-84293072D01*
X201339417Y-84556078D01*
X201204023Y-84376787D01*
X201119428Y-84264766D01*
X201099240Y-84252266D01*
X200984017Y-84180922D01*
X200933805Y-84171536D01*
X200866935Y-84159036D01*
X200291165Y-84159036D01*
X200129365Y-84197091D01*
X200002266Y-84293072D01*
X199846429Y-84544756D01*
X199644428Y-84277266D01*
X199509017Y-84193422D01*
X199461774Y-84184591D01*
X199391935Y-84171536D01*
X198816165Y-84171536D01*
X198654365Y-84209591D01*
X198527266Y-84305572D01*
X198464804Y-84406451D01*
X198411937Y-84453838D01*
X198341843Y-84465121D01*
X198276776Y-84436717D01*
X198260371Y-84410098D01*
X198256427Y-84413076D01*
X198144428Y-84264766D01*
X198009017Y-84180922D01*
X197958805Y-84171536D01*
X197891935Y-84159036D01*
X197316165Y-84159036D01*
X197154365Y-84197091D01*
X197027266Y-84293072D01*
X196864417Y-84556078D01*
X196729023Y-84376787D01*
X196644428Y-84264766D01*
X196624240Y-84252266D01*
X196509017Y-84180922D01*
X196458805Y-84171536D01*
X196391935Y-84159036D01*
X195816165Y-84159036D01*
X195654365Y-84197091D01*
X195527266Y-84293072D01*
X195360164Y-84562947D01*
X195221530Y-84379365D01*
X195144428Y-84277266D01*
X195104052Y-84252266D01*
X195009017Y-84193422D01*
X194961774Y-84184591D01*
X194891935Y-84171536D01*
X194316165Y-84171536D01*
X194154365Y-84209591D01*
X194027266Y-84305572D01*
X193879933Y-84543519D01*
X193669428Y-84264766D01*
X193534017Y-84180922D01*
X193483805Y-84171536D01*
X193416935Y-84159036D01*
X192841165Y-84159036D01*
X192679365Y-84197091D01*
X192552266Y-84293072D01*
X192468422Y-84428483D01*
X192468422Y-84428484D01*
X192446688Y-84544756D01*
X192446536Y-84545567D01*
X192446536Y-84631160D01*
X192426534Y-84699281D01*
X192372878Y-84745774D01*
X192302604Y-84755878D01*
X192238024Y-84726385D01*
X192117534Y-84621980D01*
X191925480Y-84534272D01*
X191769016Y-84511776D01*
X191754000Y-84511776D01*
X191753999Y-85246001D01*
X191246000Y-85246001D01*
X191246001Y-84512383D01*
X190975354Y-84571259D01*
X190797742Y-84685403D01*
X190659480Y-84844966D01*
X190550305Y-85084027D01*
X190527910Y-85054371D01*
X190527909Y-85054365D01*
X190431928Y-84927266D01*
X190431927Y-84927265D01*
X190296517Y-84843422D01*
X190187920Y-84823122D01*
X189047916Y-83352150D01*
X189339758Y-83164597D01*
X189478020Y-83005034D01*
X189565728Y-82812980D01*
X189588224Y-82656516D01*
X189588224Y-82641500D01*
X188497162Y-82641499D01*
X188346000Y-82446452D01*
X188346001Y-82133500D01*
X189587616Y-82133501D01*
X189564201Y-82025870D01*
X189789114Y-82067912D01*
X189845565Y-82078464D01*
X190346335Y-82078464D01*
X190508135Y-82040409D01*
X190561645Y-82000000D01*
X190808088Y-82000000D01*
X190897905Y-82139760D01*
X191057466Y-82278020D01*
X191249520Y-82365728D01*
X191405984Y-82388224D01*
X191421000Y-82388224D01*
X191421001Y-82000000D01*
X191587500Y-82000000D01*
X191793750Y-80000000D01*
X191929000Y-80000000D01*
X191928999Y-80377000D01*
G37*
%TD.AperFunction*%
%TD*%
%TA.AperFunction,Conductor*%
%TO.N,GND*%
G36*
X222000000Y-92000000D02*
G01*
X214544878Y-92000000D01*
X214476757Y-91979998D01*
X214430264Y-91926342D01*
X214420160Y-91856068D01*
X214449654Y-91791488D01*
X214518095Y-91750880D01*
X214792247Y-91691241D01*
X214969860Y-91577097D01*
X215108122Y-91417534D01*
X215195830Y-91225480D01*
X215218326Y-91069016D01*
X215218326Y-91054000D01*
X214484101Y-91053999D01*
X214484101Y-91054000D01*
X213242485Y-91053999D01*
X213301361Y-91324646D01*
X213415505Y-91502258D01*
X213575068Y-91640520D01*
X213767122Y-91728228D01*
X213913563Y-91749283D01*
X213978144Y-91778776D01*
X214016527Y-91838502D01*
X214016527Y-91909499D01*
X213978143Y-91969225D01*
X213895631Y-92000000D01*
X165000000Y-92000000D01*
X165000000Y-85788710D01*
X188974276Y-85788710D01*
X189033759Y-86062145D01*
X189147903Y-86239758D01*
X189307466Y-86378020D01*
X189499520Y-86465728D01*
X189655984Y-86488224D01*
X189671000Y-86488224D01*
X189671001Y-85754000D01*
X188974276Y-85753999D01*
X188974276Y-85788710D01*
X165000000Y-85788710D01*
X165000000Y-73793484D01*
X167461776Y-73793484D01*
X167461776Y-74388710D01*
X167521259Y-74662145D01*
X167635403Y-74839758D01*
X167778501Y-74963754D01*
X167778501Y-75741534D01*
X167710242Y-75785402D01*
X167571980Y-75944966D01*
X167490951Y-76122396D01*
X167484272Y-76137020D01*
X167461776Y-76293484D01*
X167461776Y-76888710D01*
X167521259Y-77162145D01*
X167635404Y-77339760D01*
X167778500Y-77463753D01*
X167778500Y-78441536D01*
X167710243Y-78485403D01*
X167710241Y-78485404D01*
X167571980Y-78644966D01*
X167509563Y-78781641D01*
X167484272Y-78837020D01*
X167461776Y-78993484D01*
X167461776Y-79588710D01*
X167521259Y-79862145D01*
X167622289Y-80019351D01*
X167635404Y-80039759D01*
X167794966Y-80178020D01*
X167987017Y-80265727D01*
X167987018Y-80265727D01*
X167987020Y-80265728D01*
X168143484Y-80288224D01*
X168663710Y-80288224D01*
X168937145Y-80228741D01*
X169114758Y-80114597D01*
X169192814Y-80024516D01*
X169210402Y-80039757D01*
X169210404Y-80039759D01*
X169369966Y-80178020D01*
X169562017Y-80265727D01*
X169562018Y-80265727D01*
X169562020Y-80265728D01*
X169718484Y-80288224D01*
X170238710Y-80288224D01*
X170512145Y-80228741D01*
X170689758Y-80114598D01*
X170754803Y-80039531D01*
X170828020Y-79955034D01*
X170828021Y-79955032D01*
X170846245Y-79934000D01*
X171582991Y-79934000D01*
X171601920Y-79962706D01*
X171642184Y-80023769D01*
X171754631Y-80143932D01*
X171799653Y-80192044D01*
X171983223Y-80331381D01*
X172187641Y-80437794D01*
X172407070Y-80508245D01*
X172635232Y-80540717D01*
X172635233Y-80540717D01*
X172865604Y-80534282D01*
X173091597Y-80489124D01*
X173091598Y-80489124D01*
X173091601Y-80489123D01*
X173306750Y-80406535D01*
X173433749Y-80331128D01*
X173504913Y-80288874D01*
X173680418Y-80139508D01*
X173780885Y-80019351D01*
X173828248Y-79962705D01*
X173886775Y-79862145D01*
X173944173Y-79763525D01*
X173944174Y-79763523D01*
X173975310Y-79710025D01*
X174182183Y-80023768D01*
X174339653Y-80192044D01*
X174523223Y-80331381D01*
X174727641Y-80437794D01*
X174947071Y-80508245D01*
X174998500Y-80515564D01*
X174998500Y-79434000D01*
X175506500Y-79434000D01*
X175506500Y-80514122D01*
X175631596Y-80489125D01*
X175846750Y-80406535D01*
X176044912Y-80288874D01*
X176220417Y-80139509D01*
X176368248Y-79962705D01*
X176484174Y-79763523D01*
X176564883Y-79547660D01*
X176586565Y-79434000D01*
X175506500Y-79434000D01*
X174998500Y-79434000D01*
X174998500Y-76894000D01*
X175506500Y-76894000D01*
X175506500Y-78926000D01*
X176586808Y-78926000D01*
X176571698Y-78837600D01*
X176495149Y-78620226D01*
X176383069Y-78418860D01*
X176238658Y-78239247D01*
X176066058Y-78086544D01*
X175777516Y-77907642D01*
X176044910Y-77748876D01*
X176220417Y-77599509D01*
X176368248Y-77422705D01*
X176484174Y-77223523D01*
X176564883Y-77007660D01*
X176586565Y-76894000D01*
X175506500Y-76894000D01*
X174998500Y-76894000D01*
X174998500Y-74354000D01*
X175506500Y-74354000D01*
X175506500Y-76386000D01*
X176586808Y-76386000D01*
X176571698Y-76297600D01*
X176495149Y-76080226D01*
X176383069Y-75878860D01*
X176238658Y-75699247D01*
X176066058Y-75546544D01*
X175777516Y-75367642D01*
X176044910Y-75208876D01*
X176220417Y-75059509D01*
X176368248Y-74882705D01*
X176484174Y-74683523D01*
X176564883Y-74467660D01*
X176586565Y-74354000D01*
X175506500Y-74354000D01*
X174998500Y-74354000D01*
X174998500Y-73846000D01*
X175506500Y-73846000D01*
X176586808Y-73846000D01*
X176571698Y-73757600D01*
X176495149Y-73540226D01*
X176383069Y-73338860D01*
X176238658Y-73159247D01*
X176066058Y-73006544D01*
X175870188Y-72885101D01*
X175656658Y-72798395D01*
X175506500Y-72765381D01*
X175506500Y-73846000D01*
X174998500Y-73846000D01*
X174998500Y-72762960D01*
X174972628Y-72766137D01*
X174751885Y-72832363D01*
X174545460Y-72934833D01*
X174359246Y-73070624D01*
X174255967Y-73176826D01*
X174194136Y-73211718D01*
X174123256Y-73207642D01*
X174065832Y-73165892D01*
X174043931Y-73121597D01*
X174009228Y-72992082D01*
X174009228Y-72992081D01*
X173894074Y-72854845D01*
X173738928Y-72765272D01*
X173650714Y-72749718D01*
X173562500Y-72734163D01*
X171862500Y-72734163D01*
X171755028Y-72762960D01*
X171604581Y-72803272D01*
X171467345Y-72918426D01*
X171377772Y-73073572D01*
X171367069Y-73134272D01*
X171346663Y-73250000D01*
X171346663Y-73466000D01*
X170832564Y-73466000D01*
X170764596Y-73360241D01*
X170605034Y-73221980D01*
X170516430Y-73181516D01*
X170412983Y-73134273D01*
X170412982Y-73134273D01*
X170412980Y-73134272D01*
X170256516Y-73111776D01*
X169736290Y-73111776D01*
X169462855Y-73171259D01*
X169285242Y-73285403D01*
X169220395Y-73360241D01*
X169207186Y-73375484D01*
X169189598Y-73360243D01*
X169189596Y-73360241D01*
X169030034Y-73221980D01*
X168837983Y-73134273D01*
X168837982Y-73134273D01*
X168837980Y-73134272D01*
X168681516Y-73111776D01*
X168161290Y-73111776D01*
X167887855Y-73171259D01*
X167710242Y-73285403D01*
X167710241Y-73285404D01*
X167632186Y-73375484D01*
X167571980Y-73444966D01*
X167484272Y-73637020D01*
X167461776Y-73793484D01*
X165000000Y-73793484D01*
X165000000Y-64300000D01*
X166453552Y-64300000D01*
X166600000Y-64446448D01*
X166705199Y-64341249D01*
X166758559Y-64312111D01*
X166600000Y-64153552D01*
X166453552Y-64300000D01*
X165000000Y-64300000D01*
X165000000Y-55300000D01*
X166453552Y-55300000D01*
X166600000Y-55446448D01*
X166705199Y-55341249D01*
X166758559Y-55312111D01*
X166600000Y-55153552D01*
X166453552Y-55300000D01*
X165000000Y-55300000D01*
X165000000Y-44794007D01*
X165836864Y-44794007D01*
X165855952Y-44969724D01*
X165914956Y-45136344D01*
X166021357Y-45301444D01*
X166018394Y-45305887D01*
X166018393Y-45305888D01*
X165920322Y-45452939D01*
X165858711Y-45618608D01*
X165858711Y-45618609D01*
X165836864Y-45794007D01*
X165855952Y-45969724D01*
X165855953Y-45969726D01*
X165914955Y-46136342D01*
X166010704Y-46284915D01*
X166010706Y-46284917D01*
X166021357Y-46301444D01*
X166018394Y-46305887D01*
X166018393Y-46305888D01*
X165920322Y-46452939D01*
X165858711Y-46618608D01*
X165858711Y-46618609D01*
X165836864Y-46794007D01*
X165855952Y-46969724D01*
X165855953Y-46969726D01*
X165914955Y-47136342D01*
X166010704Y-47284915D01*
X166010706Y-47284917D01*
X166021357Y-47301444D01*
X166018394Y-47305887D01*
X166018393Y-47305888D01*
X165920322Y-47452939D01*
X165858711Y-47618608D01*
X165858711Y-47618609D01*
X165836864Y-47794007D01*
X165855952Y-47969724D01*
X165855953Y-47969726D01*
X165914955Y-48136342D01*
X166010704Y-48284915D01*
X166010706Y-48284917D01*
X166021357Y-48301444D01*
X166018394Y-48305887D01*
X166018393Y-48305888D01*
X165920322Y-48452939D01*
X165858711Y-48618608D01*
X165858711Y-48618609D01*
X165836864Y-48794007D01*
X165855952Y-48969724D01*
X165855953Y-48969726D01*
X165914955Y-49136342D01*
X166010704Y-49284915D01*
X166010706Y-49284917D01*
X166021357Y-49301444D01*
X166018394Y-49305887D01*
X166018393Y-49305888D01*
X165920322Y-49452939D01*
X165858711Y-49618608D01*
X165858711Y-49618609D01*
X165836864Y-49794007D01*
X165855952Y-49969724D01*
X165855953Y-49969726D01*
X165914955Y-50136342D01*
X166010704Y-50284915D01*
X166010706Y-50284917D01*
X166021357Y-50301444D01*
X166018394Y-50305887D01*
X166018393Y-50305888D01*
X165920322Y-50452939D01*
X165858711Y-50618608D01*
X165858711Y-50618609D01*
X165836864Y-50794007D01*
X165855952Y-50969724D01*
X165855953Y-50969726D01*
X165914955Y-51136342D01*
X166010704Y-51284915D01*
X166010706Y-51284917D01*
X166021357Y-51301444D01*
X166018394Y-51305887D01*
X166018393Y-51305888D01*
X165920322Y-51452939D01*
X165858711Y-51618608D01*
X165858711Y-51618609D01*
X165836864Y-51794007D01*
X165855952Y-51969724D01*
X165855953Y-51969726D01*
X165914955Y-52136342D01*
X166010704Y-52284915D01*
X166010706Y-52284917D01*
X166021357Y-52301444D01*
X166018394Y-52305887D01*
X166018393Y-52305888D01*
X165920322Y-52452939D01*
X165858711Y-52618608D01*
X165858711Y-52618609D01*
X165836864Y-52794007D01*
X165855952Y-52969724D01*
X165855953Y-52969726D01*
X165914955Y-53136342D01*
X166010704Y-53284915D01*
X166010706Y-53284917D01*
X166021357Y-53301444D01*
X166018394Y-53305887D01*
X166018393Y-53305888D01*
X165920322Y-53452939D01*
X165858711Y-53618608D01*
X165839562Y-53772346D01*
X165836864Y-53794007D01*
X165855952Y-53969724D01*
X165855953Y-53969726D01*
X165914955Y-54136342D01*
X166010704Y-54284915D01*
X166010706Y-54284917D01*
X166021357Y-54301444D01*
X165920323Y-54452938D01*
X165858711Y-54618609D01*
X165836864Y-54794007D01*
X165855952Y-54969724D01*
X165913687Y-55132760D01*
X166493983Y-54552463D01*
X166635284Y-54562344D01*
X166635285Y-54562344D01*
X166704553Y-54551001D01*
X166809718Y-54533780D01*
X166924700Y-54485917D01*
X166995276Y-54478204D01*
X167058819Y-54509873D01*
X167095153Y-54570867D01*
X167092742Y-54641823D01*
X167062216Y-54691336D01*
X166953552Y-54800000D01*
X167113354Y-54959801D01*
X167143967Y-54902481D01*
X167246448Y-54800000D01*
X167147932Y-54701484D01*
X167113906Y-54639172D01*
X167118971Y-54568357D01*
X167161518Y-54511521D01*
X167228038Y-54486710D01*
X167274736Y-54497709D01*
X167276177Y-54493083D01*
X167290202Y-54497451D01*
X167290203Y-54497452D01*
X167425561Y-54539611D01*
X167458961Y-54550014D01*
X167635284Y-54562344D01*
X167635285Y-54562344D01*
X167704553Y-54551001D01*
X167809718Y-54533780D01*
X167924700Y-54485917D01*
X167995276Y-54478204D01*
X168058819Y-54509873D01*
X168095153Y-54570867D01*
X168092742Y-54641823D01*
X168062216Y-54691336D01*
X167953552Y-54800000D01*
X168063102Y-54909550D01*
X168097128Y-54971862D01*
X168092063Y-55042677D01*
X168049516Y-55099513D01*
X167982996Y-55124324D01*
X167923766Y-55114195D01*
X167821215Y-55069605D01*
X167647255Y-55038304D01*
X167470759Y-55047863D01*
X167314581Y-55093829D01*
X167301194Y-55097769D01*
X167295490Y-55101023D01*
X167226408Y-55117400D01*
X167222136Y-55115896D01*
X167147665Y-55185341D01*
X167147663Y-55185342D01*
X167018393Y-55305888D01*
X166920322Y-55452939D01*
X166920320Y-55452946D01*
X166914113Y-55462252D01*
X166912392Y-55474261D01*
X166858711Y-55618608D01*
X166847125Y-55711623D01*
X166836864Y-55794007D01*
X166848885Y-55904669D01*
X166704883Y-56048671D01*
X166647259Y-56038304D01*
X166647255Y-56038304D01*
X166622324Y-56039654D01*
X166493098Y-56046652D01*
X165914647Y-55468201D01*
X165858711Y-55618609D01*
X165836864Y-55794007D01*
X165855952Y-55969724D01*
X165914956Y-56136344D01*
X166021357Y-56301444D01*
X166018394Y-56305887D01*
X166018393Y-56305888D01*
X165920322Y-56452939D01*
X165858711Y-56618608D01*
X165847125Y-56711623D01*
X165836864Y-56794007D01*
X165855952Y-56969724D01*
X165855953Y-56969726D01*
X165914955Y-57136342D01*
X166010704Y-57284915D01*
X166010706Y-57284917D01*
X166021357Y-57301444D01*
X165920323Y-57452938D01*
X165858711Y-57618609D01*
X165836864Y-57794007D01*
X165855952Y-57969724D01*
X165914956Y-58136344D01*
X166021357Y-58301444D01*
X166018395Y-58305886D01*
X166018393Y-58305888D01*
X165920322Y-58452939D01*
X165858711Y-58618608D01*
X165847125Y-58711623D01*
X165836864Y-58794007D01*
X165855952Y-58969724D01*
X165855953Y-58969726D01*
X165914955Y-59136342D01*
X166010704Y-59284915D01*
X166010706Y-59284917D01*
X166021357Y-59301444D01*
X165920323Y-59452938D01*
X165858711Y-59618609D01*
X165836864Y-59794007D01*
X165855952Y-59969724D01*
X165914956Y-60136344D01*
X166021357Y-60301444D01*
X166018395Y-60305886D01*
X166018393Y-60305888D01*
X165920322Y-60452939D01*
X165858711Y-60618608D01*
X165847125Y-60711623D01*
X165836864Y-60794007D01*
X165855952Y-60969724D01*
X165855953Y-60969726D01*
X165914955Y-61136342D01*
X166010704Y-61284915D01*
X166010706Y-61284917D01*
X166021357Y-61301444D01*
X165920323Y-61452938D01*
X165858711Y-61618609D01*
X165836864Y-61794007D01*
X165855952Y-61969724D01*
X165914956Y-62136344D01*
X166021357Y-62301444D01*
X166018395Y-62305886D01*
X166018393Y-62305888D01*
X165920322Y-62452939D01*
X165858711Y-62618608D01*
X165858711Y-62618609D01*
X165836864Y-62794007D01*
X165855952Y-62969724D01*
X165855953Y-62969726D01*
X165914955Y-63136342D01*
X166010704Y-63284915D01*
X166010706Y-63284917D01*
X166021357Y-63301444D01*
X165920323Y-63452938D01*
X165858711Y-63618609D01*
X165836864Y-63794007D01*
X165855952Y-63969724D01*
X165913687Y-64132760D01*
X166493983Y-63552463D01*
X166635284Y-63562344D01*
X166635285Y-63562344D01*
X166695625Y-63552463D01*
X166809718Y-63533780D01*
X166924700Y-63485917D01*
X166995276Y-63478204D01*
X167058819Y-63509873D01*
X167095153Y-63570867D01*
X167092742Y-63641823D01*
X167062216Y-63691336D01*
X166953552Y-63800000D01*
X167113354Y-63959801D01*
X167143967Y-63902481D01*
X167246448Y-63800000D01*
X167147932Y-63701484D01*
X167113906Y-63639172D01*
X167118971Y-63568357D01*
X167161518Y-63511521D01*
X167228038Y-63486710D01*
X167274736Y-63497709D01*
X167276177Y-63493083D01*
X167290202Y-63497451D01*
X167290203Y-63497452D01*
X167458961Y-63550014D01*
X167635284Y-63562344D01*
X167635285Y-63562344D01*
X167695625Y-63552463D01*
X167809718Y-63533780D01*
X167924700Y-63485917D01*
X167995276Y-63478204D01*
X168058819Y-63509873D01*
X168095153Y-63570867D01*
X168092742Y-63641823D01*
X168062216Y-63691336D01*
X167953552Y-63800000D01*
X168063102Y-63909550D01*
X168097128Y-63971862D01*
X168092063Y-64042677D01*
X168049516Y-64099513D01*
X167982996Y-64124324D01*
X167923766Y-64114195D01*
X167821215Y-64069605D01*
X167647255Y-64038304D01*
X167470759Y-64047863D01*
X167314581Y-64093829D01*
X167301194Y-64097769D01*
X167295490Y-64101023D01*
X167226408Y-64117400D01*
X167222136Y-64115896D01*
X167147665Y-64185341D01*
X167147663Y-64185342D01*
X167018393Y-64305888D01*
X166920322Y-64452939D01*
X166920320Y-64452946D01*
X166914113Y-64462252D01*
X166912392Y-64474261D01*
X166858711Y-64618608D01*
X166858711Y-64618609D01*
X166836864Y-64794007D01*
X166848885Y-64904669D01*
X166704883Y-65048671D01*
X166647259Y-65038304D01*
X166647255Y-65038304D01*
X166622324Y-65039654D01*
X166493098Y-65046652D01*
X165914647Y-64468201D01*
X165858711Y-64618609D01*
X165836864Y-64794007D01*
X165855952Y-64969724D01*
X165914956Y-65136344D01*
X166021357Y-65301444D01*
X166018394Y-65305887D01*
X166018393Y-65305888D01*
X165920322Y-65452939D01*
X165858711Y-65618608D01*
X165858711Y-65618609D01*
X165836864Y-65794007D01*
X165855952Y-65969724D01*
X165914956Y-66136345D01*
X166010702Y-66284914D01*
X166138065Y-66407478D01*
X166290200Y-66497451D01*
X166458961Y-66550014D01*
X166635284Y-66562344D01*
X166635285Y-66562344D01*
X166693054Y-66552884D01*
X166809718Y-66533780D01*
X166972895Y-66465855D01*
X167091546Y-66379966D01*
X167290200Y-66497451D01*
X167458961Y-66550014D01*
X167635284Y-66562344D01*
X167635285Y-66562344D01*
X167693054Y-66552884D01*
X167809718Y-66533780D01*
X167972895Y-66465855D01*
X168091546Y-66379966D01*
X168290200Y-66497451D01*
X168458961Y-66550014D01*
X168635284Y-66562344D01*
X168635285Y-66562344D01*
X168693054Y-66552884D01*
X168809718Y-66533780D01*
X168972895Y-66465855D01*
X169091546Y-66379966D01*
X169290200Y-66497451D01*
X169458961Y-66550014D01*
X169635284Y-66562344D01*
X169635285Y-66562344D01*
X169693054Y-66552884D01*
X169809718Y-66533780D01*
X169972895Y-66465855D01*
X170091546Y-66379966D01*
X170290200Y-66497451D01*
X170458961Y-66550014D01*
X170635284Y-66562344D01*
X170635285Y-66562344D01*
X170693054Y-66552884D01*
X170809718Y-66533780D01*
X170972895Y-66465855D01*
X171091546Y-66379966D01*
X171290200Y-66497451D01*
X171458961Y-66550014D01*
X171635284Y-66562344D01*
X171635285Y-66562344D01*
X171693054Y-66552884D01*
X171809718Y-66533780D01*
X171972895Y-66465855D01*
X172091546Y-66379966D01*
X172290200Y-66497451D01*
X172458961Y-66550014D01*
X172635284Y-66562344D01*
X172635285Y-66562344D01*
X172693054Y-66552884D01*
X172809718Y-66533780D01*
X172972895Y-66465855D01*
X173091546Y-66379966D01*
X173290200Y-66497451D01*
X173458961Y-66550014D01*
X173635284Y-66562344D01*
X173809718Y-66533780D01*
X173972895Y-66465855D01*
X174091546Y-66379966D01*
X174290200Y-66497451D01*
X174458961Y-66550014D01*
X174635284Y-66562344D01*
X174635285Y-66562344D01*
X174693054Y-66552884D01*
X174809718Y-66533780D01*
X174972895Y-66465855D01*
X175091546Y-66379966D01*
X175290200Y-66497451D01*
X175458961Y-66550014D01*
X175635284Y-66562344D01*
X175635285Y-66562344D01*
X175693054Y-66552884D01*
X175809718Y-66533780D01*
X175972895Y-66465855D01*
X176091546Y-66379966D01*
X176290200Y-66497451D01*
X176458961Y-66550014D01*
X176635284Y-66562344D01*
X176635285Y-66562344D01*
X176693054Y-66552884D01*
X176809718Y-66533780D01*
X176972895Y-66465855D01*
X177091546Y-66379966D01*
X177290200Y-66497451D01*
X177458961Y-66550014D01*
X177635284Y-66562344D01*
X177635285Y-66562344D01*
X177693054Y-66552884D01*
X177809718Y-66533780D01*
X177972895Y-66465855D01*
X178091546Y-66379966D01*
X178236776Y-66465855D01*
X178290203Y-66497452D01*
X178355252Y-66517712D01*
X178500000Y-66562797D01*
X178500000Y-80000000D01*
X187615018Y-80000000D01*
X187683139Y-80020002D01*
X187729632Y-80073658D01*
X187739736Y-80143932D01*
X187724890Y-80176379D01*
X187729506Y-80178487D01*
X187721981Y-80194965D01*
X187721980Y-80194966D01*
X187648203Y-80356516D01*
X187634272Y-80387020D01*
X187611776Y-80543484D01*
X187611776Y-81063710D01*
X187671259Y-81337145D01*
X187792008Y-81525035D01*
X187634838Y-81646842D01*
X187550132Y-81764027D01*
X187536071Y-81803741D01*
X187501874Y-81900327D01*
X187493971Y-82044703D01*
X187527063Y-82185457D01*
X187598469Y-82311186D01*
X187598472Y-82311189D01*
X187611776Y-82334615D01*
X187611776Y-82638710D01*
X187665981Y-82887882D01*
X187671259Y-82912145D01*
X187785404Y-83089759D01*
X187944966Y-83228020D01*
X188137017Y-83315727D01*
X188137018Y-83315727D01*
X188137020Y-83315728D01*
X188293484Y-83338224D01*
X188394423Y-83338224D01*
X189366758Y-84592849D01*
X189222741Y-84685404D01*
X189084480Y-84844966D01*
X188996772Y-85037020D01*
X188974276Y-85193484D01*
X188974276Y-85246000D01*
X189671001Y-85246001D01*
X189671001Y-85246000D01*
X189872950Y-85246000D01*
X190179000Y-85640904D01*
X190178999Y-86487617D01*
X190204500Y-86482069D01*
X190204500Y-89000002D01*
X190250406Y-89211030D01*
X190328579Y-89332670D01*
X190424984Y-89416205D01*
X190437854Y-89427357D01*
X190495488Y-89453677D01*
X190569382Y-89487423D01*
X190712497Y-89508000D01*
X213248794Y-89508000D01*
X213301361Y-89749645D01*
X213415505Y-89927258D01*
X213505586Y-90005314D01*
X213352082Y-90182466D01*
X213264374Y-90374520D01*
X213241878Y-90530984D01*
X213241878Y-90546000D01*
X213976103Y-90546001D01*
X213976103Y-90546000D01*
X215217719Y-90546001D01*
X215158843Y-90275354D01*
X215044699Y-90097742D01*
X214954618Y-90019686D01*
X214969859Y-90002098D01*
X214969861Y-90002096D01*
X215108122Y-89842534D01*
X215195829Y-89650483D01*
X215195829Y-89650482D01*
X215195830Y-89650480D01*
X215224126Y-89453678D01*
X215274444Y-89421340D01*
X215332670Y-89383921D01*
X215427356Y-89274647D01*
X215427357Y-89274646D01*
X215487422Y-89143120D01*
X215487423Y-89143118D01*
X215508000Y-89000003D01*
X215508000Y-86240837D01*
X215976102Y-86240837D01*
X215976102Y-85975656D01*
X215972130Y-85962127D01*
X215962256Y-85960708D01*
X215226549Y-85225000D01*
X215933656Y-85225000D01*
X215963292Y-85254636D01*
X215971989Y-85259385D01*
X215976102Y-85247029D01*
X215976102Y-85202971D01*
X216484102Y-85202971D01*
X216484102Y-85249332D01*
X216486893Y-85258839D01*
X216498539Y-85253009D01*
X216526548Y-85225000D01*
X216496912Y-85195364D01*
X216488215Y-85190615D01*
X216484102Y-85202971D01*
X215976102Y-85202971D01*
X215976102Y-85200668D01*
X215973311Y-85191161D01*
X215961665Y-85196991D01*
X215933656Y-85225000D01*
X215226549Y-85225000D01*
X215219725Y-85218176D01*
X215243840Y-85058172D01*
X215243840Y-84839376D01*
X215263842Y-84771255D01*
X215310391Y-84730920D01*
X215306236Y-84727809D01*
X215414044Y-84727809D01*
X215458935Y-84750281D01*
X215580102Y-84871448D01*
X215726550Y-84725000D01*
X216733654Y-84725000D01*
X216880102Y-84871448D01*
X217001269Y-84750281D01*
X217043544Y-84727197D01*
X217006739Y-84705189D01*
X216880102Y-84578552D01*
X216733654Y-84725000D01*
X215726550Y-84725000D01*
X215580102Y-84578552D01*
X215451054Y-84707600D01*
X215414044Y-84727809D01*
X215306236Y-84727809D01*
X215261091Y-84694014D01*
X215238156Y-84641930D01*
X215204838Y-84465838D01*
X215140544Y-84354479D01*
X215124631Y-84326917D01*
X215226548Y-84225000D01*
X215933656Y-84225000D01*
X215963292Y-84254636D01*
X215971989Y-84259385D01*
X215976102Y-84247029D01*
X215976102Y-84202971D01*
X216484102Y-84202971D01*
X216484102Y-84249332D01*
X216486893Y-84258839D01*
X216498539Y-84253009D01*
X216526548Y-84225000D01*
X216496912Y-84195364D01*
X216488215Y-84190615D01*
X216484102Y-84202971D01*
X215976102Y-84202971D01*
X215976102Y-84200668D01*
X215973311Y-84191161D01*
X215961665Y-84196991D01*
X215933656Y-84225000D01*
X215226548Y-84225000D01*
X215226549Y-84224999D01*
X214845550Y-83844000D01*
X214298825Y-83844000D01*
X214259242Y-83778029D01*
X214227425Y-83725000D01*
X215433654Y-83725000D01*
X215580102Y-83871448D01*
X215726550Y-83725000D01*
X216733654Y-83725000D01*
X216880102Y-83871448D01*
X217009150Y-83742400D01*
X217046160Y-83722191D01*
X217001269Y-83699719D01*
X216880102Y-83578552D01*
X216733654Y-83725000D01*
X215726550Y-83725000D01*
X215580102Y-83578552D01*
X215433654Y-83725000D01*
X214227425Y-83725000D01*
X214108521Y-83526826D01*
X214090625Y-83458122D01*
X214112714Y-83390650D01*
X214167775Y-83345830D01*
X214216565Y-83336000D01*
X215115549Y-83336000D01*
X215226548Y-83225000D01*
X215933656Y-83225000D01*
X215963292Y-83254636D01*
X215971989Y-83259385D01*
X215976102Y-83247029D01*
X215976102Y-83202971D01*
X216484102Y-83202971D01*
X216484102Y-83249332D01*
X216486893Y-83258839D01*
X216498539Y-83253009D01*
X216526548Y-83225000D01*
X216496912Y-83195364D01*
X216488215Y-83190615D01*
X216484102Y-83202971D01*
X215976102Y-83202971D01*
X215976102Y-83200668D01*
X215973311Y-83191161D01*
X215961665Y-83196991D01*
X215933656Y-83225000D01*
X215226548Y-83225000D01*
X215963294Y-82488254D01*
X215970886Y-82487712D01*
X215976102Y-82472041D01*
X215976102Y-82209163D01*
X215258447Y-82209163D01*
X215227328Y-82044703D01*
X215204838Y-81925838D01*
X215204836Y-81925835D01*
X215192989Y-81863224D01*
X215276102Y-81863224D01*
X215276103Y-80658500D01*
X215746116Y-80658501D01*
X215778867Y-80699822D01*
X215784102Y-80703625D01*
X215784101Y-81863224D01*
X215818812Y-81863224D01*
X216092247Y-81803741D01*
X216269861Y-81689596D01*
X216369356Y-81574771D01*
X216574027Y-81752118D01*
X216575068Y-81753020D01*
X216767119Y-81840727D01*
X216767120Y-81840727D01*
X216767122Y-81840728D01*
X216923586Y-81863224D01*
X217255343Y-81863224D01*
X217238746Y-81973337D01*
X217238745Y-81973339D01*
X217216364Y-82121828D01*
X217216364Y-82121832D01*
X217203201Y-82209163D01*
X216484102Y-82209163D01*
X216484102Y-82474344D01*
X216488074Y-82487873D01*
X216497948Y-82489292D01*
X217240481Y-83231825D01*
X217238746Y-83243337D01*
X217238745Y-83243339D01*
X217216542Y-83390650D01*
X217216364Y-83391831D01*
X217216364Y-83610624D01*
X217196362Y-83678745D01*
X217149813Y-83719080D01*
X217199113Y-83755986D01*
X217222048Y-83808070D01*
X217255366Y-83984162D01*
X217313422Y-84084716D01*
X217335573Y-84123083D01*
X217233655Y-84225000D01*
X217330813Y-84322157D01*
X217325780Y-84332609D01*
X217238745Y-84513339D01*
X217228916Y-84578552D01*
X217220427Y-84634873D01*
X217190495Y-84699252D01*
X217144129Y-84728606D01*
X217191232Y-84763867D01*
X217216364Y-84839376D01*
X217216364Y-85048029D01*
X217247272Y-85211384D01*
X216496910Y-85961746D01*
X216489318Y-85962288D01*
X216484102Y-85977959D01*
X216484102Y-86240837D01*
X217201758Y-86240837D01*
X217218283Y-86328172D01*
X217255366Y-86524162D01*
X217355664Y-86697882D01*
X217502711Y-86834322D01*
X217683441Y-86921357D01*
X217831930Y-86943738D01*
X219568132Y-86943738D01*
X219774264Y-86904736D01*
X219947984Y-86804438D01*
X220084424Y-86657391D01*
X220171458Y-86476663D01*
X220171459Y-86476661D01*
X220193840Y-86328172D01*
X220193840Y-85941971D01*
X220158275Y-85754000D01*
X220127055Y-85589000D01*
X220566347Y-85589000D01*
X220641681Y-85595326D01*
X220726364Y-85579172D01*
X220805970Y-85568692D01*
X220827025Y-85559969D01*
X220854025Y-85554819D01*
X220927414Y-85518389D01*
X220997903Y-85489191D01*
X221019287Y-85472783D01*
X221047653Y-85458701D01*
X221105403Y-85406703D01*
X221162721Y-85362721D01*
X221181660Y-85338041D01*
X221208298Y-85314055D01*
X221208300Y-85314053D01*
X221247678Y-85252003D01*
X221278847Y-85211383D01*
X221289189Y-85197906D01*
X221302683Y-85165329D01*
X221324130Y-85131534D01*
X221324131Y-85131533D01*
X221344161Y-85065192D01*
X221368691Y-85005970D01*
X221373833Y-84966912D01*
X221386612Y-84924587D01*
X221387235Y-84865120D01*
X221395808Y-84800000D01*
X221388498Y-84744474D01*
X221389048Y-84691914D01*
X221389048Y-84691912D01*
X221374914Y-84641286D01*
X221368692Y-84594031D01*
X221347298Y-84542382D01*
X221330915Y-84483705D01*
X221305851Y-84442319D01*
X221289190Y-84402096D01*
X221252656Y-84354485D01*
X221218932Y-84298799D01*
X221186706Y-84268536D01*
X221162721Y-84237278D01*
X221111867Y-84198257D01*
X221061349Y-84150818D01*
X221025878Y-84132274D01*
X220997904Y-84110810D01*
X220934907Y-84084716D01*
X220849112Y-84039862D01*
X220849112Y-81406715D01*
X220855919Y-81355010D01*
X220849112Y-81303305D01*
X220849112Y-81303299D01*
X220828803Y-81149038D01*
X220820613Y-81129264D01*
X220794294Y-81065726D01*
X220749301Y-80957104D01*
X220622836Y-80792291D01*
X220606550Y-80779795D01*
X220581450Y-80760535D01*
X220212076Y-80391160D01*
X220180323Y-80349779D01*
X220156017Y-80331128D01*
X220015508Y-80223311D01*
X219940023Y-80192044D01*
X219823572Y-80143809D01*
X219790911Y-80139509D01*
X219669314Y-80123500D01*
X219669307Y-80123500D01*
X219617602Y-80116693D01*
X219565897Y-80123500D01*
X219176500Y-80123500D01*
X219176500Y-78339204D01*
X219183307Y-78287499D01*
X219176500Y-78235794D01*
X219176500Y-78235788D01*
X219156191Y-78081530D01*
X219076690Y-77889596D01*
X218999475Y-77788968D01*
X218976943Y-77759603D01*
X218950222Y-77724780D01*
X218932263Y-77711000D01*
X218908844Y-77693030D01*
X218389000Y-77173186D01*
X218389000Y-76834129D01*
X218443126Y-76784301D01*
X218444761Y-76781280D01*
X218534999Y-76614535D01*
X218558774Y-76472059D01*
X218558774Y-76236703D01*
X218548829Y-76156916D01*
X218533687Y-76122396D01*
X218539133Y-76089759D01*
X218558774Y-75972059D01*
X218558774Y-75736707D01*
X218558717Y-75736247D01*
X218548829Y-75656916D01*
X218533687Y-75622396D01*
X218539534Y-75587357D01*
X218558774Y-75472059D01*
X218558774Y-75236703D01*
X218548829Y-75156916D01*
X218533687Y-75122396D01*
X218537472Y-75099714D01*
X218558774Y-74972059D01*
X218558774Y-74736707D01*
X218552145Y-74683523D01*
X218548829Y-74656916D01*
X218533687Y-74622396D01*
X218535688Y-74610404D01*
X218558774Y-74472059D01*
X218558774Y-74236703D01*
X218548829Y-74156916D01*
X218507202Y-74062017D01*
X218471288Y-73980142D01*
X218340551Y-73838124D01*
X218340550Y-73838123D01*
X218242832Y-73785241D01*
X218170785Y-73746251D01*
X218028309Y-73722476D01*
X217359209Y-73722476D01*
X217195178Y-73627772D01*
X217106964Y-73612218D01*
X217018750Y-73596663D01*
X215318750Y-73596663D01*
X215202650Y-73627772D01*
X215060831Y-73665772D01*
X214993254Y-73722476D01*
X214292953Y-73722476D01*
X214213166Y-73732421D01*
X214036394Y-73809962D01*
X213894373Y-73940700D01*
X213792494Y-74128956D01*
X213788704Y-74126905D01*
X213774615Y-74155992D01*
X213714033Y-74193010D01*
X213643055Y-74191399D01*
X213584215Y-74151670D01*
X213558168Y-74098127D01*
X213528741Y-73962855D01*
X213528740Y-73962854D01*
X213528740Y-73962852D01*
X213414597Y-73785242D01*
X213324516Y-73707186D01*
X213478020Y-73530034D01*
X213565728Y-73337980D01*
X213588224Y-73181516D01*
X213588224Y-73166500D01*
X212853999Y-73166499D01*
X212853999Y-73166500D01*
X211577000Y-73166499D01*
X211577000Y-73077663D01*
X211455036Y-72971981D01*
X211262980Y-72884272D01*
X211106516Y-72861776D01*
X211054000Y-72861776D01*
X211053999Y-73558501D01*
X211054000Y-73558501D01*
X211053999Y-74066500D01*
X209812383Y-74066499D01*
X209871259Y-74337146D01*
X209985403Y-74514758D01*
X210075484Y-74592814D01*
X210060243Y-74610402D01*
X210060241Y-74610404D01*
X209921980Y-74769966D01*
X209839762Y-74949999D01*
X209834272Y-74962020D01*
X209811776Y-75118484D01*
X209811776Y-75638710D01*
X209871258Y-75912144D01*
X209909762Y-75972057D01*
X209981514Y-76083705D01*
X210011001Y-76129588D01*
X210011000Y-76192231D01*
X209921980Y-76294966D01*
X209841106Y-76472056D01*
X209834272Y-76487020D01*
X209811776Y-76643484D01*
X209811776Y-77163710D01*
X209871259Y-77437145D01*
X209985403Y-77614758D01*
X210075484Y-77692814D01*
X210060243Y-77710402D01*
X210060241Y-77710404D01*
X209921980Y-77869966D01*
X209855822Y-78014833D01*
X209834272Y-78062020D01*
X209811776Y-78218484D01*
X209811776Y-78738709D01*
X209823979Y-78794803D01*
X209871259Y-79012145D01*
X209871260Y-79012146D01*
X209898372Y-79136776D01*
X209211290Y-79136776D01*
X208937856Y-79196258D01*
X208858931Y-79246980D01*
X208775830Y-79300386D01*
X208741861Y-79322216D01*
X208655034Y-79246980D01*
X208462983Y-79159273D01*
X208462982Y-79159273D01*
X208462980Y-79159272D01*
X208306516Y-79136776D01*
X207711290Y-79136776D01*
X207437855Y-79196259D01*
X207247932Y-79318314D01*
X207180034Y-79259480D01*
X206987983Y-79171773D01*
X206987982Y-79171773D01*
X206987980Y-79171772D01*
X206831516Y-79149276D01*
X206236291Y-79149276D01*
X206153143Y-79167364D01*
X206019972Y-79196334D01*
X205949157Y-79191270D01*
X205892321Y-79148723D01*
X205867510Y-79082203D01*
X205897964Y-78990702D01*
X206015520Y-78855034D01*
X206103228Y-78662980D01*
X206125724Y-78506516D01*
X206125724Y-78454000D01*
X204921000Y-78454000D01*
X204921000Y-77212383D01*
X204650354Y-77271259D01*
X204472742Y-77385403D01*
X204394686Y-77475484D01*
X204377098Y-77460243D01*
X204377096Y-77460241D01*
X204217534Y-77321980D01*
X204025483Y-77234273D01*
X204025482Y-77234273D01*
X204025480Y-77234272D01*
X203869016Y-77211776D01*
X205429000Y-77211776D01*
X205429000Y-77946000D01*
X206125724Y-77946000D01*
X206125724Y-77911290D01*
X206066241Y-77637855D01*
X205952097Y-77460242D01*
X205792534Y-77321980D01*
X205600480Y-77234272D01*
X205444016Y-77211776D01*
X205429000Y-77211776D01*
X203869016Y-77211776D01*
X203348790Y-77211776D01*
X203075355Y-77271259D01*
X202897742Y-77385403D01*
X202897741Y-77385404D01*
X202759480Y-77544966D01*
X202677362Y-77724780D01*
X202671772Y-77737020D01*
X202649835Y-77889596D01*
X202649276Y-77893487D01*
X202649276Y-78488708D01*
X202677887Y-78620228D01*
X202683117Y-78644270D01*
X202678052Y-78715085D01*
X202638548Y-78767856D01*
X202695479Y-78776817D01*
X202747612Y-78822602D01*
X202822904Y-78939759D01*
X202982466Y-79078020D01*
X202982467Y-79078021D01*
X203071391Y-79155073D01*
X202797932Y-79330814D01*
X202730034Y-79271980D01*
X202537983Y-79184273D01*
X202537981Y-79184273D01*
X202537038Y-79183842D01*
X202537243Y-79164315D01*
X202539048Y-78991914D01*
X202524486Y-78939759D01*
X202520256Y-78924607D01*
X202521202Y-78853617D01*
X202560116Y-78794803D01*
X202499611Y-78781641D01*
X202452220Y-78736324D01*
X202368932Y-78598799D01*
X202329426Y-78561700D01*
X202211349Y-78450818D01*
X202019777Y-78350667D01*
X201808328Y-78305722D01*
X201808324Y-78305722D01*
X201592582Y-78319294D01*
X201212310Y-78451720D01*
X201211349Y-78450818D01*
X201210556Y-78450404D01*
X201212985Y-78218487D01*
X201214048Y-78116914D01*
X201207784Y-78094478D01*
X201155916Y-77908706D01*
X201043932Y-77723799D01*
X200886349Y-77575818D01*
X200694777Y-77475667D01*
X200483328Y-77430722D01*
X200483324Y-77430722D01*
X200267584Y-77444294D01*
X200230223Y-77457305D01*
X200118577Y-77496184D01*
X199917534Y-77321980D01*
X199850505Y-77291369D01*
X199725483Y-77234273D01*
X199725482Y-77234273D01*
X199725480Y-77234272D01*
X199569016Y-77211776D01*
X199048790Y-77211776D01*
X198775355Y-77271259D01*
X198597742Y-77385403D01*
X198529454Y-77464212D01*
X198519686Y-77475484D01*
X198502098Y-77460243D01*
X198502096Y-77460241D01*
X198342534Y-77321980D01*
X198150483Y-77234273D01*
X198063242Y-77221730D01*
X197998665Y-77192237D01*
X197960281Y-77132511D01*
X197960281Y-77061515D01*
X197992082Y-77007918D01*
X198488984Y-76511016D01*
X198500341Y-76506927D01*
X198510767Y-76500000D01*
X198648521Y-76500000D01*
X198799086Y-76559613D01*
X198968799Y-76582860D01*
X198968801Y-76582860D01*
X199082378Y-76570923D01*
X199139167Y-76564954D01*
X199219754Y-76535940D01*
X199300341Y-76506927D01*
X199379976Y-76454018D01*
X199439815Y-76496553D01*
X199599086Y-76559613D01*
X199768799Y-76582860D01*
X199939167Y-76564954D01*
X200100340Y-76506927D01*
X200179966Y-76454022D01*
X200239811Y-76496551D01*
X200239814Y-76496552D01*
X200239815Y-76496553D01*
X200399086Y-76559613D01*
X200568799Y-76582860D01*
X200568801Y-76582860D01*
X200682378Y-76570923D01*
X200739167Y-76564954D01*
X200819754Y-76535940D01*
X200900341Y-76506927D01*
X200979976Y-76454018D01*
X201039815Y-76496553D01*
X201199086Y-76559613D01*
X201402903Y-76587531D01*
X201410720Y-76606126D01*
X201410720Y-76606128D01*
X201494490Y-76805409D01*
X201628765Y-76974822D01*
X201803653Y-77101885D01*
X201945990Y-77154820D01*
X202006267Y-77177237D01*
X202221681Y-77195326D01*
X202434023Y-77154820D01*
X202478964Y-77132511D01*
X202627653Y-77058701D01*
X202788300Y-76914053D01*
X202812872Y-76875334D01*
X202904132Y-76731533D01*
X202948370Y-76585006D01*
X203139167Y-76564954D01*
X203300343Y-76506926D01*
X203320827Y-76493317D01*
X202910454Y-76082944D01*
X202905941Y-76075493D01*
X202872492Y-76020255D01*
X202885835Y-75970457D01*
X202887711Y-75791385D01*
X203033394Y-75776071D01*
X203139166Y-75764954D01*
X203139172Y-75764952D01*
X203155704Y-75763214D01*
X203601382Y-76208892D01*
X203641498Y-76135920D01*
X203685835Y-75970453D01*
X203687784Y-75784350D01*
X203617941Y-75500000D01*
X206500001Y-75500000D01*
X208456517Y-73543484D01*
X209811776Y-73543484D01*
X209811776Y-73558500D01*
X210546000Y-73558501D01*
X210546001Y-72861776D01*
X210511290Y-72861776D01*
X210237855Y-72921259D01*
X210060242Y-73035403D01*
X209921980Y-73194966D01*
X209834272Y-73387020D01*
X209811776Y-73543484D01*
X208456517Y-73543484D01*
X209356517Y-72643484D01*
X211611776Y-72643484D01*
X211611776Y-72658500D01*
X212346000Y-72658501D01*
X212346000Y-72658500D01*
X212853999Y-72658500D01*
X213587617Y-72658501D01*
X213528741Y-72387854D01*
X213414597Y-72210242D01*
X213255034Y-72071980D01*
X213062980Y-71984272D01*
X212906516Y-71961776D01*
X212854000Y-71961776D01*
X212853999Y-72658500D01*
X212346000Y-72658500D01*
X212346001Y-71961776D01*
X212311290Y-71961776D01*
X212037855Y-72021259D01*
X211860242Y-72135403D01*
X211721980Y-72294966D01*
X211634272Y-72487020D01*
X211611776Y-72643484D01*
X209356517Y-72643484D01*
X209500000Y-72500001D01*
X209500000Y-64999999D01*
X200500001Y-56000000D01*
X188355760Y-56000000D01*
X188358026Y-55711621D01*
X188317364Y-55539611D01*
X188238222Y-55381567D01*
X188230689Y-55372558D01*
X188169906Y-55299862D01*
X188231566Y-55228415D01*
X188313186Y-55071626D01*
X188356544Y-54900273D01*
X188358026Y-54711621D01*
X188317364Y-54539611D01*
X188238222Y-54381567D01*
X188222038Y-54362212D01*
X188169906Y-54299862D01*
X188231566Y-54228415D01*
X188313186Y-54071626D01*
X188356544Y-53900273D01*
X188358026Y-53711621D01*
X188317364Y-53539611D01*
X188238222Y-53381567D01*
X188232153Y-53374308D01*
X188169906Y-53299862D01*
X188231566Y-53228415D01*
X188313186Y-53071626D01*
X188356544Y-52900273D01*
X188358026Y-52711621D01*
X188317364Y-52539611D01*
X188238222Y-52381567D01*
X188232153Y-52374308D01*
X188169906Y-52299862D01*
X188231566Y-52228415D01*
X188313186Y-52071626D01*
X188356544Y-51900273D01*
X188358026Y-51711621D01*
X188317364Y-51539611D01*
X188238222Y-51381567D01*
X188232153Y-51374308D01*
X188169906Y-51299862D01*
X188231566Y-51228415D01*
X188313186Y-51071626D01*
X188356544Y-50900273D01*
X188358026Y-50711621D01*
X188317364Y-50539611D01*
X188238222Y-50381567D01*
X188232153Y-50374308D01*
X188169906Y-50299862D01*
X188231566Y-50228415D01*
X188313186Y-50071626D01*
X188356544Y-49900273D01*
X188358026Y-49711621D01*
X188317364Y-49539611D01*
X188238222Y-49381567D01*
X188232153Y-49374308D01*
X188169906Y-49299862D01*
X188231566Y-49228415D01*
X188313186Y-49071626D01*
X188356544Y-48900273D01*
X188358026Y-48711621D01*
X188317364Y-48539611D01*
X188238222Y-48381567D01*
X188232342Y-48374535D01*
X188169906Y-48299862D01*
X188231566Y-48228415D01*
X188313186Y-48071626D01*
X188356544Y-47900273D01*
X188358026Y-47711621D01*
X188317364Y-47539611D01*
X188238222Y-47381567D01*
X188169904Y-47299864D01*
X188231566Y-47228415D01*
X188313186Y-47071626D01*
X188356544Y-46900273D01*
X188358026Y-46711621D01*
X188317364Y-46539611D01*
X188238222Y-46381567D01*
X188232153Y-46374308D01*
X188169906Y-46299862D01*
X188231566Y-46228415D01*
X188313186Y-46071626D01*
X188356544Y-45900273D01*
X188358026Y-45711621D01*
X188317364Y-45539611D01*
X188238222Y-45381567D01*
X188232153Y-45374308D01*
X188169906Y-45299862D01*
X188231566Y-45228415D01*
X188313186Y-45071626D01*
X188356544Y-44900273D01*
X188358026Y-44711621D01*
X188317364Y-44539611D01*
X188238222Y-44381567D01*
X188124840Y-44245964D01*
X187983310Y-44140086D01*
X187983311Y-44140086D01*
X187983309Y-44140085D01*
X187821215Y-44069605D01*
X187647255Y-44038304D01*
X187470759Y-44047863D01*
X187301197Y-44097768D01*
X187177987Y-44168045D01*
X187088734Y-44218954D01*
X186983308Y-44140085D01*
X186821216Y-44069606D01*
X186647255Y-44038304D01*
X186470759Y-44047864D01*
X186301198Y-44097768D01*
X186088734Y-44218954D01*
X185983309Y-44140085D01*
X185821215Y-44069605D01*
X185647255Y-44038304D01*
X185470759Y-44047863D01*
X185301197Y-44097768D01*
X185177987Y-44168045D01*
X185088734Y-44218954D01*
X184983309Y-44140085D01*
X184821215Y-44069605D01*
X184647255Y-44038304D01*
X184470759Y-44047863D01*
X184301197Y-44097768D01*
X184177987Y-44168045D01*
X184088734Y-44218954D01*
X183983309Y-44140085D01*
X183821215Y-44069605D01*
X183647255Y-44038304D01*
X183470759Y-44047863D01*
X183301197Y-44097768D01*
X183177987Y-44168045D01*
X183088734Y-44218954D01*
X182983309Y-44140085D01*
X182821215Y-44069605D01*
X182647255Y-44038304D01*
X182470759Y-44047863D01*
X182301197Y-44097768D01*
X182177987Y-44168045D01*
X182088734Y-44218954D01*
X181983309Y-44140085D01*
X181821215Y-44069605D01*
X181647255Y-44038304D01*
X181470759Y-44047863D01*
X181301197Y-44097768D01*
X181177987Y-44168045D01*
X181088734Y-44218954D01*
X180983309Y-44140085D01*
X180821215Y-44069605D01*
X180647255Y-44038304D01*
X180470759Y-44047863D01*
X180301197Y-44097768D01*
X180177987Y-44168045D01*
X180088734Y-44218954D01*
X179983309Y-44140085D01*
X179821215Y-44069605D01*
X179647255Y-44038304D01*
X179470759Y-44047863D01*
X179301197Y-44097768D01*
X179177987Y-44168045D01*
X179088734Y-44218954D01*
X178983309Y-44140085D01*
X178821215Y-44069605D01*
X178647255Y-44038304D01*
X178470759Y-44047863D01*
X178301197Y-44097768D01*
X178177987Y-44168045D01*
X178088734Y-44218954D01*
X177983309Y-44140085D01*
X177821215Y-44069605D01*
X177647255Y-44038304D01*
X177470759Y-44047863D01*
X177301197Y-44097768D01*
X177177987Y-44168045D01*
X177088734Y-44218954D01*
X176983308Y-44140085D01*
X176821216Y-44069606D01*
X176647255Y-44038304D01*
X176470759Y-44047864D01*
X176301198Y-44097768D01*
X176088734Y-44218954D01*
X175983309Y-44140085D01*
X175821215Y-44069605D01*
X175647255Y-44038304D01*
X175470759Y-44047863D01*
X175301197Y-44097768D01*
X175177987Y-44168045D01*
X175088734Y-44218954D01*
X174983309Y-44140085D01*
X174821215Y-44069605D01*
X174647255Y-44038304D01*
X174470759Y-44047863D01*
X174301197Y-44097768D01*
X174177987Y-44168045D01*
X174088734Y-44218954D01*
X173983309Y-44140085D01*
X173821215Y-44069605D01*
X173647255Y-44038304D01*
X173470759Y-44047863D01*
X173301197Y-44097768D01*
X173177987Y-44168045D01*
X173088734Y-44218954D01*
X172983309Y-44140085D01*
X172821215Y-44069605D01*
X172647255Y-44038304D01*
X172470759Y-44047863D01*
X172301197Y-44097768D01*
X172177987Y-44168045D01*
X172088734Y-44218954D01*
X171983309Y-44140085D01*
X171821215Y-44069605D01*
X171647255Y-44038304D01*
X171470759Y-44047863D01*
X171301197Y-44097768D01*
X171177987Y-44168045D01*
X171088734Y-44218954D01*
X170983309Y-44140085D01*
X170821215Y-44069605D01*
X170647255Y-44038304D01*
X170470759Y-44047863D01*
X170301197Y-44097768D01*
X170177987Y-44168045D01*
X170088734Y-44218954D01*
X169983309Y-44140085D01*
X169821215Y-44069605D01*
X169647255Y-44038304D01*
X169470759Y-44047863D01*
X169301197Y-44097768D01*
X169177987Y-44168045D01*
X169088734Y-44218954D01*
X168983309Y-44140085D01*
X168821215Y-44069605D01*
X168647255Y-44038304D01*
X168470759Y-44047863D01*
X168301197Y-44097768D01*
X168177987Y-44168045D01*
X168088734Y-44218954D01*
X167983309Y-44140085D01*
X167821215Y-44069605D01*
X167647255Y-44038304D01*
X167470759Y-44047863D01*
X167301197Y-44097768D01*
X167177987Y-44168045D01*
X167088734Y-44218954D01*
X166983308Y-44140085D01*
X166821216Y-44069606D01*
X166647255Y-44038304D01*
X166470759Y-44047864D01*
X166301196Y-44097768D01*
X166269437Y-44115884D01*
X166849125Y-44695571D01*
X166836864Y-44794006D01*
X166836864Y-44794008D01*
X166848884Y-44904670D01*
X166704883Y-45048671D01*
X166647259Y-45038304D01*
X166647255Y-45038304D01*
X166622324Y-45039654D01*
X166493098Y-45046652D01*
X165914647Y-44468201D01*
X165858711Y-44618609D01*
X165836864Y-44794007D01*
X165000000Y-44794007D01*
X165000000Y-42000000D01*
X222000000Y-42000000D01*
X222000000Y-92000000D01*
G37*
%TD.AperFunction*%
%TA.AperFunction,Conductor*%
G36*
X190353999Y-80377000D02*
G01*
X190354000Y-80377000D01*
X190353999Y-81492000D01*
X189846000Y-81492000D01*
X189846001Y-80923000D01*
X189846000Y-80923000D01*
X189846001Y-80000000D01*
X190354000Y-80000000D01*
X190353999Y-80377000D01*
G37*
%TD.AperFunction*%
%TA.AperFunction,Conductor*%
G36*
X172858711Y-56618608D02*
G01*
X172847126Y-56711622D01*
X172836864Y-56794007D01*
X172855952Y-56969724D01*
X172855953Y-56969726D01*
X172911196Y-57125727D01*
X172911691Y-57134756D01*
X172913056Y-57133391D01*
X172914952Y-57136333D01*
X172914955Y-57136342D01*
X173010704Y-57284915D01*
X173138064Y-57407477D01*
X173268774Y-57484779D01*
X173259446Y-57494107D01*
X173274736Y-57497709D01*
X173276177Y-57493083D01*
X173290202Y-57497451D01*
X173290203Y-57497452D01*
X173450889Y-57547500D01*
X173703389Y-57800000D01*
X173449173Y-58054216D01*
X173301197Y-58097768D01*
X173295492Y-58101022D01*
X173226410Y-58117399D01*
X173222137Y-58115895D01*
X173147665Y-58185341D01*
X173147663Y-58185342D01*
X173082653Y-58245965D01*
X173020462Y-58303959D01*
X173018393Y-58305888D01*
X172920322Y-58452939D01*
X172920320Y-58452946D01*
X172914113Y-58462252D01*
X172912392Y-58474261D01*
X172858711Y-58618608D01*
X172847125Y-58711623D01*
X172836864Y-58794007D01*
X172855952Y-58969724D01*
X172855953Y-58969726D01*
X172911196Y-59125727D01*
X172911691Y-59134756D01*
X172913056Y-59133391D01*
X172914952Y-59136333D01*
X172914955Y-59136342D01*
X173010704Y-59284915D01*
X173138064Y-59407477D01*
X173268774Y-59484779D01*
X173259446Y-59494107D01*
X173274736Y-59497709D01*
X173276177Y-59493083D01*
X173290202Y-59497451D01*
X173290203Y-59497452D01*
X173458961Y-59550014D01*
X173635285Y-59562344D01*
X173870518Y-59523824D01*
X173858713Y-59618604D01*
X173858711Y-59618608D01*
X173836864Y-59794006D01*
X173843774Y-59857611D01*
X173848885Y-59904669D01*
X173704883Y-60048671D01*
X173647260Y-60038304D01*
X173647255Y-60038304D01*
X173470759Y-60047863D01*
X173301197Y-60097768D01*
X173301194Y-60097769D01*
X173295490Y-60101023D01*
X173226408Y-60117400D01*
X173222136Y-60115896D01*
X173147665Y-60185341D01*
X173147663Y-60185342D01*
X173080152Y-60248297D01*
X173020462Y-60303959D01*
X173018393Y-60305888D01*
X172920322Y-60452939D01*
X172920320Y-60452946D01*
X172914113Y-60462252D01*
X172912392Y-60474261D01*
X172858711Y-60618608D01*
X172847125Y-60711623D01*
X172836864Y-60794007D01*
X172855952Y-60969724D01*
X172855953Y-60969726D01*
X172911196Y-61125727D01*
X172915080Y-61196615D01*
X172880022Y-61258352D01*
X172817152Y-61291334D01*
X172746431Y-61285091D01*
X172703328Y-61256880D01*
X172600000Y-61153552D01*
X172491669Y-61261883D01*
X172442361Y-61288808D01*
X172600000Y-61446448D01*
X172705199Y-61341249D01*
X172767511Y-61307223D01*
X172838326Y-61312288D01*
X172895162Y-61354835D01*
X172919973Y-61421355D01*
X172912392Y-61474261D01*
X172858711Y-61618608D01*
X172855475Y-61644589D01*
X172836864Y-61794007D01*
X172848885Y-61904669D01*
X172704883Y-62048671D01*
X172647260Y-62038304D01*
X172647255Y-62038304D01*
X172470759Y-62047863D01*
X172314581Y-62093829D01*
X172301194Y-62097769D01*
X172295490Y-62101023D01*
X172226408Y-62117400D01*
X172159439Y-62093829D01*
X172115844Y-62037793D01*
X172109465Y-61967083D01*
X172143967Y-61902481D01*
X172246448Y-61800000D01*
X172091037Y-61644589D01*
X172062217Y-61691335D01*
X171953552Y-61800000D01*
X172063102Y-61909550D01*
X172097128Y-61971862D01*
X172092063Y-62042677D01*
X172049516Y-62099513D01*
X171982996Y-62124324D01*
X171923766Y-62114195D01*
X171821215Y-62069605D01*
X171647255Y-62038304D01*
X171470759Y-62047863D01*
X171314581Y-62093829D01*
X171301194Y-62097769D01*
X171295490Y-62101023D01*
X171226408Y-62117400D01*
X171222136Y-62115896D01*
X171147665Y-62185341D01*
X171147663Y-62185342D01*
X171018393Y-62305888D01*
X170920322Y-62452939D01*
X170920320Y-62452946D01*
X170914113Y-62462252D01*
X170912392Y-62474261D01*
X170858711Y-62618608D01*
X170858711Y-62618609D01*
X170836864Y-62794007D01*
X170848885Y-62904669D01*
X170704883Y-63048671D01*
X170647260Y-63038304D01*
X170647255Y-63038304D01*
X170470759Y-63047863D01*
X170301197Y-63097768D01*
X170301194Y-63097769D01*
X170295490Y-63101023D01*
X170226408Y-63117400D01*
X170222136Y-63115896D01*
X170147665Y-63185341D01*
X170147663Y-63185342D01*
X170018393Y-63305888D01*
X169920322Y-63452939D01*
X169920320Y-63452946D01*
X169914113Y-63462252D01*
X169912392Y-63474261D01*
X169858711Y-63618608D01*
X169855475Y-63644589D01*
X169836864Y-63794007D01*
X169848885Y-63904669D01*
X169704883Y-64048671D01*
X169647260Y-64038304D01*
X169647255Y-64038304D01*
X169470759Y-64047863D01*
X169314581Y-64093829D01*
X169301194Y-64097769D01*
X169295490Y-64101023D01*
X169226408Y-64117400D01*
X169159439Y-64093829D01*
X169115844Y-64037793D01*
X169109465Y-63967083D01*
X169143967Y-63902481D01*
X169246448Y-63800000D01*
X169091037Y-63644589D01*
X169062217Y-63691335D01*
X168953552Y-63800000D01*
X169063102Y-63909550D01*
X169097128Y-63971862D01*
X169092063Y-64042677D01*
X169049516Y-64099513D01*
X168982996Y-64124324D01*
X168923766Y-64114195D01*
X168821215Y-64069605D01*
X168647255Y-64038304D01*
X168470759Y-64047863D01*
X168314581Y-64093829D01*
X168301194Y-64097769D01*
X168295490Y-64101023D01*
X168226408Y-64117400D01*
X168159439Y-64093829D01*
X168115844Y-64037793D01*
X168109465Y-63967083D01*
X168143967Y-63902481D01*
X168246448Y-63800000D01*
X168147932Y-63701484D01*
X168113906Y-63639172D01*
X168118971Y-63568357D01*
X168161518Y-63511521D01*
X168228038Y-63486710D01*
X168274736Y-63497709D01*
X168276177Y-63493083D01*
X168290202Y-63497451D01*
X168290203Y-63497452D01*
X168458961Y-63550014D01*
X168635284Y-63562344D01*
X168635285Y-63562344D01*
X168722500Y-63548062D01*
X168809716Y-63533780D01*
X168924700Y-63485916D01*
X168948827Y-63483279D01*
X169116071Y-63362212D01*
X169116074Y-63362210D01*
X169179433Y-63288808D01*
X169442361Y-63288808D01*
X169600000Y-63446448D01*
X169705199Y-63341249D01*
X169758559Y-63312111D01*
X169600000Y-63153552D01*
X169491669Y-63261883D01*
X169442361Y-63288808D01*
X169179433Y-63288808D01*
X169231569Y-63228409D01*
X169231569Y-63228408D01*
X169278497Y-63174043D01*
X169290811Y-63114608D01*
X169313185Y-63071628D01*
X169356544Y-62900273D01*
X169357331Y-62800000D01*
X169953552Y-62800000D01*
X170113354Y-62959801D01*
X170143967Y-62902481D01*
X170246448Y-62800000D01*
X170091037Y-62644589D01*
X170062217Y-62691335D01*
X169953552Y-62800000D01*
X169357331Y-62800000D01*
X169358026Y-62711623D01*
X169358025Y-62711620D01*
X169358209Y-62688237D01*
X169493983Y-62552463D01*
X169635284Y-62562344D01*
X169635285Y-62562344D01*
X169722500Y-62548062D01*
X169809716Y-62533780D01*
X169924700Y-62485916D01*
X169948827Y-62483279D01*
X170116071Y-62362212D01*
X170116074Y-62362210D01*
X170179433Y-62288808D01*
X170442361Y-62288808D01*
X170600000Y-62446448D01*
X170705199Y-62341249D01*
X170758559Y-62312111D01*
X170600000Y-62153552D01*
X170491669Y-62261883D01*
X170442361Y-62288808D01*
X170179433Y-62288808D01*
X170231569Y-62228409D01*
X170231569Y-62228408D01*
X170278497Y-62174043D01*
X170290811Y-62114608D01*
X170313185Y-62071628D01*
X170356544Y-61900273D01*
X170358026Y-61711623D01*
X170358025Y-61711620D01*
X170358209Y-61688237D01*
X170493983Y-61552463D01*
X170635284Y-61562344D01*
X170635285Y-61562344D01*
X170695625Y-61552463D01*
X170809718Y-61533780D01*
X170924700Y-61485917D01*
X170995276Y-61478204D01*
X171058819Y-61509873D01*
X171095153Y-61570867D01*
X171092742Y-61641823D01*
X171062216Y-61691336D01*
X170953552Y-61800000D01*
X171113354Y-61959801D01*
X171143967Y-61902481D01*
X171246448Y-61800000D01*
X171147932Y-61701484D01*
X171113906Y-61639172D01*
X171118971Y-61568357D01*
X171161518Y-61511521D01*
X171228038Y-61486710D01*
X171274736Y-61497709D01*
X171276177Y-61493083D01*
X171290202Y-61497451D01*
X171290203Y-61497452D01*
X171458961Y-61550014D01*
X171635284Y-61562344D01*
X171635285Y-61562344D01*
X171722500Y-61548062D01*
X171809716Y-61533780D01*
X171924700Y-61485916D01*
X171948827Y-61483279D01*
X172116071Y-61362212D01*
X172116074Y-61362210D01*
X172231569Y-61228409D01*
X172231569Y-61228408D01*
X172278497Y-61174043D01*
X172290811Y-61114608D01*
X172313185Y-61071628D01*
X172356544Y-60900273D01*
X172358026Y-60711621D01*
X172317364Y-60539611D01*
X172288749Y-60482468D01*
X172276132Y-60412601D01*
X172303291Y-60347004D01*
X172361602Y-60306504D01*
X172432553Y-60303959D01*
X172490507Y-60336955D01*
X172600000Y-60446448D01*
X172705199Y-60341249D01*
X172758559Y-60312111D01*
X172600000Y-60153552D01*
X172491669Y-60261883D01*
X172429357Y-60295909D01*
X172358542Y-60290844D01*
X172301706Y-60248297D01*
X172276895Y-60181777D01*
X172290811Y-60114608D01*
X172313185Y-60071628D01*
X172356544Y-59900273D01*
X172357331Y-59800000D01*
X172953552Y-59800000D01*
X173113354Y-59959801D01*
X173143967Y-59902481D01*
X173246448Y-59800000D01*
X173147932Y-59701484D01*
X173114074Y-59639479D01*
X172953552Y-59800000D01*
X172357331Y-59800000D01*
X172358026Y-59711621D01*
X172317364Y-59539611D01*
X172288749Y-59482468D01*
X172276132Y-59412601D01*
X172303291Y-59347004D01*
X172361602Y-59306504D01*
X172432553Y-59303959D01*
X172490507Y-59336955D01*
X172600000Y-59446448D01*
X172760146Y-59286302D01*
X172746431Y-59285091D01*
X172703328Y-59256880D01*
X172600000Y-59153552D01*
X172491669Y-59261883D01*
X172429357Y-59295909D01*
X172358542Y-59290844D01*
X172301706Y-59248297D01*
X172276895Y-59181777D01*
X172290811Y-59114608D01*
X172313185Y-59071628D01*
X172356544Y-58900273D01*
X172358026Y-58711621D01*
X172317364Y-58539611D01*
X172288749Y-58482468D01*
X172276132Y-58412601D01*
X172303291Y-58347004D01*
X172361602Y-58306504D01*
X172432553Y-58303959D01*
X172490507Y-58336955D01*
X172600000Y-58446448D01*
X172705199Y-58341249D01*
X172758559Y-58312111D01*
X172600000Y-58153552D01*
X172491669Y-58261883D01*
X172429357Y-58295909D01*
X172358542Y-58290844D01*
X172301706Y-58248297D01*
X172276895Y-58181777D01*
X172290811Y-58114608D01*
X172313185Y-58071628D01*
X172356544Y-57900273D01*
X172357331Y-57800000D01*
X172953552Y-57800000D01*
X173113355Y-57959802D01*
X173143968Y-57902480D01*
X173246448Y-57800000D01*
X173147932Y-57701484D01*
X173114074Y-57639479D01*
X172953552Y-57800000D01*
X172357331Y-57800000D01*
X172358026Y-57711621D01*
X172317364Y-57539611D01*
X172288749Y-57482468D01*
X172276132Y-57412601D01*
X172303291Y-57347004D01*
X172361602Y-57306504D01*
X172432553Y-57303959D01*
X172490507Y-57336955D01*
X172600000Y-57446448D01*
X172760146Y-57286302D01*
X172746431Y-57285091D01*
X172703328Y-57256880D01*
X172600000Y-57153552D01*
X172491669Y-57261883D01*
X172429357Y-57295909D01*
X172358542Y-57290844D01*
X172301706Y-57248297D01*
X172276895Y-57181777D01*
X172290811Y-57114608D01*
X172313185Y-57071628D01*
X172356544Y-56900273D01*
X172358026Y-56711622D01*
X172317488Y-56540120D01*
X172458959Y-56550013D01*
X172458961Y-56550014D01*
X172635285Y-56562344D01*
X172870517Y-56523824D01*
X172858711Y-56618608D01*
G37*
%TD.AperFunction*%
%TA.AperFunction,Conductor*%
G36*
X178858713Y-60618604D02*
G01*
X178858711Y-60618608D01*
X178836864Y-60794006D01*
X178843774Y-60857611D01*
X178848885Y-60904669D01*
X178704883Y-61048671D01*
X178647259Y-61038304D01*
X178647255Y-61038304D01*
X178622324Y-61039654D01*
X178493098Y-61046652D01*
X178356467Y-60910021D01*
X178358026Y-60711622D01*
X178317488Y-60540120D01*
X178458959Y-60550013D01*
X178458961Y-60550014D01*
X178635285Y-60562344D01*
X178870518Y-60523824D01*
X178858713Y-60618604D01*
G37*
%TD.AperFunction*%
%TA.AperFunction,Conductor*%
G36*
X179858713Y-59618604D02*
G01*
X179858711Y-59618608D01*
X179836864Y-59794006D01*
X179843774Y-59857611D01*
X179848885Y-59904669D01*
X179704883Y-60048671D01*
X179647260Y-60038304D01*
X179647255Y-60038304D01*
X179470759Y-60047863D01*
X179470756Y-60047864D01*
X179317107Y-60056186D01*
X179356544Y-59900276D01*
X179358026Y-59711622D01*
X179317488Y-59540120D01*
X179458959Y-59550013D01*
X179458961Y-59550014D01*
X179635285Y-59562344D01*
X179870518Y-59523824D01*
X179858713Y-59618604D01*
G37*
%TD.AperFunction*%
%TA.AperFunction,Conductor*%
G36*
X170458959Y-59550013D02*
G01*
X170458961Y-59550014D01*
X170635285Y-59562344D01*
X170704555Y-59551001D01*
X170849125Y-59695571D01*
X170836864Y-59794006D01*
X170836864Y-59794008D01*
X170848884Y-59904670D01*
X170704883Y-60048671D01*
X170647259Y-60038304D01*
X170647255Y-60038304D01*
X170622324Y-60039654D01*
X170493098Y-60046652D01*
X170356467Y-59910021D01*
X170358026Y-59711622D01*
X170317488Y-59540120D01*
X170458959Y-59550013D01*
G37*
%TD.AperFunction*%
%TA.AperFunction,Conductor*%
G36*
X181858713Y-59618604D02*
G01*
X181858711Y-59618608D01*
X181836864Y-59794006D01*
X181843774Y-59857611D01*
X181848885Y-59904669D01*
X181704883Y-60048671D01*
X181647259Y-60038304D01*
X181647255Y-60038304D01*
X181622324Y-60039654D01*
X181493098Y-60046652D01*
X181356467Y-59910021D01*
X181358026Y-59711622D01*
X181317488Y-59540120D01*
X181458959Y-59550013D01*
X181458961Y-59550014D01*
X181635285Y-59562344D01*
X181870518Y-59523824D01*
X181858713Y-59618604D01*
G37*
%TD.AperFunction*%
%TA.AperFunction,Conductor*%
G36*
X175726924Y-59823535D02*
G01*
X175760950Y-59885847D01*
X175755885Y-59956662D01*
X175713338Y-60013498D01*
X175644645Y-60038445D01*
X175564652Y-60042778D01*
X175495550Y-60026489D01*
X175446224Y-59975426D01*
X175432334Y-59905801D01*
X175468744Y-59827867D01*
X175600000Y-59696611D01*
X175726924Y-59823535D01*
G37*
%TD.AperFunction*%
%TA.AperFunction,Conductor*%
G36*
X177726922Y-59823535D02*
G01*
X177760948Y-59885847D01*
X177755883Y-59956662D01*
X177713336Y-60013498D01*
X177644642Y-60038445D01*
X177564652Y-60042778D01*
X177495550Y-60026489D01*
X177446224Y-59975426D01*
X177432334Y-59905801D01*
X177468744Y-59827867D01*
X177599999Y-59696612D01*
X177726922Y-59823535D01*
G37*
%TD.AperFunction*%
%TA.AperFunction,Conductor*%
G36*
X169858711Y-58618608D02*
G01*
X169847126Y-58711622D01*
X169836864Y-58794007D01*
X169867712Y-59077971D01*
X169647255Y-59038304D01*
X169493098Y-59046652D01*
X169356467Y-58910021D01*
X169356544Y-58900273D01*
X169358026Y-58711623D01*
X169358025Y-58711620D01*
X169358209Y-58688237D01*
X169493983Y-58552463D01*
X169635284Y-58562344D01*
X169635285Y-58562344D01*
X169695625Y-58552463D01*
X169870517Y-58523824D01*
X169858711Y-58618608D01*
G37*
%TD.AperFunction*%
%TA.AperFunction,Conductor*%
G36*
X180858711Y-58618608D02*
G01*
X180847126Y-58711622D01*
X180836864Y-58794007D01*
X180867712Y-59077971D01*
X180647255Y-59038304D01*
X180470759Y-59047863D01*
X180470756Y-59047864D01*
X180317107Y-59056186D01*
X180356544Y-58900276D01*
X180358026Y-58711622D01*
X180317488Y-58540120D01*
X180458959Y-58550013D01*
X180458961Y-58550014D01*
X180635285Y-58562344D01*
X180870517Y-58523824D01*
X180858711Y-58618608D01*
G37*
%TD.AperFunction*%
%TA.AperFunction,Conductor*%
G36*
X178858711Y-58618608D02*
G01*
X178847126Y-58711623D01*
X178836864Y-58794008D01*
X178840420Y-58826749D01*
X178827891Y-58896632D01*
X178779570Y-58948647D01*
X178710799Y-58966281D01*
X178626062Y-58929451D01*
X178468957Y-58772346D01*
X178434931Y-58710034D01*
X178439996Y-58639219D01*
X178482543Y-58582383D01*
X178566842Y-58557558D01*
X178635284Y-58562344D01*
X178635285Y-58562344D01*
X178695625Y-58552463D01*
X178870517Y-58523824D01*
X178858711Y-58618608D01*
G37*
%TD.AperFunction*%
%TA.AperFunction,Conductor*%
G36*
X176058819Y-57509873D02*
G01*
X176095153Y-57570867D01*
X176092742Y-57641823D01*
X176062216Y-57691336D01*
X175953552Y-57800000D01*
X176063102Y-57909550D01*
X176089166Y-57957281D01*
X176246448Y-57800000D01*
X176147932Y-57701484D01*
X176113906Y-57639172D01*
X176118971Y-57568357D01*
X176161518Y-57511521D01*
X176228038Y-57486710D01*
X176274736Y-57497709D01*
X176276177Y-57493083D01*
X176290202Y-57497451D01*
X176290203Y-57497452D01*
X176425561Y-57539611D01*
X176458961Y-57550014D01*
X176635285Y-57562344D01*
X176870517Y-57523824D01*
X176858711Y-57618608D01*
X176847126Y-57711622D01*
X176836864Y-57794007D01*
X176855952Y-57969724D01*
X176855953Y-57969726D01*
X176911196Y-58125727D01*
X176915080Y-58196615D01*
X176880022Y-58258352D01*
X176817152Y-58291334D01*
X176746431Y-58285091D01*
X176703328Y-58256880D01*
X176600000Y-58153552D01*
X176443411Y-58310141D01*
X176490507Y-58336955D01*
X176600000Y-58446448D01*
X176705199Y-58341249D01*
X176767511Y-58307223D01*
X176838326Y-58312288D01*
X176895162Y-58354835D01*
X176919973Y-58421355D01*
X176912392Y-58474261D01*
X176872183Y-58582383D01*
X176858707Y-58618620D01*
X176854993Y-58648396D01*
X176600000Y-58903389D01*
X176342483Y-58645872D01*
X176317363Y-58539610D01*
X176297370Y-58499684D01*
X176288749Y-58482468D01*
X176279427Y-58430845D01*
X176124842Y-58245966D01*
X176124841Y-58245965D01*
X175983309Y-58140085D01*
X175983305Y-58140083D01*
X175956089Y-58119723D01*
X175923766Y-58114195D01*
X175821215Y-58069605D01*
X175821214Y-58069605D01*
X175821212Y-58069604D01*
X175754147Y-58057536D01*
X175468957Y-57772346D01*
X175434931Y-57710034D01*
X175439996Y-57639219D01*
X175482543Y-57582383D01*
X175566842Y-57557558D01*
X175635284Y-57562344D01*
X175635285Y-57562344D01*
X175704553Y-57551001D01*
X175809718Y-57533780D01*
X175924700Y-57485917D01*
X175995276Y-57478204D01*
X176058819Y-57509873D01*
G37*
%TD.AperFunction*%
%TA.AperFunction,Conductor*%
G36*
X179858711Y-57618608D02*
G01*
X179847126Y-57711622D01*
X179836864Y-57794007D01*
X179867712Y-58077971D01*
X179647255Y-58038304D01*
X179470759Y-58047863D01*
X179470756Y-58047864D01*
X179317107Y-58056186D01*
X179356544Y-57900276D01*
X179356597Y-57893520D01*
X179358026Y-57711623D01*
X179358025Y-57711620D01*
X179358209Y-57688237D01*
X179493983Y-57552463D01*
X179635284Y-57562344D01*
X179635285Y-57562344D01*
X179704553Y-57551001D01*
X179870517Y-57523824D01*
X179858711Y-57618608D01*
G37*
%TD.AperFunction*%
%TA.AperFunction,Conductor*%
G36*
X181458959Y-57550013D02*
G01*
X181458961Y-57550014D01*
X181635285Y-57562344D01*
X181704555Y-57551001D01*
X181849125Y-57695571D01*
X181839562Y-57772346D01*
X181836864Y-57794007D01*
X181867712Y-58077971D01*
X181647255Y-58038304D01*
X181470759Y-58047863D01*
X181470756Y-58047864D01*
X181317107Y-58056186D01*
X181356544Y-57900276D01*
X181358026Y-57711622D01*
X181317488Y-57540120D01*
X181458959Y-57550013D01*
G37*
%TD.AperFunction*%
%TA.AperFunction,Conductor*%
G36*
X170849125Y-57695571D02*
G01*
X170839562Y-57772346D01*
X170836864Y-57794008D01*
X170848884Y-57904670D01*
X170704883Y-58048671D01*
X170647260Y-58038304D01*
X170647255Y-58038304D01*
X170470759Y-58047863D01*
X170470756Y-58047864D01*
X170317107Y-58056186D01*
X170356544Y-57900276D01*
X170356597Y-57893520D01*
X170358026Y-57711623D01*
X170358025Y-57711620D01*
X170358209Y-57688237D01*
X170493983Y-57552463D01*
X170635285Y-57562344D01*
X170704555Y-57551001D01*
X170849125Y-57695571D01*
G37*
%TD.AperFunction*%
%TA.AperFunction,Conductor*%
G36*
X180858711Y-56618608D02*
G01*
X180847126Y-56711622D01*
X180836864Y-56794007D01*
X180867712Y-57077971D01*
X180647255Y-57038304D01*
X180470759Y-57047863D01*
X180470756Y-57047864D01*
X180317107Y-57056186D01*
X180356544Y-56900276D01*
X180358026Y-56711622D01*
X180317488Y-56540120D01*
X180458959Y-56550013D01*
X180458961Y-56550014D01*
X180635285Y-56562344D01*
X180870517Y-56523824D01*
X180858711Y-56618608D01*
G37*
%TD.AperFunction*%
%TA.AperFunction,Conductor*%
G36*
X177838326Y-56312288D02*
G01*
X177895162Y-56354835D01*
X177919973Y-56421355D01*
X177912392Y-56474261D01*
X177858711Y-56618608D01*
X177847125Y-56711623D01*
X177836864Y-56794007D01*
X177848885Y-56904669D01*
X177704883Y-57048671D01*
X177647260Y-57038304D01*
X177647255Y-57038304D01*
X177470759Y-57047863D01*
X177470756Y-57047864D01*
X177317107Y-57056186D01*
X177356544Y-56900276D01*
X177358026Y-56711631D01*
X177358026Y-56711623D01*
X177344635Y-56654977D01*
X177381004Y-56618608D01*
X177576583Y-56423031D01*
X177600000Y-56446448D01*
X177705199Y-56341249D01*
X177767511Y-56307223D01*
X177838326Y-56312288D01*
G37*
%TD.AperFunction*%
%TA.AperFunction,Conductor*%
G36*
X171058819Y-55509873D02*
G01*
X171095153Y-55570867D01*
X171092742Y-55641823D01*
X171062216Y-55691336D01*
X170953552Y-55800000D01*
X171063102Y-55909550D01*
X171097128Y-55971862D01*
X171092063Y-56042677D01*
X171049516Y-56099513D01*
X170982996Y-56124324D01*
X170923766Y-56114195D01*
X170821215Y-56069605D01*
X170647255Y-56038304D01*
X170647254Y-56038304D01*
X170493098Y-56046652D01*
X170356467Y-55910021D01*
X170358026Y-55711622D01*
X170317488Y-55540120D01*
X170458959Y-55550013D01*
X170458961Y-55550014D01*
X170615682Y-55560973D01*
X170635284Y-55562344D01*
X170635285Y-55562344D01*
X170704553Y-55551001D01*
X170809718Y-55533780D01*
X170924700Y-55485917D01*
X170995276Y-55478204D01*
X171058819Y-55509873D01*
G37*
%TD.AperFunction*%
%TA.AperFunction,Conductor*%
G36*
X171274736Y-55497709D02*
G01*
X171276177Y-55493083D01*
X171290202Y-55497451D01*
X171290203Y-55497452D01*
X171425561Y-55539611D01*
X171458961Y-55550014D01*
X171635285Y-55562344D01*
X171870517Y-55523824D01*
X171858711Y-55618608D01*
X171847126Y-55711622D01*
X171836864Y-55794007D01*
X171867712Y-56077971D01*
X171647255Y-56038304D01*
X171470759Y-56047863D01*
X171314581Y-56093829D01*
X171301194Y-56097769D01*
X171295490Y-56101023D01*
X171226408Y-56117400D01*
X171159439Y-56093829D01*
X171115844Y-56037793D01*
X171109465Y-55967083D01*
X171143967Y-55902481D01*
X171246448Y-55800000D01*
X171147932Y-55701484D01*
X171113906Y-55639172D01*
X171118971Y-55568357D01*
X171161518Y-55511521D01*
X171228038Y-55486710D01*
X171274736Y-55497709D01*
G37*
%TD.AperFunction*%
%TA.AperFunction,Conductor*%
G36*
X179858711Y-55618608D02*
G01*
X179847126Y-55711622D01*
X179836864Y-55794007D01*
X179867712Y-56077971D01*
X179647255Y-56038304D01*
X179493098Y-56046652D01*
X179356467Y-55910021D01*
X179357008Y-55841205D01*
X179358026Y-55711623D01*
X179358025Y-55711620D01*
X179358209Y-55688237D01*
X179493983Y-55552463D01*
X179635284Y-55562344D01*
X179635285Y-55562344D01*
X179704553Y-55551001D01*
X179870517Y-55523824D01*
X179858711Y-55618608D01*
G37*
%TD.AperFunction*%
%TA.AperFunction,Conductor*%
G36*
X181458959Y-55550013D02*
G01*
X181458961Y-55550014D01*
X181635285Y-55562344D01*
X181704555Y-55551001D01*
X181849125Y-55695571D01*
X181846665Y-55715322D01*
X181836864Y-55794008D01*
X181848884Y-55904670D01*
X181704883Y-56048671D01*
X181647260Y-56038304D01*
X181647255Y-56038304D01*
X181470759Y-56047863D01*
X181470756Y-56047864D01*
X181317107Y-56056186D01*
X181356544Y-55900276D01*
X181358026Y-55711622D01*
X181317488Y-55540120D01*
X181458959Y-55550013D01*
G37*
%TD.AperFunction*%
%TA.AperFunction,Conductor*%
G36*
X173458958Y-55550013D02*
G01*
X173458961Y-55550014D01*
X173635285Y-55562344D01*
X173635286Y-55562344D01*
X173645255Y-55563041D01*
X173711814Y-55587746D01*
X173754451Y-55644515D01*
X173759628Y-55715322D01*
X173725560Y-55777829D01*
X173572099Y-55931290D01*
X173509787Y-55965316D01*
X173438972Y-55960251D01*
X173382136Y-55917704D01*
X173357008Y-55841205D01*
X173358026Y-55711622D01*
X173317488Y-55540120D01*
X173458958Y-55550013D01*
G37*
%TD.AperFunction*%
%TA.AperFunction,Conductor*%
G36*
X169849125Y-53695571D02*
G01*
X169839562Y-53772346D01*
X169836864Y-53794007D01*
X169855952Y-53969724D01*
X169855953Y-53969726D01*
X169911196Y-54125727D01*
X169915080Y-54196615D01*
X169880022Y-54258352D01*
X169817152Y-54291334D01*
X169746431Y-54285091D01*
X169703328Y-54256880D01*
X169600000Y-54153552D01*
X169491669Y-54261883D01*
X169442361Y-54288808D01*
X169600000Y-54446448D01*
X169705199Y-54341249D01*
X169767511Y-54307223D01*
X169838326Y-54312288D01*
X169895162Y-54354835D01*
X169919973Y-54421355D01*
X169912392Y-54474261D01*
X169858711Y-54618608D01*
X169847125Y-54711623D01*
X169836864Y-54794007D01*
X169867712Y-55077971D01*
X169647255Y-55038304D01*
X169470759Y-55047863D01*
X169314581Y-55093829D01*
X169301194Y-55097769D01*
X169295490Y-55101023D01*
X169226408Y-55117400D01*
X169159439Y-55093829D01*
X169115844Y-55037793D01*
X169109465Y-54967083D01*
X169143967Y-54902481D01*
X169246448Y-54800000D01*
X169091037Y-54644589D01*
X169062217Y-54691335D01*
X168953552Y-54800000D01*
X169063102Y-54909550D01*
X169097128Y-54971862D01*
X169092063Y-55042677D01*
X169049516Y-55099513D01*
X168982996Y-55124324D01*
X168923766Y-55114195D01*
X168821215Y-55069605D01*
X168647255Y-55038304D01*
X168470759Y-55047863D01*
X168314581Y-55093829D01*
X168301194Y-55097769D01*
X168295490Y-55101023D01*
X168226408Y-55117400D01*
X168159439Y-55093829D01*
X168115844Y-55037793D01*
X168109465Y-54967083D01*
X168143967Y-54902481D01*
X168246448Y-54800000D01*
X168147932Y-54701484D01*
X168113906Y-54639172D01*
X168118971Y-54568357D01*
X168161518Y-54511521D01*
X168228038Y-54486710D01*
X168274736Y-54497709D01*
X168276177Y-54493083D01*
X168290202Y-54497451D01*
X168290203Y-54497452D01*
X168425561Y-54539611D01*
X168458961Y-54550014D01*
X168635284Y-54562344D01*
X168635285Y-54562344D01*
X168770999Y-54540120D01*
X168809716Y-54533780D01*
X168924700Y-54485916D01*
X168948827Y-54483279D01*
X169116071Y-54362212D01*
X169116074Y-54362210D01*
X169231569Y-54228409D01*
X169231569Y-54228408D01*
X169278497Y-54174043D01*
X169290811Y-54114608D01*
X169313185Y-54071628D01*
X169356544Y-53900273D01*
X169356573Y-53896632D01*
X169358026Y-53711623D01*
X169358025Y-53711620D01*
X169358209Y-53688237D01*
X169493983Y-53552463D01*
X169635285Y-53562344D01*
X169704555Y-53551001D01*
X169849125Y-53695571D01*
G37*
%TD.AperFunction*%
%TA.AperFunction,Conductor*%
G36*
X172849125Y-54695571D02*
G01*
X172836864Y-54794006D01*
X172836864Y-54794007D01*
X172867712Y-55077971D01*
X172647255Y-55038304D01*
X172470759Y-55047863D01*
X172470756Y-55047864D01*
X172317107Y-55056186D01*
X172356544Y-54900276D01*
X172356597Y-54893520D01*
X172358026Y-54711623D01*
X172358025Y-54711620D01*
X172358209Y-54688237D01*
X172493983Y-54552463D01*
X172635285Y-54562344D01*
X172704555Y-54551001D01*
X172849125Y-54695571D01*
G37*
%TD.AperFunction*%
%TA.AperFunction,Conductor*%
G36*
X180458959Y-54550013D02*
G01*
X180458961Y-54550014D01*
X180635285Y-54562344D01*
X180704555Y-54551001D01*
X180849125Y-54695571D01*
X180836864Y-54794006D01*
X180836864Y-54794007D01*
X180867712Y-55077971D01*
X180647255Y-55038304D01*
X180470759Y-55047863D01*
X180470756Y-55047864D01*
X180317107Y-55056186D01*
X180356544Y-54900276D01*
X180358026Y-54711622D01*
X180317488Y-54540120D01*
X180458959Y-54550013D01*
G37*
%TD.AperFunction*%
%TA.AperFunction,Conductor*%
G36*
X179849125Y-53695571D02*
G01*
X179839562Y-53772346D01*
X179836864Y-53794008D01*
X179840420Y-53826749D01*
X179827891Y-53896632D01*
X179779570Y-53948647D01*
X179710798Y-53966281D01*
X179626061Y-53929451D01*
X179594312Y-53897701D01*
X179594311Y-53897700D01*
X179594312Y-53897700D01*
X179468958Y-53772346D01*
X179434932Y-53710034D01*
X179439997Y-53639219D01*
X179482544Y-53582383D01*
X179566843Y-53557558D01*
X179635285Y-53562344D01*
X179704555Y-53551001D01*
X179849125Y-53695571D01*
G37*
%TD.AperFunction*%
%TD*%
M02*
