%TF.GenerationSoftware,KiCad,Pcbnew,(5.99.0-3097-g8601b1e63)*%
%TF.CreationDate,2020-09-03T20:39:06+02:00*%
%TF.ProjectId,FD3,4644332e-6b69-4636-9164-5f7063625858,rev?*%
%TF.SameCoordinates,Original*%
%TF.FileFunction,Paste,Top*%
%TF.FilePolarity,Positive*%
%FSLAX46Y46*%
G04 Gerber Fmt 4.6, Leading zero omitted, Abs format (unit mm)*
G04 Created by KiCad (PCBNEW (5.99.0-3097-g8601b1e63)) date 2020-09-03 20:39:06*
%MOMM*%
%LPD*%
G01*
G04 APERTURE LIST*
%ADD10C,0.399500*%
%ADD11C,0.500000*%
G04 APERTURE END LIST*
%TO.C,C48*%
G36*
G01*
X191937500Y-85243750D02*
X191937500Y-85756250D01*
G75*
G02*
X191718750Y-85975000I-218750J0D01*
G01*
X191281250Y-85975000D01*
G75*
G02*
X191062500Y-85756250I0J218750D01*
G01*
X191062500Y-85243750D01*
G75*
G02*
X191281250Y-85025000I218750J0D01*
G01*
X191718750Y-85025000D01*
G75*
G02*
X191937500Y-85243750I0J-218750D01*
G01*
G37*
G36*
G01*
X190362500Y-85243750D02*
X190362500Y-85756250D01*
G75*
G02*
X190143750Y-85975000I-218750J0D01*
G01*
X189706250Y-85975000D01*
G75*
G02*
X189487500Y-85756250I0J218750D01*
G01*
X189487500Y-85243750D01*
G75*
G02*
X189706250Y-85025000I218750J0D01*
G01*
X190143750Y-85025000D01*
G75*
G02*
X190362500Y-85243750I0J-218750D01*
G01*
G37*
%TD*%
%TO.C,C49*%
G36*
G01*
X213973852Y-88787500D02*
X214486352Y-88787500D01*
G75*
G02*
X214705102Y-89006250I0J-218750D01*
G01*
X214705102Y-89443750D01*
G75*
G02*
X214486352Y-89662500I-218750J0D01*
G01*
X213973852Y-89662500D01*
G75*
G02*
X213755102Y-89443750I0J218750D01*
G01*
X213755102Y-89006250D01*
G75*
G02*
X213973852Y-88787500I218750J0D01*
G01*
G37*
G36*
G01*
X213973852Y-90362500D02*
X214486352Y-90362500D01*
G75*
G02*
X214705102Y-90581250I0J-218750D01*
G01*
X214705102Y-91018750D01*
G75*
G02*
X214486352Y-91237500I-218750J0D01*
G01*
X213973852Y-91237500D01*
G75*
G02*
X213755102Y-91018750I0J218750D01*
G01*
X213755102Y-90581250D01*
G75*
G02*
X213973852Y-90362500I218750J0D01*
G01*
G37*
%TD*%
%TO.C,C51*%
G36*
G01*
X212856250Y-74925000D02*
X212343750Y-74925000D01*
G75*
G02*
X212125000Y-74706250I0J218750D01*
G01*
X212125000Y-74268750D01*
G75*
G02*
X212343750Y-74050000I218750J0D01*
G01*
X212856250Y-74050000D01*
G75*
G02*
X213075000Y-74268750I0J-218750D01*
G01*
X213075000Y-74706250D01*
G75*
G02*
X212856250Y-74925000I-218750J0D01*
G01*
G37*
G36*
G01*
X212856250Y-73350000D02*
X212343750Y-73350000D01*
G75*
G02*
X212125000Y-73131250I0J218750D01*
G01*
X212125000Y-72693750D01*
G75*
G02*
X212343750Y-72475000I218750J0D01*
G01*
X212856250Y-72475000D01*
G75*
G02*
X213075000Y-72693750I0J-218750D01*
G01*
X213075000Y-73131250D01*
G75*
G02*
X212856250Y-73350000I-218750J0D01*
G01*
G37*
%TD*%
%TO.C,C69*%
G36*
G01*
X190217500Y-65936250D02*
X190217500Y-65423750D01*
G75*
G02*
X190436250Y-65205000I218750J0D01*
G01*
X190873750Y-65205000D01*
G75*
G02*
X191092500Y-65423750I0J-218750D01*
G01*
X191092500Y-65936250D01*
G75*
G02*
X190873750Y-66155000I-218750J0D01*
G01*
X190436250Y-66155000D01*
G75*
G02*
X190217500Y-65936250I0J218750D01*
G01*
G37*
G36*
G01*
X191792500Y-65936250D02*
X191792500Y-65423750D01*
G75*
G02*
X192011250Y-65205000I218750J0D01*
G01*
X192448750Y-65205000D01*
G75*
G02*
X192667500Y-65423750I0J-218750D01*
G01*
X192667500Y-65936250D01*
G75*
G02*
X192448750Y-66155000I-218750J0D01*
G01*
X192011250Y-66155000D01*
G75*
G02*
X191792500Y-65936250I0J218750D01*
G01*
G37*
%TD*%
%TO.C,C70*%
G36*
G01*
X202692500Y-67043750D02*
X202692500Y-67556250D01*
G75*
G02*
X202473750Y-67775000I-218750J0D01*
G01*
X202036250Y-67775000D01*
G75*
G02*
X201817500Y-67556250I0J218750D01*
G01*
X201817500Y-67043750D01*
G75*
G02*
X202036250Y-66825000I218750J0D01*
G01*
X202473750Y-66825000D01*
G75*
G02*
X202692500Y-67043750I0J-218750D01*
G01*
G37*
G36*
G01*
X201117500Y-67043750D02*
X201117500Y-67556250D01*
G75*
G02*
X200898750Y-67775000I-218750J0D01*
G01*
X200461250Y-67775000D01*
G75*
G02*
X200242500Y-67556250I0J218750D01*
G01*
X200242500Y-67043750D01*
G75*
G02*
X200461250Y-66825000I218750J0D01*
G01*
X200898750Y-66825000D01*
G75*
G02*
X201117500Y-67043750I0J-218750D01*
G01*
G37*
%TD*%
%TO.C,C71*%
G36*
G01*
X191482500Y-67476250D02*
X191482500Y-66963750D01*
G75*
G02*
X191701250Y-66745000I218750J0D01*
G01*
X192138750Y-66745000D01*
G75*
G02*
X192357500Y-66963750I0J-218750D01*
G01*
X192357500Y-67476250D01*
G75*
G02*
X192138750Y-67695000I-218750J0D01*
G01*
X191701250Y-67695000D01*
G75*
G02*
X191482500Y-67476250I0J218750D01*
G01*
G37*
G36*
G01*
X193057500Y-67476250D02*
X193057500Y-66963750D01*
G75*
G02*
X193276250Y-66745000I218750J0D01*
G01*
X193713750Y-66745000D01*
G75*
G02*
X193932500Y-66963750I0J-218750D01*
G01*
X193932500Y-67476250D01*
G75*
G02*
X193713750Y-67695000I-218750J0D01*
G01*
X193276250Y-67695000D01*
G75*
G02*
X193057500Y-67476250I0J218750D01*
G01*
G37*
%TD*%
%TO.C,C72*%
G36*
G01*
X203162500Y-78456250D02*
X203162500Y-77943750D01*
G75*
G02*
X203381250Y-77725000I218750J0D01*
G01*
X203818750Y-77725000D01*
G75*
G02*
X204037500Y-77943750I0J-218750D01*
G01*
X204037500Y-78456250D01*
G75*
G02*
X203818750Y-78675000I-218750J0D01*
G01*
X203381250Y-78675000D01*
G75*
G02*
X203162500Y-78456250I0J218750D01*
G01*
G37*
G36*
G01*
X204737500Y-78456250D02*
X204737500Y-77943750D01*
G75*
G02*
X204956250Y-77725000I218750J0D01*
G01*
X205393750Y-77725000D01*
G75*
G02*
X205612500Y-77943750I0J-218750D01*
G01*
X205612500Y-78456250D01*
G75*
G02*
X205393750Y-78675000I-218750J0D01*
G01*
X204956250Y-78675000D01*
G75*
G02*
X204737500Y-78456250I0J218750D01*
G01*
G37*
%TD*%
%TO.C,C75*%
G36*
G01*
X200187500Y-65956250D02*
X200187500Y-65443750D01*
G75*
G02*
X200406250Y-65225000I218750J0D01*
G01*
X200843750Y-65225000D01*
G75*
G02*
X201062500Y-65443750I0J-218750D01*
G01*
X201062500Y-65956250D01*
G75*
G02*
X200843750Y-66175000I-218750J0D01*
G01*
X200406250Y-66175000D01*
G75*
G02*
X200187500Y-65956250I0J218750D01*
G01*
G37*
G36*
G01*
X201762500Y-65956250D02*
X201762500Y-65443750D01*
G75*
G02*
X201981250Y-65225000I218750J0D01*
G01*
X202418750Y-65225000D01*
G75*
G02*
X202637500Y-65443750I0J-218750D01*
G01*
X202637500Y-65956250D01*
G75*
G02*
X202418750Y-66175000I-218750J0D01*
G01*
X201981250Y-66175000D01*
G75*
G02*
X201762500Y-65956250I0J218750D01*
G01*
G37*
%TD*%
%TO.C,C76*%
G36*
G01*
X192112500Y-79643750D02*
X192112500Y-80156250D01*
G75*
G02*
X191893750Y-80375000I-218750J0D01*
G01*
X191456250Y-80375000D01*
G75*
G02*
X191237500Y-80156250I0J218750D01*
G01*
X191237500Y-79643750D01*
G75*
G02*
X191456250Y-79425000I218750J0D01*
G01*
X191893750Y-79425000D01*
G75*
G02*
X192112500Y-79643750I0J-218750D01*
G01*
G37*
G36*
G01*
X190537500Y-79643750D02*
X190537500Y-80156250D01*
G75*
G02*
X190318750Y-80375000I-218750J0D01*
G01*
X189881250Y-80375000D01*
G75*
G02*
X189662500Y-80156250I0J218750D01*
G01*
X189662500Y-79643750D01*
G75*
G02*
X189881250Y-79425000I218750J0D01*
G01*
X190318750Y-79425000D01*
G75*
G02*
X190537500Y-79643750I0J-218750D01*
G01*
G37*
%TD*%
%TO.C,C77*%
G36*
G01*
X199737500Y-77943750D02*
X199737500Y-78456250D01*
G75*
G02*
X199518750Y-78675000I-218750J0D01*
G01*
X199081250Y-78675000D01*
G75*
G02*
X198862500Y-78456250I0J218750D01*
G01*
X198862500Y-77943750D01*
G75*
G02*
X199081250Y-77725000I218750J0D01*
G01*
X199518750Y-77725000D01*
G75*
G02*
X199737500Y-77943750I0J-218750D01*
G01*
G37*
G36*
G01*
X198162500Y-77943750D02*
X198162500Y-78456250D01*
G75*
G02*
X197943750Y-78675000I-218750J0D01*
G01*
X197506250Y-78675000D01*
G75*
G02*
X197287500Y-78456250I0J218750D01*
G01*
X197287500Y-77943750D01*
G75*
G02*
X197506250Y-77725000I218750J0D01*
G01*
X197943750Y-77725000D01*
G75*
G02*
X198162500Y-77943750I0J-218750D01*
G01*
G37*
%TD*%
%TO.C,C78*%
G36*
G01*
X292993750Y-83525000D02*
X293506250Y-83525000D01*
G75*
G02*
X293725000Y-83743750I0J-218750D01*
G01*
X293725000Y-84181250D01*
G75*
G02*
X293506250Y-84400000I-218750J0D01*
G01*
X292993750Y-84400000D01*
G75*
G02*
X292775000Y-84181250I0J218750D01*
G01*
X292775000Y-83743750D01*
G75*
G02*
X292993750Y-83525000I218750J0D01*
G01*
G37*
G36*
G01*
X292993750Y-85100000D02*
X293506250Y-85100000D01*
G75*
G02*
X293725000Y-85318750I0J-218750D01*
G01*
X293725000Y-85756250D01*
G75*
G02*
X293506250Y-85975000I-218750J0D01*
G01*
X292993750Y-85975000D01*
G75*
G02*
X292775000Y-85756250I0J218750D01*
G01*
X292775000Y-85318750D01*
G75*
G02*
X292993750Y-85100000I218750J0D01*
G01*
G37*
%TD*%
%TO.C,C79*%
G36*
G01*
X189662500Y-78656250D02*
X189662500Y-78143750D01*
G75*
G02*
X189881250Y-77925000I218750J0D01*
G01*
X190318750Y-77925000D01*
G75*
G02*
X190537500Y-78143750I0J-218750D01*
G01*
X190537500Y-78656250D01*
G75*
G02*
X190318750Y-78875000I-218750J0D01*
G01*
X189881250Y-78875000D01*
G75*
G02*
X189662500Y-78656250I0J218750D01*
G01*
G37*
G36*
G01*
X191237500Y-78656250D02*
X191237500Y-78143750D01*
G75*
G02*
X191456250Y-77925000I218750J0D01*
G01*
X191893750Y-77925000D01*
G75*
G02*
X192112500Y-78143750I0J-218750D01*
G01*
X192112500Y-78656250D01*
G75*
G02*
X191893750Y-78875000I-218750J0D01*
G01*
X191456250Y-78875000D01*
G75*
G02*
X191237500Y-78656250I0J218750D01*
G01*
G37*
%TD*%
%TO.C,C80*%
G36*
G01*
X291993750Y-76062500D02*
X292506250Y-76062500D01*
G75*
G02*
X292725000Y-76281250I0J-218750D01*
G01*
X292725000Y-76718750D01*
G75*
G02*
X292506250Y-76937500I-218750J0D01*
G01*
X291993750Y-76937500D01*
G75*
G02*
X291775000Y-76718750I0J218750D01*
G01*
X291775000Y-76281250D01*
G75*
G02*
X291993750Y-76062500I218750J0D01*
G01*
G37*
G36*
G01*
X291993750Y-77637500D02*
X292506250Y-77637500D01*
G75*
G02*
X292725000Y-77856250I0J-218750D01*
G01*
X292725000Y-78293750D01*
G75*
G02*
X292506250Y-78512500I-218750J0D01*
G01*
X291993750Y-78512500D01*
G75*
G02*
X291775000Y-78293750I0J218750D01*
G01*
X291775000Y-77856250D01*
G75*
G02*
X291993750Y-77637500I218750J0D01*
G01*
G37*
%TD*%
%TO.C,C82*%
G36*
G01*
X192112500Y-81143750D02*
X192112500Y-81656250D01*
G75*
G02*
X191893750Y-81875000I-218750J0D01*
G01*
X191456250Y-81875000D01*
G75*
G02*
X191237500Y-81656250I0J218750D01*
G01*
X191237500Y-81143750D01*
G75*
G02*
X191456250Y-80925000I218750J0D01*
G01*
X191893750Y-80925000D01*
G75*
G02*
X192112500Y-81143750I0J-218750D01*
G01*
G37*
G36*
G01*
X190537500Y-81143750D02*
X190537500Y-81656250D01*
G75*
G02*
X190318750Y-81875000I-218750J0D01*
G01*
X189881250Y-81875000D01*
G75*
G02*
X189662500Y-81656250I0J218750D01*
G01*
X189662500Y-81143750D01*
G75*
G02*
X189881250Y-80925000I218750J0D01*
G01*
X190318750Y-80925000D01*
G75*
G02*
X190537500Y-81143750I0J-218750D01*
G01*
G37*
%TD*%
%TO.C,R42*%
G36*
G01*
X215273852Y-78900000D02*
X215786352Y-78900000D01*
G75*
G02*
X216005102Y-79118750I0J-218750D01*
G01*
X216005102Y-79556250D01*
G75*
G02*
X215786352Y-79775000I-218750J0D01*
G01*
X215273852Y-79775000D01*
G75*
G02*
X215055102Y-79556250I0J218750D01*
G01*
X215055102Y-79118750D01*
G75*
G02*
X215273852Y-78900000I218750J0D01*
G01*
G37*
G36*
G01*
X215273852Y-80475000D02*
X215786352Y-80475000D01*
G75*
G02*
X216005102Y-80693750I0J-218750D01*
G01*
X216005102Y-81131250D01*
G75*
G02*
X215786352Y-81350000I-218750J0D01*
G01*
X215273852Y-81350000D01*
G75*
G02*
X215055102Y-81131250I0J218750D01*
G01*
X215055102Y-80693750D01*
G75*
G02*
X215273852Y-80475000I218750J0D01*
G01*
G37*
%TD*%
%TO.C,R43*%
G36*
G01*
X217486352Y-81350000D02*
X216973852Y-81350000D01*
G75*
G02*
X216755102Y-81131250I0J218750D01*
G01*
X216755102Y-80693750D01*
G75*
G02*
X216973852Y-80475000I218750J0D01*
G01*
X217486352Y-80475000D01*
G75*
G02*
X217705102Y-80693750I0J-218750D01*
G01*
X217705102Y-81131250D01*
G75*
G02*
X217486352Y-81350000I-218750J0D01*
G01*
G37*
G36*
G01*
X217486352Y-79775000D02*
X216973852Y-79775000D01*
G75*
G02*
X216755102Y-79556250I0J218750D01*
G01*
X216755102Y-79118750D01*
G75*
G02*
X216973852Y-78900000I218750J0D01*
G01*
X217486352Y-78900000D01*
G75*
G02*
X217705102Y-79118750I0J-218750D01*
G01*
X217705102Y-79556250D01*
G75*
G02*
X217486352Y-79775000I-218750J0D01*
G01*
G37*
%TD*%
%TO.C,R44*%
G36*
G01*
X210543750Y-73375000D02*
X211056250Y-73375000D01*
G75*
G02*
X211275000Y-73593750I0J-218750D01*
G01*
X211275000Y-74031250D01*
G75*
G02*
X211056250Y-74250000I-218750J0D01*
G01*
X210543750Y-74250000D01*
G75*
G02*
X210325000Y-74031250I0J218750D01*
G01*
X210325000Y-73593750D01*
G75*
G02*
X210543750Y-73375000I218750J0D01*
G01*
G37*
G36*
G01*
X210543750Y-74950000D02*
X211056250Y-74950000D01*
G75*
G02*
X211275000Y-75168750I0J-218750D01*
G01*
X211275000Y-75606250D01*
G75*
G02*
X211056250Y-75825000I-218750J0D01*
G01*
X210543750Y-75825000D01*
G75*
G02*
X210325000Y-75606250I0J218750D01*
G01*
X210325000Y-75168750D01*
G75*
G02*
X210543750Y-74950000I218750J0D01*
G01*
G37*
%TD*%
%TO.C,R45*%
G36*
G01*
X210543750Y-76475000D02*
X211056250Y-76475000D01*
G75*
G02*
X211275000Y-76693750I0J-218750D01*
G01*
X211275000Y-77131250D01*
G75*
G02*
X211056250Y-77350000I-218750J0D01*
G01*
X210543750Y-77350000D01*
G75*
G02*
X210325000Y-77131250I0J218750D01*
G01*
X210325000Y-76693750D01*
G75*
G02*
X210543750Y-76475000I218750J0D01*
G01*
G37*
G36*
G01*
X210543750Y-78050000D02*
X211056250Y-78050000D01*
G75*
G02*
X211275000Y-78268750I0J-218750D01*
G01*
X211275000Y-78706250D01*
G75*
G02*
X211056250Y-78925000I-218750J0D01*
G01*
X210543750Y-78925000D01*
G75*
G02*
X210325000Y-78706250I0J218750D01*
G01*
X210325000Y-78268750D01*
G75*
G02*
X210543750Y-78050000I218750J0D01*
G01*
G37*
%TD*%
%TO.C,R57*%
G36*
G01*
X170425000Y-73843750D02*
X170425000Y-74356250D01*
G75*
G02*
X170206250Y-74575000I-218750J0D01*
G01*
X169768750Y-74575000D01*
G75*
G02*
X169550000Y-74356250I0J218750D01*
G01*
X169550000Y-73843750D01*
G75*
G02*
X169768750Y-73625000I218750J0D01*
G01*
X170206250Y-73625000D01*
G75*
G02*
X170425000Y-73843750I0J-218750D01*
G01*
G37*
G36*
G01*
X168850000Y-73843750D02*
X168850000Y-74356250D01*
G75*
G02*
X168631250Y-74575000I-218750J0D01*
G01*
X168193750Y-74575000D01*
G75*
G02*
X167975000Y-74356250I0J218750D01*
G01*
X167975000Y-73843750D01*
G75*
G02*
X168193750Y-73625000I218750J0D01*
G01*
X168631250Y-73625000D01*
G75*
G02*
X168850000Y-73843750I0J-218750D01*
G01*
G37*
%TD*%
%TO.C,R58*%
G36*
G01*
X170425000Y-76343750D02*
X170425000Y-76856250D01*
G75*
G02*
X170206250Y-77075000I-218750J0D01*
G01*
X169768750Y-77075000D01*
G75*
G02*
X169550000Y-76856250I0J218750D01*
G01*
X169550000Y-76343750D01*
G75*
G02*
X169768750Y-76125000I218750J0D01*
G01*
X170206250Y-76125000D01*
G75*
G02*
X170425000Y-76343750I0J-218750D01*
G01*
G37*
G36*
G01*
X168850000Y-76343750D02*
X168850000Y-76856250D01*
G75*
G02*
X168631250Y-77075000I-218750J0D01*
G01*
X168193750Y-77075000D01*
G75*
G02*
X167975000Y-76856250I0J218750D01*
G01*
X167975000Y-76343750D01*
G75*
G02*
X168193750Y-76125000I218750J0D01*
G01*
X168631250Y-76125000D01*
G75*
G02*
X168850000Y-76343750I0J-218750D01*
G01*
G37*
%TD*%
%TO.C,R59*%
G36*
G01*
X170425000Y-79043750D02*
X170425000Y-79556250D01*
G75*
G02*
X170206250Y-79775000I-218750J0D01*
G01*
X169768750Y-79775000D01*
G75*
G02*
X169550000Y-79556250I0J218750D01*
G01*
X169550000Y-79043750D01*
G75*
G02*
X169768750Y-78825000I218750J0D01*
G01*
X170206250Y-78825000D01*
G75*
G02*
X170425000Y-79043750I0J-218750D01*
G01*
G37*
G36*
G01*
X168850000Y-79043750D02*
X168850000Y-79556250D01*
G75*
G02*
X168631250Y-79775000I-218750J0D01*
G01*
X168193750Y-79775000D01*
G75*
G02*
X167975000Y-79556250I0J218750D01*
G01*
X167975000Y-79043750D01*
G75*
G02*
X168193750Y-78825000I218750J0D01*
G01*
X168631250Y-78825000D01*
G75*
G02*
X168850000Y-79043750I0J-218750D01*
G01*
G37*
%TD*%
%TO.C,R69*%
G36*
G01*
X199256250Y-67712500D02*
X198743750Y-67712500D01*
G75*
G02*
X198525000Y-67493750I0J218750D01*
G01*
X198525000Y-67056250D01*
G75*
G02*
X198743750Y-66837500I218750J0D01*
G01*
X199256250Y-66837500D01*
G75*
G02*
X199475000Y-67056250I0J-218750D01*
G01*
X199475000Y-67493750D01*
G75*
G02*
X199256250Y-67712500I-218750J0D01*
G01*
G37*
G36*
G01*
X199256250Y-66137500D02*
X198743750Y-66137500D01*
G75*
G02*
X198525000Y-65918750I0J218750D01*
G01*
X198525000Y-65481250D01*
G75*
G02*
X198743750Y-65262500I218750J0D01*
G01*
X199256250Y-65262500D01*
G75*
G02*
X199475000Y-65481250I0J-218750D01*
G01*
X199475000Y-65918750D01*
G75*
G02*
X199256250Y-66137500I-218750J0D01*
G01*
G37*
%TD*%
%TO.C,R70*%
G36*
G01*
X210718750Y-79650000D02*
X211231250Y-79650000D01*
G75*
G02*
X211450000Y-79868750I0J-218750D01*
G01*
X211450000Y-80306250D01*
G75*
G02*
X211231250Y-80525000I-218750J0D01*
G01*
X210718750Y-80525000D01*
G75*
G02*
X210500000Y-80306250I0J218750D01*
G01*
X210500000Y-79868750D01*
G75*
G02*
X210718750Y-79650000I218750J0D01*
G01*
G37*
G36*
G01*
X210718750Y-81225000D02*
X211231250Y-81225000D01*
G75*
G02*
X211450000Y-81443750I0J-218750D01*
G01*
X211450000Y-81881250D01*
G75*
G02*
X211231250Y-82100000I-218750J0D01*
G01*
X210718750Y-82100000D01*
G75*
G02*
X210500000Y-81881250I0J218750D01*
G01*
X210500000Y-81443750D01*
G75*
G02*
X210718750Y-81225000I218750J0D01*
G01*
G37*
%TD*%
%TO.C,R71*%
G36*
G01*
X194856250Y-82125000D02*
X194343750Y-82125000D01*
G75*
G02*
X194125000Y-81906250I0J218750D01*
G01*
X194125000Y-81468750D01*
G75*
G02*
X194343750Y-81250000I218750J0D01*
G01*
X194856250Y-81250000D01*
G75*
G02*
X195075000Y-81468750I0J-218750D01*
G01*
X195075000Y-81906250D01*
G75*
G02*
X194856250Y-82125000I-218750J0D01*
G01*
G37*
G36*
G01*
X194856250Y-80550000D02*
X194343750Y-80550000D01*
G75*
G02*
X194125000Y-80331250I0J218750D01*
G01*
X194125000Y-79893750D01*
G75*
G02*
X194343750Y-79675000I218750J0D01*
G01*
X194856250Y-79675000D01*
G75*
G02*
X195075000Y-79893750I0J-218750D01*
G01*
X195075000Y-80331250D01*
G75*
G02*
X194856250Y-80550000I-218750J0D01*
G01*
G37*
%TD*%
%TO.C,R72*%
G36*
G01*
X199356250Y-86825000D02*
X198843750Y-86825000D01*
G75*
G02*
X198625000Y-86606250I0J218750D01*
G01*
X198625000Y-86168750D01*
G75*
G02*
X198843750Y-85950000I218750J0D01*
G01*
X199356250Y-85950000D01*
G75*
G02*
X199575000Y-86168750I0J-218750D01*
G01*
X199575000Y-86606250D01*
G75*
G02*
X199356250Y-86825000I-218750J0D01*
G01*
G37*
G36*
G01*
X199356250Y-85250000D02*
X198843750Y-85250000D01*
G75*
G02*
X198625000Y-85031250I0J218750D01*
G01*
X198625000Y-84593750D01*
G75*
G02*
X198843750Y-84375000I218750J0D01*
G01*
X199356250Y-84375000D01*
G75*
G02*
X199575000Y-84593750I0J-218750D01*
G01*
X199575000Y-85031250D01*
G75*
G02*
X199356250Y-85250000I-218750J0D01*
G01*
G37*
%TD*%
%TO.C,R73*%
G36*
G01*
X206781250Y-82112500D02*
X206268750Y-82112500D01*
G75*
G02*
X206050000Y-81893750I0J218750D01*
G01*
X206050000Y-81456250D01*
G75*
G02*
X206268750Y-81237500I218750J0D01*
G01*
X206781250Y-81237500D01*
G75*
G02*
X207000000Y-81456250I0J-218750D01*
G01*
X207000000Y-81893750D01*
G75*
G02*
X206781250Y-82112500I-218750J0D01*
G01*
G37*
G36*
G01*
X206781250Y-80537500D02*
X206268750Y-80537500D01*
G75*
G02*
X206050000Y-80318750I0J218750D01*
G01*
X206050000Y-79881250D01*
G75*
G02*
X206268750Y-79662500I218750J0D01*
G01*
X206781250Y-79662500D01*
G75*
G02*
X207000000Y-79881250I0J-218750D01*
G01*
X207000000Y-80318750D01*
G75*
G02*
X206781250Y-80537500I-218750J0D01*
G01*
G37*
%TD*%
%TO.C,R74*%
G36*
G01*
X203806250Y-82112500D02*
X203293750Y-82112500D01*
G75*
G02*
X203075000Y-81893750I0J218750D01*
G01*
X203075000Y-81456250D01*
G75*
G02*
X203293750Y-81237500I218750J0D01*
G01*
X203806250Y-81237500D01*
G75*
G02*
X204025000Y-81456250I0J-218750D01*
G01*
X204025000Y-81893750D01*
G75*
G02*
X203806250Y-82112500I-218750J0D01*
G01*
G37*
G36*
G01*
X203806250Y-80537500D02*
X203293750Y-80537500D01*
G75*
G02*
X203075000Y-80318750I0J218750D01*
G01*
X203075000Y-79881250D01*
G75*
G02*
X203293750Y-79662500I218750J0D01*
G01*
X203806250Y-79662500D01*
G75*
G02*
X204025000Y-79881250I0J-218750D01*
G01*
X204025000Y-80318750D01*
G75*
G02*
X203806250Y-80537500I-218750J0D01*
G01*
G37*
%TD*%
%TO.C,R75*%
G36*
G01*
X202331250Y-82125000D02*
X201818750Y-82125000D01*
G75*
G02*
X201600000Y-81906250I0J218750D01*
G01*
X201600000Y-81468750D01*
G75*
G02*
X201818750Y-81250000I218750J0D01*
G01*
X202331250Y-81250000D01*
G75*
G02*
X202550000Y-81468750I0J-218750D01*
G01*
X202550000Y-81906250D01*
G75*
G02*
X202331250Y-82125000I-218750J0D01*
G01*
G37*
G36*
G01*
X202331250Y-80550000D02*
X201818750Y-80550000D01*
G75*
G02*
X201600000Y-80331250I0J218750D01*
G01*
X201600000Y-79893750D01*
G75*
G02*
X201818750Y-79675000I218750J0D01*
G01*
X202331250Y-79675000D01*
G75*
G02*
X202550000Y-79893750I0J-218750D01*
G01*
X202550000Y-80331250D01*
G75*
G02*
X202331250Y-80550000I-218750J0D01*
G01*
G37*
%TD*%
%TO.C,R76*%
G36*
G01*
X206756250Y-86800000D02*
X206243750Y-86800000D01*
G75*
G02*
X206025000Y-86581250I0J218750D01*
G01*
X206025000Y-86143750D01*
G75*
G02*
X206243750Y-85925000I218750J0D01*
G01*
X206756250Y-85925000D01*
G75*
G02*
X206975000Y-86143750I0J-218750D01*
G01*
X206975000Y-86581250D01*
G75*
G02*
X206756250Y-86800000I-218750J0D01*
G01*
G37*
G36*
G01*
X206756250Y-85225000D02*
X206243750Y-85225000D01*
G75*
G02*
X206025000Y-85006250I0J218750D01*
G01*
X206025000Y-84568750D01*
G75*
G02*
X206243750Y-84350000I218750J0D01*
G01*
X206756250Y-84350000D01*
G75*
G02*
X206975000Y-84568750I0J-218750D01*
G01*
X206975000Y-85006250D01*
G75*
G02*
X206756250Y-85225000I-218750J0D01*
G01*
G37*
%TD*%
%TO.C,R77*%
G36*
G01*
X202331250Y-86812500D02*
X201818750Y-86812500D01*
G75*
G02*
X201600000Y-86593750I0J218750D01*
G01*
X201600000Y-86156250D01*
G75*
G02*
X201818750Y-85937500I218750J0D01*
G01*
X202331250Y-85937500D01*
G75*
G02*
X202550000Y-86156250I0J-218750D01*
G01*
X202550000Y-86593750D01*
G75*
G02*
X202331250Y-86812500I-218750J0D01*
G01*
G37*
G36*
G01*
X202331250Y-85237500D02*
X201818750Y-85237500D01*
G75*
G02*
X201600000Y-85018750I0J218750D01*
G01*
X201600000Y-84581250D01*
G75*
G02*
X201818750Y-84362500I218750J0D01*
G01*
X202331250Y-84362500D01*
G75*
G02*
X202550000Y-84581250I0J-218750D01*
G01*
X202550000Y-85018750D01*
G75*
G02*
X202331250Y-85237500I-218750J0D01*
G01*
G37*
%TD*%
%TO.C,R78*%
G36*
G01*
X208256250Y-82100000D02*
X207743750Y-82100000D01*
G75*
G02*
X207525000Y-81881250I0J218750D01*
G01*
X207525000Y-81443750D01*
G75*
G02*
X207743750Y-81225000I218750J0D01*
G01*
X208256250Y-81225000D01*
G75*
G02*
X208475000Y-81443750I0J-218750D01*
G01*
X208475000Y-81881250D01*
G75*
G02*
X208256250Y-82100000I-218750J0D01*
G01*
G37*
G36*
G01*
X208256250Y-80525000D02*
X207743750Y-80525000D01*
G75*
G02*
X207525000Y-80306250I0J218750D01*
G01*
X207525000Y-79868750D01*
G75*
G02*
X207743750Y-79650000I218750J0D01*
G01*
X208256250Y-79650000D01*
G75*
G02*
X208475000Y-79868750I0J-218750D01*
G01*
X208475000Y-80306250D01*
G75*
G02*
X208256250Y-80525000I-218750J0D01*
G01*
G37*
%TD*%
%TO.C,R79*%
G36*
G01*
X203806250Y-86812500D02*
X203293750Y-86812500D01*
G75*
G02*
X203075000Y-86593750I0J218750D01*
G01*
X203075000Y-86156250D01*
G75*
G02*
X203293750Y-85937500I218750J0D01*
G01*
X203806250Y-85937500D01*
G75*
G02*
X204025000Y-86156250I0J-218750D01*
G01*
X204025000Y-86593750D01*
G75*
G02*
X203806250Y-86812500I-218750J0D01*
G01*
G37*
G36*
G01*
X203806250Y-85237500D02*
X203293750Y-85237500D01*
G75*
G02*
X203075000Y-85018750I0J218750D01*
G01*
X203075000Y-84581250D01*
G75*
G02*
X203293750Y-84362500I218750J0D01*
G01*
X203806250Y-84362500D01*
G75*
G02*
X204025000Y-84581250I0J-218750D01*
G01*
X204025000Y-85018750D01*
G75*
G02*
X203806250Y-85237500I-218750J0D01*
G01*
G37*
%TD*%
%TO.C,R80*%
G36*
G01*
X209706250Y-86800000D02*
X209193750Y-86800000D01*
G75*
G02*
X208975000Y-86581250I0J218750D01*
G01*
X208975000Y-86143750D01*
G75*
G02*
X209193750Y-85925000I218750J0D01*
G01*
X209706250Y-85925000D01*
G75*
G02*
X209925000Y-86143750I0J-218750D01*
G01*
X209925000Y-86581250D01*
G75*
G02*
X209706250Y-86800000I-218750J0D01*
G01*
G37*
G36*
G01*
X209706250Y-85225000D02*
X209193750Y-85225000D01*
G75*
G02*
X208975000Y-85006250I0J218750D01*
G01*
X208975000Y-84568750D01*
G75*
G02*
X209193750Y-84350000I218750J0D01*
G01*
X209706250Y-84350000D01*
G75*
G02*
X209925000Y-84568750I0J-218750D01*
G01*
X209925000Y-85006250D01*
G75*
G02*
X209706250Y-85225000I-218750J0D01*
G01*
G37*
%TD*%
%TO.C,R81*%
G36*
G01*
X205306250Y-82112500D02*
X204793750Y-82112500D01*
G75*
G02*
X204575000Y-81893750I0J218750D01*
G01*
X204575000Y-81456250D01*
G75*
G02*
X204793750Y-81237500I218750J0D01*
G01*
X205306250Y-81237500D01*
G75*
G02*
X205525000Y-81456250I0J-218750D01*
G01*
X205525000Y-81893750D01*
G75*
G02*
X205306250Y-82112500I-218750J0D01*
G01*
G37*
G36*
G01*
X205306250Y-80537500D02*
X204793750Y-80537500D01*
G75*
G02*
X204575000Y-80318750I0J218750D01*
G01*
X204575000Y-79881250D01*
G75*
G02*
X204793750Y-79662500I218750J0D01*
G01*
X205306250Y-79662500D01*
G75*
G02*
X205525000Y-79881250I0J-218750D01*
G01*
X205525000Y-80318750D01*
G75*
G02*
X205306250Y-80537500I-218750J0D01*
G01*
G37*
%TD*%
%TO.C,R82*%
G36*
G01*
X196356250Y-82112500D02*
X195843750Y-82112500D01*
G75*
G02*
X195625000Y-81893750I0J218750D01*
G01*
X195625000Y-81456250D01*
G75*
G02*
X195843750Y-81237500I218750J0D01*
G01*
X196356250Y-81237500D01*
G75*
G02*
X196575000Y-81456250I0J-218750D01*
G01*
X196575000Y-81893750D01*
G75*
G02*
X196356250Y-82112500I-218750J0D01*
G01*
G37*
G36*
G01*
X196356250Y-80537500D02*
X195843750Y-80537500D01*
G75*
G02*
X195625000Y-80318750I0J218750D01*
G01*
X195625000Y-79881250D01*
G75*
G02*
X195843750Y-79662500I218750J0D01*
G01*
X196356250Y-79662500D01*
G75*
G02*
X196575000Y-79881250I0J-218750D01*
G01*
X196575000Y-80318750D01*
G75*
G02*
X196356250Y-80537500I-218750J0D01*
G01*
G37*
%TD*%
%TO.C,R83*%
G36*
G01*
X208231250Y-86800000D02*
X207718750Y-86800000D01*
G75*
G02*
X207500000Y-86581250I0J218750D01*
G01*
X207500000Y-86143750D01*
G75*
G02*
X207718750Y-85925000I218750J0D01*
G01*
X208231250Y-85925000D01*
G75*
G02*
X208450000Y-86143750I0J-218750D01*
G01*
X208450000Y-86581250D01*
G75*
G02*
X208231250Y-86800000I-218750J0D01*
G01*
G37*
G36*
G01*
X208231250Y-85225000D02*
X207718750Y-85225000D01*
G75*
G02*
X207500000Y-85006250I0J218750D01*
G01*
X207500000Y-84568750D01*
G75*
G02*
X207718750Y-84350000I218750J0D01*
G01*
X208231250Y-84350000D01*
G75*
G02*
X208450000Y-84568750I0J-218750D01*
G01*
X208450000Y-85006250D01*
G75*
G02*
X208231250Y-85225000I-218750J0D01*
G01*
G37*
%TD*%
%TO.C,R84*%
G36*
G01*
X199356250Y-82112500D02*
X198843750Y-82112500D01*
G75*
G02*
X198625000Y-81893750I0J218750D01*
G01*
X198625000Y-81456250D01*
G75*
G02*
X198843750Y-81237500I218750J0D01*
G01*
X199356250Y-81237500D01*
G75*
G02*
X199575000Y-81456250I0J-218750D01*
G01*
X199575000Y-81893750D01*
G75*
G02*
X199356250Y-82112500I-218750J0D01*
G01*
G37*
G36*
G01*
X199356250Y-80537500D02*
X198843750Y-80537500D01*
G75*
G02*
X198625000Y-80318750I0J218750D01*
G01*
X198625000Y-79881250D01*
G75*
G02*
X198843750Y-79662500I218750J0D01*
G01*
X199356250Y-79662500D01*
G75*
G02*
X199575000Y-79881250I0J-218750D01*
G01*
X199575000Y-80318750D01*
G75*
G02*
X199356250Y-80537500I-218750J0D01*
G01*
G37*
%TD*%
%TO.C,R85*%
G36*
G01*
X205281250Y-86800000D02*
X204768750Y-86800000D01*
G75*
G02*
X204550000Y-86581250I0J218750D01*
G01*
X204550000Y-86143750D01*
G75*
G02*
X204768750Y-85925000I218750J0D01*
G01*
X205281250Y-85925000D01*
G75*
G02*
X205500000Y-86143750I0J-218750D01*
G01*
X205500000Y-86581250D01*
G75*
G02*
X205281250Y-86800000I-218750J0D01*
G01*
G37*
G36*
G01*
X205281250Y-85225000D02*
X204768750Y-85225000D01*
G75*
G02*
X204550000Y-85006250I0J218750D01*
G01*
X204550000Y-84568750D01*
G75*
G02*
X204768750Y-84350000I218750J0D01*
G01*
X205281250Y-84350000D01*
G75*
G02*
X205500000Y-84568750I0J-218750D01*
G01*
X205500000Y-85006250D01*
G75*
G02*
X205281250Y-85225000I-218750J0D01*
G01*
G37*
%TD*%
%TO.C,R86*%
G36*
G01*
X209756250Y-82100000D02*
X209243750Y-82100000D01*
G75*
G02*
X209025000Y-81881250I0J218750D01*
G01*
X209025000Y-81443750D01*
G75*
G02*
X209243750Y-81225000I218750J0D01*
G01*
X209756250Y-81225000D01*
G75*
G02*
X209975000Y-81443750I0J-218750D01*
G01*
X209975000Y-81881250D01*
G75*
G02*
X209756250Y-82100000I-218750J0D01*
G01*
G37*
G36*
G01*
X209756250Y-80525000D02*
X209243750Y-80525000D01*
G75*
G02*
X209025000Y-80306250I0J218750D01*
G01*
X209025000Y-79868750D01*
G75*
G02*
X209243750Y-79650000I218750J0D01*
G01*
X209756250Y-79650000D01*
G75*
G02*
X209975000Y-79868750I0J-218750D01*
G01*
X209975000Y-80306250D01*
G75*
G02*
X209756250Y-80525000I-218750J0D01*
G01*
G37*
%TD*%
%TO.C,R87*%
G36*
G01*
X196356250Y-86812500D02*
X195843750Y-86812500D01*
G75*
G02*
X195625000Y-86593750I0J218750D01*
G01*
X195625000Y-86156250D01*
G75*
G02*
X195843750Y-85937500I218750J0D01*
G01*
X196356250Y-85937500D01*
G75*
G02*
X196575000Y-86156250I0J-218750D01*
G01*
X196575000Y-86593750D01*
G75*
G02*
X196356250Y-86812500I-218750J0D01*
G01*
G37*
G36*
G01*
X196356250Y-85237500D02*
X195843750Y-85237500D01*
G75*
G02*
X195625000Y-85018750I0J218750D01*
G01*
X195625000Y-84581250D01*
G75*
G02*
X195843750Y-84362500I218750J0D01*
G01*
X196356250Y-84362500D01*
G75*
G02*
X196575000Y-84581250I0J-218750D01*
G01*
X196575000Y-85018750D01*
G75*
G02*
X196356250Y-85237500I-218750J0D01*
G01*
G37*
%TD*%
%TO.C,R89*%
G36*
G01*
X188856250Y-82825000D02*
X188343750Y-82825000D01*
G75*
G02*
X188125000Y-82606250I0J218750D01*
G01*
X188125000Y-82168750D01*
G75*
G02*
X188343750Y-81950000I218750J0D01*
G01*
X188856250Y-81950000D01*
G75*
G02*
X189075000Y-82168750I0J-218750D01*
G01*
X189075000Y-82606250D01*
G75*
G02*
X188856250Y-82825000I-218750J0D01*
G01*
G37*
G36*
G01*
X188856250Y-81250000D02*
X188343750Y-81250000D01*
G75*
G02*
X188125000Y-81031250I0J218750D01*
G01*
X188125000Y-80593750D01*
G75*
G02*
X188343750Y-80375000I218750J0D01*
G01*
X188856250Y-80375000D01*
G75*
G02*
X189075000Y-80593750I0J-218750D01*
G01*
X189075000Y-81031250D01*
G75*
G02*
X188856250Y-81250000I-218750J0D01*
G01*
G37*
%TD*%
%TO.C,R90*%
G36*
G01*
X193381250Y-86812500D02*
X192868750Y-86812500D01*
G75*
G02*
X192650000Y-86593750I0J218750D01*
G01*
X192650000Y-86156250D01*
G75*
G02*
X192868750Y-85937500I218750J0D01*
G01*
X193381250Y-85937500D01*
G75*
G02*
X193600000Y-86156250I0J-218750D01*
G01*
X193600000Y-86593750D01*
G75*
G02*
X193381250Y-86812500I-218750J0D01*
G01*
G37*
G36*
G01*
X193381250Y-85237500D02*
X192868750Y-85237500D01*
G75*
G02*
X192650000Y-85018750I0J218750D01*
G01*
X192650000Y-84581250D01*
G75*
G02*
X192868750Y-84362500I218750J0D01*
G01*
X193381250Y-84362500D01*
G75*
G02*
X193600000Y-84581250I0J-218750D01*
G01*
X193600000Y-85018750D01*
G75*
G02*
X193381250Y-85237500I-218750J0D01*
G01*
G37*
%TD*%
%TO.C,R92*%
G36*
G01*
X194856250Y-86825000D02*
X194343750Y-86825000D01*
G75*
G02*
X194125000Y-86606250I0J218750D01*
G01*
X194125000Y-86168750D01*
G75*
G02*
X194343750Y-85950000I218750J0D01*
G01*
X194856250Y-85950000D01*
G75*
G02*
X195075000Y-86168750I0J-218750D01*
G01*
X195075000Y-86606250D01*
G75*
G02*
X194856250Y-86825000I-218750J0D01*
G01*
G37*
G36*
G01*
X194856250Y-85250000D02*
X194343750Y-85250000D01*
G75*
G02*
X194125000Y-85031250I0J218750D01*
G01*
X194125000Y-84593750D01*
G75*
G02*
X194343750Y-84375000I218750J0D01*
G01*
X194856250Y-84375000D01*
G75*
G02*
X195075000Y-84593750I0J-218750D01*
G01*
X195075000Y-85031250D01*
G75*
G02*
X194856250Y-85250000I-218750J0D01*
G01*
G37*
%TD*%
%TO.C,U9*%
G36*
G01*
X216088750Y-75655000D02*
X216088750Y-76320000D01*
G75*
G02*
X215916250Y-76492500I-172500J0D01*
G01*
X215571250Y-76492500D01*
G75*
G02*
X215398750Y-76320000I0J172500D01*
G01*
X215398750Y-75655000D01*
G75*
G02*
X215571250Y-75482500I172500J0D01*
G01*
X215916250Y-75482500D01*
G75*
G02*
X216088750Y-75655000I0J-172500D01*
G01*
G37*
G36*
G01*
X216088750Y-74405000D02*
X216088750Y-75070000D01*
G75*
G02*
X215916250Y-75242500I-172500J0D01*
G01*
X215571250Y-75242500D01*
G75*
G02*
X215398750Y-75070000I0J172500D01*
G01*
X215398750Y-74405000D01*
G75*
G02*
X215571250Y-74232500I172500J0D01*
G01*
X215916250Y-74232500D01*
G75*
G02*
X216088750Y-74405000I0J-172500D01*
G01*
G37*
G36*
G01*
X216938750Y-74405000D02*
X216938750Y-75070000D01*
G75*
G02*
X216766250Y-75242500I-172500J0D01*
G01*
X216421250Y-75242500D01*
G75*
G02*
X216248750Y-75070000I0J172500D01*
G01*
X216248750Y-74405000D01*
G75*
G02*
X216421250Y-74232500I172500J0D01*
G01*
X216766250Y-74232500D01*
G75*
G02*
X216938750Y-74405000I0J-172500D01*
G01*
G37*
G36*
G01*
X216938750Y-75655000D02*
X216938750Y-76320000D01*
G75*
G02*
X216766250Y-76492500I-172500J0D01*
G01*
X216421250Y-76492500D01*
G75*
G02*
X216248750Y-76320000I0J172500D01*
G01*
X216248750Y-75655000D01*
G75*
G02*
X216421250Y-75482500I172500J0D01*
G01*
X216766250Y-75482500D01*
G75*
G02*
X216938750Y-75655000I0J-172500D01*
G01*
G37*
G36*
G01*
X218043750Y-76300000D02*
X218043750Y-76425000D01*
G75*
G02*
X217981250Y-76487500I-62500J0D01*
G01*
X217281250Y-76487500D01*
G75*
G02*
X217218750Y-76425000I0J62500D01*
G01*
X217218750Y-76300000D01*
G75*
G02*
X217281250Y-76237500I62500J0D01*
G01*
X217981250Y-76237500D01*
G75*
G02*
X218043750Y-76300000I0J-62500D01*
G01*
G37*
G36*
G01*
X218043750Y-75800000D02*
X218043750Y-75925000D01*
G75*
G02*
X217981250Y-75987500I-62500J0D01*
G01*
X217281250Y-75987500D01*
G75*
G02*
X217218750Y-75925000I0J62500D01*
G01*
X217218750Y-75800000D01*
G75*
G02*
X217281250Y-75737500I62500J0D01*
G01*
X217981250Y-75737500D01*
G75*
G02*
X218043750Y-75800000I0J-62500D01*
G01*
G37*
G36*
G01*
X218043750Y-75300000D02*
X218043750Y-75425000D01*
G75*
G02*
X217981250Y-75487500I-62500J0D01*
G01*
X217281250Y-75487500D01*
G75*
G02*
X217218750Y-75425000I0J62500D01*
G01*
X217218750Y-75300000D01*
G75*
G02*
X217281250Y-75237500I62500J0D01*
G01*
X217981250Y-75237500D01*
G75*
G02*
X218043750Y-75300000I0J-62500D01*
G01*
G37*
G36*
G01*
X218043750Y-74800000D02*
X218043750Y-74925000D01*
G75*
G02*
X217981250Y-74987500I-62500J0D01*
G01*
X217281250Y-74987500D01*
G75*
G02*
X217218750Y-74925000I0J62500D01*
G01*
X217218750Y-74800000D01*
G75*
G02*
X217281250Y-74737500I62500J0D01*
G01*
X217981250Y-74737500D01*
G75*
G02*
X218043750Y-74800000I0J-62500D01*
G01*
G37*
G36*
G01*
X218043750Y-74300000D02*
X218043750Y-74425000D01*
G75*
G02*
X217981250Y-74487500I-62500J0D01*
G01*
X217281250Y-74487500D01*
G75*
G02*
X217218750Y-74425000I0J62500D01*
G01*
X217218750Y-74300000D01*
G75*
G02*
X217281250Y-74237500I62500J0D01*
G01*
X217981250Y-74237500D01*
G75*
G02*
X218043750Y-74300000I0J-62500D01*
G01*
G37*
G36*
G01*
X215118750Y-74300000D02*
X215118750Y-74425000D01*
G75*
G02*
X215056250Y-74487500I-62500J0D01*
G01*
X214356250Y-74487500D01*
G75*
G02*
X214293750Y-74425000I0J62500D01*
G01*
X214293750Y-74300000D01*
G75*
G02*
X214356250Y-74237500I62500J0D01*
G01*
X215056250Y-74237500D01*
G75*
G02*
X215118750Y-74300000I0J-62500D01*
G01*
G37*
G36*
G01*
X215118750Y-74800000D02*
X215118750Y-74925000D01*
G75*
G02*
X215056250Y-74987500I-62500J0D01*
G01*
X214356250Y-74987500D01*
G75*
G02*
X214293750Y-74925000I0J62500D01*
G01*
X214293750Y-74800000D01*
G75*
G02*
X214356250Y-74737500I62500J0D01*
G01*
X215056250Y-74737500D01*
G75*
G02*
X215118750Y-74800000I0J-62500D01*
G01*
G37*
G36*
G01*
X215118750Y-75300000D02*
X215118750Y-75425000D01*
G75*
G02*
X215056250Y-75487500I-62500J0D01*
G01*
X214356250Y-75487500D01*
G75*
G02*
X214293750Y-75425000I0J62500D01*
G01*
X214293750Y-75300000D01*
G75*
G02*
X214356250Y-75237500I62500J0D01*
G01*
X215056250Y-75237500D01*
G75*
G02*
X215118750Y-75300000I0J-62500D01*
G01*
G37*
G36*
G01*
X215118750Y-75800000D02*
X215118750Y-75925000D01*
G75*
G02*
X215056250Y-75987500I-62500J0D01*
G01*
X214356250Y-75987500D01*
G75*
G02*
X214293750Y-75925000I0J62500D01*
G01*
X214293750Y-75800000D01*
G75*
G02*
X214356250Y-75737500I62500J0D01*
G01*
X215056250Y-75737500D01*
G75*
G02*
X215118750Y-75800000I0J-62500D01*
G01*
G37*
G36*
G01*
X215118750Y-76300000D02*
X215118750Y-76425000D01*
G75*
G02*
X215056250Y-76487500I-62500J0D01*
G01*
X214356250Y-76487500D01*
G75*
G02*
X214293750Y-76425000I0J62500D01*
G01*
X214293750Y-76300000D01*
G75*
G02*
X214356250Y-76237500I62500J0D01*
G01*
X215056250Y-76237500D01*
G75*
G02*
X215118750Y-76300000I0J-62500D01*
G01*
G37*
%TD*%
%TO.C,U10*%
G36*
G01*
X215180102Y-85360000D02*
X215180102Y-84590000D01*
G75*
G02*
X215420102Y-84350000I240000J0D01*
G01*
X215900102Y-84350000D01*
G75*
G02*
X216140102Y-84590000I0J-240000D01*
G01*
X216140102Y-85360000D01*
G75*
G02*
X215900102Y-85600000I-240000J0D01*
G01*
X215420102Y-85600000D01*
G75*
G02*
X215180102Y-85360000I0J240000D01*
G01*
G37*
G36*
G01*
X216320102Y-85360000D02*
X216320102Y-84590000D01*
G75*
G02*
X216560102Y-84350000I240000J0D01*
G01*
X217040102Y-84350000D01*
G75*
G02*
X217280102Y-84590000I0J-240000D01*
G01*
X217280102Y-85360000D01*
G75*
G02*
X217040102Y-85600000I-240000J0D01*
G01*
X216560102Y-85600000D01*
G75*
G02*
X216320102Y-85360000I0J240000D01*
G01*
G37*
G36*
G01*
X216320102Y-83860000D02*
X216320102Y-83090000D01*
G75*
G02*
X216560102Y-82850000I240000J0D01*
G01*
X217040102Y-82850000D01*
G75*
G02*
X217280102Y-83090000I0J-240000D01*
G01*
X217280102Y-83860000D01*
G75*
G02*
X217040102Y-84100000I-240000J0D01*
G01*
X216560102Y-84100000D01*
G75*
G02*
X216320102Y-83860000I0J240000D01*
G01*
G37*
G36*
G01*
X215180102Y-83860000D02*
X215180102Y-83090000D01*
G75*
G02*
X215420102Y-82850000I240000J0D01*
G01*
X215900102Y-82850000D01*
G75*
G02*
X216140102Y-83090000I0J-240000D01*
G01*
X216140102Y-83860000D01*
G75*
G02*
X215900102Y-84100000I-240000J0D01*
G01*
X215420102Y-84100000D01*
G75*
G02*
X215180102Y-83860000I0J240000D01*
G01*
G37*
G36*
G01*
X212780102Y-82470000D02*
X212780102Y-82170000D01*
G75*
G02*
X212930102Y-82020000I150000J0D01*
G01*
X214580102Y-82020000D01*
G75*
G02*
X214730102Y-82170000I0J-150000D01*
G01*
X214730102Y-82470000D01*
G75*
G02*
X214580102Y-82620000I-150000J0D01*
G01*
X212930102Y-82620000D01*
G75*
G02*
X212780102Y-82470000I0J150000D01*
G01*
G37*
G36*
G01*
X212780102Y-83740000D02*
X212780102Y-83440000D01*
G75*
G02*
X212930102Y-83290000I150000J0D01*
G01*
X214580102Y-83290000D01*
G75*
G02*
X214730102Y-83440000I0J-150000D01*
G01*
X214730102Y-83740000D01*
G75*
G02*
X214580102Y-83890000I-150000J0D01*
G01*
X212930102Y-83890000D01*
G75*
G02*
X212780102Y-83740000I0J150000D01*
G01*
G37*
G36*
G01*
X212780102Y-85010000D02*
X212780102Y-84710000D01*
G75*
G02*
X212930102Y-84560000I150000J0D01*
G01*
X214580102Y-84560000D01*
G75*
G02*
X214730102Y-84710000I0J-150000D01*
G01*
X214730102Y-85010000D01*
G75*
G02*
X214580102Y-85160000I-150000J0D01*
G01*
X212930102Y-85160000D01*
G75*
G02*
X212780102Y-85010000I0J150000D01*
G01*
G37*
G36*
G01*
X212780102Y-86280000D02*
X212780102Y-85980000D01*
G75*
G02*
X212930102Y-85830000I150000J0D01*
G01*
X214580102Y-85830000D01*
G75*
G02*
X214730102Y-85980000I0J-150000D01*
G01*
X214730102Y-86280000D01*
G75*
G02*
X214580102Y-86430000I-150000J0D01*
G01*
X212930102Y-86430000D01*
G75*
G02*
X212780102Y-86280000I0J150000D01*
G01*
G37*
G36*
G01*
X217730102Y-86280000D02*
X217730102Y-85980000D01*
G75*
G02*
X217880102Y-85830000I150000J0D01*
G01*
X219530102Y-85830000D01*
G75*
G02*
X219680102Y-85980000I0J-150000D01*
G01*
X219680102Y-86280000D01*
G75*
G02*
X219530102Y-86430000I-150000J0D01*
G01*
X217880102Y-86430000D01*
G75*
G02*
X217730102Y-86280000I0J150000D01*
G01*
G37*
G36*
G01*
X217730102Y-85010000D02*
X217730102Y-84710000D01*
G75*
G02*
X217880102Y-84560000I150000J0D01*
G01*
X219530102Y-84560000D01*
G75*
G02*
X219680102Y-84710000I0J-150000D01*
G01*
X219680102Y-85010000D01*
G75*
G02*
X219530102Y-85160000I-150000J0D01*
G01*
X217880102Y-85160000D01*
G75*
G02*
X217730102Y-85010000I0J150000D01*
G01*
G37*
G36*
G01*
X217730102Y-83740000D02*
X217730102Y-83440000D01*
G75*
G02*
X217880102Y-83290000I150000J0D01*
G01*
X219530102Y-83290000D01*
G75*
G02*
X219680102Y-83440000I0J-150000D01*
G01*
X219680102Y-83740000D01*
G75*
G02*
X219530102Y-83890000I-150000J0D01*
G01*
X217880102Y-83890000D01*
G75*
G02*
X217730102Y-83740000I0J150000D01*
G01*
G37*
G36*
G01*
X217730102Y-82470000D02*
X217730102Y-82170000D01*
G75*
G02*
X217880102Y-82020000I150000J0D01*
G01*
X219530102Y-82020000D01*
G75*
G02*
X219680102Y-82170000I0J-150000D01*
G01*
X219680102Y-82470000D01*
G75*
G02*
X219530102Y-82620000I-150000J0D01*
G01*
X217880102Y-82620000D01*
G75*
G02*
X217730102Y-82470000I0J150000D01*
G01*
G37*
%TD*%
D10*
%TO.C,U17*%
X193380000Y-75870000D03*
X193380000Y-75070000D03*
X193380000Y-74270000D03*
X193380000Y-71070000D03*
X193380000Y-70270000D03*
X193380000Y-69470000D03*
X194180000Y-75870000D03*
X194180000Y-75070000D03*
X194180000Y-74270000D03*
X194180000Y-71070000D03*
X194180000Y-70270000D03*
X194180000Y-69470000D03*
X194980000Y-75870000D03*
X194980000Y-75070000D03*
X194980000Y-74270000D03*
X194980000Y-71070000D03*
X194980000Y-70270000D03*
X194980000Y-69470000D03*
X195780000Y-75870000D03*
X195780000Y-75070000D03*
X195780000Y-74270000D03*
X195780000Y-71070000D03*
X195780000Y-70270000D03*
X195780000Y-69470000D03*
X196580000Y-75870000D03*
X196580000Y-75070000D03*
X196580000Y-74270000D03*
X196580000Y-71070000D03*
X196580000Y-70270000D03*
X196580000Y-69470000D03*
X197380000Y-75870000D03*
X197380000Y-75070000D03*
X197380000Y-74270000D03*
X197380000Y-71070000D03*
X197380000Y-70270000D03*
X197380000Y-69470000D03*
X198180000Y-75870000D03*
X198180000Y-75070000D03*
X198180000Y-74270000D03*
X198180000Y-71070000D03*
X198180000Y-70270000D03*
X198180000Y-69470000D03*
X198980000Y-75870000D03*
X198980000Y-75070000D03*
X198980000Y-74270000D03*
X198980000Y-71070000D03*
X198980000Y-70270000D03*
X198980000Y-69470000D03*
X199780000Y-75870000D03*
X199780000Y-75070000D03*
X199780000Y-74270000D03*
X199780000Y-71070000D03*
X199780000Y-70270000D03*
X199780000Y-69470000D03*
X200580000Y-75870000D03*
X200580000Y-75070000D03*
X200580000Y-74270000D03*
X200580000Y-71070000D03*
X200580000Y-70270000D03*
X200580000Y-69470000D03*
X201380000Y-75870000D03*
X201380000Y-75070000D03*
X201380000Y-74270000D03*
X201380000Y-71070000D03*
X201380000Y-70270000D03*
X201380000Y-69470000D03*
X202180000Y-75870000D03*
X202180000Y-75070000D03*
X202180000Y-74270000D03*
X202180000Y-71070000D03*
X202180000Y-70270000D03*
X202180000Y-69470000D03*
X202980000Y-75870000D03*
X202980000Y-75070000D03*
X202980000Y-74270000D03*
X202980000Y-71070000D03*
X202980000Y-70270000D03*
X202980000Y-69470000D03*
%TD*%
%TO.C,R91*%
G36*
G01*
X197856250Y-82112500D02*
X197343750Y-82112500D01*
G75*
G02*
X197125000Y-81893750I0J218750D01*
G01*
X197125000Y-81456250D01*
G75*
G02*
X197343750Y-81237500I218750J0D01*
G01*
X197856250Y-81237500D01*
G75*
G02*
X198075000Y-81456250I0J-218750D01*
G01*
X198075000Y-81893750D01*
G75*
G02*
X197856250Y-82112500I-218750J0D01*
G01*
G37*
G36*
G01*
X197856250Y-80537500D02*
X197343750Y-80537500D01*
G75*
G02*
X197125000Y-80318750I0J218750D01*
G01*
X197125000Y-79881250D01*
G75*
G02*
X197343750Y-79662500I218750J0D01*
G01*
X197856250Y-79662500D01*
G75*
G02*
X198075000Y-79881250I0J-218750D01*
G01*
X198075000Y-80318750D01*
G75*
G02*
X197856250Y-80537500I-218750J0D01*
G01*
G37*
%TD*%
%TO.C,R93*%
G36*
G01*
X193331250Y-82150000D02*
X192818750Y-82150000D01*
G75*
G02*
X192600000Y-81931250I0J218750D01*
G01*
X192600000Y-81493750D01*
G75*
G02*
X192818750Y-81275000I218750J0D01*
G01*
X193331250Y-81275000D01*
G75*
G02*
X193550000Y-81493750I0J-218750D01*
G01*
X193550000Y-81931250D01*
G75*
G02*
X193331250Y-82150000I-218750J0D01*
G01*
G37*
G36*
G01*
X193331250Y-80575000D02*
X192818750Y-80575000D01*
G75*
G02*
X192600000Y-80356250I0J218750D01*
G01*
X192600000Y-79918750D01*
G75*
G02*
X192818750Y-79700000I218750J0D01*
G01*
X193331250Y-79700000D01*
G75*
G02*
X193550000Y-79918750I0J-218750D01*
G01*
X193550000Y-80356250D01*
G75*
G02*
X193331250Y-80575000I-218750J0D01*
G01*
G37*
%TD*%
%TO.C,R94*%
G36*
G01*
X200831250Y-86812500D02*
X200318750Y-86812500D01*
G75*
G02*
X200100000Y-86593750I0J218750D01*
G01*
X200100000Y-86156250D01*
G75*
G02*
X200318750Y-85937500I218750J0D01*
G01*
X200831250Y-85937500D01*
G75*
G02*
X201050000Y-86156250I0J-218750D01*
G01*
X201050000Y-86593750D01*
G75*
G02*
X200831250Y-86812500I-218750J0D01*
G01*
G37*
G36*
G01*
X200831250Y-85237500D02*
X200318750Y-85237500D01*
G75*
G02*
X200100000Y-85018750I0J218750D01*
G01*
X200100000Y-84581250D01*
G75*
G02*
X200318750Y-84362500I218750J0D01*
G01*
X200831250Y-84362500D01*
G75*
G02*
X201050000Y-84581250I0J-218750D01*
G01*
X201050000Y-85018750D01*
G75*
G02*
X200831250Y-85237500I-218750J0D01*
G01*
G37*
%TD*%
%TO.C,R95*%
G36*
G01*
X197856250Y-86812500D02*
X197343750Y-86812500D01*
G75*
G02*
X197125000Y-86593750I0J218750D01*
G01*
X197125000Y-86156250D01*
G75*
G02*
X197343750Y-85937500I218750J0D01*
G01*
X197856250Y-85937500D01*
G75*
G02*
X198075000Y-86156250I0J-218750D01*
G01*
X198075000Y-86593750D01*
G75*
G02*
X197856250Y-86812500I-218750J0D01*
G01*
G37*
G36*
G01*
X197856250Y-85237500D02*
X197343750Y-85237500D01*
G75*
G02*
X197125000Y-85018750I0J218750D01*
G01*
X197125000Y-84581250D01*
G75*
G02*
X197343750Y-84362500I218750J0D01*
G01*
X197856250Y-84362500D01*
G75*
G02*
X198075000Y-84581250I0J-218750D01*
G01*
X198075000Y-85018750D01*
G75*
G02*
X197856250Y-85237500I-218750J0D01*
G01*
G37*
%TD*%
%TO.C,R96*%
G36*
G01*
X200856250Y-82112500D02*
X200343750Y-82112500D01*
G75*
G02*
X200125000Y-81893750I0J218750D01*
G01*
X200125000Y-81456250D01*
G75*
G02*
X200343750Y-81237500I218750J0D01*
G01*
X200856250Y-81237500D01*
G75*
G02*
X201075000Y-81456250I0J-218750D01*
G01*
X201075000Y-81893750D01*
G75*
G02*
X200856250Y-82112500I-218750J0D01*
G01*
G37*
G36*
G01*
X200856250Y-80537500D02*
X200343750Y-80537500D01*
G75*
G02*
X200125000Y-80318750I0J218750D01*
G01*
X200125000Y-79881250D01*
G75*
G02*
X200343750Y-79662500I218750J0D01*
G01*
X200856250Y-79662500D01*
G75*
G02*
X201075000Y-79881250I0J-218750D01*
G01*
X201075000Y-80318750D01*
G75*
G02*
X200856250Y-80537500I-218750J0D01*
G01*
G37*
%TD*%
D11*
%TO.C,U11*%
X166600000Y-65800000D03*
X166600000Y-64800000D03*
X166600000Y-63800000D03*
X166600000Y-62800000D03*
X166600000Y-61800000D03*
X166600000Y-60800000D03*
X166600000Y-59800000D03*
X166600000Y-58800000D03*
X166600000Y-57800000D03*
X166600000Y-56800000D03*
X166600000Y-55800000D03*
X166600000Y-54800000D03*
X166600000Y-53800000D03*
X166600000Y-52800000D03*
X166600000Y-51800000D03*
X166600000Y-50800000D03*
X166600000Y-49800000D03*
X166600000Y-48800000D03*
X166600000Y-47800000D03*
X166600000Y-46800000D03*
X166600000Y-45800000D03*
X166600000Y-44800000D03*
X186600000Y-65800000D03*
X186600000Y-64800000D03*
X186600000Y-63800000D03*
X186600000Y-62800000D03*
X186600000Y-61800000D03*
X186600000Y-60800000D03*
X186600000Y-59800000D03*
X186600000Y-58800000D03*
X186600000Y-57800000D03*
X186600000Y-56800000D03*
X186600000Y-55800000D03*
X186600000Y-54800000D03*
X186600000Y-53800000D03*
X186600000Y-52800000D03*
X186600000Y-51800000D03*
X186600000Y-50800000D03*
X186600000Y-49800000D03*
X186600000Y-48800000D03*
X186600000Y-47800000D03*
X186600000Y-46800000D03*
X186600000Y-45800000D03*
X186600000Y-44800000D03*
X187600000Y-65800000D03*
X187600000Y-64800000D03*
X187600000Y-63800000D03*
X187600000Y-62800000D03*
X187600000Y-61800000D03*
X187600000Y-60800000D03*
X187600000Y-59800000D03*
X187600000Y-58800000D03*
X187600000Y-57800000D03*
X187600000Y-56800000D03*
X187600000Y-55800000D03*
X187600000Y-54800000D03*
X187600000Y-53800000D03*
X187600000Y-52800000D03*
X187600000Y-51800000D03*
X187600000Y-50800000D03*
X187600000Y-49800000D03*
X187600000Y-48800000D03*
X187600000Y-47800000D03*
X187600000Y-46800000D03*
X187600000Y-45800000D03*
X187600000Y-44800000D03*
X167600000Y-65800000D03*
X167600000Y-64800000D03*
X167600000Y-63800000D03*
X167600000Y-62800000D03*
X167600000Y-61800000D03*
X167600000Y-60800000D03*
X167600000Y-59800000D03*
X167600000Y-58800000D03*
X167600000Y-57800000D03*
X167600000Y-56800000D03*
X167600000Y-55800000D03*
X167600000Y-54800000D03*
X167600000Y-53800000D03*
X167600000Y-52800000D03*
X167600000Y-51800000D03*
X167600000Y-50800000D03*
X167600000Y-49800000D03*
X167600000Y-48800000D03*
X167600000Y-47800000D03*
X167600000Y-46800000D03*
X167600000Y-45800000D03*
X167600000Y-44800000D03*
X168600000Y-65800000D03*
X168600000Y-64800000D03*
X168600000Y-63800000D03*
X168600000Y-62800000D03*
X168600000Y-61800000D03*
X168600000Y-60800000D03*
X168600000Y-59800000D03*
X168600000Y-58800000D03*
X168600000Y-57800000D03*
X168600000Y-56800000D03*
X168600000Y-55800000D03*
X168600000Y-54800000D03*
X168600000Y-53800000D03*
X168600000Y-52800000D03*
X168600000Y-51800000D03*
X168600000Y-50800000D03*
X168600000Y-49800000D03*
X168600000Y-48800000D03*
X168600000Y-47800000D03*
X168600000Y-46800000D03*
X168600000Y-45800000D03*
X168600000Y-44800000D03*
X169600000Y-65800000D03*
X169600000Y-64800000D03*
X169600000Y-63800000D03*
X169600000Y-62800000D03*
X169600000Y-61800000D03*
X169600000Y-60800000D03*
X169600000Y-59800000D03*
X169600000Y-58800000D03*
X169600000Y-57800000D03*
X169600000Y-56800000D03*
X169600000Y-55800000D03*
X169600000Y-54800000D03*
X169600000Y-53800000D03*
X169600000Y-52800000D03*
X169600000Y-51800000D03*
X169600000Y-50800000D03*
X169600000Y-49800000D03*
X169600000Y-48800000D03*
X169600000Y-47800000D03*
X169600000Y-46800000D03*
X169600000Y-45800000D03*
X169600000Y-44800000D03*
X170600000Y-65800000D03*
X170600000Y-64800000D03*
X170600000Y-63800000D03*
X170600000Y-62800000D03*
X170600000Y-61800000D03*
X170600000Y-60800000D03*
X170600000Y-59800000D03*
X170600000Y-58800000D03*
X170600000Y-57800000D03*
X170600000Y-56800000D03*
X170600000Y-55800000D03*
X170600000Y-54800000D03*
X170600000Y-53800000D03*
X170600000Y-52800000D03*
X170600000Y-51800000D03*
X170600000Y-50800000D03*
X170600000Y-49800000D03*
X170600000Y-48800000D03*
X170600000Y-47800000D03*
X170600000Y-46800000D03*
X170600000Y-45800000D03*
X170600000Y-44800000D03*
X171600000Y-65800000D03*
X171600000Y-64800000D03*
X171600000Y-63800000D03*
X171600000Y-62800000D03*
X171600000Y-61800000D03*
X171600000Y-60800000D03*
X171600000Y-59800000D03*
X171600000Y-58800000D03*
X171600000Y-57800000D03*
X171600000Y-56800000D03*
X171600000Y-55800000D03*
X171600000Y-54800000D03*
X171600000Y-53800000D03*
X171600000Y-52800000D03*
X171600000Y-51800000D03*
X171600000Y-50800000D03*
X171600000Y-49800000D03*
X171600000Y-48800000D03*
X171600000Y-47800000D03*
X171600000Y-46800000D03*
X171600000Y-45800000D03*
X171600000Y-44800000D03*
X172600000Y-65800000D03*
X172600000Y-64800000D03*
X172600000Y-63800000D03*
X172600000Y-62800000D03*
X172600000Y-61800000D03*
X172600000Y-60800000D03*
X172600000Y-59800000D03*
X172600000Y-58800000D03*
X172600000Y-57800000D03*
X172600000Y-56800000D03*
X172600000Y-55800000D03*
X172600000Y-54800000D03*
X172600000Y-53800000D03*
X172600000Y-52800000D03*
X172600000Y-51800000D03*
X172600000Y-50800000D03*
X172600000Y-49800000D03*
X172600000Y-48800000D03*
X172600000Y-47800000D03*
X172600000Y-46800000D03*
X172600000Y-45800000D03*
X172600000Y-44800000D03*
X173600000Y-65800000D03*
X173600000Y-64800000D03*
X173600000Y-63800000D03*
X173600000Y-62800000D03*
X173600000Y-61800000D03*
X173600000Y-60800000D03*
X173600000Y-59800000D03*
X173600000Y-58800000D03*
X173600000Y-57800000D03*
X173600000Y-56800000D03*
X173600000Y-55800000D03*
X173600000Y-54800000D03*
X173600000Y-53800000D03*
X173600000Y-52800000D03*
X173600000Y-51800000D03*
X173600000Y-50800000D03*
X173600000Y-49800000D03*
X173600000Y-48800000D03*
X173600000Y-47800000D03*
X173600000Y-46800000D03*
X173600000Y-45800000D03*
X173600000Y-44800000D03*
X174600000Y-65800000D03*
X174600000Y-64800000D03*
X174600000Y-63800000D03*
X174600000Y-62800000D03*
X174600000Y-61800000D03*
X174600000Y-60800000D03*
X174600000Y-59800000D03*
X174600000Y-58800000D03*
X174600000Y-57800000D03*
X174600000Y-56800000D03*
X174600000Y-55800000D03*
X174600000Y-54800000D03*
X174600000Y-53800000D03*
X174600000Y-52800000D03*
X174600000Y-51800000D03*
X174600000Y-50800000D03*
X174600000Y-49800000D03*
X174600000Y-48800000D03*
X174600000Y-47800000D03*
X174600000Y-46800000D03*
X174600000Y-45800000D03*
X174600000Y-44800000D03*
X175600000Y-65800000D03*
X175600000Y-64800000D03*
X175600000Y-63800000D03*
X175600000Y-62800000D03*
X175600000Y-61800000D03*
X175600000Y-60800000D03*
X175600000Y-59800000D03*
X175600000Y-58800000D03*
X175600000Y-57800000D03*
X175600000Y-56800000D03*
X175600000Y-55800000D03*
X175600000Y-54800000D03*
X175600000Y-53800000D03*
X175600000Y-52800000D03*
X175600000Y-51800000D03*
X175600000Y-50800000D03*
X175600000Y-49800000D03*
X175600000Y-48800000D03*
X175600000Y-47800000D03*
X175600000Y-46800000D03*
X175600000Y-45800000D03*
X175600000Y-44800000D03*
X176600000Y-65800000D03*
X176600000Y-64800000D03*
X176600000Y-63800000D03*
X176600000Y-62800000D03*
X176600000Y-61800000D03*
X176600000Y-60800000D03*
X176600000Y-59800000D03*
X176600000Y-58800000D03*
X176600000Y-57800000D03*
X176600000Y-56800000D03*
X176600000Y-55800000D03*
X176600000Y-54800000D03*
X176600000Y-53800000D03*
X176600000Y-52800000D03*
X176600000Y-51800000D03*
X176600000Y-50800000D03*
X176600000Y-49800000D03*
X176600000Y-48800000D03*
X176600000Y-47800000D03*
X176600000Y-46800000D03*
X176600000Y-45800000D03*
X176600000Y-44800000D03*
X177600000Y-65800000D03*
X177600000Y-64800000D03*
X177600000Y-63800000D03*
X177600000Y-62800000D03*
X177600000Y-61800000D03*
X177600000Y-60800000D03*
X177600000Y-59800000D03*
X177600000Y-58800000D03*
X177600000Y-57800000D03*
X177600000Y-56800000D03*
X177600000Y-55800000D03*
X177600000Y-54800000D03*
X177600000Y-53800000D03*
X177600000Y-52800000D03*
X177600000Y-51800000D03*
X177600000Y-50800000D03*
X177600000Y-49800000D03*
X177600000Y-48800000D03*
X177600000Y-47800000D03*
X177600000Y-46800000D03*
X177600000Y-45800000D03*
X177600000Y-44800000D03*
X178600000Y-65800000D03*
X178600000Y-64800000D03*
X178600000Y-63800000D03*
X178600000Y-62800000D03*
X178600000Y-61800000D03*
X178600000Y-60800000D03*
X178600000Y-59800000D03*
X178600000Y-58800000D03*
X178600000Y-57800000D03*
X178600000Y-56800000D03*
X178600000Y-55800000D03*
X178600000Y-54800000D03*
X178600000Y-53800000D03*
X178600000Y-52800000D03*
X178600000Y-51800000D03*
X178600000Y-50800000D03*
X178600000Y-49800000D03*
X178600000Y-48800000D03*
X178600000Y-47800000D03*
X178600000Y-46800000D03*
X178600000Y-45800000D03*
X178600000Y-44800000D03*
X179600000Y-65800000D03*
X179600000Y-64800000D03*
X179600000Y-63800000D03*
X179600000Y-62800000D03*
X179600000Y-61800000D03*
X179600000Y-60800000D03*
X179600000Y-59800000D03*
X179600000Y-58800000D03*
X179600000Y-57800000D03*
X179600000Y-56800000D03*
X179600000Y-55800000D03*
X179600000Y-54800000D03*
X179600000Y-53800000D03*
X179600000Y-52800000D03*
X179600000Y-51800000D03*
X179600000Y-50800000D03*
X179600000Y-49800000D03*
X179600000Y-48800000D03*
X179600000Y-47800000D03*
X179600000Y-46800000D03*
X179600000Y-45800000D03*
X179600000Y-44800000D03*
X180600000Y-65800000D03*
X180600000Y-64800000D03*
X180600000Y-63800000D03*
X180600000Y-62800000D03*
X180600000Y-61800000D03*
X180600000Y-60800000D03*
X180600000Y-59800000D03*
X180600000Y-58800000D03*
X180600000Y-57800000D03*
X180600000Y-56800000D03*
X180600000Y-55800000D03*
X180600000Y-54800000D03*
X180600000Y-53800000D03*
X180600000Y-52800000D03*
X180600000Y-51800000D03*
X180600000Y-50800000D03*
X180600000Y-49800000D03*
X180600000Y-48800000D03*
X180600000Y-47800000D03*
X180600000Y-46800000D03*
X180600000Y-45800000D03*
X180600000Y-44800000D03*
X181600000Y-65800000D03*
X181600000Y-64800000D03*
X181600000Y-63800000D03*
X181600000Y-62800000D03*
X181600000Y-61800000D03*
X181600000Y-60800000D03*
X181600000Y-59800000D03*
X181600000Y-58800000D03*
X181600000Y-57800000D03*
X181600000Y-56800000D03*
X181600000Y-55800000D03*
X181600000Y-54800000D03*
X181600000Y-53800000D03*
X181600000Y-52800000D03*
X181600000Y-51800000D03*
X181600000Y-50800000D03*
X181600000Y-49800000D03*
X181600000Y-48800000D03*
X181600000Y-47800000D03*
X181600000Y-46800000D03*
X181600000Y-45800000D03*
X181600000Y-44800000D03*
X182600000Y-65800000D03*
X182600000Y-64800000D03*
X182600000Y-63800000D03*
X182600000Y-62800000D03*
X182600000Y-61800000D03*
X182600000Y-60800000D03*
X182600000Y-59800000D03*
X182600000Y-58800000D03*
X182600000Y-57800000D03*
X182600000Y-56800000D03*
X182600000Y-55800000D03*
X182600000Y-54800000D03*
X182600000Y-53800000D03*
X182600000Y-52800000D03*
X182600000Y-51800000D03*
X182600000Y-50800000D03*
X182600000Y-49800000D03*
X182600000Y-48800000D03*
X182600000Y-47800000D03*
X182600000Y-46800000D03*
X182600000Y-45800000D03*
X182600000Y-44800000D03*
X183600000Y-65800000D03*
X183600000Y-64800000D03*
X183600000Y-63800000D03*
X183600000Y-62800000D03*
X183600000Y-61800000D03*
X183600000Y-60800000D03*
X183600000Y-59800000D03*
X183600000Y-58800000D03*
X183600000Y-57800000D03*
X183600000Y-56800000D03*
X183600000Y-55800000D03*
X183600000Y-54800000D03*
X183600000Y-53800000D03*
X183600000Y-52800000D03*
X183600000Y-51800000D03*
X183600000Y-50800000D03*
X183600000Y-49800000D03*
X183600000Y-48800000D03*
X183600000Y-47800000D03*
X183600000Y-46800000D03*
X183600000Y-45800000D03*
X183600000Y-44800000D03*
X184600000Y-65800000D03*
X184600000Y-64800000D03*
X184600000Y-63800000D03*
X184600000Y-62800000D03*
X184600000Y-61800000D03*
X184600000Y-60800000D03*
X184600000Y-59800000D03*
X184600000Y-58800000D03*
X184600000Y-57800000D03*
X184600000Y-56800000D03*
X184600000Y-55800000D03*
X184600000Y-54800000D03*
X184600000Y-53800000D03*
X184600000Y-52800000D03*
X184600000Y-51800000D03*
X184600000Y-50800000D03*
X184600000Y-49800000D03*
X184600000Y-48800000D03*
X184600000Y-47800000D03*
X184600000Y-46800000D03*
X184600000Y-45800000D03*
X184600000Y-44800000D03*
X185600000Y-65800000D03*
X185600000Y-64800000D03*
X185600000Y-63800000D03*
X185600000Y-62800000D03*
X185600000Y-61800000D03*
X185600000Y-60800000D03*
X185600000Y-59800000D03*
X185600000Y-58800000D03*
X185600000Y-57800000D03*
X185600000Y-56800000D03*
X185600000Y-55800000D03*
X185600000Y-54800000D03*
X185600000Y-53800000D03*
X185600000Y-52800000D03*
X185600000Y-51800000D03*
X185600000Y-50800000D03*
X185600000Y-49800000D03*
X185600000Y-48800000D03*
X185600000Y-47800000D03*
X185600000Y-46800000D03*
X185600000Y-45800000D03*
X185600000Y-44800000D03*
%TD*%
M02*
