%TF.GenerationSoftware,KiCad,Pcbnew,(5.99.0-3097-g8601b1e63)*%
%TF.CreationDate,2020-09-03T20:39:07+02:00*%
%TF.ProjectId,FD3,4644332e-6b69-4636-9164-5f7063625858,rev?*%
%TF.SameCoordinates,Original*%
%TF.FileFunction,Legend,Bot*%
%TF.FilePolarity,Positive*%
%FSLAX46Y46*%
G04 Gerber Fmt 4.6, Leading zero omitted, Abs format (unit mm)*
G04 Created by KiCad (PCBNEW (5.99.0-3097-g8601b1e63)) date 2020-09-03 20:39:07*
%MOMM*%
%LPD*%
G01*
G04 APERTURE LIST*
%ADD10C,0.150000*%
%ADD11C,0.120000*%
G04 APERTURE END LIST*
D10*
%TO.C,C73*%
X179615357Y-60267142D02*
X179662976Y-60314761D01*
X179805833Y-60362380D01*
X179901071Y-60362380D01*
X180043928Y-60314761D01*
X180139166Y-60219523D01*
X180186785Y-60124285D01*
X180234404Y-59933809D01*
X180234404Y-59790952D01*
X180186785Y-59600476D01*
X180139166Y-59505238D01*
X180043928Y-59410000D01*
X179901071Y-59362380D01*
X179805833Y-59362380D01*
X179662976Y-59410000D01*
X179615357Y-59457619D01*
X179282023Y-59362380D02*
X178615357Y-59362380D01*
X179043928Y-60362380D01*
X178329642Y-59362380D02*
X177710595Y-59362380D01*
X178043928Y-59743333D01*
X177901071Y-59743333D01*
X177805833Y-59790952D01*
X177758214Y-59838571D01*
X177710595Y-59933809D01*
X177710595Y-60171904D01*
X177758214Y-60267142D01*
X177805833Y-60314761D01*
X177901071Y-60362380D01*
X178186785Y-60362380D01*
X178282023Y-60314761D01*
X178329642Y-60267142D01*
%TO.C,C74*%
X179072857Y-60227142D02*
X179120476Y-60274761D01*
X179263333Y-60322380D01*
X179358571Y-60322380D01*
X179501428Y-60274761D01*
X179596666Y-60179523D01*
X179644285Y-60084285D01*
X179691904Y-59893809D01*
X179691904Y-59750952D01*
X179644285Y-59560476D01*
X179596666Y-59465238D01*
X179501428Y-59370000D01*
X179358571Y-59322380D01*
X179263333Y-59322380D01*
X179120476Y-59370000D01*
X179072857Y-59417619D01*
X178739523Y-59322380D02*
X178072857Y-59322380D01*
X178501428Y-60322380D01*
X177263333Y-59655714D02*
X177263333Y-60322380D01*
X177501428Y-59274761D02*
X177739523Y-59989047D01*
X177120476Y-59989047D01*
%TO.C,R88*%
X198455357Y-71722380D02*
X198788690Y-71246190D01*
X199026785Y-71722380D02*
X199026785Y-70722380D01*
X198645833Y-70722380D01*
X198550595Y-70770000D01*
X198502976Y-70817619D01*
X198455357Y-70912857D01*
X198455357Y-71055714D01*
X198502976Y-71150952D01*
X198550595Y-71198571D01*
X198645833Y-71246190D01*
X199026785Y-71246190D01*
X197883928Y-71150952D02*
X197979166Y-71103333D01*
X198026785Y-71055714D01*
X198074404Y-70960476D01*
X198074404Y-70912857D01*
X198026785Y-70817619D01*
X197979166Y-70770000D01*
X197883928Y-70722380D01*
X197693452Y-70722380D01*
X197598214Y-70770000D01*
X197550595Y-70817619D01*
X197502976Y-70912857D01*
X197502976Y-70960476D01*
X197550595Y-71055714D01*
X197598214Y-71103333D01*
X197693452Y-71150952D01*
X197883928Y-71150952D01*
X197979166Y-71198571D01*
X198026785Y-71246190D01*
X198074404Y-71341428D01*
X198074404Y-71531904D01*
X198026785Y-71627142D01*
X197979166Y-71674761D01*
X197883928Y-71722380D01*
X197693452Y-71722380D01*
X197598214Y-71674761D01*
X197550595Y-71627142D01*
X197502976Y-71531904D01*
X197502976Y-71341428D01*
X197550595Y-71246190D01*
X197598214Y-71198571D01*
X197693452Y-71150952D01*
X196931547Y-71150952D02*
X197026785Y-71103333D01*
X197074404Y-71055714D01*
X197122023Y-70960476D01*
X197122023Y-70912857D01*
X197074404Y-70817619D01*
X197026785Y-70770000D01*
X196931547Y-70722380D01*
X196741071Y-70722380D01*
X196645833Y-70770000D01*
X196598214Y-70817619D01*
X196550595Y-70912857D01*
X196550595Y-70960476D01*
X196598214Y-71055714D01*
X196645833Y-71103333D01*
X196741071Y-71150952D01*
X196931547Y-71150952D01*
X197026785Y-71198571D01*
X197074404Y-71246190D01*
X197122023Y-71341428D01*
X197122023Y-71531904D01*
X197074404Y-71627142D01*
X197026785Y-71674761D01*
X196931547Y-71722380D01*
X196741071Y-71722380D01*
X196645833Y-71674761D01*
X196598214Y-71627142D01*
X196550595Y-71531904D01*
X196550595Y-71341428D01*
X196598214Y-71246190D01*
X196645833Y-71198571D01*
X196741071Y-71150952D01*
D11*
%TO.C,C73*%
X178809721Y-57970000D02*
X179135279Y-57970000D01*
X178809721Y-58990000D02*
X179135279Y-58990000D01*
%TO.C,C74*%
X178592779Y-61810000D02*
X178267221Y-61810000D01*
X178592779Y-60790000D02*
X178267221Y-60790000D01*
%TO.C,R88*%
X197975279Y-73210000D02*
X197649721Y-73210000D01*
X197975279Y-72190000D02*
X197649721Y-72190000D01*
%TD*%
M02*
