%TF.GenerationSoftware,KiCad,Pcbnew,(5.99.0-3097-g8601b1e63)*%
%TF.CreationDate,2020-09-03T20:39:06+02:00*%
%TF.ProjectId,FD3,4644332e-6b69-4636-9164-5f7063625858,rev?*%
%TF.SameCoordinates,Original*%
%TF.FileFunction,Copper,L3,Inr*%
%TF.FilePolarity,Positive*%
%FSLAX46Y46*%
G04 Gerber Fmt 4.6, Leading zero omitted, Abs format (unit mm)*
G04 Created by KiCad (PCBNEW (5.99.0-3097-g8601b1e63)) date 2020-09-03 20:39:06*
%MOMM*%
%LPD*%
G01*
G04 APERTURE LIST*
%TA.AperFunction,ComponentPad*%
%ADD10R,1.700000X1.700000*%
%TD*%
%TA.AperFunction,ComponentPad*%
%ADD11O,1.700000X1.700000*%
%TD*%
%TA.AperFunction,ComponentPad*%
%ADD12C,0.500000*%
%TD*%
%TA.AperFunction,ViaPad*%
%ADD13C,0.560000*%
%TD*%
G04 APERTURE END LIST*
D10*
%TO.N,/fgpa-logic/m0*%
%TO.C,J33*%
X172712500Y-74100000D03*
D11*
%TO.N,GND*%
X175252500Y-74100000D03*
%TO.N,/fgpa-logic/m1*%
X172712500Y-76640000D03*
%TO.N,GND*%
X175252500Y-76640000D03*
%TO.N,/fgpa-logic/m2*%
X172712500Y-79180000D03*
%TO.N,GND*%
X175252500Y-79180000D03*
%TD*%
D12*
%TO.N,GND*%
%TO.C,U10*%
X215580102Y-83225000D03*
X216880102Y-85225000D03*
X216880102Y-84225000D03*
X215580102Y-84225000D03*
X216880102Y-83225000D03*
X215580102Y-85225000D03*
%TD*%
D13*
%TO.N,GND*%
X188480000Y-66790000D03*
X183080000Y-63330000D03*
X176040000Y-60290000D03*
X201380000Y-68930000D03*
X203070000Y-68840000D03*
X187500000Y-79800000D03*
X216721033Y-76275000D03*
X199725000Y-77325000D03*
X192770000Y-70290000D03*
X215596033Y-74575000D03*
X196160000Y-69880000D03*
X216196033Y-75350000D03*
X186100000Y-61200000D03*
X195800000Y-76410000D03*
X190000000Y-54000000D03*
X201300000Y-77300000D03*
X183590000Y-66410000D03*
X175070000Y-61330000D03*
%TO.N,VCCDDR_1.35V*%
X202180000Y-76400000D03*
X196210000Y-72350000D03*
X196180000Y-75460000D03*
X200580000Y-68930000D03*
X185110000Y-64310000D03*
X202180000Y-68930000D03*
X180140000Y-61340000D03*
X196160000Y-69070000D03*
X192820000Y-75090000D03*
X200425000Y-78225000D03*
X198590000Y-70670000D03*
X194980000Y-76420000D03*
X188040000Y-63300000D03*
X192780000Y-69450000D03*
X182110000Y-65290000D03*
X184200000Y-60300000D03*
%TO.N,+5V*%
X220600000Y-84800000D03*
%TO.N,VCCDDR_1.35V_VREF*%
X196800000Y-83275000D03*
X192730102Y-87625000D03*
X194730102Y-87625000D03*
X203730102Y-87625000D03*
X210900000Y-83275000D03*
X197670000Y-83290000D03*
X199900000Y-83275000D03*
X213730102Y-87625000D03*
X200730102Y-87625000D03*
X196730102Y-87625000D03*
X198730102Y-87625000D03*
X192750000Y-83650000D03*
X201730102Y-87625000D03*
X210730102Y-87625000D03*
X195730102Y-87625000D03*
X209900000Y-83275000D03*
X212730102Y-87625000D03*
X208730102Y-87625000D03*
X204875000Y-83275000D03*
X193975000Y-83275000D03*
X199730102Y-87625000D03*
X204730102Y-87625000D03*
X211730102Y-87625000D03*
X195350000Y-83275000D03*
X206730102Y-87625000D03*
X203875000Y-83275000D03*
X208675000Y-83275000D03*
X205730102Y-87625000D03*
X207730102Y-87625000D03*
X205875000Y-83275000D03*
X201675000Y-83275000D03*
X211900000Y-83275000D03*
X198900000Y-83275000D03*
X202730102Y-87625000D03*
X200775000Y-83275000D03*
X209730102Y-87625000D03*
X207350000Y-83275000D03*
X197730102Y-87625000D03*
X191730102Y-87625000D03*
X193730102Y-87625000D03*
X202725000Y-83275000D03*
%TO.N,Net-(R42-Pad1)*%
X212330102Y-84825000D03*
X216330102Y-80125000D03*
%TO.N,DDR_NWE*%
X183110000Y-61310000D03*
X198970000Y-73850000D03*
X193000000Y-80900000D03*
%TO.N,DDR_NRAS*%
X197370000Y-73850000D03*
X180990000Y-66270000D03*
X195300000Y-79300000D03*
%TO.N,DDR_A0*%
X199100000Y-85550000D03*
X200570000Y-73850000D03*
X187100000Y-60270000D03*
%TO.N,DDR_A1*%
X205575000Y-80875000D03*
X200980000Y-70670000D03*
X187090000Y-63280000D03*
%TO.N,DDR_A2*%
X188400000Y-59369999D03*
X201750000Y-79100000D03*
X201370000Y-73850000D03*
%TO.N,DDR_A3*%
X200180000Y-74660000D03*
X200750000Y-79100000D03*
X183110000Y-59280000D03*
%TO.N,DDR_A4*%
X201780000Y-69870000D03*
X206500000Y-85550000D03*
X187100000Y-61190000D03*
%TO.N,DDR_A5*%
X184100000Y-59290000D03*
X200970000Y-74670000D03*
X202050000Y-85650000D03*
%TO.N,DDR_A6*%
X207500000Y-80850000D03*
X201780000Y-70670000D03*
X188130000Y-61260000D03*
%TO.N,DDR_A7*%
X185100000Y-59280000D03*
X203525000Y-85575000D03*
X201780000Y-74660000D03*
%TO.N,DDR_A8*%
X209425000Y-85550000D03*
X203361851Y-69885802D03*
X182070000Y-62330000D03*
%TO.N,DDR_A9*%
X202170000Y-73850000D03*
X186090000Y-60300000D03*
X202825000Y-80875000D03*
%TO.N,DDR_A10*%
X199000000Y-71620000D03*
X186600000Y-66450000D03*
X196475000Y-79350000D03*
%TO.N,DDR_A11*%
X202570000Y-71530000D03*
X207900000Y-85575000D03*
X181070000Y-62330000D03*
%TO.N,DDR_A12*%
X188100000Y-65350000D03*
X199125000Y-80850000D03*
X200590000Y-71620000D03*
%TO.N,DDR_A13*%
X202970000Y-73850000D03*
X205025000Y-85600000D03*
X186110000Y-59310000D03*
%TO.N,DDR_A14*%
X188140000Y-60280000D03*
X203475000Y-70625000D03*
X203475000Y-70625000D03*
X208750000Y-80900000D03*
%TO.N,DDR_A15*%
X199760000Y-71620000D03*
X188200000Y-66110000D03*
X196075000Y-85575000D03*
%TO.N,DDR_ODT*%
X195425000Y-76925000D03*
X184130000Y-64340000D03*
X188625000Y-79850000D03*
%TO.N,DDR_CKE*%
X198180000Y-68900000D03*
X193300000Y-85600000D03*
%TO.N,DDR_NCS*%
X181110000Y-61330000D03*
X197775000Y-79350000D03*
X198580000Y-75460000D03*
%TO.N,DDR_NCAS*%
X181100000Y-63380000D03*
X194550000Y-85600000D03*
X198170000Y-73850000D03*
%TO.N,DDR_DQ5*%
X196180000Y-70680000D03*
X185070000Y-65330000D03*
%TO.N,DDR_DQ6*%
X182100000Y-64340000D03*
X195380000Y-75460000D03*
%TO.N,DDR_DQ0*%
X184070000Y-65290000D03*
X194170000Y-73850000D03*
%TO.N,DDR_DQ3*%
X194640000Y-70610000D03*
X186110000Y-65310000D03*
%TO.N,DDR_BA1*%
X185120000Y-63320000D03*
X200160000Y-69870000D03*
X197500000Y-85600000D03*
%TO.N,DDR_DQ4*%
X183100000Y-64200000D03*
X196570000Y-73850000D03*
%TO.N,DDR_BA2*%
X200525000Y-80900000D03*
X184100000Y-63270000D03*
X199770000Y-73850000D03*
%TO.N,DDR_DQ2*%
X194580000Y-75460000D03*
X182610000Y-66450000D03*
%TO.N,DDR_DQ1*%
X194610000Y-71460000D03*
X185600000Y-66460000D03*
%TO.N,DDR_DQ7*%
X196190000Y-71560000D03*
X184600000Y-66440000D03*
%TO.N,DDR_BA0*%
X188080000Y-64330000D03*
X199480000Y-75370000D03*
X200550000Y-85575000D03*
%TO.N,DDR_CK_P*%
X184100000Y-61190000D03*
X197370000Y-71630000D03*
%TO.N,DDR_CK_N*%
X198320000Y-71620000D03*
X185100000Y-61200000D03*
%TO.N,DDR_DQS_P*%
X181050000Y-64340000D03*
X194970000Y-73850000D03*
%TO.N,DDR_DQS_N*%
X195770000Y-73850000D03*
X180200000Y-65260000D03*
%TO.N,Net-(U11-PadU6)*%
X183060000Y-60350000D03*
%TO.N,DDR_TDQS_N*%
X193790000Y-71460000D03*
X186090000Y-64220000D03*
%TO.N,DDR_TDQS_P*%
X186110000Y-63300000D03*
X193780000Y-70660000D03*
%TD*%
%TA.AperFunction,Conductor*%
%TO.N,GND*%
G36*
X222000000Y-92000000D02*
G01*
X165000000Y-92000000D01*
X165000000Y-87616661D01*
X190933728Y-87616661D01*
X190960821Y-87831126D01*
X190960822Y-87831128D01*
X191044592Y-88030409D01*
X191178867Y-88199822D01*
X191353755Y-88326885D01*
X191556369Y-88402237D01*
X191771783Y-88420326D01*
X191984127Y-88379819D01*
X192177755Y-88283701D01*
X192247003Y-88249326D01*
X192353756Y-88326886D01*
X192556367Y-88402237D01*
X192771783Y-88420326D01*
X192984127Y-88379819D01*
X193177755Y-88283701D01*
X193247003Y-88249326D01*
X193353756Y-88326886D01*
X193556367Y-88402237D01*
X193771783Y-88420326D01*
X193984127Y-88379819D01*
X194177755Y-88283701D01*
X194247003Y-88249326D01*
X194353756Y-88326886D01*
X194556367Y-88402237D01*
X194771783Y-88420326D01*
X194984127Y-88379819D01*
X195177755Y-88283701D01*
X195247003Y-88249326D01*
X195353756Y-88326886D01*
X195556367Y-88402237D01*
X195771783Y-88420326D01*
X195984127Y-88379819D01*
X196177755Y-88283701D01*
X196247003Y-88249326D01*
X196353756Y-88326886D01*
X196556367Y-88402237D01*
X196771783Y-88420326D01*
X196984127Y-88379819D01*
X197177755Y-88283701D01*
X197247003Y-88249326D01*
X197353756Y-88326886D01*
X197556367Y-88402237D01*
X197771783Y-88420326D01*
X197984127Y-88379819D01*
X198177755Y-88283701D01*
X198247003Y-88249326D01*
X198353756Y-88326886D01*
X198556367Y-88402237D01*
X198771783Y-88420326D01*
X198984127Y-88379819D01*
X199177755Y-88283701D01*
X199247003Y-88249326D01*
X199353756Y-88326886D01*
X199556367Y-88402237D01*
X199771783Y-88420326D01*
X199984127Y-88379819D01*
X200177755Y-88283701D01*
X200247003Y-88249326D01*
X200353756Y-88326886D01*
X200556367Y-88402237D01*
X200771783Y-88420326D01*
X200984127Y-88379819D01*
X201177755Y-88283701D01*
X201247003Y-88249326D01*
X201353756Y-88326886D01*
X201556367Y-88402237D01*
X201771783Y-88420326D01*
X201984127Y-88379819D01*
X202177755Y-88283701D01*
X202247003Y-88249326D01*
X202353756Y-88326886D01*
X202556367Y-88402237D01*
X202771783Y-88420326D01*
X202984127Y-88379819D01*
X203177755Y-88283701D01*
X203247003Y-88249326D01*
X203353756Y-88326886D01*
X203556367Y-88402237D01*
X203771783Y-88420326D01*
X203984127Y-88379819D01*
X204177755Y-88283701D01*
X204247003Y-88249326D01*
X204353756Y-88326886D01*
X204556367Y-88402237D01*
X204771783Y-88420326D01*
X204984127Y-88379819D01*
X205177755Y-88283701D01*
X205247003Y-88249326D01*
X205353756Y-88326886D01*
X205556367Y-88402237D01*
X205771783Y-88420326D01*
X205984127Y-88379819D01*
X206177755Y-88283701D01*
X206247003Y-88249326D01*
X206353756Y-88326886D01*
X206556367Y-88402237D01*
X206771783Y-88420326D01*
X206984127Y-88379819D01*
X207177755Y-88283701D01*
X207247003Y-88249326D01*
X207353756Y-88326886D01*
X207556367Y-88402237D01*
X207771783Y-88420326D01*
X207984127Y-88379819D01*
X208177755Y-88283701D01*
X208247003Y-88249326D01*
X208353756Y-88326886D01*
X208556367Y-88402237D01*
X208771783Y-88420326D01*
X208984127Y-88379819D01*
X209177755Y-88283701D01*
X209247003Y-88249326D01*
X209353756Y-88326886D01*
X209556367Y-88402237D01*
X209771783Y-88420326D01*
X209984127Y-88379819D01*
X210177755Y-88283701D01*
X210247003Y-88249326D01*
X210353756Y-88326886D01*
X210556367Y-88402237D01*
X210771783Y-88420326D01*
X210984127Y-88379819D01*
X211177755Y-88283701D01*
X211247003Y-88249326D01*
X211353756Y-88326886D01*
X211556367Y-88402237D01*
X211771783Y-88420326D01*
X211984127Y-88379819D01*
X212177755Y-88283701D01*
X212247003Y-88249326D01*
X212353756Y-88326886D01*
X212556367Y-88402237D01*
X212771783Y-88420326D01*
X212984127Y-88379819D01*
X213177755Y-88283701D01*
X213247003Y-88249326D01*
X213353756Y-88326886D01*
X213556367Y-88402237D01*
X213771783Y-88420326D01*
X213984125Y-88379820D01*
X213985507Y-88379134D01*
X214177755Y-88283701D01*
X214338402Y-88139053D01*
X214454233Y-87956533D01*
X214516714Y-87749587D01*
X214519150Y-87516914D01*
X214519150Y-87516913D01*
X214461018Y-87308706D01*
X214349034Y-87123799D01*
X214191451Y-86975818D01*
X213999879Y-86875667D01*
X213788430Y-86830722D01*
X213788426Y-86830722D01*
X213572684Y-86844294D01*
X213368536Y-86915387D01*
X213242892Y-87002711D01*
X213191452Y-86975819D01*
X213191451Y-86975818D01*
X212999879Y-86875667D01*
X212788430Y-86830722D01*
X212788426Y-86830722D01*
X212572684Y-86844294D01*
X212368536Y-86915387D01*
X212242892Y-87002711D01*
X212191452Y-86975819D01*
X212191451Y-86975818D01*
X211999879Y-86875667D01*
X211788430Y-86830722D01*
X211788426Y-86830722D01*
X211572684Y-86844294D01*
X211368536Y-86915387D01*
X211242892Y-87002711D01*
X211191452Y-86975819D01*
X211191451Y-86975818D01*
X210999879Y-86875667D01*
X210788430Y-86830722D01*
X210788426Y-86830722D01*
X210572684Y-86844294D01*
X210368536Y-86915387D01*
X210242892Y-87002711D01*
X210191452Y-86975819D01*
X210191451Y-86975818D01*
X209999879Y-86875667D01*
X209788430Y-86830722D01*
X209788426Y-86830722D01*
X209572684Y-86844294D01*
X209368536Y-86915387D01*
X209242892Y-87002711D01*
X209191452Y-86975819D01*
X209191451Y-86975818D01*
X208999879Y-86875667D01*
X208788430Y-86830722D01*
X208788426Y-86830722D01*
X208572684Y-86844294D01*
X208368536Y-86915387D01*
X208242892Y-87002711D01*
X208191452Y-86975819D01*
X208191451Y-86975818D01*
X207999879Y-86875667D01*
X207788430Y-86830722D01*
X207788426Y-86830722D01*
X207572684Y-86844294D01*
X207368536Y-86915387D01*
X207242892Y-87002711D01*
X207191452Y-86975819D01*
X207191451Y-86975818D01*
X206999879Y-86875667D01*
X206788430Y-86830722D01*
X206788426Y-86830722D01*
X206572684Y-86844294D01*
X206368536Y-86915387D01*
X206242892Y-87002711D01*
X206191452Y-86975819D01*
X206191451Y-86975818D01*
X205999879Y-86875667D01*
X205788430Y-86830722D01*
X205788426Y-86830722D01*
X205572684Y-86844294D01*
X205368536Y-86915387D01*
X205242892Y-87002711D01*
X205191452Y-86975819D01*
X205191451Y-86975818D01*
X204999879Y-86875667D01*
X204788430Y-86830722D01*
X204788426Y-86830722D01*
X204572684Y-86844294D01*
X204368536Y-86915387D01*
X204242892Y-87002711D01*
X204191452Y-86975819D01*
X204191451Y-86975818D01*
X203999879Y-86875667D01*
X203788430Y-86830722D01*
X203788426Y-86830722D01*
X203572684Y-86844294D01*
X203368536Y-86915387D01*
X203242892Y-87002711D01*
X203191452Y-86975819D01*
X203191451Y-86975818D01*
X202999879Y-86875667D01*
X202788430Y-86830722D01*
X202788426Y-86830722D01*
X202572684Y-86844294D01*
X202368536Y-86915387D01*
X202242892Y-87002711D01*
X202191452Y-86975819D01*
X202191451Y-86975818D01*
X201999879Y-86875667D01*
X201788430Y-86830722D01*
X201788426Y-86830722D01*
X201572684Y-86844294D01*
X201368536Y-86915387D01*
X201242892Y-87002711D01*
X201191452Y-86975819D01*
X201191451Y-86975818D01*
X200999879Y-86875667D01*
X200788430Y-86830722D01*
X200788426Y-86830722D01*
X200572684Y-86844294D01*
X200368536Y-86915387D01*
X200242892Y-87002711D01*
X200191452Y-86975819D01*
X200191451Y-86975818D01*
X199999879Y-86875667D01*
X199788430Y-86830722D01*
X199788426Y-86830722D01*
X199572684Y-86844294D01*
X199368536Y-86915387D01*
X199242892Y-87002711D01*
X199191452Y-86975819D01*
X199191451Y-86975818D01*
X198999879Y-86875667D01*
X198788430Y-86830722D01*
X198788426Y-86830722D01*
X198572684Y-86844294D01*
X198368536Y-86915387D01*
X198242892Y-87002711D01*
X198191452Y-86975819D01*
X198191451Y-86975818D01*
X197999879Y-86875667D01*
X197788430Y-86830722D01*
X197788426Y-86830722D01*
X197572684Y-86844294D01*
X197368536Y-86915387D01*
X197242892Y-87002711D01*
X197191452Y-86975819D01*
X197191451Y-86975818D01*
X196999879Y-86875667D01*
X196788430Y-86830722D01*
X196788426Y-86830722D01*
X196572684Y-86844294D01*
X196368536Y-86915387D01*
X196242892Y-87002711D01*
X196191452Y-86975819D01*
X196191451Y-86975818D01*
X195999879Y-86875667D01*
X195788430Y-86830722D01*
X195788426Y-86830722D01*
X195572684Y-86844294D01*
X195368536Y-86915387D01*
X195242892Y-87002711D01*
X195191452Y-86975819D01*
X195191451Y-86975818D01*
X194999879Y-86875667D01*
X194788430Y-86830722D01*
X194788426Y-86830722D01*
X194572684Y-86844294D01*
X194368536Y-86915387D01*
X194242892Y-87002711D01*
X194191452Y-86975819D01*
X194191451Y-86975818D01*
X193999879Y-86875667D01*
X193788430Y-86830722D01*
X193788426Y-86830722D01*
X193572684Y-86844294D01*
X193368536Y-86915387D01*
X193242892Y-87002711D01*
X193191452Y-86975819D01*
X193191451Y-86975818D01*
X192999879Y-86875667D01*
X192788430Y-86830722D01*
X192788426Y-86830722D01*
X192572684Y-86844294D01*
X192368536Y-86915387D01*
X192242892Y-87002711D01*
X192191452Y-86975819D01*
X192191451Y-86975818D01*
X191999879Y-86875667D01*
X191788430Y-86830722D01*
X191788426Y-86830722D01*
X191572684Y-86844294D01*
X191368538Y-86915386D01*
X191368537Y-86915387D01*
X191368536Y-86915387D01*
X191191026Y-87038760D01*
X191120676Y-87123799D01*
X191053231Y-87205326D01*
X190965308Y-87402808D01*
X190933728Y-87616661D01*
X165000000Y-87616661D01*
X165000000Y-85591661D01*
X192503626Y-85591661D01*
X192530719Y-85806126D01*
X192530720Y-85806128D01*
X192614490Y-86005409D01*
X192748765Y-86174822D01*
X192923653Y-86301885D01*
X193126267Y-86377237D01*
X193341681Y-86395326D01*
X193554023Y-86354820D01*
X193609588Y-86327237D01*
X193747653Y-86258701D01*
X193896340Y-86124822D01*
X193911347Y-86111310D01*
X193998765Y-86174822D01*
X194173653Y-86301885D01*
X194315990Y-86354820D01*
X194376267Y-86377237D01*
X194591681Y-86395326D01*
X194804023Y-86354820D01*
X194859588Y-86327237D01*
X194997653Y-86258701D01*
X195158300Y-86114053D01*
X195190032Y-86064052D01*
X195308202Y-85877848D01*
X195389489Y-85980407D01*
X195389490Y-85980409D01*
X195523765Y-86149822D01*
X195698653Y-86276885D01*
X195840990Y-86329820D01*
X195901267Y-86352237D01*
X196116681Y-86370326D01*
X196329023Y-86329820D01*
X196334226Y-86327237D01*
X196522653Y-86233701D01*
X196683300Y-86089053D01*
X196736382Y-86005410D01*
X196771114Y-85950682D01*
X196814490Y-86005409D01*
X196948765Y-86174822D01*
X197123653Y-86301885D01*
X197326267Y-86377237D01*
X197541681Y-86395326D01*
X197754023Y-86354820D01*
X197809588Y-86327237D01*
X197947653Y-86258701D01*
X198108300Y-86114053D01*
X198140032Y-86064052D01*
X198300362Y-85811415D01*
X198414490Y-85955409D01*
X198548765Y-86124822D01*
X198723653Y-86251885D01*
X198865990Y-86304820D01*
X198926267Y-86327237D01*
X199141681Y-86345326D01*
X199354023Y-86304820D01*
X199359935Y-86301885D01*
X199547653Y-86208701D01*
X199708300Y-86064053D01*
X199708301Y-86064052D01*
X199807232Y-85908166D01*
X199864489Y-85980406D01*
X199864490Y-85980409D01*
X199998765Y-86149822D01*
X200173653Y-86276885D01*
X200315990Y-86329820D01*
X200376267Y-86352237D01*
X200591681Y-86370326D01*
X200804023Y-86329820D01*
X200809226Y-86327237D01*
X200997653Y-86233701D01*
X201158300Y-86089053D01*
X201211382Y-86005410D01*
X201261842Y-85925899D01*
X201364490Y-86055409D01*
X201498765Y-86224822D01*
X201673653Y-86351885D01*
X201815990Y-86404820D01*
X201876267Y-86427237D01*
X202091681Y-86445326D01*
X202304023Y-86404820D01*
X202359588Y-86377237D01*
X202497653Y-86308701D01*
X202658300Y-86164053D01*
X202667332Y-86149822D01*
X202705896Y-86089054D01*
X202774131Y-85981533D01*
X202774132Y-85981531D01*
X202803589Y-85935113D01*
X202839490Y-85980409D01*
X202973765Y-86149822D01*
X203148653Y-86276885D01*
X203290990Y-86329820D01*
X203351267Y-86352237D01*
X203566681Y-86370326D01*
X203779023Y-86329820D01*
X203784226Y-86327237D01*
X203972653Y-86233701D01*
X204133300Y-86089053D01*
X204249131Y-85906533D01*
X204249132Y-85906530D01*
X204254462Y-85898131D01*
X204453950Y-86149822D01*
X204473765Y-86174822D01*
X204648653Y-86301885D01*
X204851267Y-86377237D01*
X205066681Y-86395326D01*
X205279023Y-86354820D01*
X205334588Y-86327237D01*
X205472653Y-86258701D01*
X205633300Y-86114053D01*
X205665033Y-86064051D01*
X205733979Y-85955409D01*
X205749131Y-85931533D01*
X205749131Y-85931532D01*
X205769778Y-85898998D01*
X205940229Y-86114052D01*
X205948765Y-86124822D01*
X206123653Y-86251885D01*
X206326267Y-86327237D01*
X206541681Y-86345326D01*
X206754023Y-86304820D01*
X206759935Y-86301885D01*
X206947653Y-86208701D01*
X207108300Y-86064053D01*
X207108301Y-86064052D01*
X207208954Y-85973423D01*
X207214489Y-85980406D01*
X207214490Y-85980409D01*
X207348765Y-86149822D01*
X207523653Y-86276885D01*
X207665990Y-86329820D01*
X207726267Y-86352237D01*
X207941681Y-86370326D01*
X208154023Y-86329820D01*
X208159226Y-86327237D01*
X208347653Y-86233701D01*
X208508300Y-86089053D01*
X208561382Y-86005410D01*
X208658202Y-85852848D01*
X208739489Y-85955407D01*
X208739490Y-85955409D01*
X208873765Y-86124822D01*
X209048653Y-86251885D01*
X209251267Y-86327237D01*
X209466681Y-86345326D01*
X209679023Y-86304820D01*
X209684935Y-86301885D01*
X209872653Y-86208701D01*
X210033300Y-86064053D01*
X210131206Y-85909778D01*
X215248876Y-85909778D01*
X215270306Y-85922452D01*
X215439063Y-85975014D01*
X215615386Y-85987344D01*
X215789816Y-85958780D01*
X215907537Y-85909778D01*
X216548876Y-85909778D01*
X216570306Y-85922452D01*
X216739063Y-85975014D01*
X216915386Y-85987344D01*
X217089816Y-85958780D01*
X217210214Y-85908664D01*
X216880102Y-85578552D01*
X216548876Y-85909778D01*
X215907537Y-85909778D01*
X215910214Y-85908664D01*
X215580102Y-85578552D01*
X215248876Y-85909778D01*
X210131206Y-85909778D01*
X210149131Y-85881533D01*
X210211612Y-85674587D01*
X210214048Y-85441914D01*
X210202296Y-85399822D01*
X210155916Y-85233706D01*
X210043932Y-85048799D01*
X210025112Y-85031126D01*
X209886349Y-84900818D01*
X209694777Y-84800667D01*
X209483328Y-84755722D01*
X209483324Y-84755722D01*
X209267582Y-84769294D01*
X209063436Y-84840386D01*
X209063435Y-84840387D01*
X209063434Y-84840387D01*
X208906315Y-84949588D01*
X208885923Y-84963761D01*
X208635567Y-85266388D01*
X208630916Y-85258708D01*
X208630915Y-85258705D01*
X208518932Y-85073799D01*
X208361349Y-84925818D01*
X208169777Y-84825667D01*
X207958328Y-84780722D01*
X207958324Y-84780722D01*
X207742582Y-84794294D01*
X207538436Y-84865386D01*
X207538435Y-84865387D01*
X207538434Y-84865387D01*
X207360924Y-84988760D01*
X207227170Y-85150440D01*
X206961350Y-84900819D01*
X206961349Y-84900818D01*
X206769777Y-84800667D01*
X206558328Y-84755722D01*
X206558324Y-84755722D01*
X206342582Y-84769294D01*
X206138436Y-84840386D01*
X206138435Y-84840387D01*
X206138434Y-84840387D01*
X205981315Y-84949588D01*
X205960923Y-84963761D01*
X205730694Y-85242060D01*
X205643932Y-85098799D01*
X205486349Y-84950818D01*
X205294777Y-84850667D01*
X205083328Y-84805722D01*
X205083324Y-84805722D01*
X204867582Y-84819294D01*
X204663436Y-84890386D01*
X204663435Y-84890387D01*
X204663434Y-84890387D01*
X204521893Y-84988761D01*
X204485923Y-85013761D01*
X204471556Y-85031128D01*
X204415575Y-85098798D01*
X204267486Y-85277807D01*
X204143932Y-85073798D01*
X204027660Y-84964612D01*
X203986349Y-84925818D01*
X203794777Y-84825667D01*
X203583328Y-84780722D01*
X203583324Y-84780722D01*
X203367582Y-84794294D01*
X203163436Y-84865386D01*
X203163435Y-84865387D01*
X203163434Y-84865387D01*
X202985924Y-84988760D01*
X202985923Y-84988761D01*
X202971556Y-85006128D01*
X202848131Y-85155323D01*
X202848130Y-85155324D01*
X202772822Y-85246357D01*
X202511350Y-85000819D01*
X202511349Y-85000818D01*
X202319777Y-84900667D01*
X202108328Y-84855722D01*
X202108324Y-84855722D01*
X201892582Y-84869294D01*
X201688436Y-84940386D01*
X201688435Y-84940387D01*
X201688434Y-84940387D01*
X201532450Y-85048799D01*
X201510923Y-85063761D01*
X201309967Y-85306674D01*
X201168933Y-85073799D01*
X201091217Y-85000819D01*
X201011349Y-84925818D01*
X200819777Y-84825667D01*
X200608328Y-84780722D01*
X200608324Y-84780722D01*
X200392582Y-84794294D01*
X200188436Y-84865386D01*
X200188435Y-84865387D01*
X200188434Y-84865387D01*
X200010924Y-84988760D01*
X200010923Y-84988761D01*
X199996556Y-85006128D01*
X199873131Y-85155323D01*
X199873130Y-85155324D01*
X199821352Y-85217914D01*
X199749212Y-85098798D01*
X199718932Y-85048799D01*
X199561349Y-84900818D01*
X199369777Y-84800667D01*
X199158328Y-84755722D01*
X199158324Y-84755722D01*
X198942582Y-84769294D01*
X198738436Y-84840386D01*
X198738435Y-84840387D01*
X198738434Y-84840387D01*
X198560924Y-84963760D01*
X198423131Y-85130323D01*
X198420327Y-85136622D01*
X198400366Y-85181454D01*
X198354386Y-85235550D01*
X198286459Y-85256200D01*
X198218151Y-85236848D01*
X198177483Y-85195478D01*
X198138025Y-85130326D01*
X198118932Y-85098799D01*
X197961349Y-84950818D01*
X197769777Y-84850667D01*
X197558328Y-84805722D01*
X197558324Y-84805722D01*
X197342582Y-84819294D01*
X197138436Y-84890386D01*
X197138435Y-84890387D01*
X197138434Y-84890387D01*
X196960924Y-85013760D01*
X196864495Y-85130323D01*
X196785785Y-85225466D01*
X196693932Y-85073799D01*
X196693931Y-85073797D01*
X196577660Y-84964612D01*
X196536349Y-84925818D01*
X196344777Y-84825667D01*
X196133328Y-84780722D01*
X196133324Y-84780722D01*
X195917582Y-84794294D01*
X195713436Y-84865386D01*
X195713435Y-84865387D01*
X195713434Y-84865387D01*
X195535924Y-84988760D01*
X195535923Y-84988761D01*
X195285567Y-85291388D01*
X195280916Y-85283708D01*
X195280915Y-85283705D01*
X195168932Y-85098799D01*
X195011349Y-84950818D01*
X194819777Y-84850667D01*
X194608328Y-84805722D01*
X194608324Y-84805722D01*
X194392582Y-84819294D01*
X194188436Y-84890386D01*
X194188435Y-84890387D01*
X194188434Y-84890387D01*
X194010924Y-85013760D01*
X194010923Y-85013761D01*
X194010919Y-85013764D01*
X193931105Y-85110230D01*
X193881619Y-85063760D01*
X193761349Y-84950818D01*
X193569777Y-84850667D01*
X193358328Y-84805722D01*
X193358324Y-84805722D01*
X193142582Y-84819294D01*
X192938436Y-84890386D01*
X192938435Y-84890387D01*
X192938434Y-84890387D01*
X192760924Y-85013760D01*
X192647852Y-85150441D01*
X192623129Y-85180326D01*
X192577558Y-85282683D01*
X192535910Y-85376227D01*
X192535206Y-85377808D01*
X192503626Y-85591661D01*
X165000000Y-85591661D01*
X165000000Y-83641661D01*
X191953626Y-83641661D01*
X191980719Y-83856126D01*
X191980720Y-83856128D01*
X192064490Y-84055409D01*
X192198765Y-84224822D01*
X192373653Y-84351885D01*
X192517345Y-84405324D01*
X192576267Y-84427237D01*
X192791681Y-84445326D01*
X193004023Y-84404820D01*
X193024361Y-84394724D01*
X193197653Y-84308701D01*
X193358300Y-84164053D01*
X193474131Y-83981533D01*
X193474133Y-83981528D01*
X193500293Y-83940305D01*
X193801265Y-84052237D01*
X194016681Y-84070326D01*
X194229023Y-84029820D01*
X194250227Y-84019294D01*
X194422653Y-83933701D01*
X194583300Y-83789053D01*
X194583300Y-83789052D01*
X194680928Y-83701148D01*
X194798765Y-83849822D01*
X194973653Y-83976885D01*
X195176267Y-84052237D01*
X195391681Y-84070326D01*
X195604023Y-84029820D01*
X195625227Y-84019294D01*
X195797653Y-83933701D01*
X195958300Y-83789053D01*
X195998950Y-83725000D01*
X196066040Y-83619282D01*
X196149832Y-83725000D01*
X196248765Y-83849822D01*
X196423653Y-83976885D01*
X196622045Y-84050667D01*
X196626267Y-84052237D01*
X196841681Y-84070326D01*
X197054025Y-84029819D01*
X197068032Y-84022866D01*
X197227405Y-83943754D01*
X197234214Y-83948701D01*
X197293653Y-83991885D01*
X197467652Y-84056595D01*
X197496267Y-84067237D01*
X197711681Y-84085326D01*
X197924023Y-84044820D01*
X197968249Y-84022866D01*
X198117653Y-83948701D01*
X198117654Y-83948700D01*
X198117656Y-83948699D01*
X198281637Y-83801050D01*
X198348763Y-83849820D01*
X198348765Y-83849822D01*
X198523653Y-83976885D01*
X198722045Y-84050667D01*
X198726267Y-84052237D01*
X198941681Y-84070326D01*
X199154025Y-84029819D01*
X199347653Y-83933701D01*
X199416901Y-83899326D01*
X199523654Y-83976886D01*
X199726265Y-84052237D01*
X199941681Y-84070326D01*
X200154023Y-84029820D01*
X200175227Y-84019294D01*
X200342640Y-83936189D01*
X200398652Y-83976884D01*
X200398656Y-83976887D01*
X200601265Y-84052237D01*
X200816681Y-84070326D01*
X201029025Y-84029819D01*
X201222653Y-83933701D01*
X201222655Y-83933699D01*
X201232491Y-83928816D01*
X201298653Y-83976885D01*
X201497045Y-84050667D01*
X201501267Y-84052237D01*
X201716681Y-84070326D01*
X201929023Y-84029820D01*
X202026296Y-83981533D01*
X202122653Y-83933701D01*
X202122654Y-83933700D01*
X202122656Y-83933699D01*
X202197035Y-83866729D01*
X202348653Y-83976885D01*
X202547045Y-84050667D01*
X202551267Y-84052237D01*
X202766681Y-84070326D01*
X202979023Y-84029820D01*
X203000227Y-84019294D01*
X203172653Y-83933701D01*
X203265809Y-83849822D01*
X203291690Y-83826519D01*
X203430050Y-83927042D01*
X203498653Y-83976885D01*
X203697045Y-84050667D01*
X203701267Y-84052237D01*
X203916681Y-84070326D01*
X204129025Y-84029819D01*
X204322653Y-83933701D01*
X204391901Y-83899326D01*
X204498654Y-83976886D01*
X204701265Y-84052237D01*
X204916681Y-84070326D01*
X205129025Y-84029819D01*
X205322653Y-83933701D01*
X205391901Y-83899326D01*
X205498654Y-83976886D01*
X205701265Y-84052237D01*
X205916681Y-84070326D01*
X206129023Y-84029820D01*
X206150227Y-84019294D01*
X206322653Y-83933701D01*
X206483300Y-83789053D01*
X206522414Y-83727420D01*
X206602158Y-83601765D01*
X206664490Y-83680408D01*
X206664490Y-83680409D01*
X206798765Y-83849822D01*
X206973653Y-83976885D01*
X207172045Y-84050667D01*
X207176267Y-84052237D01*
X207391681Y-84070326D01*
X207604023Y-84029820D01*
X207625227Y-84019294D01*
X207797653Y-83933701D01*
X207883806Y-83856128D01*
X208026750Y-83727421D01*
X208123765Y-83849822D01*
X208298653Y-83976885D01*
X208497045Y-84050667D01*
X208501267Y-84052237D01*
X208716681Y-84070326D01*
X208929023Y-84029820D01*
X209122653Y-83933701D01*
X209128078Y-83928816D01*
X209275183Y-83796362D01*
X209348765Y-83849822D01*
X209523653Y-83976885D01*
X209722045Y-84050667D01*
X209726267Y-84052237D01*
X209941681Y-84070326D01*
X210154025Y-84029819D01*
X210347653Y-83933701D01*
X210416901Y-83899326D01*
X210523654Y-83976886D01*
X210726265Y-84052237D01*
X210941681Y-84070326D01*
X211154025Y-84029819D01*
X211347653Y-83933701D01*
X211416901Y-83899326D01*
X211523653Y-83976885D01*
X211893790Y-84114540D01*
X211653232Y-84405324D01*
X211618335Y-84483705D01*
X211576439Y-84577808D01*
X211565308Y-84602808D01*
X211533728Y-84816661D01*
X211560821Y-85031126D01*
X211568250Y-85048798D01*
X211644592Y-85230409D01*
X211778867Y-85399822D01*
X211953755Y-85526885D01*
X212096092Y-85579820D01*
X212156369Y-85602237D01*
X212371783Y-85620326D01*
X212584125Y-85579820D01*
X212634489Y-85554819D01*
X212777755Y-85483701D01*
X212938402Y-85339053D01*
X213014585Y-85219007D01*
X214816966Y-85219007D01*
X214836054Y-85394724D01*
X214893789Y-85557761D01*
X215226550Y-85225000D01*
X215933654Y-85225000D01*
X216230102Y-85521448D01*
X216526550Y-85225000D01*
X217233654Y-85225000D01*
X217563158Y-85554504D01*
X217593286Y-85496628D01*
X217636646Y-85325273D01*
X217638128Y-85136622D01*
X217597466Y-84964612D01*
X217562957Y-84895698D01*
X217233654Y-85225000D01*
X216526550Y-85225000D01*
X216230102Y-84928552D01*
X215933654Y-85225000D01*
X215226550Y-85225000D01*
X214894749Y-84893200D01*
X214838813Y-85043609D01*
X214816966Y-85219007D01*
X213014585Y-85219007D01*
X213054233Y-85156533D01*
X213101246Y-85000819D01*
X213116714Y-84949588D01*
X213119065Y-84725000D01*
X215433654Y-84725000D01*
X215580102Y-84871448D01*
X215726550Y-84725000D01*
X216733654Y-84725000D01*
X216880102Y-84871448D01*
X216959889Y-84791661D01*
X219803626Y-84791661D01*
X219830719Y-85006126D01*
X219833930Y-85013764D01*
X219914490Y-85205409D01*
X220048765Y-85374822D01*
X220223653Y-85501885D01*
X220365990Y-85554820D01*
X220426267Y-85577237D01*
X220641681Y-85595326D01*
X220854023Y-85554820D01*
X220855405Y-85554134D01*
X221047653Y-85458701D01*
X221208300Y-85314053D01*
X221324131Y-85131533D01*
X221363596Y-85000819D01*
X221386612Y-84924588D01*
X221389048Y-84691913D01*
X221330916Y-84483706D01*
X221218932Y-84298799D01*
X221140344Y-84225000D01*
X221061349Y-84150818D01*
X220869777Y-84050667D01*
X220658328Y-84005722D01*
X220658324Y-84005722D01*
X220442582Y-84019294D01*
X220238436Y-84090386D01*
X220238435Y-84090387D01*
X220238434Y-84090387D01*
X220060924Y-84213760D01*
X219923131Y-84380323D01*
X219923129Y-84380326D01*
X219894190Y-84445326D01*
X219844132Y-84557760D01*
X219835206Y-84577808D01*
X219803626Y-84791661D01*
X216959889Y-84791661D01*
X217026550Y-84725000D01*
X216880102Y-84578552D01*
X216733654Y-84725000D01*
X215726550Y-84725000D01*
X215580102Y-84578552D01*
X215433654Y-84725000D01*
X213119065Y-84725000D01*
X213119150Y-84716913D01*
X213061018Y-84508706D01*
X212949034Y-84323799D01*
X212922412Y-84298799D01*
X212837443Y-84219007D01*
X214816966Y-84219007D01*
X214836054Y-84394724D01*
X214893789Y-84557760D01*
X215226550Y-84225000D01*
X215933654Y-84225000D01*
X216230102Y-84521448D01*
X216526550Y-84225000D01*
X217233654Y-84225000D01*
X217563158Y-84554503D01*
X217593286Y-84496628D01*
X217636646Y-84325273D01*
X217638128Y-84136622D01*
X217597466Y-83964612D01*
X217562957Y-83895698D01*
X217233654Y-84225000D01*
X216526550Y-84225000D01*
X216230102Y-83928552D01*
X215933654Y-84225000D01*
X215226550Y-84225000D01*
X214894749Y-83893200D01*
X214838813Y-84043609D01*
X214816966Y-84219007D01*
X212837443Y-84219007D01*
X212791451Y-84175818D01*
X212599879Y-84075667D01*
X212510150Y-84056594D01*
X212447677Y-84022866D01*
X212413356Y-83960717D01*
X212418084Y-83889878D01*
X212452038Y-83839712D01*
X212508300Y-83789053D01*
X212548949Y-83725000D01*
X215433654Y-83725000D01*
X215580102Y-83871448D01*
X215726550Y-83725000D01*
X216733654Y-83725000D01*
X216880102Y-83871448D01*
X217026550Y-83725000D01*
X216880102Y-83578552D01*
X216733654Y-83725000D01*
X215726550Y-83725000D01*
X215580102Y-83578552D01*
X215433654Y-83725000D01*
X212548949Y-83725000D01*
X212624131Y-83606533D01*
X212686612Y-83399588D01*
X212688502Y-83219007D01*
X214816966Y-83219007D01*
X214836054Y-83394724D01*
X214893789Y-83557760D01*
X215226550Y-83225000D01*
X215933654Y-83225000D01*
X216230102Y-83521448D01*
X216526550Y-83225000D01*
X217233654Y-83225000D01*
X217563158Y-83554503D01*
X217593286Y-83496628D01*
X217636646Y-83325273D01*
X217638128Y-83136622D01*
X217597466Y-82964613D01*
X217562956Y-82895698D01*
X217233654Y-83225000D01*
X216526550Y-83225000D01*
X216230102Y-82928552D01*
X215933654Y-83225000D01*
X215226550Y-83225000D01*
X214894750Y-82893200D01*
X214838813Y-83043609D01*
X214816966Y-83219007D01*
X212688502Y-83219007D01*
X212689048Y-83166913D01*
X212630916Y-82958706D01*
X212518932Y-82773799D01*
X212474833Y-82732387D01*
X212361349Y-82625818D01*
X212198885Y-82540884D01*
X215249538Y-82540884D01*
X215580102Y-82871448D01*
X215909783Y-82541767D01*
X215907753Y-82540884D01*
X216549538Y-82540884D01*
X216880102Y-82871448D01*
X217209783Y-82541767D01*
X217101318Y-82494606D01*
X216927357Y-82463304D01*
X216750861Y-82472864D01*
X216581298Y-82522768D01*
X216549538Y-82540884D01*
X215907753Y-82540884D01*
X215801318Y-82494606D01*
X215627357Y-82463304D01*
X215450861Y-82472864D01*
X215281298Y-82522768D01*
X215249538Y-82540884D01*
X212198885Y-82540884D01*
X212169777Y-82525667D01*
X211958328Y-82480722D01*
X211958324Y-82480722D01*
X211742582Y-82494294D01*
X211538434Y-82565387D01*
X211412790Y-82652711D01*
X211361350Y-82625819D01*
X211361349Y-82625818D01*
X211169777Y-82525667D01*
X210958328Y-82480722D01*
X210958324Y-82480722D01*
X210742582Y-82494294D01*
X210538434Y-82565387D01*
X210412790Y-82652711D01*
X210361350Y-82625819D01*
X210361349Y-82625818D01*
X210169777Y-82525667D01*
X209958328Y-82480722D01*
X209958324Y-82480722D01*
X209742582Y-82494294D01*
X209538436Y-82565386D01*
X209538435Y-82565387D01*
X209538434Y-82565387D01*
X209451484Y-82625819D01*
X209270385Y-82751686D01*
X209136350Y-82625819D01*
X209136349Y-82625818D01*
X208944777Y-82525667D01*
X208733328Y-82480722D01*
X208733324Y-82480722D01*
X208517582Y-82494294D01*
X208313436Y-82565386D01*
X208313435Y-82565387D01*
X208313434Y-82565387D01*
X208135924Y-82688760D01*
X208023321Y-82824873D01*
X207811350Y-82625819D01*
X207811349Y-82625818D01*
X207619777Y-82525667D01*
X207408328Y-82480722D01*
X207408324Y-82480722D01*
X207192582Y-82494294D01*
X206988436Y-82565386D01*
X206988435Y-82565387D01*
X206988434Y-82565387D01*
X206810924Y-82688760D01*
X206673131Y-82855323D01*
X206673130Y-82855325D01*
X206598178Y-82945926D01*
X206493934Y-82773800D01*
X206380874Y-82667630D01*
X206336349Y-82625818D01*
X206144777Y-82525667D01*
X205933328Y-82480722D01*
X205933324Y-82480722D01*
X205717582Y-82494294D01*
X205513434Y-82565387D01*
X205387790Y-82652711D01*
X205336350Y-82625819D01*
X205336349Y-82625818D01*
X205144777Y-82525667D01*
X204933328Y-82480722D01*
X204933324Y-82480722D01*
X204717582Y-82494294D01*
X204513434Y-82565387D01*
X204387790Y-82652711D01*
X204336350Y-82625819D01*
X204336349Y-82625818D01*
X204144777Y-82525667D01*
X203933328Y-82480722D01*
X203933324Y-82480722D01*
X203717582Y-82494294D01*
X203513437Y-82565386D01*
X203513434Y-82565387D01*
X203335924Y-82688760D01*
X203335921Y-82688763D01*
X203288486Y-82721732D01*
X203186349Y-82625818D01*
X202994777Y-82525667D01*
X202783328Y-82480722D01*
X202783324Y-82480722D01*
X202567582Y-82494294D01*
X202363436Y-82565386D01*
X202363435Y-82565387D01*
X202363434Y-82565387D01*
X202216327Y-82667630D01*
X202136351Y-82625820D01*
X202136349Y-82625818D01*
X201944777Y-82525667D01*
X201733328Y-82480722D01*
X201733324Y-82480722D01*
X201517582Y-82494294D01*
X201313434Y-82565387D01*
X201230719Y-82622874D01*
X201120753Y-82565386D01*
X201044777Y-82525667D01*
X200833328Y-82480722D01*
X200833324Y-82480722D01*
X200617582Y-82494294D01*
X200413436Y-82565386D01*
X200413435Y-82565387D01*
X200413434Y-82565387D01*
X200399970Y-82574745D01*
X200341451Y-82615415D01*
X200245753Y-82565386D01*
X200169777Y-82525667D01*
X199958328Y-82480722D01*
X199958324Y-82480722D01*
X199742582Y-82494294D01*
X199538434Y-82565387D01*
X199412790Y-82652711D01*
X199361350Y-82625819D01*
X199361349Y-82625818D01*
X199169777Y-82525667D01*
X198958328Y-82480722D01*
X198958324Y-82480722D01*
X198742582Y-82494294D01*
X198538436Y-82565386D01*
X198538435Y-82565387D01*
X198538434Y-82565387D01*
X198360924Y-82688760D01*
X198360923Y-82688761D01*
X198282870Y-82783106D01*
X198131349Y-82640818D01*
X197939777Y-82540667D01*
X197728328Y-82495722D01*
X197728324Y-82495722D01*
X197512582Y-82509294D01*
X197308436Y-82580386D01*
X197308435Y-82580387D01*
X197308434Y-82580387D01*
X197250915Y-82620364D01*
X197241449Y-82615415D01*
X197098884Y-82540884D01*
X197069777Y-82525667D01*
X196858328Y-82480722D01*
X196858325Y-82480722D01*
X196642582Y-82494294D01*
X196438436Y-82565386D01*
X196438435Y-82565387D01*
X196438434Y-82565387D01*
X196260924Y-82688760D01*
X196260923Y-82688761D01*
X196062610Y-82928480D01*
X195968932Y-82773799D01*
X195811349Y-82625818D01*
X195619777Y-82525667D01*
X195408328Y-82480722D01*
X195408324Y-82480722D01*
X195192582Y-82494294D01*
X194988436Y-82565386D01*
X194988435Y-82565387D01*
X194988434Y-82565387D01*
X194810924Y-82688760D01*
X194810923Y-82688761D01*
X194676460Y-82851298D01*
X194549833Y-82732387D01*
X194436349Y-82625818D01*
X194244777Y-82525667D01*
X194033328Y-82480722D01*
X194033324Y-82480722D01*
X193817582Y-82494294D01*
X193613436Y-82565386D01*
X193613435Y-82565387D01*
X193613434Y-82565387D01*
X193435924Y-82688760D01*
X193435923Y-82688761D01*
X193383867Y-82751686D01*
X193298131Y-82855323D01*
X193229199Y-83010148D01*
X193019779Y-82900668D01*
X193019777Y-82900667D01*
X192808328Y-82855722D01*
X192808324Y-82855722D01*
X192592582Y-82869294D01*
X192388436Y-82940386D01*
X192388435Y-82940387D01*
X192388434Y-82940387D01*
X192210924Y-83063760D01*
X192077535Y-83225000D01*
X192073129Y-83230326D01*
X192030857Y-83325273D01*
X191997771Y-83399587D01*
X191985206Y-83427808D01*
X191953626Y-83641661D01*
X165000000Y-83641661D01*
X165000000Y-80891661D01*
X192203626Y-80891661D01*
X192230719Y-81106126D01*
X192230720Y-81106128D01*
X192314490Y-81305409D01*
X192448765Y-81474822D01*
X192623653Y-81601885D01*
X192765990Y-81654820D01*
X192826267Y-81677237D01*
X193041681Y-81695326D01*
X193254023Y-81654820D01*
X193309588Y-81627237D01*
X193447653Y-81558701D01*
X193608300Y-81414053D01*
X193724131Y-81231533D01*
X193786612Y-81024587D01*
X193788527Y-80841661D01*
X198328626Y-80841661D01*
X198355719Y-81056126D01*
X198355720Y-81056128D01*
X198439490Y-81255409D01*
X198573765Y-81424822D01*
X198748653Y-81551885D01*
X198890990Y-81604820D01*
X198951267Y-81627237D01*
X199166681Y-81645326D01*
X199379023Y-81604820D01*
X199384935Y-81601885D01*
X199572653Y-81508701D01*
X199733300Y-81364053D01*
X199822391Y-81283835D01*
X199839490Y-81305408D01*
X199839490Y-81305409D01*
X199973765Y-81474822D01*
X200148653Y-81601885D01*
X200290990Y-81654820D01*
X200351267Y-81677237D01*
X200566681Y-81695326D01*
X200779023Y-81654820D01*
X200834588Y-81627237D01*
X200972653Y-81558701D01*
X201133300Y-81414053D01*
X201249131Y-81231533D01*
X201311612Y-81024587D01*
X201313265Y-80866661D01*
X202028626Y-80866661D01*
X202055719Y-81081126D01*
X202055720Y-81081128D01*
X202139490Y-81280409D01*
X202273765Y-81449822D01*
X202448653Y-81576885D01*
X202651267Y-81652237D01*
X202866681Y-81670326D01*
X203079023Y-81629820D01*
X203129387Y-81604819D01*
X203272653Y-81533701D01*
X203433300Y-81389053D01*
X203549131Y-81206533D01*
X203611612Y-80999587D01*
X203613003Y-80866661D01*
X204778626Y-80866661D01*
X204805719Y-81081126D01*
X204805720Y-81081128D01*
X204889490Y-81280409D01*
X205023765Y-81449822D01*
X205198653Y-81576885D01*
X205401267Y-81652237D01*
X205616681Y-81670326D01*
X205829023Y-81629820D01*
X205879387Y-81604819D01*
X206022653Y-81533701D01*
X206183300Y-81389053D01*
X206299131Y-81206533D01*
X206361612Y-80999587D01*
X206363265Y-80841661D01*
X206703626Y-80841661D01*
X206730719Y-81056126D01*
X206730720Y-81056128D01*
X206814490Y-81255409D01*
X206948765Y-81424822D01*
X207123653Y-81551885D01*
X207265990Y-81604820D01*
X207326267Y-81627237D01*
X207541681Y-81645326D01*
X207754023Y-81604820D01*
X207759935Y-81601885D01*
X207947653Y-81508701D01*
X208108300Y-81364053D01*
X208108302Y-81364050D01*
X208109858Y-81362649D01*
X208198765Y-81474822D01*
X208373653Y-81601885D01*
X208576267Y-81677237D01*
X208791681Y-81695326D01*
X209004023Y-81654820D01*
X209059588Y-81627237D01*
X209197653Y-81558701D01*
X209358300Y-81414053D01*
X209474131Y-81231533D01*
X209536612Y-81024587D01*
X209539048Y-80791914D01*
X209532068Y-80766913D01*
X209480916Y-80583706D01*
X209368932Y-80398799D01*
X209331929Y-80364051D01*
X209211349Y-80250818D01*
X209019777Y-80150667D01*
X208859792Y-80116661D01*
X215533728Y-80116661D01*
X215560821Y-80331126D01*
X215560928Y-80331381D01*
X215644592Y-80530409D01*
X215778867Y-80699822D01*
X215953755Y-80826885D01*
X216096092Y-80879820D01*
X216156369Y-80902237D01*
X216371783Y-80920326D01*
X216584125Y-80879820D01*
X216585507Y-80879134D01*
X216777755Y-80783701D01*
X216938402Y-80639053D01*
X217054233Y-80456533D01*
X217092019Y-80331381D01*
X217116714Y-80249588D01*
X217119150Y-80016913D01*
X217061018Y-79808706D01*
X216949034Y-79623799D01*
X216938653Y-79614051D01*
X216791451Y-79475818D01*
X216599879Y-79375667D01*
X216388430Y-79330722D01*
X216388426Y-79330722D01*
X216172684Y-79344294D01*
X215968538Y-79415386D01*
X215968537Y-79415387D01*
X215968536Y-79415387D01*
X215791026Y-79538760D01*
X215678466Y-79674822D01*
X215653231Y-79705326D01*
X215627321Y-79763523D01*
X215576693Y-79877237D01*
X215565308Y-79902808D01*
X215533728Y-80116661D01*
X208859792Y-80116661D01*
X208808328Y-80105722D01*
X208808324Y-80105722D01*
X208592582Y-80119294D01*
X208388436Y-80190386D01*
X208388435Y-80190387D01*
X208388434Y-80190387D01*
X208210924Y-80313760D01*
X208136617Y-80365405D01*
X207961350Y-80200819D01*
X207961349Y-80200818D01*
X207769777Y-80100667D01*
X207558328Y-80055722D01*
X207558324Y-80055722D01*
X207342582Y-80069294D01*
X207138436Y-80140386D01*
X207138435Y-80140387D01*
X207138434Y-80140387D01*
X206960924Y-80263760D01*
X206827682Y-80424822D01*
X206823129Y-80430326D01*
X206785179Y-80515564D01*
X206745441Y-80604820D01*
X206735206Y-80627808D01*
X206703626Y-80841661D01*
X206363265Y-80841661D01*
X206364048Y-80766914D01*
X206345316Y-80699822D01*
X206305916Y-80558706D01*
X206193932Y-80373799D01*
X206167310Y-80348799D01*
X206036349Y-80225818D01*
X205844777Y-80125667D01*
X205633328Y-80080722D01*
X205633324Y-80080722D01*
X205417582Y-80094294D01*
X205213436Y-80165386D01*
X205213435Y-80165387D01*
X205213434Y-80165387D01*
X205035924Y-80288760D01*
X204898131Y-80455323D01*
X204898129Y-80455326D01*
X204871952Y-80514122D01*
X204821337Y-80627808D01*
X204810206Y-80652808D01*
X204778626Y-80866661D01*
X203613003Y-80866661D01*
X203614048Y-80766914D01*
X203595316Y-80699822D01*
X203555916Y-80558706D01*
X203443932Y-80373799D01*
X203417310Y-80348799D01*
X203286349Y-80225818D01*
X203094777Y-80125667D01*
X202883328Y-80080722D01*
X202883324Y-80080722D01*
X202667582Y-80094294D01*
X202463436Y-80165386D01*
X202463435Y-80165387D01*
X202463434Y-80165387D01*
X202285924Y-80288760D01*
X202148131Y-80455323D01*
X202148129Y-80455326D01*
X202121952Y-80514122D01*
X202071337Y-80627808D01*
X202060206Y-80652808D01*
X202028626Y-80866661D01*
X201313265Y-80866661D01*
X201314048Y-80791914D01*
X201307068Y-80766913D01*
X201255916Y-80583706D01*
X201143932Y-80398799D01*
X201106929Y-80364051D01*
X200986349Y-80250818D01*
X200794777Y-80150667D01*
X200769953Y-80145391D01*
X200707483Y-80111664D01*
X200673161Y-80049515D01*
X200677888Y-79978676D01*
X200720163Y-79921638D01*
X200776042Y-79905455D01*
X200774727Y-79898560D01*
X200791680Y-79895326D01*
X200791681Y-79895326D01*
X201004025Y-79854819D01*
X201197653Y-79758701D01*
X201266901Y-79724326D01*
X201373654Y-79801886D01*
X201576265Y-79877237D01*
X201791681Y-79895326D01*
X202004023Y-79854820D01*
X202009589Y-79852057D01*
X202197653Y-79758701D01*
X202358300Y-79614053D01*
X202474131Y-79431533D01*
X202516361Y-79291661D01*
X202536612Y-79224588D01*
X202539048Y-78991913D01*
X202480916Y-78783706D01*
X202368932Y-78598799D01*
X202359973Y-78590386D01*
X202211349Y-78450818D01*
X202019777Y-78350667D01*
X201808328Y-78305722D01*
X201808324Y-78305722D01*
X201592582Y-78319294D01*
X201212310Y-78451720D01*
X201211349Y-78450818D01*
X201210556Y-78450404D01*
X201214048Y-78116913D01*
X201155916Y-77908706D01*
X201043932Y-77723799D01*
X200967521Y-77652044D01*
X200886349Y-77575818D01*
X200694777Y-77475667D01*
X200483328Y-77430722D01*
X200483324Y-77430722D01*
X200267582Y-77444294D01*
X200063436Y-77515386D01*
X200063435Y-77515387D01*
X200063434Y-77515387D01*
X199885924Y-77638760D01*
X199748131Y-77805323D01*
X199748129Y-77805326D01*
X199660206Y-78002808D01*
X199628626Y-78216661D01*
X199655719Y-78431126D01*
X199655720Y-78431128D01*
X199739490Y-78630409D01*
X199873765Y-78799822D01*
X199984808Y-78880499D01*
X199976394Y-78937479D01*
X199953626Y-79091661D01*
X199980719Y-79306126D01*
X199996764Y-79344295D01*
X200064490Y-79505409D01*
X200198765Y-79674822D01*
X200373653Y-79801885D01*
X200410408Y-79815554D01*
X200547164Y-79866414D01*
X200604040Y-79908907D01*
X200628913Y-79975403D01*
X200613888Y-80044792D01*
X200563733Y-80095041D01*
X200511154Y-80110262D01*
X200367582Y-80119294D01*
X200163436Y-80190386D01*
X200163435Y-80190387D01*
X200163434Y-80190387D01*
X199985924Y-80313760D01*
X199985923Y-80313761D01*
X199833960Y-80497452D01*
X199743932Y-80348799D01*
X199586349Y-80200818D01*
X199394777Y-80100667D01*
X199183328Y-80055722D01*
X199183324Y-80055722D01*
X198967582Y-80069294D01*
X198763436Y-80140386D01*
X198763435Y-80140387D01*
X198763434Y-80140387D01*
X198585924Y-80263760D01*
X198452682Y-80424822D01*
X198448129Y-80430326D01*
X198410179Y-80515564D01*
X198370441Y-80604820D01*
X198360206Y-80627808D01*
X198328626Y-80841661D01*
X193788527Y-80841661D01*
X193789048Y-80791914D01*
X193782068Y-80766913D01*
X193730916Y-80583706D01*
X193618932Y-80398799D01*
X193581929Y-80364051D01*
X193461349Y-80250818D01*
X193269777Y-80150667D01*
X193058328Y-80105722D01*
X193058324Y-80105722D01*
X192842582Y-80119294D01*
X192638436Y-80190386D01*
X192638435Y-80190387D01*
X192638434Y-80190387D01*
X192460924Y-80313760D01*
X192342812Y-80456533D01*
X192323129Y-80480326D01*
X192288233Y-80558705D01*
X192246337Y-80652808D01*
X192235206Y-80677808D01*
X192203626Y-80891661D01*
X165000000Y-80891661D01*
X165000000Y-73250000D01*
X171346663Y-73250000D01*
X171346663Y-74950000D01*
X171370866Y-75040326D01*
X171415772Y-75207919D01*
X171530926Y-75345155D01*
X171686072Y-75434728D01*
X171693282Y-75435999D01*
X171711410Y-75439196D01*
X171775021Y-75470722D01*
X171811491Y-75531635D01*
X171809239Y-75602596D01*
X171779862Y-75651122D01*
X171658580Y-75775839D01*
X171528045Y-75965768D01*
X171431378Y-76174975D01*
X171371342Y-76397479D01*
X171349729Y-76626126D01*
X171349654Y-76626920D01*
X171366932Y-76856728D01*
X171422686Y-77080345D01*
X171515320Y-77291369D01*
X171642183Y-77483768D01*
X171799653Y-77652044D01*
X171927225Y-77748876D01*
X171983221Y-77791379D01*
X172174991Y-77891208D01*
X171907119Y-78086544D01*
X171819249Y-78150620D01*
X171658580Y-78315839D01*
X171528045Y-78505768D01*
X171431378Y-78714975D01*
X171371342Y-78937479D01*
X171352162Y-79140386D01*
X171349654Y-79166920D01*
X171366932Y-79396728D01*
X171422686Y-79620345D01*
X171515320Y-79831369D01*
X171642183Y-80023768D01*
X171799653Y-80192044D01*
X171983223Y-80331381D01*
X172187641Y-80437794D01*
X172407070Y-80508245D01*
X172635232Y-80540717D01*
X172635233Y-80540717D01*
X172865604Y-80534282D01*
X173091597Y-80489124D01*
X173091598Y-80489124D01*
X173091601Y-80489123D01*
X173306750Y-80406535D01*
X173433749Y-80331128D01*
X173504913Y-80288874D01*
X173679385Y-80140387D01*
X173680417Y-80139509D01*
X173709422Y-80104820D01*
X173828247Y-79962706D01*
X173850296Y-79924823D01*
X173917877Y-79808706D01*
X173944173Y-79763525D01*
X173944174Y-79763523D01*
X173975310Y-79710025D01*
X174182183Y-80023768D01*
X174339653Y-80192044D01*
X174523223Y-80331381D01*
X174727641Y-80437794D01*
X174947071Y-80508245D01*
X174998500Y-80515564D01*
X174998500Y-79434000D01*
X175506500Y-79434000D01*
X175506500Y-80514122D01*
X175631596Y-80489125D01*
X175846750Y-80406535D01*
X176044912Y-80288874D01*
X176220417Y-80139509D01*
X176368248Y-79962705D01*
X176438696Y-79841661D01*
X187828626Y-79841661D01*
X187855719Y-80056126D01*
X187871764Y-80094295D01*
X187939490Y-80255409D01*
X188073765Y-80424822D01*
X188248653Y-80551885D01*
X188451267Y-80627237D01*
X188666681Y-80645326D01*
X188879023Y-80604820D01*
X188880405Y-80604134D01*
X189072653Y-80508701D01*
X189233300Y-80364053D01*
X189349131Y-80181533D01*
X189368717Y-80116661D01*
X189411612Y-79974588D01*
X189414048Y-79741913D01*
X189355916Y-79533706D01*
X189243932Y-79348799D01*
X189198490Y-79306126D01*
X189183087Y-79291661D01*
X194503626Y-79291661D01*
X194530719Y-79506126D01*
X194530720Y-79506128D01*
X194614490Y-79705409D01*
X194748765Y-79874822D01*
X194923653Y-80001885D01*
X195126267Y-80077237D01*
X195341681Y-80095326D01*
X195554023Y-80054820D01*
X195747653Y-79958701D01*
X195806788Y-79905455D01*
X195847123Y-79869137D01*
X195923763Y-79924820D01*
X195923765Y-79924822D01*
X196098653Y-80051885D01*
X196301267Y-80127237D01*
X196516681Y-80145326D01*
X196729023Y-80104820D01*
X196748148Y-80095326D01*
X196922653Y-80008701D01*
X197083300Y-79864053D01*
X197083301Y-79864052D01*
X197137162Y-79815555D01*
X197223765Y-79924822D01*
X197398653Y-80051885D01*
X197601267Y-80127237D01*
X197816681Y-80145326D01*
X198029023Y-80104820D01*
X198048148Y-80095326D01*
X198222653Y-80008701D01*
X198383300Y-79864053D01*
X198499131Y-79681533D01*
X198561240Y-79475819D01*
X198561612Y-79474588D01*
X198564048Y-79241913D01*
X198505916Y-79033706D01*
X198393932Y-78848799D01*
X198236349Y-78700818D01*
X198044777Y-78600667D01*
X197833328Y-78555722D01*
X197833324Y-78555722D01*
X197617582Y-78569294D01*
X197413436Y-78640386D01*
X197413435Y-78640387D01*
X197413434Y-78640387D01*
X197235924Y-78763760D01*
X197206092Y-78799821D01*
X197134251Y-78886661D01*
X197093932Y-78848799D01*
X196936349Y-78700818D01*
X196744777Y-78600667D01*
X196533328Y-78555722D01*
X196533324Y-78555722D01*
X196317582Y-78569294D01*
X196113434Y-78640387D01*
X195904715Y-78785449D01*
X195761349Y-78650818D01*
X195569777Y-78550667D01*
X195358328Y-78505722D01*
X195358324Y-78505722D01*
X195142582Y-78519294D01*
X194938436Y-78590386D01*
X194938435Y-78590387D01*
X194938434Y-78590387D01*
X194760924Y-78713760D01*
X194623131Y-78880323D01*
X194623129Y-78880326D01*
X194597682Y-78937482D01*
X194538997Y-79069294D01*
X194535206Y-79077808D01*
X194503626Y-79291661D01*
X189183087Y-79291661D01*
X189086349Y-79200818D01*
X188894777Y-79100667D01*
X188683328Y-79055722D01*
X188683324Y-79055722D01*
X188467582Y-79069294D01*
X188263436Y-79140386D01*
X188263435Y-79140387D01*
X188263434Y-79140387D01*
X188085924Y-79263760D01*
X187948131Y-79430323D01*
X187948129Y-79430326D01*
X187902103Y-79533705D01*
X187861991Y-79623799D01*
X187860206Y-79627808D01*
X187828626Y-79841661D01*
X176438696Y-79841661D01*
X176484174Y-79763523D01*
X176564883Y-79547660D01*
X176586565Y-79434000D01*
X175506500Y-79434000D01*
X174998500Y-79434000D01*
X174998500Y-76894000D01*
X175506500Y-76894000D01*
X175506500Y-78926000D01*
X176586808Y-78926000D01*
X176571698Y-78837600D01*
X176495149Y-78620226D01*
X176383069Y-78418860D01*
X176238658Y-78239247D01*
X176066058Y-78086544D01*
X175777516Y-77907642D01*
X176044910Y-77748876D01*
X176220417Y-77599509D01*
X176368248Y-77422705D01*
X176484174Y-77223523D01*
X176564883Y-77007660D01*
X176586565Y-76894000D01*
X175506500Y-76894000D01*
X174998500Y-76894000D01*
X174998500Y-74354000D01*
X175506500Y-74354000D01*
X175506500Y-76386000D01*
X176586808Y-76386000D01*
X176571698Y-76297600D01*
X176495149Y-76080226D01*
X176383069Y-75878860D01*
X176238658Y-75699247D01*
X176066058Y-75546544D01*
X175777516Y-75367642D01*
X176044910Y-75208876D01*
X176220417Y-75059509D01*
X176368248Y-74882705D01*
X176484174Y-74683523D01*
X176564883Y-74467660D01*
X176586565Y-74354000D01*
X175506500Y-74354000D01*
X174998500Y-74354000D01*
X174998500Y-73846000D01*
X175506500Y-73846000D01*
X176586808Y-73846000D01*
X176571698Y-73757600D01*
X176495149Y-73540226D01*
X176383069Y-73338860D01*
X176238658Y-73159247D01*
X176066058Y-73006544D01*
X175870188Y-72885101D01*
X175656658Y-72798395D01*
X175506500Y-72765381D01*
X175506500Y-73846000D01*
X174998500Y-73846000D01*
X174998500Y-72762960D01*
X174972628Y-72766137D01*
X174751885Y-72832363D01*
X174545460Y-72934833D01*
X174359246Y-73070624D01*
X174255967Y-73176826D01*
X174194136Y-73211718D01*
X174123256Y-73207642D01*
X174065832Y-73165892D01*
X174043931Y-73121597D01*
X174009228Y-72992082D01*
X174009228Y-72992081D01*
X173894074Y-72854845D01*
X173738928Y-72765272D01*
X173650714Y-72749718D01*
X173562500Y-72734163D01*
X171862500Y-72734163D01*
X171783209Y-72755409D01*
X171604581Y-72803272D01*
X171467345Y-72918426D01*
X171377772Y-73073572D01*
X171367351Y-73132673D01*
X171346663Y-73250000D01*
X165000000Y-73250000D01*
X165000000Y-69441661D01*
X191983626Y-69441661D01*
X192010719Y-69656126D01*
X192010720Y-69656128D01*
X192094490Y-69855409D01*
X192228765Y-70024822D01*
X192403653Y-70151885D01*
X192606267Y-70227237D01*
X192821680Y-70245326D01*
X192821681Y-70245326D01*
X192890074Y-70232279D01*
X192960735Y-70239162D01*
X193016458Y-70283155D01*
X193039551Y-70350291D01*
X193028790Y-70407294D01*
X193015206Y-70437805D01*
X192983626Y-70651661D01*
X193010719Y-70866126D01*
X193010720Y-70866128D01*
X193094490Y-71065409D01*
X193094492Y-71065411D01*
X193098119Y-71074040D01*
X193068608Y-71140323D01*
X193025205Y-71237809D01*
X192993626Y-71451661D01*
X193020719Y-71666126D01*
X193020720Y-71666128D01*
X193104490Y-71865409D01*
X193238765Y-72034822D01*
X193413653Y-72161885D01*
X193616267Y-72237237D01*
X193831681Y-72255326D01*
X194044025Y-72214819D01*
X194186205Y-72144239D01*
X194436265Y-72237237D01*
X194651681Y-72255326D01*
X194864023Y-72214820D01*
X194916641Y-72188700D01*
X195057653Y-72118701D01*
X195218300Y-71974053D01*
X195242824Y-71935410D01*
X195263500Y-71902830D01*
X195316890Y-71856032D01*
X195387105Y-71845527D01*
X195451853Y-71874651D01*
X195486038Y-71921515D01*
X195492815Y-71937636D01*
X195504490Y-71965409D01*
X195504492Y-71965412D01*
X195510814Y-71980449D01*
X195462166Y-72089714D01*
X195445205Y-72127809D01*
X195413626Y-72341661D01*
X195440719Y-72556126D01*
X195440720Y-72556128D01*
X195524490Y-72755409D01*
X195562426Y-72803272D01*
X195738514Y-73025441D01*
X195612583Y-73069295D01*
X195612582Y-73069295D01*
X195522494Y-73100667D01*
X195352808Y-73159758D01*
X195351831Y-73159247D01*
X195315754Y-73140387D01*
X195239777Y-73100667D01*
X195028328Y-73055722D01*
X195028325Y-73055722D01*
X194812582Y-73069294D01*
X194552808Y-73159758D01*
X194551831Y-73159247D01*
X194515754Y-73140387D01*
X194439777Y-73100667D01*
X194228328Y-73055722D01*
X194228325Y-73055722D01*
X194012582Y-73069294D01*
X193808436Y-73140386D01*
X193808435Y-73140387D01*
X193808434Y-73140387D01*
X193630924Y-73263760D01*
X193560574Y-73348799D01*
X193493129Y-73430326D01*
X193405206Y-73627808D01*
X193373626Y-73841661D01*
X193400719Y-74056126D01*
X193400720Y-74056128D01*
X193484490Y-74255409D01*
X193584708Y-74381853D01*
X193599726Y-74418955D01*
X193625837Y-74429960D01*
X193793653Y-74551885D01*
X193935990Y-74604820D01*
X193996267Y-74627237D01*
X194003824Y-74627872D01*
X194070032Y-74653505D01*
X194111872Y-74710863D01*
X194116059Y-74781736D01*
X194065190Y-74856894D01*
X194040924Y-74873760D01*
X193903131Y-75040323D01*
X193903130Y-75040325D01*
X193848809Y-75162333D01*
X193802829Y-75216429D01*
X193734902Y-75237078D01*
X193666594Y-75217726D01*
X193619592Y-75164515D01*
X193607709Y-75109764D01*
X193607815Y-75099714D01*
X193609048Y-74981914D01*
X193609048Y-74981913D01*
X193550916Y-74773706D01*
X193444000Y-74597167D01*
X193436088Y-74567298D01*
X193399709Y-74551965D01*
X193281350Y-74440819D01*
X193281349Y-74440818D01*
X193089777Y-74340667D01*
X192878328Y-74295722D01*
X192878324Y-74295722D01*
X192662582Y-74309294D01*
X192458436Y-74380386D01*
X192458435Y-74380387D01*
X192458434Y-74380387D01*
X192280924Y-74503760D01*
X192143131Y-74670323D01*
X192143129Y-74670326D01*
X192107484Y-74750387D01*
X192060065Y-74856895D01*
X192055206Y-74867808D01*
X192023626Y-75081661D01*
X192050719Y-75296126D01*
X192050720Y-75296128D01*
X192134490Y-75495409D01*
X192268765Y-75664822D01*
X192443653Y-75791885D01*
X192585990Y-75844820D01*
X192646267Y-75867237D01*
X192861681Y-75885326D01*
X193074023Y-75844820D01*
X193075405Y-75844134D01*
X193267653Y-75748701D01*
X193428300Y-75604053D01*
X193497248Y-75495409D01*
X193553165Y-75407299D01*
X193606554Y-75360500D01*
X193676769Y-75349995D01*
X193741517Y-75379119D01*
X193784556Y-75459021D01*
X193810719Y-75666126D01*
X193824642Y-75699247D01*
X193894490Y-75865409D01*
X194028765Y-76034822D01*
X194203653Y-76161885D01*
X194203654Y-76161886D01*
X194218878Y-76172946D01*
X194215207Y-76197805D01*
X194215206Y-76197807D01*
X194205896Y-76260856D01*
X194183626Y-76411661D01*
X194210719Y-76626126D01*
X194210720Y-76626128D01*
X194294490Y-76825409D01*
X194428765Y-76994822D01*
X194603653Y-77121885D01*
X194660762Y-77143124D01*
X194694559Y-77223523D01*
X194739490Y-77330409D01*
X194873765Y-77499822D01*
X195048653Y-77626885D01*
X195251267Y-77702237D01*
X195466681Y-77720326D01*
X195679023Y-77679820D01*
X195734979Y-77652043D01*
X195872653Y-77583701D01*
X196033300Y-77439053D01*
X196149131Y-77256533D01*
X196173072Y-77177237D01*
X196211612Y-77049588D01*
X196214048Y-76816913D01*
X196155916Y-76608706D01*
X196055013Y-76442095D01*
X196036834Y-76373466D01*
X196058644Y-76305902D01*
X196113520Y-76260856D01*
X196173332Y-76251266D01*
X196221681Y-76255326D01*
X196434023Y-76214820D01*
X196435405Y-76214134D01*
X196627653Y-76118701D01*
X196788300Y-75974053D01*
X196904131Y-75791533D01*
X196938291Y-75678391D01*
X196966612Y-75584588D01*
X196969048Y-75351913D01*
X196910916Y-75143706D01*
X196798933Y-74958799D01*
X196722856Y-74887358D01*
X196670128Y-74837844D01*
X196634164Y-74776632D01*
X196637001Y-74705693D01*
X196677742Y-74647548D01*
X196732772Y-74622227D01*
X196824023Y-74604820D01*
X196957640Y-74538493D01*
X197135987Y-74604819D01*
X197196267Y-74627237D01*
X197411681Y-74645326D01*
X197624025Y-74604819D01*
X197699611Y-74567298D01*
X197757640Y-74538493D01*
X197996269Y-74627238D01*
X198003824Y-74627872D01*
X198070032Y-74653505D01*
X198111872Y-74710863D01*
X198116059Y-74781736D01*
X198065190Y-74856894D01*
X198040924Y-74873760D01*
X197943494Y-74991533D01*
X197903129Y-75040326D01*
X197872214Y-75109764D01*
X197847838Y-75164515D01*
X197815206Y-75237808D01*
X197783626Y-75451661D01*
X197810719Y-75666126D01*
X197824642Y-75699247D01*
X197894490Y-75865409D01*
X198028765Y-76034822D01*
X198203653Y-76161885D01*
X198345990Y-76214820D01*
X198406267Y-76237237D01*
X198621681Y-76255326D01*
X198834023Y-76214820D01*
X198928802Y-76167771D01*
X199027653Y-76118701D01*
X199086664Y-76065566D01*
X199103650Y-76071883D01*
X199103653Y-76071885D01*
X199306267Y-76147237D01*
X199521681Y-76165326D01*
X199734023Y-76124820D01*
X199735405Y-76124134D01*
X199927653Y-76028701D01*
X200088300Y-75884053D01*
X200204131Y-75701533D01*
X200266612Y-75494587D01*
X200266612Y-75494584D01*
X200281935Y-75443832D01*
X200434023Y-75414820D01*
X200470469Y-75396728D01*
X200551841Y-75356334D01*
X200593650Y-75371883D01*
X200593653Y-75371885D01*
X200796267Y-75447237D01*
X201011681Y-75465326D01*
X201224025Y-75424819D01*
X201373440Y-75350648D01*
X201403652Y-75361884D01*
X201403653Y-75361885D01*
X201449994Y-75379119D01*
X201606266Y-75437237D01*
X201772221Y-75451173D01*
X201838430Y-75476805D01*
X201880270Y-75534163D01*
X201884458Y-75605036D01*
X201849664Y-75666922D01*
X201831116Y-75678391D01*
X201832607Y-75680537D01*
X201818436Y-75690386D01*
X201818434Y-75690387D01*
X201640924Y-75813760D01*
X201503131Y-75980323D01*
X201503129Y-75980326D01*
X201458651Y-76080228D01*
X201416469Y-76174972D01*
X201415206Y-76177808D01*
X201383626Y-76391661D01*
X201410719Y-76606126D01*
X201410720Y-76606128D01*
X201494490Y-76805409D01*
X201628765Y-76974822D01*
X201803653Y-77101885D01*
X201945990Y-77154820D01*
X202006267Y-77177237D01*
X202221681Y-77195326D01*
X202434023Y-77154820D01*
X202457586Y-77143123D01*
X202627653Y-77058701D01*
X202788300Y-76914053D01*
X202904131Y-76731533D01*
X202935955Y-76626128D01*
X202966612Y-76524588D01*
X202969048Y-76291913D01*
X202910916Y-76083706D01*
X202798932Y-75898799D01*
X202741449Y-75844819D01*
X202641349Y-75750818D01*
X202449777Y-75650667D01*
X202238328Y-75605722D01*
X202238324Y-75605722D01*
X202187643Y-75608910D01*
X202118400Y-75593225D01*
X202068631Y-75542594D01*
X202054135Y-75473093D01*
X202079515Y-75406788D01*
X202123705Y-75370301D01*
X202227653Y-75318701D01*
X202388300Y-75174053D01*
X202504131Y-74991533D01*
X202544781Y-74856895D01*
X202566612Y-74784588D01*
X202569145Y-74542769D01*
X202593649Y-74551882D01*
X202593653Y-74551885D01*
X202796267Y-74627237D01*
X203011681Y-74645326D01*
X203224023Y-74604820D01*
X203299610Y-74567298D01*
X203417653Y-74508701D01*
X203578300Y-74364053D01*
X203694131Y-74181533D01*
X203756612Y-73974587D01*
X203759048Y-73741914D01*
X203759048Y-73741913D01*
X203700916Y-73533706D01*
X203588932Y-73348799D01*
X203578348Y-73338860D01*
X203431349Y-73200818D01*
X203239777Y-73100667D01*
X203028328Y-73055722D01*
X203028324Y-73055722D01*
X202812582Y-73069294D01*
X202552808Y-73159758D01*
X202551831Y-73159247D01*
X202515754Y-73140387D01*
X202439777Y-73100667D01*
X202228328Y-73055722D01*
X202228325Y-73055722D01*
X202012582Y-73069294D01*
X201752808Y-73159758D01*
X201751831Y-73159247D01*
X201715754Y-73140387D01*
X201639777Y-73100667D01*
X201428328Y-73055722D01*
X201428325Y-73055722D01*
X201212582Y-73069294D01*
X200952808Y-73159758D01*
X200951831Y-73159247D01*
X200915754Y-73140387D01*
X200839777Y-73100667D01*
X200628328Y-73055722D01*
X200628325Y-73055722D01*
X200412582Y-73069294D01*
X200152808Y-73159758D01*
X200151831Y-73159247D01*
X200115754Y-73140387D01*
X200039777Y-73100667D01*
X199828328Y-73055722D01*
X199828325Y-73055722D01*
X199612582Y-73069294D01*
X199352808Y-73159758D01*
X199351831Y-73159247D01*
X199315754Y-73140387D01*
X199239777Y-73100667D01*
X199028328Y-73055722D01*
X199028325Y-73055722D01*
X198812582Y-73069294D01*
X198552808Y-73159758D01*
X198551831Y-73159247D01*
X198515754Y-73140387D01*
X198439777Y-73100667D01*
X198228328Y-73055722D01*
X198228325Y-73055722D01*
X198012582Y-73069294D01*
X197752808Y-73159758D01*
X197751831Y-73159247D01*
X197715754Y-73140387D01*
X197639777Y-73100667D01*
X197428328Y-73055722D01*
X197428325Y-73055722D01*
X197212582Y-73069294D01*
X196952808Y-73159758D01*
X196824482Y-73092671D01*
X196826178Y-73089427D01*
X196789212Y-73069468D01*
X196754892Y-73007317D01*
X196759622Y-72936478D01*
X196793575Y-72886316D01*
X196818300Y-72864053D01*
X196934131Y-72681533D01*
X197035048Y-72347280D01*
X197196265Y-72407237D01*
X197411681Y-72425326D01*
X197624025Y-72384819D01*
X197817653Y-72288701D01*
X197817654Y-72288701D01*
X197865374Y-72265012D01*
X197943653Y-72321885D01*
X198085990Y-72374820D01*
X198146267Y-72397237D01*
X198361681Y-72415326D01*
X198574025Y-72374819D01*
X198629501Y-72347280D01*
X198656244Y-72334005D01*
X198826267Y-72397237D01*
X199041681Y-72415326D01*
X199254025Y-72374819D01*
X199309502Y-72347280D01*
X199370508Y-72316997D01*
X199586265Y-72397237D01*
X199801681Y-72415326D01*
X200014023Y-72374820D01*
X200022303Y-72370710D01*
X200160489Y-72302113D01*
X200213652Y-72321885D01*
X200213653Y-72321885D01*
X200266826Y-72341660D01*
X200416266Y-72397237D01*
X200631681Y-72415326D01*
X200844023Y-72374820D01*
X200845405Y-72374134D01*
X201037653Y-72278701D01*
X201198300Y-72134053D01*
X201314131Y-71951533D01*
X201362438Y-71791533D01*
X201376612Y-71744588D01*
X201380604Y-71363312D01*
X201403650Y-71371883D01*
X201403653Y-71371885D01*
X201606267Y-71447237D01*
X201765918Y-71460644D01*
X201800719Y-71736126D01*
X201800720Y-71736128D01*
X201884490Y-71935409D01*
X202018765Y-72104822D01*
X202193653Y-72231885D01*
X202396267Y-72307237D01*
X202611681Y-72325326D01*
X202824023Y-72284820D01*
X202825405Y-72284134D01*
X203017653Y-72188701D01*
X203178300Y-72044053D01*
X203294131Y-71861533D01*
X203356612Y-71654587D01*
X203358106Y-71511914D01*
X203359204Y-71407102D01*
X203516681Y-71420326D01*
X203516682Y-71420326D01*
X203729023Y-71379820D01*
X203762278Y-71363312D01*
X203922653Y-71283701D01*
X204083300Y-71139053D01*
X204199131Y-70956533D01*
X204220388Y-70886128D01*
X204261612Y-70749588D01*
X204264048Y-70516913D01*
X204205916Y-70308708D01*
X204205915Y-70308705D01*
X204107472Y-70146156D01*
X204148463Y-70010389D01*
X204150899Y-69777716D01*
X204146487Y-69761914D01*
X204092767Y-69569508D01*
X203980783Y-69384601D01*
X203935325Y-69341913D01*
X203823200Y-69236620D01*
X203631628Y-69136469D01*
X203420179Y-69091524D01*
X203420175Y-69091524D01*
X203204435Y-69105096D01*
X203201472Y-69106128D01*
X203000285Y-69176189D01*
X203000280Y-69176192D01*
X202965211Y-69188405D01*
X202969048Y-68821913D01*
X202910916Y-68613706D01*
X202798932Y-68428799D01*
X202766985Y-68398799D01*
X202641349Y-68280818D01*
X202449777Y-68180667D01*
X202238328Y-68135722D01*
X202238324Y-68135722D01*
X202022582Y-68149294D01*
X201818436Y-68220386D01*
X201818435Y-68220387D01*
X201818434Y-68220387D01*
X201640924Y-68343760D01*
X201503131Y-68510323D01*
X201503129Y-68510326D01*
X201503129Y-68510327D01*
X201493194Y-68532640D01*
X201447214Y-68586735D01*
X201379287Y-68607384D01*
X201310979Y-68588031D01*
X201270312Y-68546661D01*
X201198932Y-68428799D01*
X201166985Y-68398799D01*
X201041349Y-68280818D01*
X200849777Y-68180667D01*
X200638328Y-68135722D01*
X200638324Y-68135722D01*
X200422582Y-68149294D01*
X200218436Y-68220386D01*
X200218435Y-68220387D01*
X200218434Y-68220387D01*
X200040924Y-68343760D01*
X199927947Y-68480326D01*
X199903129Y-68510326D01*
X199886952Y-68546661D01*
X199818385Y-68700668D01*
X199815206Y-68707808D01*
X199788057Y-68891661D01*
X199783627Y-68921660D01*
X199788712Y-68961913D01*
X199812545Y-69150580D01*
X199798435Y-69160387D01*
X199798434Y-69160387D01*
X199620924Y-69283760D01*
X199490298Y-69441660D01*
X199483129Y-69450326D01*
X199434879Y-69558700D01*
X199400759Y-69635336D01*
X199395206Y-69647808D01*
X199363626Y-69861661D01*
X199384607Y-70027741D01*
X199373301Y-70097832D01*
X199325895Y-70150683D01*
X199257442Y-70169514D01*
X199173348Y-70135383D01*
X199118375Y-70083760D01*
X199051349Y-70020818D01*
X198859777Y-69920667D01*
X198648328Y-69875722D01*
X198648324Y-69875722D01*
X198516987Y-69883984D01*
X198447745Y-69868299D01*
X198397975Y-69817668D01*
X198383479Y-69748167D01*
X198408859Y-69681862D01*
X198453049Y-69645375D01*
X198627653Y-69558701D01*
X198788300Y-69414053D01*
X198904131Y-69231533D01*
X198917152Y-69188405D01*
X198966612Y-69024588D01*
X198969048Y-68791913D01*
X198910916Y-68583706D01*
X198798932Y-68398799D01*
X198641349Y-68250818D01*
X198449777Y-68150667D01*
X198238328Y-68105722D01*
X198238324Y-68105722D01*
X198022582Y-68119294D01*
X197818436Y-68190386D01*
X197818435Y-68190387D01*
X197818434Y-68190387D01*
X197640924Y-68313760D01*
X197503131Y-68480323D01*
X197503129Y-68480326D01*
X197463739Y-68568799D01*
X197418997Y-68669294D01*
X197415206Y-68677808D01*
X197383626Y-68891661D01*
X197410719Y-69106126D01*
X197410720Y-69106128D01*
X197494490Y-69305409D01*
X197628765Y-69474822D01*
X197803653Y-69601885D01*
X197949502Y-69656126D01*
X198006267Y-69677237D01*
X198221680Y-69695326D01*
X198221681Y-69695326D01*
X198234392Y-69692901D01*
X198305052Y-69699784D01*
X198360776Y-69743776D01*
X198383869Y-69810912D01*
X198367001Y-69879876D01*
X198299439Y-69935660D01*
X198228436Y-69960386D01*
X198228435Y-69960387D01*
X198228434Y-69960387D01*
X198050924Y-70083760D01*
X197921404Y-70240323D01*
X197913129Y-70250326D01*
X197887136Y-70308708D01*
X197829659Y-70437807D01*
X197825206Y-70447808D01*
X197793627Y-70661658D01*
X197826301Y-70920314D01*
X197639778Y-70880667D01*
X197639777Y-70880667D01*
X197428328Y-70835722D01*
X197428325Y-70835722D01*
X197212584Y-70849294D01*
X197178875Y-70861033D01*
X197008434Y-70920387D01*
X197008430Y-70920390D01*
X196965242Y-70935430D01*
X196969048Y-70571913D01*
X196910916Y-70363706D01*
X196798932Y-70178799D01*
X196641350Y-70030819D01*
X196641349Y-70030818D01*
X196547655Y-69981836D01*
X196496555Y-69932552D01*
X196480211Y-69863462D01*
X196503814Y-69796504D01*
X196550008Y-69757317D01*
X196607650Y-69728703D01*
X196607651Y-69728702D01*
X196607653Y-69728701D01*
X196768300Y-69584053D01*
X196884131Y-69401533D01*
X196902131Y-69341914D01*
X196946612Y-69194588D01*
X196949048Y-68961913D01*
X196890916Y-68753706D01*
X196778932Y-68568799D01*
X196621349Y-68420818D01*
X196429777Y-68320667D01*
X196218328Y-68275722D01*
X196218324Y-68275722D01*
X196002582Y-68289294D01*
X195798436Y-68360386D01*
X195798435Y-68360387D01*
X195798434Y-68360387D01*
X195620924Y-68483760D01*
X195483131Y-68650323D01*
X195483129Y-68650326D01*
X195443032Y-68740387D01*
X195406735Y-68821914D01*
X195395206Y-68847808D01*
X195363626Y-69061661D01*
X195390719Y-69276126D01*
X195390720Y-69276128D01*
X195474490Y-69475409D01*
X195608765Y-69644822D01*
X195674941Y-69692901D01*
X195940295Y-69885691D01*
X195818435Y-69970387D01*
X195818434Y-69970387D01*
X195640924Y-70093760D01*
X195503131Y-70260323D01*
X195415125Y-70366704D01*
X195258932Y-70108799D01*
X195172614Y-70027741D01*
X195101349Y-69960818D01*
X194909777Y-69860667D01*
X194698328Y-69815722D01*
X194698324Y-69815722D01*
X194482582Y-69829294D01*
X194278434Y-69900387D01*
X194171834Y-69974475D01*
X194049780Y-69910668D01*
X194049778Y-69910668D01*
X194049777Y-69910667D01*
X193838328Y-69865722D01*
X193838325Y-69865722D01*
X193471751Y-69888784D01*
X193566612Y-69574588D01*
X193569048Y-69341913D01*
X193510916Y-69133706D01*
X193398932Y-68948799D01*
X193370029Y-68921657D01*
X193241349Y-68800818D01*
X193049777Y-68700667D01*
X192838328Y-68655722D01*
X192838324Y-68655722D01*
X192622582Y-68669294D01*
X192418436Y-68740386D01*
X192418435Y-68740387D01*
X192418434Y-68740387D01*
X192240924Y-68863760D01*
X192103131Y-69030323D01*
X192103129Y-69030326D01*
X192057103Y-69133705D01*
X192015206Y-69227807D01*
X192013686Y-69238101D01*
X191983626Y-69441661D01*
X165000000Y-69441661D01*
X165000000Y-61331661D01*
X179343626Y-61331661D01*
X179370719Y-61546126D01*
X179370720Y-61546128D01*
X179454490Y-61745409D01*
X179588765Y-61914822D01*
X179763653Y-62041885D01*
X179966267Y-62117237D01*
X180181681Y-62135326D01*
X180181683Y-62135326D01*
X180299679Y-62145234D01*
X180288356Y-62221914D01*
X180273626Y-62321661D01*
X180300719Y-62536126D01*
X180315121Y-62570386D01*
X180384490Y-62735409D01*
X180494437Y-62874128D01*
X180423131Y-62960323D01*
X180349668Y-63125326D01*
X180335206Y-63157808D01*
X180303626Y-63371661D01*
X180330719Y-63586126D01*
X180438159Y-63841716D01*
X180373131Y-63920322D01*
X180285206Y-64117807D01*
X180253626Y-64331660D01*
X180261348Y-64392778D01*
X180270466Y-64464957D01*
X180042582Y-64479294D01*
X179838436Y-64550386D01*
X179838435Y-64550387D01*
X179838434Y-64550387D01*
X179660924Y-64673760D01*
X179532496Y-64829003D01*
X179523129Y-64840326D01*
X179483061Y-64930323D01*
X179437033Y-65033705D01*
X179435206Y-65037808D01*
X179403626Y-65251661D01*
X179430719Y-65466126D01*
X179430720Y-65466128D01*
X179514490Y-65665409D01*
X179648765Y-65834822D01*
X179823653Y-65961885D01*
X179931287Y-66001914D01*
X180026267Y-66037237D01*
X180224311Y-66053868D01*
X180208356Y-66161914D01*
X180193626Y-66261661D01*
X180220719Y-66476126D01*
X180220720Y-66476128D01*
X180304490Y-66675409D01*
X180438765Y-66844822D01*
X180613653Y-66971885D01*
X180816267Y-67047237D01*
X181031681Y-67065326D01*
X181244023Y-67024820D01*
X181264164Y-67014822D01*
X181437653Y-66928701D01*
X181598300Y-66784053D01*
X181647333Y-66706790D01*
X181700723Y-66659992D01*
X181770938Y-66649487D01*
X181835686Y-66678611D01*
X181869871Y-66725475D01*
X181924490Y-66855409D01*
X182058765Y-67024822D01*
X182233653Y-67151885D01*
X182375990Y-67204820D01*
X182436267Y-67227237D01*
X182651681Y-67245326D01*
X182864023Y-67204820D01*
X182884170Y-67194819D01*
X183057653Y-67108701D01*
X183218300Y-66964053D01*
X183334131Y-66781533D01*
X183373998Y-66649487D01*
X183396612Y-66574588D01*
X183399048Y-66341913D01*
X183340916Y-66133706D01*
X183228932Y-65948799D01*
X183163982Y-65887807D01*
X183071349Y-65800818D01*
X182879777Y-65700667D01*
X182879775Y-65700667D01*
X182819719Y-65669270D01*
X182896612Y-65414588D01*
X182899048Y-65181916D01*
X182899048Y-65181914D01*
X182840915Y-64973705D01*
X182839876Y-64969984D01*
X183141679Y-64995326D01*
X183141681Y-64995326D01*
X183320958Y-64961127D01*
X183273626Y-65281660D01*
X183300719Y-65496126D01*
X183300720Y-65496128D01*
X183384490Y-65695409D01*
X183518765Y-65864822D01*
X183693653Y-65991885D01*
X183693654Y-65991885D01*
X183693655Y-65991886D01*
X183901395Y-66069144D01*
X183872650Y-66133706D01*
X183835205Y-66217809D01*
X183803626Y-66431661D01*
X183830719Y-66646126D01*
X183836548Y-66659992D01*
X183914490Y-66845409D01*
X184048765Y-67014822D01*
X184223653Y-67141885D01*
X184392876Y-67204819D01*
X184426267Y-67217237D01*
X184641681Y-67235326D01*
X184854025Y-67194819D01*
X185047653Y-67098701D01*
X185047654Y-67098700D01*
X185100547Y-67072444D01*
X185223654Y-67161886D01*
X185426265Y-67237237D01*
X185641681Y-67255326D01*
X185854026Y-67214819D01*
X186000949Y-67141885D01*
X186047653Y-67118701D01*
X186047654Y-67118700D01*
X186125078Y-67080266D01*
X186223653Y-67151885D01*
X186426267Y-67227237D01*
X186641681Y-67245326D01*
X186854023Y-67204820D01*
X186874170Y-67194819D01*
X187047653Y-67108701D01*
X187208300Y-66964053D01*
X187324131Y-66781533D01*
X187365164Y-66645626D01*
X187404001Y-66586194D01*
X187468804Y-66557194D01*
X187538999Y-66567832D01*
X187584531Y-66603779D01*
X187620759Y-66649487D01*
X187648765Y-66684822D01*
X187823653Y-66811885D01*
X187965990Y-66864820D01*
X188026267Y-66887237D01*
X188241681Y-66905326D01*
X188454023Y-66864820D01*
X188493126Y-66845409D01*
X188647653Y-66768701D01*
X188808300Y-66624053D01*
X188924131Y-66441533D01*
X188986612Y-66234587D01*
X188989048Y-66001914D01*
X188984026Y-65983927D01*
X188930916Y-65793706D01*
X188874569Y-65700667D01*
X188837056Y-65638725D01*
X188886612Y-65474587D01*
X188889048Y-65241914D01*
X188877880Y-65201913D01*
X188830916Y-65033706D01*
X188702504Y-64821672D01*
X188804131Y-64661533D01*
X188837689Y-64550386D01*
X188866612Y-64454588D01*
X188869048Y-64221913D01*
X188810916Y-64013708D01*
X188810915Y-64013705D01*
X188698932Y-63828799D01*
X188698931Y-63828798D01*
X188669638Y-63780429D01*
X188764132Y-63631531D01*
X188826612Y-63424588D01*
X188829048Y-63191913D01*
X188770916Y-62983706D01*
X188658932Y-62798799D01*
X188501349Y-62650818D01*
X188309777Y-62550667D01*
X188098328Y-62505722D01*
X188098324Y-62505722D01*
X187882582Y-62519294D01*
X187678436Y-62590386D01*
X187678435Y-62590387D01*
X187678434Y-62590387D01*
X187658755Y-62604064D01*
X187590677Y-62651378D01*
X187551349Y-62630818D01*
X187359777Y-62530667D01*
X187148328Y-62485722D01*
X187148324Y-62485722D01*
X186932582Y-62499294D01*
X186728436Y-62570386D01*
X186728435Y-62570387D01*
X186728434Y-62570387D01*
X186594954Y-62663159D01*
X186571350Y-62650819D01*
X186571349Y-62650818D01*
X186379777Y-62550667D01*
X186168328Y-62505722D01*
X186168324Y-62505722D01*
X185952582Y-62519294D01*
X185748436Y-62590386D01*
X185748435Y-62590387D01*
X185748434Y-62590387D01*
X185719658Y-62610387D01*
X185610660Y-62686142D01*
X185581351Y-62670820D01*
X185581349Y-62670818D01*
X185389777Y-62570667D01*
X185178328Y-62525722D01*
X185178324Y-62525722D01*
X184962582Y-62539294D01*
X184758436Y-62610386D01*
X184758435Y-62610387D01*
X184758434Y-62610387D01*
X184638791Y-62693541D01*
X184561349Y-62620818D01*
X184369777Y-62520667D01*
X184158328Y-62475722D01*
X184158324Y-62475722D01*
X183942582Y-62489294D01*
X183738436Y-62560386D01*
X183738435Y-62560387D01*
X183738434Y-62560387D01*
X183560924Y-62683760D01*
X183423131Y-62850323D01*
X183423129Y-62850326D01*
X183412532Y-62874128D01*
X183335206Y-63047807D01*
X183329690Y-63085160D01*
X183303627Y-63261659D01*
X183326333Y-63441430D01*
X183158328Y-63405722D01*
X182942582Y-63419294D01*
X182738436Y-63490386D01*
X182738435Y-63490387D01*
X182738434Y-63490387D01*
X182718003Y-63504587D01*
X182497831Y-63657610D01*
X182369780Y-63590668D01*
X182369778Y-63590668D01*
X182369777Y-63590667D01*
X182158328Y-63545722D01*
X182158324Y-63545722D01*
X181886001Y-63562853D01*
X181886611Y-63504590D01*
X181886612Y-63504587D01*
X181889048Y-63271914D01*
X181841792Y-63102664D01*
X182111681Y-63125326D01*
X182324023Y-63084820D01*
X182325405Y-63084134D01*
X182517653Y-62988701D01*
X182678300Y-62844053D01*
X182794131Y-62661533D01*
X182836661Y-62520667D01*
X182856612Y-62454588D01*
X182860525Y-62080877D01*
X183151681Y-62105326D01*
X183364023Y-62064820D01*
X183419588Y-62037237D01*
X183557653Y-61968701D01*
X183666551Y-61870648D01*
X183723651Y-61891884D01*
X183723653Y-61891885D01*
X183926267Y-61967237D01*
X184141681Y-61985326D01*
X184354023Y-61944820D01*
X184414453Y-61914822D01*
X184547653Y-61848701D01*
X184547654Y-61848700D01*
X184608723Y-61818385D01*
X184650451Y-61848701D01*
X184723653Y-61901885D01*
X184926267Y-61977237D01*
X185141681Y-61995326D01*
X185354023Y-61954820D01*
X185374170Y-61944819D01*
X185547653Y-61858701D01*
X185708300Y-61714053D01*
X185824131Y-61531533D01*
X185828782Y-61516128D01*
X185886612Y-61324588D01*
X185889226Y-61074966D01*
X185916266Y-61077237D01*
X185916267Y-61077237D01*
X186131681Y-61095326D01*
X186131682Y-61095326D01*
X186288931Y-61065329D01*
X186303627Y-61181660D01*
X186330720Y-61396128D01*
X186414490Y-61595409D01*
X186548765Y-61764822D01*
X186723653Y-61891885D01*
X186926267Y-61967237D01*
X187141681Y-61985326D01*
X187354025Y-61944819D01*
X187547653Y-61848701D01*
X187577486Y-61833892D01*
X187578764Y-61834820D01*
X187578765Y-61834822D01*
X187753653Y-61961885D01*
X187956267Y-62037237D01*
X188171681Y-62055326D01*
X188384023Y-62014820D01*
X188443438Y-61985326D01*
X188577653Y-61918701D01*
X188738300Y-61774053D01*
X188854131Y-61591533D01*
X188866561Y-61550363D01*
X188916612Y-61384588D01*
X188919048Y-61151913D01*
X188860916Y-60943708D01*
X188860915Y-60943705D01*
X188791325Y-60828799D01*
X188759548Y-60776329D01*
X188864131Y-60611533D01*
X188880860Y-60556126D01*
X188926612Y-60404588D01*
X188929048Y-60171914D01*
X188916733Y-60127807D01*
X188880743Y-59998905D01*
X189008300Y-59884052D01*
X189124131Y-59701532D01*
X189161993Y-59576127D01*
X189186612Y-59494587D01*
X189189048Y-59261912D01*
X189130916Y-59053705D01*
X189018932Y-58868798D01*
X189009907Y-58860323D01*
X188861349Y-58720817D01*
X188669777Y-58620666D01*
X188458328Y-58575721D01*
X188458324Y-58575721D01*
X188242582Y-58589293D01*
X188038436Y-58660385D01*
X188038435Y-58660386D01*
X188038434Y-58660386D01*
X187860924Y-58783759D01*
X187790574Y-58868798D01*
X187723129Y-58950325D01*
X187635206Y-59147807D01*
X187603626Y-59361660D01*
X187611463Y-59423695D01*
X187600157Y-59493786D01*
X187552751Y-59546637D01*
X187484298Y-59565468D01*
X187428083Y-59551149D01*
X187369777Y-59520667D01*
X187158328Y-59475722D01*
X187158325Y-59475722D01*
X186896008Y-59492225D01*
X186897376Y-59361660D01*
X186899048Y-59201914D01*
X186858813Y-59057807D01*
X186840916Y-58993706D01*
X186728932Y-58808799D01*
X186606428Y-58693760D01*
X186571349Y-58660818D01*
X186379777Y-58560667D01*
X186168328Y-58515722D01*
X186168324Y-58515722D01*
X185952582Y-58529294D01*
X185748436Y-58600386D01*
X185748435Y-58600387D01*
X185748434Y-58600387D01*
X185643133Y-58673574D01*
X185561350Y-58630819D01*
X185561349Y-58630818D01*
X185369777Y-58530667D01*
X185158328Y-58485722D01*
X185158324Y-58485722D01*
X184942582Y-58499294D01*
X184738436Y-58570386D01*
X184738435Y-58570387D01*
X184738434Y-58570387D01*
X184604580Y-58663419D01*
X184561350Y-58640819D01*
X184561349Y-58640818D01*
X184369777Y-58540667D01*
X184158328Y-58495722D01*
X184158324Y-58495722D01*
X183942582Y-58509294D01*
X183738436Y-58580386D01*
X183738435Y-58580387D01*
X183738434Y-58580387D01*
X183625295Y-58659021D01*
X183571350Y-58630819D01*
X183571349Y-58630818D01*
X183379777Y-58530667D01*
X183168328Y-58485722D01*
X183168324Y-58485722D01*
X182952582Y-58499294D01*
X182748436Y-58570386D01*
X182748435Y-58570387D01*
X182748434Y-58570387D01*
X182570924Y-58693760D01*
X182433131Y-58860323D01*
X182433129Y-58860326D01*
X182393061Y-58950322D01*
X182347033Y-59053705D01*
X182345206Y-59057808D01*
X182313626Y-59271661D01*
X182340719Y-59486126D01*
X182340720Y-59486128D01*
X182424490Y-59685409D01*
X182503390Y-59784956D01*
X182383131Y-59930322D01*
X182295206Y-60127807D01*
X182263626Y-60341661D01*
X182290719Y-60556126D01*
X182290720Y-60556128D01*
X182374490Y-60755409D01*
X182432658Y-60828799D01*
X182450500Y-60851310D01*
X182345206Y-61087807D01*
X182313626Y-61301660D01*
X182324103Y-61384587D01*
X182340720Y-61516128D01*
X182340722Y-61516132D01*
X182349126Y-61582655D01*
X182339780Y-61580668D01*
X182339777Y-61580667D01*
X182128328Y-61535722D01*
X182128325Y-61535722D01*
X182014044Y-61542912D01*
X181912582Y-61549295D01*
X181912581Y-61549295D01*
X181895609Y-61550363D01*
X181899048Y-61221913D01*
X181840916Y-61013706D01*
X181728932Y-60828799D01*
X181673056Y-60776328D01*
X181571349Y-60680818D01*
X181379777Y-60580667D01*
X181168328Y-60535722D01*
X181168324Y-60535722D01*
X180952582Y-60549294D01*
X180748434Y-60620387D01*
X180627459Y-60704466D01*
X180449686Y-60611531D01*
X180409777Y-60590667D01*
X180198328Y-60545722D01*
X180198324Y-60545722D01*
X179982582Y-60559294D01*
X179778436Y-60630386D01*
X179778435Y-60630387D01*
X179778434Y-60630387D01*
X179600924Y-60753760D01*
X179463131Y-60920323D01*
X179463129Y-60920326D01*
X179452719Y-60943708D01*
X179386735Y-61091914D01*
X179375206Y-61117808D01*
X179343626Y-61331661D01*
X165000000Y-61331661D01*
X165000000Y-42000000D01*
X222000000Y-42000000D01*
X222000000Y-92000000D01*
G37*
%TD.AperFunction*%
%TD*%
M02*
