%TF.GenerationSoftware,KiCad,Pcbnew,(5.99.0-3097-g8601b1e63)*%
%TF.CreationDate,2020-09-03T20:39:07+02:00*%
%TF.ProjectId,FD3,4644332e-6b69-4636-9164-5f7063625858,rev?*%
%TF.SameCoordinates,Original*%
%TF.FileFunction,Legend,Top*%
%TF.FilePolarity,Positive*%
%FSLAX46Y46*%
G04 Gerber Fmt 4.6, Leading zero omitted, Abs format (unit mm)*
G04 Created by KiCad (PCBNEW (5.99.0-3097-g8601b1e63)) date 2020-09-03 20:39:07*
%MOMM*%
%LPD*%
G01*
G04 APERTURE LIST*
%ADD10C,0.300000*%
%ADD11C,0.150000*%
%ADD12C,0.120000*%
%ADD13C,0.250000*%
G04 APERTURE END LIST*
D10*
X170785714Y-69371071D02*
X170785714Y-67871071D01*
X171285714Y-68942500D01*
X171785714Y-67871071D01*
X171785714Y-69371071D01*
X172785714Y-67871071D02*
X172928571Y-67871071D01*
X173071428Y-67942500D01*
X173142857Y-68013928D01*
X173214285Y-68156785D01*
X173285714Y-68442500D01*
X173285714Y-68799642D01*
X173214285Y-69085357D01*
X173142857Y-69228214D01*
X173071428Y-69299642D01*
X172928571Y-69371071D01*
X172785714Y-69371071D01*
X172642857Y-69299642D01*
X172571428Y-69228214D01*
X172500000Y-69085357D01*
X172428571Y-68799642D01*
X172428571Y-68442500D01*
X172500000Y-68156785D01*
X172571428Y-68013928D01*
X172642857Y-67942500D01*
X172785714Y-67871071D01*
X167107142Y-70786071D02*
X167107142Y-72071785D01*
X167035714Y-72214642D01*
X166892857Y-72286071D01*
X166821428Y-72286071D01*
X167107142Y-70286071D02*
X167035714Y-70357500D01*
X167107142Y-70428928D01*
X167178571Y-70357500D01*
X167107142Y-70286071D01*
X167107142Y-70428928D01*
X167821428Y-71786071D02*
X167821428Y-70786071D01*
X167821428Y-70928928D02*
X167892857Y-70857500D01*
X168035714Y-70786071D01*
X168250000Y-70786071D01*
X168392857Y-70857500D01*
X168464285Y-71000357D01*
X168464285Y-71786071D01*
X168464285Y-71000357D02*
X168535714Y-70857500D01*
X168678571Y-70786071D01*
X168892857Y-70786071D01*
X169035714Y-70857500D01*
X169107142Y-71000357D01*
X169107142Y-71786071D01*
X169821428Y-70786071D02*
X169821428Y-72286071D01*
X169821428Y-70857500D02*
X169964285Y-70786071D01*
X170250000Y-70786071D01*
X170392857Y-70857500D01*
X170464285Y-70928928D01*
X170535714Y-71071785D01*
X170535714Y-71500357D01*
X170464285Y-71643214D01*
X170392857Y-71714642D01*
X170250000Y-71786071D01*
X169964285Y-71786071D01*
X169821428Y-71714642D01*
X171178571Y-71000357D02*
X172321428Y-71000357D01*
X172321428Y-71428928D02*
X171178571Y-71428928D01*
X173821428Y-70357500D02*
X173678571Y-70286071D01*
X173464285Y-70286071D01*
X173250000Y-70357500D01*
X173107142Y-70500357D01*
X173035714Y-70643214D01*
X172964285Y-70928928D01*
X172964285Y-71143214D01*
X173035714Y-71428928D01*
X173107142Y-71571785D01*
X173250000Y-71714642D01*
X173464285Y-71786071D01*
X173607142Y-71786071D01*
X173821428Y-71714642D01*
X173892857Y-71643214D01*
X173892857Y-71143214D01*
X173607142Y-71143214D01*
X174535714Y-71786071D02*
X174535714Y-70286071D01*
X175392857Y-71786071D01*
X175392857Y-70286071D01*
X176107142Y-71786071D02*
X176107142Y-70286071D01*
X176464285Y-70286071D01*
X176678571Y-70357500D01*
X176821428Y-70500357D01*
X176892857Y-70643214D01*
X176964285Y-70928928D01*
X176964285Y-71143214D01*
X176892857Y-71428928D01*
X176821428Y-71571785D01*
X176678571Y-71714642D01*
X176464285Y-71786071D01*
X176107142Y-71786071D01*
D11*
%TO.C,C48*%
X190069642Y-87287142D02*
X190022023Y-87334761D01*
X189879166Y-87382380D01*
X189783928Y-87382380D01*
X189641071Y-87334761D01*
X189545833Y-87239523D01*
X189498214Y-87144285D01*
X189450595Y-86953809D01*
X189450595Y-86810952D01*
X189498214Y-86620476D01*
X189545833Y-86525238D01*
X189641071Y-86430000D01*
X189783928Y-86382380D01*
X189879166Y-86382380D01*
X190022023Y-86430000D01*
X190069642Y-86477619D01*
X190926785Y-86715714D02*
X190926785Y-87382380D01*
X190688690Y-86334761D02*
X190450595Y-87049047D01*
X191069642Y-87049047D01*
X191593452Y-86810952D02*
X191498214Y-86763333D01*
X191450595Y-86715714D01*
X191402976Y-86620476D01*
X191402976Y-86572857D01*
X191450595Y-86477619D01*
X191498214Y-86430000D01*
X191593452Y-86382380D01*
X191783928Y-86382380D01*
X191879166Y-86430000D01*
X191926785Y-86477619D01*
X191974404Y-86572857D01*
X191974404Y-86620476D01*
X191926785Y-86715714D01*
X191879166Y-86763333D01*
X191783928Y-86810952D01*
X191593452Y-86810952D01*
X191498214Y-86858571D01*
X191450595Y-86906190D01*
X191402976Y-87001428D01*
X191402976Y-87191904D01*
X191450595Y-87287142D01*
X191498214Y-87334761D01*
X191593452Y-87382380D01*
X191783928Y-87382380D01*
X191879166Y-87334761D01*
X191926785Y-87287142D01*
X191974404Y-87191904D01*
X191974404Y-87001428D01*
X191926785Y-86906190D01*
X191879166Y-86858571D01*
X191783928Y-86810952D01*
%TO.C,C49*%
X216017244Y-90655357D02*
X216064863Y-90702976D01*
X216112482Y-90845833D01*
X216112482Y-90941071D01*
X216064863Y-91083928D01*
X215969625Y-91179166D01*
X215874387Y-91226785D01*
X215683911Y-91274404D01*
X215541054Y-91274404D01*
X215350578Y-91226785D01*
X215255340Y-91179166D01*
X215160102Y-91083928D01*
X215112482Y-90941071D01*
X215112482Y-90845833D01*
X215160102Y-90702976D01*
X215207721Y-90655357D01*
X215445816Y-89798214D02*
X216112482Y-89798214D01*
X215064863Y-90036309D02*
X215779149Y-90274404D01*
X215779149Y-89655357D01*
X216112482Y-89226785D02*
X216112482Y-89036309D01*
X216064863Y-88941071D01*
X216017244Y-88893452D01*
X215874387Y-88798214D01*
X215683911Y-88750595D01*
X215302959Y-88750595D01*
X215207721Y-88798214D01*
X215160102Y-88845833D01*
X215112482Y-88941071D01*
X215112482Y-89131547D01*
X215160102Y-89226785D01*
X215207721Y-89274404D01*
X215302959Y-89322023D01*
X215541054Y-89322023D01*
X215636292Y-89274404D01*
X215683911Y-89226785D01*
X215731530Y-89131547D01*
X215731530Y-88941071D01*
X215683911Y-88845833D01*
X215636292Y-88798214D01*
X215541054Y-88750595D01*
%TO.C,C51*%
X211527142Y-74342857D02*
X211574761Y-74390476D01*
X211622380Y-74533333D01*
X211622380Y-74628571D01*
X211574761Y-74771428D01*
X211479523Y-74866666D01*
X211384285Y-74914285D01*
X211193809Y-74961904D01*
X211050952Y-74961904D01*
X210860476Y-74914285D01*
X210765238Y-74866666D01*
X210670000Y-74771428D01*
X210622380Y-74628571D01*
X210622380Y-74533333D01*
X210670000Y-74390476D01*
X210717619Y-74342857D01*
X210622380Y-73438095D02*
X210622380Y-73914285D01*
X211098571Y-73961904D01*
X211050952Y-73914285D01*
X211003333Y-73819047D01*
X211003333Y-73580952D01*
X211050952Y-73485714D01*
X211098571Y-73438095D01*
X211193809Y-73390476D01*
X211431904Y-73390476D01*
X211527142Y-73438095D01*
X211574761Y-73485714D01*
X211622380Y-73580952D01*
X211622380Y-73819047D01*
X211574761Y-73914285D01*
X211527142Y-73961904D01*
X211622380Y-72438095D02*
X211622380Y-73009523D01*
X211622380Y-72723809D02*
X210622380Y-72723809D01*
X210765238Y-72819047D01*
X210860476Y-72914285D01*
X210908095Y-73009523D01*
%TO.C,C69*%
X190799642Y-64607142D02*
X190752023Y-64654761D01*
X190609166Y-64702380D01*
X190513928Y-64702380D01*
X190371071Y-64654761D01*
X190275833Y-64559523D01*
X190228214Y-64464285D01*
X190180595Y-64273809D01*
X190180595Y-64130952D01*
X190228214Y-63940476D01*
X190275833Y-63845238D01*
X190371071Y-63750000D01*
X190513928Y-63702380D01*
X190609166Y-63702380D01*
X190752023Y-63750000D01*
X190799642Y-63797619D01*
X191656785Y-63702380D02*
X191466309Y-63702380D01*
X191371071Y-63750000D01*
X191323452Y-63797619D01*
X191228214Y-63940476D01*
X191180595Y-64130952D01*
X191180595Y-64511904D01*
X191228214Y-64607142D01*
X191275833Y-64654761D01*
X191371071Y-64702380D01*
X191561547Y-64702380D01*
X191656785Y-64654761D01*
X191704404Y-64607142D01*
X191752023Y-64511904D01*
X191752023Y-64273809D01*
X191704404Y-64178571D01*
X191656785Y-64130952D01*
X191561547Y-64083333D01*
X191371071Y-64083333D01*
X191275833Y-64130952D01*
X191228214Y-64178571D01*
X191180595Y-64273809D01*
X192228214Y-64702380D02*
X192418690Y-64702380D01*
X192513928Y-64654761D01*
X192561547Y-64607142D01*
X192656785Y-64464285D01*
X192704404Y-64273809D01*
X192704404Y-63892857D01*
X192656785Y-63797619D01*
X192609166Y-63750000D01*
X192513928Y-63702380D01*
X192323452Y-63702380D01*
X192228214Y-63750000D01*
X192180595Y-63797619D01*
X192132976Y-63892857D01*
X192132976Y-64130952D01*
X192180595Y-64226190D01*
X192228214Y-64273809D01*
X192323452Y-64321428D01*
X192513928Y-64321428D01*
X192609166Y-64273809D01*
X192656785Y-64226190D01*
X192704404Y-64130952D01*
%TO.C,C70*%
X200824642Y-69087142D02*
X200777023Y-69134761D01*
X200634166Y-69182380D01*
X200538928Y-69182380D01*
X200396071Y-69134761D01*
X200300833Y-69039523D01*
X200253214Y-68944285D01*
X200205595Y-68753809D01*
X200205595Y-68610952D01*
X200253214Y-68420476D01*
X200300833Y-68325238D01*
X200396071Y-68230000D01*
X200538928Y-68182380D01*
X200634166Y-68182380D01*
X200777023Y-68230000D01*
X200824642Y-68277619D01*
X201157976Y-68182380D02*
X201824642Y-68182380D01*
X201396071Y-69182380D01*
X202396071Y-68182380D02*
X202491309Y-68182380D01*
X202586547Y-68230000D01*
X202634166Y-68277619D01*
X202681785Y-68372857D01*
X202729404Y-68563333D01*
X202729404Y-68801428D01*
X202681785Y-68991904D01*
X202634166Y-69087142D01*
X202586547Y-69134761D01*
X202491309Y-69182380D01*
X202396071Y-69182380D01*
X202300833Y-69134761D01*
X202253214Y-69087142D01*
X202205595Y-68991904D01*
X202157976Y-68801428D01*
X202157976Y-68563333D01*
X202205595Y-68372857D01*
X202253214Y-68277619D01*
X202300833Y-68230000D01*
X202396071Y-68182380D01*
%TO.C,C71*%
X192064642Y-66147142D02*
X192017023Y-66194761D01*
X191874166Y-66242380D01*
X191778928Y-66242380D01*
X191636071Y-66194761D01*
X191540833Y-66099523D01*
X191493214Y-66004285D01*
X191445595Y-65813809D01*
X191445595Y-65670952D01*
X191493214Y-65480476D01*
X191540833Y-65385238D01*
X191636071Y-65290000D01*
X191778928Y-65242380D01*
X191874166Y-65242380D01*
X192017023Y-65290000D01*
X192064642Y-65337619D01*
X192397976Y-65242380D02*
X193064642Y-65242380D01*
X192636071Y-66242380D01*
X193969404Y-66242380D02*
X193397976Y-66242380D01*
X193683690Y-66242380D02*
X193683690Y-65242380D01*
X193588452Y-65385238D01*
X193493214Y-65480476D01*
X193397976Y-65528095D01*
%TO.C,C72*%
X203744642Y-77127142D02*
X203697023Y-77174761D01*
X203554166Y-77222380D01*
X203458928Y-77222380D01*
X203316071Y-77174761D01*
X203220833Y-77079523D01*
X203173214Y-76984285D01*
X203125595Y-76793809D01*
X203125595Y-76650952D01*
X203173214Y-76460476D01*
X203220833Y-76365238D01*
X203316071Y-76270000D01*
X203458928Y-76222380D01*
X203554166Y-76222380D01*
X203697023Y-76270000D01*
X203744642Y-76317619D01*
X204077976Y-76222380D02*
X204744642Y-76222380D01*
X204316071Y-77222380D01*
X205077976Y-76317619D02*
X205125595Y-76270000D01*
X205220833Y-76222380D01*
X205458928Y-76222380D01*
X205554166Y-76270000D01*
X205601785Y-76317619D01*
X205649404Y-76412857D01*
X205649404Y-76508095D01*
X205601785Y-76650952D01*
X205030357Y-77222380D01*
X205649404Y-77222380D01*
%TO.C,C75*%
X200769642Y-64627142D02*
X200722023Y-64674761D01*
X200579166Y-64722380D01*
X200483928Y-64722380D01*
X200341071Y-64674761D01*
X200245833Y-64579523D01*
X200198214Y-64484285D01*
X200150595Y-64293809D01*
X200150595Y-64150952D01*
X200198214Y-63960476D01*
X200245833Y-63865238D01*
X200341071Y-63770000D01*
X200483928Y-63722380D01*
X200579166Y-63722380D01*
X200722023Y-63770000D01*
X200769642Y-63817619D01*
X201102976Y-63722380D02*
X201769642Y-63722380D01*
X201341071Y-64722380D01*
X202626785Y-63722380D02*
X202150595Y-63722380D01*
X202102976Y-64198571D01*
X202150595Y-64150952D01*
X202245833Y-64103333D01*
X202483928Y-64103333D01*
X202579166Y-64150952D01*
X202626785Y-64198571D01*
X202674404Y-64293809D01*
X202674404Y-64531904D01*
X202626785Y-64627142D01*
X202579166Y-64674761D01*
X202483928Y-64722380D01*
X202245833Y-64722380D01*
X202150595Y-64674761D01*
X202102976Y-64627142D01*
%TO.C,C76*%
X190244642Y-81687142D02*
X190197023Y-81734761D01*
X190054166Y-81782380D01*
X189958928Y-81782380D01*
X189816071Y-81734761D01*
X189720833Y-81639523D01*
X189673214Y-81544285D01*
X189625595Y-81353809D01*
X189625595Y-81210952D01*
X189673214Y-81020476D01*
X189720833Y-80925238D01*
X189816071Y-80830000D01*
X189958928Y-80782380D01*
X190054166Y-80782380D01*
X190197023Y-80830000D01*
X190244642Y-80877619D01*
X190577976Y-80782380D02*
X191244642Y-80782380D01*
X190816071Y-81782380D01*
X192054166Y-80782380D02*
X191863690Y-80782380D01*
X191768452Y-80830000D01*
X191720833Y-80877619D01*
X191625595Y-81020476D01*
X191577976Y-81210952D01*
X191577976Y-81591904D01*
X191625595Y-81687142D01*
X191673214Y-81734761D01*
X191768452Y-81782380D01*
X191958928Y-81782380D01*
X192054166Y-81734761D01*
X192101785Y-81687142D01*
X192149404Y-81591904D01*
X192149404Y-81353809D01*
X192101785Y-81258571D01*
X192054166Y-81210952D01*
X191958928Y-81163333D01*
X191768452Y-81163333D01*
X191673214Y-81210952D01*
X191625595Y-81258571D01*
X191577976Y-81353809D01*
%TO.C,C77*%
X198869642Y-80272857D02*
X198917261Y-80320476D01*
X198964880Y-80463333D01*
X198964880Y-80558571D01*
X198917261Y-80701428D01*
X198822023Y-80796666D01*
X198726785Y-80844285D01*
X198536309Y-80891904D01*
X198393452Y-80891904D01*
X198202976Y-80844285D01*
X198107738Y-80796666D01*
X198012500Y-80701428D01*
X197964880Y-80558571D01*
X197964880Y-80463333D01*
X198012500Y-80320476D01*
X198060119Y-80272857D01*
X197964880Y-79939523D02*
X197964880Y-79272857D01*
X198964880Y-79701428D01*
X197964880Y-78987142D02*
X197964880Y-78320476D01*
X198964880Y-78749047D01*
%TO.C,C78*%
X295037142Y-85392857D02*
X295084761Y-85440476D01*
X295132380Y-85583333D01*
X295132380Y-85678571D01*
X295084761Y-85821428D01*
X294989523Y-85916666D01*
X294894285Y-85964285D01*
X294703809Y-86011904D01*
X294560952Y-86011904D01*
X294370476Y-85964285D01*
X294275238Y-85916666D01*
X294180000Y-85821428D01*
X294132380Y-85678571D01*
X294132380Y-85583333D01*
X294180000Y-85440476D01*
X294227619Y-85392857D01*
X294132380Y-85059523D02*
X294132380Y-84392857D01*
X295132380Y-84821428D01*
X294560952Y-83869047D02*
X294513333Y-83964285D01*
X294465714Y-84011904D01*
X294370476Y-84059523D01*
X294322857Y-84059523D01*
X294227619Y-84011904D01*
X294180000Y-83964285D01*
X294132380Y-83869047D01*
X294132380Y-83678571D01*
X294180000Y-83583333D01*
X294227619Y-83535714D01*
X294322857Y-83488095D01*
X294370476Y-83488095D01*
X294465714Y-83535714D01*
X294513333Y-83583333D01*
X294560952Y-83678571D01*
X294560952Y-83869047D01*
X294608571Y-83964285D01*
X294656190Y-84011904D01*
X294751428Y-84059523D01*
X294941904Y-84059523D01*
X295037142Y-84011904D01*
X295084761Y-83964285D01*
X295132380Y-83869047D01*
X295132380Y-83678571D01*
X295084761Y-83583333D01*
X295037142Y-83535714D01*
X294941904Y-83488095D01*
X294751428Y-83488095D01*
X294656190Y-83535714D01*
X294608571Y-83583333D01*
X294560952Y-83678571D01*
%TO.C,C79*%
X190244642Y-77327142D02*
X190197023Y-77374761D01*
X190054166Y-77422380D01*
X189958928Y-77422380D01*
X189816071Y-77374761D01*
X189720833Y-77279523D01*
X189673214Y-77184285D01*
X189625595Y-76993809D01*
X189625595Y-76850952D01*
X189673214Y-76660476D01*
X189720833Y-76565238D01*
X189816071Y-76470000D01*
X189958928Y-76422380D01*
X190054166Y-76422380D01*
X190197023Y-76470000D01*
X190244642Y-76517619D01*
X190577976Y-76422380D02*
X191244642Y-76422380D01*
X190816071Y-77422380D01*
X191673214Y-77422380D02*
X191863690Y-77422380D01*
X191958928Y-77374761D01*
X192006547Y-77327142D01*
X192101785Y-77184285D01*
X192149404Y-76993809D01*
X192149404Y-76612857D01*
X192101785Y-76517619D01*
X192054166Y-76470000D01*
X191958928Y-76422380D01*
X191768452Y-76422380D01*
X191673214Y-76470000D01*
X191625595Y-76517619D01*
X191577976Y-76612857D01*
X191577976Y-76850952D01*
X191625595Y-76946190D01*
X191673214Y-76993809D01*
X191768452Y-77041428D01*
X191958928Y-77041428D01*
X192054166Y-76993809D01*
X192101785Y-76946190D01*
X192149404Y-76850952D01*
%TO.C,C80*%
X293857142Y-77967857D02*
X293904761Y-78015476D01*
X293952380Y-78158333D01*
X293952380Y-78253571D01*
X293904761Y-78396428D01*
X293809523Y-78491666D01*
X293714285Y-78539285D01*
X293523809Y-78586904D01*
X293380952Y-78586904D01*
X293190476Y-78539285D01*
X293095238Y-78491666D01*
X293000000Y-78396428D01*
X292952380Y-78253571D01*
X292952380Y-78158333D01*
X293000000Y-78015476D01*
X293047619Y-77967857D01*
X293380952Y-77396428D02*
X293333333Y-77491666D01*
X293285714Y-77539285D01*
X293190476Y-77586904D01*
X293142857Y-77586904D01*
X293047619Y-77539285D01*
X293000000Y-77491666D01*
X292952380Y-77396428D01*
X292952380Y-77205952D01*
X293000000Y-77110714D01*
X293047619Y-77063095D01*
X293142857Y-77015476D01*
X293190476Y-77015476D01*
X293285714Y-77063095D01*
X293333333Y-77110714D01*
X293380952Y-77205952D01*
X293380952Y-77396428D01*
X293428571Y-77491666D01*
X293476190Y-77539285D01*
X293571428Y-77586904D01*
X293761904Y-77586904D01*
X293857142Y-77539285D01*
X293904761Y-77491666D01*
X293952380Y-77396428D01*
X293952380Y-77205952D01*
X293904761Y-77110714D01*
X293857142Y-77063095D01*
X293761904Y-77015476D01*
X293571428Y-77015476D01*
X293476190Y-77063095D01*
X293428571Y-77110714D01*
X293380952Y-77205952D01*
X292952380Y-76396428D02*
X292952380Y-76301190D01*
X293000000Y-76205952D01*
X293047619Y-76158333D01*
X293142857Y-76110714D01*
X293333333Y-76063095D01*
X293571428Y-76063095D01*
X293761904Y-76110714D01*
X293857142Y-76158333D01*
X293904761Y-76205952D01*
X293952380Y-76301190D01*
X293952380Y-76396428D01*
X293904761Y-76491666D01*
X293857142Y-76539285D01*
X293761904Y-76586904D01*
X293571428Y-76634523D01*
X293333333Y-76634523D01*
X293142857Y-76586904D01*
X293047619Y-76539285D01*
X293000000Y-76491666D01*
X292952380Y-76396428D01*
%TO.C,C82*%
X190244642Y-83187142D02*
X190197023Y-83234761D01*
X190054166Y-83282380D01*
X189958928Y-83282380D01*
X189816071Y-83234761D01*
X189720833Y-83139523D01*
X189673214Y-83044285D01*
X189625595Y-82853809D01*
X189625595Y-82710952D01*
X189673214Y-82520476D01*
X189720833Y-82425238D01*
X189816071Y-82330000D01*
X189958928Y-82282380D01*
X190054166Y-82282380D01*
X190197023Y-82330000D01*
X190244642Y-82377619D01*
X190816071Y-82710952D02*
X190720833Y-82663333D01*
X190673214Y-82615714D01*
X190625595Y-82520476D01*
X190625595Y-82472857D01*
X190673214Y-82377619D01*
X190720833Y-82330000D01*
X190816071Y-82282380D01*
X191006547Y-82282380D01*
X191101785Y-82330000D01*
X191149404Y-82377619D01*
X191197023Y-82472857D01*
X191197023Y-82520476D01*
X191149404Y-82615714D01*
X191101785Y-82663333D01*
X191006547Y-82710952D01*
X190816071Y-82710952D01*
X190720833Y-82758571D01*
X190673214Y-82806190D01*
X190625595Y-82901428D01*
X190625595Y-83091904D01*
X190673214Y-83187142D01*
X190720833Y-83234761D01*
X190816071Y-83282380D01*
X191006547Y-83282380D01*
X191101785Y-83234761D01*
X191149404Y-83187142D01*
X191197023Y-83091904D01*
X191197023Y-82901428D01*
X191149404Y-82806190D01*
X191101785Y-82758571D01*
X191006547Y-82710952D01*
X191577976Y-82377619D02*
X191625595Y-82330000D01*
X191720833Y-82282380D01*
X191958928Y-82282380D01*
X192054166Y-82330000D01*
X192101785Y-82377619D01*
X192149404Y-82472857D01*
X192149404Y-82568095D01*
X192101785Y-82710952D01*
X191530357Y-83282380D01*
X192149404Y-83282380D01*
%TO.C,J33*%
X173172976Y-71222380D02*
X173172976Y-71936666D01*
X173125357Y-72079523D01*
X173030119Y-72174761D01*
X172887261Y-72222380D01*
X172792023Y-72222380D01*
X173553928Y-71222380D02*
X174172976Y-71222380D01*
X173839642Y-71603333D01*
X173982500Y-71603333D01*
X174077738Y-71650952D01*
X174125357Y-71698571D01*
X174172976Y-71793809D01*
X174172976Y-72031904D01*
X174125357Y-72127142D01*
X174077738Y-72174761D01*
X173982500Y-72222380D01*
X173696785Y-72222380D01*
X173601547Y-72174761D01*
X173553928Y-72127142D01*
X174506309Y-71222380D02*
X175125357Y-71222380D01*
X174792023Y-71603333D01*
X174934880Y-71603333D01*
X175030119Y-71650952D01*
X175077738Y-71698571D01*
X175125357Y-71793809D01*
X175125357Y-72031904D01*
X175077738Y-72127142D01*
X175030119Y-72174761D01*
X174934880Y-72222380D01*
X174649166Y-72222380D01*
X174553928Y-72174761D01*
X174506309Y-72127142D01*
%TO.C,R42*%
X216507721Y-79482142D02*
X216983911Y-79148809D01*
X216507721Y-78910714D02*
X217507721Y-78910714D01*
X217507721Y-79291666D01*
X217460102Y-79386904D01*
X217412482Y-79434523D01*
X217317244Y-79482142D01*
X217174387Y-79482142D01*
X217079149Y-79434523D01*
X217031530Y-79386904D01*
X216983911Y-79291666D01*
X216983911Y-78910714D01*
X217174387Y-80339285D02*
X216507721Y-80339285D01*
X217555340Y-80101190D02*
X216841054Y-79863095D01*
X216841054Y-80482142D01*
X217412482Y-80815476D02*
X217460102Y-80863095D01*
X217507721Y-80958333D01*
X217507721Y-81196428D01*
X217460102Y-81291666D01*
X217412482Y-81339285D01*
X217317244Y-81386904D01*
X217222006Y-81386904D01*
X217079149Y-81339285D01*
X216507721Y-80767857D01*
X216507721Y-81386904D01*
%TO.C,R43*%
X216252482Y-80767857D02*
X215776292Y-81101190D01*
X216252482Y-81339285D02*
X215252482Y-81339285D01*
X215252482Y-80958333D01*
X215300102Y-80863095D01*
X215347721Y-80815476D01*
X215442959Y-80767857D01*
X215585816Y-80767857D01*
X215681054Y-80815476D01*
X215728673Y-80863095D01*
X215776292Y-80958333D01*
X215776292Y-81339285D01*
X215585816Y-79910714D02*
X216252482Y-79910714D01*
X215204863Y-80148809D02*
X215919149Y-80386904D01*
X215919149Y-79767857D01*
X215252482Y-79482142D02*
X215252482Y-78863095D01*
X215633435Y-79196428D01*
X215633435Y-79053571D01*
X215681054Y-78958333D01*
X215728673Y-78910714D01*
X215823911Y-78863095D01*
X216062006Y-78863095D01*
X216157244Y-78910714D01*
X216204863Y-78958333D01*
X216252482Y-79053571D01*
X216252482Y-79339285D01*
X216204863Y-79434523D01*
X216157244Y-79482142D01*
%TO.C,R44*%
X212682380Y-75242857D02*
X212206190Y-75576190D01*
X212682380Y-75814285D02*
X211682380Y-75814285D01*
X211682380Y-75433333D01*
X211730000Y-75338095D01*
X211777619Y-75290476D01*
X211872857Y-75242857D01*
X212015714Y-75242857D01*
X212110952Y-75290476D01*
X212158571Y-75338095D01*
X212206190Y-75433333D01*
X212206190Y-75814285D01*
X212015714Y-74385714D02*
X212682380Y-74385714D01*
X211634761Y-74623809D02*
X212349047Y-74861904D01*
X212349047Y-74242857D01*
X212015714Y-73433333D02*
X212682380Y-73433333D01*
X211634761Y-73671428D02*
X212349047Y-73909523D01*
X212349047Y-73290476D01*
%TO.C,R45*%
X212682380Y-78342857D02*
X212206190Y-78676190D01*
X212682380Y-78914285D02*
X211682380Y-78914285D01*
X211682380Y-78533333D01*
X211730000Y-78438095D01*
X211777619Y-78390476D01*
X211872857Y-78342857D01*
X212015714Y-78342857D01*
X212110952Y-78390476D01*
X212158571Y-78438095D01*
X212206190Y-78533333D01*
X212206190Y-78914285D01*
X212015714Y-77485714D02*
X212682380Y-77485714D01*
X211634761Y-77723809D02*
X212349047Y-77961904D01*
X212349047Y-77342857D01*
X211682380Y-76485714D02*
X211682380Y-76961904D01*
X212158571Y-77009523D01*
X212110952Y-76961904D01*
X212063333Y-76866666D01*
X212063333Y-76628571D01*
X212110952Y-76533333D01*
X212158571Y-76485714D01*
X212253809Y-76438095D01*
X212491904Y-76438095D01*
X212587142Y-76485714D01*
X212634761Y-76533333D01*
X212682380Y-76628571D01*
X212682380Y-76866666D01*
X212634761Y-76961904D01*
X212587142Y-77009523D01*
%TO.C,R57*%
X168557142Y-75982380D02*
X168223809Y-75506190D01*
X167985714Y-75982380D02*
X167985714Y-74982380D01*
X168366666Y-74982380D01*
X168461904Y-75030000D01*
X168509523Y-75077619D01*
X168557142Y-75172857D01*
X168557142Y-75315714D01*
X168509523Y-75410952D01*
X168461904Y-75458571D01*
X168366666Y-75506190D01*
X167985714Y-75506190D01*
X169461904Y-74982380D02*
X168985714Y-74982380D01*
X168938095Y-75458571D01*
X168985714Y-75410952D01*
X169080952Y-75363333D01*
X169319047Y-75363333D01*
X169414285Y-75410952D01*
X169461904Y-75458571D01*
X169509523Y-75553809D01*
X169509523Y-75791904D01*
X169461904Y-75887142D01*
X169414285Y-75934761D01*
X169319047Y-75982380D01*
X169080952Y-75982380D01*
X168985714Y-75934761D01*
X168938095Y-75887142D01*
X169842857Y-74982380D02*
X170509523Y-74982380D01*
X170080952Y-75982380D01*
%TO.C,R58*%
X168557142Y-78482380D02*
X168223809Y-78006190D01*
X167985714Y-78482380D02*
X167985714Y-77482380D01*
X168366666Y-77482380D01*
X168461904Y-77530000D01*
X168509523Y-77577619D01*
X168557142Y-77672857D01*
X168557142Y-77815714D01*
X168509523Y-77910952D01*
X168461904Y-77958571D01*
X168366666Y-78006190D01*
X167985714Y-78006190D01*
X169461904Y-77482380D02*
X168985714Y-77482380D01*
X168938095Y-77958571D01*
X168985714Y-77910952D01*
X169080952Y-77863333D01*
X169319047Y-77863333D01*
X169414285Y-77910952D01*
X169461904Y-77958571D01*
X169509523Y-78053809D01*
X169509523Y-78291904D01*
X169461904Y-78387142D01*
X169414285Y-78434761D01*
X169319047Y-78482380D01*
X169080952Y-78482380D01*
X168985714Y-78434761D01*
X168938095Y-78387142D01*
X170080952Y-77910952D02*
X169985714Y-77863333D01*
X169938095Y-77815714D01*
X169890476Y-77720476D01*
X169890476Y-77672857D01*
X169938095Y-77577619D01*
X169985714Y-77530000D01*
X170080952Y-77482380D01*
X170271428Y-77482380D01*
X170366666Y-77530000D01*
X170414285Y-77577619D01*
X170461904Y-77672857D01*
X170461904Y-77720476D01*
X170414285Y-77815714D01*
X170366666Y-77863333D01*
X170271428Y-77910952D01*
X170080952Y-77910952D01*
X169985714Y-77958571D01*
X169938095Y-78006190D01*
X169890476Y-78101428D01*
X169890476Y-78291904D01*
X169938095Y-78387142D01*
X169985714Y-78434761D01*
X170080952Y-78482380D01*
X170271428Y-78482380D01*
X170366666Y-78434761D01*
X170414285Y-78387142D01*
X170461904Y-78291904D01*
X170461904Y-78101428D01*
X170414285Y-78006190D01*
X170366666Y-77958571D01*
X170271428Y-77910952D01*
%TO.C,R59*%
X168557142Y-81182380D02*
X168223809Y-80706190D01*
X167985714Y-81182380D02*
X167985714Y-80182380D01*
X168366666Y-80182380D01*
X168461904Y-80230000D01*
X168509523Y-80277619D01*
X168557142Y-80372857D01*
X168557142Y-80515714D01*
X168509523Y-80610952D01*
X168461904Y-80658571D01*
X168366666Y-80706190D01*
X167985714Y-80706190D01*
X169461904Y-80182380D02*
X168985714Y-80182380D01*
X168938095Y-80658571D01*
X168985714Y-80610952D01*
X169080952Y-80563333D01*
X169319047Y-80563333D01*
X169414285Y-80610952D01*
X169461904Y-80658571D01*
X169509523Y-80753809D01*
X169509523Y-80991904D01*
X169461904Y-81087142D01*
X169414285Y-81134761D01*
X169319047Y-81182380D01*
X169080952Y-81182380D01*
X168985714Y-81134761D01*
X168938095Y-81087142D01*
X169985714Y-81182380D02*
X170176190Y-81182380D01*
X170271428Y-81134761D01*
X170319047Y-81087142D01*
X170414285Y-80944285D01*
X170461904Y-80753809D01*
X170461904Y-80372857D01*
X170414285Y-80277619D01*
X170366666Y-80230000D01*
X170271428Y-80182380D01*
X170080952Y-80182380D01*
X169985714Y-80230000D01*
X169938095Y-80277619D01*
X169890476Y-80372857D01*
X169890476Y-80610952D01*
X169938095Y-80706190D01*
X169985714Y-80753809D01*
X170080952Y-80801428D01*
X170271428Y-80801428D01*
X170366666Y-80753809D01*
X170414285Y-80706190D01*
X170461904Y-80610952D01*
%TO.C,R69*%
X198022380Y-67130357D02*
X197546190Y-67463690D01*
X198022380Y-67701785D02*
X197022380Y-67701785D01*
X197022380Y-67320833D01*
X197070000Y-67225595D01*
X197117619Y-67177976D01*
X197212857Y-67130357D01*
X197355714Y-67130357D01*
X197450952Y-67177976D01*
X197498571Y-67225595D01*
X197546190Y-67320833D01*
X197546190Y-67701785D01*
X197022380Y-66273214D02*
X197022380Y-66463690D01*
X197070000Y-66558928D01*
X197117619Y-66606547D01*
X197260476Y-66701785D01*
X197450952Y-66749404D01*
X197831904Y-66749404D01*
X197927142Y-66701785D01*
X197974761Y-66654166D01*
X198022380Y-66558928D01*
X198022380Y-66368452D01*
X197974761Y-66273214D01*
X197927142Y-66225595D01*
X197831904Y-66177976D01*
X197593809Y-66177976D01*
X197498571Y-66225595D01*
X197450952Y-66273214D01*
X197403333Y-66368452D01*
X197403333Y-66558928D01*
X197450952Y-66654166D01*
X197498571Y-66701785D01*
X197593809Y-66749404D01*
X198022380Y-65701785D02*
X198022380Y-65511309D01*
X197974761Y-65416071D01*
X197927142Y-65368452D01*
X197784285Y-65273214D01*
X197593809Y-65225595D01*
X197212857Y-65225595D01*
X197117619Y-65273214D01*
X197070000Y-65320833D01*
X197022380Y-65416071D01*
X197022380Y-65606547D01*
X197070000Y-65701785D01*
X197117619Y-65749404D01*
X197212857Y-65797023D01*
X197450952Y-65797023D01*
X197546190Y-65749404D01*
X197593809Y-65701785D01*
X197641428Y-65606547D01*
X197641428Y-65416071D01*
X197593809Y-65320833D01*
X197546190Y-65273214D01*
X197450952Y-65225595D01*
%TO.C,R70*%
X212857380Y-81517857D02*
X212381190Y-81851190D01*
X212857380Y-82089285D02*
X211857380Y-82089285D01*
X211857380Y-81708333D01*
X211905000Y-81613095D01*
X211952619Y-81565476D01*
X212047857Y-81517857D01*
X212190714Y-81517857D01*
X212285952Y-81565476D01*
X212333571Y-81613095D01*
X212381190Y-81708333D01*
X212381190Y-82089285D01*
X211857380Y-81184523D02*
X211857380Y-80517857D01*
X212857380Y-80946428D01*
X211857380Y-79946428D02*
X211857380Y-79851190D01*
X211905000Y-79755952D01*
X211952619Y-79708333D01*
X212047857Y-79660714D01*
X212238333Y-79613095D01*
X212476428Y-79613095D01*
X212666904Y-79660714D01*
X212762142Y-79708333D01*
X212809761Y-79755952D01*
X212857380Y-79851190D01*
X212857380Y-79946428D01*
X212809761Y-80041666D01*
X212762142Y-80089285D01*
X212666904Y-80136904D01*
X212476428Y-80184523D01*
X212238333Y-80184523D01*
X212047857Y-80136904D01*
X211952619Y-80089285D01*
X211905000Y-80041666D01*
X211857380Y-79946428D01*
%TO.C,R71*%
X193622380Y-81542857D02*
X193146190Y-81876190D01*
X193622380Y-82114285D02*
X192622380Y-82114285D01*
X192622380Y-81733333D01*
X192670000Y-81638095D01*
X192717619Y-81590476D01*
X192812857Y-81542857D01*
X192955714Y-81542857D01*
X193050952Y-81590476D01*
X193098571Y-81638095D01*
X193146190Y-81733333D01*
X193146190Y-82114285D01*
X192622380Y-81209523D02*
X192622380Y-80542857D01*
X193622380Y-80971428D01*
X193622380Y-79638095D02*
X193622380Y-80209523D01*
X193622380Y-79923809D02*
X192622380Y-79923809D01*
X192765238Y-80019047D01*
X192860476Y-80114285D01*
X192908095Y-80209523D01*
%TO.C,R72*%
X198122380Y-86242857D02*
X197646190Y-86576190D01*
X198122380Y-86814285D02*
X197122380Y-86814285D01*
X197122380Y-86433333D01*
X197170000Y-86338095D01*
X197217619Y-86290476D01*
X197312857Y-86242857D01*
X197455714Y-86242857D01*
X197550952Y-86290476D01*
X197598571Y-86338095D01*
X197646190Y-86433333D01*
X197646190Y-86814285D01*
X197122380Y-85909523D02*
X197122380Y-85242857D01*
X198122380Y-85671428D01*
X197217619Y-84909523D02*
X197170000Y-84861904D01*
X197122380Y-84766666D01*
X197122380Y-84528571D01*
X197170000Y-84433333D01*
X197217619Y-84385714D01*
X197312857Y-84338095D01*
X197408095Y-84338095D01*
X197550952Y-84385714D01*
X198122380Y-84957142D01*
X198122380Y-84338095D01*
%TO.C,R73*%
X205547380Y-81530357D02*
X205071190Y-81863690D01*
X205547380Y-82101785D02*
X204547380Y-82101785D01*
X204547380Y-81720833D01*
X204595000Y-81625595D01*
X204642619Y-81577976D01*
X204737857Y-81530357D01*
X204880714Y-81530357D01*
X204975952Y-81577976D01*
X205023571Y-81625595D01*
X205071190Y-81720833D01*
X205071190Y-82101785D01*
X204547380Y-81197023D02*
X204547380Y-80530357D01*
X205547380Y-80958928D01*
X204547380Y-80244642D02*
X204547380Y-79625595D01*
X204928333Y-79958928D01*
X204928333Y-79816071D01*
X204975952Y-79720833D01*
X205023571Y-79673214D01*
X205118809Y-79625595D01*
X205356904Y-79625595D01*
X205452142Y-79673214D01*
X205499761Y-79720833D01*
X205547380Y-79816071D01*
X205547380Y-80101785D01*
X205499761Y-80197023D01*
X205452142Y-80244642D01*
%TO.C,R74*%
X202572380Y-81530357D02*
X202096190Y-81863690D01*
X202572380Y-82101785D02*
X201572380Y-82101785D01*
X201572380Y-81720833D01*
X201620000Y-81625595D01*
X201667619Y-81577976D01*
X201762857Y-81530357D01*
X201905714Y-81530357D01*
X202000952Y-81577976D01*
X202048571Y-81625595D01*
X202096190Y-81720833D01*
X202096190Y-82101785D01*
X201572380Y-81197023D02*
X201572380Y-80530357D01*
X202572380Y-80958928D01*
X201905714Y-79720833D02*
X202572380Y-79720833D01*
X201524761Y-79958928D02*
X202239047Y-80197023D01*
X202239047Y-79577976D01*
%TO.C,R75*%
X201097380Y-81542857D02*
X200621190Y-81876190D01*
X201097380Y-82114285D02*
X200097380Y-82114285D01*
X200097380Y-81733333D01*
X200145000Y-81638095D01*
X200192619Y-81590476D01*
X200287857Y-81542857D01*
X200430714Y-81542857D01*
X200525952Y-81590476D01*
X200573571Y-81638095D01*
X200621190Y-81733333D01*
X200621190Y-82114285D01*
X200097380Y-81209523D02*
X200097380Y-80542857D01*
X201097380Y-80971428D01*
X200097380Y-79685714D02*
X200097380Y-80161904D01*
X200573571Y-80209523D01*
X200525952Y-80161904D01*
X200478333Y-80066666D01*
X200478333Y-79828571D01*
X200525952Y-79733333D01*
X200573571Y-79685714D01*
X200668809Y-79638095D01*
X200906904Y-79638095D01*
X201002142Y-79685714D01*
X201049761Y-79733333D01*
X201097380Y-79828571D01*
X201097380Y-80066666D01*
X201049761Y-80161904D01*
X201002142Y-80209523D01*
%TO.C,R76*%
X205522380Y-86217857D02*
X205046190Y-86551190D01*
X205522380Y-86789285D02*
X204522380Y-86789285D01*
X204522380Y-86408333D01*
X204570000Y-86313095D01*
X204617619Y-86265476D01*
X204712857Y-86217857D01*
X204855714Y-86217857D01*
X204950952Y-86265476D01*
X204998571Y-86313095D01*
X205046190Y-86408333D01*
X205046190Y-86789285D01*
X204522380Y-85884523D02*
X204522380Y-85217857D01*
X205522380Y-85646428D01*
X204522380Y-84408333D02*
X204522380Y-84598809D01*
X204570000Y-84694047D01*
X204617619Y-84741666D01*
X204760476Y-84836904D01*
X204950952Y-84884523D01*
X205331904Y-84884523D01*
X205427142Y-84836904D01*
X205474761Y-84789285D01*
X205522380Y-84694047D01*
X205522380Y-84503571D01*
X205474761Y-84408333D01*
X205427142Y-84360714D01*
X205331904Y-84313095D01*
X205093809Y-84313095D01*
X204998571Y-84360714D01*
X204950952Y-84408333D01*
X204903333Y-84503571D01*
X204903333Y-84694047D01*
X204950952Y-84789285D01*
X204998571Y-84836904D01*
X205093809Y-84884523D01*
%TO.C,R77*%
X201097380Y-86230357D02*
X200621190Y-86563690D01*
X201097380Y-86801785D02*
X200097380Y-86801785D01*
X200097380Y-86420833D01*
X200145000Y-86325595D01*
X200192619Y-86277976D01*
X200287857Y-86230357D01*
X200430714Y-86230357D01*
X200525952Y-86277976D01*
X200573571Y-86325595D01*
X200621190Y-86420833D01*
X200621190Y-86801785D01*
X200097380Y-85897023D02*
X200097380Y-85230357D01*
X201097380Y-85658928D01*
X200097380Y-84944642D02*
X200097380Y-84277976D01*
X201097380Y-84706547D01*
%TO.C,R78*%
X207022380Y-81517857D02*
X206546190Y-81851190D01*
X207022380Y-82089285D02*
X206022380Y-82089285D01*
X206022380Y-81708333D01*
X206070000Y-81613095D01*
X206117619Y-81565476D01*
X206212857Y-81517857D01*
X206355714Y-81517857D01*
X206450952Y-81565476D01*
X206498571Y-81613095D01*
X206546190Y-81708333D01*
X206546190Y-82089285D01*
X206022380Y-81184523D02*
X206022380Y-80517857D01*
X207022380Y-80946428D01*
X206450952Y-79994047D02*
X206403333Y-80089285D01*
X206355714Y-80136904D01*
X206260476Y-80184523D01*
X206212857Y-80184523D01*
X206117619Y-80136904D01*
X206070000Y-80089285D01*
X206022380Y-79994047D01*
X206022380Y-79803571D01*
X206070000Y-79708333D01*
X206117619Y-79660714D01*
X206212857Y-79613095D01*
X206260476Y-79613095D01*
X206355714Y-79660714D01*
X206403333Y-79708333D01*
X206450952Y-79803571D01*
X206450952Y-79994047D01*
X206498571Y-80089285D01*
X206546190Y-80136904D01*
X206641428Y-80184523D01*
X206831904Y-80184523D01*
X206927142Y-80136904D01*
X206974761Y-80089285D01*
X207022380Y-79994047D01*
X207022380Y-79803571D01*
X206974761Y-79708333D01*
X206927142Y-79660714D01*
X206831904Y-79613095D01*
X206641428Y-79613095D01*
X206546190Y-79660714D01*
X206498571Y-79708333D01*
X206450952Y-79803571D01*
%TO.C,R79*%
X202572380Y-86230357D02*
X202096190Y-86563690D01*
X202572380Y-86801785D02*
X201572380Y-86801785D01*
X201572380Y-86420833D01*
X201620000Y-86325595D01*
X201667619Y-86277976D01*
X201762857Y-86230357D01*
X201905714Y-86230357D01*
X202000952Y-86277976D01*
X202048571Y-86325595D01*
X202096190Y-86420833D01*
X202096190Y-86801785D01*
X201572380Y-85897023D02*
X201572380Y-85230357D01*
X202572380Y-85658928D01*
X202572380Y-84801785D02*
X202572380Y-84611309D01*
X202524761Y-84516071D01*
X202477142Y-84468452D01*
X202334285Y-84373214D01*
X202143809Y-84325595D01*
X201762857Y-84325595D01*
X201667619Y-84373214D01*
X201620000Y-84420833D01*
X201572380Y-84516071D01*
X201572380Y-84706547D01*
X201620000Y-84801785D01*
X201667619Y-84849404D01*
X201762857Y-84897023D01*
X202000952Y-84897023D01*
X202096190Y-84849404D01*
X202143809Y-84801785D01*
X202191428Y-84706547D01*
X202191428Y-84516071D01*
X202143809Y-84420833D01*
X202096190Y-84373214D01*
X202000952Y-84325595D01*
%TO.C,R80*%
X208472380Y-86217857D02*
X207996190Y-86551190D01*
X208472380Y-86789285D02*
X207472380Y-86789285D01*
X207472380Y-86408333D01*
X207520000Y-86313095D01*
X207567619Y-86265476D01*
X207662857Y-86217857D01*
X207805714Y-86217857D01*
X207900952Y-86265476D01*
X207948571Y-86313095D01*
X207996190Y-86408333D01*
X207996190Y-86789285D01*
X207900952Y-85646428D02*
X207853333Y-85741666D01*
X207805714Y-85789285D01*
X207710476Y-85836904D01*
X207662857Y-85836904D01*
X207567619Y-85789285D01*
X207520000Y-85741666D01*
X207472380Y-85646428D01*
X207472380Y-85455952D01*
X207520000Y-85360714D01*
X207567619Y-85313095D01*
X207662857Y-85265476D01*
X207710476Y-85265476D01*
X207805714Y-85313095D01*
X207853333Y-85360714D01*
X207900952Y-85455952D01*
X207900952Y-85646428D01*
X207948571Y-85741666D01*
X207996190Y-85789285D01*
X208091428Y-85836904D01*
X208281904Y-85836904D01*
X208377142Y-85789285D01*
X208424761Y-85741666D01*
X208472380Y-85646428D01*
X208472380Y-85455952D01*
X208424761Y-85360714D01*
X208377142Y-85313095D01*
X208281904Y-85265476D01*
X208091428Y-85265476D01*
X207996190Y-85313095D01*
X207948571Y-85360714D01*
X207900952Y-85455952D01*
X207472380Y-84646428D02*
X207472380Y-84551190D01*
X207520000Y-84455952D01*
X207567619Y-84408333D01*
X207662857Y-84360714D01*
X207853333Y-84313095D01*
X208091428Y-84313095D01*
X208281904Y-84360714D01*
X208377142Y-84408333D01*
X208424761Y-84455952D01*
X208472380Y-84551190D01*
X208472380Y-84646428D01*
X208424761Y-84741666D01*
X208377142Y-84789285D01*
X208281904Y-84836904D01*
X208091428Y-84884523D01*
X207853333Y-84884523D01*
X207662857Y-84836904D01*
X207567619Y-84789285D01*
X207520000Y-84741666D01*
X207472380Y-84646428D01*
%TO.C,R81*%
X204072380Y-81530357D02*
X203596190Y-81863690D01*
X204072380Y-82101785D02*
X203072380Y-82101785D01*
X203072380Y-81720833D01*
X203120000Y-81625595D01*
X203167619Y-81577976D01*
X203262857Y-81530357D01*
X203405714Y-81530357D01*
X203500952Y-81577976D01*
X203548571Y-81625595D01*
X203596190Y-81720833D01*
X203596190Y-82101785D01*
X203500952Y-80958928D02*
X203453333Y-81054166D01*
X203405714Y-81101785D01*
X203310476Y-81149404D01*
X203262857Y-81149404D01*
X203167619Y-81101785D01*
X203120000Y-81054166D01*
X203072380Y-80958928D01*
X203072380Y-80768452D01*
X203120000Y-80673214D01*
X203167619Y-80625595D01*
X203262857Y-80577976D01*
X203310476Y-80577976D01*
X203405714Y-80625595D01*
X203453333Y-80673214D01*
X203500952Y-80768452D01*
X203500952Y-80958928D01*
X203548571Y-81054166D01*
X203596190Y-81101785D01*
X203691428Y-81149404D01*
X203881904Y-81149404D01*
X203977142Y-81101785D01*
X204024761Y-81054166D01*
X204072380Y-80958928D01*
X204072380Y-80768452D01*
X204024761Y-80673214D01*
X203977142Y-80625595D01*
X203881904Y-80577976D01*
X203691428Y-80577976D01*
X203596190Y-80625595D01*
X203548571Y-80673214D01*
X203500952Y-80768452D01*
X204072380Y-79625595D02*
X204072380Y-80197023D01*
X204072380Y-79911309D02*
X203072380Y-79911309D01*
X203215238Y-80006547D01*
X203310476Y-80101785D01*
X203358095Y-80197023D01*
%TO.C,R82*%
X195122380Y-81542857D02*
X194646190Y-81876190D01*
X195122380Y-82114285D02*
X194122380Y-82114285D01*
X194122380Y-81733333D01*
X194170000Y-81638095D01*
X194217619Y-81590476D01*
X194312857Y-81542857D01*
X194455714Y-81542857D01*
X194550952Y-81590476D01*
X194598571Y-81638095D01*
X194646190Y-81733333D01*
X194646190Y-82114285D01*
X194550952Y-80971428D02*
X194503333Y-81066666D01*
X194455714Y-81114285D01*
X194360476Y-81161904D01*
X194312857Y-81161904D01*
X194217619Y-81114285D01*
X194170000Y-81066666D01*
X194122380Y-80971428D01*
X194122380Y-80780952D01*
X194170000Y-80685714D01*
X194217619Y-80638095D01*
X194312857Y-80590476D01*
X194360476Y-80590476D01*
X194455714Y-80638095D01*
X194503333Y-80685714D01*
X194550952Y-80780952D01*
X194550952Y-80971428D01*
X194598571Y-81066666D01*
X194646190Y-81114285D01*
X194741428Y-81161904D01*
X194931904Y-81161904D01*
X195027142Y-81114285D01*
X195074761Y-81066666D01*
X195122380Y-80971428D01*
X195122380Y-80780952D01*
X195074761Y-80685714D01*
X195027142Y-80638095D01*
X194931904Y-80590476D01*
X194741428Y-80590476D01*
X194646190Y-80638095D01*
X194598571Y-80685714D01*
X194550952Y-80780952D01*
X194217619Y-80209523D02*
X194170000Y-80161904D01*
X194122380Y-80066666D01*
X194122380Y-79828571D01*
X194170000Y-79733333D01*
X194217619Y-79685714D01*
X194312857Y-79638095D01*
X194408095Y-79638095D01*
X194550952Y-79685714D01*
X195122380Y-80257142D01*
X195122380Y-79638095D01*
%TO.C,R83*%
X206997380Y-86217857D02*
X206521190Y-86551190D01*
X206997380Y-86789285D02*
X205997380Y-86789285D01*
X205997380Y-86408333D01*
X206045000Y-86313095D01*
X206092619Y-86265476D01*
X206187857Y-86217857D01*
X206330714Y-86217857D01*
X206425952Y-86265476D01*
X206473571Y-86313095D01*
X206521190Y-86408333D01*
X206521190Y-86789285D01*
X206425952Y-85646428D02*
X206378333Y-85741666D01*
X206330714Y-85789285D01*
X206235476Y-85836904D01*
X206187857Y-85836904D01*
X206092619Y-85789285D01*
X206045000Y-85741666D01*
X205997380Y-85646428D01*
X205997380Y-85455952D01*
X206045000Y-85360714D01*
X206092619Y-85313095D01*
X206187857Y-85265476D01*
X206235476Y-85265476D01*
X206330714Y-85313095D01*
X206378333Y-85360714D01*
X206425952Y-85455952D01*
X206425952Y-85646428D01*
X206473571Y-85741666D01*
X206521190Y-85789285D01*
X206616428Y-85836904D01*
X206806904Y-85836904D01*
X206902142Y-85789285D01*
X206949761Y-85741666D01*
X206997380Y-85646428D01*
X206997380Y-85455952D01*
X206949761Y-85360714D01*
X206902142Y-85313095D01*
X206806904Y-85265476D01*
X206616428Y-85265476D01*
X206521190Y-85313095D01*
X206473571Y-85360714D01*
X206425952Y-85455952D01*
X205997380Y-84932142D02*
X205997380Y-84313095D01*
X206378333Y-84646428D01*
X206378333Y-84503571D01*
X206425952Y-84408333D01*
X206473571Y-84360714D01*
X206568809Y-84313095D01*
X206806904Y-84313095D01*
X206902142Y-84360714D01*
X206949761Y-84408333D01*
X206997380Y-84503571D01*
X206997380Y-84789285D01*
X206949761Y-84884523D01*
X206902142Y-84932142D01*
%TO.C,R84*%
X198122380Y-81530357D02*
X197646190Y-81863690D01*
X198122380Y-82101785D02*
X197122380Y-82101785D01*
X197122380Y-81720833D01*
X197170000Y-81625595D01*
X197217619Y-81577976D01*
X197312857Y-81530357D01*
X197455714Y-81530357D01*
X197550952Y-81577976D01*
X197598571Y-81625595D01*
X197646190Y-81720833D01*
X197646190Y-82101785D01*
X197550952Y-80958928D02*
X197503333Y-81054166D01*
X197455714Y-81101785D01*
X197360476Y-81149404D01*
X197312857Y-81149404D01*
X197217619Y-81101785D01*
X197170000Y-81054166D01*
X197122380Y-80958928D01*
X197122380Y-80768452D01*
X197170000Y-80673214D01*
X197217619Y-80625595D01*
X197312857Y-80577976D01*
X197360476Y-80577976D01*
X197455714Y-80625595D01*
X197503333Y-80673214D01*
X197550952Y-80768452D01*
X197550952Y-80958928D01*
X197598571Y-81054166D01*
X197646190Y-81101785D01*
X197741428Y-81149404D01*
X197931904Y-81149404D01*
X198027142Y-81101785D01*
X198074761Y-81054166D01*
X198122380Y-80958928D01*
X198122380Y-80768452D01*
X198074761Y-80673214D01*
X198027142Y-80625595D01*
X197931904Y-80577976D01*
X197741428Y-80577976D01*
X197646190Y-80625595D01*
X197598571Y-80673214D01*
X197550952Y-80768452D01*
X197455714Y-79720833D02*
X198122380Y-79720833D01*
X197074761Y-79958928D02*
X197789047Y-80197023D01*
X197789047Y-79577976D01*
%TO.C,R85*%
X204047380Y-86217857D02*
X203571190Y-86551190D01*
X204047380Y-86789285D02*
X203047380Y-86789285D01*
X203047380Y-86408333D01*
X203095000Y-86313095D01*
X203142619Y-86265476D01*
X203237857Y-86217857D01*
X203380714Y-86217857D01*
X203475952Y-86265476D01*
X203523571Y-86313095D01*
X203571190Y-86408333D01*
X203571190Y-86789285D01*
X203475952Y-85646428D02*
X203428333Y-85741666D01*
X203380714Y-85789285D01*
X203285476Y-85836904D01*
X203237857Y-85836904D01*
X203142619Y-85789285D01*
X203095000Y-85741666D01*
X203047380Y-85646428D01*
X203047380Y-85455952D01*
X203095000Y-85360714D01*
X203142619Y-85313095D01*
X203237857Y-85265476D01*
X203285476Y-85265476D01*
X203380714Y-85313095D01*
X203428333Y-85360714D01*
X203475952Y-85455952D01*
X203475952Y-85646428D01*
X203523571Y-85741666D01*
X203571190Y-85789285D01*
X203666428Y-85836904D01*
X203856904Y-85836904D01*
X203952142Y-85789285D01*
X203999761Y-85741666D01*
X204047380Y-85646428D01*
X204047380Y-85455952D01*
X203999761Y-85360714D01*
X203952142Y-85313095D01*
X203856904Y-85265476D01*
X203666428Y-85265476D01*
X203571190Y-85313095D01*
X203523571Y-85360714D01*
X203475952Y-85455952D01*
X203047380Y-84360714D02*
X203047380Y-84836904D01*
X203523571Y-84884523D01*
X203475952Y-84836904D01*
X203428333Y-84741666D01*
X203428333Y-84503571D01*
X203475952Y-84408333D01*
X203523571Y-84360714D01*
X203618809Y-84313095D01*
X203856904Y-84313095D01*
X203952142Y-84360714D01*
X203999761Y-84408333D01*
X204047380Y-84503571D01*
X204047380Y-84741666D01*
X203999761Y-84836904D01*
X203952142Y-84884523D01*
%TO.C,R86*%
X208522380Y-81517857D02*
X208046190Y-81851190D01*
X208522380Y-82089285D02*
X207522380Y-82089285D01*
X207522380Y-81708333D01*
X207570000Y-81613095D01*
X207617619Y-81565476D01*
X207712857Y-81517857D01*
X207855714Y-81517857D01*
X207950952Y-81565476D01*
X207998571Y-81613095D01*
X208046190Y-81708333D01*
X208046190Y-82089285D01*
X207950952Y-80946428D02*
X207903333Y-81041666D01*
X207855714Y-81089285D01*
X207760476Y-81136904D01*
X207712857Y-81136904D01*
X207617619Y-81089285D01*
X207570000Y-81041666D01*
X207522380Y-80946428D01*
X207522380Y-80755952D01*
X207570000Y-80660714D01*
X207617619Y-80613095D01*
X207712857Y-80565476D01*
X207760476Y-80565476D01*
X207855714Y-80613095D01*
X207903333Y-80660714D01*
X207950952Y-80755952D01*
X207950952Y-80946428D01*
X207998571Y-81041666D01*
X208046190Y-81089285D01*
X208141428Y-81136904D01*
X208331904Y-81136904D01*
X208427142Y-81089285D01*
X208474761Y-81041666D01*
X208522380Y-80946428D01*
X208522380Y-80755952D01*
X208474761Y-80660714D01*
X208427142Y-80613095D01*
X208331904Y-80565476D01*
X208141428Y-80565476D01*
X208046190Y-80613095D01*
X207998571Y-80660714D01*
X207950952Y-80755952D01*
X207522380Y-79708333D02*
X207522380Y-79898809D01*
X207570000Y-79994047D01*
X207617619Y-80041666D01*
X207760476Y-80136904D01*
X207950952Y-80184523D01*
X208331904Y-80184523D01*
X208427142Y-80136904D01*
X208474761Y-80089285D01*
X208522380Y-79994047D01*
X208522380Y-79803571D01*
X208474761Y-79708333D01*
X208427142Y-79660714D01*
X208331904Y-79613095D01*
X208093809Y-79613095D01*
X207998571Y-79660714D01*
X207950952Y-79708333D01*
X207903333Y-79803571D01*
X207903333Y-79994047D01*
X207950952Y-80089285D01*
X207998571Y-80136904D01*
X208093809Y-80184523D01*
%TO.C,R87*%
X195122380Y-86230357D02*
X194646190Y-86563690D01*
X195122380Y-86801785D02*
X194122380Y-86801785D01*
X194122380Y-86420833D01*
X194170000Y-86325595D01*
X194217619Y-86277976D01*
X194312857Y-86230357D01*
X194455714Y-86230357D01*
X194550952Y-86277976D01*
X194598571Y-86325595D01*
X194646190Y-86420833D01*
X194646190Y-86801785D01*
X194550952Y-85658928D02*
X194503333Y-85754166D01*
X194455714Y-85801785D01*
X194360476Y-85849404D01*
X194312857Y-85849404D01*
X194217619Y-85801785D01*
X194170000Y-85754166D01*
X194122380Y-85658928D01*
X194122380Y-85468452D01*
X194170000Y-85373214D01*
X194217619Y-85325595D01*
X194312857Y-85277976D01*
X194360476Y-85277976D01*
X194455714Y-85325595D01*
X194503333Y-85373214D01*
X194550952Y-85468452D01*
X194550952Y-85658928D01*
X194598571Y-85754166D01*
X194646190Y-85801785D01*
X194741428Y-85849404D01*
X194931904Y-85849404D01*
X195027142Y-85801785D01*
X195074761Y-85754166D01*
X195122380Y-85658928D01*
X195122380Y-85468452D01*
X195074761Y-85373214D01*
X195027142Y-85325595D01*
X194931904Y-85277976D01*
X194741428Y-85277976D01*
X194646190Y-85325595D01*
X194598571Y-85373214D01*
X194550952Y-85468452D01*
X194122380Y-84944642D02*
X194122380Y-84277976D01*
X195122380Y-84706547D01*
%TO.C,R89*%
X187622380Y-82242857D02*
X187146190Y-82576190D01*
X187622380Y-82814285D02*
X186622380Y-82814285D01*
X186622380Y-82433333D01*
X186670000Y-82338095D01*
X186717619Y-82290476D01*
X186812857Y-82242857D01*
X186955714Y-82242857D01*
X187050952Y-82290476D01*
X187098571Y-82338095D01*
X187146190Y-82433333D01*
X187146190Y-82814285D01*
X187050952Y-81671428D02*
X187003333Y-81766666D01*
X186955714Y-81814285D01*
X186860476Y-81861904D01*
X186812857Y-81861904D01*
X186717619Y-81814285D01*
X186670000Y-81766666D01*
X186622380Y-81671428D01*
X186622380Y-81480952D01*
X186670000Y-81385714D01*
X186717619Y-81338095D01*
X186812857Y-81290476D01*
X186860476Y-81290476D01*
X186955714Y-81338095D01*
X187003333Y-81385714D01*
X187050952Y-81480952D01*
X187050952Y-81671428D01*
X187098571Y-81766666D01*
X187146190Y-81814285D01*
X187241428Y-81861904D01*
X187431904Y-81861904D01*
X187527142Y-81814285D01*
X187574761Y-81766666D01*
X187622380Y-81671428D01*
X187622380Y-81480952D01*
X187574761Y-81385714D01*
X187527142Y-81338095D01*
X187431904Y-81290476D01*
X187241428Y-81290476D01*
X187146190Y-81338095D01*
X187098571Y-81385714D01*
X187050952Y-81480952D01*
X187622380Y-80814285D02*
X187622380Y-80623809D01*
X187574761Y-80528571D01*
X187527142Y-80480952D01*
X187384285Y-80385714D01*
X187193809Y-80338095D01*
X186812857Y-80338095D01*
X186717619Y-80385714D01*
X186670000Y-80433333D01*
X186622380Y-80528571D01*
X186622380Y-80719047D01*
X186670000Y-80814285D01*
X186717619Y-80861904D01*
X186812857Y-80909523D01*
X187050952Y-80909523D01*
X187146190Y-80861904D01*
X187193809Y-80814285D01*
X187241428Y-80719047D01*
X187241428Y-80528571D01*
X187193809Y-80433333D01*
X187146190Y-80385714D01*
X187050952Y-80338095D01*
%TO.C,R90*%
X192147380Y-86230357D02*
X191671190Y-86563690D01*
X192147380Y-86801785D02*
X191147380Y-86801785D01*
X191147380Y-86420833D01*
X191195000Y-86325595D01*
X191242619Y-86277976D01*
X191337857Y-86230357D01*
X191480714Y-86230357D01*
X191575952Y-86277976D01*
X191623571Y-86325595D01*
X191671190Y-86420833D01*
X191671190Y-86801785D01*
X192147380Y-85754166D02*
X192147380Y-85563690D01*
X192099761Y-85468452D01*
X192052142Y-85420833D01*
X191909285Y-85325595D01*
X191718809Y-85277976D01*
X191337857Y-85277976D01*
X191242619Y-85325595D01*
X191195000Y-85373214D01*
X191147380Y-85468452D01*
X191147380Y-85658928D01*
X191195000Y-85754166D01*
X191242619Y-85801785D01*
X191337857Y-85849404D01*
X191575952Y-85849404D01*
X191671190Y-85801785D01*
X191718809Y-85754166D01*
X191766428Y-85658928D01*
X191766428Y-85468452D01*
X191718809Y-85373214D01*
X191671190Y-85325595D01*
X191575952Y-85277976D01*
X191147380Y-84658928D02*
X191147380Y-84563690D01*
X191195000Y-84468452D01*
X191242619Y-84420833D01*
X191337857Y-84373214D01*
X191528333Y-84325595D01*
X191766428Y-84325595D01*
X191956904Y-84373214D01*
X192052142Y-84420833D01*
X192099761Y-84468452D01*
X192147380Y-84563690D01*
X192147380Y-84658928D01*
X192099761Y-84754166D01*
X192052142Y-84801785D01*
X191956904Y-84849404D01*
X191766428Y-84897023D01*
X191528333Y-84897023D01*
X191337857Y-84849404D01*
X191242619Y-84801785D01*
X191195000Y-84754166D01*
X191147380Y-84658928D01*
%TO.C,R92*%
X193622380Y-86242857D02*
X193146190Y-86576190D01*
X193622380Y-86814285D02*
X192622380Y-86814285D01*
X192622380Y-86433333D01*
X192670000Y-86338095D01*
X192717619Y-86290476D01*
X192812857Y-86242857D01*
X192955714Y-86242857D01*
X193050952Y-86290476D01*
X193098571Y-86338095D01*
X193146190Y-86433333D01*
X193146190Y-86814285D01*
X193622380Y-85766666D02*
X193622380Y-85576190D01*
X193574761Y-85480952D01*
X193527142Y-85433333D01*
X193384285Y-85338095D01*
X193193809Y-85290476D01*
X192812857Y-85290476D01*
X192717619Y-85338095D01*
X192670000Y-85385714D01*
X192622380Y-85480952D01*
X192622380Y-85671428D01*
X192670000Y-85766666D01*
X192717619Y-85814285D01*
X192812857Y-85861904D01*
X193050952Y-85861904D01*
X193146190Y-85814285D01*
X193193809Y-85766666D01*
X193241428Y-85671428D01*
X193241428Y-85480952D01*
X193193809Y-85385714D01*
X193146190Y-85338095D01*
X193050952Y-85290476D01*
X192717619Y-84909523D02*
X192670000Y-84861904D01*
X192622380Y-84766666D01*
X192622380Y-84528571D01*
X192670000Y-84433333D01*
X192717619Y-84385714D01*
X192812857Y-84338095D01*
X192908095Y-84338095D01*
X193050952Y-84385714D01*
X193622380Y-84957142D01*
X193622380Y-84338095D01*
%TO.C,U9*%
X215406845Y-77264880D02*
X215406845Y-78074404D01*
X215454464Y-78169642D01*
X215502083Y-78217261D01*
X215597321Y-78264880D01*
X215787797Y-78264880D01*
X215883035Y-78217261D01*
X215930654Y-78169642D01*
X215978273Y-78074404D01*
X215978273Y-77264880D01*
X216502083Y-78264880D02*
X216692559Y-78264880D01*
X216787797Y-78217261D01*
X216835416Y-78169642D01*
X216930654Y-78026785D01*
X216978273Y-77836309D01*
X216978273Y-77455357D01*
X216930654Y-77360119D01*
X216883035Y-77312500D01*
X216787797Y-77264880D01*
X216597321Y-77264880D01*
X216502083Y-77312500D01*
X216454464Y-77360119D01*
X216406845Y-77455357D01*
X216406845Y-77693452D01*
X216454464Y-77788690D01*
X216502083Y-77836309D01*
X216597321Y-77883928D01*
X216787797Y-77883928D01*
X216883035Y-77836309D01*
X216930654Y-77788690D01*
X216978273Y-77693452D01*
%TO.C,U10*%
X214992006Y-80277380D02*
X214992006Y-81086904D01*
X215039625Y-81182142D01*
X215087244Y-81229761D01*
X215182482Y-81277380D01*
X215372959Y-81277380D01*
X215468197Y-81229761D01*
X215515816Y-81182142D01*
X215563435Y-81086904D01*
X215563435Y-80277380D01*
X216563435Y-81277380D02*
X215992006Y-81277380D01*
X216277721Y-81277380D02*
X216277721Y-80277380D01*
X216182482Y-80420238D01*
X216087244Y-80515476D01*
X215992006Y-80563095D01*
X217182482Y-80277380D02*
X217277721Y-80277380D01*
X217372959Y-80325000D01*
X217420578Y-80372619D01*
X217468197Y-80467857D01*
X217515816Y-80658333D01*
X217515816Y-80896428D01*
X217468197Y-81086904D01*
X217420578Y-81182142D01*
X217372959Y-81229761D01*
X217277721Y-81277380D01*
X217182482Y-81277380D01*
X217087244Y-81229761D01*
X217039625Y-81182142D01*
X216992006Y-81086904D01*
X216944387Y-80896428D01*
X216944387Y-80658333D01*
X216992006Y-80467857D01*
X217039625Y-80372619D01*
X217087244Y-80325000D01*
X217182482Y-80277380D01*
%TO.C,U17*%
X191157380Y-74034404D02*
X191966904Y-74034404D01*
X192062142Y-73986785D01*
X192109761Y-73939166D01*
X192157380Y-73843928D01*
X192157380Y-73653452D01*
X192109761Y-73558214D01*
X192062142Y-73510595D01*
X191966904Y-73462976D01*
X191157380Y-73462976D01*
X192157380Y-72462976D02*
X192157380Y-73034404D01*
X192157380Y-72748690D02*
X191157380Y-72748690D01*
X191300238Y-72843928D01*
X191395476Y-72939166D01*
X191443095Y-73034404D01*
X191157380Y-72129642D02*
X191157380Y-71462976D01*
X192157380Y-71891547D01*
X187738809Y-79074523D02*
X187738809Y-77804523D01*
X188162142Y-78711666D01*
X188585476Y-77804523D01*
X188585476Y-79074523D01*
X189008809Y-77804523D02*
X189734523Y-77804523D01*
X189371666Y-79074523D02*
X189371666Y-77804523D01*
X190702142Y-78227857D02*
X190702142Y-79074523D01*
X190399761Y-77744047D02*
X190097380Y-78651190D01*
X190883571Y-78651190D01*
X192032619Y-79074523D02*
X191306904Y-79074523D01*
X191669761Y-79074523D02*
X191669761Y-77804523D01*
X191548809Y-77985952D01*
X191427857Y-78106904D01*
X191306904Y-78167380D01*
X192576904Y-79074523D02*
X192576904Y-77804523D01*
X193302619Y-79074523D02*
X192758333Y-78348809D01*
X193302619Y-77804523D02*
X192576904Y-78530238D01*
X194451666Y-77804523D02*
X193846904Y-77804523D01*
X193786428Y-78409285D01*
X193846904Y-78348809D01*
X193967857Y-78288333D01*
X194270238Y-78288333D01*
X194391190Y-78348809D01*
X194451666Y-78409285D01*
X194512142Y-78530238D01*
X194512142Y-78832619D01*
X194451666Y-78953571D01*
X194391190Y-79014047D01*
X194270238Y-79074523D01*
X193967857Y-79074523D01*
X193846904Y-79014047D01*
X193786428Y-78953571D01*
X195721666Y-79074523D02*
X194995952Y-79074523D01*
X195358809Y-79074523D02*
X195358809Y-77804523D01*
X195237857Y-77985952D01*
X195116904Y-78106904D01*
X194995952Y-78167380D01*
X196205476Y-77925476D02*
X196265952Y-77865000D01*
X196386904Y-77804523D01*
X196689285Y-77804523D01*
X196810238Y-77865000D01*
X196870714Y-77925476D01*
X196931190Y-78046428D01*
X196931190Y-78167380D01*
X196870714Y-78348809D01*
X196145000Y-79074523D01*
X196931190Y-79074523D01*
X197475476Y-79074523D02*
X197475476Y-77804523D01*
X197898809Y-78711666D01*
X198322142Y-77804523D01*
X198322142Y-79074523D01*
X199108333Y-78348809D02*
X198987380Y-78288333D01*
X198926904Y-78227857D01*
X198866428Y-78106904D01*
X198866428Y-78046428D01*
X198926904Y-77925476D01*
X198987380Y-77865000D01*
X199108333Y-77804523D01*
X199350238Y-77804523D01*
X199471190Y-77865000D01*
X199531666Y-77925476D01*
X199592142Y-78046428D01*
X199592142Y-78106904D01*
X199531666Y-78227857D01*
X199471190Y-78288333D01*
X199350238Y-78348809D01*
X199108333Y-78348809D01*
X198987380Y-78409285D01*
X198926904Y-78469761D01*
X198866428Y-78590714D01*
X198866428Y-78832619D01*
X198926904Y-78953571D01*
X198987380Y-79014047D01*
X199108333Y-79074523D01*
X199350238Y-79074523D01*
X199471190Y-79014047D01*
X199531666Y-78953571D01*
X199592142Y-78832619D01*
X199592142Y-78590714D01*
X199531666Y-78469761D01*
X199471190Y-78409285D01*
X199350238Y-78348809D01*
X200136428Y-79074523D02*
X200136428Y-77804523D01*
X200438809Y-77804523D01*
X200620238Y-77865000D01*
X200741190Y-77985952D01*
X200801666Y-78106904D01*
X200862142Y-78348809D01*
X200862142Y-78530238D01*
X200801666Y-78772142D01*
X200741190Y-78893095D01*
X200620238Y-79014047D01*
X200438809Y-79074523D01*
X200136428Y-79074523D01*
X201345952Y-78711666D02*
X201950714Y-78711666D01*
X201225000Y-79074523D02*
X201648333Y-77804523D01*
X202071666Y-79074523D01*
X202495000Y-78590714D02*
X203462619Y-78590714D01*
X204732619Y-79074523D02*
X204006904Y-79074523D01*
X204369761Y-79074523D02*
X204369761Y-77804523D01*
X204248809Y-77985952D01*
X204127857Y-78106904D01*
X204006904Y-78167380D01*
X205518809Y-77804523D02*
X205639761Y-77804523D01*
X205760714Y-77865000D01*
X205821190Y-77925476D01*
X205881666Y-78046428D01*
X205942142Y-78288333D01*
X205942142Y-78590714D01*
X205881666Y-78832619D01*
X205821190Y-78953571D01*
X205760714Y-79014047D01*
X205639761Y-79074523D01*
X205518809Y-79074523D01*
X205397857Y-79014047D01*
X205337380Y-78953571D01*
X205276904Y-78832619D01*
X205216428Y-78590714D01*
X205216428Y-78288333D01*
X205276904Y-78046428D01*
X205337380Y-77925476D01*
X205397857Y-77865000D01*
X205518809Y-77804523D01*
X206365476Y-77804523D02*
X207212142Y-77804523D01*
X206667857Y-79074523D01*
X207695952Y-79074523D02*
X207695952Y-77804523D01*
X208179761Y-77804523D01*
X208300714Y-77865000D01*
X208361190Y-77925476D01*
X208421666Y-78046428D01*
X208421666Y-78227857D01*
X208361190Y-78348809D01*
X208300714Y-78409285D01*
X208179761Y-78469761D01*
X207695952Y-78469761D01*
%TO.C,R91*%
X196622380Y-81530357D02*
X196146190Y-81863690D01*
X196622380Y-82101785D02*
X195622380Y-82101785D01*
X195622380Y-81720833D01*
X195670000Y-81625595D01*
X195717619Y-81577976D01*
X195812857Y-81530357D01*
X195955714Y-81530357D01*
X196050952Y-81577976D01*
X196098571Y-81625595D01*
X196146190Y-81720833D01*
X196146190Y-82101785D01*
X196622380Y-81054166D02*
X196622380Y-80863690D01*
X196574761Y-80768452D01*
X196527142Y-80720833D01*
X196384285Y-80625595D01*
X196193809Y-80577976D01*
X195812857Y-80577976D01*
X195717619Y-80625595D01*
X195670000Y-80673214D01*
X195622380Y-80768452D01*
X195622380Y-80958928D01*
X195670000Y-81054166D01*
X195717619Y-81101785D01*
X195812857Y-81149404D01*
X196050952Y-81149404D01*
X196146190Y-81101785D01*
X196193809Y-81054166D01*
X196241428Y-80958928D01*
X196241428Y-80768452D01*
X196193809Y-80673214D01*
X196146190Y-80625595D01*
X196050952Y-80577976D01*
X196622380Y-79625595D02*
X196622380Y-80197023D01*
X196622380Y-79911309D02*
X195622380Y-79911309D01*
X195765238Y-80006547D01*
X195860476Y-80101785D01*
X195908095Y-80197023D01*
%TO.C,R93*%
X192097380Y-81567857D02*
X191621190Y-81901190D01*
X192097380Y-82139285D02*
X191097380Y-82139285D01*
X191097380Y-81758333D01*
X191145000Y-81663095D01*
X191192619Y-81615476D01*
X191287857Y-81567857D01*
X191430714Y-81567857D01*
X191525952Y-81615476D01*
X191573571Y-81663095D01*
X191621190Y-81758333D01*
X191621190Y-82139285D01*
X192097380Y-81091666D02*
X192097380Y-80901190D01*
X192049761Y-80805952D01*
X192002142Y-80758333D01*
X191859285Y-80663095D01*
X191668809Y-80615476D01*
X191287857Y-80615476D01*
X191192619Y-80663095D01*
X191145000Y-80710714D01*
X191097380Y-80805952D01*
X191097380Y-80996428D01*
X191145000Y-81091666D01*
X191192619Y-81139285D01*
X191287857Y-81186904D01*
X191525952Y-81186904D01*
X191621190Y-81139285D01*
X191668809Y-81091666D01*
X191716428Y-80996428D01*
X191716428Y-80805952D01*
X191668809Y-80710714D01*
X191621190Y-80663095D01*
X191525952Y-80615476D01*
X191097380Y-80282142D02*
X191097380Y-79663095D01*
X191478333Y-79996428D01*
X191478333Y-79853571D01*
X191525952Y-79758333D01*
X191573571Y-79710714D01*
X191668809Y-79663095D01*
X191906904Y-79663095D01*
X192002142Y-79710714D01*
X192049761Y-79758333D01*
X192097380Y-79853571D01*
X192097380Y-80139285D01*
X192049761Y-80234523D01*
X192002142Y-80282142D01*
%TO.C,R94*%
X199597380Y-86230357D02*
X199121190Y-86563690D01*
X199597380Y-86801785D02*
X198597380Y-86801785D01*
X198597380Y-86420833D01*
X198645000Y-86325595D01*
X198692619Y-86277976D01*
X198787857Y-86230357D01*
X198930714Y-86230357D01*
X199025952Y-86277976D01*
X199073571Y-86325595D01*
X199121190Y-86420833D01*
X199121190Y-86801785D01*
X199597380Y-85754166D02*
X199597380Y-85563690D01*
X199549761Y-85468452D01*
X199502142Y-85420833D01*
X199359285Y-85325595D01*
X199168809Y-85277976D01*
X198787857Y-85277976D01*
X198692619Y-85325595D01*
X198645000Y-85373214D01*
X198597380Y-85468452D01*
X198597380Y-85658928D01*
X198645000Y-85754166D01*
X198692619Y-85801785D01*
X198787857Y-85849404D01*
X199025952Y-85849404D01*
X199121190Y-85801785D01*
X199168809Y-85754166D01*
X199216428Y-85658928D01*
X199216428Y-85468452D01*
X199168809Y-85373214D01*
X199121190Y-85325595D01*
X199025952Y-85277976D01*
X198930714Y-84420833D02*
X199597380Y-84420833D01*
X198549761Y-84658928D02*
X199264047Y-84897023D01*
X199264047Y-84277976D01*
%TO.C,R95*%
X196622380Y-86230357D02*
X196146190Y-86563690D01*
X196622380Y-86801785D02*
X195622380Y-86801785D01*
X195622380Y-86420833D01*
X195670000Y-86325595D01*
X195717619Y-86277976D01*
X195812857Y-86230357D01*
X195955714Y-86230357D01*
X196050952Y-86277976D01*
X196098571Y-86325595D01*
X196146190Y-86420833D01*
X196146190Y-86801785D01*
X196622380Y-85754166D02*
X196622380Y-85563690D01*
X196574761Y-85468452D01*
X196527142Y-85420833D01*
X196384285Y-85325595D01*
X196193809Y-85277976D01*
X195812857Y-85277976D01*
X195717619Y-85325595D01*
X195670000Y-85373214D01*
X195622380Y-85468452D01*
X195622380Y-85658928D01*
X195670000Y-85754166D01*
X195717619Y-85801785D01*
X195812857Y-85849404D01*
X196050952Y-85849404D01*
X196146190Y-85801785D01*
X196193809Y-85754166D01*
X196241428Y-85658928D01*
X196241428Y-85468452D01*
X196193809Y-85373214D01*
X196146190Y-85325595D01*
X196050952Y-85277976D01*
X195622380Y-84373214D02*
X195622380Y-84849404D01*
X196098571Y-84897023D01*
X196050952Y-84849404D01*
X196003333Y-84754166D01*
X196003333Y-84516071D01*
X196050952Y-84420833D01*
X196098571Y-84373214D01*
X196193809Y-84325595D01*
X196431904Y-84325595D01*
X196527142Y-84373214D01*
X196574761Y-84420833D01*
X196622380Y-84516071D01*
X196622380Y-84754166D01*
X196574761Y-84849404D01*
X196527142Y-84897023D01*
%TO.C,R96*%
X199622380Y-81530357D02*
X199146190Y-81863690D01*
X199622380Y-82101785D02*
X198622380Y-82101785D01*
X198622380Y-81720833D01*
X198670000Y-81625595D01*
X198717619Y-81577976D01*
X198812857Y-81530357D01*
X198955714Y-81530357D01*
X199050952Y-81577976D01*
X199098571Y-81625595D01*
X199146190Y-81720833D01*
X199146190Y-82101785D01*
X199622380Y-81054166D02*
X199622380Y-80863690D01*
X199574761Y-80768452D01*
X199527142Y-80720833D01*
X199384285Y-80625595D01*
X199193809Y-80577976D01*
X198812857Y-80577976D01*
X198717619Y-80625595D01*
X198670000Y-80673214D01*
X198622380Y-80768452D01*
X198622380Y-80958928D01*
X198670000Y-81054166D01*
X198717619Y-81101785D01*
X198812857Y-81149404D01*
X199050952Y-81149404D01*
X199146190Y-81101785D01*
X199193809Y-81054166D01*
X199241428Y-80958928D01*
X199241428Y-80768452D01*
X199193809Y-80673214D01*
X199146190Y-80625595D01*
X199050952Y-80577976D01*
X198622380Y-79720833D02*
X198622380Y-79911309D01*
X198670000Y-80006547D01*
X198717619Y-80054166D01*
X198860476Y-80149404D01*
X199050952Y-80197023D01*
X199431904Y-80197023D01*
X199527142Y-80149404D01*
X199574761Y-80101785D01*
X199622380Y-80006547D01*
X199622380Y-79816071D01*
X199574761Y-79720833D01*
X199527142Y-79673214D01*
X199431904Y-79625595D01*
X199193809Y-79625595D01*
X199098571Y-79673214D01*
X199050952Y-79720833D01*
X199003333Y-79816071D01*
X199003333Y-80006547D01*
X199050952Y-80101785D01*
X199098571Y-80149404D01*
X199193809Y-80197023D01*
%TO.C,U11*%
X164052380Y-56538095D02*
X164861904Y-56538095D01*
X164957142Y-56490476D01*
X165004761Y-56442857D01*
X165052380Y-56347619D01*
X165052380Y-56157142D01*
X165004761Y-56061904D01*
X164957142Y-56014285D01*
X164861904Y-55966666D01*
X164052380Y-55966666D01*
X165052380Y-54966666D02*
X165052380Y-55538095D01*
X165052380Y-55252380D02*
X164052380Y-55252380D01*
X164195238Y-55347619D01*
X164290476Y-55442857D01*
X164338095Y-55538095D01*
X165052380Y-54014285D02*
X165052380Y-54585714D01*
X165052380Y-54300000D02*
X164052380Y-54300000D01*
X164195238Y-54395238D01*
X164290476Y-54490476D01*
X164338095Y-54585714D01*
D12*
%TO.C,C48*%
X190875279Y-86010000D02*
X190549721Y-86010000D01*
X190875279Y-84990000D02*
X190549721Y-84990000D01*
%TO.C,C49*%
X214740102Y-89849721D02*
X214740102Y-90175279D01*
X213720102Y-89849721D02*
X213720102Y-90175279D01*
%TO.C,C51*%
X212090000Y-73862779D02*
X212090000Y-73537221D01*
X213110000Y-73862779D02*
X213110000Y-73537221D01*
%TO.C,C69*%
X191279721Y-66190000D02*
X191605279Y-66190000D01*
X191279721Y-65170000D02*
X191605279Y-65170000D01*
%TO.C,C70*%
X201630279Y-67810000D02*
X201304721Y-67810000D01*
X201630279Y-66790000D02*
X201304721Y-66790000D01*
%TO.C,C71*%
X192544721Y-67730000D02*
X192870279Y-67730000D01*
X192544721Y-66710000D02*
X192870279Y-66710000D01*
%TO.C,C72*%
X204224721Y-78710000D02*
X204550279Y-78710000D01*
X204224721Y-77690000D02*
X204550279Y-77690000D01*
%TO.C,C75*%
X201249721Y-65190000D02*
X201575279Y-65190000D01*
X201249721Y-66210000D02*
X201575279Y-66210000D01*
%TO.C,C76*%
X191050279Y-79390000D02*
X190724721Y-79390000D01*
X191050279Y-80410000D02*
X190724721Y-80410000D01*
%TO.C,C77*%
X198675279Y-77690000D02*
X198349721Y-77690000D01*
X198675279Y-78710000D02*
X198349721Y-78710000D01*
%TO.C,C78*%
X293760000Y-84587221D02*
X293760000Y-84912779D01*
X292740000Y-84587221D02*
X292740000Y-84912779D01*
%TO.C,C79*%
X190724721Y-78910000D02*
X191050279Y-78910000D01*
X190724721Y-77890000D02*
X191050279Y-77890000D01*
%TO.C,C80*%
X291740000Y-77124721D02*
X291740000Y-77450279D01*
X292760000Y-77124721D02*
X292760000Y-77450279D01*
%TO.C,C82*%
X191050279Y-81910000D02*
X190724721Y-81910000D01*
X191050279Y-80890000D02*
X190724721Y-80890000D01*
%TO.C,J33*%
X171382500Y-75370000D02*
X173982500Y-75370000D01*
X173982500Y-75370000D02*
X173982500Y-72770000D01*
X171382500Y-74100000D02*
X171382500Y-72770000D01*
X171382500Y-75370000D02*
X171382500Y-80510000D01*
X171382500Y-80510000D02*
X176582500Y-80510000D01*
X173982500Y-72770000D02*
X176582500Y-72770000D01*
X171382500Y-72770000D02*
X172712500Y-72770000D01*
X176582500Y-72770000D02*
X176582500Y-80510000D01*
%TO.C,R42*%
X216040102Y-79962221D02*
X216040102Y-80287779D01*
X215020102Y-79962221D02*
X215020102Y-80287779D01*
%TO.C,R43*%
X217740102Y-80287779D02*
X217740102Y-79962221D01*
X216720102Y-80287779D02*
X216720102Y-79962221D01*
%TO.C,R44*%
X211310000Y-74437221D02*
X211310000Y-74762779D01*
X210290000Y-74437221D02*
X210290000Y-74762779D01*
%TO.C,R45*%
X211310000Y-77537221D02*
X211310000Y-77862779D01*
X210290000Y-77537221D02*
X210290000Y-77862779D01*
%TO.C,R57*%
X169362779Y-73590000D02*
X169037221Y-73590000D01*
X169362779Y-74610000D02*
X169037221Y-74610000D01*
%TO.C,R58*%
X169362779Y-76090000D02*
X169037221Y-76090000D01*
X169362779Y-77110000D02*
X169037221Y-77110000D01*
%TO.C,R59*%
X169362779Y-78790000D02*
X169037221Y-78790000D01*
X169362779Y-79810000D02*
X169037221Y-79810000D01*
%TO.C,R69*%
X198490000Y-66650279D02*
X198490000Y-66324721D01*
X199510000Y-66650279D02*
X199510000Y-66324721D01*
%TO.C,R70*%
X211485000Y-80712221D02*
X211485000Y-81037779D01*
X210465000Y-80712221D02*
X210465000Y-81037779D01*
%TO.C,R71*%
X195110000Y-81062779D02*
X195110000Y-80737221D01*
X194090000Y-81062779D02*
X194090000Y-80737221D01*
%TO.C,R72*%
X198590000Y-85762779D02*
X198590000Y-85437221D01*
X199610000Y-85762779D02*
X199610000Y-85437221D01*
%TO.C,R73*%
X207035000Y-81050279D02*
X207035000Y-80724721D01*
X206015000Y-81050279D02*
X206015000Y-80724721D01*
%TO.C,R74*%
X204060000Y-81050279D02*
X204060000Y-80724721D01*
X203040000Y-81050279D02*
X203040000Y-80724721D01*
%TO.C,R75*%
X202585000Y-81062779D02*
X202585000Y-80737221D01*
X201565000Y-81062779D02*
X201565000Y-80737221D01*
%TO.C,R76*%
X207010000Y-85737779D02*
X207010000Y-85412221D01*
X205990000Y-85737779D02*
X205990000Y-85412221D01*
%TO.C,R77*%
X201565000Y-85750279D02*
X201565000Y-85424721D01*
X202585000Y-85750279D02*
X202585000Y-85424721D01*
%TO.C,R78*%
X207490000Y-81037779D02*
X207490000Y-80712221D01*
X208510000Y-81037779D02*
X208510000Y-80712221D01*
%TO.C,R79*%
X203040000Y-85750279D02*
X203040000Y-85424721D01*
X204060000Y-85750279D02*
X204060000Y-85424721D01*
%TO.C,R80*%
X209960000Y-85737779D02*
X209960000Y-85412221D01*
X208940000Y-85737779D02*
X208940000Y-85412221D01*
%TO.C,R81*%
X205560000Y-81050279D02*
X205560000Y-80724721D01*
X204540000Y-81050279D02*
X204540000Y-80724721D01*
%TO.C,R82*%
X195590000Y-81050279D02*
X195590000Y-80724721D01*
X196610000Y-81050279D02*
X196610000Y-80724721D01*
%TO.C,R83*%
X208485000Y-85737779D02*
X208485000Y-85412221D01*
X207465000Y-85737779D02*
X207465000Y-85412221D01*
%TO.C,R84*%
X199610000Y-81050279D02*
X199610000Y-80724721D01*
X198590000Y-81050279D02*
X198590000Y-80724721D01*
%TO.C,R85*%
X205535000Y-85737779D02*
X205535000Y-85412221D01*
X204515000Y-85737779D02*
X204515000Y-85412221D01*
%TO.C,R86*%
X210010000Y-81037779D02*
X210010000Y-80712221D01*
X208990000Y-81037779D02*
X208990000Y-80712221D01*
%TO.C,R87*%
X195590000Y-85750279D02*
X195590000Y-85424721D01*
X196610000Y-85750279D02*
X196610000Y-85424721D01*
%TO.C,R89*%
X189110000Y-81762779D02*
X189110000Y-81437221D01*
X188090000Y-81762779D02*
X188090000Y-81437221D01*
%TO.C,R90*%
X193635000Y-85750279D02*
X193635000Y-85424721D01*
X192615000Y-85750279D02*
X192615000Y-85424721D01*
%TO.C,R92*%
X194090000Y-85762779D02*
X194090000Y-85437221D01*
X195110000Y-85762779D02*
X195110000Y-85437221D01*
%TO.C,U9*%
X216168750Y-76972500D02*
X214668750Y-76972500D01*
X217668750Y-73752500D02*
X214668750Y-73752500D01*
%TO.C,U10*%
X216230102Y-86785000D02*
X218180102Y-86785000D01*
X216230102Y-81665000D02*
X218180102Y-81665000D01*
X216230102Y-86785000D02*
X214280102Y-86785000D01*
X216230102Y-81665000D02*
X212780102Y-81665000D01*
D11*
%TO.C,U17*%
X203480000Y-68620000D02*
X203480000Y-76720000D01*
X192880000Y-68620000D02*
X203480000Y-68620000D01*
X192880000Y-76720000D02*
X192880000Y-68620000D01*
X203480000Y-76720000D02*
X192880000Y-76720000D01*
D13*
X193505000Y-77570000D02*
G75*
G03*
X193505000Y-77570000I-125000J0D01*
G01*
D12*
%TO.C,R91*%
X197090000Y-81050279D02*
X197090000Y-80724721D01*
X198110000Y-81050279D02*
X198110000Y-80724721D01*
%TO.C,R93*%
X193585000Y-81087779D02*
X193585000Y-80762221D01*
X192565000Y-81087779D02*
X192565000Y-80762221D01*
%TO.C,R94*%
X201085000Y-85750279D02*
X201085000Y-85424721D01*
X200065000Y-85750279D02*
X200065000Y-85424721D01*
%TO.C,R95*%
X198110000Y-85750279D02*
X198110000Y-85424721D01*
X197090000Y-85750279D02*
X197090000Y-85424721D01*
%TO.C,R96*%
X201110000Y-81050279D02*
X201110000Y-80724721D01*
X200090000Y-81050279D02*
X200090000Y-80724721D01*
%TO.C,U11*%
X165490000Y-43690000D02*
X188710000Y-43690000D01*
X165490000Y-65910000D02*
X165490000Y-43690000D01*
X188710000Y-66910000D02*
X166490000Y-66910000D01*
X188710000Y-43690000D02*
X188710000Y-66910000D01*
%TD*%
M02*
